M48
; DRILL file {KiCad 9.0.7} date 2026-03-27T00:41:39-0700
; FORMAT={-:-/ absolute / metric / decimal}
; #@! TF.CreationDate,2026-03-27T00:41:39-07:00
; #@! TF.GenerationSoftware,Kicad,Pcbnew,9.0.7
; #@! TF.FileFunction,Plated,1,2,PTH
FMAT,2
METRIC
; #@! TA.AperFunction,Plated,PTH,ViaDrill
T1C0.500
; #@! TA.AperFunction,Plated,PTH,ViaDrill
T2C0.701
; #@! TA.AperFunction,Plated,PTH,ViaDrill
T3C0.800
; #@! TA.AperFunction,Plated,PTH,ViaDrill
T4C0.950
; #@! TA.AperFunction,Plated,PTH,ViaDrill
T5C1.001
; #@! TA.AperFunction,Plated,PTH,ViaDrill
T6C3.200
%
G90
G05
T1
X119.601Y-83.5
X119.601Y-115.999
X120.302Y-81.803
X120.302Y-85.197
X120.302Y-114.303
X120.302Y-117.696
X121.999Y-81.1
X121.999Y-85.9
X121.999Y-113.599
X121.999Y-118.4
X123.698Y-81.803
X123.698Y-85.197
X123.698Y-114.303
X123.698Y-117.696
X124.399Y-83.5
X124.399Y-115.999
X161.6Y-83.5
X161.6Y-115.999
X162.303Y-81.803
X162.303Y-85.197
X162.303Y-114.303
X162.303Y-117.696
X164.0Y-81.1
X164.0Y-85.9
X164.0Y-113.599
X164.0Y-118.4
X165.697Y-81.803
X165.697Y-85.197
X165.697Y-114.303
X165.697Y-117.696
X166.4Y-83.5
X166.4Y-115.999
T2
X121.001Y-101.501
X123.541Y-101.501
X125.019Y-110.338
X125.961Y-102.499
X127.559Y-110.338
X127.691Y-112.499
X128.501Y-91.999
X128.501Y-99.619
X128.501Y-102.499
X132.941Y-110.5
X135.311Y-112.499
X138.191Y-112.499
X140.561Y-110.5
X142.001Y-101.46
X142.001Y-104.0
X143.205Y-91.796
X145.745Y-91.796
X145.811Y-112.499
X148.689Y-112.499
X156.309Y-112.499
X158.999Y-99.441
X158.999Y-107.061
X158.999Y-109.69
X158.999Y-117.31
T3
X127.0Y-105.433
X127.0Y-107.432
X128.971Y-116.5
X129.751Y-82.959
X129.751Y-85.499
X129.751Y-88.039
X130.983Y-91.084
X131.369Y-95.555
X131.511Y-116.5
X131.699Y-99.959
X131.699Y-102.499
X131.699Y-105.039
X131.699Y-107.579
X133.368Y-95.555
X133.482Y-91.084
X134.051Y-116.5
X134.874Y-84.544
X134.874Y-86.545
X136.251Y-96.5
X139.319Y-99.959
X139.319Y-102.499
X139.319Y-105.039
X139.319Y-107.579
X139.469Y-116.5
X141.249Y-96.5
X142.009Y-116.5
X142.794Y-108.001
X144.501Y-95.25
X144.501Y-97.749
X144.501Y-101.501
X144.501Y-104.0
X144.549Y-116.5
X144.795Y-108.001
X148.699Y-91.849
X148.699Y-94.389
X148.699Y-96.929
X148.699Y-99.469
X148.699Y-102.009
X148.699Y-104.549
X148.699Y-107.089
X148.699Y-109.629
X149.969Y-116.5
X152.509Y-116.5
X155.049Y-116.5
X156.319Y-91.849
X156.319Y-94.389
X156.319Y-96.929
X156.319Y-99.469
X156.319Y-102.009
X156.319Y-104.549
X156.319Y-107.089
X156.319Y-109.629
X163.5Y-95.75
X163.5Y-98.25
T4
X163.474Y-103.749
X163.474Y-106.251
X163.474Y-108.75
T5
X119.05Y-91.249
X121.001Y-105.999
X121.001Y-108.501
X123.551Y-97.15
X125.349Y-91.049
X138.684Y-81.788
X142.494Y-81.788
X146.304Y-81.788
X150.114Y-81.788
X153.924Y-81.788
X157.734Y-81.788
X161.036Y-92.456
X166.878Y-92.456
T6
X121.999Y-83.5
X121.999Y-115.999
X164.0Y-83.5
X164.0Y-115.999
M30
