%TF.GenerationSoftware,KiCad,Pcbnew,9.0.7*%
%TF.CreationDate,2026-03-27T00:40:57-07:00*%
%TF.ProjectId,PreAmp Class D,50726541-6d70-4204-936c-61737320442e,rev?*%
%TF.SameCoordinates,Original*%
%TF.FileFunction,Legend,Top*%
%TF.FilePolarity,Positive*%
%FSLAX46Y46*%
G04 Gerber Fmt 4.6, Leading zero omitted, Abs format (unit mm)*
G04 Created by KiCad (PCBNEW 9.0.7) date 2026-03-27 00:40:57*
%MOMM*%
%LPD*%
G01*
G04 APERTURE LIST*
%ADD10C,0.150000*%
%ADD11C,0.120000*%
%ADD12C,1.000000*%
%ADD13C,0.000000*%
G04 APERTURE END LIST*
D10*
X141833330Y-112142860D02*
X141833330Y-112285710D01*
X137021770Y-93975180D02*
X136926530Y-93927560D01*
D11*
X145035890Y-105732000D02*
X145035890Y-106960000D01*
D10*
X153523810Y-104380950D02*
X153380950Y-104380950D01*
X126248990Y-111567980D02*
X126153750Y-111710840D01*
X133962290Y-81922950D02*
X134009900Y-81732480D01*
X128952380Y-95214760D02*
X128952380Y-95500480D01*
X131333330Y-112142860D02*
X131333330Y-112285710D01*
D11*
X145755890Y-106301000D02*
X145755890Y-106960000D01*
X141370000Y-97870000D02*
X141370000Y-97555000D01*
X145755890Y-109040000D02*
X145755890Y-109699000D01*
D10*
X142261900Y-112904760D02*
X142214290Y-112857140D01*
D11*
X144555890Y-105532000D02*
X144555890Y-106960000D01*
D10*
X158642860Y-103416670D02*
X158785710Y-103416670D01*
X134832690Y-90913350D02*
X134880300Y-90722880D01*
X146595240Y-110583330D02*
X146404760Y-110583330D01*
D11*
X128040000Y-104630910D02*
X128864000Y-104630910D01*
X133529800Y-93244800D02*
X133529800Y-94514800D01*
D10*
X134295620Y-81494380D02*
X134390860Y-81494380D01*
X124534700Y-112044170D02*
X124439470Y-112091790D01*
D11*
X132528800Y-96594800D02*
X132528800Y-98130800D01*
X160725000Y-110350000D02*
X160725000Y-111600000D01*
D10*
X137355100Y-93594230D02*
X137307490Y-93784700D01*
X139450910Y-92247980D02*
X139450910Y-91247980D01*
D11*
X160864000Y-95119000D02*
X162460000Y-95119000D01*
X143954890Y-105424000D02*
X143954890Y-106960000D01*
X133834000Y-86665890D02*
X132545000Y-86665890D01*
D10*
X150952380Y-100190480D02*
X151333330Y-100523810D01*
D11*
X163275000Y-110550000D02*
X166225000Y-110550000D01*
D10*
X159023810Y-102940480D02*
X159071430Y-102845240D01*
X136070780Y-90865730D02*
X136213640Y-90865730D01*
X136583330Y-110285710D02*
X136535710Y-110380950D01*
D11*
X144125200Y-91795600D02*
G75*
G02*
X142285200Y-91795600I-920000J0D01*
G01*
X142285200Y-91795600D02*
G75*
G02*
X144125200Y-91795600I920000J0D01*
G01*
D10*
X153809520Y-100523810D02*
X153904760Y-100619050D01*
D11*
X163098000Y-93759000D02*
X163902000Y-93759000D01*
D10*
X141738100Y-99200000D02*
X141785710Y-99247620D01*
D11*
X161084000Y-94839000D02*
X162460000Y-94839000D01*
D10*
X144809520Y-93904760D02*
X144904760Y-93952380D01*
D11*
X126323000Y-103910910D02*
X127677000Y-103910910D01*
X128040000Y-105911910D02*
X129528000Y-105911910D01*
D10*
X159261900Y-113285710D02*
X159357140Y-113238100D01*
X142738100Y-111952380D02*
X142261900Y-111952380D01*
X141833330Y-112952380D02*
X141500000Y-112476190D01*
X159642860Y-97357140D02*
X159738100Y-97214290D01*
X144142860Y-93952380D02*
X144047620Y-93952380D01*
D11*
X124450000Y-106031910D02*
X125960000Y-106031910D01*
D10*
X159452380Y-102940480D02*
X159452380Y-102750000D01*
X143224290Y-114642860D02*
X143224290Y-114738100D01*
X141414760Y-115452380D02*
X141081430Y-114976190D01*
D11*
X133880000Y-110500000D02*
X134830000Y-110500000D01*
D10*
X161869050Y-112428570D02*
X161916670Y-112523810D01*
D11*
X124732000Y-105190910D02*
X125960000Y-105190910D01*
D10*
X126190480Y-98190480D02*
X126095240Y-98238100D01*
X151904760Y-101285710D02*
X151857140Y-101238100D01*
D11*
X118250000Y-104200000D02*
X118250000Y-107250000D01*
D10*
X153523810Y-101809520D02*
X153380950Y-101809520D01*
X134962290Y-81589620D02*
X135009900Y-81542000D01*
X123340670Y-100179140D02*
X123293050Y-100226760D01*
D11*
X137439000Y-85824890D02*
X135914000Y-85824890D01*
D10*
X144809520Y-93333330D02*
X144761900Y-93285710D01*
D11*
X137417000Y-85984890D02*
X135914000Y-85984890D01*
D10*
X123197810Y-99274380D02*
X123293050Y-99322000D01*
X142595240Y-112333330D02*
X142690480Y-112380950D01*
D11*
X164540000Y-94719000D02*
X165805000Y-94719000D01*
X134252400Y-91879400D02*
X134252400Y-92504400D01*
X128040000Y-104790910D02*
X129004000Y-104790910D01*
X134929800Y-95036800D02*
X134929800Y-96072800D01*
X136700000Y-87385890D02*
X135914000Y-87385890D01*
D10*
X134926530Y-93832320D02*
X134878910Y-93737090D01*
D11*
X136317000Y-87705890D02*
X133431000Y-87705890D01*
D10*
X152666670Y-111952380D02*
X153333330Y-111952380D01*
D12*
X164000000Y-78500000D02*
G75*
G02*
X169000000Y-83500000I0J-5000000D01*
G01*
D11*
X125257000Y-104510910D02*
X125960000Y-104510910D01*
D10*
X140593770Y-91390840D02*
X140498530Y-91486080D01*
X136878910Y-93070420D02*
X136926530Y-93022800D01*
D11*
X125347000Y-104430910D02*
X125960000Y-104430910D01*
X124435000Y-106151910D02*
X125960000Y-106151910D01*
X132528800Y-92978800D02*
X132528800Y-94514800D01*
X132488800Y-96594800D02*
X132488800Y-98132800D01*
X161025000Y-104500000D02*
X161025000Y-108000000D01*
X133369800Y-93172800D02*
X133369800Y-94514800D01*
D10*
X136488100Y-110428570D02*
X136392860Y-110476190D01*
D11*
X143874890Y-109040000D02*
X143874890Y-110579000D01*
X128651190Y-87856400D02*
G75*
G02*
X127149999Y-85500000I1098810J2356400D01*
G01*
D10*
X125523810Y-98904760D02*
X125380950Y-98952380D01*
X136270950Y-103592380D02*
X136509050Y-103592380D01*
D11*
X128040000Y-104670910D02*
X128901000Y-104670910D01*
X134849800Y-94749800D02*
X134849800Y-96359800D01*
D10*
X160773810Y-112904760D02*
X160630950Y-112952380D01*
X141319520Y-114928570D02*
X141224290Y-114976190D01*
X122864480Y-99893430D02*
X122864480Y-99655330D01*
X144809520Y-93000000D02*
X144904760Y-92952380D01*
X158785710Y-103416670D02*
X158880950Y-103464290D01*
D11*
X134129800Y-96594800D02*
X134129800Y-97455800D01*
D10*
X136402720Y-93975180D02*
X135831300Y-93975180D01*
D11*
X137375000Y-86184890D02*
X135914000Y-86184890D01*
D10*
X152952380Y-105619050D02*
X153666670Y-105619050D01*
D12*
X117000000Y-83500000D02*
G75*
G02*
X122000000Y-78500000I5000000J0D01*
G01*
D10*
X151914760Y-114785710D02*
X151867140Y-114880950D01*
X134927920Y-90627640D02*
X135023160Y-90532400D01*
X153380950Y-99238100D02*
X153190480Y-99190480D01*
D11*
X164540000Y-96079000D02*
X166598000Y-96079000D01*
D10*
X158928570Y-113190480D02*
X158976190Y-113238100D01*
D11*
X125063000Y-104710910D02*
X125960000Y-104710910D01*
X133929800Y-96594800D02*
X133929800Y-97619800D01*
X133834000Y-85544890D02*
X132294000Y-85544890D01*
D10*
X126534700Y-112567980D02*
X125963280Y-112567980D01*
D11*
X133834000Y-86745890D02*
X132584000Y-86745890D01*
D10*
X123102570Y-100274380D02*
X123007330Y-100226760D01*
X130317810Y-80732380D02*
X130222570Y-80875240D01*
X142595240Y-100152380D02*
X142690480Y-100104760D01*
D11*
X128040000Y-104430910D02*
X128653000Y-104430910D01*
D10*
X132714290Y-115452380D02*
X132142860Y-115452380D01*
D11*
X121200000Y-103450000D02*
X121200000Y-104200000D01*
X125395000Y-104390910D02*
X128605000Y-104390910D01*
X159000000Y-116370000D02*
X159000000Y-115420000D01*
D10*
X126785710Y-101032380D02*
X126214290Y-101032380D01*
D11*
X124710000Y-105230910D02*
X125960000Y-105230910D01*
D10*
X153095240Y-101714290D02*
X153000000Y-101619050D01*
X127952380Y-96548100D02*
X127952380Y-96167140D01*
D11*
X161775000Y-111300000D02*
X161775000Y-109500000D01*
D10*
X126500000Y-101032380D02*
X126500000Y-100032380D01*
X140498530Y-91486080D02*
X140403300Y-91533700D01*
X141224290Y-114452380D02*
X141319520Y-114500000D01*
D11*
X146075890Y-106749000D02*
X146075890Y-109251000D01*
X144875890Y-109040000D02*
X144875890Y-110348000D01*
D10*
X144714290Y-93571430D02*
X144714290Y-93761900D01*
X126285710Y-98095240D02*
X126190480Y-98190480D01*
D11*
X132928800Y-96594800D02*
X132928800Y-98074800D01*
D13*
G36*
X147223840Y-83914790D02*
G01*
X147223840Y-87589640D01*
X145384160Y-87589640D01*
X145384160Y-86916290D01*
X145384160Y-86764360D01*
X146086960Y-86764360D01*
X146086960Y-86916290D01*
X146418720Y-86916290D01*
X146418720Y-87258910D01*
X146561350Y-87258910D01*
X146561350Y-86916290D01*
X146893110Y-86916290D01*
X146893110Y-86764360D01*
X146561350Y-86764360D01*
X146561350Y-86421750D01*
X146418720Y-86421750D01*
X146418720Y-86764360D01*
X146086960Y-86764360D01*
X145384160Y-86764360D01*
X145384160Y-86100840D01*
X145730390Y-86100840D01*
X145978440Y-86378340D01*
X146296250Y-86378340D01*
X146094710Y-86158200D01*
X146885360Y-86158200D01*
X146888460Y-86159750D01*
X146893110Y-86158200D01*
X146890010Y-86027970D01*
X146893110Y-85897750D01*
X145730390Y-85897750D01*
X145730390Y-86100840D01*
X145384160Y-86100840D01*
X145384160Y-85897750D01*
X145384160Y-85361350D01*
X145714890Y-85361350D01*
X145725570Y-85476240D01*
X145757610Y-85574940D01*
X145811010Y-85657450D01*
X145881800Y-85720330D01*
X145966040Y-85758050D01*
X146063710Y-85770630D01*
X146197810Y-85753180D01*
X146302450Y-85700860D01*
X146184630Y-85471420D01*
X146123390Y-85508630D01*
X146063710Y-85521030D01*
X145964490Y-85477620D01*
X145927280Y-85361350D01*
X145966040Y-85251280D01*
X146069910Y-85209420D01*
X146151680Y-85231900D01*
X146241990Y-85299340D01*
X146301930Y-85365650D01*
X146357740Y-85444720D01*
X146409420Y-85536530D01*
X146481510Y-85644280D01*
X146567550Y-85710160D01*
X146649200Y-85739450D01*
X146757720Y-85757020D01*
X146893110Y-85762870D01*
X146893110Y-84927270D01*
X146643510Y-84925720D01*
X146641960Y-84928820D01*
X146643510Y-84933470D01*
X146643510Y-85440410D01*
X146577540Y-85394770D01*
X146516050Y-85323970D01*
X146459030Y-85228020D01*
X146412350Y-85150510D01*
X146357050Y-85083330D01*
X146293150Y-85026480D01*
X146190830Y-84969510D01*
X146088510Y-84950520D01*
X145983260Y-84963090D01*
X145892830Y-85000820D01*
X145817210Y-85063690D01*
X145760360Y-85147060D01*
X145726260Y-85246280D01*
X145714890Y-85361350D01*
X145384160Y-85361350D01*
X145384160Y-84193980D01*
X145730390Y-84193980D01*
X146513290Y-84426520D01*
X145730390Y-84665270D01*
X145733490Y-84804790D01*
X145730390Y-84945870D01*
X146893110Y-84550540D01*
X146893110Y-84299400D01*
X145730390Y-83914920D01*
X145733490Y-84054450D01*
X145730390Y-84193980D01*
X145384160Y-84193980D01*
X145384160Y-83914920D01*
X145384160Y-83914790D01*
X146304000Y-83301570D01*
X147223840Y-83914790D01*
G37*
D11*
X122700000Y-106750000D02*
X122700000Y-107750000D01*
D10*
X135223330Y-104544760D02*
X135318570Y-104592380D01*
X142357140Y-112952380D02*
X142261900Y-112904760D01*
X153904760Y-96095240D02*
X153952380Y-96238100D01*
D11*
X128500000Y-98680000D02*
X128500000Y-97730000D01*
D10*
X118738100Y-111952380D02*
X118976190Y-111952380D01*
X129792360Y-109001150D02*
X129697120Y-109096390D01*
X134880300Y-90722880D02*
X134927920Y-90627640D01*
X158880950Y-103035710D02*
X158976190Y-102988100D01*
X153904760Y-98047620D02*
X153952380Y-98190480D01*
D11*
X164540000Y-95559000D02*
X166396000Y-95559000D01*
X164540000Y-95199000D02*
X166190000Y-95199000D01*
D10*
X158500000Y-112809520D02*
X158547620Y-112761900D01*
X158214290Y-96880950D02*
X158261900Y-96690480D01*
X142261900Y-111952380D02*
X142214290Y-112428570D01*
D11*
X137430000Y-85904890D02*
X135914000Y-85904890D01*
D10*
X123340670Y-99369620D02*
X123388290Y-99464860D01*
X151761900Y-111952380D02*
X152142860Y-111952380D01*
X121340670Y-99274380D02*
X121435900Y-99322000D01*
D11*
X137203000Y-86665890D02*
X135914000Y-86665890D01*
D10*
X146261900Y-111107140D02*
X146309520Y-111154760D01*
X142690480Y-100104760D02*
X142738100Y-100057140D01*
D11*
X161015000Y-101190000D02*
X161015000Y-111310000D01*
D10*
X153952380Y-104666670D02*
X153952380Y-105142860D01*
D11*
X144870000Y-112500000D02*
X143920000Y-112500000D01*
D10*
X143033810Y-114452380D02*
X143129050Y-114500000D01*
X124439470Y-111567980D02*
X124534700Y-111615600D01*
X145095240Y-92952380D02*
X145190480Y-93000000D01*
D11*
X159000000Y-106120000D02*
X159000000Y-105170000D01*
X133834000Y-86024890D02*
X132338000Y-86024890D01*
D13*
G36*
X157912280Y-87035070D02*
G01*
X157518510Y-86898640D01*
X157912280Y-86762220D01*
X157912280Y-87035070D01*
G37*
D11*
X144835890Y-105635000D02*
X144835890Y-106960000D01*
X160414000Y-96039000D02*
X162460000Y-96039000D01*
X134252400Y-89664400D02*
X134252400Y-90289400D01*
X133834000Y-86224890D02*
X132383000Y-86224890D01*
X134489800Y-94054800D02*
X134489800Y-97054800D01*
D10*
X151904760Y-100761900D02*
X151857140Y-100809520D01*
D11*
X133834000Y-86905890D02*
X132674000Y-86905890D01*
D10*
X122102570Y-99417240D02*
X122007330Y-99512480D01*
D11*
X163275000Y-101950000D02*
X166225000Y-101950000D01*
X143874890Y-105421000D02*
X143874890Y-106960000D01*
D10*
X118642860Y-112000000D02*
X118738100Y-111952380D01*
X158261900Y-96690480D02*
X158309520Y-96595240D01*
D11*
X144515890Y-109040000D02*
X144515890Y-110480000D01*
D10*
X130904760Y-115452380D02*
X130571430Y-114976190D01*
X153714290Y-99190480D02*
X153523810Y-99238100D01*
X139927100Y-91295600D02*
X139974720Y-91343220D01*
D11*
X127150000Y-85500000D02*
G75*
G02*
X128651190Y-83143601I2600000J0D01*
G01*
D10*
X128380950Y-96024290D02*
X128428570Y-96071900D01*
X136080480Y-104592380D02*
X136699520Y-104592380D01*
D11*
X124558000Y-105590910D02*
X125960000Y-105590910D01*
X144835890Y-109040000D02*
X144835890Y-110365000D01*
D10*
X144761900Y-93857140D02*
X144809520Y-93904760D01*
D11*
X124421000Y-106351910D02*
X125960000Y-106351910D01*
X133834000Y-86505890D02*
X132476000Y-86505890D01*
D10*
X153952380Y-100000000D02*
X152952380Y-100000000D01*
D11*
X161505000Y-94439000D02*
X165495000Y-94439000D01*
X136052000Y-87865890D02*
X133696000Y-87865890D01*
D10*
X142309520Y-100104760D02*
X142404760Y-100152380D01*
X135533710Y-81780100D02*
X135486100Y-81922950D01*
D11*
X133729800Y-96594800D02*
X133729800Y-97754800D01*
X132408800Y-92974800D02*
X132408800Y-94514800D01*
D10*
X142785710Y-112761900D02*
X142738100Y-112857140D01*
D11*
X164540000Y-95439000D02*
X166334000Y-95439000D01*
D10*
X159738100Y-97214290D02*
X159785710Y-97023810D01*
X136926530Y-93927560D02*
X136878910Y-93879940D01*
X151343330Y-114452380D02*
X151724290Y-114452380D01*
X145785710Y-111154760D02*
X145642860Y-111202380D01*
D11*
X125938800Y-110337600D02*
G75*
G02*
X124098800Y-110337600I-920000J0D01*
G01*
X124098800Y-110337600D02*
G75*
G02*
X125938800Y-110337600I920000J0D01*
G01*
D10*
X152952380Y-98809520D02*
X153000000Y-98666670D01*
X153952380Y-97428570D02*
X152952380Y-97428570D01*
X142785710Y-99961900D02*
X142785710Y-99723810D01*
X142738100Y-112428570D02*
X142785710Y-112523810D01*
X160869050Y-112809520D02*
X160773810Y-112904760D01*
X140689010Y-91247980D02*
X140593770Y-91390840D01*
X151761900Y-112952380D02*
X151761900Y-111952380D01*
X153952380Y-99523810D02*
X153952380Y-100000000D01*
D11*
X144595890Y-109040000D02*
X144595890Y-110455000D01*
X143834890Y-105420000D02*
X143834890Y-106960000D01*
X145675890Y-106215000D02*
X145675890Y-106960000D01*
X144194890Y-109040000D02*
X144194890Y-110550000D01*
X143994890Y-109040000D02*
X143994890Y-110573000D01*
D10*
X158547620Y-97452380D02*
X158404760Y-97404760D01*
D11*
X164540000Y-96520000D02*
X166695000Y-96520000D01*
D10*
X128649500Y-109096390D02*
X128697120Y-109001150D01*
D11*
X145195890Y-105825000D02*
X145195890Y-106960000D01*
X128040000Y-105590910D02*
X129442000Y-105590910D01*
D10*
X141642860Y-99152380D02*
X141738100Y-99200000D01*
D11*
X158080000Y-115420000D02*
X159920000Y-115420000D01*
D10*
X151857140Y-100238100D02*
X151904760Y-100285710D01*
X142214290Y-99580950D02*
X142214290Y-99961900D01*
D11*
X137256000Y-86545890D02*
X135914000Y-86545890D01*
D10*
X128333330Y-95214760D02*
X128380950Y-95119520D01*
X158452380Y-114238100D02*
X158452380Y-113857140D01*
D11*
X133369800Y-96594800D02*
X133369800Y-97936800D01*
D10*
X136128100Y-103687620D02*
X136175710Y-103640000D01*
X146690480Y-111154760D02*
X146738100Y-111107140D01*
X141319520Y-114500000D02*
X141367140Y-114547620D01*
X144761900Y-93476190D02*
X144714290Y-93571430D01*
X153857140Y-101190480D02*
X153904760Y-101238100D01*
X136213640Y-91484780D02*
X135927920Y-91484780D01*
X140689010Y-92247980D02*
X140689010Y-91247980D01*
D11*
X135789000Y-87985890D02*
X133959000Y-87985890D01*
X128040000Y-104750910D02*
X128971000Y-104750910D01*
D10*
X161345240Y-112904760D02*
X161297620Y-112857140D01*
X125201370Y-111710840D02*
X125106130Y-111806080D01*
X135318570Y-104592380D02*
X135509050Y-104592380D01*
X136356500Y-91389540D02*
X136308880Y-91437160D01*
D11*
X162698000Y-93839000D02*
X164302000Y-93839000D01*
D10*
X124582320Y-111663220D02*
X124629940Y-111758460D01*
X142500000Y-99152380D02*
X142404760Y-99200000D01*
X135261260Y-90484780D02*
X135404110Y-90532400D01*
D11*
X135679000Y-88025890D02*
X134069000Y-88025890D01*
D13*
G36*
X154040060Y-85873350D02*
G01*
X154135010Y-85898020D01*
X154208870Y-85939150D01*
X154261620Y-85996730D01*
X154293270Y-86070750D01*
X154303820Y-86161230D01*
X154300720Y-86308510D01*
X153547280Y-86308510D01*
X153544180Y-86179830D01*
X153554730Y-86083670D01*
X153586380Y-86004990D01*
X153639130Y-85943800D01*
X153712990Y-85900090D01*
X153807940Y-85873860D01*
X153924000Y-85865120D01*
X154040060Y-85873350D01*
G37*
D11*
X144474890Y-105509000D02*
X144474890Y-106960000D01*
D10*
X159309520Y-96500000D02*
X159261900Y-96547620D01*
D11*
X128040000Y-104510910D02*
X128743000Y-104510910D01*
X137410000Y-86024890D02*
X135914000Y-86024890D01*
D10*
X151724290Y-114976190D02*
X151343330Y-114976190D01*
D11*
X124420000Y-106431910D02*
X125960000Y-106431910D01*
D10*
X153952380Y-104047620D02*
X153904760Y-104190480D01*
D11*
X133289800Y-93140800D02*
X133289800Y-94514800D01*
X160624000Y-95519000D02*
X162460000Y-95519000D01*
D10*
X127952380Y-95024290D02*
X128333330Y-95357620D01*
X158785710Y-96500000D02*
X158833330Y-96547620D01*
D11*
X128040000Y-105150910D02*
X129247000Y-105150910D01*
X128040000Y-105270910D02*
X129310000Y-105270910D01*
X137239000Y-86585890D02*
X135914000Y-86585890D01*
D10*
X136117010Y-92975180D02*
X136021770Y-93118040D01*
D11*
X132488800Y-92976800D02*
X132488800Y-94514800D01*
D10*
X134057520Y-82351520D02*
X134009900Y-82256290D01*
X159309520Y-97452380D02*
X159500000Y-97452380D01*
D11*
X128040000Y-106311910D02*
X129578000Y-106311910D01*
D10*
X143714290Y-99773810D02*
X143714290Y-99630950D01*
D11*
X166225000Y-101950000D02*
X166225000Y-106250000D01*
X140990110Y-106525000D02*
X141490110Y-106525000D01*
X145395890Y-109040000D02*
X145395890Y-110035000D01*
D10*
X141642860Y-99676190D02*
X141261900Y-99676190D01*
X151867140Y-114547620D02*
X151914760Y-114642860D01*
D11*
X137435000Y-85864890D02*
X135914000Y-85864890D01*
X117490000Y-111060000D02*
X123460000Y-111060000D01*
D10*
X159452380Y-113666670D02*
X158976190Y-114000000D01*
D11*
X151510000Y-90520000D02*
X149860000Y-90520000D01*
D10*
X152333330Y-112142860D02*
X152333330Y-112285710D01*
X141367140Y-114547620D02*
X141414760Y-114642860D01*
X158642860Y-102464290D02*
X158547620Y-102511900D01*
X158785710Y-97404760D02*
X158642860Y-97452380D01*
X144333330Y-93857140D02*
X144285710Y-93904760D01*
X135699520Y-104401900D02*
X135699520Y-103592380D01*
D11*
X161408000Y-94519000D02*
X165592000Y-94519000D01*
X128040000Y-105550910D02*
X129428000Y-105550910D01*
D10*
X128047620Y-96024290D02*
X128142860Y-95976670D01*
D11*
X133249800Y-96594800D02*
X133249800Y-97982800D01*
X146195890Y-106989000D02*
X146195890Y-109011000D01*
D10*
X158642860Y-103035710D02*
X158880950Y-103035710D01*
X145309520Y-111059520D02*
X145261900Y-110964290D01*
X141308060Y-92247980D02*
X141927100Y-92247980D01*
X135651900Y-104497140D02*
X135699520Y-104401900D01*
D11*
X144274890Y-109040000D02*
X144274890Y-110536000D01*
X162441000Y-93919000D02*
X164559000Y-93919000D01*
D10*
X128904760Y-95595710D02*
X128857140Y-95643330D01*
D11*
X132848800Y-93018800D02*
X132848800Y-94514800D01*
D10*
X135451730Y-91389540D02*
X135404110Y-91437160D01*
D11*
X145835890Y-106395000D02*
X145835890Y-109605000D01*
X132860000Y-108910000D02*
X138160000Y-108910000D01*
D10*
X144666670Y-99202380D02*
X145333330Y-99202380D01*
X153380950Y-101809520D02*
X153190480Y-101761900D01*
D11*
X137454000Y-85584890D02*
X135914000Y-85584890D01*
D10*
X139974720Y-91343220D02*
X140022340Y-91438460D01*
D11*
X134729800Y-94456800D02*
X134729800Y-96652800D01*
X132928800Y-93034800D02*
X132928800Y-94514800D01*
D10*
X131238100Y-112428570D02*
X131142860Y-112476190D01*
D11*
X133834000Y-85824890D02*
X132309000Y-85824890D01*
X164540000Y-96680000D02*
X166715000Y-96680000D01*
X160514000Y-95759000D02*
X162460000Y-95759000D01*
D10*
X128380950Y-95119520D02*
X128428570Y-95071900D01*
X161726190Y-112952380D02*
X161440480Y-112952380D01*
D11*
X160289000Y-96640000D02*
X162460000Y-96640000D01*
D10*
X158404760Y-96500000D02*
X158547620Y-96452380D01*
X135021770Y-93022800D02*
X135164630Y-92975180D01*
D11*
X145275890Y-109040000D02*
X145275890Y-110122000D01*
D10*
X143714290Y-93523810D02*
X143714290Y-93380950D01*
D11*
X126482000Y-103870910D02*
X127518000Y-103870910D01*
D10*
X136392860Y-110476190D02*
X136011900Y-110476190D01*
D11*
X123750000Y-103150000D02*
X122500000Y-103150000D01*
X133834000Y-85704890D02*
X132298000Y-85704890D01*
X137443000Y-85784890D02*
X135914000Y-85784890D01*
X155370000Y-112500000D02*
X154420000Y-112500000D01*
D10*
X137021770Y-92975180D02*
X137117010Y-92975180D01*
D11*
X133769800Y-96594800D02*
X133769800Y-97729800D01*
X161025000Y-103000000D02*
X161775000Y-103000000D01*
D10*
X126309520Y-100270480D02*
X126214290Y-100318100D01*
X153714290Y-104333330D02*
X153523810Y-104380950D01*
D11*
X122620000Y-101500000D02*
X122000000Y-101500000D01*
D10*
X122864480Y-99655330D02*
X122912100Y-99464860D01*
X158976190Y-103607140D02*
X158976190Y-103988100D01*
D11*
X144555890Y-109040000D02*
X144555890Y-110468000D01*
X160299000Y-96560000D02*
X162460000Y-96560000D01*
D10*
X151914760Y-114642860D02*
X151914760Y-114785710D01*
X130761900Y-111952380D02*
X131142860Y-111952380D01*
X143904760Y-100154760D02*
X143809520Y-100059520D01*
D11*
X124444000Y-106071910D02*
X125960000Y-106071910D01*
D10*
X122912100Y-99464860D02*
X122959710Y-99369620D01*
D11*
X126085000Y-103990910D02*
X127915000Y-103990910D01*
X137354000Y-86265890D02*
X135914000Y-86265890D01*
D10*
X143761900Y-99440480D02*
X143809520Y-99345240D01*
D11*
X134209800Y-93728800D02*
X134209800Y-94514800D01*
D10*
X142738100Y-99628570D02*
X142690480Y-99580950D01*
D11*
X137288000Y-86465890D02*
X135914000Y-86465890D01*
D10*
X142795710Y-114452380D02*
X143033810Y-114452380D01*
X159261900Y-96976190D02*
X159309520Y-97023810D01*
X139440480Y-96285710D02*
X139440480Y-96952380D01*
D11*
X144755890Y-109040000D02*
X144755890Y-110398000D01*
D10*
X136488100Y-110000000D02*
X136535710Y-110047620D01*
D11*
X133834000Y-86865890D02*
X132650000Y-86865890D01*
X128040000Y-106391910D02*
X129580000Y-106391910D01*
D10*
X137117010Y-93975180D02*
X137021770Y-93975180D01*
D11*
X124602000Y-105470910D02*
X125960000Y-105470910D01*
X134889800Y-94877800D02*
X134889800Y-96231800D01*
X160270000Y-96920000D02*
X166730000Y-96920000D01*
X125557000Y-104270910D02*
X128443000Y-104270910D01*
D10*
X118166670Y-112666670D02*
X118119050Y-112809520D01*
D11*
X160467000Y-95879000D02*
X162460000Y-95879000D01*
X124460000Y-101500000D02*
G75*
G02*
X122620000Y-101500000I-920000J0D01*
G01*
X122620000Y-101500000D02*
G75*
G02*
X124460000Y-101500000I920000J0D01*
G01*
X162560000Y-93879000D02*
X164440000Y-93879000D01*
X133689800Y-96594800D02*
X133689800Y-97778800D01*
X128500000Y-92940000D02*
X128500000Y-93890000D01*
X161015000Y-111310000D02*
X166985000Y-111310000D01*
X128040000Y-105230910D02*
X129290000Y-105230910D01*
D10*
X152952380Y-97904760D02*
X153666670Y-97904760D01*
D11*
X111550000Y-96950000D02*
X111550000Y-87750000D01*
X134169800Y-93690800D02*
X134169800Y-94514800D01*
X123460000Y-111060000D02*
X123460000Y-103440000D01*
X161025000Y-108000000D02*
X161775000Y-108000000D01*
D10*
X135832690Y-91437160D02*
X135785070Y-91389540D01*
X130857140Y-114880950D02*
X130809520Y-114928570D01*
D11*
X161786000Y-94239000D02*
X165214000Y-94239000D01*
X164540000Y-96480000D02*
X166689000Y-96480000D01*
D10*
X152952380Y-103047620D02*
X153666670Y-103047620D01*
D11*
X125989000Y-104030910D02*
X128011000Y-104030910D01*
X126880000Y-102500000D02*
X127500000Y-102500000D01*
D10*
X136175710Y-103640000D02*
X136270950Y-103592380D01*
X152142860Y-112476190D02*
X151761900Y-112476190D01*
D11*
X137222000Y-86625890D02*
X135914000Y-86625890D01*
D10*
X137440480Y-110285710D02*
X137440480Y-110952380D01*
D11*
X133834000Y-85584890D02*
X132294000Y-85584890D01*
D10*
X158785710Y-112761900D02*
X158833330Y-112809520D01*
X158976190Y-102511900D02*
X158880950Y-102464290D01*
X152533810Y-115452380D02*
X152867140Y-114452380D01*
D11*
X144034890Y-109040000D02*
X144034890Y-110569000D01*
D10*
X158785710Y-113666670D02*
X158880950Y-113714290D01*
D11*
X144074890Y-109040000D02*
X144074890Y-110565000D01*
X164540000Y-94879000D02*
X165950000Y-94879000D01*
X139130000Y-112500000D02*
X140080000Y-112500000D01*
X132648800Y-96594800D02*
X132648800Y-98119800D01*
D13*
G36*
X139611590Y-83914990D02*
G01*
X139611590Y-87391400D01*
X137756410Y-87391400D01*
X137756410Y-86308780D01*
X138102640Y-86308780D01*
X138885540Y-86541320D01*
X138102640Y-86780070D01*
X138105740Y-86919590D01*
X138102640Y-87060670D01*
X139265360Y-86665350D01*
X139265360Y-86414200D01*
X138102640Y-86029730D01*
X138105740Y-86169250D01*
X138102640Y-86308780D01*
X137756410Y-86308780D01*
X137756410Y-86029730D01*
X137756410Y-85967720D01*
X137756410Y-85589440D01*
X138102640Y-85589440D01*
X138105740Y-85707270D01*
X138105740Y-85837490D01*
X138102640Y-85967720D01*
X138105740Y-85969270D01*
X138110390Y-85967720D01*
X139257610Y-85967720D01*
X139260710Y-85969270D01*
X139265360Y-85967720D01*
X139262260Y-85837490D01*
X139262260Y-85707270D01*
X139265360Y-85542930D01*
X139258180Y-85425800D01*
X139236650Y-85322450D01*
X139200760Y-85232880D01*
X139150520Y-85157080D01*
X139085930Y-85095070D01*
X139006980Y-85046840D01*
X138913670Y-85012390D01*
X138806010Y-84991720D01*
X138684000Y-84984830D01*
X138561990Y-84992290D01*
X138454330Y-85014690D01*
X138361020Y-85052010D01*
X138282070Y-85104260D01*
X138217480Y-85171440D01*
X138167240Y-85253550D01*
X138131350Y-85350580D01*
X138109820Y-85462550D01*
X138102640Y-85589440D01*
X137756410Y-85589440D01*
X137756410Y-84341460D01*
X138087140Y-84341460D01*
X138098180Y-84460730D01*
X138131320Y-84568960D01*
X138186550Y-84666150D01*
X138263870Y-84752290D01*
X138354660Y-84820790D01*
X138454940Y-84869720D01*
X138564720Y-84899080D01*
X138684000Y-84908860D01*
X138803180Y-84899080D01*
X138912670Y-84869720D01*
X139012470Y-84820790D01*
X139102580Y-84752290D01*
X139180580Y-84666150D01*
X139236290Y-84568960D01*
X139269720Y-84460730D01*
X139280860Y-84341460D01*
X139270210Y-84208420D01*
X139238230Y-84093020D01*
X139184940Y-83995260D01*
X139110330Y-83915130D01*
X138905690Y-84053100D01*
X138996130Y-84145780D01*
X139050390Y-84241890D01*
X139068470Y-84341460D01*
X139055730Y-84421210D01*
X139017490Y-84490970D01*
X138953750Y-84550750D01*
X138874860Y-84594670D01*
X138784940Y-84621030D01*
X138684000Y-84629810D01*
X138583060Y-84621030D01*
X138493140Y-84594670D01*
X138414250Y-84550750D01*
X138350520Y-84490970D01*
X138312270Y-84421210D01*
X138299530Y-84341460D01*
X138316750Y-84252230D01*
X138368430Y-84156110D01*
X138454560Y-84053100D01*
X138248370Y-83915130D01*
X138234420Y-83929080D01*
X138181710Y-84003490D01*
X138129170Y-84111330D01*
X138097650Y-84223980D01*
X138087140Y-84341460D01*
X137756410Y-84341460D01*
X137756410Y-83914990D01*
X138684000Y-83296600D01*
X139611590Y-83914990D01*
G37*
D11*
X132608800Y-92985800D02*
X132608800Y-94514800D01*
D10*
X145285710Y-93761900D02*
X145285710Y-93571430D01*
X153095240Y-104285710D02*
X153000000Y-104190480D01*
X142595240Y-99533330D02*
X142404760Y-99533330D01*
D11*
X132728800Y-96594800D02*
X132728800Y-98110800D01*
D10*
X153952380Y-103333330D02*
X153952380Y-103428570D01*
D11*
X160278000Y-96760000D02*
X162460000Y-96760000D01*
D10*
X128792360Y-109810670D02*
X128697120Y-109715440D01*
X158547620Y-113714290D02*
X158642860Y-113666670D01*
X159452380Y-102750000D02*
X159404760Y-102654760D01*
D11*
X137272000Y-86505890D02*
X135914000Y-86505890D01*
X146035890Y-106681000D02*
X146035890Y-109319000D01*
D10*
X138583330Y-96857140D02*
X138535710Y-96904760D01*
X153380950Y-96666670D02*
X153190480Y-96619050D01*
X158833330Y-112809520D02*
X158880950Y-112904760D01*
D11*
X146115890Y-106822000D02*
X146115890Y-109178000D01*
X160276000Y-96800000D02*
X166724000Y-96800000D01*
D10*
X125738100Y-100080000D02*
X125785710Y-100127620D01*
D11*
X164540000Y-95159000D02*
X166164000Y-95159000D01*
D10*
X139974720Y-91676550D02*
X139927100Y-91724170D01*
X153904760Y-104190480D02*
X153809520Y-104285710D01*
X130904760Y-114785710D02*
X130857140Y-114880950D01*
D11*
X146315890Y-107323000D02*
X146315890Y-108677000D01*
D10*
X158452380Y-102845240D02*
X158500000Y-102940480D01*
X151724290Y-114452380D02*
X151819520Y-114500000D01*
D11*
X136996000Y-87025890D02*
X135914000Y-87025890D01*
D10*
X134152760Y-81542000D02*
X134295620Y-81494380D01*
D11*
X137142000Y-86785890D02*
X135914000Y-86785890D01*
D10*
X135785070Y-90484780D02*
X136404110Y-90484780D01*
X144714290Y-93761900D02*
X144761900Y-93857140D01*
D11*
X132888800Y-93026800D02*
X132888800Y-94514800D01*
X123450000Y-106750000D02*
X122700000Y-106750000D01*
X166225000Y-110550000D02*
X166225000Y-106250000D01*
X133834000Y-86064890D02*
X132346000Y-86064890D01*
D10*
X153714290Y-101761900D02*
X153523810Y-101809520D01*
D11*
X127580000Y-93890000D02*
X127580000Y-97730000D01*
D10*
X128601890Y-109286870D02*
X128649500Y-109096390D01*
D11*
X124652000Y-105350910D02*
X125960000Y-105350910D01*
D10*
X161916670Y-112761900D02*
X161869050Y-112857140D01*
D11*
X132568800Y-96594800D02*
X132568800Y-98127800D01*
X124464000Y-105951910D02*
X125960000Y-105951910D01*
D10*
X159071430Y-102845240D02*
X159071430Y-102654760D01*
D11*
X132768800Y-96594800D02*
X132768800Y-98104800D01*
D10*
X132285710Y-112238100D02*
X132238100Y-112380950D01*
X146261900Y-110440480D02*
X146214290Y-110630950D01*
X141736630Y-91247980D02*
X141831870Y-91295600D01*
D11*
X125681000Y-104190910D02*
X128319000Y-104190910D01*
X144995890Y-105710000D02*
X144995890Y-106960000D01*
D10*
X141785710Y-112380950D02*
X141738100Y-112428570D01*
X159309520Y-97023810D02*
X159404760Y-97071430D01*
D11*
X140650000Y-108970000D02*
X140650000Y-98570000D01*
D10*
X151952380Y-100380950D02*
X151952380Y-100666670D01*
D11*
X161318000Y-94599000D02*
X165682000Y-94599000D01*
D10*
X132428570Y-114452380D02*
X132333330Y-114595240D01*
X158642860Y-113666670D02*
X158785710Y-113666670D01*
D11*
X132688800Y-92993800D02*
X132688800Y-94514800D01*
X159920000Y-105170000D02*
X159920000Y-101330000D01*
D10*
X125642860Y-100556190D02*
X125261900Y-100556190D01*
X136699520Y-103878100D02*
X136651900Y-104020950D01*
D11*
X145295000Y-98520000D02*
X145920000Y-98520000D01*
X128040000Y-105310910D02*
X129329000Y-105310910D01*
D10*
X158690480Y-112714290D02*
X158785710Y-112761900D01*
X158452380Y-103607140D02*
X158500000Y-103511900D01*
D11*
X161456000Y-94479000D02*
X165544000Y-94479000D01*
D10*
X158547620Y-112761900D02*
X158642860Y-112714290D01*
X153105240Y-114452380D02*
X153724290Y-114452380D01*
D11*
X144795890Y-109040000D02*
X144795890Y-110382000D01*
D10*
X142690480Y-112904760D02*
X142595240Y-112952380D01*
D11*
X164540000Y-96600000D02*
X166706000Y-96600000D01*
D10*
X121483520Y-99702950D02*
X121435900Y-99750570D01*
D11*
X143954890Y-109040000D02*
X143954890Y-110576000D01*
X130370000Y-98570000D02*
X130370000Y-108970000D01*
X144394890Y-109040000D02*
X144394890Y-110511000D01*
X159920000Y-111580000D02*
X158080000Y-111580000D01*
X133849800Y-96594800D02*
X133849800Y-97676800D01*
D10*
X132238100Y-112047620D02*
X132285710Y-112142860D01*
D11*
X149630000Y-112500000D02*
X150580000Y-112500000D01*
X143920000Y-113420000D02*
X143920000Y-111580000D01*
D10*
X136783680Y-93356130D02*
X136831300Y-93165660D01*
D11*
X133834000Y-85944890D02*
X132324000Y-85944890D01*
X164540000Y-95999000D02*
X166574000Y-95999000D01*
X124420000Y-106391910D02*
X125960000Y-106391910D01*
X128040000Y-105070910D02*
X129200000Y-105070910D01*
X126625000Y-113970000D02*
X136395000Y-113970000D01*
X147625000Y-113970000D02*
X147625000Y-119040000D01*
X125525000Y-109236690D02*
X125525000Y-108736690D01*
X136845000Y-87225890D02*
X135914000Y-87225890D01*
D10*
X137259870Y-93879940D02*
X137212250Y-93927560D01*
X123435900Y-99655330D02*
X123435900Y-99893430D01*
D11*
X124690000Y-105270910D02*
X125960000Y-105270910D01*
X161157000Y-94759000D02*
X162460000Y-94759000D01*
X125099000Y-104670910D02*
X125960000Y-104670910D01*
X133609800Y-96594800D02*
X133609800Y-97822800D01*
D10*
X125666670Y-97952380D02*
X125666670Y-98666670D01*
X124629940Y-111901310D02*
X124582320Y-111996550D01*
X136356500Y-90960970D02*
X136404110Y-91056210D01*
X141927100Y-91533700D02*
X141879490Y-91676550D01*
D11*
X144125200Y-91795600D02*
X144745200Y-91795600D01*
D13*
G36*
X167790090Y-90346520D02*
G01*
X166878000Y-90954580D01*
X165965910Y-90346520D01*
X165965910Y-90344840D01*
X165965910Y-90020830D01*
X166296640Y-90020830D01*
X166299740Y-90236320D01*
X166296640Y-90344840D01*
X166299740Y-90346390D01*
X166304390Y-90344840D01*
X167451610Y-90344840D01*
X167454710Y-90346390D01*
X167459360Y-90344840D01*
X167456260Y-90214610D01*
X167459360Y-90084390D01*
X167005120Y-90084390D01*
X167005120Y-90020830D01*
X166997780Y-89896200D01*
X166975760Y-89790750D01*
X166939060Y-89704470D01*
X166887680Y-89637370D01*
X166821620Y-89589430D01*
X166740880Y-89560670D01*
X166645460Y-89551090D01*
X166552910Y-89560670D01*
X166474610Y-89589430D01*
X166410540Y-89637370D01*
X166360710Y-89704470D01*
X166325120Y-89790750D01*
X166303760Y-89896200D01*
X166296640Y-90020830D01*
X165965910Y-90020830D01*
X165965910Y-88523240D01*
X166296640Y-88523240D01*
X166910560Y-88628660D01*
X166296640Y-88780590D01*
X166296640Y-89031740D01*
X166910560Y-89177470D01*
X166296640Y-89289090D01*
X166299740Y-89428610D01*
X166296640Y-89568140D01*
X166299740Y-89569690D01*
X167459360Y-89329400D01*
X167459360Y-89078250D01*
X166794280Y-88907720D01*
X167459360Y-88743390D01*
X167459360Y-88493790D01*
X166296640Y-88244190D01*
X166299740Y-88383720D01*
X166296640Y-88523240D01*
X165965910Y-88523240D01*
X165965910Y-88244190D01*
X165965910Y-88179080D01*
X165965910Y-86974500D01*
X166296640Y-86974500D01*
X166299740Y-87098520D01*
X166299740Y-87380680D01*
X167037680Y-87579120D01*
X166299740Y-87785300D01*
X166299740Y-88055060D01*
X166296640Y-88179080D01*
X166299740Y-88180630D01*
X166304390Y-88179080D01*
X167451610Y-88179080D01*
X167454710Y-88180630D01*
X167459360Y-88179080D01*
X167456260Y-88055060D01*
X167459360Y-87929480D01*
X167454710Y-87927930D01*
X167451610Y-87929480D01*
X166634600Y-87929480D01*
X167459360Y-87692290D01*
X167459360Y-87461290D01*
X166602050Y-87224100D01*
X167451610Y-87224100D01*
X167454710Y-87225650D01*
X167459360Y-87224100D01*
X167456260Y-87098520D01*
X167459360Y-86974500D01*
X167454710Y-86972950D01*
X167451610Y-86974500D01*
X166304390Y-86974500D01*
X166299740Y-86972950D01*
X166296640Y-86974500D01*
X165965910Y-86974500D01*
X165965910Y-86642220D01*
X167790090Y-86642220D01*
X167790090Y-90346520D01*
G37*
G36*
X158661590Y-83926600D02*
G01*
X158661590Y-88700600D01*
X156806410Y-88700600D01*
X156806410Y-87955940D01*
X157137140Y-87955940D01*
X157147300Y-88071870D01*
X157177790Y-88171600D01*
X157228600Y-88255150D01*
X157296990Y-88318880D01*
X157378120Y-88357120D01*
X157472000Y-88369870D01*
X157566870Y-88357900D01*
X157648910Y-88321980D01*
X157718110Y-88262120D01*
X157774480Y-88178320D01*
X157818020Y-88070580D01*
X157848720Y-87938890D01*
X157881540Y-87802810D01*
X157930370Y-87721160D01*
X157995220Y-87693940D01*
X158055940Y-87712200D01*
X158092380Y-87766980D01*
X158104520Y-87858270D01*
X158090960Y-87942380D01*
X158050260Y-88036560D01*
X157997160Y-88120270D01*
X157937090Y-88185380D01*
X158146380Y-88354370D01*
X158163430Y-88337310D01*
X158206840Y-88283050D01*
X158261100Y-88185580D01*
X158299860Y-88082290D01*
X158323110Y-87973190D01*
X158330860Y-87858270D01*
X158320360Y-87732180D01*
X158288830Y-87626760D01*
X158236300Y-87542010D01*
X158168940Y-87482580D01*
X158086780Y-87446930D01*
X157989800Y-87435040D01*
X157886400Y-87447060D01*
X157797390Y-87483100D01*
X157722760Y-87543180D01*
X157662510Y-87627280D01*
X157616650Y-87735410D01*
X157585170Y-87867570D01*
X157554510Y-87997630D01*
X157512140Y-88075660D01*
X157458050Y-88101670D01*
X157390610Y-88065240D01*
X157368130Y-87955940D01*
X157379670Y-87828990D01*
X157414300Y-87716850D01*
X157472000Y-87619530D01*
X157273560Y-87469150D01*
X157259610Y-87490850D01*
X157227050Y-87549760D01*
X157187720Y-87648980D01*
X157159620Y-87749750D01*
X157142760Y-87852070D01*
X157137140Y-87955940D01*
X156806410Y-87955940D01*
X156806410Y-87035070D01*
X157152640Y-87035070D01*
X158307610Y-87452100D01*
X158310710Y-87455200D01*
X158315360Y-87455200D01*
X158312260Y-87314120D01*
X158315360Y-87174590D01*
X158112270Y-87104830D01*
X158112270Y-86692450D01*
X158315360Y-86622690D01*
X158312260Y-86483160D01*
X158315360Y-86342090D01*
X157155740Y-86752910D01*
X157155740Y-86903290D01*
X157152640Y-87035070D01*
X156806410Y-87035070D01*
X156806410Y-86399450D01*
X156806410Y-85354550D01*
X157152640Y-85354550D01*
X157766560Y-85459970D01*
X157152640Y-85611900D01*
X157152640Y-85863050D01*
X157766560Y-86008770D01*
X157152640Y-86120390D01*
X157155740Y-86259920D01*
X157152640Y-86399450D01*
X157155740Y-86401000D01*
X158315360Y-86160700D01*
X158315360Y-85909550D01*
X157650280Y-85739020D01*
X158315360Y-85574690D01*
X158315360Y-85325090D01*
X157344910Y-85116770D01*
X157258060Y-85114250D01*
X157153500Y-85114250D01*
X157155740Y-85215020D01*
X157152640Y-85354550D01*
X156806410Y-85354550D01*
X156806410Y-84229040D01*
X157152640Y-84229040D01*
X157152640Y-85114250D01*
X157153500Y-85114250D01*
X157152640Y-85075500D01*
X157344910Y-85116770D01*
X157365030Y-85117350D01*
X157365030Y-84801090D01*
X158307610Y-84801090D01*
X158310710Y-84802650D01*
X158315360Y-84801090D01*
X158312260Y-84672420D01*
X158315360Y-84542200D01*
X158310710Y-84540650D01*
X158307610Y-84542200D01*
X157365030Y-84542200D01*
X157365030Y-84225940D01*
X157258060Y-84229040D01*
X157152640Y-84229040D01*
X156806410Y-84229040D01*
X156806410Y-84081760D01*
X158006850Y-84081760D01*
X158052590Y-84191050D01*
X158161880Y-84236790D01*
X158271180Y-84191050D01*
X158316910Y-84081760D01*
X158271180Y-83972460D01*
X158161880Y-83926730D01*
X158052590Y-83972460D01*
X158006850Y-84081760D01*
X156806410Y-84081760D01*
X156806410Y-83926600D01*
X157734000Y-83308200D01*
X158661590Y-83926600D01*
G37*
D11*
X132448800Y-96594800D02*
X132448800Y-98133800D01*
X142000000Y-103080000D02*
X142000000Y-102460000D01*
D10*
X153676670Y-115357140D02*
X153629050Y-115404760D01*
D11*
X164540000Y-95279000D02*
X166242000Y-95279000D01*
X143914890Y-109040000D02*
X143914890Y-110578000D01*
D10*
X136651900Y-104020950D02*
X136080480Y-104592380D01*
D11*
X136573000Y-87505890D02*
X135914000Y-87505890D01*
X133969800Y-96594800D02*
X133969800Y-97589800D01*
X140650000Y-98570000D02*
X130370000Y-98570000D01*
D10*
X153952380Y-96333330D02*
X153904760Y-96476190D01*
X121435900Y-99750570D02*
X121340670Y-99798190D01*
D11*
X157650000Y-90460000D02*
X147370000Y-90460000D01*
D10*
X145238100Y-93857140D02*
X145285710Y-93761900D01*
X158500000Y-113190480D02*
X158452380Y-113095240D01*
X117880950Y-112952380D02*
X117785710Y-112952380D01*
D11*
X134609800Y-94235800D02*
X134609800Y-96873800D01*
X134988800Y-95554800D02*
G75*
G02*
X129748800Y-95554800I-2620000J0D01*
G01*
X129748800Y-95554800D02*
G75*
G02*
X134988800Y-95554800I2620000J0D01*
G01*
X133409800Y-93189800D02*
X133409800Y-94514800D01*
X136395000Y-113970000D02*
X136395000Y-119040000D01*
D10*
X141642860Y-112476190D02*
X141261900Y-112476190D01*
X151333330Y-100380950D02*
X151380950Y-100285710D01*
X153952380Y-103952380D02*
X153952380Y-104047620D01*
X153000000Y-104190480D02*
X152952380Y-104047620D01*
X138059520Y-96809520D02*
X138011900Y-96714290D01*
X134914670Y-82494380D02*
X135533710Y-82494380D01*
X131142860Y-111952380D02*
X131238100Y-112000000D01*
D11*
X134289800Y-96594800D02*
X134289800Y-97297800D01*
X136617000Y-87465890D02*
X135914000Y-87465890D01*
D10*
X138535710Y-96904760D02*
X138392860Y-96952380D01*
D11*
X160758000Y-95279000D02*
X162460000Y-95279000D01*
X138160000Y-98630000D02*
X136510000Y-98630000D01*
D10*
X139202380Y-95904760D02*
X138964290Y-96619050D01*
D11*
X134049800Y-93583800D02*
X134049800Y-94514800D01*
X130212400Y-89664400D02*
X130212400Y-90289400D01*
D10*
X144285710Y-100154760D02*
X144142860Y-100202380D01*
D11*
X134449800Y-94000800D02*
X134449800Y-97108800D01*
D10*
X142690480Y-99580950D02*
X142595240Y-99533330D01*
X129555900Y-81637140D02*
X129603520Y-81541900D01*
D11*
X164540000Y-96560000D02*
X166701000Y-96560000D01*
X136257000Y-87745890D02*
X133491000Y-87745890D01*
X137494000Y-85544890D02*
G75*
G02*
X132254000Y-85544890I-2620000J0D01*
G01*
X132254000Y-85544890D02*
G75*
G02*
X137494000Y-85544890I2620000J0D01*
G01*
X133834000Y-86465890D02*
X132460000Y-86465890D01*
D10*
X144904760Y-93952380D02*
X145095240Y-93952380D01*
X138392860Y-95952380D02*
X138535710Y-96000000D01*
X159357140Y-113238100D02*
X159404760Y-113190480D01*
X129220930Y-109763060D02*
X129173310Y-109810670D01*
X141355680Y-91343220D02*
X141403300Y-91295600D01*
D11*
X160644000Y-95479000D02*
X162460000Y-95479000D01*
D10*
X143714290Y-93380950D02*
X143761900Y-93190480D01*
D11*
X145075890Y-109040000D02*
X145075890Y-110247000D01*
X161775000Y-104500000D02*
X161025000Y-104500000D01*
D10*
X142700480Y-114500000D02*
X142795710Y-114452380D01*
D11*
X144354890Y-109040000D02*
X144354890Y-110520000D01*
D10*
X141785710Y-99247620D02*
X141833330Y-99342860D01*
X125261900Y-101032380D02*
X125261900Y-100032380D01*
D11*
X128040000Y-105951910D02*
X129536000Y-105951910D01*
D10*
X146738100Y-111107140D02*
X146785710Y-111011900D01*
X158880950Y-112904760D02*
X158880950Y-113095240D01*
D11*
X164540000Y-95079000D02*
X166107000Y-95079000D01*
D10*
X129887600Y-108858290D02*
X129792360Y-109001150D01*
X153809520Y-105666670D02*
X153904760Y-105761900D01*
X141785710Y-112047620D02*
X141833330Y-112142860D01*
D11*
X161724000Y-94279000D02*
X165276000Y-94279000D01*
X134009800Y-93550800D02*
X134009800Y-94514800D01*
X132808800Y-96594800D02*
X132808800Y-98097800D01*
X128040000Y-106111910D02*
X129561000Y-106111910D01*
D10*
X159452380Y-103988100D02*
X158452380Y-103988100D01*
X137259870Y-93070420D02*
X137307490Y-93165660D01*
D11*
X118250000Y-110300000D02*
X118250000Y-107250000D01*
X161775000Y-109500000D02*
X161025000Y-109500000D01*
D10*
X145238100Y-93285710D02*
X145190480Y-93333330D01*
D11*
X137454000Y-85544890D02*
X135914000Y-85544890D01*
X162335000Y-93959000D02*
X164665000Y-93959000D01*
D10*
X131238100Y-112000000D02*
X131285710Y-112047620D01*
D11*
X133249800Y-93126800D02*
X133249800Y-94514800D01*
X143080000Y-104770000D02*
X143705000Y-104770000D01*
D10*
X151333330Y-100523810D02*
X151333330Y-100380950D01*
X130127330Y-80970480D02*
X130032100Y-81018100D01*
D11*
X133834000Y-86345890D02*
X132419000Y-86345890D01*
D10*
X142357140Y-99247620D02*
X142261900Y-99390480D01*
X137307490Y-93165660D02*
X137355100Y-93356130D01*
D11*
X145635890Y-106174000D02*
X145635890Y-106960000D01*
X133169800Y-93099800D02*
X133169800Y-94514800D01*
D10*
X136831300Y-93165660D02*
X136878910Y-93070420D01*
D11*
X161346000Y-100185240D02*
X161976000Y-100185240D01*
X128040000Y-106031910D02*
X129550000Y-106031910D01*
D10*
X128649500Y-109620200D02*
X128601890Y-109429720D01*
D11*
X137125000Y-119040000D02*
X146895000Y-119040000D01*
X129420000Y-97730000D02*
X129420000Y-93890000D01*
D10*
X161869050Y-112857140D02*
X161821430Y-112904760D01*
X153724290Y-114452380D02*
X153390950Y-114833330D01*
D11*
X132608800Y-96594800D02*
X132608800Y-98123800D01*
D10*
X159404760Y-97071430D02*
X159595240Y-97071430D01*
X158880950Y-113095240D02*
X158928570Y-113190480D01*
D11*
X133834000Y-87465890D02*
X133131000Y-87465890D01*
X133834000Y-86545890D02*
X132492000Y-86545890D01*
X134249800Y-93769800D02*
X134249800Y-94514800D01*
X164540000Y-96400000D02*
X166675000Y-96400000D01*
D10*
X135343240Y-81494380D02*
X135438480Y-81542000D01*
X132428570Y-115452380D02*
X132428570Y-114452380D01*
X159261900Y-112714290D02*
X159071430Y-112714290D01*
X124629940Y-112567980D02*
X124296610Y-112091790D01*
D11*
X144114890Y-105439000D02*
X144114890Y-106960000D01*
D10*
X153952380Y-98904760D02*
X153904760Y-99047620D01*
X126666670Y-98952380D02*
X126095240Y-98952380D01*
X160916670Y-112666670D02*
X160869050Y-112809520D01*
D11*
X133834000Y-86385890D02*
X132432000Y-86385890D01*
X132728800Y-92998800D02*
X132728800Y-94514800D01*
X138160000Y-108910000D02*
X138160000Y-98630000D01*
D10*
X135164630Y-92975180D02*
X135259870Y-92975180D01*
X122959710Y-100179140D02*
X122912100Y-100083900D01*
X145642860Y-111202380D02*
X145547620Y-111202380D01*
D11*
X144074890Y-105435000D02*
X144074890Y-106960000D01*
X161025000Y-109500000D02*
X161025000Y-111300000D01*
X144915890Y-109040000D02*
X144915890Y-110329000D01*
D10*
X128000000Y-96071900D02*
X128047620Y-96024290D01*
D11*
X122700000Y-109250000D02*
X122700000Y-111050000D01*
X128040000Y-104470910D02*
X128699000Y-104470910D01*
D10*
X153190480Y-104333330D02*
X153095240Y-104285710D01*
X159214290Y-102511900D02*
X159023810Y-102464290D01*
D11*
X125749000Y-104150910D02*
X128251000Y-104150910D01*
D10*
X123293050Y-99322000D02*
X123340670Y-99369620D01*
D11*
X145475890Y-106029000D02*
X145475890Y-106960000D01*
D10*
X121531140Y-99464860D02*
X121531140Y-99607710D01*
X153666670Y-97904760D02*
X153809520Y-97952380D01*
X136213640Y-90865730D02*
X136308880Y-90913350D01*
D11*
X145315890Y-105905000D02*
X145315890Y-106960000D01*
D10*
X153000000Y-98666670D02*
X153047620Y-98619050D01*
D11*
X138670000Y-111420000D02*
X138670000Y-109580000D01*
D10*
X153152860Y-115404760D02*
X153105240Y-115357140D01*
D11*
X128040000Y-106151910D02*
X129565000Y-106151910D01*
D10*
X146214290Y-110630950D02*
X146214290Y-111011900D01*
D11*
X164540000Y-96440000D02*
X166682000Y-96440000D01*
D10*
X153000000Y-96095240D02*
X153047620Y-96047620D01*
X130761900Y-112952380D02*
X130761900Y-111952380D01*
D11*
X126195000Y-103950910D02*
X127805000Y-103950910D01*
X132860000Y-98630000D02*
X132860000Y-108910000D01*
D10*
X136926530Y-93022800D02*
X137021770Y-92975180D01*
D11*
X133834000Y-86585890D02*
X132509000Y-86585890D01*
D10*
X153190480Y-101761900D02*
X153095240Y-101714290D01*
D13*
G36*
X138800060Y-85272110D02*
G01*
X138895010Y-85296780D01*
X138968870Y-85337910D01*
X139021620Y-85395480D01*
X139053270Y-85469510D01*
X139063820Y-85559990D01*
X139060720Y-85707270D01*
X138307280Y-85707270D01*
X138304180Y-85578590D01*
X138314730Y-85482430D01*
X138346380Y-85403750D01*
X138399130Y-85342560D01*
X138472990Y-85298850D01*
X138567940Y-85272620D01*
X138684000Y-85263880D01*
X138800060Y-85272110D01*
G37*
D10*
X159500000Y-97452380D02*
X159595240Y-97404760D01*
D11*
X143080000Y-104770000D02*
X143080000Y-100730000D01*
X124965000Y-104830910D02*
X125960000Y-104830910D01*
X154420000Y-113420000D02*
X154420000Y-111580000D01*
D10*
X158642860Y-97452380D02*
X158547620Y-97452380D01*
X135438480Y-81542000D02*
X135486100Y-81589620D01*
D11*
X133420000Y-113420000D02*
X133420000Y-111580000D01*
X160810000Y-95199000D02*
X162460000Y-95199000D01*
D10*
X158547620Y-103464290D02*
X158642860Y-103416670D01*
D11*
X145115890Y-109040000D02*
X145115890Y-110224000D01*
X128040000Y-104870910D02*
X129065000Y-104870910D01*
D10*
X136011900Y-109952380D02*
X136392860Y-109952380D01*
X152285710Y-112047620D02*
X152333330Y-112142860D01*
D11*
X133849800Y-93432800D02*
X133849800Y-94514800D01*
X136599000Y-82990110D02*
X136099000Y-82990110D01*
X133008800Y-96594800D02*
X133008800Y-98055800D01*
X158080000Y-105170000D02*
X159920000Y-105170000D01*
X125301000Y-104470910D02*
X125960000Y-104470910D01*
X144715890Y-109040000D02*
X144715890Y-110414000D01*
D10*
X159738100Y-96976190D02*
X159785710Y-96880950D01*
X144285710Y-99250000D02*
X144333330Y-99297620D01*
X153533810Y-114833330D02*
X153629050Y-114880950D01*
X153809520Y-101714290D02*
X153714290Y-101761900D01*
D11*
X132888800Y-96594800D02*
X132888800Y-98082800D01*
X133329800Y-96594800D02*
X133329800Y-97952800D01*
D10*
X146738100Y-110678570D02*
X146690480Y-110630950D01*
D11*
X128040000Y-105871910D02*
X129520000Y-105871910D01*
X133409800Y-96594800D02*
X133409800Y-97919800D01*
X164540000Y-96720000D02*
X166718000Y-96720000D01*
D10*
X131761900Y-112000000D02*
X131857140Y-111952380D01*
D11*
X130872800Y-83175820D02*
G75*
G02*
X131600014Y-83699987I-1122800J-2324280D01*
G01*
X124905000Y-104910910D02*
X125960000Y-104910910D01*
D10*
X119119050Y-112380950D02*
X118547620Y-112952380D01*
X153904760Y-101238100D02*
X153952380Y-101380950D01*
X135261260Y-91484780D02*
X135166020Y-91484780D01*
X132238100Y-114690480D02*
X132142860Y-114738100D01*
D12*
X122000000Y-121000000D02*
G75*
G02*
X117000000Y-116000000I0J5000000D01*
G01*
D10*
X122197810Y-99274380D02*
X122102570Y-99417240D01*
X128935220Y-109858290D02*
X128792360Y-109810670D01*
X145404760Y-111154760D02*
X145309520Y-111059520D01*
X144904760Y-93380950D02*
X144809520Y-93333330D01*
D11*
X164540000Y-95479000D02*
X166356000Y-95479000D01*
D10*
X119071430Y-112000000D02*
X119119050Y-112047620D01*
D11*
X144635890Y-105558000D02*
X144635890Y-106960000D01*
X164540000Y-96760000D02*
X166722000Y-96760000D01*
X134689800Y-94376800D02*
X134689800Y-96732800D01*
D10*
X137964290Y-96380950D02*
X138011900Y-96190480D01*
X142404760Y-100152380D02*
X142595240Y-100152380D01*
D11*
X145235890Y-109040000D02*
X145235890Y-110149000D01*
X133129800Y-93086800D02*
X133129800Y-94514800D01*
D10*
X159690480Y-97023810D02*
X159738100Y-96976190D01*
X153676670Y-114928570D02*
X153724290Y-115023810D01*
X142738100Y-112857140D02*
X142690480Y-112904760D01*
X136604290Y-103640000D02*
X136651900Y-103687620D01*
X140843330Y-114452380D02*
X141224290Y-114452380D01*
X153857140Y-96047620D02*
X153904760Y-96095240D01*
D11*
X125446000Y-104350910D02*
X128554000Y-104350910D01*
X134510000Y-98630000D02*
X132860000Y-98630000D01*
X125215000Y-104550910D02*
X125960000Y-104550910D01*
D10*
X135533710Y-81684860D02*
X135533710Y-81780100D01*
D11*
X144194890Y-105450000D02*
X144194890Y-106960000D01*
D10*
X129603520Y-81541900D02*
X129603520Y-80732380D01*
D11*
X124586000Y-105510910D02*
X125960000Y-105510910D01*
D10*
X143176670Y-114547620D02*
X143224290Y-114642860D01*
D11*
X136738000Y-87345890D02*
X135914000Y-87345890D01*
X134249800Y-96594800D02*
X134249800Y-97339800D01*
D10*
X158452380Y-113857140D02*
X158500000Y-113761900D01*
X145642860Y-110202380D02*
X145785710Y-110250000D01*
D11*
X144314890Y-109040000D02*
X144314890Y-110528000D01*
X139884000Y-81788000D02*
G75*
G02*
X137484000Y-81788000I-1200000J0D01*
G01*
X137484000Y-81788000D02*
G75*
G02*
X139884000Y-81788000I1200000J0D01*
G01*
D10*
X159785710Y-97023810D02*
X159785710Y-96642860D01*
X128142860Y-95976670D02*
X128285710Y-95976670D01*
X122007330Y-99512480D02*
X121912100Y-99560100D01*
D11*
X164540000Y-95319000D02*
X166266000Y-95319000D01*
X145635890Y-109040000D02*
X145635890Y-109826000D01*
D10*
X129173310Y-108905910D02*
X129220930Y-108953530D01*
X137212250Y-93022800D02*
X137259870Y-93070420D01*
D11*
X133834000Y-86425890D02*
X132446000Y-86425890D01*
X128040000Y-105630910D02*
X129455000Y-105630910D01*
D10*
X129030460Y-109858290D02*
X128935220Y-109858290D01*
X143809520Y-93095240D02*
X143904760Y-93000000D01*
X151952380Y-101571430D02*
X151952380Y-101380950D01*
X136308880Y-90913350D02*
X136356500Y-90960970D01*
X119166670Y-112238100D02*
X119119050Y-112380950D01*
X118595240Y-112047620D02*
X118642860Y-112000000D01*
X159071430Y-102654760D02*
X159023810Y-102559520D01*
X153952380Y-98190480D02*
X153952380Y-98285710D01*
X137212250Y-93927560D02*
X137117010Y-93975180D01*
X135259870Y-93975180D02*
X135164630Y-93975180D01*
D11*
X133834000Y-87265890D02*
X132937000Y-87265890D01*
D10*
X153666670Y-105619050D02*
X153809520Y-105666670D01*
X153809520Y-104285710D02*
X153714290Y-104333330D01*
D11*
X142920000Y-104000000D02*
G75*
G02*
X141080000Y-104000000I-920000J0D01*
G01*
X141080000Y-104000000D02*
G75*
G02*
X142920000Y-104000000I920000J0D01*
G01*
X128040000Y-104550910D02*
X128785000Y-104550910D01*
X160688000Y-95399000D02*
X162460000Y-95399000D01*
D10*
X153952380Y-102095240D02*
X153952380Y-102571430D01*
X151523810Y-100190480D02*
X151761900Y-100190480D01*
X134831300Y-93403750D02*
X134878910Y-93213280D01*
D11*
X135885000Y-87945890D02*
X133863000Y-87945890D01*
D10*
X144047620Y-93952380D02*
X143904760Y-93904760D01*
X153523810Y-96666670D02*
X153380950Y-96666670D01*
D11*
X133834000Y-86184890D02*
X132373000Y-86184890D01*
X136193000Y-87785890D02*
X133555000Y-87785890D01*
X161610000Y-94359000D02*
X165390000Y-94359000D01*
D10*
X143761900Y-93190480D02*
X143809520Y-93095240D01*
D11*
X144274890Y-105464000D02*
X144274890Y-106960000D01*
D10*
X135486100Y-81589620D02*
X135533710Y-81684860D01*
X142261900Y-112380950D02*
X142357140Y-112333330D01*
D11*
X137385000Y-86144890D02*
X135914000Y-86144890D01*
X145435890Y-109040000D02*
X145435890Y-110004000D01*
D10*
X134832690Y-91056210D02*
X134832690Y-90913350D01*
X144285710Y-93000000D02*
X144333330Y-93047620D01*
X131333330Y-112285710D02*
X131285710Y-112380950D01*
D11*
X164540000Y-96279000D02*
X166650000Y-96279000D01*
D10*
X151857140Y-101714290D02*
X151904760Y-101666670D01*
X129697120Y-109096390D02*
X129601890Y-109144010D01*
X121531140Y-100274380D02*
X121197810Y-99798190D01*
X131285710Y-112380950D02*
X131238100Y-112428570D01*
X121340670Y-99798190D02*
X120959710Y-99798190D01*
D11*
X147370000Y-111020000D02*
X157650000Y-111020000D01*
X133769800Y-93379800D02*
X133769800Y-94514800D01*
X124618000Y-105430910D02*
X125960000Y-105430910D01*
X145915890Y-106500000D02*
X145915890Y-109500000D01*
X136909000Y-87145890D02*
X135914000Y-87145890D01*
X144635890Y-109040000D02*
X144635890Y-110442000D01*
D10*
X135404110Y-91437160D02*
X135261260Y-91484780D01*
D11*
X159920000Y-115420000D02*
X159920000Y-111580000D01*
X143834890Y-109040000D02*
X143834890Y-110580000D01*
D10*
X125833330Y-101032380D02*
X125500000Y-100556190D01*
D11*
X134809800Y-94639800D02*
X134809800Y-96469800D01*
D10*
X158785710Y-113238100D02*
X158690480Y-113285710D01*
D11*
X136775000Y-87305890D02*
X135914000Y-87305890D01*
X123450000Y-111050000D02*
X123450000Y-109250000D01*
X145595890Y-106136000D02*
X145595890Y-106960000D01*
D10*
X152238100Y-112428570D02*
X152142860Y-112476190D01*
X136144000Y-118008400D02*
G75*
G02*
X134537560Y-118008400I-803220J0D01*
G01*
X134537560Y-118008400D02*
G75*
G02*
X136144000Y-118008400I803220J0D01*
G01*
D11*
X161556000Y-94399000D02*
X165444000Y-94399000D01*
X145435890Y-105996000D02*
X145435890Y-106960000D01*
X145315890Y-109040000D02*
X145315890Y-110095000D01*
X133834000Y-86985890D02*
X132725000Y-86985890D01*
X128040000Y-106271910D02*
X129576000Y-106271910D01*
D10*
X126380950Y-98952380D02*
X126380950Y-97952380D01*
D11*
X126880000Y-102500000D02*
G75*
G02*
X125040000Y-102500000I-920000J0D01*
G01*
X125040000Y-102500000D02*
G75*
G02*
X126880000Y-102500000I920000J0D01*
G01*
X160311000Y-96480000D02*
X162460000Y-96480000D01*
X161661000Y-100500240D02*
X161661000Y-99870240D01*
X144675890Y-109040000D02*
X144675890Y-110428000D01*
X133834000Y-86265890D02*
X132394000Y-86265890D01*
D10*
X141785710Y-99580950D02*
X141738100Y-99628570D01*
D11*
X144955890Y-109040000D02*
X144955890Y-110310000D01*
D10*
X132095240Y-111952380D02*
X132190480Y-112000000D01*
X161821430Y-112380950D02*
X161869050Y-112428570D01*
X159452380Y-112904760D02*
X159404760Y-112809520D01*
D11*
X133889800Y-96594800D02*
X133889800Y-97649800D01*
D10*
X119119050Y-112047620D02*
X119166670Y-112142860D01*
X158404760Y-97404760D02*
X158309520Y-97309520D01*
D11*
X133834000Y-87025890D02*
X132752000Y-87025890D01*
D10*
X135259870Y-92975180D02*
X135402720Y-93022800D01*
D11*
X164540000Y-95799000D02*
X166502000Y-95799000D01*
D10*
X139831870Y-91247980D02*
X139927100Y-91295600D01*
D11*
X128040000Y-105510910D02*
X129414000Y-105510910D01*
D10*
X131857140Y-111952380D02*
X132095240Y-111952380D01*
D11*
X164540000Y-96239000D02*
X166641000Y-96239000D01*
D10*
X123197810Y-100274380D02*
X123102570Y-100274380D01*
D11*
X145795890Y-106347000D02*
X145795890Y-106960000D01*
X144434890Y-105499000D02*
X144434890Y-106960000D01*
D10*
X158500000Y-102559520D02*
X158452380Y-102654760D01*
D11*
X136374000Y-87665890D02*
X133374000Y-87665890D01*
X133809800Y-93405800D02*
X133809800Y-94514800D01*
X134569800Y-94171800D02*
X134569800Y-96937800D01*
X145295000Y-104770000D02*
X145920000Y-104770000D01*
D10*
X158880950Y-113714290D02*
X158928570Y-113761900D01*
D11*
X134830000Y-111420000D02*
X138670000Y-111420000D01*
X126050000Y-94950000D02*
X126050000Y-96950000D01*
D10*
X140022340Y-91438460D02*
X140022340Y-91581310D01*
X126248990Y-112567980D02*
X126248990Y-111567980D01*
D11*
X133834000Y-87105890D02*
X132809000Y-87105890D01*
X166770000Y-97000000D02*
G75*
G02*
X160230000Y-97000000I-3270000J0D01*
G01*
X160230000Y-97000000D02*
G75*
G02*
X166770000Y-97000000I3270000J0D01*
G01*
X128040000Y-104910910D02*
X129095000Y-104910910D01*
X133289800Y-96594800D02*
X133289800Y-97968800D01*
X161016000Y-94919000D02*
X162460000Y-94919000D01*
D10*
X143224290Y-114738100D02*
X143176670Y-114880950D01*
D11*
X133929800Y-93489800D02*
X133929800Y-94514800D01*
D10*
X137355100Y-93356130D02*
X137355100Y-93594230D01*
D11*
X160270000Y-97000000D02*
X166730000Y-97000000D01*
D10*
X128428570Y-95071900D02*
X128523810Y-95024290D01*
D11*
X134329800Y-96594800D02*
X134329800Y-97253800D01*
X135972000Y-87905890D02*
X133776000Y-87905890D01*
X121200000Y-111050000D02*
X121200000Y-110300000D01*
X128040000Y-105791910D02*
X129501000Y-105791910D01*
D10*
X159452380Y-114238100D02*
X158452380Y-114238100D01*
D11*
X134089800Y-93617800D02*
X134089800Y-94514800D01*
D10*
X128476190Y-96167140D02*
X128476190Y-96548100D01*
X130857140Y-114547620D02*
X130904760Y-114642860D01*
D11*
X145595890Y-109040000D02*
X145595890Y-109864000D01*
D10*
X135404110Y-90532400D02*
X135451730Y-90580020D01*
D11*
X160318000Y-96440000D02*
X162460000Y-96440000D01*
D10*
X141831870Y-91295600D02*
X141879490Y-91343220D01*
X159214290Y-96642860D02*
X159214290Y-96880950D01*
X159738100Y-96547620D02*
X159690480Y-96500000D01*
D11*
X147370000Y-90460000D02*
X147370000Y-111020000D01*
D10*
X120959710Y-99274380D02*
X121340670Y-99274380D01*
X146357140Y-110297620D02*
X146261900Y-110440480D01*
D11*
X141370000Y-95445000D02*
X141370000Y-95130000D01*
D10*
X128952380Y-96548100D02*
X127952380Y-96548100D01*
X124582320Y-111996550D02*
X124534700Y-112044170D01*
D11*
X134409800Y-93949800D02*
X134409800Y-97159800D01*
X145355890Y-109040000D02*
X145355890Y-110065000D01*
X160359000Y-96239000D02*
X162460000Y-96239000D01*
X160453000Y-95919000D02*
X162460000Y-95919000D01*
X124878000Y-104950910D02*
X125960000Y-104950910D01*
D10*
X161916670Y-111952380D02*
X161583330Y-112333330D01*
D11*
X129620000Y-106431910D02*
G75*
G02*
X124380000Y-106431910I-2620000J0D01*
G01*
X124380000Y-106431910D02*
G75*
G02*
X129620000Y-106431910I2620000J0D01*
G01*
X164540000Y-95919000D02*
X166547000Y-95919000D01*
D10*
X153904760Y-100619050D02*
X153952380Y-100761900D01*
X142309520Y-99580950D02*
X142261900Y-99628570D01*
D11*
X128040000Y-104710910D02*
X128937000Y-104710910D01*
D10*
X136831300Y-93784700D02*
X136783680Y-93594230D01*
X144285710Y-93904760D02*
X144142860Y-93952380D01*
D11*
X137125000Y-113970000D02*
X137125000Y-119040000D01*
X164540000Y-95639000D02*
X166434000Y-95639000D01*
D10*
X153000000Y-101238100D02*
X153047620Y-101190480D01*
X124534700Y-111615600D02*
X124582320Y-111663220D01*
X118976190Y-111952380D02*
X119071430Y-112000000D01*
D11*
X160390000Y-96119000D02*
X162460000Y-96119000D01*
X134969800Y-95270800D02*
X134969800Y-95838800D01*
X164540000Y-96119000D02*
X166610000Y-96119000D01*
D10*
X153523810Y-99238100D02*
X153380950Y-99238100D01*
X159404760Y-113190480D02*
X159452380Y-113095240D01*
X153904760Y-101619050D02*
X153809520Y-101714290D01*
D11*
X124457000Y-105991910D02*
X125960000Y-105991910D01*
D10*
X144761900Y-93047620D02*
X144809520Y-93000000D01*
D11*
X145920000Y-98520000D02*
X145920000Y-94480000D01*
X133048800Y-93063800D02*
X133048800Y-94514800D01*
D10*
X136392860Y-109952380D02*
X136488100Y-110000000D01*
X152952380Y-96333330D02*
X152952380Y-96238100D01*
D11*
X133089800Y-96594800D02*
X133089800Y-98034800D01*
D10*
X123388290Y-99464860D02*
X123435900Y-99655330D01*
D11*
X132808800Y-93011800D02*
X132808800Y-94514800D01*
D10*
X135009900Y-81542000D02*
X135105140Y-81494380D01*
X136509050Y-103592380D02*
X136604290Y-103640000D01*
D11*
X160341000Y-96320000D02*
X162460000Y-96320000D01*
D10*
X142357140Y-112333330D02*
X142595240Y-112333330D01*
X145095240Y-93380950D02*
X144904760Y-93380950D01*
D11*
X145395890Y-105965000D02*
X145395890Y-106960000D01*
D10*
X151857140Y-101238100D02*
X151761900Y-101190480D01*
X151952380Y-100666670D02*
X151904760Y-100761900D01*
D11*
X129814030Y-93829800D02*
X129814030Y-94329800D01*
D10*
X153904760Y-99047620D02*
X153809520Y-99142860D01*
X124439470Y-112091790D02*
X124058510Y-112091790D01*
D11*
X133834000Y-86305890D02*
X132406000Y-86305890D01*
X137049000Y-86945890D02*
X135914000Y-86945890D01*
X160836000Y-95159000D02*
X162460000Y-95159000D01*
D10*
X141261900Y-112952380D02*
X141261900Y-111952380D01*
D11*
X134329800Y-93855800D02*
X134329800Y-94514800D01*
X145515890Y-109040000D02*
X145515890Y-109937000D01*
X144354890Y-105480000D02*
X144354890Y-106960000D01*
D10*
X129508290Y-81684760D02*
X129555900Y-81637140D01*
X144047620Y-92952380D02*
X144142860Y-92952380D01*
D11*
X146414890Y-108000000D02*
G75*
G02*
X141174890Y-108000000I-2620000J0D01*
G01*
X141174890Y-108000000D02*
G75*
G02*
X146414890Y-108000000I2620000J0D01*
G01*
X133834000Y-87305890D02*
X132973000Y-87305890D01*
D10*
X142214290Y-99961900D02*
X142261900Y-100057140D01*
D11*
X145295000Y-94480000D02*
X145920000Y-94480000D01*
X133834000Y-87185890D02*
X132870000Y-87185890D01*
D10*
X129887600Y-109858290D02*
X129887600Y-108858290D01*
D11*
X124935000Y-104870910D02*
X125960000Y-104870910D01*
D10*
X134926530Y-93118040D02*
X135021770Y-93022800D01*
X142033810Y-115452380D02*
X142367140Y-114452380D01*
X130809520Y-114928570D02*
X130714290Y-114976190D01*
D11*
X136428000Y-87625890D02*
X133320000Y-87625890D01*
D10*
X141833330Y-100152380D02*
X141500000Y-99676190D01*
X139927100Y-91724170D02*
X139831870Y-91771790D01*
X134009900Y-81732480D02*
X134057520Y-81637240D01*
X138964290Y-96619050D02*
X139583330Y-96619050D01*
X143904760Y-99250000D02*
X144047620Y-99202380D01*
D11*
X135551000Y-88065890D02*
X134197000Y-88065890D01*
X143694000Y-81788000D02*
G75*
G02*
X141294000Y-81788000I-1200000J0D01*
G01*
X141294000Y-81788000D02*
G75*
G02*
X143694000Y-81788000I1200000J0D01*
G01*
X124509000Y-105751910D02*
X125960000Y-105751910D01*
X133420000Y-111580000D02*
X129580000Y-111580000D01*
D10*
X158547620Y-96452380D02*
X158642860Y-96452380D01*
D11*
X146895000Y-113970000D02*
X146895000Y-119040000D01*
X136527000Y-87545890D02*
X135914000Y-87545890D01*
D10*
X128761900Y-95024290D02*
X128857140Y-95071900D01*
D11*
X161775000Y-108000000D02*
X161775000Y-104500000D01*
X166985000Y-111310000D02*
X166985000Y-101190000D01*
D10*
X125296610Y-112567980D02*
X125296610Y-111567980D01*
X141414760Y-114642860D02*
X141414760Y-114785710D01*
X158642860Y-96452380D02*
X158785710Y-96500000D01*
X152142860Y-111952380D02*
X152238100Y-112000000D01*
X146785710Y-111011900D02*
X146785710Y-110773810D01*
X153095240Y-96571430D02*
X153000000Y-96476190D01*
D11*
X127580000Y-97730000D02*
X129420000Y-97730000D01*
X128040000Y-105430910D02*
X129382000Y-105430910D01*
D10*
X139450910Y-91247980D02*
X139831870Y-91247980D01*
D11*
X160530000Y-95719000D02*
X162460000Y-95719000D01*
D10*
X145214290Y-110773810D02*
X145214290Y-110630950D01*
X138297620Y-95952380D02*
X138392860Y-95952380D01*
X126153750Y-111710840D02*
X126058510Y-111806080D01*
X135486100Y-81922950D02*
X134914670Y-82494380D01*
D11*
X129564030Y-94079800D02*
X130064030Y-94079800D01*
D10*
X131190480Y-114452380D02*
X131523810Y-115452380D01*
D11*
X160710000Y-95359000D02*
X162460000Y-95359000D01*
D10*
X146214290Y-111011900D02*
X146261900Y-111107140D01*
D11*
X124851000Y-104990910D02*
X125960000Y-104990910D01*
D10*
X146690480Y-110630950D02*
X146595240Y-110583330D01*
X125106130Y-111806080D02*
X125010900Y-111853700D01*
X125642860Y-100032380D02*
X125738100Y-100080000D01*
X153857140Y-98619050D02*
X153904760Y-98666670D01*
D11*
X126625000Y-119040000D02*
X136395000Y-119040000D01*
D10*
X129413050Y-81732380D02*
X129508290Y-81684760D01*
D11*
X129580000Y-111580000D02*
X129580000Y-113420000D01*
D10*
X141738100Y-112428570D02*
X141642860Y-112476190D01*
X146690480Y-110202380D02*
X146500000Y-110202380D01*
D11*
X128040000Y-106431910D02*
X129580000Y-106431910D01*
D10*
X125785710Y-100127620D02*
X125833330Y-100222860D01*
X123293050Y-100226760D02*
X123197810Y-100274380D01*
X138392860Y-96952380D02*
X138297620Y-96952380D01*
X153952380Y-101380950D02*
X153952380Y-101476190D01*
D11*
X128630000Y-112500000D02*
X129580000Y-112500000D01*
D10*
X145285710Y-93190480D02*
X145238100Y-93285710D01*
D11*
X138670000Y-109580000D02*
X134830000Y-109580000D01*
D10*
X126404760Y-100175240D02*
X126309520Y-100270480D01*
D11*
X144515890Y-105520000D02*
X144515890Y-106960000D01*
X129420000Y-93890000D02*
X127580000Y-93890000D01*
X133449800Y-96594800D02*
X133449800Y-97902800D01*
X126350000Y-89150000D02*
X126350000Y-87450000D01*
X150580000Y-113420000D02*
X154420000Y-113420000D01*
D10*
X142214290Y-112428570D02*
X142261900Y-112380950D01*
X161821430Y-112904760D02*
X161726190Y-112952380D01*
X159261900Y-96547620D02*
X159214290Y-96642860D01*
D11*
X133834000Y-86785890D02*
X132606000Y-86785890D01*
D10*
X146404760Y-111202380D02*
X146595240Y-111202380D01*
X157124400Y-118008400D02*
G75*
G02*
X155517960Y-118008400I-803220J0D01*
G01*
X155517960Y-118008400D02*
G75*
G02*
X157124400Y-118008400I803220J0D01*
G01*
D11*
X133048800Y-96594800D02*
X133048800Y-98045800D01*
D10*
X130904760Y-114642860D02*
X130904760Y-114785710D01*
X145238100Y-93047620D02*
X145285710Y-93142860D01*
X141498530Y-91247980D02*
X141736630Y-91247980D01*
D11*
X125822000Y-104110910D02*
X128178000Y-104110910D01*
X137453000Y-85624890D02*
X135914000Y-85624890D01*
D10*
X132190480Y-112000000D02*
X132238100Y-112047620D01*
X135450340Y-93879940D02*
X135402720Y-93927560D01*
D13*
G36*
X154851590Y-83939530D02*
G01*
X154851590Y-89195670D01*
X152996410Y-89195670D01*
X152996410Y-88444810D01*
X153342640Y-88444810D01*
X154497610Y-88861840D01*
X154500710Y-88864940D01*
X154505360Y-88864940D01*
X154502260Y-88723860D01*
X154505360Y-88584340D01*
X154302270Y-88514570D01*
X154302270Y-88102200D01*
X154505360Y-88032430D01*
X154502260Y-87892910D01*
X154505360Y-87751830D01*
X153345740Y-88162660D01*
X153345740Y-88313040D01*
X153342640Y-88444810D01*
X152996410Y-88444810D01*
X152996410Y-87702220D01*
X152996410Y-86741040D01*
X153342640Y-86741040D01*
X153345740Y-86869710D01*
X153342640Y-86999940D01*
X153345740Y-87001490D01*
X153350390Y-86999940D01*
X154013920Y-86999940D01*
X154130580Y-87013790D01*
X154213910Y-87055360D01*
X154263900Y-87124640D01*
X154280570Y-87221630D01*
X154263900Y-87318620D01*
X154213910Y-87387900D01*
X154130580Y-87429470D01*
X154013920Y-87443320D01*
X153342640Y-87441770D01*
X153345740Y-87572000D01*
X153342640Y-87702220D01*
X153345740Y-87703770D01*
X153350390Y-87702220D01*
X154058880Y-87702220D01*
X154167150Y-87694710D01*
X154261000Y-87672180D01*
X154340400Y-87634640D01*
X154405370Y-87582070D01*
X154455900Y-87514490D01*
X154491990Y-87431890D01*
X154513640Y-87334270D01*
X154520860Y-87221630D01*
X154513640Y-87108990D01*
X154491990Y-87011370D01*
X154455900Y-86928770D01*
X154405370Y-86861190D01*
X154340400Y-86808620D01*
X154261000Y-86771080D01*
X154167150Y-86748550D01*
X154058880Y-86741040D01*
X153350390Y-86741040D01*
X153345740Y-86739490D01*
X153342640Y-86741040D01*
X152996410Y-86741040D01*
X152996410Y-86568960D01*
X152996410Y-86190680D01*
X153342640Y-86190680D01*
X153345740Y-86308510D01*
X153345740Y-86438730D01*
X153342640Y-86568960D01*
X153345740Y-86570510D01*
X153350390Y-86568960D01*
X154497610Y-86568960D01*
X154500710Y-86570510D01*
X154505360Y-86568960D01*
X154502260Y-86438730D01*
X154502260Y-86308510D01*
X154505360Y-86144180D01*
X154498180Y-86027040D01*
X154476650Y-85923690D01*
X154440760Y-85834120D01*
X154390520Y-85758320D01*
X154325930Y-85696310D01*
X154246980Y-85648080D01*
X154153670Y-85613630D01*
X154046010Y-85592960D01*
X153924000Y-85586070D01*
X153801990Y-85593530D01*
X153694330Y-85615930D01*
X153601020Y-85653250D01*
X153522070Y-85705500D01*
X153457480Y-85772680D01*
X153407240Y-85854790D01*
X153371350Y-85951820D01*
X153349820Y-86063790D01*
X153342640Y-86190680D01*
X152996410Y-86190680D01*
X152996410Y-85435690D01*
X152996410Y-85176790D01*
X153342640Y-85176790D01*
X153345740Y-85307020D01*
X153342640Y-85435690D01*
X153345740Y-85437240D01*
X153350390Y-85435690D01*
X154497610Y-85435690D01*
X154500710Y-85437240D01*
X154505360Y-85435690D01*
X154502260Y-85307020D01*
X154505360Y-85176790D01*
X154500710Y-85175240D01*
X154497610Y-85176790D01*
X153350390Y-85176790D01*
X153345740Y-85175240D01*
X153342640Y-85176790D01*
X152996410Y-85176790D01*
X152996410Y-84493110D01*
X153327140Y-84493110D01*
X153337800Y-84606090D01*
X153369770Y-84709380D01*
X153423060Y-84802980D01*
X153497670Y-84886890D01*
X153588850Y-84956070D01*
X153690290Y-85005490D01*
X153802010Y-85035130D01*
X153924000Y-85045020D01*
X154051610Y-85035520D01*
X154166230Y-85007040D01*
X154267870Y-84959560D01*
X154356530Y-84893090D01*
X154428430Y-84811120D01*
X154479780Y-84717130D01*
X154510590Y-84611130D01*
X154520860Y-84493110D01*
X154510590Y-84374420D01*
X154479780Y-84267930D01*
X154428430Y-84173660D01*
X154356530Y-84091590D01*
X154267870Y-84025120D01*
X154166230Y-83977640D01*
X154051610Y-83949150D01*
X153924000Y-83939660D01*
X153802010Y-83949540D01*
X153690290Y-83979190D01*
X153588850Y-84028610D01*
X153497670Y-84097790D01*
X153423060Y-84181800D01*
X153369770Y-84275690D01*
X153337800Y-84379460D01*
X153327140Y-84493110D01*
X152996410Y-84493110D01*
X152996410Y-83939530D01*
X153924000Y-83321130D01*
X154851590Y-83939530D01*
G37*
D11*
X133008800Y-93053800D02*
X133008800Y-94514800D01*
X144034890Y-105431000D02*
X144034890Y-106960000D01*
X161195000Y-94719000D02*
X162460000Y-94719000D01*
D10*
X159785710Y-96642860D02*
X159738100Y-96547620D01*
X125833330Y-100222860D02*
X125833330Y-100365710D01*
D11*
X164540000Y-96320000D02*
X166659000Y-96320000D01*
X136125000Y-87825890D02*
X133623000Y-87825890D01*
X133489800Y-93225800D02*
X133489800Y-94514800D01*
X160426000Y-95999000D02*
X162460000Y-95999000D01*
X124996000Y-104790910D02*
X125960000Y-104790910D01*
D10*
X145333330Y-99202380D02*
X144904760Y-100202380D01*
X141879490Y-91676550D02*
X141308060Y-92247980D01*
D11*
X164540000Y-95759000D02*
X166486000Y-95759000D01*
D10*
X134878910Y-93213280D02*
X134926530Y-93118040D01*
X128935220Y-108858290D02*
X129030460Y-108858290D01*
D12*
X169000000Y-116000000D02*
G75*
G02*
X164000000Y-121000000I-5000000J0D01*
G01*
D10*
X136878910Y-93879940D02*
X136831300Y-93784700D01*
X134581330Y-82399140D02*
X134533710Y-82446760D01*
D11*
X128040000Y-104990910D02*
X129149000Y-104990910D01*
D10*
X136535710Y-110047620D02*
X136583330Y-110142860D01*
D11*
X132768800Y-93004800D02*
X132768800Y-94514800D01*
D10*
X122197810Y-100274380D02*
X122197810Y-99274380D01*
D11*
X164540000Y-96039000D02*
X166586000Y-96039000D01*
X136969000Y-87065890D02*
X135914000Y-87065890D01*
D10*
X152333330Y-112285710D02*
X152285710Y-112380950D01*
D11*
X161919000Y-94159000D02*
X165081000Y-94159000D01*
D10*
X145190480Y-93428570D02*
X145095240Y-93380950D01*
D11*
X131600000Y-87300000D02*
X131600000Y-83700000D01*
X125902000Y-104070910D02*
X128098000Y-104070910D01*
X164540000Y-96159000D02*
X166621000Y-96159000D01*
D10*
X146595240Y-111202380D02*
X146690480Y-111154760D01*
D11*
X133834000Y-86825890D02*
X132627000Y-86825890D01*
X124424000Y-106271910D02*
X125960000Y-106271910D01*
X164540000Y-94999000D02*
X166048000Y-94999000D01*
D10*
X128601890Y-109429720D02*
X128601890Y-109286870D01*
X131523810Y-115452380D02*
X131857140Y-114452380D01*
X153666670Y-100476190D02*
X153809520Y-100523810D01*
X136011900Y-110952380D02*
X136011900Y-109952380D01*
D11*
X133689800Y-93330800D02*
X133689800Y-94514800D01*
X144474890Y-109040000D02*
X144474890Y-110491000D01*
X133129800Y-96594800D02*
X133129800Y-98022800D01*
X149860000Y-90520000D02*
X149860000Y-110960000D01*
D10*
X143761900Y-93714290D02*
X143714290Y-93523810D01*
X160916670Y-111952380D02*
X160916670Y-112666670D01*
X158214290Y-97023810D02*
X158214290Y-96880950D01*
D11*
X153510000Y-90520000D02*
G75*
G02*
X151510000Y-90520000I-1000000J0D01*
G01*
X149860000Y-110960000D02*
X155160000Y-110960000D01*
X133834000Y-86144890D02*
X132363000Y-86144890D01*
D10*
X127952380Y-95643330D02*
X127952380Y-95024290D01*
X146500000Y-110202380D02*
X146404760Y-110250000D01*
X144333330Y-100107140D02*
X144285710Y-100154760D01*
X135166020Y-90484780D02*
X135261260Y-90484780D01*
X124058510Y-111567980D02*
X124439470Y-111567980D01*
X153390950Y-114833330D02*
X153533810Y-114833330D01*
X141261900Y-111952380D02*
X141642860Y-111952380D01*
X159071430Y-113285710D02*
X159261900Y-113285710D01*
X152952380Y-104047620D02*
X152952380Y-103952380D01*
D11*
X145515890Y-106063000D02*
X145515890Y-106960000D01*
X125617000Y-104230910D02*
X128383000Y-104230910D01*
X132688800Y-96594800D02*
X132688800Y-98115800D01*
X134169800Y-96594800D02*
X134169800Y-97418800D01*
D10*
X123007330Y-99322000D02*
X123102570Y-99274380D01*
D11*
X145115890Y-105776000D02*
X145115890Y-106960000D01*
X163275000Y-111300000D02*
X163275000Y-110550000D01*
X160325000Y-96400000D02*
X162460000Y-96400000D01*
X133834000Y-87345890D02*
X133010000Y-87345890D01*
X134129800Y-93653800D02*
X134129800Y-94514800D01*
X158934000Y-81788000D02*
G75*
G02*
X156534000Y-81788000I-1200000J0D01*
G01*
X156534000Y-81788000D02*
G75*
G02*
X158934000Y-81788000I1200000J0D01*
G01*
D10*
X135175710Y-104497140D02*
X135223330Y-104544760D01*
X134390860Y-81494380D02*
X134533710Y-81542000D01*
D11*
X133834000Y-86625890D02*
X132526000Y-86625890D01*
D10*
X159023810Y-102464290D02*
X158642860Y-102464290D01*
D11*
X144995890Y-109040000D02*
X144995890Y-110290000D01*
D10*
X124058510Y-112567980D02*
X124058510Y-111567980D01*
X141927100Y-91438460D02*
X141927100Y-91533700D01*
D11*
X129580000Y-113420000D02*
X133420000Y-113420000D01*
D10*
X138154760Y-96904760D02*
X138059520Y-96809520D01*
X158642860Y-113285710D02*
X158547620Y-113238100D01*
D11*
X128040000Y-105751910D02*
X129491000Y-105751910D01*
D10*
X153952380Y-105142860D02*
X152952380Y-105142860D01*
X152952380Y-103952380D02*
X153000000Y-103809520D01*
X123007330Y-100226760D02*
X122959710Y-100179140D01*
D11*
X133809800Y-96594800D02*
X133809800Y-97703800D01*
X160566000Y-95639000D02*
X162460000Y-95639000D01*
X137424000Y-85944890D02*
X135914000Y-85944890D01*
X137342000Y-86305890D02*
X135914000Y-86305890D01*
D13*
G36*
X143421590Y-83937360D02*
G01*
X143421590Y-86962630D01*
X141566410Y-86962630D01*
X141566410Y-86289290D01*
X141566410Y-86137360D01*
X142269210Y-86137360D01*
X142269210Y-86289290D01*
X142600970Y-86289290D01*
X142600970Y-86631900D01*
X142743600Y-86631900D01*
X142743600Y-86289290D01*
X143075360Y-86289290D01*
X143075360Y-86137360D01*
X142743600Y-86137360D01*
X142743600Y-85794750D01*
X142600970Y-85794750D01*
X142600970Y-86137360D01*
X142269210Y-86137360D01*
X141566410Y-86137360D01*
X141566410Y-85340510D01*
X141897140Y-85340510D01*
X141909200Y-85455580D01*
X141945370Y-85554790D01*
X142005660Y-85638170D01*
X142085760Y-85701040D01*
X142181360Y-85738760D01*
X142292460Y-85751340D01*
X142406320Y-85739450D01*
X142503990Y-85703800D01*
X142585470Y-85644370D01*
X142647480Y-85566340D01*
X142684690Y-85472800D01*
X142697090Y-85363760D01*
X142685460Y-85298650D01*
X142650580Y-85245940D01*
X142596710Y-85208350D01*
X142528110Y-85191680D01*
X142529660Y-85191680D01*
X142632320Y-85196160D01*
X142719140Y-85209600D01*
X142790110Y-85231990D01*
X142864520Y-85283150D01*
X142889330Y-85352910D01*
X142861810Y-85442050D01*
X142779250Y-85514140D01*
X142903280Y-85706380D01*
X142980020Y-85645920D01*
X143039700Y-85560650D01*
X143078070Y-85459880D01*
X143090860Y-85352910D01*
X143080400Y-85254860D01*
X143049010Y-85168430D01*
X142996680Y-85093630D01*
X142923430Y-85030450D01*
X142835360Y-84982970D01*
X142732360Y-84949060D01*
X142614440Y-84928710D01*
X142481600Y-84921930D01*
X142344620Y-84928470D01*
X142225900Y-84948090D01*
X142125440Y-84980790D01*
X142043250Y-85026580D01*
X141979330Y-85085440D01*
X141933670Y-85157380D01*
X141906270Y-85242410D01*
X141897140Y-85340510D01*
X141566410Y-85340510D01*
X141566410Y-84216550D01*
X141912640Y-84216550D01*
X142695540Y-84449090D01*
X141912640Y-84687840D01*
X141915740Y-84827360D01*
X141912640Y-84968440D01*
X143075360Y-84573110D01*
X143075360Y-84321970D01*
X141912640Y-83937490D01*
X141915740Y-84077020D01*
X141912640Y-84216550D01*
X141566410Y-84216550D01*
X141566410Y-83937490D01*
X141566410Y-83937360D01*
X142494000Y-83318970D01*
X143421590Y-83937360D01*
G37*
D11*
X132648800Y-92989800D02*
X132648800Y-94514800D01*
X164540000Y-95599000D02*
X166416000Y-95599000D01*
X146235890Y-107085000D02*
X146235890Y-108915000D01*
X147625000Y-119040000D02*
X157395000Y-119040000D01*
D10*
X125738100Y-100508570D02*
X125642860Y-100556190D01*
D11*
X164540000Y-94759000D02*
X165843000Y-94759000D01*
D13*
G36*
X154102280Y-88444810D02*
G01*
X153708510Y-88308380D01*
X154102280Y-88171960D01*
X154102280Y-88444810D01*
G37*
D10*
X153000000Y-103809520D02*
X153047620Y-103761900D01*
X153190480Y-96619050D02*
X153095240Y-96571430D01*
D13*
G36*
X161948860Y-90399280D02*
G01*
X161036000Y-91007850D01*
X160123140Y-90399280D01*
X160123140Y-90104590D01*
X160453870Y-90104590D01*
X160453870Y-90377440D01*
X161159250Y-90355740D01*
X161159250Y-90244110D01*
X161308080Y-90244110D01*
X161353810Y-90353410D01*
X161463110Y-90399140D01*
X161572400Y-90353410D01*
X161618140Y-90244110D01*
X161572400Y-90134820D01*
X161463110Y-90089080D01*
X161353810Y-90134820D01*
X161353490Y-90135590D01*
X161308080Y-90244110D01*
X161159250Y-90244110D01*
X161159250Y-90135590D01*
X160453870Y-90104590D01*
X160123140Y-90104590D01*
X160123140Y-89986770D01*
X160123140Y-89662750D01*
X160453870Y-89662750D01*
X160456970Y-89878250D01*
X160453870Y-89986770D01*
X160456970Y-89988320D01*
X160461620Y-89986770D01*
X161608830Y-89986770D01*
X161611930Y-89988320D01*
X161616590Y-89986770D01*
X161613480Y-89856540D01*
X161616590Y-89726320D01*
X161162350Y-89726320D01*
X161162350Y-89662750D01*
X161155010Y-89538130D01*
X161132990Y-89432680D01*
X161096290Y-89346400D01*
X161044910Y-89279290D01*
X160978850Y-89231360D01*
X160898100Y-89202600D01*
X160802680Y-89193020D01*
X160710140Y-89202600D01*
X160631830Y-89231360D01*
X160567760Y-89279290D01*
X160517930Y-89346400D01*
X160482340Y-89432680D01*
X160460980Y-89538130D01*
X160453870Y-89662750D01*
X160123140Y-89662750D01*
X160123140Y-88165170D01*
X160453870Y-88165170D01*
X161067780Y-88270590D01*
X160453870Y-88422520D01*
X160453870Y-88673670D01*
X161067780Y-88819390D01*
X160453870Y-88931020D01*
X160456970Y-89070540D01*
X160453870Y-89210070D01*
X160456970Y-89211620D01*
X161616590Y-88971320D01*
X161616590Y-88720180D01*
X160951510Y-88549640D01*
X161616590Y-88385310D01*
X161616590Y-88135720D01*
X160453870Y-87886120D01*
X160456970Y-88025640D01*
X160453870Y-88165170D01*
X160123140Y-88165170D01*
X160123140Y-87886120D01*
X160123140Y-87821010D01*
X160123140Y-86616430D01*
X160453870Y-86616430D01*
X160456970Y-86740450D01*
X160456970Y-87022610D01*
X161194910Y-87221040D01*
X160456970Y-87427230D01*
X160456970Y-87696980D01*
X160453870Y-87821010D01*
X160456970Y-87822560D01*
X160461620Y-87821010D01*
X161608830Y-87821010D01*
X161611930Y-87822560D01*
X161616590Y-87821010D01*
X161613480Y-87696980D01*
X161616590Y-87571410D01*
X161611930Y-87569860D01*
X161608830Y-87571410D01*
X160791830Y-87571410D01*
X161616590Y-87334210D01*
X161616590Y-87103220D01*
X160759270Y-86866030D01*
X161608830Y-86866030D01*
X161611930Y-86867580D01*
X161616590Y-86866030D01*
X161613480Y-86740450D01*
X161616590Y-86616430D01*
X161611930Y-86614880D01*
X161608830Y-86616430D01*
X160461620Y-86616430D01*
X160456970Y-86614880D01*
X160453870Y-86616430D01*
X160123140Y-86616430D01*
X160123140Y-86284150D01*
X161948860Y-86284150D01*
X161948860Y-90399280D01*
G37*
D10*
X129222570Y-81732380D02*
X129413050Y-81732380D01*
D11*
X160893000Y-95079000D02*
X162460000Y-95079000D01*
X145035890Y-109040000D02*
X145035890Y-110268000D01*
D10*
X145309520Y-110345240D02*
X145404760Y-110250000D01*
X153809520Y-96571430D02*
X153714290Y-96619050D01*
X153904760Y-103190480D02*
X153952380Y-103333330D01*
X123102570Y-99274380D02*
X123197810Y-99274380D01*
D11*
X164540000Y-95119000D02*
X166136000Y-95119000D01*
X160922000Y-95039000D02*
X162460000Y-95039000D01*
X144675890Y-105572000D02*
X144675890Y-106960000D01*
D10*
X145285710Y-93142860D02*
X145285710Y-93190480D01*
D11*
X130212400Y-91879400D02*
X130212400Y-92504400D01*
X133834000Y-85984890D02*
X132331000Y-85984890D01*
X143920000Y-111580000D02*
X140080000Y-111580000D01*
X137302000Y-86425890D02*
X135914000Y-86425890D01*
X164540000Y-95359000D02*
X166290000Y-95359000D01*
X121200000Y-110300000D02*
X118250000Y-110300000D01*
X144154890Y-109040000D02*
X144154890Y-110556000D01*
X133209800Y-93112800D02*
X133209800Y-94514800D01*
X161025000Y-101200000D02*
X161025000Y-103000000D01*
X126050000Y-87750000D02*
X126050000Y-89750000D01*
D10*
X128904760Y-95119520D02*
X128952380Y-95214760D01*
X134533710Y-82446760D02*
X134390860Y-82494380D01*
X136308880Y-91437160D02*
X136213640Y-91484780D01*
X136021770Y-93118040D02*
X135926530Y-93213280D01*
D11*
X128040000Y-105670910D02*
X129468000Y-105670910D01*
X164540000Y-94919000D02*
X165984000Y-94919000D01*
X136479000Y-87585890D02*
X133269000Y-87585890D01*
X136878000Y-87185890D02*
X135914000Y-87185890D01*
X125174000Y-104590910D02*
X125960000Y-104590910D01*
D10*
X128523810Y-95024290D02*
X128761900Y-95024290D01*
X136583330Y-110952380D02*
X136250000Y-110476190D01*
X134880300Y-91246690D02*
X134832690Y-91056210D01*
X128952380Y-95976670D02*
X128476190Y-96310000D01*
D11*
X144394890Y-105489000D02*
X144394890Y-106960000D01*
X128040000Y-105390910D02*
X129365000Y-105390910D01*
D10*
X136583330Y-110142860D02*
X136583330Y-110285710D01*
D11*
X160725000Y-111600000D02*
X161975000Y-111600000D01*
X144955890Y-105690000D02*
X144955890Y-106960000D01*
D10*
X158833330Y-97357140D02*
X158785710Y-97404760D01*
X126380950Y-97952380D02*
X126285710Y-98095240D01*
X159595240Y-97404760D02*
X159642860Y-97357140D01*
X159690480Y-96500000D02*
X159595240Y-96452380D01*
D11*
X133209800Y-96594800D02*
X133209800Y-97996800D01*
X164540000Y-95719000D02*
X166470000Y-95719000D01*
D10*
X153095240Y-99142860D02*
X153000000Y-99047620D01*
X134295620Y-82494380D02*
X134152760Y-82446760D01*
X122912100Y-100083900D02*
X122864480Y-99893430D01*
D12*
X169000000Y-83500000D02*
X169000000Y-116000000D01*
D10*
X161583330Y-112333330D02*
X161726190Y-112333330D01*
D11*
X137184000Y-86705890D02*
X135914000Y-86705890D01*
D10*
X130173310Y-109858290D02*
X129601890Y-109858290D01*
X140022340Y-92247980D02*
X139689010Y-91771790D01*
X135128100Y-104401900D02*
X135175710Y-104497140D01*
X136404110Y-90484780D02*
X136070780Y-90865730D01*
D11*
X137402000Y-86064890D02*
X135914000Y-86064890D01*
X160369000Y-96199000D02*
X162460000Y-96199000D01*
D10*
X128428570Y-96071900D02*
X128476190Y-96167140D01*
D11*
X124545000Y-105630910D02*
X125960000Y-105630910D01*
X133489800Y-96594800D02*
X133489800Y-97883800D01*
X128040000Y-106231910D02*
X129573000Y-106231910D01*
X161666000Y-94319000D02*
X165334000Y-94319000D01*
D10*
X131333330Y-112952380D02*
X131000000Y-112476190D01*
D11*
X133569800Y-93264800D02*
X133569800Y-94514800D01*
D10*
X125261900Y-100032380D02*
X125642860Y-100032380D01*
D11*
X124422000Y-106311910D02*
X125960000Y-106311910D01*
X134369800Y-93901800D02*
X134369800Y-94514800D01*
D10*
X151428570Y-100238100D02*
X151523810Y-100190480D01*
D11*
X132368800Y-92974800D02*
X132368800Y-94514800D01*
D10*
X158880950Y-113095240D02*
X158833330Y-113190480D01*
D11*
X164540000Y-96199000D02*
X166631000Y-96199000D01*
D10*
X118023810Y-112904760D02*
X117880950Y-112952380D01*
X138011900Y-96190480D02*
X138059520Y-96095240D01*
D11*
X160285000Y-96680000D02*
X162460000Y-96680000D01*
X134289800Y-93811800D02*
X134289800Y-94514800D01*
D10*
X153952380Y-105904760D02*
X153952380Y-106000000D01*
D11*
X124532000Y-105670910D02*
X125960000Y-105670910D01*
X128040000Y-104590910D02*
X128826000Y-104590910D01*
D10*
X122959710Y-99369620D02*
X123007330Y-99322000D01*
D11*
X133649800Y-93307800D02*
X133649800Y-94514800D01*
X137394000Y-86104890D02*
X135914000Y-86104890D01*
X132368800Y-96594800D02*
X132368800Y-98134800D01*
D10*
X141261900Y-99152380D02*
X141642860Y-99152380D01*
X153190480Y-99190480D02*
X153095240Y-99142860D01*
X145043580Y-117967180D02*
X146650020Y-117967180D01*
D11*
X122700000Y-107750000D02*
X123450000Y-107750000D01*
D10*
X143761900Y-99964290D02*
X143714290Y-99773810D01*
D11*
X128040000Y-105030910D02*
X129175000Y-105030910D01*
X133649800Y-96594800D02*
X133649800Y-97801800D01*
D10*
X153724290Y-115261900D02*
X153676670Y-115357140D01*
X128952380Y-95500480D02*
X128904760Y-95595710D01*
D11*
X124825000Y-105030910D02*
X125960000Y-105030910D01*
X161775000Y-103000000D02*
X161775000Y-101200000D01*
X144234890Y-105457000D02*
X144234890Y-106960000D01*
X123450000Y-105250000D02*
X123450000Y-103450000D01*
X143794890Y-109040000D02*
X143794890Y-110580000D01*
D10*
X126058510Y-111806080D02*
X125963280Y-111853700D01*
D11*
X133834000Y-85624890D02*
X132295000Y-85624890D01*
X143994890Y-105427000D02*
X143994890Y-106960000D01*
D10*
X145785710Y-110250000D02*
X145833330Y-110297620D01*
D11*
X160379000Y-96159000D02*
X162460000Y-96159000D01*
X128040000Y-106191910D02*
X129569000Y-106191910D01*
D10*
X146785710Y-110773810D02*
X146738100Y-110678570D01*
D11*
X160666000Y-95439000D02*
X162460000Y-95439000D01*
D10*
X158452380Y-112904760D02*
X158500000Y-112809520D01*
D11*
X111550000Y-87750000D02*
X126050000Y-87750000D01*
D10*
X153380950Y-104380950D02*
X153190480Y-104333330D01*
D11*
X122700000Y-103450000D02*
X122700000Y-105250000D01*
X144234890Y-109040000D02*
X144234890Y-110543000D01*
X130212400Y-89664400D02*
X134252400Y-89664400D01*
D10*
X158547620Y-102511900D02*
X158500000Y-102559520D01*
X151761900Y-100190480D02*
X151857140Y-100238100D01*
D11*
X164540000Y-95039000D02*
X166078000Y-95039000D01*
D10*
X153952380Y-96952380D02*
X153952380Y-97428570D01*
D11*
X144795890Y-105618000D02*
X144795890Y-106960000D01*
D10*
X141833330Y-99485710D02*
X141785710Y-99580950D01*
X142652860Y-114547620D02*
X142700480Y-114500000D01*
D11*
X137074000Y-86905890D02*
X135914000Y-86905890D01*
D10*
X159452380Y-103416670D02*
X158976190Y-103750000D01*
X134537560Y-118008400D02*
X136144000Y-118008400D01*
D11*
X133089800Y-93074800D02*
X133089800Y-94514800D01*
D10*
X146404760Y-110250000D02*
X146357140Y-110297620D01*
D11*
X145995890Y-106617000D02*
X145995890Y-109383000D01*
D10*
X159452380Y-113095240D02*
X159452380Y-112904760D01*
D11*
X123450000Y-107750000D02*
X123450000Y-106750000D01*
D10*
X135021770Y-93927560D02*
X134926530Y-93832320D01*
D11*
X134049800Y-96594800D02*
X134049800Y-97525800D01*
D10*
X135023160Y-91437160D02*
X134927920Y-91341920D01*
D11*
X135158000Y-88145890D02*
X134590000Y-88145890D01*
X133834000Y-85664890D02*
X132296000Y-85664890D01*
D10*
X144761900Y-93285710D02*
X144714290Y-93190480D01*
X151761900Y-101761900D02*
X151857140Y-101714290D01*
D11*
X132968800Y-96594800D02*
X132968800Y-98065800D01*
X160734000Y-95319000D02*
X162460000Y-95319000D01*
D10*
X145285710Y-93571430D02*
X145238100Y-93476190D01*
X150952380Y-100809520D02*
X150952380Y-100190480D01*
D11*
X164540000Y-96640000D02*
X166711000Y-96640000D01*
D10*
X118166670Y-111952380D02*
X118166670Y-112666670D01*
D11*
X133834000Y-87145890D02*
X132839000Y-87145890D01*
X122700000Y-111050000D02*
X123450000Y-111050000D01*
X164540000Y-95519000D02*
X166376000Y-95519000D01*
D10*
X131285710Y-112047620D02*
X131333330Y-112142860D01*
X130714290Y-114452380D02*
X130809520Y-114500000D01*
D11*
X134769800Y-94543800D02*
X134769800Y-96565800D01*
X134369800Y-96594800D02*
X134369800Y-97207800D01*
X143794890Y-105420000D02*
X143794890Y-106960000D01*
D10*
X153904760Y-103809520D02*
X153952380Y-103952380D01*
X158500000Y-113761900D02*
X158547620Y-113714290D01*
X144142860Y-100202380D02*
X144047620Y-100202380D01*
D11*
X145155890Y-109040000D02*
X145155890Y-110200000D01*
D10*
X143809520Y-100059520D02*
X143761900Y-99964290D01*
D11*
X160482000Y-95839000D02*
X162460000Y-95839000D01*
D10*
X153629050Y-115404760D02*
X153533810Y-115452380D01*
D11*
X160548000Y-95679000D02*
X162460000Y-95679000D01*
D10*
X142404760Y-99533330D02*
X142309520Y-99580950D01*
X153000000Y-99047620D02*
X152952380Y-98904760D01*
D11*
X124635000Y-105390910D02*
X125960000Y-105390910D01*
X132848800Y-96594800D02*
X132848800Y-98090800D01*
X133834000Y-85904890D02*
X132318000Y-85904890D01*
D10*
X158309520Y-97309520D02*
X158261900Y-97214290D01*
D11*
X160439000Y-95959000D02*
X162460000Y-95959000D01*
X162238000Y-93999000D02*
X164762000Y-93999000D01*
X133834000Y-87385890D02*
X133048000Y-87385890D01*
D10*
X121531140Y-99607710D02*
X121483520Y-99702950D01*
D11*
X124472000Y-105911910D02*
X125960000Y-105911910D01*
D10*
X134878910Y-93737090D02*
X134831300Y-93546610D01*
D11*
X134370000Y-112500000D02*
X133420000Y-112500000D01*
D10*
X159404760Y-102654760D02*
X159357140Y-102607140D01*
X141403300Y-91295600D02*
X141498530Y-91247980D01*
X144714290Y-93142860D02*
X144761900Y-93047620D01*
X132285710Y-112142860D02*
X132285710Y-112238100D01*
X144047620Y-100202380D02*
X143904760Y-100154760D01*
X129173310Y-109810670D02*
X129030460Y-109858290D01*
D11*
X147625000Y-113970000D02*
X157395000Y-113970000D01*
D10*
X144142860Y-92952380D02*
X144285710Y-93000000D01*
D11*
X125275000Y-108986690D02*
X125775000Y-108986690D01*
X123750000Y-104400000D02*
X123750000Y-103150000D01*
D10*
X140843330Y-115452380D02*
X140843330Y-114452380D01*
X141261900Y-100152380D02*
X141261900Y-99152380D01*
D11*
X117490000Y-103440000D02*
X117490000Y-111060000D01*
D10*
X130809520Y-114500000D02*
X130857140Y-114547620D01*
X118547620Y-112952380D02*
X119166670Y-112952380D01*
D11*
X133609800Y-93286800D02*
X133609800Y-94514800D01*
D10*
X158690480Y-113285710D02*
X158642860Y-113285710D01*
X142785710Y-112523810D02*
X142785710Y-112761900D01*
D11*
X133729800Y-93354800D02*
X133729800Y-94514800D01*
D10*
X133962290Y-82065810D02*
X133962290Y-81922950D01*
X136404110Y-91294300D02*
X136356500Y-91389540D01*
X153000000Y-96476190D02*
X152952380Y-96333330D01*
D11*
X161850000Y-94199000D02*
X165150000Y-94199000D01*
D10*
X118119050Y-112809520D02*
X118023810Y-112904760D01*
D11*
X160604000Y-95559000D02*
X162460000Y-95559000D01*
X159920000Y-101330000D02*
X158080000Y-101330000D01*
X164540000Y-94839000D02*
X165916000Y-94839000D01*
D10*
X146309520Y-111154760D02*
X146404760Y-111202380D01*
X160630950Y-112952380D02*
X160535710Y-112952380D01*
X158928570Y-112809520D02*
X158880950Y-112904760D01*
X141833330Y-112285710D02*
X141785710Y-112380950D01*
D11*
X161276000Y-94639000D02*
X165724000Y-94639000D01*
X145715890Y-109040000D02*
X145715890Y-109743000D01*
D10*
X135509050Y-104592380D02*
X135604290Y-104544760D01*
X145261900Y-110964290D02*
X145214290Y-110773810D01*
X143904760Y-93904760D02*
X143809520Y-93809520D01*
D11*
X134830000Y-109580000D02*
X134830000Y-111420000D01*
X136349000Y-82740110D02*
X136349000Y-83240110D01*
D10*
X153809520Y-97952380D02*
X153904760Y-98047620D01*
D11*
X162150000Y-94039000D02*
X164850000Y-94039000D01*
X134209800Y-96594800D02*
X134209800Y-97380800D01*
D10*
X152238100Y-112000000D02*
X152285710Y-112047620D01*
X155517960Y-118008400D02*
X157124400Y-118008400D01*
D11*
X133834000Y-85744890D02*
X132301000Y-85744890D01*
X141240110Y-106275000D02*
X141240110Y-106775000D01*
D10*
X158928570Y-113761900D02*
X158976190Y-113857140D01*
D11*
X154420000Y-111580000D02*
X150580000Y-111580000D01*
D10*
X143809520Y-99345240D02*
X143904760Y-99250000D01*
D11*
X150580000Y-111580000D02*
X150580000Y-113420000D01*
D10*
X153904760Y-98666670D02*
X153952380Y-98809520D01*
D11*
X133449800Y-93206800D02*
X133449800Y-94514800D01*
X126625000Y-113970000D02*
X126625000Y-119040000D01*
X164540000Y-95239000D02*
X166216000Y-95239000D01*
D10*
X153333330Y-111952380D02*
X152904760Y-112952380D01*
D11*
X125938800Y-110337600D02*
X126558800Y-110337600D01*
D10*
X146404760Y-110583330D02*
X146309520Y-110630950D01*
D11*
X124480000Y-105871910D02*
X125960000Y-105871910D01*
X159000000Y-110630000D02*
X159000000Y-111580000D01*
D10*
X151761900Y-101190480D02*
X150952380Y-101190480D01*
D11*
X145715890Y-106257000D02*
X145715890Y-106960000D01*
D10*
X144714290Y-93190480D02*
X144714290Y-93142860D01*
X158452380Y-102654760D02*
X158452380Y-102845240D01*
X145214290Y-110630950D02*
X145261900Y-110440480D01*
X153000000Y-101619050D02*
X152952380Y-101476190D01*
X145190480Y-93333330D02*
X145095240Y-93380950D01*
D11*
X132968800Y-93043800D02*
X132968800Y-94514800D01*
X124671000Y-105310910D02*
X125960000Y-105310910D01*
D10*
X153904760Y-96476190D02*
X153809520Y-96571430D01*
X130333330Y-114452380D02*
X130714290Y-114452380D01*
X135402720Y-93022800D02*
X135450340Y-93070420D01*
X158642860Y-112714290D02*
X158690480Y-112714290D01*
X145833330Y-111107140D02*
X145785710Y-111154760D01*
D11*
X124431000Y-106191910D02*
X125960000Y-106191910D01*
D10*
X142785710Y-99723810D02*
X142738100Y-99628570D01*
D11*
X145155890Y-105800000D02*
X145155890Y-106960000D01*
X145295000Y-100730000D02*
X145920000Y-100730000D01*
D10*
X159595240Y-96452380D02*
X159404760Y-96452380D01*
X138059520Y-96095240D02*
X138154760Y-96000000D01*
X134831300Y-93546610D02*
X134831300Y-93403750D01*
D11*
X137098000Y-86865890D02*
X135914000Y-86865890D01*
X137447000Y-85744890D02*
X135914000Y-85744890D01*
D10*
X158261900Y-97214290D02*
X158214290Y-97023810D01*
X138535710Y-96000000D02*
X138583330Y-96047620D01*
X152285710Y-112380950D02*
X152238100Y-112428570D01*
D11*
X164540000Y-95839000D02*
X166518000Y-95839000D01*
X160272000Y-96880000D02*
X166728000Y-96880000D01*
X143080000Y-98520000D02*
X143080000Y-94480000D01*
D10*
X142595240Y-112952380D02*
X142357140Y-112952380D01*
D13*
G36*
X154032180Y-84227150D02*
G01*
X154125190Y-84252470D01*
X154203050Y-84294680D01*
X154282120Y-84381490D01*
X154308470Y-84493110D01*
X154282120Y-84603570D01*
X154203050Y-84690000D01*
X154125190Y-84732200D01*
X154032180Y-84757520D01*
X153924000Y-84765970D01*
X153820480Y-84757180D01*
X153729010Y-84730830D01*
X153649600Y-84686900D01*
X153567050Y-84599700D01*
X153539530Y-84493110D01*
X153567050Y-84385370D01*
X153649600Y-84297780D01*
X153729010Y-84253850D01*
X153820480Y-84227500D01*
X153924000Y-84218710D01*
X154032180Y-84227150D01*
G37*
D10*
X142690480Y-99152380D02*
X142500000Y-99152380D01*
X159595240Y-97071430D02*
X159690480Y-97023810D01*
X130714290Y-114976190D02*
X130333330Y-114976190D01*
D11*
X121200000Y-104200000D02*
X118250000Y-104200000D01*
D10*
X152952380Y-101380950D02*
X153000000Y-101238100D01*
D11*
X136939000Y-87105890D02*
X135914000Y-87105890D01*
D10*
X128857140Y-95071900D02*
X128904760Y-95119520D01*
X136964290Y-110619050D02*
X137583330Y-110619050D01*
D11*
X134009800Y-96594800D02*
X134009800Y-97558800D01*
X145875890Y-106446000D02*
X145875890Y-109554000D01*
X133834000Y-87505890D02*
X133175000Y-87505890D01*
D10*
X125666670Y-98666670D02*
X125619050Y-98809520D01*
X159357140Y-112761900D02*
X159261900Y-112714290D01*
X128697120Y-109001150D02*
X128792360Y-108905910D01*
D11*
X128040000Y-105350910D02*
X129348000Y-105350910D01*
D10*
X128285710Y-95976670D02*
X128380950Y-96024290D01*
D11*
X160350000Y-96279000D02*
X162460000Y-96279000D01*
X125500000Y-104310910D02*
X128500000Y-104310910D01*
D10*
X158452380Y-103988100D02*
X158452380Y-103607140D01*
X142404760Y-99200000D02*
X142357140Y-99247620D01*
X128792360Y-108905910D02*
X128935220Y-108858290D01*
D11*
X145555890Y-106099000D02*
X145555890Y-106960000D01*
X133889800Y-93459800D02*
X133889800Y-94514800D01*
D10*
X120959710Y-100274380D02*
X120959710Y-99274380D01*
D11*
X133834000Y-87065890D02*
X132779000Y-87065890D01*
D10*
X161297620Y-111952380D02*
X161916670Y-111952380D01*
X135105140Y-81494380D02*
X135343240Y-81494380D01*
X141224290Y-114976190D02*
X140843330Y-114976190D01*
X153666670Y-103047620D02*
X153809520Y-103095240D01*
D11*
X162867000Y-93799000D02*
X164133000Y-93799000D01*
X126350000Y-87450000D02*
X125050000Y-87450000D01*
D10*
X122483520Y-100274380D02*
X121912100Y-100274380D01*
D11*
X161025000Y-111300000D02*
X161775000Y-111300000D01*
D10*
X136783680Y-93594230D02*
X136783680Y-93356130D01*
X158928570Y-103511900D02*
X158976190Y-103607140D01*
X159357140Y-102607140D02*
X159214290Y-102511900D01*
D11*
X160402000Y-96079000D02*
X162460000Y-96079000D01*
D10*
X153952380Y-98809520D02*
X153952380Y-98904760D01*
D11*
X144314890Y-105472000D02*
X144314890Y-106960000D01*
X147504000Y-81788000D02*
G75*
G02*
X145104000Y-81788000I-1200000J0D01*
G01*
X145104000Y-81788000D02*
G75*
G02*
X147504000Y-81788000I1200000J0D01*
G01*
D10*
X143904760Y-93000000D02*
X144047620Y-92952380D01*
D11*
X146275890Y-107195000D02*
X146275890Y-108805000D01*
D10*
X150952380Y-101761900D02*
X151761900Y-101761900D01*
X129030460Y-108858290D02*
X129173310Y-108905910D01*
D11*
X123450000Y-109250000D02*
X122700000Y-109250000D01*
D10*
X153952380Y-100761900D02*
X153952380Y-100857140D01*
D11*
X133169800Y-96594800D02*
X133169800Y-98009800D01*
X155160000Y-110960000D02*
X155160000Y-90520000D01*
X141370000Y-97870000D02*
X136130000Y-97870000D01*
D10*
X129032100Y-80732380D02*
X129032100Y-81541900D01*
X161916670Y-112523810D02*
X161916670Y-112761900D01*
X143714290Y-99630950D02*
X143761900Y-99440480D01*
X146261900Y-110678570D02*
X146214290Y-110773810D01*
D11*
X146355890Y-107482000D02*
X146355890Y-108518000D01*
D10*
X134390860Y-82494380D02*
X134295620Y-82494380D01*
D11*
X139620000Y-110500000D02*
X138670000Y-110500000D01*
D10*
X151343330Y-115452380D02*
X151343330Y-114452380D01*
D11*
X137329000Y-86345890D02*
X135914000Y-86345890D01*
X120150000Y-96950000D02*
X111550000Y-96950000D01*
D10*
X152333330Y-112952380D02*
X152000000Y-112476190D01*
X134009900Y-82256290D02*
X133962290Y-82065810D01*
X141414760Y-114785710D02*
X141367140Y-114880950D01*
D11*
X145920000Y-104770000D02*
X145920000Y-100730000D01*
X160333000Y-96360000D02*
X162460000Y-96360000D01*
X136659000Y-87425890D02*
X135914000Y-87425890D01*
X137316000Y-86385890D02*
X135914000Y-86385890D01*
D10*
X135926530Y-93213280D02*
X135831300Y-93260900D01*
X158500000Y-103511900D02*
X158547620Y-103464290D01*
D11*
X157395000Y-113970000D02*
X157395000Y-119040000D01*
D10*
X135166020Y-91484780D02*
X135023160Y-91437160D01*
D11*
X137125000Y-113970000D02*
X146895000Y-113970000D01*
D10*
X158976190Y-113857140D02*
X158976190Y-114238100D01*
X146309520Y-110630950D02*
X146261900Y-110678570D01*
X135164630Y-93975180D02*
X135021770Y-93927560D01*
X153952380Y-102571430D02*
X152952380Y-102571430D01*
D11*
X144154890Y-105444000D02*
X144154890Y-106960000D01*
X136510000Y-98630000D02*
G75*
G02*
X134510000Y-98630000I-1000000J0D01*
G01*
X164540000Y-94799000D02*
X165880000Y-94799000D01*
D10*
X131666670Y-112952380D02*
X132285710Y-112952380D01*
X135604290Y-104544760D02*
X135651900Y-104497140D01*
X132333330Y-114595240D02*
X132238100Y-114690480D01*
D11*
X161235000Y-94679000D02*
X165765000Y-94679000D01*
D10*
X153533810Y-115452380D02*
X153248100Y-115452380D01*
X158880950Y-103464290D02*
X158928570Y-103511900D01*
X141700480Y-114452380D02*
X142033810Y-115452380D01*
D11*
X159000000Y-100380000D02*
X159000000Y-101330000D01*
D10*
X119166670Y-112142860D02*
X119166670Y-112238100D01*
D11*
X133834000Y-87225890D02*
X132903000Y-87225890D01*
D12*
X164000000Y-121000000D02*
X122000000Y-121000000D01*
D11*
X164540000Y-95879000D02*
X166533000Y-95879000D01*
D10*
X145261900Y-110440480D02*
X145309520Y-110345240D01*
X153724290Y-115023810D02*
X153724290Y-115261900D01*
X144904760Y-93380950D02*
X144809520Y-93428570D01*
X134533710Y-81542000D02*
X134581330Y-81589620D01*
X153904760Y-105761900D02*
X153952380Y-105904760D01*
D11*
X160305000Y-96520000D02*
X162460000Y-96520000D01*
D10*
X130603520Y-81732380D02*
X130032100Y-81732380D01*
D11*
X133529800Y-96594800D02*
X133529800Y-97864800D01*
D10*
X136404110Y-91056210D02*
X136404110Y-91294300D01*
D11*
X140080000Y-111580000D02*
X140080000Y-113420000D01*
D10*
X141738100Y-99628570D02*
X141642860Y-99676190D01*
X121435900Y-99322000D02*
X121483520Y-99369620D01*
X158500000Y-102940480D02*
X158547620Y-102988100D01*
D11*
X137452000Y-85664890D02*
X135914000Y-85664890D01*
X128040000Y-105110910D02*
X129224000Y-105110910D01*
X128040000Y-105991910D02*
X129543000Y-105991910D01*
X145555890Y-109040000D02*
X145555890Y-109901000D01*
D10*
X131714290Y-112047620D02*
X131761900Y-112000000D01*
X145547620Y-111202380D02*
X145404760Y-111154760D01*
X141367140Y-114880950D02*
X141319520Y-114928570D01*
D11*
X160294000Y-96600000D02*
X162460000Y-96600000D01*
D10*
X136651900Y-103687620D02*
X136699520Y-103782860D01*
X158976190Y-102988100D02*
X159023810Y-102940480D01*
D11*
X132568800Y-92981800D02*
X132568800Y-94514800D01*
D10*
X145404760Y-110250000D02*
X145547620Y-110202380D01*
X146650020Y-117967180D02*
G75*
G02*
X145043580Y-117967180I-803220J0D01*
G01*
X145043580Y-117967180D02*
G75*
G02*
X146650020Y-117967180I803220J0D01*
G01*
X137964290Y-96523810D02*
X137964290Y-96380950D01*
X161726190Y-112333330D02*
X161821430Y-112380950D01*
X152200480Y-114452380D02*
X152533810Y-115452380D01*
D11*
X144114890Y-109040000D02*
X144114890Y-110561000D01*
D10*
X161440480Y-112952380D02*
X161345240Y-112904760D01*
D11*
X164540000Y-94959000D02*
X166016000Y-94959000D01*
D10*
X153857140Y-103761900D02*
X153904760Y-103809520D01*
D11*
X124439000Y-106111910D02*
X125960000Y-106111910D01*
D10*
X128697120Y-109715440D02*
X128649500Y-109620200D01*
X153952380Y-96238100D02*
X153952380Y-96333330D01*
D11*
X126050000Y-96950000D02*
X124750000Y-96950000D01*
X161120000Y-94799000D02*
X162460000Y-94799000D01*
D10*
X144809520Y-93428570D02*
X144761900Y-93476190D01*
X134057520Y-81637240D02*
X134152760Y-81542000D01*
X158309520Y-96595240D02*
X158404760Y-96500000D01*
D11*
X137164000Y-86745890D02*
X135914000Y-86745890D01*
X136130000Y-95445000D02*
X136130000Y-95130000D01*
X133834000Y-86705890D02*
X132564000Y-86705890D01*
X145675890Y-109040000D02*
X145675890Y-109785000D01*
D10*
X153629050Y-114880950D02*
X153676670Y-114928570D01*
X125582320Y-112567980D02*
X125010900Y-112567980D01*
X130317810Y-81732380D02*
X130317810Y-80732380D01*
D13*
G36*
X142430440Y-85225790D02*
G01*
X142486250Y-85314150D01*
X142473070Y-85378490D01*
X142433540Y-85428880D01*
X142371140Y-85461430D01*
X142292460Y-85472280D01*
X142218050Y-85463370D01*
X142159140Y-85436630D01*
X142109530Y-85340510D01*
X142128990Y-85283320D01*
X142187390Y-85239910D01*
X142284710Y-85210290D01*
X142366880Y-85207180D01*
X142430440Y-85225790D01*
G37*
D11*
X133569800Y-96594800D02*
X133569800Y-97844800D01*
X130212400Y-92504400D02*
X134252400Y-92504400D01*
X144434890Y-109040000D02*
X144434890Y-110501000D01*
D13*
G36*
X166732450Y-89833590D02*
G01*
X166784640Y-89899730D01*
X166802040Y-90009970D01*
X166802040Y-90084390D01*
X166498180Y-90084390D01*
X166498180Y-90030130D01*
X166514540Y-89908690D01*
X166563640Y-89835820D01*
X166645460Y-89811540D01*
X166732450Y-89833590D01*
G37*
D11*
X158080000Y-111580000D02*
X158080000Y-115420000D01*
D10*
X140974720Y-92247980D02*
X140403300Y-92247980D01*
D11*
X164540000Y-95959000D02*
X166561000Y-95959000D01*
D10*
X151867140Y-114880950D02*
X151819520Y-114928570D01*
X137307490Y-93784700D02*
X137259870Y-93879940D01*
D11*
X151314000Y-81788000D02*
G75*
G02*
X148914000Y-81788000I-1200000J0D01*
G01*
X148914000Y-81788000D02*
G75*
G02*
X151314000Y-81788000I1200000J0D01*
G01*
D10*
X135402720Y-93927560D02*
X135259870Y-93975180D01*
D11*
X141370000Y-95130000D02*
X136130000Y-95130000D01*
X145355890Y-105935000D02*
X145355890Y-106960000D01*
X145235890Y-105851000D02*
X145235890Y-106960000D01*
D10*
X135927920Y-91484780D02*
X135832690Y-91437160D01*
D11*
X137450000Y-85704890D02*
X135914000Y-85704890D01*
X143914890Y-105422000D02*
X143914890Y-106960000D01*
X136811000Y-87265890D02*
X135914000Y-87265890D01*
D10*
X134927920Y-91341920D02*
X134880300Y-91246690D01*
X129032100Y-81541900D02*
X129079710Y-81637140D01*
D11*
X140080000Y-113420000D02*
X143920000Y-113420000D01*
X124800000Y-105070910D02*
X125960000Y-105070910D01*
X133834000Y-85784890D02*
X132305000Y-85784890D01*
X124520000Y-105710910D02*
X125960000Y-105710910D01*
D10*
X131142860Y-112476190D02*
X130761900Y-112476190D01*
X128333330Y-95357620D02*
X128333330Y-95214760D01*
X158833330Y-113190480D02*
X158785710Y-113238100D01*
D11*
X157650000Y-111020000D02*
X157650000Y-90460000D01*
X144875890Y-105652000D02*
X144875890Y-106960000D01*
D10*
X125785710Y-100460950D02*
X125738100Y-100508570D01*
D11*
X144755890Y-105602000D02*
X144755890Y-106960000D01*
D10*
X151904760Y-100285710D02*
X151952380Y-100380950D01*
D11*
X145075890Y-105753000D02*
X145075890Y-106960000D01*
D10*
X140022340Y-91581310D02*
X139974720Y-91676550D01*
X151914760Y-115452380D02*
X151581430Y-114976190D01*
D11*
X160270000Y-96960000D02*
X166730000Y-96960000D01*
X124753000Y-105150910D02*
X125960000Y-105150910D01*
X161050000Y-94879000D02*
X162460000Y-94879000D01*
D10*
X141738100Y-112000000D02*
X141785710Y-112047620D01*
D11*
X160584000Y-95599000D02*
X162460000Y-95599000D01*
D10*
X124629940Y-111758460D02*
X124629940Y-111901310D01*
D13*
G36*
X150230060Y-84221840D02*
G01*
X150325010Y-84246520D01*
X150398870Y-84287640D01*
X150451620Y-84345220D01*
X150483270Y-84419240D01*
X150493820Y-84509720D01*
X150490720Y-84657000D01*
X149737280Y-84657000D01*
X149734180Y-84528320D01*
X149744730Y-84432160D01*
X149776380Y-84353490D01*
X149829130Y-84292290D01*
X149902990Y-84248580D01*
X149997940Y-84222360D01*
X150114000Y-84213610D01*
X150230060Y-84221840D01*
G37*
D11*
X128040000Y-106071910D02*
X129556000Y-106071910D01*
D10*
X136117010Y-93975180D02*
X136117010Y-92975180D01*
X159214290Y-96880950D02*
X159261900Y-96976190D01*
D11*
X161775000Y-101200000D02*
X161025000Y-101200000D01*
D10*
X136535710Y-110380950D02*
X136488100Y-110428570D01*
D11*
X133834000Y-86104890D02*
X132354000Y-86104890D01*
X160498000Y-95799000D02*
X162460000Y-95799000D01*
D10*
X125833330Y-100365710D02*
X125785710Y-100460950D01*
X151904760Y-101666670D02*
X151952380Y-101571430D01*
D11*
X161363000Y-94559000D02*
X165637000Y-94559000D01*
D10*
X153952380Y-101476190D02*
X153904760Y-101619050D01*
X159404760Y-112809520D02*
X159357140Y-112761900D01*
D11*
X133969800Y-93519800D02*
X133969800Y-94514800D01*
D10*
X152952380Y-98904760D02*
X152952380Y-98809520D01*
D11*
X160952000Y-94999000D02*
X162460000Y-94999000D01*
D10*
X145095240Y-93952380D02*
X145190480Y-93904760D01*
D11*
X134649800Y-94303800D02*
X134649800Y-96805800D01*
X145955890Y-106557000D02*
X145955890Y-109443000D01*
X124499000Y-105791910D02*
X125960000Y-105791910D01*
X161991000Y-94119000D02*
X165009000Y-94119000D01*
D10*
X158976190Y-112761900D02*
X158928570Y-112809520D01*
X125619050Y-98809520D02*
X125523810Y-98904760D01*
D11*
X131600000Y-87300000D02*
G75*
G02*
X130872801Y-87824181I-1850000J1800000D01*
G01*
X143080000Y-94480000D02*
X143705000Y-94480000D01*
X164540000Y-95399000D02*
X166312000Y-95399000D01*
D10*
X142690480Y-112380950D02*
X142738100Y-112428570D01*
X139831870Y-91771790D02*
X139450910Y-91771790D01*
X127952380Y-96167140D02*
X128000000Y-96071900D01*
D13*
G36*
X151041590Y-83934430D02*
G01*
X151041590Y-87575170D01*
X149186410Y-87575170D01*
X149186410Y-86622770D01*
X149517140Y-86622770D01*
X149527410Y-86756190D01*
X149558220Y-86875850D01*
X149609570Y-86981760D01*
X149681470Y-87073900D01*
X149770130Y-87148510D01*
X149871770Y-87201800D01*
X149986390Y-87233780D01*
X150114000Y-87244440D01*
X150241610Y-87233780D01*
X150356230Y-87201800D01*
X150457870Y-87148510D01*
X150546530Y-87073900D01*
X150618430Y-86981760D01*
X150669780Y-86875850D01*
X150700590Y-86756190D01*
X150710860Y-86622770D01*
X150701560Y-86496520D01*
X150673660Y-86381310D01*
X150627150Y-86277150D01*
X150562040Y-86184040D01*
X150011680Y-86184040D01*
X150011680Y-86653780D01*
X150222520Y-86653780D01*
X150222520Y-86432080D01*
X150436460Y-86432080D01*
X150482970Y-86518510D01*
X150498470Y-86622770D01*
X150486760Y-86719230D01*
X150451620Y-86801910D01*
X150393050Y-86870820D01*
X150315190Y-86923350D01*
X150222180Y-86954880D01*
X150114000Y-86965380D01*
X150005820Y-86954880D01*
X149912810Y-86923350D01*
X149834950Y-86870820D01*
X149776380Y-86801910D01*
X149741240Y-86719230D01*
X149729530Y-86622770D01*
X149746750Y-86539230D01*
X149798430Y-86445690D01*
X149884560Y-86342170D01*
X149678370Y-86204190D01*
X149665970Y-86218140D01*
X149610160Y-86294110D01*
X149558480Y-86400220D01*
X149527470Y-86509770D01*
X149517140Y-86622770D01*
X149186410Y-86622770D01*
X149186410Y-86067760D01*
X149186410Y-85095730D01*
X149532640Y-85095730D01*
X149535740Y-85225960D01*
X149532640Y-85356180D01*
X150341890Y-85356180D01*
X149535740Y-85779410D01*
X149535740Y-85937540D01*
X149532640Y-86067760D01*
X149535740Y-86069320D01*
X149540390Y-86067760D01*
X150687610Y-86067760D01*
X150690710Y-86069320D01*
X150695360Y-86067760D01*
X150692260Y-85937540D01*
X150695360Y-85807320D01*
X150033390Y-85807320D01*
X150695360Y-85460050D01*
X150695360Y-85095730D01*
X149540390Y-85095730D01*
X149535740Y-85094180D01*
X149532640Y-85095730D01*
X149186410Y-85095730D01*
X149186410Y-84917450D01*
X149186410Y-84539180D01*
X149532640Y-84539180D01*
X149535740Y-84657000D01*
X149535740Y-84787220D01*
X149532640Y-84917450D01*
X149535740Y-84919000D01*
X149540390Y-84917450D01*
X150687610Y-84917450D01*
X150690710Y-84919000D01*
X150695360Y-84917450D01*
X150692260Y-84787220D01*
X150692260Y-84657000D01*
X150695360Y-84492670D01*
X150688180Y-84375530D01*
X150666650Y-84272180D01*
X150630760Y-84182610D01*
X150580520Y-84106820D01*
X150515930Y-84044800D01*
X150436980Y-83996570D01*
X150343670Y-83962120D01*
X150236010Y-83941450D01*
X150114000Y-83934560D01*
X149991990Y-83942030D01*
X149884330Y-83964420D01*
X149791020Y-84001740D01*
X149712070Y-84053990D01*
X149647480Y-84121170D01*
X149597240Y-84203280D01*
X149561350Y-84300320D01*
X149539820Y-84412280D01*
X149532640Y-84539180D01*
X149186410Y-84539180D01*
X149186410Y-83934430D01*
X150114000Y-83316030D01*
X151041590Y-83934430D01*
G37*
D10*
X159023810Y-102559520D02*
X158976190Y-102511900D01*
D11*
X137121000Y-86825890D02*
X135914000Y-86825890D01*
X166985000Y-101190000D02*
X161015000Y-101190000D01*
X143080000Y-100730000D02*
X143705000Y-100730000D01*
X134529800Y-94111800D02*
X134529800Y-96997800D01*
X155160000Y-90520000D02*
X153510000Y-90520000D01*
D10*
X143176670Y-114880950D02*
X142605240Y-115452380D01*
D11*
X160282000Y-96720000D02*
X162460000Y-96720000D01*
X144715890Y-105586000D02*
X144715890Y-106960000D01*
D10*
X123388290Y-100083900D02*
X123340670Y-100179140D01*
D11*
X137023000Y-86985890D02*
X135914000Y-86985890D01*
D10*
X137202380Y-109904760D02*
X136964290Y-110619050D01*
D11*
X124776000Y-105110910D02*
X125960000Y-105110910D01*
X128040000Y-106351910D02*
X129579000Y-106351910D01*
D12*
X164000000Y-78500000D02*
X122000000Y-78500000D01*
D11*
X123460000Y-103440000D02*
X117490000Y-103440000D01*
X160984000Y-94959000D02*
X162460000Y-94959000D01*
D10*
X142261900Y-99390480D02*
X142214290Y-99580950D01*
X144047620Y-99202380D02*
X144142860Y-99202380D01*
X142261900Y-99628570D02*
X142214290Y-99723810D01*
X141642860Y-111952380D02*
X141738100Y-112000000D01*
X125296610Y-111567980D02*
X125201370Y-111710840D01*
X123435900Y-99893430D02*
X123388290Y-100083900D01*
D11*
X128040000Y-104950910D02*
X129122000Y-104950910D01*
X145795890Y-109040000D02*
X145795890Y-109653000D01*
D10*
X144904760Y-92952380D02*
X145095240Y-92952380D01*
D11*
X123450000Y-103450000D02*
X122700000Y-103450000D01*
X133834000Y-85864890D02*
X132313000Y-85864890D01*
D10*
X125380950Y-98952380D02*
X125285710Y-98952380D01*
D11*
X130370000Y-108970000D02*
X140650000Y-108970000D01*
D10*
X141833330Y-99342860D02*
X141833330Y-99485710D01*
D11*
X133834000Y-87425890D02*
X133089000Y-87425890D01*
X145275890Y-105878000D02*
X145275890Y-106960000D01*
D10*
X158452380Y-113095240D02*
X158452380Y-112904760D01*
D11*
X155124000Y-81788000D02*
G75*
G02*
X152724000Y-81788000I-1200000J0D01*
G01*
X152724000Y-81788000D02*
G75*
G02*
X155124000Y-81788000I1200000J0D01*
G01*
X133329800Y-93156800D02*
X133329800Y-94514800D01*
X126716000Y-103830910D02*
X127284000Y-103830910D01*
D10*
X152952380Y-101476190D02*
X152952380Y-101380950D01*
X141879490Y-91343220D02*
X141927100Y-91438460D01*
X144142860Y-99202380D02*
X144285710Y-99250000D01*
X130333330Y-115452380D02*
X130333330Y-114452380D01*
D11*
X124572000Y-105550910D02*
X125960000Y-105550910D01*
D10*
X151380950Y-100285710D02*
X151428570Y-100238100D01*
D11*
X134089800Y-96594800D02*
X134089800Y-97491800D01*
X146395890Y-107716000D02*
X146395890Y-108284000D01*
D10*
X151819520Y-114500000D02*
X151867140Y-114547620D01*
X152952380Y-100476190D02*
X153666670Y-100476190D01*
X145238100Y-93476190D02*
X145190480Y-93428570D01*
D11*
X122700000Y-105250000D02*
X123450000Y-105250000D01*
D10*
X143129050Y-114500000D02*
X143176670Y-114547620D01*
X143809520Y-93809520D02*
X143761900Y-93714290D01*
X126500000Y-100032380D02*
X126404760Y-100175240D01*
D11*
X160273000Y-96840000D02*
X166727000Y-96840000D01*
D10*
X129127330Y-81684760D02*
X129222570Y-81732380D01*
D11*
X133834000Y-87545890D02*
X133221000Y-87545890D01*
X158080000Y-101330000D02*
X158080000Y-105170000D01*
D10*
X132238100Y-112380950D02*
X131666670Y-112952380D01*
D11*
X164540000Y-95679000D02*
X166452000Y-95679000D01*
X125029000Y-104750910D02*
X125960000Y-104750910D01*
D10*
X145190480Y-93904760D02*
X145238100Y-93857140D01*
D11*
X145195890Y-109040000D02*
X145195890Y-110175000D01*
D10*
X135128100Y-103592380D02*
X135128100Y-104401900D01*
X153714290Y-96619050D02*
X153523810Y-96666670D01*
D11*
X168078000Y-92456000D02*
G75*
G02*
X165678000Y-92456000I-1200000J0D01*
G01*
X165678000Y-92456000D02*
G75*
G02*
X168078000Y-92456000I1200000J0D01*
G01*
X136130000Y-97870000D02*
X136130000Y-97555000D01*
X162236000Y-92456000D02*
G75*
G02*
X159836000Y-92456000I-1200000J0D01*
G01*
X159836000Y-92456000D02*
G75*
G02*
X162236000Y-92456000I1200000J0D01*
G01*
X163275000Y-101200000D02*
X163275000Y-101950000D01*
D10*
X158547620Y-102988100D02*
X158642860Y-103035710D01*
X153809520Y-99142860D02*
X153714290Y-99190480D01*
D11*
X125136000Y-104630910D02*
X125960000Y-104630910D01*
X132448800Y-92975800D02*
X132448800Y-94514800D01*
D10*
X138297620Y-96952380D02*
X138154760Y-96904760D01*
X152952380Y-96238100D02*
X153000000Y-96095240D01*
X158547620Y-113238100D02*
X158500000Y-113190480D01*
X159404760Y-96452380D02*
X159309520Y-96500000D01*
D12*
X117000000Y-116000000D02*
X117000000Y-83500000D01*
D11*
X137365000Y-86224890D02*
X135914000Y-86224890D01*
X128040000Y-105470910D02*
X129398000Y-105470910D01*
D10*
X153809520Y-103095240D02*
X153904760Y-103190480D01*
D13*
G36*
X160889670Y-89475510D02*
G01*
X160941860Y-89541660D01*
X160959260Y-89651900D01*
X160959260Y-89726320D01*
X160655400Y-89726320D01*
X160655400Y-89672060D01*
X160671770Y-89550620D01*
X160720860Y-89477750D01*
X160802680Y-89453460D01*
X160889670Y-89475510D01*
G37*
D10*
X142605240Y-115452380D02*
X143224290Y-115452380D01*
X134152760Y-82446760D02*
X134057520Y-82351520D01*
D11*
X133834000Y-86945890D02*
X132699000Y-86945890D01*
X124489000Y-105831910D02*
X125960000Y-105831910D01*
D10*
X158976190Y-113238100D02*
X159071430Y-113285710D01*
X159071430Y-112714290D02*
X158976190Y-112761900D01*
X145190480Y-93000000D02*
X145238100Y-93047620D01*
D11*
X135392000Y-88105890D02*
X134356000Y-88105890D01*
D10*
X138154760Y-96000000D02*
X138297620Y-95952380D01*
X129079710Y-81637140D02*
X129127330Y-81684760D01*
X151819520Y-114928570D02*
X151724290Y-114976190D01*
X121483520Y-99369620D02*
X121531140Y-99464860D01*
X138011900Y-96714290D02*
X137964290Y-96523810D01*
D11*
X132408800Y-96594800D02*
X132408800Y-98134800D01*
X164540000Y-96360000D02*
X166667000Y-96360000D01*
D10*
X153248100Y-115452380D02*
X153152860Y-115404760D01*
D11*
X124427000Y-106231910D02*
X125960000Y-106231910D01*
D10*
X142261900Y-100057140D02*
X142309520Y-100104760D01*
D11*
X128040000Y-105710910D02*
X129480000Y-105710910D01*
D10*
X142738100Y-100057140D02*
X142785710Y-99961900D01*
D11*
X143080000Y-98520000D02*
X143705000Y-98520000D01*
X162068000Y-94079000D02*
X164932000Y-94079000D01*
X144915890Y-105671000D02*
X144915890Y-106960000D01*
X128040000Y-105190910D02*
X129268000Y-105190910D01*
D10*
X130222570Y-80875240D02*
X130127330Y-80970480D01*
X135023160Y-90532400D02*
X135166020Y-90484780D01*
D11*
X160784000Y-95239000D02*
X162460000Y-95239000D01*
X128040000Y-104830910D02*
X129035000Y-104830910D01*
D10*
X151952380Y-101380950D02*
X151904760Y-101285710D01*
D11*
X144595890Y-105545000D02*
X144595890Y-106960000D01*
X146155890Y-106902000D02*
X146155890Y-109098000D01*
D10*
X145547620Y-110202380D02*
X145642860Y-110202380D01*
D11*
X128040000Y-105831910D02*
X129511000Y-105831910D01*
D10*
X136699520Y-103782860D02*
X136699520Y-103878100D01*
X137117010Y-92975180D02*
X137212250Y-93022800D01*
D11*
X145475890Y-109040000D02*
X145475890Y-109971000D01*
M02*
