%TF.GenerationSoftware,KiCad,Pcbnew,9.0.7*%
%TF.CreationDate,2026-03-27T00:40:57-07:00*%
%TF.ProjectId,PreAmp Class D,50726541-6d70-4204-936c-61737320442e,rev?*%
%TF.SameCoordinates,Original*%
%TF.FileFunction,Legend,Bot*%
%TF.FilePolarity,Positive*%
%FSLAX46Y46*%
G04 Gerber Fmt 4.6, Leading zero omitted, Abs format (unit mm)*
G04 Created by KiCad (PCBNEW 9.0.7) date 2026-03-27 00:40:57*
%MOMM*%
%LPD*%
G01*
G04 APERTURE LIST*
%ADD10C,0.000000*%
%ADD11C,0.199999*%
%ADD12C,1.000000*%
%ADD13C,0.150000*%
%ADD14C,0.250000*%
G04 APERTURE END LIST*
D10*
G36*
X131927020Y-119050280D02*
G01*
X131654170Y-119050280D01*
X131790590Y-118656510D01*
X131927020Y-119050280D01*
G37*
G36*
X137960000Y-95490000D02*
G01*
X137160000Y-95490000D01*
X137160000Y-95290000D01*
X137960000Y-95290000D01*
X137960000Y-95490000D01*
G37*
D11*
X137160000Y-98990000D02*
X140160000Y-98990000D01*
D12*
X169000000Y-116000000D02*
G75*
G02*
X164000000Y-121000000I-5000000J0D01*
G01*
D13*
X168097200Y-92456000D02*
G75*
G02*
X165658800Y-92456000I-1219200J0D01*
G01*
X165658800Y-92456000D02*
G75*
G02*
X168097200Y-92456000I1219200J0D01*
G01*
X147523200Y-81788000D02*
G75*
G02*
X145084800Y-81788000I-1219200J0D01*
G01*
X145084800Y-81788000D02*
G75*
G02*
X147523200Y-81788000I1219200J0D01*
G01*
D11*
X137160000Y-101389999D02*
X140160000Y-101389999D01*
D10*
G36*
X143160000Y-97790000D02*
G01*
X144659999Y-100790000D01*
X146159999Y-97790000D01*
X146159999Y-96290000D01*
X147659999Y-96290000D01*
X147659999Y-98290000D01*
X144659999Y-103289999D01*
X141660000Y-98290000D01*
X141660000Y-96290000D01*
X143160000Y-96290000D01*
X143160000Y-97790000D01*
G37*
G36*
X151041590Y-83934430D02*
G01*
X151041590Y-87575170D01*
X149186410Y-87575170D01*
X149186410Y-86622770D01*
X149517140Y-86622770D01*
X149527410Y-86756190D01*
X149558220Y-86875850D01*
X149609570Y-86981760D01*
X149681470Y-87073900D01*
X149770130Y-87148510D01*
X149871770Y-87201800D01*
X149986390Y-87233780D01*
X150114000Y-87244440D01*
X150241610Y-87233780D01*
X150356230Y-87201800D01*
X150457870Y-87148510D01*
X150546530Y-87073900D01*
X150618430Y-86981760D01*
X150669780Y-86875850D01*
X150700590Y-86756190D01*
X150710860Y-86622770D01*
X150700530Y-86509770D01*
X150669520Y-86400220D01*
X150617850Y-86294110D01*
X150562040Y-86218140D01*
X150549630Y-86204190D01*
X150343440Y-86342170D01*
X150429570Y-86445690D01*
X150481250Y-86539230D01*
X150498470Y-86622770D01*
X150486760Y-86719230D01*
X150451620Y-86801910D01*
X150393050Y-86870820D01*
X150315190Y-86923350D01*
X150222180Y-86954880D01*
X150114000Y-86965380D01*
X150005820Y-86954880D01*
X149912810Y-86923350D01*
X149834950Y-86870820D01*
X149776380Y-86801910D01*
X149741240Y-86719230D01*
X149729530Y-86622770D01*
X149745030Y-86518510D01*
X149791540Y-86432080D01*
X150005480Y-86432080D01*
X150005480Y-86653780D01*
X150216320Y-86653780D01*
X150216320Y-86184040D01*
X149665970Y-86184040D01*
X149600850Y-86277150D01*
X149554340Y-86381310D01*
X149526440Y-86496520D01*
X149517140Y-86622770D01*
X149186410Y-86622770D01*
X149186410Y-85807320D01*
X149532640Y-85807320D01*
X149535740Y-85937540D01*
X149532640Y-86067760D01*
X149537290Y-86069320D01*
X149540390Y-86067760D01*
X150687610Y-86067760D01*
X150692260Y-86069320D01*
X150695360Y-86067760D01*
X150692260Y-85937540D01*
X150692260Y-85779410D01*
X149886110Y-85356180D01*
X150695360Y-85356180D01*
X150692260Y-85225960D01*
X150695360Y-85095730D01*
X150692260Y-85094180D01*
X150687610Y-85095730D01*
X149532640Y-85095730D01*
X149532640Y-85460050D01*
X150194620Y-85807320D01*
X149532640Y-85807320D01*
X149186410Y-85807320D01*
X149186410Y-85460050D01*
X149186410Y-84917450D01*
X149186410Y-84492670D01*
X149532640Y-84492670D01*
X149535740Y-84657000D01*
X149535740Y-84787220D01*
X149532640Y-84917450D01*
X149537290Y-84919000D01*
X149540390Y-84917450D01*
X150687610Y-84917450D01*
X150692260Y-84919000D01*
X150695360Y-84917450D01*
X150692260Y-84787220D01*
X150692260Y-84657000D01*
X150695360Y-84539180D01*
X150688180Y-84412280D01*
X150666650Y-84300320D01*
X150630760Y-84203280D01*
X150580520Y-84121170D01*
X150515930Y-84053990D01*
X150436980Y-84001740D01*
X150343670Y-83964420D01*
X150236010Y-83942030D01*
X150114000Y-83934560D01*
X149991990Y-83941450D01*
X149884330Y-83962120D01*
X149791020Y-83996570D01*
X149712070Y-84044800D01*
X149647480Y-84106820D01*
X149597240Y-84182610D01*
X149561350Y-84272180D01*
X149539820Y-84375530D01*
X149532640Y-84492670D01*
X149186410Y-84492670D01*
X149186410Y-83934430D01*
X150114000Y-83316030D01*
X151041590Y-83934430D01*
G37*
G36*
X144422670Y-118515050D02*
G01*
X144509880Y-118597600D01*
X144553800Y-118677010D01*
X144580160Y-118768480D01*
X144588940Y-118872000D01*
X144580500Y-118980180D01*
X144555180Y-119073190D01*
X144512980Y-119151050D01*
X144426550Y-119230120D01*
X144316090Y-119256470D01*
X144204470Y-119230120D01*
X144117650Y-119151050D01*
X144075450Y-119073190D01*
X144050130Y-118980180D01*
X144041690Y-118872000D01*
X144050470Y-118768480D01*
X144076830Y-118677010D01*
X144120750Y-118597600D01*
X144208350Y-118515050D01*
X144316090Y-118487530D01*
X144422670Y-118515050D01*
G37*
G36*
X154851590Y-83939530D02*
G01*
X154851590Y-89195670D01*
X152996410Y-89195670D01*
X152996410Y-88864940D01*
X153342640Y-88864940D01*
X153347290Y-88864940D01*
X153350390Y-88861840D01*
X154505360Y-88444810D01*
X154502260Y-88313040D01*
X154502260Y-88162660D01*
X153342640Y-87751830D01*
X153345740Y-87892910D01*
X153342640Y-88032430D01*
X153545730Y-88102200D01*
X153545730Y-88514570D01*
X153342640Y-88584340D01*
X153345740Y-88723860D01*
X153342640Y-88864940D01*
X152996410Y-88864940D01*
X152996410Y-88584340D01*
X152996410Y-87221630D01*
X153327140Y-87221630D01*
X153334360Y-87334270D01*
X153356010Y-87431890D01*
X153392100Y-87514490D01*
X153442630Y-87582070D01*
X153507600Y-87634640D01*
X153587010Y-87672180D01*
X153680850Y-87694710D01*
X153789130Y-87702220D01*
X154497610Y-87702220D01*
X154502260Y-87703770D01*
X154505360Y-87702220D01*
X154502260Y-87572000D01*
X154505360Y-87441770D01*
X153834080Y-87443320D01*
X153717420Y-87429470D01*
X153634100Y-87387900D01*
X153584100Y-87318620D01*
X153567430Y-87221630D01*
X153584100Y-87124640D01*
X153634100Y-87055360D01*
X153717420Y-87013790D01*
X153834080Y-86999940D01*
X154497610Y-86999940D01*
X154502260Y-87001490D01*
X154505360Y-86999940D01*
X154502260Y-86869710D01*
X154505360Y-86741040D01*
X154502260Y-86739490D01*
X154497610Y-86741040D01*
X153789130Y-86741040D01*
X153680850Y-86748550D01*
X153587010Y-86771080D01*
X153507600Y-86808620D01*
X153442630Y-86861190D01*
X153392100Y-86928770D01*
X153356010Y-87011370D01*
X153334360Y-87108990D01*
X153327140Y-87221630D01*
X152996410Y-87221630D01*
X152996410Y-86568960D01*
X152996410Y-86144180D01*
X153342640Y-86144180D01*
X153345740Y-86308510D01*
X153345740Y-86438730D01*
X153342640Y-86568960D01*
X153347290Y-86570510D01*
X153350390Y-86568960D01*
X154497610Y-86568960D01*
X154502260Y-86570510D01*
X154505360Y-86568960D01*
X154502260Y-86438730D01*
X154502260Y-86308510D01*
X154505360Y-86190680D01*
X154498180Y-86063790D01*
X154476650Y-85951820D01*
X154440760Y-85854790D01*
X154390520Y-85772680D01*
X154325930Y-85705500D01*
X154246980Y-85653250D01*
X154153670Y-85615930D01*
X154046010Y-85593530D01*
X153924000Y-85586070D01*
X153801990Y-85592960D01*
X153694330Y-85613630D01*
X153601020Y-85648080D01*
X153522070Y-85696310D01*
X153457480Y-85758320D01*
X153407240Y-85834120D01*
X153371350Y-85923690D01*
X153349820Y-86027040D01*
X153342640Y-86144180D01*
X152996410Y-86144180D01*
X152996410Y-85435690D01*
X152996410Y-85176790D01*
X153342640Y-85176790D01*
X153345740Y-85307020D01*
X153342640Y-85435690D01*
X153347290Y-85437240D01*
X153350390Y-85435690D01*
X154497610Y-85435690D01*
X154502260Y-85437240D01*
X154505360Y-85435690D01*
X154502260Y-85307020D01*
X154505360Y-85176790D01*
X154502260Y-85175240D01*
X154497610Y-85176790D01*
X153350390Y-85176790D01*
X153347290Y-85175240D01*
X153342640Y-85176790D01*
X152996410Y-85176790D01*
X152996410Y-84493110D01*
X153327140Y-84493110D01*
X153337410Y-84611130D01*
X153368220Y-84717130D01*
X153419570Y-84811120D01*
X153491470Y-84893090D01*
X153580130Y-84959560D01*
X153681770Y-85007040D01*
X153796390Y-85035520D01*
X153924000Y-85045020D01*
X154045990Y-85035130D01*
X154157710Y-85005490D01*
X154259150Y-84956070D01*
X154350330Y-84886890D01*
X154424940Y-84802980D01*
X154478230Y-84709380D01*
X154510210Y-84606090D01*
X154520860Y-84493110D01*
X154510210Y-84379460D01*
X154478230Y-84275690D01*
X154424940Y-84181800D01*
X154350330Y-84097790D01*
X154259150Y-84028610D01*
X154157710Y-83979190D01*
X154045990Y-83949540D01*
X153924000Y-83939660D01*
X153796390Y-83949150D01*
X153681770Y-83977640D01*
X153580130Y-84025120D01*
X153491470Y-84091590D01*
X153419570Y-84173660D01*
X153368220Y-84267930D01*
X153337410Y-84374420D01*
X153327140Y-84493110D01*
X152996410Y-84493110D01*
X152996410Y-83939530D01*
X153924000Y-83321130D01*
X154851590Y-83939530D01*
G37*
G36*
X133492400Y-117948880D02*
G01*
X133582440Y-117962230D01*
X133670740Y-117984350D01*
X133756450Y-118015020D01*
X133838740Y-118053940D01*
X133916820Y-118100740D01*
X133989940Y-118154960D01*
X134057380Y-118216090D01*
X134118520Y-118283540D01*
X134172740Y-118356660D01*
X134219540Y-118434740D01*
X134258460Y-118517030D01*
X134289130Y-118602730D01*
X134311250Y-118691040D01*
X134324600Y-118781080D01*
X134329070Y-118872000D01*
X134324600Y-118962920D01*
X134311250Y-119052960D01*
X134289130Y-119141270D01*
X134258460Y-119226970D01*
X134219540Y-119309260D01*
X134172740Y-119387340D01*
X134118520Y-119460460D01*
X134057380Y-119527910D01*
X133989940Y-119589040D01*
X133916820Y-119643270D01*
X133838740Y-119690060D01*
X133756450Y-119728980D01*
X133670740Y-119759650D01*
X133582440Y-119781770D01*
X133492400Y-119795130D01*
X133401480Y-119799590D01*
X129742520Y-119799590D01*
X129651600Y-119795130D01*
X129561560Y-119781770D01*
X129473260Y-119759650D01*
X129387550Y-119728980D01*
X129305260Y-119690060D01*
X129227180Y-119643260D01*
X129154060Y-119589040D01*
X129086620Y-119527910D01*
X129025480Y-119460460D01*
X128971260Y-119387340D01*
X128924460Y-119309260D01*
X128885540Y-119226970D01*
X128854870Y-119141270D01*
X128832750Y-119052960D01*
X128819400Y-118962920D01*
X128814930Y-118872000D01*
X128819400Y-118781080D01*
X128832750Y-118691040D01*
X128854870Y-118602730D01*
X128885540Y-118517030D01*
X128924460Y-118434740D01*
X128971260Y-118356660D01*
X129017920Y-118293740D01*
X129742650Y-118293740D01*
X129744200Y-118298390D01*
X129744200Y-119453360D01*
X130108520Y-119453360D01*
X130455790Y-118791390D01*
X130455790Y-119453360D01*
X130586010Y-119450260D01*
X130716240Y-119453360D01*
X130717790Y-119448710D01*
X130716240Y-119445610D01*
X130716240Y-118298390D01*
X130717790Y-118293740D01*
X130894520Y-118293740D01*
X130896070Y-118298390D01*
X130896070Y-119445610D01*
X130894520Y-119448710D01*
X130896070Y-119453360D01*
X131026300Y-119450260D01*
X131154970Y-119453360D01*
X131234040Y-119453360D01*
X131375110Y-119450260D01*
X131514640Y-119453360D01*
X131584400Y-119250270D01*
X131996780Y-119250270D01*
X132066540Y-119453360D01*
X132206070Y-119450260D01*
X132347150Y-119453360D01*
X132347150Y-119448710D01*
X132344050Y-119445610D01*
X132298710Y-119320040D01*
X132099989Y-118769680D01*
X132340950Y-118769680D01*
X132340950Y-119320040D01*
X132434060Y-119385150D01*
X132538220Y-119431660D01*
X132653430Y-119459560D01*
X132779680Y-119468860D01*
X132913100Y-119458590D01*
X133032760Y-119427780D01*
X133138670Y-119376430D01*
X133230810Y-119304530D01*
X133305420Y-119215870D01*
X133358710Y-119114230D01*
X133390690Y-118999610D01*
X133401350Y-118872000D01*
X133390690Y-118744390D01*
X133358710Y-118629770D01*
X133305420Y-118528130D01*
X133230810Y-118439470D01*
X133138670Y-118367570D01*
X133032760Y-118316220D01*
X132913100Y-118285410D01*
X132779680Y-118275140D01*
X132666680Y-118285470D01*
X132557130Y-118316480D01*
X132451020Y-118368160D01*
X132375050Y-118423970D01*
X132361100Y-118436370D01*
X132499080Y-118642560D01*
X132602600Y-118556430D01*
X132696140Y-118504750D01*
X132779680Y-118487530D01*
X132876140Y-118499240D01*
X132958820Y-118534380D01*
X133027730Y-118592950D01*
X133080260Y-118670810D01*
X133111790Y-118763820D01*
X133122290Y-118872000D01*
X133111790Y-118980180D01*
X133080260Y-119073190D01*
X133027730Y-119151050D01*
X132958820Y-119209620D01*
X132876140Y-119244760D01*
X132779680Y-119256470D01*
X132675420Y-119240970D01*
X132588990Y-119194460D01*
X132588990Y-118980520D01*
X132810680Y-118980520D01*
X132810680Y-118769680D01*
X132340950Y-118769680D01*
X132099989Y-118769680D01*
X131927020Y-118290640D01*
X131795240Y-118293740D01*
X131644860Y-118293740D01*
X131234040Y-119453360D01*
X131154970Y-119453360D01*
X131156520Y-119448710D01*
X131154970Y-119445610D01*
X131154970Y-118298390D01*
X131156520Y-118293740D01*
X131154970Y-118290640D01*
X131026300Y-118293740D01*
X130896070Y-118290640D01*
X130894520Y-118293740D01*
X130717790Y-118293740D01*
X130716240Y-118290640D01*
X130586010Y-118293740D01*
X130427880Y-118293740D01*
X130004650Y-119099890D01*
X130004650Y-118290640D01*
X129874430Y-118293740D01*
X129744200Y-118290640D01*
X129742650Y-118293740D01*
X129017920Y-118293740D01*
X129025480Y-118283540D01*
X129086620Y-118216090D01*
X129154060Y-118154960D01*
X129227180Y-118100740D01*
X129305260Y-118053940D01*
X129387550Y-118015020D01*
X129473260Y-117984350D01*
X129561560Y-117962230D01*
X129651600Y-117948880D01*
X129742520Y-117944410D01*
X133401480Y-117944410D01*
X133492400Y-117948880D01*
G37*
D13*
X143713200Y-81788000D02*
G75*
G02*
X141274800Y-81788000I-1219200J0D01*
G01*
X141274800Y-81788000D02*
G75*
G02*
X143713200Y-81788000I1219200J0D01*
G01*
D11*
X143460000Y-98790000D02*
X143460000Y-98190000D01*
D10*
G36*
X152159998Y-104589999D02*
G01*
X151959999Y-104589999D01*
X151959999Y-103789999D01*
X152159998Y-103789999D01*
X152159998Y-104589999D01*
G37*
D11*
X145860000Y-97590000D02*
X146459998Y-98190000D01*
D13*
X158953200Y-81788000D02*
G75*
G02*
X156514800Y-81788000I-1219200J0D01*
G01*
X156514800Y-81788000D02*
G75*
G02*
X158953200Y-81788000I1219200J0D01*
G01*
D11*
X149159999Y-100190000D02*
X152159998Y-100190000D01*
X149159999Y-98990000D02*
X152159998Y-98990000D01*
D10*
G36*
X122776990Y-102962880D02*
G01*
X122867030Y-102976230D01*
X122955340Y-102998350D01*
X123041040Y-103029020D01*
X123123330Y-103067940D01*
X123201410Y-103114740D01*
X123274530Y-103168960D01*
X123341980Y-103230090D01*
X123403110Y-103297540D01*
X123457330Y-103370660D01*
X123504130Y-103448740D01*
X123543050Y-103531030D01*
X123573720Y-103616730D01*
X123595840Y-103705040D01*
X123609200Y-103795080D01*
X123613660Y-103886000D01*
X123609200Y-103976920D01*
X123595840Y-104066960D01*
X123573720Y-104155270D01*
X123543050Y-104240970D01*
X123504130Y-104323260D01*
X123457330Y-104401340D01*
X123403110Y-104474460D01*
X123341980Y-104541910D01*
X123274530Y-104603040D01*
X123201410Y-104657270D01*
X123123330Y-104704060D01*
X123041040Y-104742980D01*
X122955340Y-104773650D01*
X122867030Y-104795770D01*
X122776990Y-104809130D01*
X122686070Y-104813590D01*
X119375930Y-104813590D01*
X119285010Y-104809130D01*
X119194970Y-104795770D01*
X119106660Y-104773650D01*
X119020960Y-104742980D01*
X118938670Y-104704060D01*
X118860590Y-104657260D01*
X118787470Y-104603040D01*
X118720020Y-104541910D01*
X118658890Y-104474460D01*
X118604670Y-104401340D01*
X118557870Y-104323260D01*
X118518950Y-104240970D01*
X118488280Y-104155270D01*
X118466160Y-104066960D01*
X118452810Y-103976920D01*
X118448340Y-103886000D01*
X119376060Y-103886000D01*
X119382950Y-104008010D01*
X119403620Y-104115670D01*
X119438070Y-104208980D01*
X119486310Y-104287930D01*
X119548320Y-104352520D01*
X119624110Y-104402760D01*
X119713680Y-104438650D01*
X119817030Y-104460180D01*
X119934170Y-104467360D01*
X120098500Y-104464260D01*
X120228720Y-104464260D01*
X120358950Y-104467360D01*
X120360500Y-104462710D01*
X120358950Y-104459610D01*
X120358950Y-103312390D01*
X120360500Y-103307740D01*
X120535680Y-103307740D01*
X120537230Y-103312390D01*
X120537230Y-104467360D01*
X120901550Y-104467360D01*
X121248820Y-103805390D01*
X121248820Y-104467360D01*
X121379040Y-104464260D01*
X121509270Y-104467360D01*
X121510820Y-104462710D01*
X121509270Y-104459610D01*
X121509270Y-104334040D01*
X121509270Y-103783680D01*
X121625540Y-103783680D01*
X121625540Y-104334040D01*
X121718650Y-104399150D01*
X121822810Y-104445660D01*
X121938020Y-104473560D01*
X122064270Y-104482860D01*
X122197690Y-104472590D01*
X122317360Y-104441780D01*
X122423260Y-104390430D01*
X122515410Y-104318530D01*
X122590010Y-104229870D01*
X122643310Y-104128230D01*
X122675280Y-104013610D01*
X122685940Y-103886000D01*
X122675280Y-103758390D01*
X122643310Y-103643770D01*
X122590010Y-103542130D01*
X122515410Y-103453470D01*
X122423260Y-103381570D01*
X122317360Y-103330220D01*
X122197690Y-103299410D01*
X122064270Y-103289140D01*
X121951270Y-103299470D01*
X121841720Y-103330480D01*
X121735610Y-103382160D01*
X121659640Y-103437970D01*
X121645690Y-103450370D01*
X121783670Y-103656560D01*
X121887190Y-103570430D01*
X121980730Y-103518750D01*
X122064270Y-103501530D01*
X122160730Y-103513240D01*
X122243420Y-103548380D01*
X122312320Y-103606950D01*
X122364860Y-103684810D01*
X122396380Y-103777820D01*
X122406890Y-103886000D01*
X122396380Y-103994180D01*
X122364860Y-104087190D01*
X122312320Y-104165050D01*
X122243420Y-104223620D01*
X122160730Y-104258760D01*
X122064270Y-104270470D01*
X121960010Y-104254970D01*
X121873580Y-104208460D01*
X121873580Y-103994520D01*
X122095280Y-103994520D01*
X122095280Y-103783680D01*
X121625540Y-103783680D01*
X121509270Y-103783680D01*
X121509270Y-103312390D01*
X121510820Y-103307740D01*
X121509270Y-103304640D01*
X121379040Y-103307740D01*
X121220910Y-103307740D01*
X120797680Y-104113890D01*
X120797680Y-103304640D01*
X120667460Y-103307740D01*
X120537230Y-103304640D01*
X120535680Y-103307740D01*
X120360500Y-103307740D01*
X120358950Y-103304640D01*
X120228720Y-103307740D01*
X120098500Y-103307740D01*
X119980680Y-103304640D01*
X119853780Y-103311820D01*
X119741820Y-103333350D01*
X119644780Y-103369240D01*
X119562670Y-103419480D01*
X119495490Y-103484070D01*
X119443240Y-103563020D01*
X119405920Y-103656330D01*
X119383530Y-103763990D01*
X119376060Y-103886000D01*
X118448340Y-103886000D01*
X118452810Y-103795080D01*
X118466160Y-103705040D01*
X118488280Y-103616730D01*
X118518950Y-103531030D01*
X118557870Y-103448740D01*
X118604670Y-103370660D01*
X118658890Y-103297540D01*
X118720020Y-103230090D01*
X118787470Y-103168960D01*
X118860590Y-103114740D01*
X118938670Y-103067940D01*
X119020960Y-103029020D01*
X119106660Y-102998350D01*
X119194970Y-102976230D01*
X119285010Y-102962880D01*
X119375930Y-102958410D01*
X122686070Y-102958410D01*
X122776990Y-102962880D01*
G37*
D11*
X143460000Y-98190000D02*
X143160000Y-98490000D01*
D10*
G36*
X137360000Y-104589999D02*
G01*
X137160000Y-104589999D01*
X137160000Y-103789999D01*
X137360000Y-103789999D01*
X137360000Y-104589999D01*
G37*
D13*
X151333200Y-81788000D02*
G75*
G02*
X148894800Y-81788000I-1219200J0D01*
G01*
X148894800Y-81788000D02*
G75*
G02*
X151333200Y-81788000I1219200J0D01*
G01*
D10*
G36*
X154040060Y-85873860D02*
G01*
X154135010Y-85900090D01*
X154208870Y-85943800D01*
X154261620Y-86004990D01*
X154293270Y-86083670D01*
X154303820Y-86179830D01*
X154300720Y-86308510D01*
X153547280Y-86308510D01*
X153544180Y-86161230D01*
X153554730Y-86070750D01*
X153586380Y-85996730D01*
X153639130Y-85939150D01*
X153712990Y-85898020D01*
X153807940Y-85873350D01*
X153924000Y-85865120D01*
X154040060Y-85873860D01*
G37*
G36*
X143421590Y-83937360D02*
G01*
X143421590Y-86962630D01*
X141566410Y-86962630D01*
X141566410Y-86289290D01*
X141566410Y-86137360D01*
X141912640Y-86137360D01*
X141912640Y-86289290D01*
X142244400Y-86289290D01*
X142244400Y-86631900D01*
X142387030Y-86631900D01*
X142387030Y-86289290D01*
X142718790Y-86289290D01*
X142718790Y-86137360D01*
X142387030Y-86137360D01*
X142387030Y-85794750D01*
X142244400Y-85794750D01*
X142244400Y-86137360D01*
X141912640Y-86137360D01*
X141566410Y-86137360D01*
X141566410Y-85352910D01*
X141897140Y-85352910D01*
X141909930Y-85459880D01*
X141948300Y-85560650D01*
X142007980Y-85645920D01*
X142084720Y-85706380D01*
X142208750Y-85514140D01*
X142126190Y-85442050D01*
X142098680Y-85352910D01*
X142123480Y-85283150D01*
X142197890Y-85231990D01*
X142268860Y-85209600D01*
X142355680Y-85196160D01*
X142458340Y-85191680D01*
X142459890Y-85191680D01*
X142391290Y-85208350D01*
X142337420Y-85245940D01*
X142302540Y-85298650D01*
X142290910Y-85363760D01*
X142303310Y-85472800D01*
X142340520Y-85566340D01*
X142402530Y-85644370D01*
X142484010Y-85703800D01*
X142581680Y-85739450D01*
X142695540Y-85751340D01*
X142806640Y-85738760D01*
X142902240Y-85701040D01*
X142982340Y-85638170D01*
X143042630Y-85554790D01*
X143078810Y-85455580D01*
X143090860Y-85340510D01*
X143081730Y-85242410D01*
X143054330Y-85157380D01*
X143008670Y-85085440D01*
X142944750Y-85026580D01*
X142862560Y-84980790D01*
X142762100Y-84948090D01*
X142643390Y-84928470D01*
X142506400Y-84921930D01*
X142373560Y-84928710D01*
X142255640Y-84949060D01*
X142152650Y-84982970D01*
X142064570Y-85030450D01*
X141991320Y-85093630D01*
X141939000Y-85168430D01*
X141907600Y-85254860D01*
X141897140Y-85352910D01*
X141566410Y-85352910D01*
X141566410Y-84573110D01*
X141566410Y-84321970D01*
X141912640Y-84321970D01*
X141912640Y-84573110D01*
X143075360Y-84968440D01*
X143072260Y-84827360D01*
X143075360Y-84687840D01*
X142292460Y-84449090D01*
X143075360Y-84216550D01*
X143072260Y-84077020D01*
X143075360Y-83937490D01*
X141912640Y-84321970D01*
X141566410Y-84321970D01*
X141566410Y-83937360D01*
X142494000Y-83318970D01*
X143421590Y-83937360D01*
G37*
D11*
X144360000Y-100190000D02*
X144659999Y-100590000D01*
X137160000Y-100190000D02*
X140160000Y-100190000D01*
D13*
X162255200Y-92456000D02*
G75*
G02*
X159816800Y-92456000I-1219200J0D01*
G01*
X159816800Y-92456000D02*
G75*
G02*
X162255200Y-92456000I1219200J0D01*
G01*
D10*
G36*
X154139490Y-88308380D02*
G01*
X153745720Y-88444810D01*
X153745720Y-88171960D01*
X154139490Y-88308380D01*
G37*
G36*
X154027530Y-84227500D02*
G01*
X154118990Y-84253850D01*
X154198400Y-84297780D01*
X154280960Y-84385370D01*
X154308470Y-84493110D01*
X154280960Y-84599700D01*
X154198400Y-84686900D01*
X154118990Y-84730830D01*
X154027530Y-84757180D01*
X153924000Y-84765970D01*
X153815820Y-84757520D01*
X153722810Y-84732200D01*
X153644950Y-84690000D01*
X153565880Y-84603570D01*
X153539530Y-84493110D01*
X153565880Y-84381490D01*
X153644950Y-84294680D01*
X153722810Y-84252470D01*
X153815820Y-84227150D01*
X153924000Y-84218710D01*
X154027530Y-84227500D01*
G37*
G36*
X165352250Y-109963300D02*
G01*
X165440790Y-109976440D01*
X165527620Y-109998190D01*
X165611890Y-110028340D01*
X165692810Y-110066610D01*
X165769580Y-110112630D01*
X165841470Y-110165950D01*
X165907800Y-110226060D01*
X165967910Y-110292380D01*
X166021230Y-110364270D01*
X166067240Y-110441040D01*
X166105510Y-110521960D01*
X166135670Y-110606240D01*
X166157410Y-110693060D01*
X166170550Y-110781600D01*
X166174940Y-110871000D01*
X166170550Y-110960400D01*
X166157410Y-111048940D01*
X166135670Y-111135770D01*
X166105510Y-111220040D01*
X166067240Y-111300960D01*
X166021230Y-111377730D01*
X165967910Y-111449620D01*
X165907800Y-111515940D01*
X165841470Y-111576050D01*
X165769580Y-111629370D01*
X165692810Y-111675390D01*
X165611890Y-111713660D01*
X165527620Y-111743820D01*
X165440790Y-111765560D01*
X165352250Y-111778700D01*
X165262850Y-111783090D01*
X161889150Y-111783090D01*
X161799750Y-111778700D01*
X161711210Y-111765560D01*
X161624380Y-111743820D01*
X161540110Y-111713660D01*
X161459190Y-111675390D01*
X161382420Y-111629370D01*
X161310530Y-111576050D01*
X161244210Y-111515940D01*
X161184100Y-111449620D01*
X161182680Y-111447710D01*
X161130780Y-111377730D01*
X161084760Y-111300960D01*
X161046490Y-111220040D01*
X161016330Y-111135770D01*
X160994590Y-111048940D01*
X160981450Y-110960400D01*
X160977060Y-110871000D01*
X160981450Y-110781600D01*
X160994590Y-110693060D01*
X161016330Y-110606240D01*
X161046490Y-110521960D01*
X161084760Y-110441040D01*
X161130780Y-110364270D01*
X161183833Y-110292740D01*
X161889280Y-110292740D01*
X161890830Y-110297390D01*
X161890830Y-111444610D01*
X161889280Y-111447710D01*
X161890830Y-111452360D01*
X162014860Y-111449260D01*
X162140430Y-111452360D01*
X162141980Y-111447710D01*
X162140430Y-111444610D01*
X162140430Y-110595050D01*
X162377620Y-111452360D01*
X162608620Y-111452360D01*
X162845810Y-110627600D01*
X162845810Y-111444610D01*
X162844260Y-111447710D01*
X162845810Y-111452360D01*
X162971390Y-111449260D01*
X163095410Y-111452360D01*
X163096960Y-111447710D01*
X163095410Y-111444610D01*
X163095410Y-110297390D01*
X163096960Y-110292740D01*
X163095410Y-110289640D01*
X163160520Y-110289640D01*
X163410120Y-111452360D01*
X163659720Y-111452360D01*
X163824050Y-110787280D01*
X163994580Y-111452360D01*
X164245730Y-111452360D01*
X164414380Y-110638460D01*
X164467420Y-110638460D01*
X164477010Y-110733880D01*
X164505760Y-110814620D01*
X164553700Y-110880680D01*
X164620800Y-110932060D01*
X164707080Y-110968760D01*
X164812530Y-110990780D01*
X164937160Y-110998120D01*
X165000720Y-110998120D01*
X165000720Y-111452360D01*
X165130940Y-111449260D01*
X165261170Y-111452360D01*
X165262720Y-111447710D01*
X165261170Y-111444610D01*
X165261170Y-110297390D01*
X165262720Y-110292740D01*
X165261170Y-110289640D01*
X165152650Y-110292740D01*
X164937160Y-110289640D01*
X164812530Y-110296760D01*
X164707080Y-110318120D01*
X164620800Y-110353710D01*
X164553700Y-110403540D01*
X164505760Y-110467610D01*
X164477010Y-110545910D01*
X164467420Y-110638460D01*
X164414380Y-110638460D01*
X164486020Y-110292740D01*
X164484470Y-110289640D01*
X164344950Y-110292740D01*
X164205420Y-110289640D01*
X164093800Y-110903560D01*
X163948070Y-110289640D01*
X163696920Y-110289640D01*
X163544990Y-110903560D01*
X163439570Y-110289640D01*
X163300050Y-110292740D01*
X163160520Y-110289640D01*
X163095410Y-110289640D01*
X162971390Y-110292740D01*
X162701640Y-110292740D01*
X162495450Y-111030680D01*
X162297010Y-110292740D01*
X162014860Y-110292740D01*
X161890830Y-110289640D01*
X161889280Y-110292740D01*
X161183833Y-110292740D01*
X161184100Y-110292380D01*
X161244210Y-110226060D01*
X161310530Y-110165950D01*
X161382420Y-110112630D01*
X161459190Y-110066610D01*
X161540110Y-110028340D01*
X161624380Y-109998190D01*
X161711210Y-109976440D01*
X161799750Y-109963300D01*
X161889150Y-109958910D01*
X165262850Y-109958910D01*
X165352250Y-109963300D01*
G37*
G36*
X147223840Y-83914790D02*
G01*
X147223840Y-87589640D01*
X145384160Y-87589640D01*
X145384160Y-86916290D01*
X145384160Y-86764360D01*
X145714890Y-86764360D01*
X145714890Y-86916290D01*
X146046650Y-86916290D01*
X146046650Y-87258910D01*
X146189280Y-87258910D01*
X146189280Y-86916290D01*
X146521040Y-86916290D01*
X146521040Y-86764360D01*
X146189280Y-86764360D01*
X146189280Y-86421750D01*
X146046650Y-86421750D01*
X146046650Y-86764360D01*
X145714890Y-86764360D01*
X145384160Y-86764360D01*
X145384160Y-86158200D01*
X145714890Y-86158200D01*
X145719540Y-86159750D01*
X145722640Y-86158200D01*
X146513290Y-86158200D01*
X146311750Y-86378340D01*
X146629560Y-86378340D01*
X146877610Y-86100840D01*
X146877610Y-85897750D01*
X145714890Y-85897750D01*
X145717990Y-86027970D01*
X145714890Y-86158200D01*
X145384160Y-86158200D01*
X145384160Y-85897750D01*
X145384160Y-85762870D01*
X145384160Y-84927270D01*
X145714890Y-84927270D01*
X145714890Y-85762870D01*
X145850280Y-85757020D01*
X145958800Y-85739450D01*
X146040450Y-85710160D01*
X146126490Y-85644280D01*
X146198580Y-85536530D01*
X146250260Y-85444720D01*
X146306070Y-85365650D01*
X146366010Y-85299340D01*
X146456320Y-85231900D01*
X146538090Y-85209420D01*
X146641960Y-85251280D01*
X146680720Y-85361350D01*
X146643510Y-85477620D01*
X146544300Y-85521030D01*
X146484610Y-85508630D01*
X146423370Y-85471420D01*
X146305550Y-85700860D01*
X146410200Y-85753180D01*
X146544300Y-85770630D01*
X146641960Y-85758050D01*
X146726200Y-85720330D01*
X146796990Y-85657450D01*
X146850390Y-85574940D01*
X146882430Y-85476240D01*
X146893110Y-85361350D01*
X146881740Y-85246280D01*
X146847640Y-85147060D01*
X146790790Y-85063690D01*
X146715170Y-85000820D01*
X146624740Y-84963090D01*
X146519490Y-84950520D01*
X146417170Y-84969510D01*
X146314850Y-85026480D01*
X146250950Y-85083330D01*
X146195650Y-85150510D01*
X146148970Y-85228020D01*
X146091950Y-85323970D01*
X146030460Y-85394770D01*
X145964490Y-85440410D01*
X145964490Y-84933470D01*
X145966040Y-84928820D01*
X145964490Y-84925720D01*
X145714890Y-84927270D01*
X145384160Y-84927270D01*
X145384160Y-84550540D01*
X145384160Y-84299400D01*
X145714890Y-84299400D01*
X145714890Y-84550540D01*
X146877610Y-84945870D01*
X146874510Y-84804790D01*
X146877610Y-84665270D01*
X146094710Y-84426520D01*
X146877610Y-84193980D01*
X146874510Y-84054450D01*
X146877610Y-83914920D01*
X145714890Y-84299400D01*
X145384160Y-84299400D01*
X145384160Y-83914790D01*
X146304000Y-83301570D01*
X147223840Y-83914790D01*
G37*
G36*
X140670291Y-104090259D02*
G01*
X140680448Y-104091032D01*
X140690458Y-104092304D01*
X140700307Y-104094063D01*
X140709983Y-104096296D01*
X140719473Y-104098991D01*
X140728766Y-104102135D01*
X140737849Y-104105716D01*
X140746708Y-104109721D01*
X140755331Y-104114138D01*
X140763707Y-104118954D01*
X140771822Y-104124156D01*
X140779663Y-104129732D01*
X140787218Y-104135670D01*
X140794475Y-104141956D01*
X140801421Y-104148578D01*
X140808043Y-104155524D01*
X140814329Y-104162781D01*
X140820267Y-104170336D01*
X140825843Y-104178177D01*
X140831045Y-104186292D01*
X140835861Y-104194667D01*
X140840278Y-104203291D01*
X140844283Y-104212150D01*
X140847864Y-104221233D01*
X140851008Y-104230525D01*
X140853703Y-104240016D01*
X140855937Y-104249692D01*
X140857695Y-104259541D01*
X140858967Y-104269550D01*
X140859740Y-104279707D01*
X140860000Y-104289999D01*
X140859740Y-104300291D01*
X140858967Y-104310448D01*
X140857695Y-104320457D01*
X140855937Y-104330306D01*
X140853703Y-104339982D01*
X140851008Y-104349473D01*
X140847864Y-104358766D01*
X140844283Y-104367848D01*
X140840278Y-104376708D01*
X140835861Y-104385331D01*
X140831045Y-104393707D01*
X140825843Y-104401821D01*
X140820267Y-104409663D01*
X140814329Y-104417218D01*
X140808043Y-104424475D01*
X140801421Y-104431421D01*
X140794475Y-104438043D01*
X140787218Y-104444329D01*
X140779663Y-104450267D01*
X140771822Y-104455843D01*
X140763707Y-104461045D01*
X140755331Y-104465861D01*
X140746708Y-104470278D01*
X140737849Y-104474283D01*
X140728766Y-104477864D01*
X140719473Y-104481008D01*
X140709983Y-104483703D01*
X140700307Y-104485937D01*
X140690458Y-104487695D01*
X140680448Y-104488967D01*
X140670291Y-104489740D01*
X140660000Y-104490000D01*
X140649708Y-104489740D01*
X140639551Y-104488967D01*
X140629542Y-104487695D01*
X140619693Y-104485937D01*
X140610017Y-104483703D01*
X140600526Y-104481008D01*
X140591233Y-104477864D01*
X140582151Y-104474283D01*
X140573291Y-104470278D01*
X140564668Y-104465861D01*
X140556293Y-104461045D01*
X140548178Y-104455843D01*
X140540337Y-104450267D01*
X140532781Y-104444329D01*
X140525524Y-104438043D01*
X140518578Y-104431421D01*
X140511956Y-104424475D01*
X140505670Y-104417218D01*
X140499733Y-104409663D01*
X140494157Y-104401821D01*
X140488954Y-104393707D01*
X140484139Y-104385331D01*
X140479722Y-104376708D01*
X140475717Y-104367848D01*
X140472136Y-104358766D01*
X140468991Y-104349473D01*
X140466296Y-104339982D01*
X140464063Y-104330306D01*
X140462304Y-104320457D01*
X140461032Y-104310448D01*
X140460260Y-104300291D01*
X140460000Y-104289999D01*
X140460260Y-104279707D01*
X140461032Y-104269550D01*
X140462304Y-104259541D01*
X140464063Y-104249692D01*
X140466296Y-104240016D01*
X140468991Y-104230525D01*
X140472136Y-104221233D01*
X140475717Y-104212150D01*
X140479722Y-104203291D01*
X140484139Y-104194667D01*
X140488954Y-104186292D01*
X140494157Y-104178177D01*
X140499733Y-104170336D01*
X140505670Y-104162781D01*
X140511956Y-104155524D01*
X140518578Y-104148578D01*
X140525524Y-104141956D01*
X140532781Y-104135670D01*
X140540337Y-104129732D01*
X140548178Y-104124156D01*
X140556293Y-104118954D01*
X140564668Y-104114138D01*
X140573291Y-104109721D01*
X140582151Y-104105716D01*
X140591233Y-104102135D01*
X140600526Y-104098991D01*
X140610017Y-104096296D01*
X140619693Y-104094063D01*
X140629542Y-104092304D01*
X140639551Y-104091032D01*
X140649708Y-104090259D01*
X140660000Y-104089999D01*
X140670291Y-104090259D01*
G37*
G36*
X142703290Y-85210290D02*
G01*
X142800610Y-85239910D01*
X142859010Y-85283320D01*
X142878470Y-85340510D01*
X142828860Y-85436630D01*
X142769950Y-85463370D01*
X142695540Y-85472280D01*
X142616860Y-85461430D01*
X142554460Y-85428880D01*
X142514930Y-85378490D01*
X142501750Y-85314150D01*
X142557560Y-85225790D01*
X142621120Y-85207180D01*
X142703290Y-85210290D01*
G37*
G36*
X161542820Y-107378780D02*
G01*
X161532270Y-107469260D01*
X161500620Y-107543280D01*
X161447870Y-107600860D01*
X161374010Y-107641980D01*
X161279060Y-107666660D01*
X161163000Y-107674890D01*
X161046940Y-107666140D01*
X160951990Y-107639920D01*
X160878130Y-107596210D01*
X160825380Y-107535010D01*
X160793730Y-107456340D01*
X160783180Y-107360180D01*
X160786280Y-107231500D01*
X161539720Y-107231500D01*
X161542820Y-107378780D01*
G37*
D11*
X146159999Y-97290000D02*
X145860000Y-97590000D01*
D10*
G36*
X157949490Y-86898640D02*
G01*
X157555720Y-87035070D01*
X157555720Y-86762220D01*
X157949490Y-86898640D01*
G37*
D12*
X164000000Y-78500000D02*
X122000000Y-78500000D01*
X164000000Y-78500000D02*
G75*
G02*
X169000000Y-83500000I0J-5000000D01*
G01*
D10*
G36*
X165430740Y-100691530D02*
G01*
X165519360Y-100704680D01*
X165606260Y-100726440D01*
X165690600Y-100756620D01*
X165771590Y-100794930D01*
X165848430Y-100840980D01*
X165920380Y-100894350D01*
X165986760Y-100954510D01*
X166046920Y-101020890D01*
X166100280Y-101092840D01*
X166146340Y-101169680D01*
X166184640Y-101250660D01*
X166214820Y-101335010D01*
X166236590Y-101421910D01*
X166249730Y-101510520D01*
X166254130Y-101600000D01*
X166249730Y-101689480D01*
X166236590Y-101778090D01*
X166214820Y-101864990D01*
X166184640Y-101949340D01*
X166146340Y-102030320D01*
X166100280Y-102107160D01*
X166046920Y-102179120D01*
X165986760Y-102245490D01*
X165920380Y-102305650D01*
X165848430Y-102359020D01*
X165771590Y-102405070D01*
X165690600Y-102443380D01*
X165606260Y-102473560D01*
X165519360Y-102495320D01*
X165430740Y-102508470D01*
X165341270Y-102512860D01*
X161556740Y-102512860D01*
X161467260Y-102508470D01*
X161378640Y-102495320D01*
X161291750Y-102473560D01*
X161207400Y-102443380D01*
X161126410Y-102405070D01*
X161049580Y-102359020D01*
X160977620Y-102305650D01*
X160911240Y-102245490D01*
X160851080Y-102179120D01*
X160848720Y-102175930D01*
X160797720Y-102107160D01*
X160751660Y-102030320D01*
X160713360Y-101949340D01*
X160683180Y-101864990D01*
X160661410Y-101778090D01*
X160648270Y-101689480D01*
X160643870Y-101600000D01*
X160648270Y-101510520D01*
X160661410Y-101421910D01*
X160683180Y-101335010D01*
X160713360Y-101250660D01*
X160751660Y-101169680D01*
X160797720Y-101092840D01*
X160851021Y-101020970D01*
X161556870Y-101020970D01*
X161558420Y-101025620D01*
X161558420Y-102172830D01*
X161556870Y-102175930D01*
X161558420Y-102180590D01*
X161682440Y-102177480D01*
X161808020Y-102180590D01*
X161809570Y-102175930D01*
X161808020Y-102172830D01*
X161808020Y-101323270D01*
X162045210Y-102180590D01*
X162276200Y-102180590D01*
X162513400Y-101355830D01*
X162513400Y-102172830D01*
X162511850Y-102175930D01*
X162513400Y-102180590D01*
X162638970Y-102177480D01*
X162763000Y-102180590D01*
X162764550Y-102175930D01*
X162763000Y-102172830D01*
X162763000Y-101025620D01*
X162764550Y-101020970D01*
X162763000Y-101017870D01*
X162828110Y-101017870D01*
X163077710Y-102180590D01*
X163327300Y-102180590D01*
X163491630Y-101515510D01*
X163662170Y-102180590D01*
X163913310Y-102180590D01*
X164081970Y-101366680D01*
X164135010Y-101366680D01*
X164144590Y-101462100D01*
X164173350Y-101542850D01*
X164221280Y-101608910D01*
X164288390Y-101660290D01*
X164374670Y-101696990D01*
X164480120Y-101719010D01*
X164604740Y-101726350D01*
X164668310Y-101726350D01*
X164668310Y-102180590D01*
X164798530Y-102177480D01*
X164928760Y-102180590D01*
X164930310Y-102175930D01*
X164928760Y-102172830D01*
X164928760Y-102027110D01*
X165031070Y-102027110D01*
X165076810Y-102136400D01*
X165186100Y-102182140D01*
X165295400Y-102136400D01*
X165341130Y-102027110D01*
X165295400Y-101917810D01*
X165186100Y-101872080D01*
X165077580Y-101917490D01*
X165076810Y-101917810D01*
X165031070Y-102027110D01*
X164928760Y-102027110D01*
X164928760Y-101025620D01*
X164930310Y-101020970D01*
X164928760Y-101017870D01*
X165046580Y-101017870D01*
X165077580Y-101723250D01*
X165297720Y-101723250D01*
X165319430Y-101017870D01*
X165046580Y-101017870D01*
X164928760Y-101017870D01*
X164820230Y-101020970D01*
X164604740Y-101017870D01*
X164480120Y-101024980D01*
X164374670Y-101046340D01*
X164288390Y-101081930D01*
X164221280Y-101131760D01*
X164173350Y-101195830D01*
X164144590Y-101274140D01*
X164135010Y-101366680D01*
X164081970Y-101366680D01*
X164153610Y-101020970D01*
X164152060Y-101017870D01*
X164012530Y-101020970D01*
X163873010Y-101017870D01*
X163761380Y-101631780D01*
X163615660Y-101017870D01*
X163364510Y-101017870D01*
X163212580Y-101631780D01*
X163107160Y-101017870D01*
X162967630Y-101020970D01*
X162828110Y-101017870D01*
X162763000Y-101017870D01*
X162638970Y-101020970D01*
X162369220Y-101020970D01*
X162163030Y-101758910D01*
X161964590Y-101020970D01*
X161682440Y-101020970D01*
X161558420Y-101017870D01*
X161556870Y-101020970D01*
X160851021Y-101020970D01*
X160851080Y-101020890D01*
X160911240Y-100954510D01*
X160977620Y-100894350D01*
X161049580Y-100840980D01*
X161126410Y-100794930D01*
X161207400Y-100756620D01*
X161291750Y-100726440D01*
X161378640Y-100704680D01*
X161467260Y-100691530D01*
X161556740Y-100687140D01*
X165341270Y-100687140D01*
X165430740Y-100691530D01*
G37*
G36*
X152159998Y-95490000D02*
G01*
X151359999Y-95490000D01*
X151359999Y-95290000D01*
X152159998Y-95290000D01*
X152159998Y-95490000D01*
G37*
G36*
X157027860Y-117887160D02*
G01*
X157123930Y-117901410D01*
X157218130Y-117925010D01*
X157309570Y-117957730D01*
X157397360Y-117999250D01*
X157480660Y-118049180D01*
X157558660Y-118107030D01*
X157630620Y-118172250D01*
X157695840Y-118244200D01*
X157753690Y-118322210D01*
X157803620Y-118405500D01*
X157845140Y-118493300D01*
X157877860Y-118584730D01*
X157901450Y-118678940D01*
X157915700Y-118775000D01*
X157920470Y-118872000D01*
X157915700Y-118969000D01*
X157901450Y-119065060D01*
X157877860Y-119159270D01*
X157845140Y-119250710D01*
X157803620Y-119338500D01*
X157753690Y-119421790D01*
X157695840Y-119499800D01*
X157630620Y-119571760D01*
X157558660Y-119636970D01*
X157480660Y-119694830D01*
X157397360Y-119744750D01*
X157309570Y-119786280D01*
X157218130Y-119818990D01*
X157123930Y-119842590D01*
X157027860Y-119856840D01*
X156930860Y-119861600D01*
X147869140Y-119861600D01*
X147772140Y-119856840D01*
X147676080Y-119842590D01*
X147581870Y-119818990D01*
X147490430Y-119786280D01*
X147402640Y-119744750D01*
X147319340Y-119694830D01*
X147241340Y-119636970D01*
X147169380Y-119571760D01*
X147104160Y-119499800D01*
X147046310Y-119421790D01*
X146996380Y-119338500D01*
X146954860Y-119250710D01*
X146922150Y-119159270D01*
X146898550Y-119065060D01*
X146884300Y-118969000D01*
X146879530Y-118872000D01*
X146884300Y-118775000D01*
X146898550Y-118678940D01*
X146922150Y-118584730D01*
X146954860Y-118493300D01*
X146996380Y-118405500D01*
X147046310Y-118322210D01*
X147104160Y-118244200D01*
X147118280Y-118228630D01*
X147869270Y-118228630D01*
X148219640Y-118879750D01*
X148219640Y-119391350D01*
X148349860Y-119388250D01*
X148480080Y-119391350D01*
X148481640Y-119386700D01*
X148480080Y-119383600D01*
X148480080Y-119236320D01*
X148480080Y-118879750D01*
X148752032Y-118374360D01*
X148801000Y-118374360D01*
X148938970Y-118580550D01*
X149041980Y-118494420D01*
X149138100Y-118442740D01*
X149227330Y-118425520D01*
X149307080Y-118438260D01*
X149376840Y-118476500D01*
X149436620Y-118540240D01*
X149480540Y-118619130D01*
X149506900Y-118709050D01*
X149515680Y-118809990D01*
X149506900Y-118910930D01*
X149480540Y-119000850D01*
X149436620Y-119079740D01*
X149376840Y-119143470D01*
X149307080Y-119181710D01*
X149227330Y-119194460D01*
X149127760Y-119176370D01*
X149031640Y-119122110D01*
X148938970Y-119031680D01*
X148801000Y-119236320D01*
X148881130Y-119310930D01*
X148978890Y-119364220D01*
X149094290Y-119396190D01*
X149227330Y-119406850D01*
X149346600Y-119395710D01*
X149454830Y-119362280D01*
X149552020Y-119306570D01*
X149638150Y-119228570D01*
X149706660Y-119138460D01*
X149755590Y-119038660D01*
X149784950Y-118929170D01*
X149794730Y-118809990D01*
X149784950Y-118690710D01*
X149755590Y-118580930D01*
X149706660Y-118480650D01*
X149638150Y-118389860D01*
X149552020Y-118312540D01*
X149454830Y-118257310D01*
X149371290Y-118231730D01*
X149915660Y-118231730D01*
X149917210Y-118236380D01*
X149917210Y-119391350D01*
X150281530Y-119391350D01*
X150628790Y-118729370D01*
X150628790Y-119391350D01*
X150759020Y-119388250D01*
X150889240Y-119391350D01*
X150890790Y-119386700D01*
X150889240Y-119383600D01*
X150889240Y-119178960D01*
X151010160Y-119178960D01*
X151013260Y-119285930D01*
X151013260Y-119391350D01*
X151721750Y-119388250D01*
X151851970Y-119391350D01*
X151853520Y-119386700D01*
X151851970Y-119383600D01*
X151851970Y-118236380D01*
X151853520Y-118231730D01*
X152022500Y-118231730D01*
X152024050Y-118236380D01*
X152024050Y-118944860D01*
X152031560Y-119053140D01*
X152054090Y-119146980D01*
X152091640Y-119226390D01*
X152144200Y-119291350D01*
X152211790Y-119341880D01*
X152294390Y-119377980D01*
X152392010Y-119399630D01*
X152504650Y-119406850D01*
X152617280Y-119399630D01*
X152714900Y-119377980D01*
X152797510Y-119341880D01*
X152865090Y-119291350D01*
X152917650Y-119226390D01*
X152955200Y-119146980D01*
X152977730Y-119053140D01*
X152985240Y-118944860D01*
X152985240Y-118809990D01*
X153106160Y-118809990D01*
X153113660Y-118925450D01*
X153136170Y-119030010D01*
X153173690Y-119123640D01*
X153226210Y-119206370D01*
X153293740Y-119278180D01*
X153219330Y-119409950D01*
X153392960Y-119530880D01*
X153478230Y-119380500D01*
X153566210Y-119400260D01*
X153659610Y-119406850D01*
X153777630Y-119396580D01*
X153883630Y-119365770D01*
X153977620Y-119314420D01*
X154059590Y-119242520D01*
X154107240Y-119178960D01*
X154284380Y-119178960D01*
X154287480Y-119285930D01*
X154287480Y-119391350D01*
X154995970Y-119388250D01*
X155126190Y-119391350D01*
X155127740Y-119386700D01*
X155166500Y-119386700D01*
X155166500Y-119391350D01*
X155316880Y-119388250D01*
X155465700Y-119388250D01*
X155760260Y-118907660D01*
X155760260Y-119391350D01*
X155890490Y-119388250D01*
X156020710Y-119391350D01*
X156022260Y-119386700D01*
X156020710Y-119383600D01*
X156020710Y-118441020D01*
X156110630Y-118441020D01*
X156668730Y-118442570D01*
X156668730Y-118690620D01*
X156164890Y-118690620D01*
X156161790Y-118689070D01*
X156157140Y-118690620D01*
X156160240Y-118791390D01*
X156157140Y-118892150D01*
X156161790Y-118893700D01*
X156164890Y-118892150D01*
X156668730Y-118892150D01*
X156668730Y-119391350D01*
X156798960Y-119388250D01*
X156929180Y-119391350D01*
X156930730Y-119386700D01*
X156929180Y-119383600D01*
X156929180Y-118236380D01*
X156930730Y-118231730D01*
X156929180Y-118228630D01*
X156798960Y-118231730D01*
X156113730Y-118228630D01*
X156113730Y-118334050D01*
X156110630Y-118441020D01*
X156020710Y-118441020D01*
X156020710Y-118236380D01*
X156022260Y-118231730D01*
X156020710Y-118228630D01*
X155912190Y-118231730D01*
X155696700Y-118228630D01*
X155572070Y-118235750D01*
X155466620Y-118257100D01*
X155380340Y-118292700D01*
X155313240Y-118342530D01*
X155265310Y-118406600D01*
X155236550Y-118484900D01*
X155226960Y-118577440D01*
X155242560Y-118685380D01*
X155289360Y-118772010D01*
X155367360Y-118837310D01*
X155476560Y-118881300D01*
X155171150Y-119383600D01*
X155166500Y-119386700D01*
X155127740Y-119386700D01*
X155126190Y-119383600D01*
X155126190Y-118236380D01*
X155127740Y-118231730D01*
X155126190Y-118228630D01*
X154995970Y-118231730D01*
X154310740Y-118228630D01*
X154310740Y-118334050D01*
X154307640Y-118441020D01*
X154865740Y-118442570D01*
X154865740Y-118690620D01*
X154346390Y-118690620D01*
X154343290Y-118689070D01*
X154338640Y-118690620D01*
X154341740Y-118791390D01*
X154338640Y-118892150D01*
X154343290Y-118893700D01*
X154346390Y-118892150D01*
X154865740Y-118892150D01*
X154865740Y-119177410D01*
X154284380Y-119178960D01*
X154107240Y-119178960D01*
X154126060Y-119153860D01*
X154173540Y-119052220D01*
X154202020Y-118937600D01*
X154211520Y-118809990D01*
X154201630Y-118688000D01*
X154171990Y-118576280D01*
X154122570Y-118474830D01*
X154053390Y-118383660D01*
X153969480Y-118309050D01*
X153875880Y-118255760D01*
X153772590Y-118223780D01*
X153659610Y-118213130D01*
X153545960Y-118223780D01*
X153442190Y-118255760D01*
X153348300Y-118309050D01*
X153264290Y-118383660D01*
X153195110Y-118474830D01*
X153145690Y-118576280D01*
X153116040Y-118688000D01*
X153106160Y-118809990D01*
X152985240Y-118809990D01*
X152985240Y-118236380D01*
X152986790Y-118231730D01*
X152985240Y-118228630D01*
X152855010Y-118231730D01*
X152724790Y-118228630D01*
X152726340Y-118899910D01*
X152712480Y-119016570D01*
X152670910Y-119099890D01*
X152601640Y-119149890D01*
X152504650Y-119166560D01*
X152407660Y-119149890D01*
X152338380Y-119099890D01*
X152296810Y-119016570D01*
X152282950Y-118899910D01*
X152282950Y-118236380D01*
X152284500Y-118231730D01*
X152282950Y-118228630D01*
X152152730Y-118231730D01*
X152024050Y-118228630D01*
X152022500Y-118231730D01*
X151853520Y-118231730D01*
X151851970Y-118228630D01*
X151721750Y-118231730D01*
X151036520Y-118228630D01*
X151036520Y-118334050D01*
X151033420Y-118441020D01*
X151591520Y-118442570D01*
X151591520Y-118690620D01*
X151072170Y-118690620D01*
X151069070Y-118689070D01*
X151064420Y-118690620D01*
X151067520Y-118791390D01*
X151064420Y-118892150D01*
X151069070Y-118893700D01*
X151072170Y-118892150D01*
X151591520Y-118892150D01*
X151591520Y-119177410D01*
X151010160Y-119178960D01*
X150889240Y-119178960D01*
X150889240Y-118236380D01*
X150890790Y-118231730D01*
X150889240Y-118228630D01*
X150759020Y-118231730D01*
X150600890Y-118231730D01*
X150177660Y-119037880D01*
X150177660Y-118228630D01*
X150047430Y-118231730D01*
X149917210Y-118228630D01*
X149915660Y-118231730D01*
X149371290Y-118231730D01*
X149346600Y-118224170D01*
X149227330Y-118213130D01*
X149109850Y-118223630D01*
X148997190Y-118255160D01*
X148889360Y-118307690D01*
X148814950Y-118360400D01*
X148801000Y-118374360D01*
X148752032Y-118374360D01*
X148830450Y-118228630D01*
X148701780Y-118231730D01*
X148574650Y-118228630D01*
X148571550Y-118231730D01*
X148571550Y-118236380D01*
X148349860Y-118653410D01*
X148128170Y-118236380D01*
X148128170Y-118231730D01*
X148125070Y-118228630D01*
X147997940Y-118231730D01*
X147869270Y-118228630D01*
X147118280Y-118228630D01*
X147169380Y-118172250D01*
X147241340Y-118107030D01*
X147319340Y-118049180D01*
X147402640Y-117999250D01*
X147490430Y-117957730D01*
X147581870Y-117925010D01*
X147676080Y-117901410D01*
X147772140Y-117887160D01*
X147869140Y-117882400D01*
X156930860Y-117882400D01*
X157027860Y-117887160D01*
G37*
G36*
X120098500Y-103509280D02*
G01*
X120098500Y-104262720D01*
X119951220Y-104265820D01*
X119860740Y-104255270D01*
X119786720Y-104223620D01*
X119729140Y-104170870D01*
X119688020Y-104097010D01*
X119663340Y-104002060D01*
X119655120Y-103886000D01*
X119663860Y-103769940D01*
X119690080Y-103674990D01*
X119733790Y-103601130D01*
X119794990Y-103548380D01*
X119873660Y-103516730D01*
X119969820Y-103506180D01*
X120098500Y-103509280D01*
G37*
D11*
X149159999Y-101389999D02*
X152159998Y-101389999D01*
X149159999Y-97790000D02*
X152159998Y-97790000D01*
D10*
G36*
X152159998Y-96090000D02*
G01*
X151959999Y-96090000D01*
X151959999Y-95290000D01*
X152159998Y-95290000D01*
X152159998Y-96090000D01*
G37*
G36*
X148670291Y-95590260D02*
G01*
X148680448Y-95591033D01*
X148690457Y-95592304D01*
X148700306Y-95594063D01*
X148709982Y-95596296D01*
X148719473Y-95598992D01*
X148728766Y-95602136D01*
X148737848Y-95605717D01*
X148746707Y-95609722D01*
X148755331Y-95614139D01*
X148763706Y-95618955D01*
X148771821Y-95624157D01*
X148779662Y-95629733D01*
X148787218Y-95635670D01*
X148794475Y-95641956D01*
X148801420Y-95648579D01*
X148808043Y-95655524D01*
X148814329Y-95662781D01*
X148820266Y-95670337D01*
X148825842Y-95678178D01*
X148831044Y-95686293D01*
X148835860Y-95694668D01*
X148840277Y-95703292D01*
X148844282Y-95712151D01*
X148847863Y-95721233D01*
X148851007Y-95730526D01*
X148853702Y-95740017D01*
X148855936Y-95749693D01*
X148857694Y-95759542D01*
X148858966Y-95769551D01*
X148859739Y-95779708D01*
X148859999Y-95790000D01*
X148859739Y-95800292D01*
X148858966Y-95810449D01*
X148857694Y-95820458D01*
X148855936Y-95830307D01*
X148853702Y-95839983D01*
X148851007Y-95849474D01*
X148847863Y-95858767D01*
X148844282Y-95867849D01*
X148840277Y-95876708D01*
X148835860Y-95885332D01*
X148831044Y-95893707D01*
X148825842Y-95901822D01*
X148820266Y-95909663D01*
X148814329Y-95917218D01*
X148808043Y-95924475D01*
X148801420Y-95931421D01*
X148794475Y-95938044D01*
X148787218Y-95944330D01*
X148779662Y-95950267D01*
X148771821Y-95955843D01*
X148763706Y-95961045D01*
X148755331Y-95965861D01*
X148746707Y-95970278D01*
X148737848Y-95974283D01*
X148728766Y-95977864D01*
X148719473Y-95981008D01*
X148709982Y-95983703D01*
X148700306Y-95985937D01*
X148690457Y-95987695D01*
X148680448Y-95988967D01*
X148670291Y-95989740D01*
X148659999Y-95990000D01*
X148649707Y-95989740D01*
X148639550Y-95988967D01*
X148629541Y-95987695D01*
X148619692Y-95985937D01*
X148610016Y-95983703D01*
X148600525Y-95981008D01*
X148591233Y-95977864D01*
X148582150Y-95974283D01*
X148573291Y-95970278D01*
X148564667Y-95965861D01*
X148556292Y-95961045D01*
X148548177Y-95955843D01*
X148540336Y-95950267D01*
X148532781Y-95944330D01*
X148525524Y-95938044D01*
X148518578Y-95931421D01*
X148511956Y-95924475D01*
X148505670Y-95917218D01*
X148499732Y-95909663D01*
X148494156Y-95901822D01*
X148488954Y-95893707D01*
X148484138Y-95885332D01*
X148479721Y-95876708D01*
X148475716Y-95867849D01*
X148472135Y-95858767D01*
X148468991Y-95849474D01*
X148466296Y-95839983D01*
X148464063Y-95830307D01*
X148462304Y-95820458D01*
X148461032Y-95810449D01*
X148460259Y-95800292D01*
X148459999Y-95790000D01*
X148460259Y-95779708D01*
X148461032Y-95769551D01*
X148462304Y-95759542D01*
X148464063Y-95749693D01*
X148466296Y-95740017D01*
X148468991Y-95730526D01*
X148472135Y-95721233D01*
X148475716Y-95712151D01*
X148479721Y-95703292D01*
X148484138Y-95694668D01*
X148488954Y-95686293D01*
X148494156Y-95678178D01*
X148499732Y-95670337D01*
X148505670Y-95662781D01*
X148511956Y-95655524D01*
X148518578Y-95648579D01*
X148525524Y-95641956D01*
X148532781Y-95635670D01*
X148540336Y-95629733D01*
X148548177Y-95624157D01*
X148556292Y-95618955D01*
X148564667Y-95614139D01*
X148573291Y-95609722D01*
X148582150Y-95605717D01*
X148591233Y-95602136D01*
X148600525Y-95598992D01*
X148610016Y-95596296D01*
X148619692Y-95594063D01*
X148629541Y-95592304D01*
X148639550Y-95591033D01*
X148649707Y-95590260D01*
X148659999Y-95590000D01*
X148670291Y-95590260D01*
G37*
G36*
X148670291Y-104090259D02*
G01*
X148680448Y-104091032D01*
X148690457Y-104092304D01*
X148700306Y-104094063D01*
X148709982Y-104096296D01*
X148719473Y-104098991D01*
X148728766Y-104102135D01*
X148737848Y-104105716D01*
X148746707Y-104109721D01*
X148755331Y-104114138D01*
X148763706Y-104118954D01*
X148771821Y-104124156D01*
X148779662Y-104129732D01*
X148787218Y-104135670D01*
X148794475Y-104141956D01*
X148801420Y-104148578D01*
X148808043Y-104155524D01*
X148814329Y-104162781D01*
X148820266Y-104170336D01*
X148825842Y-104178177D01*
X148831044Y-104186292D01*
X148835860Y-104194667D01*
X148840277Y-104203291D01*
X148844282Y-104212150D01*
X148847863Y-104221233D01*
X148851007Y-104230525D01*
X148853702Y-104240016D01*
X148855936Y-104249692D01*
X148857694Y-104259541D01*
X148858966Y-104269550D01*
X148859739Y-104279707D01*
X148859999Y-104289999D01*
X148859739Y-104300291D01*
X148858966Y-104310448D01*
X148857694Y-104320457D01*
X148855936Y-104330306D01*
X148853702Y-104339982D01*
X148851007Y-104349473D01*
X148847863Y-104358766D01*
X148844282Y-104367848D01*
X148840277Y-104376708D01*
X148835860Y-104385331D01*
X148831044Y-104393707D01*
X148825842Y-104401821D01*
X148820266Y-104409663D01*
X148814329Y-104417218D01*
X148808043Y-104424475D01*
X148801420Y-104431421D01*
X148794475Y-104438043D01*
X148787218Y-104444329D01*
X148779662Y-104450267D01*
X148771821Y-104455843D01*
X148763706Y-104461045D01*
X148755331Y-104465861D01*
X148746707Y-104470278D01*
X148737848Y-104474283D01*
X148728766Y-104477864D01*
X148719473Y-104481008D01*
X148709982Y-104483703D01*
X148700306Y-104485937D01*
X148690457Y-104487695D01*
X148680448Y-104488967D01*
X148670291Y-104489740D01*
X148659999Y-104490000D01*
X148649707Y-104489740D01*
X148639550Y-104488967D01*
X148629541Y-104487695D01*
X148619692Y-104485937D01*
X148610016Y-104483703D01*
X148600525Y-104481008D01*
X148591233Y-104477864D01*
X148582150Y-104474283D01*
X148573291Y-104470278D01*
X148564667Y-104465861D01*
X148556292Y-104461045D01*
X148548177Y-104455843D01*
X148540336Y-104450267D01*
X148532781Y-104444329D01*
X148525524Y-104438043D01*
X148518578Y-104431421D01*
X148511956Y-104424475D01*
X148505670Y-104417218D01*
X148499732Y-104409663D01*
X148494156Y-104401821D01*
X148488954Y-104393707D01*
X148484138Y-104385331D01*
X148479721Y-104376708D01*
X148475716Y-104367848D01*
X148472135Y-104358766D01*
X148468991Y-104349473D01*
X148466296Y-104339982D01*
X148464063Y-104330306D01*
X148462304Y-104320457D01*
X148461032Y-104310448D01*
X148460259Y-104300291D01*
X148459999Y-104289999D01*
X148460259Y-104279707D01*
X148461032Y-104269550D01*
X148462304Y-104259541D01*
X148464063Y-104249692D01*
X148466296Y-104240016D01*
X148468991Y-104230525D01*
X148472135Y-104221233D01*
X148475716Y-104212150D01*
X148479721Y-104203291D01*
X148484138Y-104194667D01*
X148488954Y-104186292D01*
X148494156Y-104178177D01*
X148499732Y-104170336D01*
X148505670Y-104162781D01*
X148511956Y-104155524D01*
X148518578Y-104148578D01*
X148525524Y-104141956D01*
X148532781Y-104135670D01*
X148540336Y-104129732D01*
X148548177Y-104124156D01*
X148556292Y-104118954D01*
X148564667Y-104114138D01*
X148573291Y-104109721D01*
X148582150Y-104105716D01*
X148591233Y-104102135D01*
X148600525Y-104098991D01*
X148610016Y-104096296D01*
X148619692Y-104094063D01*
X148629541Y-104092304D01*
X148639550Y-104091032D01*
X148649707Y-104090259D01*
X148659999Y-104089999D01*
X148670291Y-104090259D01*
G37*
D12*
X122000000Y-121000000D02*
G75*
G02*
X117000000Y-116000000I0J5000000D01*
G01*
D11*
X143160000Y-97890000D02*
X143460000Y-98190000D01*
D10*
G36*
X155760260Y-118703020D02*
G01*
X155687400Y-118703020D01*
X155576290Y-118689070D01*
X155509630Y-118647210D01*
X155487410Y-118577440D01*
X155511700Y-118495620D01*
X155584560Y-118446530D01*
X155706000Y-118430170D01*
X155760260Y-118430170D01*
X155760260Y-118703020D01*
G37*
G36*
X161351140Y-89477750D02*
G01*
X161400230Y-89550620D01*
X161416600Y-89672060D01*
X161416600Y-89726320D01*
X161112740Y-89726320D01*
X161112740Y-89651900D01*
X161130140Y-89541660D01*
X161182330Y-89475510D01*
X161269320Y-89453460D01*
X161351140Y-89477750D01*
G37*
G36*
X150230060Y-84222360D02*
G01*
X150325010Y-84248580D01*
X150398870Y-84292290D01*
X150451620Y-84353490D01*
X150483270Y-84432160D01*
X150493820Y-84528320D01*
X150490720Y-84657000D01*
X149737280Y-84657000D01*
X149734180Y-84509720D01*
X149744730Y-84419240D01*
X149776380Y-84345220D01*
X149829130Y-84287640D01*
X149902990Y-84246520D01*
X149997940Y-84221840D01*
X150114000Y-84213610D01*
X150230060Y-84222360D01*
G37*
D11*
X144659999Y-99790000D02*
X144360000Y-100190000D01*
X145860000Y-98190000D02*
X146159999Y-98490000D01*
X143160000Y-98490000D02*
X143460000Y-98790000D01*
D10*
G36*
X164668310Y-101523260D02*
G01*
X164593890Y-101523260D01*
X164483650Y-101505860D01*
X164417500Y-101453670D01*
X164395450Y-101366680D01*
X164419740Y-101284860D01*
X164492610Y-101235770D01*
X164614050Y-101219400D01*
X164668310Y-101219400D01*
X164668310Y-101523260D01*
G37*
G36*
X137960000Y-104789999D02*
G01*
X137160000Y-104789999D01*
X137160000Y-104589999D01*
X137960000Y-104589999D01*
X137960000Y-104789999D01*
G37*
G36*
X152159998Y-104789999D02*
G01*
X151359999Y-104789999D01*
X151359999Y-104589999D01*
X152159998Y-104589999D01*
X152159998Y-104789999D01*
G37*
D11*
X146459998Y-98190000D02*
X145860000Y-98790000D01*
D12*
X169000000Y-83500000D02*
X169000000Y-116000000D01*
X117000000Y-116000000D02*
X117000000Y-83500000D01*
D11*
X143460000Y-97590000D02*
X143160000Y-97890000D01*
X144360000Y-100990000D02*
X144659999Y-101389999D01*
X144659999Y-100590000D02*
X144360000Y-100990000D01*
D10*
G36*
X165000720Y-110795040D02*
G01*
X164926310Y-110795040D01*
X164816060Y-110777640D01*
X164749920Y-110725450D01*
X164727870Y-110638460D01*
X164752160Y-110556640D01*
X164825020Y-110507540D01*
X164946460Y-110491180D01*
X165000720Y-110491180D01*
X165000720Y-110795040D01*
G37*
G36*
X158661590Y-83926600D02*
G01*
X158661590Y-88700600D01*
X156806410Y-88700600D01*
X156806410Y-87858270D01*
X157137140Y-87858270D01*
X157144890Y-87973190D01*
X157168140Y-88082290D01*
X157206900Y-88185580D01*
X157261160Y-88283050D01*
X157304570Y-88337310D01*
X157321620Y-88354370D01*
X157530910Y-88185380D01*
X157470840Y-88120270D01*
X157417740Y-88036560D01*
X157377050Y-87942380D01*
X157363480Y-87858270D01*
X157375620Y-87766980D01*
X157412060Y-87712200D01*
X157472780Y-87693940D01*
X157537630Y-87721160D01*
X157586460Y-87802810D01*
X157619280Y-87938890D01*
X157649980Y-88070580D01*
X157693520Y-88178320D01*
X157749890Y-88262120D01*
X157819090Y-88321980D01*
X157901130Y-88357900D01*
X157996000Y-88369870D01*
X158089880Y-88357120D01*
X158171010Y-88318880D01*
X158239400Y-88255150D01*
X158290210Y-88171600D01*
X158320700Y-88071870D01*
X158330860Y-87955940D01*
X158325240Y-87852070D01*
X158308380Y-87749750D01*
X158280280Y-87648980D01*
X158240950Y-87549760D01*
X158208390Y-87490850D01*
X158194440Y-87469150D01*
X157996000Y-87619530D01*
X158053710Y-87716850D01*
X158088330Y-87828990D01*
X158099870Y-87955940D01*
X158077390Y-88065240D01*
X158009950Y-88101670D01*
X157955860Y-88075660D01*
X157913490Y-87997630D01*
X157882830Y-87867570D01*
X157851350Y-87735410D01*
X157805490Y-87627280D01*
X157745240Y-87543180D01*
X157670610Y-87483100D01*
X157581600Y-87447060D01*
X157478200Y-87435040D01*
X157381220Y-87446930D01*
X157299060Y-87482580D01*
X157231710Y-87542010D01*
X157179170Y-87626760D01*
X157147650Y-87732180D01*
X157137140Y-87858270D01*
X156806410Y-87858270D01*
X156806410Y-87455200D01*
X157152640Y-87455200D01*
X157157290Y-87455200D01*
X157160390Y-87452100D01*
X158315360Y-87035070D01*
X158312260Y-86903290D01*
X158312260Y-86752910D01*
X157152640Y-86342090D01*
X157155740Y-86483160D01*
X157152640Y-86622690D01*
X157355730Y-86692450D01*
X157355730Y-87104830D01*
X157152640Y-87174590D01*
X157155740Y-87314120D01*
X157152640Y-87455200D01*
X156806410Y-87455200D01*
X156806410Y-87174590D01*
X156806410Y-85909550D01*
X157152640Y-85909550D01*
X157152640Y-86160700D01*
X158312260Y-86401000D01*
X158315360Y-86399450D01*
X158312260Y-86259920D01*
X158315360Y-86120390D01*
X157701440Y-86008770D01*
X158315360Y-85863050D01*
X158315360Y-85611900D01*
X157701440Y-85459970D01*
X158315360Y-85354550D01*
X158312260Y-85215020D01*
X158314500Y-85114250D01*
X158315360Y-85114250D01*
X158315360Y-84229040D01*
X158209940Y-84229040D01*
X158102970Y-84225940D01*
X158102970Y-84542200D01*
X157160390Y-84542200D01*
X157157290Y-84540650D01*
X157152640Y-84542200D01*
X157155740Y-84672420D01*
X157152640Y-84801090D01*
X157157290Y-84802650D01*
X157160390Y-84801090D01*
X158102970Y-84801090D01*
X158102970Y-85117350D01*
X158123090Y-85116770D01*
X158315360Y-85075500D01*
X158314500Y-85114250D01*
X158209940Y-85114250D01*
X158123090Y-85116770D01*
X157152640Y-85325090D01*
X157152640Y-85574690D01*
X157817720Y-85739020D01*
X157152640Y-85909550D01*
X156806410Y-85909550D01*
X156806410Y-85574690D01*
X156806410Y-84081760D01*
X157151090Y-84081760D01*
X157196820Y-84191050D01*
X157306120Y-84236790D01*
X157415420Y-84191050D01*
X157461150Y-84081760D01*
X157415420Y-83972460D01*
X157306120Y-83926730D01*
X157196820Y-83972460D01*
X157151090Y-84081760D01*
X156806410Y-84081760D01*
X156806410Y-83926600D01*
X157734000Y-83308200D01*
X158661590Y-83926600D01*
G37*
D12*
X117000000Y-83500000D02*
G75*
G02*
X122000000Y-78500000I5000000J0D01*
G01*
D10*
G36*
X121827470Y-109709300D02*
G01*
X121916010Y-109722440D01*
X122002830Y-109744190D01*
X122087110Y-109774340D01*
X122168020Y-109812610D01*
X122244800Y-109858630D01*
X122316690Y-109911950D01*
X122383010Y-109972060D01*
X122443120Y-110038380D01*
X122496440Y-110110270D01*
X122542460Y-110187040D01*
X122580730Y-110267960D01*
X122610880Y-110352240D01*
X122632630Y-110439060D01*
X122645760Y-110527600D01*
X122650160Y-110617000D01*
X122645760Y-110706400D01*
X122632630Y-110794940D01*
X122610880Y-110881770D01*
X122580730Y-110966040D01*
X122542460Y-111046960D01*
X122496440Y-111123730D01*
X122443120Y-111195620D01*
X122383010Y-111261940D01*
X122316690Y-111322050D01*
X122244800Y-111375370D01*
X122168020Y-111421390D01*
X122087110Y-111459660D01*
X122002830Y-111489820D01*
X121916010Y-111511560D01*
X121827470Y-111524700D01*
X121738070Y-111529090D01*
X120323930Y-111529090D01*
X120234530Y-111524700D01*
X120145990Y-111511560D01*
X120059170Y-111489820D01*
X119974890Y-111459660D01*
X119893980Y-111421390D01*
X119817210Y-111375370D01*
X119745310Y-111322050D01*
X119678990Y-111261940D01*
X119618880Y-111195620D01*
X119565560Y-111123730D01*
X119519540Y-111046960D01*
X119481270Y-110966040D01*
X119451120Y-110881770D01*
X119429370Y-110794940D01*
X119416240Y-110706400D01*
X119411850Y-110617000D01*
X119416240Y-110527600D01*
X119429370Y-110439060D01*
X119451120Y-110352240D01*
X119481270Y-110267960D01*
X119519540Y-110187040D01*
X119565560Y-110110270D01*
X119618610Y-110038740D01*
X120324070Y-110038740D01*
X120325620Y-110043390D01*
X120325620Y-111198360D01*
X120689940Y-111198360D01*
X121037200Y-110536390D01*
X121037200Y-111198360D01*
X121167430Y-111195260D01*
X121297650Y-111198360D01*
X121299200Y-111193710D01*
X121297650Y-111190610D01*
X121297650Y-110043390D01*
X121299200Y-110038740D01*
X121475930Y-110038740D01*
X121477480Y-110043390D01*
X121477480Y-111190610D01*
X121475930Y-111193710D01*
X121477480Y-111198360D01*
X121607710Y-111195260D01*
X121736380Y-111198360D01*
X121737930Y-111193710D01*
X121736380Y-111190610D01*
X121736380Y-110043390D01*
X121737930Y-110038740D01*
X121736380Y-110035640D01*
X121607710Y-110038740D01*
X121477480Y-110035640D01*
X121475930Y-110038740D01*
X121299200Y-110038740D01*
X121297650Y-110035640D01*
X121167430Y-110038740D01*
X121009300Y-110038740D01*
X120586070Y-110844890D01*
X120586070Y-110035640D01*
X120455840Y-110038740D01*
X120325620Y-110035640D01*
X120324070Y-110038740D01*
X119618610Y-110038740D01*
X119618880Y-110038380D01*
X119678990Y-109972060D01*
X119745310Y-109911950D01*
X119817210Y-109858630D01*
X119893980Y-109812610D01*
X119974890Y-109774340D01*
X120059170Y-109744190D01*
X120145990Y-109722440D01*
X120234530Y-109709300D01*
X120323930Y-109704910D01*
X121738070Y-109704910D01*
X121827470Y-109709300D01*
G37*
D12*
X164000000Y-121000000D02*
X122000000Y-121000000D01*
D13*
X139903200Y-81788000D02*
G75*
G02*
X137464800Y-81788000I-1219200J0D01*
G01*
X137464800Y-81788000D02*
G75*
G02*
X139903200Y-81788000I1219200J0D01*
G01*
D10*
G36*
X153766200Y-118453030D02*
G01*
X153853400Y-118535590D01*
X153897330Y-118615000D01*
X153923680Y-118706460D01*
X153932470Y-118809990D01*
X153924020Y-118918160D01*
X153898700Y-119011180D01*
X153856500Y-119089040D01*
X153770070Y-119168110D01*
X153659610Y-119194460D01*
X153588300Y-119183610D01*
X153658060Y-119061140D01*
X153484430Y-118940210D01*
X153430170Y-119036330D01*
X153396450Y-118932460D01*
X153385210Y-118809990D01*
X153394000Y-118706460D01*
X153420350Y-118615000D01*
X153464280Y-118535590D01*
X153551870Y-118453030D01*
X153659610Y-118425520D01*
X153766200Y-118453030D01*
G37*
G36*
X138800060Y-85272620D02*
G01*
X138895010Y-85298850D01*
X138968870Y-85342560D01*
X139021620Y-85403750D01*
X139053270Y-85482430D01*
X139063820Y-85578590D01*
X139060720Y-85707270D01*
X138307280Y-85707270D01*
X138304180Y-85559990D01*
X138314730Y-85469510D01*
X138346380Y-85395480D01*
X138399130Y-85337910D01*
X138472990Y-85296780D01*
X138567940Y-85272110D01*
X138684000Y-85263880D01*
X138800060Y-85272620D01*
G37*
G36*
X140670291Y-95590260D02*
G01*
X140680448Y-95591033D01*
X140690458Y-95592304D01*
X140700307Y-95594063D01*
X140709983Y-95596296D01*
X140719473Y-95598992D01*
X140728766Y-95602136D01*
X140737849Y-95605717D01*
X140746708Y-95609722D01*
X140755331Y-95614139D01*
X140763707Y-95618955D01*
X140771822Y-95624157D01*
X140779663Y-95629733D01*
X140787218Y-95635670D01*
X140794475Y-95641956D01*
X140801421Y-95648579D01*
X140808043Y-95655524D01*
X140814329Y-95662781D01*
X140820267Y-95670337D01*
X140825843Y-95678178D01*
X140831045Y-95686293D01*
X140835861Y-95694668D01*
X140840278Y-95703292D01*
X140844283Y-95712151D01*
X140847864Y-95721233D01*
X140851008Y-95730526D01*
X140853703Y-95740017D01*
X140855937Y-95749693D01*
X140857695Y-95759542D01*
X140858967Y-95769551D01*
X140859740Y-95779708D01*
X140860000Y-95790000D01*
X140859740Y-95800292D01*
X140858967Y-95810449D01*
X140857695Y-95820458D01*
X140855937Y-95830307D01*
X140853703Y-95839983D01*
X140851008Y-95849474D01*
X140847864Y-95858767D01*
X140844283Y-95867849D01*
X140840278Y-95876708D01*
X140835861Y-95885332D01*
X140831045Y-95893707D01*
X140825843Y-95901822D01*
X140820267Y-95909663D01*
X140814329Y-95917218D01*
X140808043Y-95924475D01*
X140801421Y-95931421D01*
X140794475Y-95938044D01*
X140787218Y-95944330D01*
X140779663Y-95950267D01*
X140771822Y-95955843D01*
X140763707Y-95961045D01*
X140755331Y-95965861D01*
X140746708Y-95970278D01*
X140737849Y-95974283D01*
X140728766Y-95977864D01*
X140719473Y-95981008D01*
X140709983Y-95983703D01*
X140700307Y-95985937D01*
X140690458Y-95987695D01*
X140680448Y-95988967D01*
X140670291Y-95989740D01*
X140660000Y-95990000D01*
X140649708Y-95989740D01*
X140639551Y-95988967D01*
X140629542Y-95987695D01*
X140619693Y-95985937D01*
X140610017Y-95983703D01*
X140600526Y-95981008D01*
X140591233Y-95977864D01*
X140582151Y-95974283D01*
X140573291Y-95970278D01*
X140564668Y-95965861D01*
X140556293Y-95961045D01*
X140548178Y-95955843D01*
X140540337Y-95950267D01*
X140532781Y-95944330D01*
X140525524Y-95938044D01*
X140518578Y-95931421D01*
X140511956Y-95924475D01*
X140505670Y-95917218D01*
X140499733Y-95909663D01*
X140494157Y-95901822D01*
X140488954Y-95893707D01*
X140484139Y-95885332D01*
X140479722Y-95876708D01*
X140475717Y-95867849D01*
X140472136Y-95858767D01*
X140468991Y-95849474D01*
X140466296Y-95839983D01*
X140464063Y-95830307D01*
X140462304Y-95820458D01*
X140461032Y-95810449D01*
X140460260Y-95800292D01*
X140460000Y-95790000D01*
X140460260Y-95779708D01*
X140461032Y-95769551D01*
X140462304Y-95759542D01*
X140464063Y-95749693D01*
X140466296Y-95740017D01*
X140468991Y-95730526D01*
X140472136Y-95721233D01*
X140475717Y-95712151D01*
X140479722Y-95703292D01*
X140484139Y-95694668D01*
X140488954Y-95686293D01*
X140494157Y-95678178D01*
X140499733Y-95670337D01*
X140505670Y-95662781D01*
X140511956Y-95655524D01*
X140518578Y-95648579D01*
X140525524Y-95641956D01*
X140532781Y-95635670D01*
X140540337Y-95629733D01*
X140548178Y-95624157D01*
X140556293Y-95618955D01*
X140564668Y-95614139D01*
X140573291Y-95609722D01*
X140582151Y-95605717D01*
X140591233Y-95602136D01*
X140600526Y-95598992D01*
X140610017Y-95596296D01*
X140619693Y-95594063D01*
X140629542Y-95592304D01*
X140639551Y-95591033D01*
X140649708Y-95590260D01*
X140660000Y-95590000D01*
X140670291Y-95590260D01*
G37*
G36*
X167790090Y-90346520D02*
G01*
X166878000Y-90954580D01*
X165965910Y-90346520D01*
X165965910Y-90344840D01*
X166296640Y-90344840D01*
X166301290Y-90346390D01*
X166304390Y-90344840D01*
X167451610Y-90344840D01*
X167456260Y-90346390D01*
X167459360Y-90344840D01*
X167456260Y-90236320D01*
X167459360Y-90020830D01*
X167452240Y-89896200D01*
X167430890Y-89790750D01*
X167395290Y-89704470D01*
X167345460Y-89637370D01*
X167281390Y-89589430D01*
X167203090Y-89560670D01*
X167110540Y-89551090D01*
X167015120Y-89560670D01*
X166934380Y-89589430D01*
X166868320Y-89637370D01*
X166816940Y-89704470D01*
X166780240Y-89790750D01*
X166758220Y-89896200D01*
X166750880Y-90020830D01*
X166750880Y-90084390D01*
X166296640Y-90084390D01*
X166299740Y-90214610D01*
X166296640Y-90344840D01*
X165965910Y-90344840D01*
X165965910Y-90084390D01*
X165965910Y-89078250D01*
X166296640Y-89078250D01*
X166296640Y-89329400D01*
X167456260Y-89569690D01*
X167459360Y-89568140D01*
X167456260Y-89428610D01*
X167459360Y-89289090D01*
X166845440Y-89177470D01*
X167459360Y-89031740D01*
X167459360Y-88780590D01*
X166845440Y-88628660D01*
X167459360Y-88523240D01*
X167456260Y-88383720D01*
X167459360Y-88244190D01*
X166296640Y-88493790D01*
X166296640Y-88743390D01*
X166961720Y-88907720D01*
X166296640Y-89078250D01*
X165965910Y-89078250D01*
X165965910Y-88743390D01*
X165965910Y-87461290D01*
X166296640Y-87461290D01*
X166296640Y-87692290D01*
X167121400Y-87929480D01*
X166304390Y-87929480D01*
X166301290Y-87927930D01*
X166296640Y-87929480D01*
X166299740Y-88055060D01*
X166296640Y-88179080D01*
X166301290Y-88180630D01*
X166304390Y-88179080D01*
X167451610Y-88179080D01*
X167456260Y-88180630D01*
X167459360Y-88179080D01*
X167456260Y-88055060D01*
X167456260Y-87785300D01*
X166718320Y-87579120D01*
X167456260Y-87380680D01*
X167456260Y-87098520D01*
X167459360Y-86974500D01*
X167456260Y-86972950D01*
X167451610Y-86974500D01*
X166304390Y-86974500D01*
X166301290Y-86972950D01*
X166296640Y-86974500D01*
X166299740Y-87098520D01*
X166296640Y-87224100D01*
X166301290Y-87225650D01*
X166304390Y-87224100D01*
X167153950Y-87224100D01*
X166296640Y-87461290D01*
X165965910Y-87461290D01*
X165965910Y-87224100D01*
X165965910Y-86642220D01*
X167790090Y-86642220D01*
X167790090Y-90346520D01*
G37*
D11*
X137160000Y-97790000D02*
X140160000Y-97790000D01*
D10*
G36*
X137360000Y-96090000D02*
G01*
X137160000Y-96090000D01*
X137160000Y-95290000D01*
X137360000Y-95290000D01*
X137360000Y-96090000D01*
G37*
D11*
X146159999Y-97890000D02*
X145860000Y-98190000D01*
X143160000Y-97290000D02*
X143460000Y-97590000D01*
D10*
G36*
X167192370Y-89835820D02*
G01*
X167241460Y-89908690D01*
X167257820Y-90030130D01*
X167257820Y-90084390D01*
X166953960Y-90084390D01*
X166953960Y-90009970D01*
X166971360Y-89899730D01*
X167023560Y-89833590D01*
X167110540Y-89811540D01*
X167192370Y-89835820D01*
G37*
G36*
X144959050Y-117948880D02*
G01*
X145049090Y-117962230D01*
X145137390Y-117984350D01*
X145223100Y-118015020D01*
X145305390Y-118053940D01*
X145383470Y-118100740D01*
X145456590Y-118154960D01*
X145524030Y-118216090D01*
X145585170Y-118283540D01*
X145639390Y-118356660D01*
X145686190Y-118434740D01*
X145725110Y-118517030D01*
X145755780Y-118602730D01*
X145777900Y-118691040D01*
X145791250Y-118781080D01*
X145795720Y-118872000D01*
X145791250Y-118962920D01*
X145777900Y-119052960D01*
X145755780Y-119141270D01*
X145725110Y-119226970D01*
X145686190Y-119309260D01*
X145639390Y-119387340D01*
X145585170Y-119460460D01*
X145524030Y-119527910D01*
X145456590Y-119589040D01*
X145383470Y-119643270D01*
X145305390Y-119690060D01*
X145223100Y-119728980D01*
X145137390Y-119759650D01*
X145049090Y-119781770D01*
X144959050Y-119795130D01*
X144868130Y-119799590D01*
X139103870Y-119799590D01*
X139012950Y-119795130D01*
X138922910Y-119781770D01*
X138834610Y-119759650D01*
X138748900Y-119728980D01*
X138666610Y-119690060D01*
X138588530Y-119643260D01*
X138515420Y-119589040D01*
X138447970Y-119527910D01*
X138386840Y-119460460D01*
X138332610Y-119387340D01*
X138285810Y-119309260D01*
X138246890Y-119226970D01*
X138216220Y-119141270D01*
X138194110Y-119052960D01*
X138180750Y-118962920D01*
X138176280Y-118872000D01*
X138180750Y-118781080D01*
X138194110Y-118691040D01*
X138216220Y-118602730D01*
X138246890Y-118517030D01*
X138253510Y-118503030D01*
X139104010Y-118503030D01*
X139420270Y-118503030D01*
X139420270Y-119445610D01*
X139418720Y-119448710D01*
X139420270Y-119453360D01*
X139550490Y-119450260D01*
X139679160Y-119453360D01*
X139680710Y-119448710D01*
X139679160Y-119445610D01*
X139679160Y-119240970D01*
X140012480Y-119240970D01*
X140015580Y-119347940D01*
X140015580Y-119453360D01*
X140724060Y-119450260D01*
X140854290Y-119453360D01*
X140855840Y-119448710D01*
X140854290Y-119445610D01*
X140854290Y-119127800D01*
X140956610Y-119127800D01*
X140968490Y-119224780D01*
X141004150Y-119306940D01*
X141063580Y-119374300D01*
X141148330Y-119426830D01*
X141253750Y-119458360D01*
X141379840Y-119468860D01*
X141494750Y-119461110D01*
X141603850Y-119437860D01*
X141707140Y-119399100D01*
X141804620Y-119344840D01*
X141858880Y-119301430D01*
X141875930Y-119284380D01*
X141706950Y-119075090D01*
X141641840Y-119135160D01*
X141558120Y-119188260D01*
X141463940Y-119228960D01*
X141379840Y-119242520D01*
X141288540Y-119230380D01*
X141233760Y-119193940D01*
X141215500Y-119133220D01*
X141242720Y-119068370D01*
X141324370Y-119019540D01*
X141460450Y-118986720D01*
X141592140Y-118956020D01*
X141699890Y-118912480D01*
X141783690Y-118856110D01*
X141843550Y-118786910D01*
X141879460Y-118704870D01*
X141891430Y-118610000D01*
X141878690Y-118516120D01*
X141872510Y-118503030D01*
X141903830Y-118503030D01*
X142461940Y-118504580D01*
X142461940Y-118752630D01*
X141958100Y-118752630D01*
X141954990Y-118751080D01*
X141950340Y-118752630D01*
X141953440Y-118853400D01*
X141950340Y-118954170D01*
X141954990Y-118955720D01*
X141958100Y-118954170D01*
X142461940Y-118954170D01*
X142461940Y-119453360D01*
X142592160Y-119450260D01*
X142722390Y-119453360D01*
X142723940Y-119448710D01*
X142722390Y-119445610D01*
X142722390Y-118503030D01*
X142812310Y-118503030D01*
X143370410Y-118504580D01*
X143370410Y-118752630D01*
X142866570Y-118752630D01*
X142863470Y-118751080D01*
X142858820Y-118752630D01*
X142861920Y-118853400D01*
X142858820Y-118954170D01*
X142863470Y-118955720D01*
X142866570Y-118954170D01*
X143370410Y-118954170D01*
X143370410Y-119453360D01*
X143500640Y-119450260D01*
X143630860Y-119453360D01*
X143632410Y-119448710D01*
X143630860Y-119445610D01*
X143630860Y-118872000D01*
X143762640Y-118872000D01*
X143772130Y-118999610D01*
X143800620Y-119114230D01*
X143848100Y-119215870D01*
X143914560Y-119304530D01*
X143996630Y-119376430D01*
X144090910Y-119427780D01*
X144197400Y-119458590D01*
X144316090Y-119468860D01*
X144434110Y-119458590D01*
X144540110Y-119427780D01*
X144634090Y-119376430D01*
X144716070Y-119304530D01*
X144782540Y-119215870D01*
X144830010Y-119114230D01*
X144858500Y-118999610D01*
X144868000Y-118872000D01*
X144858110Y-118750010D01*
X144828460Y-118638290D01*
X144779050Y-118536850D01*
X144709870Y-118445670D01*
X144625960Y-118371060D01*
X144532360Y-118317770D01*
X144429070Y-118285800D01*
X144316090Y-118275140D01*
X144202430Y-118285800D01*
X144098660Y-118317770D01*
X144004770Y-118371060D01*
X143920770Y-118445670D01*
X143851580Y-118536850D01*
X143802170Y-118638290D01*
X143772520Y-118750010D01*
X143762640Y-118872000D01*
X143630860Y-118872000D01*
X143630860Y-118298390D01*
X143632410Y-118293740D01*
X143630860Y-118290640D01*
X143500640Y-118293740D01*
X142815410Y-118290640D01*
X142815410Y-118396060D01*
X142812310Y-118503030D01*
X142722390Y-118503030D01*
X142722390Y-118298390D01*
X142723940Y-118293740D01*
X142722390Y-118290640D01*
X142592160Y-118293740D01*
X141906940Y-118290640D01*
X141906940Y-118396060D01*
X141903830Y-118503030D01*
X141872510Y-118503030D01*
X141840450Y-118434990D01*
X141776710Y-118366600D01*
X141693170Y-118315790D01*
X141593430Y-118285300D01*
X141477500Y-118275140D01*
X141373630Y-118280760D01*
X141271320Y-118297620D01*
X141170550Y-118325720D01*
X141071330Y-118365050D01*
X141012420Y-118397610D01*
X140990710Y-118411560D01*
X141141090Y-118610000D01*
X141238410Y-118552300D01*
X141350550Y-118517670D01*
X141477500Y-118506130D01*
X141586800Y-118528610D01*
X141623230Y-118596050D01*
X141597220Y-118650140D01*
X141519190Y-118692510D01*
X141389140Y-118723170D01*
X141256980Y-118754650D01*
X141148840Y-118800510D01*
X141064740Y-118860760D01*
X141004660Y-118935390D01*
X140968620Y-119024400D01*
X140956610Y-119127800D01*
X140854290Y-119127800D01*
X140854290Y-118298390D01*
X140855840Y-118293740D01*
X140854290Y-118290640D01*
X140724060Y-118293740D01*
X140038830Y-118290640D01*
X140038830Y-118396060D01*
X140035730Y-118503030D01*
X140593840Y-118504580D01*
X140593840Y-118752630D01*
X140074490Y-118752630D01*
X140071390Y-118751080D01*
X140066740Y-118752630D01*
X140069840Y-118853400D01*
X140066740Y-118954170D01*
X140071390Y-118955720D01*
X140074490Y-118954170D01*
X140593840Y-118954170D01*
X140593840Y-119239420D01*
X140012480Y-119240970D01*
X139679160Y-119240970D01*
X139679160Y-118503030D01*
X139995420Y-118503030D01*
X139992320Y-118396060D01*
X139992320Y-118290640D01*
X139107110Y-118290640D01*
X139107110Y-118396060D01*
X139104010Y-118503030D01*
X138253510Y-118503030D01*
X138285810Y-118434740D01*
X138332610Y-118356660D01*
X138386840Y-118283540D01*
X138447970Y-118216090D01*
X138515420Y-118154960D01*
X138588530Y-118100740D01*
X138666610Y-118053940D01*
X138748900Y-118015020D01*
X138834610Y-117984350D01*
X138922910Y-117962230D01*
X139012950Y-117948880D01*
X139103870Y-117944410D01*
X144868130Y-117944410D01*
X144959050Y-117948880D01*
G37*
G36*
X161253920Y-103720810D02*
G01*
X161343960Y-103734160D01*
X161432270Y-103756280D01*
X161517970Y-103786950D01*
X161600260Y-103825870D01*
X161678340Y-103872670D01*
X161751460Y-103926890D01*
X161818910Y-103988020D01*
X161880040Y-104055470D01*
X161934270Y-104128590D01*
X161981060Y-104206670D01*
X162019980Y-104288960D01*
X162050650Y-104374660D01*
X162072770Y-104462970D01*
X162086130Y-104553010D01*
X162090590Y-104643930D01*
X162090590Y-107954070D01*
X162086130Y-108044990D01*
X162072770Y-108135030D01*
X162050650Y-108223340D01*
X162019980Y-108309040D01*
X161981060Y-108391330D01*
X161934260Y-108469410D01*
X161880040Y-108542530D01*
X161818910Y-108609980D01*
X161751460Y-108671110D01*
X161678340Y-108725330D01*
X161600260Y-108772130D01*
X161517970Y-108811050D01*
X161432270Y-108841720D01*
X161343960Y-108863840D01*
X161253920Y-108877200D01*
X161163000Y-108881660D01*
X161072080Y-108877200D01*
X160982040Y-108863840D01*
X160893730Y-108841720D01*
X160808030Y-108811050D01*
X160725740Y-108772130D01*
X160647660Y-108725330D01*
X160574540Y-108671110D01*
X160507090Y-108609980D01*
X160445960Y-108542530D01*
X160391740Y-108469410D01*
X160344940Y-108391330D01*
X160306020Y-108309040D01*
X160275350Y-108223340D01*
X160253230Y-108135030D01*
X160239880Y-108044990D01*
X160235410Y-107954070D01*
X160235410Y-107349320D01*
X160235410Y-106971050D01*
X160581640Y-106971050D01*
X160584740Y-107101280D01*
X160584740Y-107231500D01*
X160581640Y-107349320D01*
X160588820Y-107476220D01*
X160610350Y-107588180D01*
X160646240Y-107685220D01*
X160696480Y-107767330D01*
X160761070Y-107834510D01*
X160840020Y-107886760D01*
X160933330Y-107924080D01*
X161040990Y-107946470D01*
X161163000Y-107953940D01*
X161285010Y-107947050D01*
X161392670Y-107926380D01*
X161485980Y-107891930D01*
X161564930Y-107843700D01*
X161629520Y-107781680D01*
X161679760Y-107705890D01*
X161715650Y-107616320D01*
X161737180Y-107512970D01*
X161744360Y-107395830D01*
X161741260Y-107231500D01*
X161741260Y-107101280D01*
X161744360Y-106971050D01*
X161739710Y-106969500D01*
X161736610Y-106971050D01*
X160589390Y-106971050D01*
X160584740Y-106969500D01*
X160581640Y-106971050D01*
X160235410Y-106971050D01*
X160235410Y-106792770D01*
X160235410Y-105820740D01*
X160581640Y-105820740D01*
X160584740Y-105950960D01*
X160584740Y-106109090D01*
X161390890Y-106532320D01*
X160581640Y-106532320D01*
X160584740Y-106662540D01*
X160581640Y-106792770D01*
X160584740Y-106794320D01*
X160589390Y-106792770D01*
X161744360Y-106792770D01*
X161744360Y-106428450D01*
X161082390Y-106081180D01*
X161744360Y-106081180D01*
X161741260Y-105950960D01*
X161744360Y-105820740D01*
X161739710Y-105819180D01*
X161736610Y-105820740D01*
X160589390Y-105820740D01*
X160584740Y-105819180D01*
X160581640Y-105820740D01*
X160235410Y-105820740D01*
X160235410Y-105265730D01*
X160566140Y-105265730D01*
X160576470Y-105378730D01*
X160607480Y-105488280D01*
X160659160Y-105594390D01*
X160714970Y-105670360D01*
X160727370Y-105684310D01*
X160933560Y-105546330D01*
X160847430Y-105442810D01*
X160795750Y-105349270D01*
X160778530Y-105265730D01*
X160790240Y-105169270D01*
X160825380Y-105086590D01*
X160883950Y-105017680D01*
X160961810Y-104965150D01*
X161054820Y-104933620D01*
X161163000Y-104923120D01*
X161271180Y-104933620D01*
X161364190Y-104965150D01*
X161442050Y-105017680D01*
X161500620Y-105086590D01*
X161535760Y-105169270D01*
X161547470Y-105265730D01*
X161531970Y-105369990D01*
X161485460Y-105456420D01*
X161271520Y-105456420D01*
X161271520Y-105234720D01*
X161060680Y-105234720D01*
X161060680Y-105704460D01*
X161611040Y-105704460D01*
X161676150Y-105611350D01*
X161722660Y-105507190D01*
X161750560Y-105391980D01*
X161759860Y-105265730D01*
X161749590Y-105132310D01*
X161718780Y-105012650D01*
X161667430Y-104906740D01*
X161595530Y-104814600D01*
X161506870Y-104739990D01*
X161405230Y-104686700D01*
X161290610Y-104654720D01*
X161163000Y-104644060D01*
X161035390Y-104654720D01*
X160920770Y-104686700D01*
X160819130Y-104739990D01*
X160730470Y-104814600D01*
X160658570Y-104906740D01*
X160607220Y-105012650D01*
X160576410Y-105132310D01*
X160566140Y-105265730D01*
X160235410Y-105265730D01*
X160235410Y-104643930D01*
X160239880Y-104553010D01*
X160253230Y-104462970D01*
X160275350Y-104374660D01*
X160306020Y-104288960D01*
X160344940Y-104206670D01*
X160391740Y-104128590D01*
X160445960Y-104055470D01*
X160507090Y-103988020D01*
X160574540Y-103926890D01*
X160647660Y-103872670D01*
X160725740Y-103825870D01*
X160808030Y-103786950D01*
X160893730Y-103756280D01*
X160982040Y-103734160D01*
X161072080Y-103720810D01*
X161163000Y-103716340D01*
X161253920Y-103720810D01*
G37*
D13*
X155143200Y-81788000D02*
G75*
G02*
X152704800Y-81788000I-1219200J0D01*
G01*
X152704800Y-81788000D02*
G75*
G02*
X155143200Y-81788000I1219200J0D01*
G01*
D10*
G36*
X139611590Y-83914990D02*
G01*
X139611590Y-87391400D01*
X137756410Y-87391400D01*
X137756410Y-86665350D01*
X137756410Y-86414200D01*
X138102640Y-86414200D01*
X138102640Y-86665350D01*
X139265360Y-87060670D01*
X139262260Y-86919590D01*
X139265360Y-86780070D01*
X138482460Y-86541320D01*
X139265360Y-86308780D01*
X139262260Y-86169250D01*
X139265360Y-86029730D01*
X138102640Y-86414200D01*
X137756410Y-86414200D01*
X137756410Y-85967720D01*
X137756410Y-85542930D01*
X138102640Y-85542930D01*
X138105740Y-85707270D01*
X138105740Y-85837490D01*
X138102640Y-85967720D01*
X138107290Y-85969270D01*
X138110390Y-85967720D01*
X139257610Y-85967720D01*
X139262260Y-85969270D01*
X139265360Y-85967720D01*
X139262260Y-85837490D01*
X139262260Y-85707270D01*
X139265360Y-85589440D01*
X139258180Y-85462550D01*
X139236650Y-85350580D01*
X139200760Y-85253550D01*
X139150520Y-85171440D01*
X139085930Y-85104260D01*
X139006980Y-85052010D01*
X138913670Y-85014690D01*
X138806010Y-84992290D01*
X138684000Y-84984830D01*
X138561990Y-84991720D01*
X138454330Y-85012390D01*
X138361020Y-85046840D01*
X138282070Y-85095070D01*
X138217480Y-85157080D01*
X138167240Y-85232880D01*
X138131350Y-85322450D01*
X138109820Y-85425800D01*
X138102640Y-85542930D01*
X137756410Y-85542930D01*
X137756410Y-84341460D01*
X138087140Y-84341460D01*
X138098280Y-84460730D01*
X138131710Y-84568960D01*
X138187420Y-84666150D01*
X138265420Y-84752290D01*
X138355530Y-84820790D01*
X138455330Y-84869720D01*
X138564820Y-84899080D01*
X138684000Y-84908860D01*
X138803280Y-84899080D01*
X138913060Y-84869720D01*
X139013340Y-84820790D01*
X139104130Y-84752290D01*
X139181450Y-84666150D01*
X139236680Y-84568960D01*
X139269820Y-84460730D01*
X139280860Y-84341460D01*
X139270360Y-84223980D01*
X139238830Y-84111330D01*
X139186300Y-84003490D01*
X139133590Y-83929080D01*
X139119630Y-83915130D01*
X138913440Y-84053100D01*
X138999570Y-84156110D01*
X139051250Y-84252230D01*
X139068470Y-84341460D01*
X139055730Y-84421210D01*
X139017490Y-84490970D01*
X138953750Y-84550750D01*
X138874860Y-84594670D01*
X138784940Y-84621030D01*
X138684000Y-84629810D01*
X138583060Y-84621030D01*
X138493140Y-84594670D01*
X138414250Y-84550750D01*
X138350520Y-84490970D01*
X138312270Y-84421210D01*
X138299530Y-84341460D01*
X138317610Y-84241890D01*
X138371870Y-84145780D01*
X138462310Y-84053100D01*
X138257670Y-83915130D01*
X138183060Y-83995260D01*
X138129770Y-84093020D01*
X138097800Y-84208420D01*
X138087140Y-84341460D01*
X137756410Y-84341460D01*
X137756410Y-83914990D01*
X138684000Y-83296600D01*
X139611590Y-83914990D01*
G37*
G36*
X161948860Y-90399280D02*
G01*
X161036000Y-91007850D01*
X160123140Y-90399280D01*
X160123140Y-90244110D01*
X160453870Y-90244110D01*
X160499600Y-90353410D01*
X160608890Y-90399140D01*
X160712630Y-90355740D01*
X160718190Y-90353410D01*
X160763920Y-90244110D01*
X160718510Y-90135590D01*
X160912750Y-90135590D01*
X160912750Y-90355740D01*
X161618140Y-90377440D01*
X161618140Y-90104590D01*
X160912750Y-90135590D01*
X160718510Y-90135590D01*
X160718190Y-90134820D01*
X160608890Y-90089080D01*
X160499600Y-90134820D01*
X160453870Y-90244110D01*
X160123140Y-90244110D01*
X160123140Y-89986770D01*
X160455420Y-89986770D01*
X160460070Y-89988320D01*
X160463170Y-89986770D01*
X161610380Y-89986770D01*
X161615030Y-89988320D01*
X161618140Y-89986770D01*
X161615030Y-89878250D01*
X161618140Y-89662750D01*
X161611020Y-89538130D01*
X161589660Y-89432680D01*
X161554070Y-89346400D01*
X161504240Y-89279290D01*
X161440170Y-89231360D01*
X161361860Y-89202600D01*
X161269320Y-89193020D01*
X161173900Y-89202600D01*
X161093160Y-89231360D01*
X161027090Y-89279290D01*
X160975710Y-89346400D01*
X160939010Y-89432680D01*
X160916990Y-89538130D01*
X160909650Y-89662750D01*
X160909650Y-89726320D01*
X160455420Y-89726320D01*
X160458520Y-89856540D01*
X160455420Y-89986770D01*
X160123140Y-89986770D01*
X160123140Y-89726320D01*
X160123140Y-88720180D01*
X160455420Y-88720180D01*
X160455420Y-88971320D01*
X161615030Y-89211620D01*
X161618140Y-89210070D01*
X161615030Y-89070540D01*
X161618140Y-88931020D01*
X161004220Y-88819390D01*
X161618140Y-88673670D01*
X161618140Y-88422520D01*
X161004220Y-88270590D01*
X161618140Y-88165170D01*
X161615030Y-88025640D01*
X161618140Y-87886120D01*
X160455420Y-88135720D01*
X160455420Y-88385310D01*
X161120490Y-88549640D01*
X160455420Y-88720180D01*
X160123140Y-88720180D01*
X160123140Y-88385310D01*
X160123140Y-87103220D01*
X160455420Y-87103220D01*
X160455420Y-87334210D01*
X161280170Y-87571410D01*
X160463170Y-87571410D01*
X160460070Y-87569860D01*
X160455420Y-87571410D01*
X160458520Y-87696980D01*
X160455420Y-87821010D01*
X160460070Y-87822560D01*
X160463170Y-87821010D01*
X161610380Y-87821010D01*
X161615030Y-87822560D01*
X161618140Y-87821010D01*
X161615030Y-87696980D01*
X161615030Y-87427230D01*
X160877100Y-87221040D01*
X161615030Y-87022610D01*
X161615030Y-86740450D01*
X161618140Y-86616430D01*
X161615030Y-86614880D01*
X161610380Y-86616430D01*
X160463170Y-86616430D01*
X160460070Y-86614880D01*
X160455420Y-86616430D01*
X160458520Y-86740450D01*
X160455420Y-86866030D01*
X160460070Y-86867580D01*
X160463170Y-86866030D01*
X161312730Y-86866030D01*
X160455420Y-87103220D01*
X160123140Y-87103220D01*
X160123140Y-86866030D01*
X160123140Y-86284150D01*
X161948860Y-86284150D01*
X161948860Y-90399280D01*
G37*
D14*
X136667142Y-81289857D02*
X135952857Y-81289857D01*
X136809999Y-81718428D02*
X136309999Y-80218428D01*
X136309999Y-80218428D02*
X135809999Y-81718428D01*
X135095714Y-81718428D02*
X135238571Y-81647000D01*
X135238571Y-81647000D02*
X135310000Y-81504142D01*
X135310000Y-81504142D02*
X135310000Y-80218428D01*
X134524286Y-81718428D02*
X134524286Y-80718428D01*
X134524286Y-80861285D02*
X134452857Y-80789857D01*
X134452857Y-80789857D02*
X134310000Y-80718428D01*
X134310000Y-80718428D02*
X134095714Y-80718428D01*
X134095714Y-80718428D02*
X133952857Y-80789857D01*
X133952857Y-80789857D02*
X133881429Y-80932714D01*
X133881429Y-80932714D02*
X133881429Y-81718428D01*
X133881429Y-80932714D02*
X133810000Y-80789857D01*
X133810000Y-80789857D02*
X133667143Y-80718428D01*
X133667143Y-80718428D02*
X133452857Y-80718428D01*
X133452857Y-80718428D02*
X133310000Y-80789857D01*
X133310000Y-80789857D02*
X133238571Y-80932714D01*
X133238571Y-80932714D02*
X133238571Y-81718428D01*
X131881429Y-81718428D02*
X131881429Y-80932714D01*
X131881429Y-80932714D02*
X131952857Y-80789857D01*
X131952857Y-80789857D02*
X132095714Y-80718428D01*
X132095714Y-80718428D02*
X132381429Y-80718428D01*
X132381429Y-80718428D02*
X132524286Y-80789857D01*
X131881429Y-81647000D02*
X132024286Y-81718428D01*
X132024286Y-81718428D02*
X132381429Y-81718428D01*
X132381429Y-81718428D02*
X132524286Y-81647000D01*
X132524286Y-81647000D02*
X132595714Y-81504142D01*
X132595714Y-81504142D02*
X132595714Y-81361285D01*
X132595714Y-81361285D02*
X132524286Y-81218428D01*
X132524286Y-81218428D02*
X132381429Y-81147000D01*
X132381429Y-81147000D02*
X132024286Y-81147000D01*
X132024286Y-81147000D02*
X131881429Y-81075571D01*
X131167143Y-81718428D02*
X131167143Y-80718428D01*
X131167143Y-81004142D02*
X131095714Y-80861285D01*
X131095714Y-80861285D02*
X131024286Y-80789857D01*
X131024286Y-80789857D02*
X130881428Y-80718428D01*
X130881428Y-80718428D02*
X130738571Y-80718428D01*
X129595715Y-81718428D02*
X129595715Y-80932714D01*
X129595715Y-80932714D02*
X129667143Y-80789857D01*
X129667143Y-80789857D02*
X129810000Y-80718428D01*
X129810000Y-80718428D02*
X130095715Y-80718428D01*
X130095715Y-80718428D02*
X130238572Y-80789857D01*
X129595715Y-81647000D02*
X129738572Y-81718428D01*
X129738572Y-81718428D02*
X130095715Y-81718428D01*
X130095715Y-81718428D02*
X130238572Y-81647000D01*
X130238572Y-81647000D02*
X130310000Y-81504142D01*
X130310000Y-81504142D02*
X130310000Y-81361285D01*
X130310000Y-81361285D02*
X130238572Y-81218428D01*
X130238572Y-81218428D02*
X130095715Y-81147000D01*
X130095715Y-81147000D02*
X129738572Y-81147000D01*
X129738572Y-81147000D02*
X129595715Y-81075571D01*
X129024286Y-80718428D02*
X128238572Y-80718428D01*
X128238572Y-80718428D02*
X129024286Y-81718428D01*
X129024286Y-81718428D02*
X128238572Y-81718428D01*
X125667143Y-81718428D02*
X126167143Y-81004142D01*
X126524286Y-81718428D02*
X126524286Y-80218428D01*
X126524286Y-80218428D02*
X125952857Y-80218428D01*
X125952857Y-80218428D02*
X125810000Y-80289857D01*
X125810000Y-80289857D02*
X125738571Y-80361285D01*
X125738571Y-80361285D02*
X125667143Y-80504142D01*
X125667143Y-80504142D02*
X125667143Y-80718428D01*
X125667143Y-80718428D02*
X125738571Y-80861285D01*
X125738571Y-80861285D02*
X125810000Y-80932714D01*
X125810000Y-80932714D02*
X125952857Y-81004142D01*
X125952857Y-81004142D02*
X126524286Y-81004142D01*
X125024286Y-81575571D02*
X124952857Y-81647000D01*
X124952857Y-81647000D02*
X125024286Y-81718428D01*
X125024286Y-81718428D02*
X125095714Y-81647000D01*
X125095714Y-81647000D02*
X125024286Y-81575571D01*
X125024286Y-81575571D02*
X125024286Y-81718428D01*
M02*
