%TF.GenerationSoftware,KiCad,Pcbnew,9.0.7*%
%TF.CreationDate,2026-07-17T23:43:54-07:00*%
%TF.ProjectId,PowerStage,506f7765-7253-4746-9167-652e6b696361,rev?*%
%TF.SameCoordinates,Original*%
%TF.FileFunction,Copper,L1,Top*%
%TF.FilePolarity,Positive*%
%FSLAX46Y46*%
G04 Gerber Fmt 4.6, Leading zero omitted, Abs format (unit mm)*
G04 Created by KiCad (PCBNEW 9.0.7) date 2026-07-17 23:43:54*
%MOMM*%
%LPD*%
G01*
G04 APERTURE LIST*
G04 Aperture macros list*
%AMRoundRect*
0 Rectangle with rounded corners*
0 $1 Rounding radius*
0 $2 $3 $4 $5 $6 $7 $8 $9 X,Y pos of 4 corners*
0 Add a 4 corners polygon primitive as box body*
4,1,4,$2,$3,$4,$5,$6,$7,$8,$9,$2,$3,0*
0 Add four circle primitives for the rounded corners*
1,1,$1+$1,$2,$3*
1,1,$1+$1,$4,$5*
1,1,$1+$1,$6,$7*
1,1,$1+$1,$8,$9*
0 Add four rect primitives between the rounded corners*
20,1,$1+$1,$2,$3,$4,$5,0*
20,1,$1+$1,$4,$5,$6,$7,0*
20,1,$1+$1,$6,$7,$8,$9,0*
20,1,$1+$1,$8,$9,$2,$3,0*%
G04 Aperture macros list end*
%TA.AperFunction,ComponentPad*%
%ADD10RoundRect,0.250001X1.099999X1.099999X-1.099999X1.099999X-1.099999X-1.099999X1.099999X-1.099999X0*%
%TD*%
%TA.AperFunction,ComponentPad*%
%ADD11C,2.700000*%
%TD*%
%TA.AperFunction,ComponentPad*%
%ADD12R,2.000000X1.905000*%
%TD*%
%TA.AperFunction,ComponentPad*%
%ADD13O,2.000000X1.905000*%
%TD*%
%TA.AperFunction,ComponentPad*%
%ADD14RoundRect,0.250000X-0.550000X-0.550000X0.550000X-0.550000X0.550000X0.550000X-0.550000X0.550000X0*%
%TD*%
%TA.AperFunction,ComponentPad*%
%ADD15C,1.600000*%
%TD*%
%TA.AperFunction,ComponentPad*%
%ADD16RoundRect,0.250000X0.600000X0.725000X-0.600000X0.725000X-0.600000X-0.725000X0.600000X-0.725000X0*%
%TD*%
%TA.AperFunction,ComponentPad*%
%ADD17O,1.700000X1.950000*%
%TD*%
%TA.AperFunction,ComponentPad*%
%ADD18C,2.800000*%
%TD*%
%TA.AperFunction,ComponentPad*%
%ADD19RoundRect,0.249999X0.850001X0.850001X-0.850001X0.850001X-0.850001X-0.850001X0.850001X-0.850001X0*%
%TD*%
%TA.AperFunction,ComponentPad*%
%ADD20C,2.200000*%
%TD*%
%TA.AperFunction,ComponentPad*%
%ADD21RoundRect,0.250001X-0.949999X-0.949999X0.949999X-0.949999X0.949999X0.949999X-0.949999X0.949999X0*%
%TD*%
%TA.AperFunction,ComponentPad*%
%ADD22C,2.400000*%
%TD*%
%TA.AperFunction,SMDPad,CuDef*%
%ADD23R,2.900000X5.400000*%
%TD*%
%TA.AperFunction,SMDPad,CuDef*%
%ADD24R,1.000000X1.500000*%
%TD*%
%TA.AperFunction,ComponentPad*%
%ADD25RoundRect,0.250000X0.600000X0.750000X-0.600000X0.750000X-0.600000X-0.750000X0.600000X-0.750000X0*%
%TD*%
%TA.AperFunction,ComponentPad*%
%ADD26O,1.700000X2.000000*%
%TD*%
%TA.AperFunction,ComponentPad*%
%ADD27RoundRect,0.249999X-0.850001X-0.850001X0.850001X-0.850001X0.850001X0.850001X-0.850001X0.850001X0*%
%TD*%
%TA.AperFunction,ComponentPad*%
%ADD28C,0.800000*%
%TD*%
%TA.AperFunction,ComponentPad*%
%ADD29C,6.400000*%
%TD*%
%TA.AperFunction,ComponentPad*%
%ADD30RoundRect,0.250000X0.550000X0.550000X-0.550000X0.550000X-0.550000X-0.550000X0.550000X-0.550000X0*%
%TD*%
%TA.AperFunction,ViaPad*%
%ADD31C,0.600000*%
%TD*%
%TA.AperFunction,Conductor*%
%ADD32C,0.800000*%
%TD*%
%TA.AperFunction,Conductor*%
%ADD33C,1.000000*%
%TD*%
%TA.AperFunction,Conductor*%
%ADD34C,1.200000*%
%TD*%
%TA.AperFunction,Conductor*%
%ADD35C,0.200000*%
%TD*%
%TA.AperFunction,Conductor*%
%ADD36C,1.250000*%
%TD*%
%TA.AperFunction,Conductor*%
%ADD37C,0.600000*%
%TD*%
G04 APERTURE END LIST*
D10*
%TO.P,GNDPWR,1,Pin_1*%
%TO.N,VDC*%
X122555000Y-83710000D03*
D11*
%TO.P,GNDPWR,2,Pin_2*%
%TO.N,GNDPWR*%
X118595000Y-83710000D03*
%TD*%
D12*
%TO.P,Q4,1,D*%
%TO.N,Net-(Q3-S)*%
X187325000Y-107950000D03*
D13*
%TO.P,Q4,2,G*%
%TO.N,Net-(D5-A)*%
X187325000Y-110490000D03*
%TO.P,Q4,3,S*%
%TO.N,GNDPWR*%
X187325000Y-113030000D03*
%TD*%
D14*
%TO.P,C10,1*%
%TO.N,+12V*%
X234855000Y-92710000D03*
D15*
%TO.P,C10,2*%
%TO.N,GND*%
X236855000Y-92710000D03*
%TD*%
D12*
%TO.P,Q1,1,D*%
%TO.N,VDC*%
X101920000Y-92075000D03*
D13*
%TO.P,Q1,2,G*%
%TO.N,Net-(D2-A)*%
X101920000Y-94615000D03*
%TO.P,Q1,3,S*%
%TO.N,Net-(Q1-S)*%
X101920000Y-97155000D03*
%TD*%
D16*
%TO.P,PWM GND !PWM,1,Pin_1*%
%TO.N,!PWM*%
X146605000Y-127000000D03*
D17*
%TO.P,PWM GND !PWM,2,Pin_2*%
%TO.N,GND*%
X144105000Y-127000000D03*
%TO.P,PWM GND !PWM,3,Pin_3*%
%TO.N,PWM*%
X141605000Y-127000000D03*
%TD*%
D15*
%TO.P,R3,1*%
%TO.N,Net-(D4-A)*%
X200660000Y-102870000D03*
%TO.P,R3,2*%
%TO.N,Net-(D4-K)*%
X208280000Y-102870000D03*
%TD*%
%TO.P,R2,1*%
%TO.N,Net-(D3-K)*%
X85725000Y-118745000D03*
%TO.P,R2,2*%
%TO.N,Net-(D3-A)*%
X93345000Y-118745000D03*
%TD*%
D18*
%TO.P,TP4,1,1*%
%TO.N,GNDPWR*%
X129540000Y-78740000D03*
%TD*%
D19*
%TO.P,D5,1,K*%
%TO.N,Net-(D5-K)*%
X210185000Y-113665000D03*
D20*
%TO.P,D5,2,A*%
%TO.N,Net-(D5-A)*%
X200025000Y-113665000D03*
%TD*%
D21*
%TO.P,C3,1*%
%TO.N,VDC*%
X186770000Y-79375000D03*
D22*
%TO.P,C3,2*%
%TO.N,GNDPWR*%
X191770000Y-79375000D03*
%TD*%
D18*
%TO.P,TP3,1,1*%
%TO.N,Net-(D3-A)*%
X117475000Y-109855000D03*
%TD*%
D23*
%TO.P,L1,1,1*%
%TO.N,Net-(C4-Pad1)*%
X116970000Y-100965000D03*
%TO.P,L1,2,2*%
%TO.N,Net-(Q1-S)*%
X126870000Y-100965000D03*
%TD*%
D14*
%TO.P,C9,1*%
%TO.N,Net-(D6-K)*%
X229775000Y-100965000D03*
D15*
%TO.P,C9,2*%
%TO.N,Net-(Q3-S)*%
X231775000Y-100965000D03*
%TD*%
%TO.P,R4,1*%
%TO.N,Net-(D5-A)*%
X200660000Y-118745000D03*
%TO.P,R4,2*%
%TO.N,Net-(D5-K)*%
X208280000Y-118745000D03*
%TD*%
D12*
%TO.P,Q2,1,D*%
%TO.N,Net-(Q1-S)*%
X101920000Y-107315000D03*
D13*
%TO.P,Q2,2,G*%
%TO.N,Net-(D3-A)*%
X101920000Y-109855000D03*
%TO.P,Q2,3,S*%
%TO.N,GNDPWR*%
X101920000Y-112395000D03*
%TD*%
D22*
%TO.P,C6,1*%
%TO.N,Net-(C4-Pad1)*%
X133530000Y-113665000D03*
%TO.P,C6,2*%
%TO.N,Net-(C4-Pad2)*%
X156030000Y-113665000D03*
%TD*%
D24*
%TO.P,ON/OFF,1,A*%
%TO.N,Net-(JP2-A)*%
X56485000Y-119380000D03*
%TO.P,ON/OFF,2,B*%
%TO.N,GND*%
X57785000Y-119380000D03*
%TD*%
D12*
%TO.P,Q3,1,D*%
%TO.N,VDC*%
X187645000Y-92075000D03*
D13*
%TO.P,Q3,2,G*%
%TO.N,Net-(D4-A)*%
X187645000Y-94615000D03*
%TO.P,Q3,3,S*%
%TO.N,Net-(Q3-S)*%
X187645000Y-97155000D03*
%TD*%
D24*
%TO.P,JP1,1,A*%
%TO.N,Net-(JP1-A)*%
X242540000Y-91440000D03*
%TO.P,JP1,2,B*%
%TO.N,GND*%
X243840000Y-91440000D03*
%TD*%
D14*
%TO.P,C1,1*%
%TO.N,GND*%
X56194888Y-90805000D03*
D15*
%TO.P,C1,2*%
%TO.N,+12V*%
X58194888Y-90805000D03*
%TD*%
D25*
%TO.P,GND 12V,1,Pin_1*%
%TO.N,+12V*%
X127000000Y-127000000D03*
D26*
%TO.P,GND 12V,2,Pin_2*%
%TO.N,GND*%
X124500000Y-127000000D03*
%TD*%
D27*
%TO.P,D3,1,K*%
%TO.N,Net-(D3-K)*%
X84455000Y-113030000D03*
D20*
%TO.P,D3,2,A*%
%TO.N,Net-(D3-A)*%
X94615000Y-113030000D03*
%TD*%
D18*
%TO.P,TP5,1,1*%
%TO.N,Net-(D4-A)*%
X173990000Y-85725000D03*
%TD*%
D27*
%TO.P,D2,1,K*%
%TO.N,Net-(D2-K)*%
X83185000Y-97155000D03*
D20*
%TO.P,D2,2,A*%
%TO.N,Net-(D2-A)*%
X93345000Y-97155000D03*
%TD*%
D15*
%TO.P,R5,1*%
%TO.N,Net-(JP1-A)*%
X228600000Y-94615000D03*
%TO.P,R5,2*%
%TO.N,+12V*%
X220980000Y-94615000D03*
%TD*%
%TO.P,R1,1*%
%TO.N,Net-(D2-K)*%
X85090000Y-102870000D03*
%TO.P,R1,2*%
%TO.N,Net-(D2-A)*%
X92710000Y-102870000D03*
%TD*%
D19*
%TO.P,D1,1,K*%
%TO.N,Net-(D1-K)*%
X78105000Y-109220000D03*
D20*
%TO.P,D1,2,A*%
%TO.N,+12V*%
X67945000Y-109220000D03*
%TD*%
D18*
%TO.P,TP2,1,1*%
%TO.N,Net-(Q1-S)*%
X84455000Y-89535000D03*
%TD*%
%TO.P,TP8,1,1*%
%TO.N,GNDPWR*%
X216535000Y-80010000D03*
%TD*%
D28*
%TO.P,H3,1*%
%TO.N,N/C*%
X246520000Y-127635000D03*
X247222944Y-125937944D03*
X247222944Y-129332056D03*
X248920000Y-125235000D03*
D29*
X248920000Y-127635000D03*
D28*
X248920000Y-130035000D03*
X250617056Y-125937944D03*
X250617056Y-129332056D03*
X251320000Y-127635000D03*
%TD*%
D15*
%TO.P,C11,1*%
%TO.N,VDC*%
X182860000Y-88265000D03*
%TO.P,C11,2*%
%TO.N,GNDPWR*%
X180360000Y-88265000D03*
%TD*%
D18*
%TO.P,TP9,1,1*%
%TO.N,GND*%
X226060000Y-73025000D03*
%TD*%
D30*
%TO.P,U1,1,LO*%
%TO.N,Net-(D3-K)*%
X61055000Y-112665000D03*
D15*
%TO.P,U1,2,COM*%
%TO.N,GNDPWR*%
X61055000Y-110125000D03*
%TO.P,U1,3,VCC*%
%TO.N,+12V*%
X61055000Y-107585000D03*
%TO.P,U1,4,NC*%
%TO.N,unconnected-(U1-NC-Pad4)*%
X61055000Y-105045000D03*
%TO.P,U1,5,VS*%
%TO.N,Net-(Q1-S)*%
X61055000Y-102505000D03*
%TO.P,U1,6,VB*%
%TO.N,Net-(D1-K)*%
X61055000Y-99965000D03*
%TO.P,U1,7,HO*%
%TO.N,Net-(D2-K)*%
X61055000Y-97425000D03*
%TO.P,U1,8,NC*%
%TO.N,unconnected-(U1-NC-Pad8)*%
X53435000Y-97425000D03*
%TO.P,U1,9,VDD*%
%TO.N,+12V*%
X53435000Y-99965000D03*
%TO.P,U1,10,HIN*%
%TO.N,PWM*%
X53435000Y-102505000D03*
%TO.P,U1,11,SD*%
%TO.N,Net-(JP2-A)*%
X53435000Y-105045000D03*
%TO.P,U1,12,LIN*%
%TO.N,!PWM*%
X53435000Y-107585000D03*
%TO.P,U1,13,VSS*%
%TO.N,GND*%
X53435000Y-110125000D03*
%TO.P,U1,14,NC*%
%TO.N,unconnected-(U1-NC-Pad14)*%
X53435000Y-112665000D03*
%TD*%
D21*
%TO.P,C2,1*%
%TO.N,VDC*%
X101816041Y-79375000D03*
D22*
%TO.P,C2,2*%
%TO.N,GNDPWR*%
X106816041Y-79375000D03*
%TD*%
D18*
%TO.P,TP7,1,1*%
%TO.N,Net-(D5-A)*%
X205105000Y-90170000D03*
%TD*%
%TO.P,TP6,1,1*%
%TO.N,Net-(Q3-S)*%
X163830000Y-85725000D03*
%TD*%
%TO.P,TP1,1,1*%
%TO.N,Net-(D2-A)*%
X88900000Y-84455000D03*
%TD*%
D23*
%TO.P,L2,1,1*%
%TO.N,Net-(C4-Pad2)*%
X165230000Y-100330000D03*
%TO.P,L2,2,2*%
%TO.N,Net-(Q3-S)*%
X175130000Y-100330000D03*
%TD*%
D22*
%TO.P,C4,1*%
%TO.N,Net-(C4-Pad1)*%
X133710000Y-86995000D03*
%TO.P,C4,2*%
%TO.N,Net-(C4-Pad2)*%
X156210000Y-86995000D03*
%TD*%
D28*
%TO.P,H2,1*%
%TO.N,N/C*%
X52845000Y-78740000D03*
X53547944Y-77042944D03*
X53547944Y-80437056D03*
X55245000Y-76340000D03*
D29*
X55245000Y-78740000D03*
D28*
X55245000Y-81140000D03*
X56942056Y-77042944D03*
X56942056Y-80437056D03*
X57645000Y-78740000D03*
%TD*%
D15*
%TO.P,R6,1*%
%TO.N,Net-(JP2-A)*%
X64770000Y-91440000D03*
%TO.P,R6,2*%
%TO.N,+12V*%
X72390000Y-91440000D03*
%TD*%
D14*
%TO.P,C8,1*%
%TO.N,+12V*%
X68682349Y-116840000D03*
D15*
%TO.P,C8,2*%
%TO.N,GNDPWR*%
X72482349Y-116840000D03*
%TD*%
%TO.P,C7,1*%
%TO.N,VDC*%
X97790000Y-87630000D03*
%TO.P,C7,2*%
%TO.N,GNDPWR*%
X95290000Y-87630000D03*
%TD*%
D19*
%TO.P,D6,1,K*%
%TO.N,Net-(D6-K)*%
X228600000Y-109855000D03*
D20*
%TO.P,D6,2,A*%
%TO.N,+12V*%
X218440000Y-109855000D03*
%TD*%
D28*
%TO.P,H4,1*%
%TO.N,N/C*%
X51715000Y-128270000D03*
X52417944Y-126572944D03*
X52417944Y-129967056D03*
X54115000Y-125870000D03*
D29*
X54115000Y-128270000D03*
D28*
X54115000Y-130670000D03*
X55812056Y-126572944D03*
X55812056Y-129967056D03*
X56515000Y-128270000D03*
%TD*%
D30*
%TO.P,C5,1*%
%TO.N,Net-(D1-K)*%
X69945000Y-100330000D03*
D15*
%TO.P,C5,2*%
%TO.N,Net-(Q1-S)*%
X67945000Y-100330000D03*
%TD*%
D19*
%TO.P,D4,1,K*%
%TO.N,Net-(D4-K)*%
X210185000Y-97790000D03*
D20*
%TO.P,D4,2,A*%
%TO.N,Net-(D4-A)*%
X200025000Y-97790000D03*
%TD*%
D14*
%TO.P,U2,1,LO*%
%TO.N,Net-(D5-K)*%
X239395000Y-98425000D03*
D15*
%TO.P,U2,2,COM*%
%TO.N,GNDPWR*%
X239395000Y-100965000D03*
%TO.P,U2,3,VCC*%
%TO.N,+12V*%
X239395000Y-103505000D03*
%TO.P,U2,4,NC*%
%TO.N,unconnected-(U2-NC-Pad4)*%
X239395000Y-106045000D03*
%TO.P,U2,5,VS*%
%TO.N,Net-(Q3-S)*%
X239395000Y-108585000D03*
%TO.P,U2,6,VB*%
%TO.N,Net-(D6-K)*%
X239395000Y-111125000D03*
%TO.P,U2,7,HO*%
%TO.N,Net-(D4-K)*%
X239395000Y-113665000D03*
%TO.P,U2,8,NC*%
%TO.N,unconnected-(U2-NC-Pad8)*%
X247015000Y-113665000D03*
%TO.P,U2,9,VDD*%
%TO.N,+12V*%
X247015000Y-111125000D03*
%TO.P,U2,10,HIN*%
%TO.N,!PWM*%
X247015000Y-108585000D03*
%TO.P,U2,11,SD*%
%TO.N,Net-(JP1-A)*%
X247015000Y-106045000D03*
%TO.P,U2,12,LIN*%
%TO.N,PWM*%
X247015000Y-103505000D03*
%TO.P,U2,13,VSS*%
%TO.N,GND*%
X247015000Y-100965000D03*
%TO.P,U2,14,NC*%
%TO.N,unconnected-(U2-NC-Pad14)*%
X247015000Y-98425000D03*
%TD*%
D10*
%TO.P,LS1,1,1*%
%TO.N,Net-(C4-Pad2)*%
X146537500Y-100880000D03*
D11*
%TO.P,LS1,2,2*%
%TO.N,Net-(C4-Pad1)*%
X142577500Y-100880000D03*
%TD*%
D28*
%TO.P,H1,1*%
%TO.N,N/C*%
X246520000Y-80010000D03*
X247222944Y-78312944D03*
X247222944Y-81707056D03*
X248920000Y-77610000D03*
D29*
X248920000Y-80010000D03*
D28*
X248920000Y-82410000D03*
X250617056Y-78312944D03*
X250617056Y-81707056D03*
X251320000Y-80010000D03*
%TD*%
D31*
%TO.N,GND*%
X57785000Y-119380000D03*
X243840000Y-91440000D03*
%TD*%
D32*
%TO.N,Net-(C4-Pad1)*%
X133530000Y-100785000D02*
X133710000Y-100605000D01*
X133530000Y-101600000D02*
X133530000Y-100785000D01*
D33*
%TO.N,Net-(Q1-S)*%
X126413951Y-99864000D02*
X126091475Y-100186476D01*
X126413951Y-97838951D02*
X126413951Y-99864000D01*
X123190000Y-94615000D02*
X126413951Y-97838951D01*
X101920000Y-102235000D02*
X109540000Y-94615000D01*
X109540000Y-94615000D02*
X123190000Y-94615000D01*
D34*
%TO.N,Net-(C4-Pad1)*%
X116970000Y-100965000D02*
X122685000Y-106680000D01*
X122685000Y-106680000D02*
X128450000Y-106680000D01*
X128450000Y-106680000D02*
X133530000Y-101600000D01*
D32*
X133530000Y-113665000D02*
X133530000Y-101600000D01*
%TO.N,Net-(Q1-S)*%
X86360000Y-106680000D02*
X89535000Y-106680000D01*
X77470000Y-113030000D02*
X80010000Y-113030000D01*
X66945000Y-102505000D02*
X77470000Y-113030000D01*
X61055000Y-102505000D02*
X66945000Y-102505000D01*
X80010000Y-113030000D02*
X86360000Y-106680000D01*
%TO.N,Net-(D5-A)*%
X205740000Y-90805000D02*
X205105000Y-90170000D01*
X205740000Y-104775000D02*
X205740000Y-90805000D01*
X198437500Y-112077500D02*
X205740000Y-104775000D01*
%TO.N,Net-(D3-A)*%
X101920000Y-109855000D02*
X117475000Y-109855000D01*
%TO.N,VDC*%
X101920000Y-92075000D02*
X101600000Y-92075000D01*
X101920000Y-79478959D02*
X101816041Y-79375000D01*
X101920000Y-92075000D02*
X101920000Y-91760000D01*
%TO.N,Net-(C4-Pad2)*%
X156030000Y-100425000D02*
X156210000Y-100245000D01*
X156030000Y-113665000D02*
X156210000Y-113665000D01*
X156210000Y-100245000D02*
X156295000Y-100330000D01*
X156030000Y-113665000D02*
X156030000Y-113210000D01*
X156295000Y-100330000D02*
X156295000Y-101335000D01*
X156295000Y-100330000D02*
X165230000Y-100330000D01*
X146537500Y-100880000D02*
X155575000Y-100880000D01*
X156210000Y-86995000D02*
X156210000Y-100245000D01*
X156030000Y-101600000D02*
X156030000Y-100425000D01*
X156030000Y-113665000D02*
X156030000Y-101600000D01*
X156210000Y-100245000D02*
X155575000Y-100880000D01*
X156295000Y-101335000D02*
X156030000Y-101600000D01*
X156030000Y-113210000D02*
X156210000Y-113030000D01*
%TO.N,Net-(Q1-S)*%
X126870000Y-100965000D02*
X127000000Y-100965000D01*
X127000000Y-100965000D02*
X127085000Y-100880000D01*
%TO.N,Net-(C4-Pad1)*%
X133710000Y-100605000D02*
X133985000Y-100880000D01*
X133530000Y-101600000D02*
X133530000Y-101335000D01*
X133710000Y-86995000D02*
X133710000Y-100605000D01*
X133985000Y-100880000D02*
X142577500Y-100880000D01*
X133530000Y-101335000D02*
X133985000Y-100880000D01*
%TO.N,Net-(Q1-S)*%
X89535000Y-94615000D02*
X84455000Y-89535000D01*
D33*
X101920000Y-97155000D02*
X101920000Y-102235000D01*
D32*
X67945000Y-100330000D02*
X65770000Y-102505000D01*
X97475000Y-106680000D02*
X89535000Y-106680000D01*
X101920000Y-102235000D02*
X97475000Y-106680000D01*
D35*
X67989888Y-99965000D02*
X68259888Y-99695000D01*
D32*
X65770000Y-102505000D02*
X61055000Y-102505000D01*
X89535000Y-106680000D02*
X89535000Y-94615000D01*
D33*
X101920000Y-102235000D02*
X101920000Y-107315000D01*
D32*
%TO.N,Net-(D1-K)*%
X69945000Y-99155000D02*
X69215000Y-98425000D01*
X78105000Y-108490000D02*
X69945000Y-100330000D01*
X64135000Y-98425000D02*
X62595000Y-99965000D01*
X69945000Y-100330000D02*
X69945000Y-99155000D01*
X69215000Y-98425000D02*
X64135000Y-98425000D01*
X78105000Y-109220000D02*
X78105000Y-108490000D01*
X62595000Y-99965000D02*
X61055000Y-99965000D01*
%TO.N,Net-(D6-K)*%
X228600000Y-109855000D02*
X229870000Y-109855000D01*
X228600000Y-102140000D02*
X229775000Y-100965000D01*
X231140000Y-111125000D02*
X239395000Y-111125000D01*
X228600000Y-109855000D02*
X228600000Y-102140000D01*
X229870000Y-109855000D02*
X231140000Y-111125000D01*
%TO.N,Net-(Q3-S)*%
X231775000Y-107950000D02*
X232410000Y-108585000D01*
X231775000Y-100965000D02*
X231775000Y-107950000D01*
X187325000Y-102235000D02*
X187325000Y-97475000D01*
X187325000Y-102235000D02*
X185420000Y-100330000D01*
X187325000Y-97475000D02*
X187645000Y-97155000D01*
X175130000Y-97025000D02*
X163830000Y-85725000D01*
X232410000Y-108585000D02*
X239395000Y-108585000D01*
X187325000Y-107950000D02*
X187325000Y-102235000D01*
X175130000Y-100330000D02*
X175130000Y-97025000D01*
X185420000Y-100330000D02*
X175130000Y-100330000D01*
%TO.N,Net-(D2-A)*%
X93345000Y-90805000D02*
X89535000Y-86995000D01*
X89535000Y-85090000D02*
X88900000Y-84455000D01*
X95885000Y-94615000D02*
X101920000Y-94615000D01*
X92710000Y-97790000D02*
X93345000Y-97155000D01*
X93345000Y-97155000D02*
X95885000Y-94615000D01*
X89535000Y-86995000D02*
X89535000Y-85090000D01*
X92710000Y-102870000D02*
X92710000Y-97790000D01*
X93345000Y-97155000D02*
X93345000Y-90805000D01*
%TO.N,Net-(D2-K)*%
X82550000Y-96520000D02*
X83185000Y-97155000D01*
X85090000Y-102870000D02*
X85090000Y-99060000D01*
X61960000Y-96520000D02*
X82550000Y-96520000D01*
X61055000Y-97425000D02*
X61960000Y-96520000D01*
X85090000Y-99060000D02*
X83185000Y-97155000D01*
%TO.N,Net-(D3-K)*%
X68405000Y-120015000D02*
X77470000Y-120015000D01*
X85725000Y-118745000D02*
X85725000Y-114300000D01*
X85725000Y-114300000D02*
X84455000Y-113030000D01*
X61055000Y-112665000D02*
X68405000Y-120015000D01*
X77470000Y-120015000D02*
X84455000Y-113030000D01*
%TO.N,Net-(D3-A)*%
X97790000Y-109855000D02*
X101920000Y-109855000D01*
X93345000Y-114300000D02*
X94615000Y-113030000D01*
X94615000Y-113030000D02*
X97790000Y-109855000D01*
X93345000Y-118745000D02*
X93345000Y-114300000D01*
%TO.N,Net-(D4-A)*%
X196850000Y-94615000D02*
X187645000Y-94615000D01*
X200660000Y-98425000D02*
X200025000Y-97790000D01*
X200660000Y-102870000D02*
X200660000Y-98425000D01*
X200025000Y-97790000D02*
X196850000Y-94615000D01*
X187645000Y-94615000D02*
X182880000Y-94615000D01*
X182880000Y-94615000D02*
X173990000Y-85725000D01*
%TO.N,Net-(D4-K)*%
X217805000Y-113665000D02*
X212090000Y-107950000D01*
X212090000Y-99695000D02*
X210185000Y-97790000D01*
X239395000Y-113665000D02*
X217805000Y-113665000D01*
X208280000Y-102870000D02*
X208280000Y-99695000D01*
X212090000Y-107950000D02*
X212090000Y-99695000D01*
X208280000Y-99695000D02*
X210185000Y-97790000D01*
%TO.N,Net-(D5-A)*%
X200025000Y-113665000D02*
X198437500Y-112077500D01*
X198437500Y-112077500D02*
X196850000Y-110490000D01*
X200660000Y-118745000D02*
X200660000Y-114300000D01*
X200660000Y-114300000D02*
X200025000Y-113665000D01*
X196850000Y-110490000D02*
X187325000Y-110490000D01*
%TO.N,Net-(D5-K)*%
X211586000Y-115066000D02*
X210185000Y-113665000D01*
X242570000Y-101600000D02*
X242570000Y-112471314D01*
X208280000Y-115570000D02*
X210185000Y-113665000D01*
X242570000Y-112471314D02*
X239975314Y-115066000D01*
X239975314Y-115066000D02*
X211586000Y-115066000D01*
X208280000Y-118745000D02*
X208280000Y-115570000D01*
X239395000Y-98425000D02*
X242570000Y-101600000D01*
D35*
%TO.N,!PWM*%
X53265000Y-107755000D02*
X53435000Y-107585000D01*
D36*
X66675000Y-133350000D02*
X51435000Y-118110000D01*
X238760000Y-127000000D02*
X249555000Y-116205000D01*
X249555000Y-116205000D02*
X249555000Y-111125000D01*
X51435000Y-118110000D02*
X51435000Y-109585000D01*
D35*
X53435000Y-107585000D02*
X53435000Y-107410000D01*
D36*
X146605000Y-128350000D02*
X141605000Y-133350000D01*
X51435000Y-109585000D02*
X53435000Y-107585000D01*
X141605000Y-133350000D02*
X66675000Y-133350000D01*
X249555000Y-111125000D02*
X247015000Y-108585000D01*
X146605000Y-127000000D02*
X238760000Y-127000000D01*
D35*
X53435000Y-107410000D02*
X53340000Y-107315000D01*
D36*
X146605000Y-127000000D02*
X146605000Y-128350000D01*
%TO.N,PWM*%
X141605000Y-127000000D02*
X138430000Y-130175000D01*
X244475000Y-116205000D02*
X244475000Y-106045000D01*
X58420000Y-107315000D02*
X53610000Y-102505000D01*
X146050000Y-122555000D02*
X238125000Y-122555000D01*
X138430000Y-130175000D02*
X72573000Y-130175000D01*
X141605000Y-127000000D02*
X146050000Y-122555000D01*
D35*
X53185000Y-102755000D02*
X53435000Y-102505000D01*
D36*
X238125000Y-122555000D02*
X244475000Y-116205000D01*
X244475000Y-106045000D02*
X247015000Y-103505000D01*
X72573000Y-130175000D02*
X58420000Y-116022000D01*
X58420000Y-116022000D02*
X58420000Y-107315000D01*
X53610000Y-102505000D02*
X53435000Y-102505000D01*
D32*
%TO.N,Net-(JP2-A)*%
X56515000Y-119380000D02*
X56515000Y-108125000D01*
X56485000Y-119380000D02*
X56515000Y-119380000D01*
D37*
X62865000Y-93345000D02*
X50800000Y-93345000D01*
X50800000Y-93345000D02*
X50800000Y-102410000D01*
X64770000Y-91440000D02*
X62865000Y-93345000D01*
X50800000Y-102410000D02*
X53435000Y-105045000D01*
D32*
X56515000Y-108125000D02*
X53435000Y-105045000D01*
%TO.N,Net-(JP1-A)*%
X244475000Y-94615000D02*
X245110000Y-95250000D01*
X228600000Y-94615000D02*
X244475000Y-94615000D01*
X245110000Y-95250000D02*
X249555000Y-95250000D01*
X242540000Y-92680000D02*
X245110000Y-95250000D01*
X249555000Y-103505000D02*
X247015000Y-106045000D01*
X249555000Y-95250000D02*
X249555000Y-103505000D01*
X242540000Y-91440000D02*
X242540000Y-92680000D01*
%TD*%
%TA.AperFunction,Conductor*%
%TO.N,+12V*%
G36*
X251481686Y-69883677D02*
G01*
X251803765Y-69985227D01*
X251813911Y-69988920D01*
X252166578Y-70135000D01*
X252176369Y-70139566D01*
X252514942Y-70315816D01*
X252524309Y-70321223D01*
X252826164Y-70513526D01*
X252846244Y-70526318D01*
X252855101Y-70532520D01*
X253157929Y-70764888D01*
X253166204Y-70771831D01*
X253324775Y-70917134D01*
X253360901Y-70976935D01*
X253365000Y-71008554D01*
X253365000Y-133883325D01*
X253345315Y-133950364D01*
X253292511Y-133996119D01*
X253241389Y-134007324D01*
X142491946Y-134354500D01*
X142424845Y-134335026D01*
X142378925Y-134282366D01*
X142368764Y-134213239D01*
X142397590Y-134149592D01*
X142403864Y-134142832D01*
X142463483Y-134083214D01*
X142522042Y-134024655D01*
X142522055Y-134024640D01*
X147463484Y-129083214D01*
X147567614Y-128939890D01*
X147648042Y-128782042D01*
X147702786Y-128613556D01*
X147724652Y-128475499D01*
X147730500Y-128438579D01*
X147730500Y-128309729D01*
X147730601Y-128307228D01*
X147741020Y-128276402D01*
X147750185Y-128245191D01*
X147752570Y-128242230D01*
X147752974Y-128241037D01*
X147754539Y-128239787D01*
X147766819Y-128224549D01*
X147773023Y-128218345D01*
X147797712Y-128193656D01*
X147803420Y-128184402D01*
X147855368Y-128137678D01*
X147908958Y-128125500D01*
X238848578Y-128125500D01*
X238848579Y-128125500D01*
X239023556Y-128097786D01*
X239192042Y-128043042D01*
X239218046Y-128029792D01*
X239349890Y-127962614D01*
X239493214Y-127858483D01*
X239618483Y-127733214D01*
X239898491Y-127453206D01*
X245219500Y-127453206D01*
X245219500Y-127816794D01*
X245223541Y-127857820D01*
X245255137Y-128178630D01*
X245326064Y-128535212D01*
X245326067Y-128535223D01*
X245431614Y-128883165D01*
X245500512Y-129049500D01*
X245550517Y-129170223D01*
X245570754Y-129219078D01*
X245570756Y-129219083D01*
X245742140Y-129539720D01*
X245742151Y-129539738D01*
X245944140Y-129842035D01*
X245944150Y-129842049D01*
X246174807Y-130123106D01*
X246431893Y-130380192D01*
X246431898Y-130380196D01*
X246431899Y-130380197D01*
X246712956Y-130610854D01*
X247015268Y-130812853D01*
X247015277Y-130812858D01*
X247015279Y-130812859D01*
X247335916Y-130984243D01*
X247335918Y-130984243D01*
X247335924Y-130984247D01*
X247671836Y-131123386D01*
X248019767Y-131228930D01*
X248019773Y-131228931D01*
X248019776Y-131228932D01*
X248019787Y-131228935D01*
X248376369Y-131299862D01*
X248738206Y-131335500D01*
X248738209Y-131335500D01*
X249101791Y-131335500D01*
X249101794Y-131335500D01*
X249463631Y-131299862D01*
X249533045Y-131286054D01*
X249820212Y-131228935D01*
X249820223Y-131228932D01*
X249820223Y-131228931D01*
X249820233Y-131228930D01*
X250168164Y-131123386D01*
X250504076Y-130984247D01*
X250824732Y-130812853D01*
X251127044Y-130610854D01*
X251408101Y-130380197D01*
X251665197Y-130123101D01*
X251895854Y-129842044D01*
X252097853Y-129539732D01*
X252269247Y-129219076D01*
X252408386Y-128883164D01*
X252513930Y-128535233D01*
X252513932Y-128535223D01*
X252513935Y-128535212D01*
X252581873Y-128193656D01*
X252584862Y-128178631D01*
X252620500Y-127816794D01*
X252620500Y-127453206D01*
X252584862Y-127091369D01*
X252571031Y-127021834D01*
X252513935Y-126734787D01*
X252513932Y-126734776D01*
X252513931Y-126734773D01*
X252513930Y-126734767D01*
X252408386Y-126386836D01*
X252269247Y-126050924D01*
X252239050Y-125994430D01*
X252097859Y-125730279D01*
X252097858Y-125730277D01*
X252097853Y-125730268D01*
X251895854Y-125427956D01*
X251665197Y-125146899D01*
X251665196Y-125146898D01*
X251665192Y-125146893D01*
X251408106Y-124889807D01*
X251127049Y-124659150D01*
X251127048Y-124659149D01*
X251127044Y-124659146D01*
X250824732Y-124457147D01*
X250824727Y-124457144D01*
X250824720Y-124457140D01*
X250504083Y-124285756D01*
X250504078Y-124285754D01*
X250168165Y-124146614D01*
X249820223Y-124041067D01*
X249820212Y-124041064D01*
X249463630Y-123970137D01*
X249191111Y-123943296D01*
X249101794Y-123934500D01*
X248738206Y-123934500D01*
X248655679Y-123942628D01*
X248376369Y-123970137D01*
X248019787Y-124041064D01*
X248019776Y-124041067D01*
X247671834Y-124146614D01*
X247335921Y-124285754D01*
X247335916Y-124285756D01*
X247015279Y-124457140D01*
X247015261Y-124457151D01*
X246712964Y-124659140D01*
X246712950Y-124659150D01*
X246431893Y-124889807D01*
X246174807Y-125146893D01*
X245944150Y-125427950D01*
X245944140Y-125427964D01*
X245742151Y-125730261D01*
X245742140Y-125730279D01*
X245570756Y-126050916D01*
X245570754Y-126050921D01*
X245431614Y-126386834D01*
X245326067Y-126734776D01*
X245326064Y-126734787D01*
X245255137Y-127091369D01*
X245239514Y-127250000D01*
X245219500Y-127453206D01*
X239898491Y-127453206D01*
X250413483Y-116938214D01*
X250517613Y-116794891D01*
X250598042Y-116637043D01*
X250652786Y-116468556D01*
X250661513Y-116413453D01*
X250680500Y-116293579D01*
X250680500Y-111036421D01*
X250652786Y-110861445D01*
X250640771Y-110824464D01*
X250598042Y-110692957D01*
X250552896Y-110604354D01*
X250552896Y-110604353D01*
X250517615Y-110535111D01*
X250501971Y-110513580D01*
X250413483Y-110391786D01*
X250288214Y-110266517D01*
X248295534Y-108273837D01*
X248265284Y-108224474D01*
X248220221Y-108085783D01*
X248196227Y-108038692D01*
X248127287Y-107903390D01*
X248089630Y-107851559D01*
X248006971Y-107737786D01*
X247862213Y-107593028D01*
X247696614Y-107472715D01*
X247613970Y-107430606D01*
X247603917Y-107425483D01*
X247553123Y-107377511D01*
X247536328Y-107309690D01*
X247558865Y-107243555D01*
X247603917Y-107204516D01*
X247696610Y-107157287D01*
X247794773Y-107085968D01*
X247862213Y-107036971D01*
X247862215Y-107036968D01*
X247862219Y-107036966D01*
X248006966Y-106892219D01*
X248006968Y-106892215D01*
X248006971Y-106892213D01*
X248106536Y-106755171D01*
X248127287Y-106726610D01*
X248220220Y-106544219D01*
X248283477Y-106349534D01*
X248315500Y-106147352D01*
X248315500Y-106069361D01*
X248335185Y-106002322D01*
X248351819Y-105981680D01*
X250254461Y-104079038D01*
X250254463Y-104079036D01*
X250271837Y-104053034D01*
X250353013Y-103931547D01*
X250420894Y-103767666D01*
X250424288Y-103750606D01*
X250450807Y-103617284D01*
X250455500Y-103593691D01*
X250455500Y-95161309D01*
X250455500Y-95161306D01*
X250455499Y-95161304D01*
X250420896Y-94987341D01*
X250420893Y-94987332D01*
X250353016Y-94823459D01*
X250353009Y-94823446D01*
X250254464Y-94675965D01*
X250254461Y-94675961D01*
X250129038Y-94550538D01*
X250129034Y-94550535D01*
X249981553Y-94451990D01*
X249981540Y-94451983D01*
X249817667Y-94384106D01*
X249817658Y-94384103D01*
X249643694Y-94349500D01*
X249643691Y-94349500D01*
X245534362Y-94349500D01*
X245467323Y-94329815D01*
X245446681Y-94313181D01*
X244035680Y-92902180D01*
X244002195Y-92840857D01*
X244007179Y-92771165D01*
X244049051Y-92715232D01*
X244114515Y-92690815D01*
X244123361Y-92690499D01*
X244387871Y-92690499D01*
X244387872Y-92690499D01*
X244447483Y-92684091D01*
X244582331Y-92633796D01*
X244697546Y-92547546D01*
X244783796Y-92432331D01*
X244834091Y-92297483D01*
X244840500Y-92237873D01*
X244840499Y-90642128D01*
X244834091Y-90582517D01*
X244818815Y-90541561D01*
X244783797Y-90447671D01*
X244783793Y-90447664D01*
X244697547Y-90332455D01*
X244697544Y-90332452D01*
X244582335Y-90246206D01*
X244582328Y-90246202D01*
X244447482Y-90195908D01*
X244447483Y-90195908D01*
X244387883Y-90189501D01*
X244387881Y-90189500D01*
X244387873Y-90189500D01*
X244387864Y-90189500D01*
X243292129Y-90189500D01*
X243292123Y-90189501D01*
X243232520Y-90195908D01*
X243224974Y-90197692D01*
X243224628Y-90196230D01*
X243163622Y-90200584D01*
X243148600Y-90196172D01*
X243147482Y-90195908D01*
X243087883Y-90189501D01*
X243087881Y-90189500D01*
X243087873Y-90189500D01*
X243087864Y-90189500D01*
X241992129Y-90189500D01*
X241992123Y-90189501D01*
X241932516Y-90195908D01*
X241797671Y-90246202D01*
X241797664Y-90246206D01*
X241682455Y-90332452D01*
X241682452Y-90332455D01*
X241596206Y-90447664D01*
X241596202Y-90447671D01*
X241545908Y-90582517D01*
X241539501Y-90642116D01*
X241539501Y-90642123D01*
X241539500Y-90642135D01*
X241539500Y-92237870D01*
X241539501Y-92237876D01*
X241545908Y-92297483D01*
X241596203Y-92432329D01*
X241614766Y-92457126D01*
X241639184Y-92522590D01*
X241639500Y-92531438D01*
X241639500Y-92768696D01*
X241674103Y-92942658D01*
X241674105Y-92942666D01*
X241698006Y-93000368D01*
X241698008Y-93000372D01*
X241700315Y-93005941D01*
X241741987Y-93106547D01*
X241801063Y-93194959D01*
X241804481Y-93200075D01*
X241804484Y-93200080D01*
X241840534Y-93254034D01*
X242089319Y-93502819D01*
X242122804Y-93564142D01*
X242117820Y-93633834D01*
X242075948Y-93689767D01*
X242010484Y-93714184D01*
X242001638Y-93714500D01*
X237976059Y-93714500D01*
X237909020Y-93694815D01*
X237863265Y-93642011D01*
X237853321Y-93572853D01*
X237875740Y-93517615D01*
X237898786Y-93485893D01*
X237967287Y-93391610D01*
X238060220Y-93209219D01*
X238123477Y-93014534D01*
X238155500Y-92812352D01*
X238155500Y-92607648D01*
X238133250Y-92467167D01*
X238123477Y-92405465D01*
X238085056Y-92287219D01*
X238060220Y-92210781D01*
X238060218Y-92210778D01*
X238060218Y-92210776D01*
X238016167Y-92124322D01*
X237967287Y-92028390D01*
X237927409Y-91973502D01*
X237846971Y-91862786D01*
X237702213Y-91718028D01*
X237536613Y-91597715D01*
X237536612Y-91597714D01*
X237536610Y-91597713D01*
X237436333Y-91546619D01*
X237354223Y-91504781D01*
X237159534Y-91441522D01*
X236984995Y-91413878D01*
X236957352Y-91409500D01*
X236752648Y-91409500D01*
X236728329Y-91413351D01*
X236550465Y-91441522D01*
X236355776Y-91504781D01*
X236173391Y-91597712D01*
X236173389Y-91597713D01*
X236102676Y-91649088D01*
X236036869Y-91672567D01*
X235968815Y-91656740D01*
X235942111Y-91636450D01*
X235873345Y-91567684D01*
X235724124Y-91475643D01*
X235724119Y-91475641D01*
X235557697Y-91420494D01*
X235557690Y-91420493D01*
X235454986Y-91410000D01*
X235105000Y-91410000D01*
X235105000Y-92394314D01*
X235100606Y-92389920D01*
X235009394Y-92337259D01*
X234907661Y-92310000D01*
X234802339Y-92310000D01*
X234700606Y-92337259D01*
X234609394Y-92389920D01*
X234605000Y-92394314D01*
X234605000Y-91410000D01*
X234255028Y-91410000D01*
X234255012Y-91410001D01*
X234152302Y-91420494D01*
X233985880Y-91475641D01*
X233985875Y-91475643D01*
X233836654Y-91567684D01*
X233712684Y-91691654D01*
X233620643Y-91840875D01*
X233620641Y-91840880D01*
X233565494Y-92007302D01*
X233565493Y-92007309D01*
X233555000Y-92110013D01*
X233555000Y-92460000D01*
X234539314Y-92460000D01*
X234534920Y-92464394D01*
X234482259Y-92555606D01*
X234455000Y-92657339D01*
X234455000Y-92762661D01*
X234482259Y-92864394D01*
X234534920Y-92955606D01*
X234539314Y-92960000D01*
X233555001Y-92960000D01*
X233555001Y-93309986D01*
X233565494Y-93412697D01*
X233611488Y-93551496D01*
X233613890Y-93621324D01*
X233578158Y-93681366D01*
X233515638Y-93712559D01*
X233493782Y-93714500D01*
X229590047Y-93714500D01*
X229523008Y-93694815D01*
X229502366Y-93678181D01*
X229447213Y-93623028D01*
X229281613Y-93502715D01*
X229281612Y-93502714D01*
X229281610Y-93502713D01*
X229224653Y-93473691D01*
X229099223Y-93409781D01*
X228904534Y-93346522D01*
X228729995Y-93318878D01*
X228702352Y-93314500D01*
X228497648Y-93314500D01*
X228473329Y-93318351D01*
X228295465Y-93346522D01*
X228100776Y-93409781D01*
X227918386Y-93502715D01*
X227752786Y-93623028D01*
X227608028Y-93767786D01*
X227487715Y-93933386D01*
X227394781Y-94115776D01*
X227331522Y-94310465D01*
X227299500Y-94512648D01*
X227299500Y-94717351D01*
X227331522Y-94919534D01*
X227394781Y-95114223D01*
X227458691Y-95239653D01*
X227487585Y-95296359D01*
X227487715Y-95296613D01*
X227608028Y-95462213D01*
X227752786Y-95606971D01*
X227873226Y-95694474D01*
X227918390Y-95727287D01*
X228031034Y-95784682D01*
X228100776Y-95820218D01*
X228100778Y-95820218D01*
X228100781Y-95820220D01*
X228150406Y-95836344D01*
X228295465Y-95883477D01*
X228396557Y-95899488D01*
X228497648Y-95915500D01*
X228497649Y-95915500D01*
X228702351Y-95915500D01*
X228702352Y-95915500D01*
X228904534Y-95883477D01*
X229099219Y-95820220D01*
X229281610Y-95727287D01*
X229374590Y-95659732D01*
X229447213Y-95606971D01*
X229447215Y-95606968D01*
X229447219Y-95606966D01*
X229502366Y-95551819D01*
X229563689Y-95518334D01*
X229590047Y-95515500D01*
X244050638Y-95515500D01*
X244117677Y-95535185D01*
X244138319Y-95551819D01*
X244535960Y-95949461D01*
X244535964Y-95949464D01*
X244683446Y-96048009D01*
X244683452Y-96048012D01*
X244683453Y-96048013D01*
X244847334Y-96115895D01*
X245021303Y-96150499D01*
X245021307Y-96150500D01*
X245021308Y-96150500D01*
X245021309Y-96150500D01*
X248530500Y-96150500D01*
X248597539Y-96170185D01*
X248643294Y-96222989D01*
X248654500Y-96274500D01*
X248654500Y-103080638D01*
X248645855Y-103110078D01*
X248639332Y-103140065D01*
X248635577Y-103145080D01*
X248634815Y-103147677D01*
X248618185Y-103168314D01*
X248527106Y-103259394D01*
X248496929Y-103289571D01*
X248435606Y-103323055D01*
X248365914Y-103318071D01*
X248309981Y-103276199D01*
X248286775Y-103221287D01*
X248283477Y-103200465D01*
X248252458Y-103105000D01*
X248220220Y-103005781D01*
X248220218Y-103005777D01*
X248220218Y-103005776D01*
X248186503Y-102939607D01*
X248127287Y-102823390D01*
X248117220Y-102809534D01*
X248006971Y-102657786D01*
X247862213Y-102513028D01*
X247696614Y-102392715D01*
X247653556Y-102370776D01*
X247603917Y-102345483D01*
X247553123Y-102297511D01*
X247536328Y-102229690D01*
X247558865Y-102163555D01*
X247603917Y-102124516D01*
X247696610Y-102077287D01*
X247732366Y-102051309D01*
X247862213Y-101956971D01*
X247862215Y-101956968D01*
X247862219Y-101956966D01*
X248006966Y-101812219D01*
X248006968Y-101812215D01*
X248006971Y-101812213D01*
X248078723Y-101713453D01*
X248127287Y-101646610D01*
X248220220Y-101464219D01*
X248283477Y-101269534D01*
X248315500Y-101067352D01*
X248315500Y-100862648D01*
X248283477Y-100660466D01*
X248278893Y-100646359D01*
X248238595Y-100522333D01*
X248220220Y-100465781D01*
X248220218Y-100465778D01*
X248220218Y-100465776D01*
X248168865Y-100364991D01*
X248127287Y-100283390D01*
X248089498Y-100231377D01*
X248006971Y-100117786D01*
X247862213Y-99973028D01*
X247696614Y-99852715D01*
X247653556Y-99830776D01*
X247603917Y-99805483D01*
X247553123Y-99757511D01*
X247536328Y-99689690D01*
X247558865Y-99623555D01*
X247603917Y-99584516D01*
X247696610Y-99537287D01*
X247750621Y-99498046D01*
X247862213Y-99416971D01*
X247862215Y-99416968D01*
X247862219Y-99416966D01*
X248006966Y-99272219D01*
X248006968Y-99272215D01*
X248006971Y-99272213D01*
X248111892Y-99127799D01*
X248127287Y-99106610D01*
X248220220Y-98924219D01*
X248283477Y-98729534D01*
X248315500Y-98527352D01*
X248315500Y-98322648D01*
X248305079Y-98256852D01*
X248283477Y-98120465D01*
X248220218Y-97925776D01*
X248168865Y-97824991D01*
X248127287Y-97743390D01*
X248105030Y-97712755D01*
X248006971Y-97577786D01*
X247862213Y-97433028D01*
X247696613Y-97312715D01*
X247696612Y-97312714D01*
X247696610Y-97312713D01*
X247634293Y-97280961D01*
X247514223Y-97219781D01*
X247319534Y-97156522D01*
X247137884Y-97127752D01*
X247117352Y-97124500D01*
X246912648Y-97124500D01*
X246892116Y-97127752D01*
X246710465Y-97156522D01*
X246515776Y-97219781D01*
X246333386Y-97312715D01*
X246167786Y-97433028D01*
X246023028Y-97577786D01*
X245902715Y-97743386D01*
X245809781Y-97925776D01*
X245746522Y-98120465D01*
X245723902Y-98263286D01*
X245714500Y-98322648D01*
X245714500Y-98527352D01*
X245716074Y-98537287D01*
X245746522Y-98729534D01*
X245809781Y-98924223D01*
X245861140Y-99025018D01*
X245900075Y-99101433D01*
X245902715Y-99106613D01*
X246023028Y-99272213D01*
X246167786Y-99416971D01*
X246309895Y-99520217D01*
X246333390Y-99537287D01*
X246420253Y-99581546D01*
X246426080Y-99584515D01*
X246476876Y-99632490D01*
X246493671Y-99700311D01*
X246471134Y-99766446D01*
X246426080Y-99805485D01*
X246333386Y-99852715D01*
X246167786Y-99973028D01*
X246023028Y-100117786D01*
X245902715Y-100283386D01*
X245809781Y-100465776D01*
X245746522Y-100660465D01*
X245714500Y-100862648D01*
X245714500Y-101067351D01*
X245746522Y-101269534D01*
X245809781Y-101464223D01*
X245861035Y-101564812D01*
X245889153Y-101619998D01*
X245902715Y-101646613D01*
X246023028Y-101812213D01*
X246167786Y-101956971D01*
X246297634Y-102051309D01*
X246333390Y-102077287D01*
X246406898Y-102114741D01*
X246426080Y-102124515D01*
X246476876Y-102172490D01*
X246493671Y-102240311D01*
X246471134Y-102306446D01*
X246426080Y-102345485D01*
X246333386Y-102392715D01*
X246167786Y-102513028D01*
X246023028Y-102657786D01*
X245902715Y-102823386D01*
X245809781Y-103005777D01*
X245764715Y-103144474D01*
X245734465Y-103193836D01*
X243741786Y-105186517D01*
X243682181Y-105246122D01*
X243620858Y-105279607D01*
X243551166Y-105274623D01*
X243495233Y-105232751D01*
X243470816Y-105167287D01*
X243470500Y-105158441D01*
X243470500Y-101511310D01*
X243470500Y-101511309D01*
X243465160Y-101484464D01*
X243463497Y-101476104D01*
X243441941Y-101367729D01*
X243435895Y-101337334D01*
X243391642Y-101230500D01*
X243368013Y-101173453D01*
X243308936Y-101085040D01*
X243271037Y-101028318D01*
X243269466Y-101025966D01*
X240731818Y-98488318D01*
X240698333Y-98426995D01*
X240695499Y-98400637D01*
X240695499Y-97824998D01*
X240695498Y-97824981D01*
X240684999Y-97722203D01*
X240684998Y-97722200D01*
X240674994Y-97692011D01*
X240629814Y-97555666D01*
X240537712Y-97406344D01*
X240413656Y-97282288D01*
X240312314Y-97219780D01*
X240264336Y-97190187D01*
X240264331Y-97190185D01*
X240252311Y-97186202D01*
X240097797Y-97135001D01*
X240097795Y-97135000D01*
X239995010Y-97124500D01*
X238794998Y-97124500D01*
X238794981Y-97124501D01*
X238692203Y-97135000D01*
X238692200Y-97135001D01*
X238525668Y-97190185D01*
X238525663Y-97190187D01*
X238376342Y-97282289D01*
X238252289Y-97406342D01*
X238160187Y-97555663D01*
X238160185Y-97555668D01*
X238136552Y-97626988D01*
X238105001Y-97722203D01*
X238105001Y-97722204D01*
X238105000Y-97722204D01*
X238094500Y-97824983D01*
X238094500Y-99025001D01*
X238094501Y-99025018D01*
X238105000Y-99127796D01*
X238105001Y-99127799D01*
X238160185Y-99294331D01*
X238160187Y-99294336D01*
X238187140Y-99338034D01*
X238252288Y-99443656D01*
X238376344Y-99567712D01*
X238525666Y-99659814D01*
X238607570Y-99686954D01*
X238665015Y-99726727D01*
X238691838Y-99791243D01*
X238679523Y-99860018D01*
X238641451Y-99904978D01*
X238547787Y-99973028D01*
X238547782Y-99973032D01*
X238403028Y-100117786D01*
X238282715Y-100283386D01*
X238189781Y-100465776D01*
X238126522Y-100660465D01*
X238094500Y-100862648D01*
X238094500Y-101067351D01*
X238126522Y-101269534D01*
X238189781Y-101464223D01*
X238241035Y-101564812D01*
X238269153Y-101619998D01*
X238282715Y-101646613D01*
X238403028Y-101812213D01*
X238547786Y-101956971D01*
X238713385Y-102077284D01*
X238713387Y-102077285D01*
X238713390Y-102077287D01*
X238786898Y-102114741D01*
X238806630Y-102124795D01*
X238857426Y-102172770D01*
X238874221Y-102240591D01*
X238851684Y-102306725D01*
X238806630Y-102345765D01*
X238713644Y-102393143D01*
X238669077Y-102425523D01*
X238669077Y-102425524D01*
X239348554Y-103105000D01*
X239342339Y-103105000D01*
X239240606Y-103132259D01*
X239149394Y-103184920D01*
X239074920Y-103259394D01*
X239022259Y-103350606D01*
X238995000Y-103452339D01*
X238995000Y-103458553D01*
X238315524Y-102779077D01*
X238315523Y-102779077D01*
X238283143Y-102823644D01*
X238190244Y-103005968D01*
X238127009Y-103200582D01*
X238095000Y-103402682D01*
X238095000Y-103607317D01*
X238127009Y-103809417D01*
X238190244Y-104004031D01*
X238283141Y-104186350D01*
X238283147Y-104186359D01*
X238315523Y-104230921D01*
X238315524Y-104230922D01*
X238995000Y-103551446D01*
X238995000Y-103557661D01*
X239022259Y-103659394D01*
X239074920Y-103750606D01*
X239149394Y-103825080D01*
X239240606Y-103877741D01*
X239342339Y-103905000D01*
X239348553Y-103905000D01*
X238669076Y-104584474D01*
X238713652Y-104616861D01*
X238806628Y-104664234D01*
X238857425Y-104712208D01*
X238874220Y-104780029D01*
X238851683Y-104846164D01*
X238806630Y-104885203D01*
X238713388Y-104932713D01*
X238547786Y-105053028D01*
X238403028Y-105197786D01*
X238282715Y-105363386D01*
X238189781Y-105545776D01*
X238126522Y-105740465D01*
X238106258Y-105868409D01*
X238094500Y-105942648D01*
X238094500Y-106147352D01*
X238096074Y-106157287D01*
X238126522Y-106349534D01*
X238189781Y-106544223D01*
X238253691Y-106669653D01*
X238281948Y-106725109D01*
X238282715Y-106726613D01*
X238403028Y-106892213D01*
X238547786Y-107036971D01*
X238702749Y-107149556D01*
X238713390Y-107157287D01*
X238804840Y-107203883D01*
X238806080Y-107204515D01*
X238856876Y-107252490D01*
X238873671Y-107320311D01*
X238851134Y-107386446D01*
X238806080Y-107425485D01*
X238713386Y-107472715D01*
X238547786Y-107593028D01*
X238547782Y-107593032D01*
X238492634Y-107648181D01*
X238431311Y-107681666D01*
X238404953Y-107684500D01*
X232834362Y-107684500D01*
X232804917Y-107675854D01*
X232774934Y-107669331D01*
X232769920Y-107665577D01*
X232767323Y-107664815D01*
X232746680Y-107648180D01*
X232711818Y-107613317D01*
X232678333Y-107551993D01*
X232675500Y-107525637D01*
X232675500Y-101955047D01*
X232695185Y-101888008D01*
X232711819Y-101867366D01*
X232736685Y-101842500D01*
X232766966Y-101812219D01*
X232766968Y-101812215D01*
X232766971Y-101812213D01*
X232838723Y-101713453D01*
X232887287Y-101646610D01*
X232980220Y-101464219D01*
X233043477Y-101269534D01*
X233075500Y-101067352D01*
X233075500Y-100862648D01*
X233043477Y-100660466D01*
X233038893Y-100646359D01*
X232998595Y-100522333D01*
X232980220Y-100465781D01*
X232980218Y-100465778D01*
X232980218Y-100465776D01*
X232928865Y-100364991D01*
X232887287Y-100283390D01*
X232849498Y-100231377D01*
X232766971Y-100117786D01*
X232622213Y-99973028D01*
X232456613Y-99852715D01*
X232456612Y-99852714D01*
X232456610Y-99852713D01*
X232391581Y-99819579D01*
X232274223Y-99759781D01*
X232079534Y-99696522D01*
X231904995Y-99668878D01*
X231877352Y-99664500D01*
X231672648Y-99664500D01*
X231648329Y-99668351D01*
X231470465Y-99696522D01*
X231275776Y-99759781D01*
X231093391Y-99852712D01*
X231093383Y-99852717D01*
X231023085Y-99903790D01*
X230957279Y-99927269D01*
X230889225Y-99911442D01*
X230862521Y-99891153D01*
X230831386Y-99860018D01*
X230793656Y-99822288D01*
X230703121Y-99766446D01*
X230644336Y-99730187D01*
X230644331Y-99730185D01*
X230633895Y-99726727D01*
X230477797Y-99675001D01*
X230477795Y-99675000D01*
X230375010Y-99664500D01*
X229174998Y-99664500D01*
X229174981Y-99664501D01*
X229072203Y-99675000D01*
X229072200Y-99675001D01*
X228905668Y-99730185D01*
X228905663Y-99730187D01*
X228756342Y-99822289D01*
X228632289Y-99946342D01*
X228540187Y-100095663D01*
X228540186Y-100095666D01*
X228485001Y-100262203D01*
X228485001Y-100262204D01*
X228485000Y-100262204D01*
X228474500Y-100364983D01*
X228474500Y-100940637D01*
X228454815Y-101007676D01*
X228438181Y-101028318D01*
X227900538Y-101565960D01*
X227900537Y-101565961D01*
X227874787Y-101604500D01*
X227864431Y-101619999D01*
X227801987Y-101713453D01*
X227781459Y-101763013D01*
X227778405Y-101770383D01*
X227778404Y-101770387D01*
X227734105Y-101877333D01*
X227734103Y-101877341D01*
X227702733Y-102035049D01*
X227702734Y-102035050D01*
X227699500Y-102051309D01*
X227699500Y-108142837D01*
X227679815Y-108209876D01*
X227627011Y-108255631D01*
X227601465Y-108264088D01*
X227597206Y-108264999D01*
X227430667Y-108320185D01*
X227430662Y-108320187D01*
X227281342Y-108412289D01*
X227157289Y-108536342D01*
X227065187Y-108685662D01*
X227065185Y-108685667D01*
X227055691Y-108714318D01*
X227010001Y-108852202D01*
X227010001Y-108852203D01*
X227010000Y-108852203D01*
X226999500Y-108954982D01*
X226999500Y-110755017D01*
X227010000Y-110857796D01*
X227065185Y-111024332D01*
X227065187Y-111024337D01*
X227079633Y-111047758D01*
X227157288Y-111173656D01*
X227281344Y-111297712D01*
X227430665Y-111389814D01*
X227597202Y-111444999D01*
X227699990Y-111455500D01*
X227699995Y-111455500D01*
X229500005Y-111455500D01*
X229500010Y-111455500D01*
X229602798Y-111444999D01*
X229769335Y-111389814D01*
X229909771Y-111303191D01*
X229977163Y-111284751D01*
X230043827Y-111305673D01*
X230062549Y-111321049D01*
X230565958Y-111824459D01*
X230565964Y-111824464D01*
X230585089Y-111837243D01*
X230713446Y-111923009D01*
X230713448Y-111923010D01*
X230713453Y-111923013D01*
X230795393Y-111956953D01*
X230877334Y-111990895D01*
X231051303Y-112025499D01*
X231051307Y-112025500D01*
X231051308Y-112025500D01*
X231051309Y-112025500D01*
X238404953Y-112025500D01*
X238471992Y-112045185D01*
X238492634Y-112061819D01*
X238547786Y-112116971D01*
X238649894Y-112191155D01*
X238713390Y-112237287D01*
X238798487Y-112280646D01*
X238806080Y-112284515D01*
X238856876Y-112332490D01*
X238873671Y-112400311D01*
X238851134Y-112466446D01*
X238806080Y-112505485D01*
X238713386Y-112552715D01*
X238547786Y-112673028D01*
X238547782Y-112673032D01*
X238492634Y-112728181D01*
X238431311Y-112761666D01*
X238404953Y-112764500D01*
X218229361Y-112764500D01*
X218162322Y-112744815D01*
X218141680Y-112728181D01*
X216603172Y-111189672D01*
X215142571Y-109729071D01*
X216840000Y-109729071D01*
X216840000Y-109980928D01*
X216879397Y-110229669D01*
X216957219Y-110469184D01*
X217071557Y-110693583D01*
X217145748Y-110795697D01*
X217145748Y-110795698D01*
X217916212Y-110025234D01*
X217927482Y-110067292D01*
X217999890Y-110192708D01*
X218102292Y-110295110D01*
X218227708Y-110367518D01*
X218269765Y-110378787D01*
X217499300Y-111149250D01*
X217601416Y-111223442D01*
X217825815Y-111337780D01*
X218065330Y-111415602D01*
X218314072Y-111455000D01*
X218565928Y-111455000D01*
X218814669Y-111415602D01*
X219054184Y-111337780D01*
X219278575Y-111223446D01*
X219278581Y-111223442D01*
X219380697Y-111149250D01*
X219380698Y-111149250D01*
X218610234Y-110378787D01*
X218652292Y-110367518D01*
X218777708Y-110295110D01*
X218880110Y-110192708D01*
X218952518Y-110067292D01*
X218963787Y-110025235D01*
X219734250Y-110795698D01*
X219734250Y-110795697D01*
X219808442Y-110693581D01*
X219808446Y-110693575D01*
X219922780Y-110469184D01*
X220000602Y-110229669D01*
X220040000Y-109980928D01*
X220040000Y-109729071D01*
X220000602Y-109480330D01*
X219922780Y-109240815D01*
X219808442Y-109016416D01*
X219734250Y-108914301D01*
X219734250Y-108914300D01*
X218963787Y-109684764D01*
X218952518Y-109642708D01*
X218880110Y-109517292D01*
X218777708Y-109414890D01*
X218652292Y-109342482D01*
X218610232Y-109331212D01*
X219380698Y-108560748D01*
X219278583Y-108486557D01*
X219054184Y-108372219D01*
X218814669Y-108294397D01*
X218565928Y-108255000D01*
X218314072Y-108255000D01*
X218065330Y-108294397D01*
X217825815Y-108372219D01*
X217601413Y-108486559D01*
X217499301Y-108560747D01*
X217499300Y-108560748D01*
X218269765Y-109331212D01*
X218227708Y-109342482D01*
X218102292Y-109414890D01*
X217999890Y-109517292D01*
X217927482Y-109642708D01*
X217916212Y-109684765D01*
X217145748Y-108914300D01*
X217145747Y-108914301D01*
X217071559Y-109016413D01*
X216957219Y-109240815D01*
X216879397Y-109480330D01*
X216840000Y-109729071D01*
X215142571Y-109729071D01*
X213026819Y-107613319D01*
X212993334Y-107551996D01*
X212990500Y-107525638D01*
X212990500Y-99606309D01*
X212982823Y-99567711D01*
X212982823Y-99567710D01*
X212966517Y-99485735D01*
X212955895Y-99432334D01*
X212908645Y-99318264D01*
X212902326Y-99303008D01*
X212902325Y-99303007D01*
X212898733Y-99294334D01*
X212888013Y-99268453D01*
X212820215Y-99166987D01*
X212817413Y-99162794D01*
X212789465Y-99120965D01*
X212789459Y-99120958D01*
X211821819Y-98153318D01*
X211788334Y-98091995D01*
X211785500Y-98065637D01*
X211785500Y-96889995D01*
X211785499Y-96889982D01*
X211774999Y-96787203D01*
X211774999Y-96787202D01*
X211719814Y-96620665D01*
X211627712Y-96471344D01*
X211503656Y-96347288D01*
X211354335Y-96255186D01*
X211187798Y-96200001D01*
X211187796Y-96200000D01*
X211085017Y-96189500D01*
X211085010Y-96189500D01*
X209284990Y-96189500D01*
X209284982Y-96189500D01*
X209182203Y-96200000D01*
X209182202Y-96200001D01*
X209130942Y-96216987D01*
X209015667Y-96255185D01*
X209015662Y-96255187D01*
X208866342Y-96347289D01*
X208742289Y-96471342D01*
X208650187Y-96620662D01*
X208650186Y-96620665D01*
X208595001Y-96787202D01*
X208595001Y-96787203D01*
X208595000Y-96787203D01*
X208584500Y-96889982D01*
X208584500Y-98065637D01*
X208564815Y-98132676D01*
X208548181Y-98153318D01*
X207580540Y-99120958D01*
X207580534Y-99120965D01*
X207552585Y-99162794D01*
X207552576Y-99162808D01*
X207549785Y-99166987D01*
X207481987Y-99268453D01*
X207450488Y-99344500D01*
X207447752Y-99351103D01*
X207447748Y-99351112D01*
X207414105Y-99432333D01*
X207414103Y-99432341D01*
X207387176Y-99567710D01*
X207387177Y-99567711D01*
X207379500Y-99606309D01*
X207379500Y-101879953D01*
X207359815Y-101946992D01*
X207343181Y-101967634D01*
X207288032Y-102022782D01*
X207288028Y-102022786D01*
X207167715Y-102188386D01*
X207074781Y-102370776D01*
X207011522Y-102565465D01*
X206979500Y-102767648D01*
X206979500Y-102972351D01*
X207011522Y-103174534D01*
X207074781Y-103369223D01*
X207126640Y-103471000D01*
X207156956Y-103530499D01*
X207167715Y-103551613D01*
X207288028Y-103717213D01*
X207432786Y-103861971D01*
X207530159Y-103932715D01*
X207598390Y-103982287D01*
X207677399Y-104022544D01*
X207780776Y-104075218D01*
X207780778Y-104075218D01*
X207780781Y-104075220D01*
X207884108Y-104108793D01*
X207975465Y-104138477D01*
X208076557Y-104154488D01*
X208177648Y-104170500D01*
X208177649Y-104170500D01*
X208382351Y-104170500D01*
X208382352Y-104170500D01*
X208584534Y-104138477D01*
X208779219Y-104075220D01*
X208961610Y-103982287D01*
X209054590Y-103914732D01*
X209127213Y-103861971D01*
X209127215Y-103861968D01*
X209127219Y-103861966D01*
X209271966Y-103717219D01*
X209271968Y-103717215D01*
X209271971Y-103717213D01*
X209344572Y-103617284D01*
X209392287Y-103551610D01*
X209485220Y-103369219D01*
X209548477Y-103174534D01*
X209580500Y-102972352D01*
X209580500Y-102767648D01*
X209569601Y-102698838D01*
X209548477Y-102565465D01*
X209510523Y-102448655D01*
X209485220Y-102370781D01*
X209485218Y-102370778D01*
X209485218Y-102370776D01*
X209436043Y-102274266D01*
X209392287Y-102188390D01*
X209382182Y-102174482D01*
X209271971Y-102022786D01*
X209216819Y-101967634D01*
X209183334Y-101906311D01*
X209180500Y-101879953D01*
X209180500Y-100119362D01*
X209200185Y-100052323D01*
X209216819Y-100031681D01*
X209821681Y-99426819D01*
X209883004Y-99393334D01*
X209909362Y-99390500D01*
X210460638Y-99390500D01*
X210527677Y-99410185D01*
X210548319Y-99426819D01*
X211153181Y-100031681D01*
X211186666Y-100093004D01*
X211189500Y-100119362D01*
X211189500Y-108038696D01*
X211224103Y-108212658D01*
X211224105Y-108212666D01*
X211246449Y-108266610D01*
X211252189Y-108280466D01*
X211291987Y-108376547D01*
X211347415Y-108459500D01*
X211350863Y-108464660D01*
X211350866Y-108464666D01*
X211390537Y-108524038D01*
X211390540Y-108524041D01*
X216820320Y-113953819D01*
X216853805Y-114015142D01*
X216848821Y-114084834D01*
X216806949Y-114140767D01*
X216741485Y-114165184D01*
X216732639Y-114165500D01*
X212010362Y-114165500D01*
X211980921Y-114156855D01*
X211950935Y-114150332D01*
X211945919Y-114146577D01*
X211943323Y-114145815D01*
X211922681Y-114129181D01*
X211821819Y-114028319D01*
X211788334Y-113966996D01*
X211785500Y-113940638D01*
X211785500Y-112764995D01*
X211785499Y-112764982D01*
X211782461Y-112735249D01*
X211774999Y-112662202D01*
X211719814Y-112495665D01*
X211627712Y-112346344D01*
X211503656Y-112222288D01*
X211354335Y-112130186D01*
X211187798Y-112075001D01*
X211187796Y-112075000D01*
X211085017Y-112064500D01*
X211085010Y-112064500D01*
X209284990Y-112064500D01*
X209284982Y-112064500D01*
X209182203Y-112075000D01*
X209182202Y-112075001D01*
X209111848Y-112098314D01*
X209015667Y-112130185D01*
X209015662Y-112130187D01*
X208866342Y-112222289D01*
X208742289Y-112346342D01*
X208650187Y-112495662D01*
X208650185Y-112495667D01*
X208631282Y-112552713D01*
X208595001Y-112662202D01*
X208595001Y-112662203D01*
X208595000Y-112662203D01*
X208584500Y-112764982D01*
X208584500Y-113940637D01*
X208564815Y-114007676D01*
X208548181Y-114028318D01*
X207580538Y-114995960D01*
X207580537Y-114995961D01*
X207555210Y-115033867D01*
X207541063Y-115055040D01*
X207481987Y-115143453D01*
X207458642Y-115199814D01*
X207455759Y-115206772D01*
X207455756Y-115206779D01*
X207416389Y-115301819D01*
X207414105Y-115307334D01*
X207389286Y-115432110D01*
X207389286Y-115432111D01*
X207379500Y-115481307D01*
X207379500Y-117754953D01*
X207359815Y-117821992D01*
X207343181Y-117842634D01*
X207288032Y-117897782D01*
X207288028Y-117897786D01*
X207167715Y-118063386D01*
X207074781Y-118245776D01*
X207011522Y-118440465D01*
X206979500Y-118642648D01*
X206979500Y-118847351D01*
X207011522Y-119049534D01*
X207074781Y-119244223D01*
X207167715Y-119426613D01*
X207288028Y-119592213D01*
X207432786Y-119736971D01*
X207587749Y-119849556D01*
X207598390Y-119857287D01*
X207714607Y-119916503D01*
X207780776Y-119950218D01*
X207780778Y-119950218D01*
X207780781Y-119950220D01*
X207885137Y-119984127D01*
X207975465Y-120013477D01*
X208076557Y-120029488D01*
X208177648Y-120045500D01*
X208177649Y-120045500D01*
X208382351Y-120045500D01*
X208382352Y-120045500D01*
X208584534Y-120013477D01*
X208779219Y-119950220D01*
X208961610Y-119857287D01*
X209054590Y-119789732D01*
X209127213Y-119736971D01*
X209127215Y-119736968D01*
X209127219Y-119736966D01*
X209271966Y-119592219D01*
X209271968Y-119592215D01*
X209271971Y-119592213D01*
X209324732Y-119519590D01*
X209392287Y-119426610D01*
X209485220Y-119244219D01*
X209548477Y-119049534D01*
X209580500Y-118847352D01*
X209580500Y-118642648D01*
X209548477Y-118440466D01*
X209485220Y-118245781D01*
X209485218Y-118245778D01*
X209485218Y-118245776D01*
X209443923Y-118164732D01*
X209392287Y-118063390D01*
X209350228Y-118005500D01*
X209271971Y-117897786D01*
X209216819Y-117842634D01*
X209183334Y-117781311D01*
X209180500Y-117754953D01*
X209180500Y-115994362D01*
X209200185Y-115927323D01*
X209216819Y-115906681D01*
X209821681Y-115301819D01*
X209883004Y-115268334D01*
X209909362Y-115265500D01*
X210460638Y-115265500D01*
X210527677Y-115285185D01*
X210548319Y-115301819D01*
X211011964Y-115765464D01*
X211023175Y-115772955D01*
X211023179Y-115772959D01*
X211023180Y-115772958D01*
X211159453Y-115864013D01*
X211241393Y-115897953D01*
X211323334Y-115931895D01*
X211497303Y-115966499D01*
X211497307Y-115966500D01*
X211497308Y-115966500D01*
X240064007Y-115966500D01*
X240064008Y-115966499D01*
X240237980Y-115931895D01*
X240319920Y-115897953D01*
X240401861Y-115864013D01*
X240538134Y-115772958D01*
X240549350Y-115765464D01*
X243137819Y-113176995D01*
X243199142Y-113143510D01*
X243268834Y-113148494D01*
X243324767Y-113190366D01*
X243349184Y-113255830D01*
X243349500Y-113264676D01*
X243349500Y-115687441D01*
X243329815Y-115754480D01*
X243313181Y-115775122D01*
X237695122Y-121393181D01*
X237633799Y-121426666D01*
X237607441Y-121429500D01*
X146138578Y-121429500D01*
X145961421Y-121429500D01*
X145903095Y-121438738D01*
X145786442Y-121457214D01*
X145617960Y-121511956D01*
X145617947Y-121511962D01*
X145460113Y-121592383D01*
X145452211Y-121598125D01*
X145452210Y-121598124D01*
X145452210Y-121598125D01*
X145316792Y-121696511D01*
X145316787Y-121696515D01*
X141515427Y-125497874D01*
X141454104Y-125531359D01*
X141447145Y-125532666D01*
X141288759Y-125557753D01*
X141086585Y-125623444D01*
X140897179Y-125719951D01*
X140725213Y-125844890D01*
X140574890Y-125995213D01*
X140449951Y-126167179D01*
X140353444Y-126356585D01*
X140287753Y-126558759D01*
X140262666Y-126717145D01*
X140232736Y-126780280D01*
X140227874Y-126785427D01*
X138000122Y-129013181D01*
X137938799Y-129046666D01*
X137912441Y-129049500D01*
X73090560Y-129049500D01*
X73023521Y-129029815D01*
X73002879Y-129013181D01*
X70733411Y-126743713D01*
X123149500Y-126743713D01*
X123149500Y-127256286D01*
X123182703Y-127465925D01*
X123182754Y-127466243D01*
X123193722Y-127500000D01*
X123248444Y-127668414D01*
X123344951Y-127857820D01*
X123469890Y-128029786D01*
X123620213Y-128180109D01*
X123792179Y-128305048D01*
X123792181Y-128305049D01*
X123792184Y-128305051D01*
X123981588Y-128401557D01*
X124183757Y-128467246D01*
X124393713Y-128500500D01*
X124393714Y-128500500D01*
X124606286Y-128500500D01*
X124606287Y-128500500D01*
X124816243Y-128467246D01*
X125018412Y-128401557D01*
X125207816Y-128305051D01*
X125318618Y-128224549D01*
X125379784Y-128180110D01*
X125379784Y-128180109D01*
X125379792Y-128180104D01*
X125518967Y-128040928D01*
X125580286Y-128007446D01*
X125649978Y-128012430D01*
X125705912Y-128054301D01*
X125712184Y-128063515D01*
X125807684Y-128218345D01*
X125931654Y-128342315D01*
X126080875Y-128434356D01*
X126080880Y-128434358D01*
X126247302Y-128489505D01*
X126247309Y-128489506D01*
X126350019Y-128499999D01*
X126749999Y-128499999D01*
X126750000Y-128499998D01*
X126750000Y-127433012D01*
X126807007Y-127465925D01*
X126934174Y-127500000D01*
X127065826Y-127500000D01*
X127192993Y-127465925D01*
X127250000Y-127433012D01*
X127250000Y-128499999D01*
X127649972Y-128499999D01*
X127649986Y-128499998D01*
X127752697Y-128489505D01*
X127919119Y-128434358D01*
X127919124Y-128434356D01*
X128068345Y-128342315D01*
X128192315Y-128218345D01*
X128284356Y-128069124D01*
X128284358Y-128069119D01*
X128339505Y-127902697D01*
X128339506Y-127902690D01*
X128349999Y-127799986D01*
X128350000Y-127799973D01*
X128350000Y-127250000D01*
X127433012Y-127250000D01*
X127465925Y-127192993D01*
X127500000Y-127065826D01*
X127500000Y-126934174D01*
X127465925Y-126807007D01*
X127433012Y-126750000D01*
X128349999Y-126750000D01*
X128349999Y-126200028D01*
X128349998Y-126200013D01*
X128339505Y-126097302D01*
X128284358Y-125930880D01*
X128284356Y-125930875D01*
X128192315Y-125781654D01*
X128068345Y-125657684D01*
X127919124Y-125565643D01*
X127919119Y-125565641D01*
X127752697Y-125510494D01*
X127752690Y-125510493D01*
X127649986Y-125500000D01*
X127250000Y-125500000D01*
X127250000Y-126566988D01*
X127192993Y-126534075D01*
X127065826Y-126500000D01*
X126934174Y-126500000D01*
X126807007Y-126534075D01*
X126750000Y-126566988D01*
X126750000Y-125500000D01*
X126350028Y-125500000D01*
X126350012Y-125500001D01*
X126247302Y-125510494D01*
X126080880Y-125565641D01*
X126080875Y-125565643D01*
X125931654Y-125657684D01*
X125807683Y-125781655D01*
X125807680Y-125781659D01*
X125712183Y-125936484D01*
X125660235Y-125983209D01*
X125591273Y-125994430D01*
X125527191Y-125966587D01*
X125518964Y-125959068D01*
X125379786Y-125819890D01*
X125207820Y-125694951D01*
X125018414Y-125598444D01*
X125018413Y-125598443D01*
X125018412Y-125598443D01*
X124816243Y-125532754D01*
X124816241Y-125532753D01*
X124816240Y-125532753D01*
X124654957Y-125507208D01*
X124606287Y-125499500D01*
X124393713Y-125499500D01*
X124345042Y-125507208D01*
X124183760Y-125532753D01*
X123981585Y-125598444D01*
X123792179Y-125694951D01*
X123620213Y-125819890D01*
X123469890Y-125970213D01*
X123344951Y-126142179D01*
X123248444Y-126331585D01*
X123182753Y-126533760D01*
X123149500Y-126743713D01*
X70733411Y-126743713D01*
X59581819Y-115592121D01*
X59548334Y-115530798D01*
X59545500Y-115504440D01*
X59545500Y-113473811D01*
X59565185Y-113406772D01*
X59617989Y-113361017D01*
X59687147Y-113351073D01*
X59750703Y-113380098D01*
X59787205Y-113434806D01*
X59820186Y-113534334D01*
X59912288Y-113683656D01*
X60036344Y-113807712D01*
X60185666Y-113899814D01*
X60352203Y-113954999D01*
X60454991Y-113965500D01*
X61030637Y-113965499D01*
X61097676Y-113985183D01*
X61118318Y-114001818D01*
X67705536Y-120589035D01*
X67830965Y-120714464D01*
X67978453Y-120813013D01*
X68026452Y-120832895D01*
X68142334Y-120880895D01*
X68316304Y-120915499D01*
X68316308Y-120915500D01*
X68316309Y-120915500D01*
X77558693Y-120915500D01*
X77558694Y-120915499D01*
X77732666Y-120880895D01*
X77814606Y-120846953D01*
X77896547Y-120813013D01*
X77984959Y-120753936D01*
X78044036Y-120714464D01*
X84091680Y-114666818D01*
X84153003Y-114633334D01*
X84179361Y-114630500D01*
X84700500Y-114630500D01*
X84767539Y-114650185D01*
X84813294Y-114702989D01*
X84824500Y-114754500D01*
X84824500Y-117754953D01*
X84804815Y-117821992D01*
X84788181Y-117842634D01*
X84733032Y-117897782D01*
X84733028Y-117897786D01*
X84612715Y-118063386D01*
X84519781Y-118245776D01*
X84456522Y-118440465D01*
X84424500Y-118642648D01*
X84424500Y-118847351D01*
X84456522Y-119049534D01*
X84519781Y-119244223D01*
X84612715Y-119426613D01*
X84733028Y-119592213D01*
X84877786Y-119736971D01*
X85032749Y-119849556D01*
X85043390Y-119857287D01*
X85159607Y-119916503D01*
X85225776Y-119950218D01*
X85225778Y-119950218D01*
X85225781Y-119950220D01*
X85330137Y-119984127D01*
X85420465Y-120013477D01*
X85521557Y-120029488D01*
X85622648Y-120045500D01*
X85622649Y-120045500D01*
X85827351Y-120045500D01*
X85827352Y-120045500D01*
X86029534Y-120013477D01*
X86224219Y-119950220D01*
X86406610Y-119857287D01*
X86499590Y-119789732D01*
X86572213Y-119736971D01*
X86572215Y-119736968D01*
X86572219Y-119736966D01*
X86716966Y-119592219D01*
X86716968Y-119592215D01*
X86716971Y-119592213D01*
X86769732Y-119519590D01*
X86837287Y-119426610D01*
X86930220Y-119244219D01*
X86993477Y-119049534D01*
X87025500Y-118847352D01*
X87025500Y-118642648D01*
X86993477Y-118440466D01*
X86930220Y-118245781D01*
X86930218Y-118245778D01*
X86930218Y-118245776D01*
X86888923Y-118164732D01*
X86837287Y-118063390D01*
X86795228Y-118005500D01*
X86716971Y-117897786D01*
X86661819Y-117842634D01*
X86628334Y-117781311D01*
X86625500Y-117754953D01*
X86625500Y-114211308D01*
X86620367Y-114185505D01*
X86616388Y-114165500D01*
X86616325Y-114165184D01*
X86597919Y-114072649D01*
X86590895Y-114037334D01*
X86546439Y-113930010D01*
X86523013Y-113873453D01*
X86463266Y-113784036D01*
X86424464Y-113725964D01*
X86424462Y-113725961D01*
X86091819Y-113393318D01*
X86058334Y-113331995D01*
X86055500Y-113305637D01*
X86055500Y-112129995D01*
X86055499Y-112129982D01*
X86052835Y-112103910D01*
X86044999Y-112027202D01*
X85989814Y-111860665D01*
X85897712Y-111711344D01*
X85773656Y-111587288D01*
X85668274Y-111522288D01*
X85624337Y-111495187D01*
X85624332Y-111495185D01*
X85622863Y-111494698D01*
X85457798Y-111440001D01*
X85457796Y-111440000D01*
X85355017Y-111429500D01*
X85355010Y-111429500D01*
X83554990Y-111429500D01*
X83554982Y-111429500D01*
X83452203Y-111440000D01*
X83452202Y-111440001D01*
X83392513Y-111459780D01*
X83285667Y-111495185D01*
X83285662Y-111495187D01*
X83136342Y-111587289D01*
X83012289Y-111711342D01*
X82920187Y-111860662D01*
X82920185Y-111860667D01*
X82899956Y-111921714D01*
X82865001Y-112027202D01*
X82865001Y-112027203D01*
X82865000Y-112027203D01*
X82854500Y-112129982D01*
X82854500Y-113305638D01*
X82834815Y-113372677D01*
X82818181Y-113393319D01*
X77133319Y-119078181D01*
X77071996Y-119111666D01*
X77045638Y-119114500D01*
X68829361Y-119114500D01*
X68762322Y-119094815D01*
X68741680Y-119078181D01*
X68015180Y-118351680D01*
X67981695Y-118290357D01*
X67986679Y-118220665D01*
X68028551Y-118164732D01*
X68094015Y-118140315D01*
X68102861Y-118139999D01*
X68432348Y-118139999D01*
X68432349Y-118139998D01*
X68432349Y-117155686D01*
X68436743Y-117160080D01*
X68527955Y-117212741D01*
X68629688Y-117240000D01*
X68735010Y-117240000D01*
X68836743Y-117212741D01*
X68927955Y-117160080D01*
X68932349Y-117155686D01*
X68932349Y-118139999D01*
X69282321Y-118139999D01*
X69282335Y-118139998D01*
X69385046Y-118129505D01*
X69551468Y-118074358D01*
X69551473Y-118074356D01*
X69700694Y-117982315D01*
X69824664Y-117858345D01*
X69916705Y-117709124D01*
X69916707Y-117709119D01*
X69971854Y-117542697D01*
X69971855Y-117542690D01*
X69982348Y-117439986D01*
X69982349Y-117439973D01*
X69982349Y-117090000D01*
X68998035Y-117090000D01*
X69002429Y-117085606D01*
X69055090Y-116994394D01*
X69082349Y-116892661D01*
X69082349Y-116787339D01*
X69069034Y-116737648D01*
X71181849Y-116737648D01*
X71181849Y-116942351D01*
X71213871Y-117144534D01*
X71277130Y-117339223D01*
X71318028Y-117419488D01*
X71365777Y-117513201D01*
X71370064Y-117521613D01*
X71490377Y-117687213D01*
X71635135Y-117831971D01*
X71790098Y-117944556D01*
X71800739Y-117952287D01*
X71905175Y-118005500D01*
X71983125Y-118045218D01*
X71983127Y-118045218D01*
X71983130Y-118045220D01*
X72072808Y-118074358D01*
X72177814Y-118108477D01*
X72278906Y-118124488D01*
X72379997Y-118140500D01*
X72379998Y-118140500D01*
X72584700Y-118140500D01*
X72584701Y-118140500D01*
X72786883Y-118108477D01*
X72981568Y-118045220D01*
X73163959Y-117952287D01*
X73256939Y-117884732D01*
X73329562Y-117831971D01*
X73329564Y-117831968D01*
X73329568Y-117831966D01*
X73474315Y-117687219D01*
X73474317Y-117687215D01*
X73474320Y-117687213D01*
X73543175Y-117592440D01*
X73594636Y-117521610D01*
X73687569Y-117339219D01*
X73750826Y-117144534D01*
X73782849Y-116942352D01*
X73782849Y-116737648D01*
X73774606Y-116685606D01*
X73750826Y-116535465D01*
X73719807Y-116440000D01*
X73687569Y-116340781D01*
X73687567Y-116340778D01*
X73687567Y-116340776D01*
X73653852Y-116274607D01*
X73594636Y-116158390D01*
X73564145Y-116116422D01*
X73474320Y-115992786D01*
X73329562Y-115848028D01*
X73163962Y-115727715D01*
X73163961Y-115727714D01*
X73163959Y-115727713D01*
X73084921Y-115687441D01*
X72981572Y-115634781D01*
X72786883Y-115571522D01*
X72612344Y-115543878D01*
X72584701Y-115539500D01*
X72379997Y-115539500D01*
X72355678Y-115543351D01*
X72177814Y-115571522D01*
X71983125Y-115634781D01*
X71800735Y-115727715D01*
X71635135Y-115848028D01*
X71490377Y-115992786D01*
X71370064Y-116158386D01*
X71277130Y-116340776D01*
X71213871Y-116535465D01*
X71181849Y-116737648D01*
X69069034Y-116737648D01*
X69055090Y-116685606D01*
X69002429Y-116594394D01*
X68998035Y-116590000D01*
X69982348Y-116590000D01*
X69982348Y-116240028D01*
X69982347Y-116240013D01*
X69971854Y-116137302D01*
X69916707Y-115970880D01*
X69916705Y-115970875D01*
X69824664Y-115821654D01*
X69700694Y-115697684D01*
X69551473Y-115605643D01*
X69551468Y-115605641D01*
X69385046Y-115550494D01*
X69385039Y-115550493D01*
X69282335Y-115540000D01*
X68932349Y-115540000D01*
X68932349Y-116524314D01*
X68927955Y-116519920D01*
X68836743Y-116467259D01*
X68735010Y-116440000D01*
X68629688Y-116440000D01*
X68527955Y-116467259D01*
X68436743Y-116519920D01*
X68432349Y-116524314D01*
X68432349Y-115540000D01*
X68082377Y-115540000D01*
X68082361Y-115540001D01*
X67979651Y-115550494D01*
X67813229Y-115605641D01*
X67813224Y-115605643D01*
X67664003Y-115697684D01*
X67540033Y-115821654D01*
X67447992Y-115970875D01*
X67447990Y-115970880D01*
X67392843Y-116137302D01*
X67392842Y-116137309D01*
X67382349Y-116240013D01*
X67382349Y-116590000D01*
X68366663Y-116590000D01*
X68362269Y-116594394D01*
X68309608Y-116685606D01*
X68282349Y-116787339D01*
X68282349Y-116892661D01*
X68309608Y-116994394D01*
X68362269Y-117085606D01*
X68366663Y-117090000D01*
X67382350Y-117090000D01*
X67382350Y-117419488D01*
X67362665Y-117486527D01*
X67309861Y-117532282D01*
X67240703Y-117542226D01*
X67177147Y-117513201D01*
X67170669Y-117507169D01*
X62391818Y-112728318D01*
X62358333Y-112666995D01*
X62355499Y-112640637D01*
X62355499Y-112064998D01*
X62355498Y-112064981D01*
X62344999Y-111962203D01*
X62344998Y-111962200D01*
X62331583Y-111921716D01*
X62289814Y-111795666D01*
X62197712Y-111646344D01*
X62073656Y-111522288D01*
X61934681Y-111436568D01*
X61924336Y-111430187D01*
X61924335Y-111430186D01*
X61924334Y-111430186D01*
X61842427Y-111403044D01*
X61784984Y-111363272D01*
X61758161Y-111298756D01*
X61770476Y-111229980D01*
X61808547Y-111185021D01*
X61902219Y-111116966D01*
X62046966Y-110972219D01*
X62046968Y-110972215D01*
X62046971Y-110972213D01*
X62127447Y-110861445D01*
X62167287Y-110806610D01*
X62260220Y-110624219D01*
X62323477Y-110429534D01*
X62355500Y-110227352D01*
X62355500Y-110022648D01*
X62348675Y-109979558D01*
X62323477Y-109820465D01*
X62283453Y-109697284D01*
X62260220Y-109625781D01*
X62260218Y-109625778D01*
X62260218Y-109625776D01*
X62212588Y-109532298D01*
X62167287Y-109443390D01*
X62137942Y-109403000D01*
X62046971Y-109277786D01*
X61902213Y-109133028D01*
X61848592Y-109094071D01*
X66345000Y-109094071D01*
X66345000Y-109345928D01*
X66384397Y-109594669D01*
X66462219Y-109834184D01*
X66576557Y-110058583D01*
X66650748Y-110160697D01*
X66650748Y-110160698D01*
X67421212Y-109390234D01*
X67432482Y-109432292D01*
X67504890Y-109557708D01*
X67607292Y-109660110D01*
X67732708Y-109732518D01*
X67774765Y-109743787D01*
X67004300Y-110514250D01*
X67106416Y-110588442D01*
X67330815Y-110702780D01*
X67570330Y-110780602D01*
X67819072Y-110820000D01*
X68070928Y-110820000D01*
X68319669Y-110780602D01*
X68559184Y-110702780D01*
X68783575Y-110588446D01*
X68783581Y-110588442D01*
X68885697Y-110514250D01*
X68885698Y-110514250D01*
X68115234Y-109743787D01*
X68157292Y-109732518D01*
X68282708Y-109660110D01*
X68385110Y-109557708D01*
X68457518Y-109432292D01*
X68468787Y-109390235D01*
X69239250Y-110160698D01*
X69239250Y-110160697D01*
X69313442Y-110058581D01*
X69313446Y-110058575D01*
X69427780Y-109834184D01*
X69505602Y-109594669D01*
X69545000Y-109345928D01*
X69545000Y-109094071D01*
X69505602Y-108845330D01*
X69427780Y-108605815D01*
X69313442Y-108381416D01*
X69239250Y-108279301D01*
X69239250Y-108279300D01*
X68468787Y-109049764D01*
X68457518Y-109007708D01*
X68385110Y-108882292D01*
X68282708Y-108779890D01*
X68157292Y-108707482D01*
X68115232Y-108696212D01*
X68885698Y-107925748D01*
X68783583Y-107851557D01*
X68559184Y-107737219D01*
X68319669Y-107659397D01*
X68070928Y-107620000D01*
X67819072Y-107620000D01*
X67570330Y-107659397D01*
X67330815Y-107737219D01*
X67106413Y-107851559D01*
X67004301Y-107925747D01*
X67004300Y-107925748D01*
X67774765Y-108696212D01*
X67732708Y-108707482D01*
X67607292Y-108779890D01*
X67504890Y-108882292D01*
X67432482Y-109007708D01*
X67421212Y-109049765D01*
X66650748Y-108279300D01*
X66650747Y-108279301D01*
X66576559Y-108381413D01*
X66462219Y-108605815D01*
X66384397Y-108845330D01*
X66345000Y-109094071D01*
X61848592Y-109094071D01*
X61736611Y-109012713D01*
X61643369Y-108965203D01*
X61592574Y-108917229D01*
X61575779Y-108849407D01*
X61598317Y-108783273D01*
X61643371Y-108744234D01*
X61736346Y-108696861D01*
X61736347Y-108696861D01*
X61780921Y-108664474D01*
X61101447Y-107985000D01*
X61107661Y-107985000D01*
X61209394Y-107957741D01*
X61300606Y-107905080D01*
X61375080Y-107830606D01*
X61427741Y-107739394D01*
X61455000Y-107637661D01*
X61455000Y-107631447D01*
X62134474Y-108310921D01*
X62166859Y-108266349D01*
X62259754Y-108084031D01*
X62308280Y-107934689D01*
X62322990Y-107889417D01*
X62355000Y-107687317D01*
X62355000Y-107482682D01*
X62322990Y-107280582D01*
X62259755Y-107085968D01*
X62166859Y-106903650D01*
X62134474Y-106859077D01*
X62134474Y-106859076D01*
X61455000Y-107538551D01*
X61455000Y-107532339D01*
X61427741Y-107430606D01*
X61375080Y-107339394D01*
X61300606Y-107264920D01*
X61209394Y-107212259D01*
X61107661Y-107185000D01*
X61101446Y-107185000D01*
X61780922Y-106505524D01*
X61780921Y-106505523D01*
X61736359Y-106473147D01*
X61736350Y-106473141D01*
X61643369Y-106425765D01*
X61592573Y-106377790D01*
X61575778Y-106309969D01*
X61598315Y-106243835D01*
X61643370Y-106204795D01*
X61643920Y-106204515D01*
X61736610Y-106157287D01*
X61857631Y-106069361D01*
X61902213Y-106036971D01*
X61902215Y-106036968D01*
X61902219Y-106036966D01*
X62046966Y-105892219D01*
X62046968Y-105892215D01*
X62046971Y-105892213D01*
X62153545Y-105745524D01*
X62167287Y-105726610D01*
X62260220Y-105544219D01*
X62323477Y-105349534D01*
X62355500Y-105147352D01*
X62355500Y-104942648D01*
X62346466Y-104885611D01*
X62323477Y-104740465D01*
X62260218Y-104545776D01*
X62205465Y-104438319D01*
X62167287Y-104363390D01*
X62155639Y-104347358D01*
X62046971Y-104197786D01*
X61902213Y-104053028D01*
X61736614Y-103932715D01*
X61730006Y-103929348D01*
X61643917Y-103885483D01*
X61593123Y-103837511D01*
X61576328Y-103769690D01*
X61598865Y-103703555D01*
X61643917Y-103664516D01*
X61736610Y-103617287D01*
X61818679Y-103557661D01*
X61902213Y-103496971D01*
X61902215Y-103496968D01*
X61902219Y-103496966D01*
X61957366Y-103441819D01*
X62018689Y-103408334D01*
X62045047Y-103405500D01*
X65681308Y-103405500D01*
X65858692Y-103405500D01*
X66520638Y-103405500D01*
X66587677Y-103425185D01*
X66608319Y-103441819D01*
X71689504Y-108523003D01*
X76770536Y-113604035D01*
X76850157Y-113683656D01*
X76895966Y-113729465D01*
X76966308Y-113776466D01*
X77043453Y-113828013D01*
X77043454Y-113828013D01*
X77043455Y-113828014D01*
X77043457Y-113828015D01*
X77086821Y-113845977D01*
X77086822Y-113845977D01*
X77207334Y-113895895D01*
X77378845Y-113930010D01*
X77381303Y-113930499D01*
X77381307Y-113930500D01*
X77381308Y-113930500D01*
X80098693Y-113930500D01*
X80098694Y-113930499D01*
X80272666Y-113895895D01*
X80354606Y-113861953D01*
X80436547Y-113828013D01*
X80527332Y-113767352D01*
X80584036Y-113729464D01*
X86696681Y-107616819D01*
X86758004Y-107583334D01*
X86784362Y-107580500D01*
X97563693Y-107580500D01*
X97563694Y-107580499D01*
X97737666Y-107545895D01*
X97834117Y-107505943D01*
X97901547Y-107478013D01*
X98012946Y-107403578D01*
X98049036Y-107379464D01*
X100707819Y-104720679D01*
X100769142Y-104687195D01*
X100838834Y-104692179D01*
X100894767Y-104734051D01*
X100919184Y-104799515D01*
X100919500Y-104808361D01*
X100919500Y-105745523D01*
X100899815Y-105812562D01*
X100847011Y-105858317D01*
X100819865Y-105865766D01*
X100820068Y-105866624D01*
X100812520Y-105868407D01*
X100677671Y-105918702D01*
X100677664Y-105918706D01*
X100562455Y-106004952D01*
X100562452Y-106004955D01*
X100476206Y-106120164D01*
X100476202Y-106120171D01*
X100425908Y-106255017D01*
X100419501Y-106314616D01*
X100419501Y-106314623D01*
X100419500Y-106314635D01*
X100419500Y-108315370D01*
X100419501Y-108315376D01*
X100425908Y-108374983D01*
X100476202Y-108509828D01*
X100476206Y-108509835D01*
X100562452Y-108625044D01*
X100562455Y-108625047D01*
X100677664Y-108711293D01*
X100677669Y-108711296D01*
X100685771Y-108714318D01*
X100741704Y-108756190D01*
X100766121Y-108821654D01*
X100751269Y-108889927D01*
X100701864Y-108939332D01*
X100642437Y-108954500D01*
X97701303Y-108954500D01*
X97527341Y-108989103D01*
X97527329Y-108989106D01*
X97445392Y-109023045D01*
X97445393Y-109023046D01*
X97363455Y-109056985D01*
X97340073Y-109072609D01*
X97308865Y-109093462D01*
X97295439Y-109102433D01*
X97215961Y-109155537D01*
X94959187Y-111412311D01*
X94897864Y-111445796D01*
X94852108Y-111447103D01*
X94740967Y-111429500D01*
X94740962Y-111429500D01*
X94489038Y-111429500D01*
X94422738Y-111440001D01*
X94240214Y-111468910D01*
X94000616Y-111546760D01*
X93776151Y-111661132D01*
X93572350Y-111809201D01*
X93572345Y-111809205D01*
X93394205Y-111987345D01*
X93394201Y-111987350D01*
X93246132Y-112191151D01*
X93131760Y-112415616D01*
X93053910Y-112655214D01*
X93014500Y-112904038D01*
X93014500Y-113155967D01*
X93032103Y-113267108D01*
X93023148Y-113336402D01*
X92997311Y-113374187D01*
X92645537Y-113725961D01*
X92611243Y-113777287D01*
X92606734Y-113784036D01*
X92546987Y-113873453D01*
X92523561Y-113930010D01*
X92520673Y-113936981D01*
X92520669Y-113936989D01*
X92479105Y-114037333D01*
X92479103Y-114037341D01*
X92453611Y-114165501D01*
X92444500Y-114211304D01*
X92444500Y-117754953D01*
X92424815Y-117821992D01*
X92408181Y-117842634D01*
X92353032Y-117897782D01*
X92353028Y-117897786D01*
X92232715Y-118063386D01*
X92139781Y-118245776D01*
X92076522Y-118440465D01*
X92044500Y-118642648D01*
X92044500Y-118847351D01*
X92076522Y-119049534D01*
X92139781Y-119244223D01*
X92232715Y-119426613D01*
X92353028Y-119592213D01*
X92497786Y-119736971D01*
X92652749Y-119849556D01*
X92663390Y-119857287D01*
X92779607Y-119916503D01*
X92845776Y-119950218D01*
X92845778Y-119950218D01*
X92845781Y-119950220D01*
X92950137Y-119984127D01*
X93040465Y-120013477D01*
X93141557Y-120029488D01*
X93242648Y-120045500D01*
X93242649Y-120045500D01*
X93447351Y-120045500D01*
X93447352Y-120045500D01*
X93649534Y-120013477D01*
X93844219Y-119950220D01*
X94026610Y-119857287D01*
X94119590Y-119789732D01*
X94192213Y-119736971D01*
X94192215Y-119736968D01*
X94192219Y-119736966D01*
X94336966Y-119592219D01*
X94336968Y-119592215D01*
X94336971Y-119592213D01*
X94389732Y-119519590D01*
X94457287Y-119426610D01*
X94550220Y-119244219D01*
X94613477Y-119049534D01*
X94645500Y-118847352D01*
X94645500Y-118642648D01*
X94613477Y-118440466D01*
X94550220Y-118245781D01*
X94550218Y-118245778D01*
X94550218Y-118245776D01*
X94508923Y-118164732D01*
X94457287Y-118063390D01*
X94415228Y-118005500D01*
X94336971Y-117897786D01*
X94281819Y-117842634D01*
X94248334Y-117781311D01*
X94245500Y-117754953D01*
X94245500Y-114737112D01*
X94265185Y-114670073D01*
X94317989Y-114624318D01*
X94387147Y-114614374D01*
X94388861Y-114614633D01*
X94489038Y-114630500D01*
X94489039Y-114630500D01*
X94740961Y-114630500D01*
X94740962Y-114630500D01*
X94989785Y-114591090D01*
X95229379Y-114513241D01*
X95453845Y-114398870D01*
X95657656Y-114250793D01*
X95835793Y-114072656D01*
X95983870Y-113868845D01*
X96098241Y-113644379D01*
X96176090Y-113404785D01*
X96215500Y-113155962D01*
X96215500Y-112904038D01*
X96197895Y-112792887D01*
X96206849Y-112723597D01*
X96232684Y-112685814D01*
X98126681Y-110791819D01*
X98188004Y-110758334D01*
X98214362Y-110755500D01*
X100667705Y-110755500D01*
X100734744Y-110775185D01*
X100761991Y-110798963D01*
X100764212Y-110801563D01*
X100764214Y-110801566D01*
X100925934Y-110963286D01*
X100995423Y-111013773D01*
X101010438Y-111024682D01*
X101053103Y-111080013D01*
X101059082Y-111149626D01*
X101026476Y-111211421D01*
X101010438Y-111225318D01*
X100925932Y-111286715D01*
X100764216Y-111448431D01*
X100764216Y-111448432D01*
X100764214Y-111448434D01*
X100730247Y-111495186D01*
X100629783Y-111633461D01*
X100525951Y-111837243D01*
X100455278Y-112054750D01*
X100455278Y-112054753D01*
X100429354Y-112218433D01*
X100419500Y-112280646D01*
X100419500Y-112509354D01*
X100426368Y-112552715D01*
X100455278Y-112735246D01*
X100455278Y-112735249D01*
X100525950Y-112952755D01*
X100588135Y-113074799D01*
X100629783Y-113156538D01*
X100764214Y-113341566D01*
X100925934Y-113503286D01*
X101110962Y-113637717D01*
X101284151Y-113725961D01*
X101314744Y-113741549D01*
X101532251Y-113812221D01*
X101532252Y-113812221D01*
X101532255Y-113812222D01*
X101758146Y-113848000D01*
X101758147Y-113848000D01*
X102081853Y-113848000D01*
X102081854Y-113848000D01*
X102307745Y-113812222D01*
X102307748Y-113812221D01*
X102307749Y-113812221D01*
X102525255Y-113741549D01*
X102525255Y-113741548D01*
X102525258Y-113741548D01*
X102729038Y-113637717D01*
X102914066Y-113503286D01*
X103075786Y-113341566D01*
X103210217Y-113156538D01*
X103314048Y-112952758D01*
X103375056Y-112764995D01*
X103384721Y-112735249D01*
X103384721Y-112735248D01*
X103384722Y-112735245D01*
X103420500Y-112509354D01*
X103420500Y-112280646D01*
X103384722Y-112054755D01*
X103384721Y-112054751D01*
X103384721Y-112054750D01*
X103314049Y-111837243D01*
X103230377Y-111673028D01*
X103210217Y-111633462D01*
X103075786Y-111448434D01*
X102914066Y-111286714D01*
X102829559Y-111225316D01*
X102786896Y-111169988D01*
X102780917Y-111100375D01*
X102813523Y-111038580D01*
X102829556Y-111024685D01*
X102914066Y-110963286D01*
X103075786Y-110801566D01*
X103075793Y-110801555D01*
X103078009Y-110798963D01*
X103079103Y-110798248D01*
X103079231Y-110798121D01*
X103079257Y-110798147D01*
X103136518Y-110760773D01*
X103172295Y-110755500D01*
X115728804Y-110755500D01*
X115795843Y-110775185D01*
X115836190Y-110817499D01*
X115891401Y-110913127D01*
X115891403Y-110913130D01*
X115891404Y-110913131D01*
X116043060Y-111110774D01*
X116043066Y-111110781D01*
X116219218Y-111286933D01*
X116219225Y-111286939D01*
X116416873Y-111438599D01*
X116632623Y-111563162D01*
X116632638Y-111563169D01*
X116717412Y-111598283D01*
X116862793Y-111658502D01*
X117103435Y-111722982D01*
X117350435Y-111755500D01*
X117350442Y-111755500D01*
X117599558Y-111755500D01*
X117599565Y-111755500D01*
X117846565Y-111722982D01*
X118087207Y-111658502D01*
X118317373Y-111563164D01*
X118533127Y-111438599D01*
X118730776Y-111286938D01*
X118906938Y-111110776D01*
X119058599Y-110913127D01*
X119183164Y-110697373D01*
X119278502Y-110467207D01*
X119342982Y-110226565D01*
X119375500Y-109979565D01*
X119375500Y-109730435D01*
X119342982Y-109483435D01*
X119278502Y-109242793D01*
X119212820Y-109084223D01*
X119183169Y-109012638D01*
X119183162Y-109012623D01*
X119058599Y-108796873D01*
X118906939Y-108599225D01*
X118906933Y-108599218D01*
X118730781Y-108423066D01*
X118730774Y-108423060D01*
X118533126Y-108271400D01*
X118317376Y-108146837D01*
X118317361Y-108146830D01*
X118087207Y-108051498D01*
X117846561Y-107987017D01*
X117599575Y-107954501D01*
X117599570Y-107954500D01*
X117599565Y-107954500D01*
X117350435Y-107954500D01*
X117350429Y-107954500D01*
X117350424Y-107954501D01*
X117103438Y-107987017D01*
X116862792Y-108051498D01*
X116632638Y-108146830D01*
X116632623Y-108146837D01*
X116416873Y-108271400D01*
X116219225Y-108423060D01*
X116219218Y-108423066D01*
X116043066Y-108599218D01*
X116043060Y-108599225D01*
X115891404Y-108796868D01*
X115891401Y-108796872D01*
X115891401Y-108796873D01*
X115837677Y-108889927D01*
X115836191Y-108892500D01*
X115785624Y-108940716D01*
X115728804Y-108954500D01*
X103197563Y-108954500D01*
X103130524Y-108934815D01*
X103084769Y-108882011D01*
X103074825Y-108812853D01*
X103103850Y-108749297D01*
X103154229Y-108714318D01*
X103156580Y-108713440D01*
X103162331Y-108711296D01*
X103277546Y-108625046D01*
X103363796Y-108509831D01*
X103414091Y-108374983D01*
X103420500Y-108315373D01*
X103420499Y-106314628D01*
X103414091Y-106255017D01*
X103413148Y-106252490D01*
X103363797Y-106120171D01*
X103363793Y-106120164D01*
X103277547Y-106004955D01*
X103277544Y-106004952D01*
X103162335Y-105918706D01*
X103162328Y-105918702D01*
X103027482Y-105868408D01*
X103019938Y-105866626D01*
X103020474Y-105864353D01*
X102966688Y-105842071D01*
X102926843Y-105784677D01*
X102920500Y-105745524D01*
X102920500Y-102700782D01*
X102940185Y-102633743D01*
X102956819Y-102613101D01*
X109918102Y-95651819D01*
X109979425Y-95618334D01*
X110005783Y-95615500D01*
X122724218Y-95615500D01*
X122791257Y-95635185D01*
X122811899Y-95651819D01*
X124988651Y-97828571D01*
X125022136Y-97889894D01*
X125017152Y-97959586D01*
X125000239Y-97990560D01*
X124976205Y-98022666D01*
X124976202Y-98022671D01*
X124925908Y-98157517D01*
X124921593Y-98197656D01*
X124919501Y-98217123D01*
X124919500Y-98217135D01*
X124919500Y-103712870D01*
X124919501Y-103712876D01*
X124925908Y-103772483D01*
X124976202Y-103907328D01*
X124976206Y-103907335D01*
X125062452Y-104022544D01*
X125062455Y-104022547D01*
X125177664Y-104108793D01*
X125177671Y-104108797D01*
X125312517Y-104159091D01*
X125312516Y-104159091D01*
X125319444Y-104159835D01*
X125372127Y-104165500D01*
X128367872Y-104165499D01*
X128427483Y-104159091D01*
X128562331Y-104108796D01*
X128677546Y-104022546D01*
X128763796Y-103907331D01*
X128814091Y-103772483D01*
X128820500Y-103712873D01*
X128820499Y-98217128D01*
X128814091Y-98157517D01*
X128793223Y-98101568D01*
X128763797Y-98022671D01*
X128763793Y-98022664D01*
X128677547Y-97907455D01*
X128677544Y-97907452D01*
X128562335Y-97821206D01*
X128562328Y-97821202D01*
X128427482Y-97770908D01*
X128427483Y-97770908D01*
X128367883Y-97764501D01*
X128367881Y-97764500D01*
X128367873Y-97764500D01*
X128367865Y-97764500D01*
X127521007Y-97764500D01*
X127490541Y-97755554D01*
X127459648Y-97748254D01*
X127457263Y-97745782D01*
X127453968Y-97744815D01*
X127433178Y-97720822D01*
X127411132Y-97697975D01*
X127409587Y-97693597D01*
X127408213Y-97692011D01*
X127399390Y-97664692D01*
X127397087Y-97653116D01*
X127391890Y-97626987D01*
X127376002Y-97547115D01*
X127321367Y-97415215D01*
X127309957Y-97387669D01*
X127300586Y-97365044D01*
X127300585Y-97365043D01*
X127300583Y-97365037D01*
X127244406Y-97280962D01*
X127191090Y-97201168D01*
X127048637Y-97058715D01*
X127048606Y-97058686D01*
X124052101Y-94062181D01*
X124018616Y-94000858D01*
X124023600Y-93931166D01*
X124065472Y-93875233D01*
X124130936Y-93850816D01*
X124139782Y-93850500D01*
X132685500Y-93850500D01*
X132752539Y-93870185D01*
X132798294Y-93922989D01*
X132809500Y-93974500D01*
X132809500Y-100204832D01*
X132805783Y-100219345D01*
X132806626Y-100231377D01*
X132796780Y-100254508D01*
X132794241Y-100264426D01*
X132791624Y-100269200D01*
X132731987Y-100358453D01*
X132701377Y-100432352D01*
X132698797Y-100438578D01*
X132698796Y-100438582D01*
X132664105Y-100522333D01*
X132664103Y-100522341D01*
X132629500Y-100696303D01*
X132629500Y-100892796D01*
X132609815Y-100959835D01*
X132593181Y-100980477D01*
X128030477Y-105543181D01*
X127969154Y-105576666D01*
X127942796Y-105579500D01*
X123192204Y-105579500D01*
X123125165Y-105559815D01*
X123104523Y-105543181D01*
X118956818Y-101395476D01*
X118923333Y-101334153D01*
X118920499Y-101307795D01*
X118920499Y-98217129D01*
X118920498Y-98217123D01*
X118920497Y-98217116D01*
X118914091Y-98157517D01*
X118893223Y-98101568D01*
X118863797Y-98022671D01*
X118863793Y-98022664D01*
X118777547Y-97907455D01*
X118777544Y-97907452D01*
X118662335Y-97821206D01*
X118662328Y-97821202D01*
X118527482Y-97770908D01*
X118527483Y-97770908D01*
X118467883Y-97764501D01*
X118467881Y-97764500D01*
X118467873Y-97764500D01*
X118467864Y-97764500D01*
X115472129Y-97764500D01*
X115472123Y-97764501D01*
X115412516Y-97770908D01*
X115277671Y-97821202D01*
X115277664Y-97821206D01*
X115162455Y-97907452D01*
X115162452Y-97907455D01*
X115076206Y-98022664D01*
X115076202Y-98022671D01*
X115025908Y-98157517D01*
X115021593Y-98197656D01*
X115019501Y-98217123D01*
X115019500Y-98217135D01*
X115019500Y-103712870D01*
X115019501Y-103712876D01*
X115025908Y-103772483D01*
X115076202Y-103907328D01*
X115076206Y-103907335D01*
X115162452Y-104022544D01*
X115162455Y-104022547D01*
X115277664Y-104108793D01*
X115277671Y-104108797D01*
X115412517Y-104159091D01*
X115412516Y-104159091D01*
X115419444Y-104159835D01*
X115472127Y-104165500D01*
X118467872Y-104165499D01*
X118527483Y-104159091D01*
X118527482Y-104159091D01*
X118535196Y-104158262D01*
X118535405Y-104160208D01*
X118594853Y-104163383D01*
X118641305Y-104192647D01*
X121968068Y-107519411D01*
X121968070Y-107519413D01*
X121968073Y-107519415D01*
X121973631Y-107523453D01*
X122108212Y-107621232D01*
X122230845Y-107683716D01*
X122262550Y-107699871D01*
X122262552Y-107699871D01*
X122262555Y-107699873D01*
X122427300Y-107753403D01*
X122571292Y-107776208D01*
X122598389Y-107780500D01*
X128536610Y-107780500D01*
X128536611Y-107780500D01*
X128707701Y-107753402D01*
X128872445Y-107699873D01*
X129026788Y-107621232D01*
X129166928Y-107519414D01*
X132417819Y-104268523D01*
X132479142Y-104235038D01*
X132548834Y-104240022D01*
X132604767Y-104281894D01*
X132629184Y-104347358D01*
X132629500Y-104356204D01*
X132629500Y-112151394D01*
X132609815Y-112218433D01*
X132580986Y-112249770D01*
X132406377Y-112383751D01*
X132406370Y-112383757D01*
X132248757Y-112541370D01*
X132248751Y-112541377D01*
X132113058Y-112718217D01*
X132113052Y-112718226D01*
X132001595Y-112911273D01*
X132001593Y-112911277D01*
X131916293Y-113117209D01*
X131916290Y-113117219D01*
X131869937Y-113290214D01*
X131858597Y-113332534D01*
X131858594Y-113332547D01*
X131829501Y-113553533D01*
X131829500Y-113553549D01*
X131829500Y-113776450D01*
X131829501Y-113776466D01*
X131858594Y-113997452D01*
X131858595Y-113997457D01*
X131858596Y-113997463D01*
X131915896Y-114211309D01*
X131916290Y-114212780D01*
X131916293Y-114212790D01*
X131993369Y-114398867D01*
X132001595Y-114418726D01*
X132113052Y-114611774D01*
X132113057Y-114611780D01*
X132113058Y-114611782D01*
X132248751Y-114788622D01*
X132248757Y-114788629D01*
X132406370Y-114946242D01*
X132406377Y-114946248D01*
X132471165Y-114995961D01*
X132583226Y-115081948D01*
X132776274Y-115193405D01*
X132982219Y-115278710D01*
X133197537Y-115336404D01*
X133418543Y-115365500D01*
X133418550Y-115365500D01*
X133641450Y-115365500D01*
X133641457Y-115365500D01*
X133862463Y-115336404D01*
X134077781Y-115278710D01*
X134283726Y-115193405D01*
X134476774Y-115081948D01*
X134653624Y-114946247D01*
X134811247Y-114788624D01*
X134946948Y-114611774D01*
X135058405Y-114418726D01*
X135143710Y-114212781D01*
X135201404Y-113997463D01*
X135230500Y-113776457D01*
X135230500Y-113553543D01*
X135201404Y-113332537D01*
X135143710Y-113117219D01*
X135058405Y-112911274D01*
X134946948Y-112718226D01*
X134873376Y-112622344D01*
X134811248Y-112541377D01*
X134811242Y-112541370D01*
X134653629Y-112383757D01*
X134653622Y-112383751D01*
X134479014Y-112249770D01*
X134437811Y-112193342D01*
X134430500Y-112151394D01*
X134430500Y-102273140D01*
X134450185Y-102206101D01*
X134454164Y-102200279D01*
X134471232Y-102176788D01*
X134549873Y-102022445D01*
X134597023Y-101877333D01*
X134600647Y-101866181D01*
X134640085Y-101808506D01*
X134704444Y-101781308D01*
X134718578Y-101780500D01*
X140889039Y-101780500D01*
X140956078Y-101800185D01*
X140996425Y-101842499D01*
X141035564Y-101910289D01*
X141035567Y-101910293D01*
X141035570Y-101910297D01*
X141183233Y-102102736D01*
X141183239Y-102102743D01*
X141354756Y-102274260D01*
X141354763Y-102274266D01*
X141444825Y-102343373D01*
X141547211Y-102421936D01*
X141757288Y-102543224D01*
X141981400Y-102636054D01*
X142215711Y-102698838D01*
X142376440Y-102719998D01*
X142456211Y-102730500D01*
X142456212Y-102730500D01*
X142698789Y-102730500D01*
X142778552Y-102719999D01*
X142939289Y-102698838D01*
X143173600Y-102636054D01*
X143397712Y-102543224D01*
X143607789Y-102421936D01*
X143800238Y-102274265D01*
X143971765Y-102102738D01*
X144119436Y-101910289D01*
X144240724Y-101700212D01*
X144333554Y-101476100D01*
X144396338Y-101241789D01*
X144428000Y-101001288D01*
X144428000Y-100758712D01*
X144396338Y-100518211D01*
X144333554Y-100283900D01*
X144240724Y-100059788D01*
X144119436Y-99849711D01*
X144027722Y-99730187D01*
X143971766Y-99657263D01*
X143971760Y-99657256D01*
X143800243Y-99485739D01*
X143800236Y-99485733D01*
X143607793Y-99338067D01*
X143607792Y-99338066D01*
X143607789Y-99338064D01*
X143397712Y-99216776D01*
X143397705Y-99216773D01*
X143173604Y-99123947D01*
X143056444Y-99092554D01*
X142939289Y-99061162D01*
X142939288Y-99061161D01*
X142939285Y-99061161D01*
X142698789Y-99029500D01*
X142698788Y-99029500D01*
X142456212Y-99029500D01*
X142456211Y-99029500D01*
X142215714Y-99061161D01*
X141981395Y-99123947D01*
X141757294Y-99216773D01*
X141757285Y-99216777D01*
X141593495Y-99311342D01*
X141552820Y-99334826D01*
X141547206Y-99338067D01*
X141354763Y-99485733D01*
X141354756Y-99485739D01*
X141183239Y-99657256D01*
X141183233Y-99657263D01*
X141035570Y-99849702D01*
X141035560Y-99849717D01*
X141013644Y-99887677D01*
X140999924Y-99911442D01*
X140996426Y-99917500D01*
X140945859Y-99965716D01*
X140889039Y-99979500D01*
X134734500Y-99979500D01*
X134667461Y-99959815D01*
X134621706Y-99907011D01*
X134610500Y-99855500D01*
X134610500Y-93974500D01*
X134630185Y-93907461D01*
X134682989Y-93861706D01*
X134734500Y-93850500D01*
X155185500Y-93850500D01*
X155252539Y-93870185D01*
X155298294Y-93922989D01*
X155309500Y-93974500D01*
X155309500Y-99820638D01*
X155300855Y-99850078D01*
X155294332Y-99880065D01*
X155290577Y-99885080D01*
X155289815Y-99887677D01*
X155273181Y-99908319D01*
X155238319Y-99943181D01*
X155176996Y-99976666D01*
X155150638Y-99979500D01*
X148512000Y-99979500D01*
X148444961Y-99959815D01*
X148399206Y-99907011D01*
X148388000Y-99855500D01*
X148388000Y-99729997D01*
X148387999Y-99729984D01*
X148384269Y-99693477D01*
X148377499Y-99627203D01*
X148322314Y-99460666D01*
X148322313Y-99460664D01*
X148322312Y-99460662D01*
X148230213Y-99311348D01*
X148230210Y-99311344D01*
X148106155Y-99187289D01*
X148106151Y-99187286D01*
X147956837Y-99095187D01*
X147956835Y-99095186D01*
X147864230Y-99064500D01*
X147790297Y-99040001D01*
X147790295Y-99040000D01*
X147687515Y-99029500D01*
X147687508Y-99029500D01*
X145387492Y-99029500D01*
X145387484Y-99029500D01*
X145284704Y-99040000D01*
X145284703Y-99040001D01*
X145118164Y-99095186D01*
X145118162Y-99095187D01*
X144968848Y-99187286D01*
X144968844Y-99187289D01*
X144844789Y-99311344D01*
X144844786Y-99311348D01*
X144752687Y-99460662D01*
X144752686Y-99460664D01*
X144697501Y-99627203D01*
X144697500Y-99627204D01*
X144687000Y-99729984D01*
X144687000Y-102030015D01*
X144697500Y-102132795D01*
X144697501Y-102132797D01*
X144715923Y-102188390D01*
X144752686Y-102299335D01*
X144752687Y-102299337D01*
X144844786Y-102448651D01*
X144844789Y-102448655D01*
X144968844Y-102572710D01*
X144968848Y-102572713D01*
X145118162Y-102664812D01*
X145118164Y-102664813D01*
X145118166Y-102664814D01*
X145284703Y-102719999D01*
X145387492Y-102730500D01*
X145387497Y-102730500D01*
X147687503Y-102730500D01*
X147687508Y-102730500D01*
X147790297Y-102719999D01*
X147956834Y-102664814D01*
X148106155Y-102572711D01*
X148230211Y-102448655D01*
X148322314Y-102299334D01*
X148377499Y-102132797D01*
X148388000Y-102030008D01*
X148388000Y-101904500D01*
X148407685Y-101837461D01*
X148460489Y-101791706D01*
X148512000Y-101780500D01*
X155005500Y-101780500D01*
X155072539Y-101800185D01*
X155118294Y-101852989D01*
X155129500Y-101904500D01*
X155129500Y-112151394D01*
X155109815Y-112218433D01*
X155080986Y-112249770D01*
X154906377Y-112383751D01*
X154906370Y-112383757D01*
X154748757Y-112541370D01*
X154748751Y-112541377D01*
X154613058Y-112718217D01*
X154613052Y-112718226D01*
X154501595Y-112911273D01*
X154501593Y-112911277D01*
X154416293Y-113117209D01*
X154416290Y-113117219D01*
X154369937Y-113290214D01*
X154358597Y-113332534D01*
X154358594Y-113332547D01*
X154329501Y-113553533D01*
X154329500Y-113553549D01*
X154329500Y-113776450D01*
X154329501Y-113776466D01*
X154358594Y-113997452D01*
X154358595Y-113997457D01*
X154358596Y-113997463D01*
X154415896Y-114211309D01*
X154416290Y-114212780D01*
X154416293Y-114212790D01*
X154493369Y-114398867D01*
X154501595Y-114418726D01*
X154613052Y-114611774D01*
X154613057Y-114611780D01*
X154613058Y-114611782D01*
X154748751Y-114788622D01*
X154748757Y-114788629D01*
X154906370Y-114946242D01*
X154906377Y-114946248D01*
X154971165Y-114995961D01*
X155083226Y-115081948D01*
X155276274Y-115193405D01*
X155482219Y-115278710D01*
X155697537Y-115336404D01*
X155918543Y-115365500D01*
X155918550Y-115365500D01*
X156141450Y-115365500D01*
X156141457Y-115365500D01*
X156362463Y-115336404D01*
X156577781Y-115278710D01*
X156783726Y-115193405D01*
X156976774Y-115081948D01*
X157153624Y-114946247D01*
X157311247Y-114788624D01*
X157446948Y-114611774D01*
X157558405Y-114418726D01*
X157643710Y-114212781D01*
X157701404Y-113997463D01*
X157730500Y-113776457D01*
X157730500Y-113553543D01*
X157701404Y-113332537D01*
X157643710Y-113117219D01*
X157558405Y-112911274D01*
X157446948Y-112718226D01*
X157373376Y-112622344D01*
X157311248Y-112541377D01*
X157311242Y-112541370D01*
X157153629Y-112383757D01*
X157153622Y-112383751D01*
X156979014Y-112249770D01*
X156937811Y-112193342D01*
X156930500Y-112151394D01*
X156930500Y-102024361D01*
X156937260Y-102001335D01*
X156939711Y-101977463D01*
X156947879Y-101965173D01*
X156950185Y-101957322D01*
X156957573Y-101947023D01*
X156961903Y-101941595D01*
X156994464Y-101909035D01*
X157025447Y-101862666D01*
X157093013Y-101761547D01*
X157124052Y-101686611D01*
X157160895Y-101597666D01*
X157195500Y-101423691D01*
X157195500Y-101354500D01*
X157215185Y-101287461D01*
X157267989Y-101241706D01*
X157319500Y-101230500D01*
X163155501Y-101230500D01*
X163222540Y-101250185D01*
X163268295Y-101302989D01*
X163279501Y-101354500D01*
X163279501Y-103077876D01*
X163285908Y-103137483D01*
X163336202Y-103272328D01*
X163336206Y-103272335D01*
X163422452Y-103387544D01*
X163422455Y-103387547D01*
X163537664Y-103473793D01*
X163537671Y-103473797D01*
X163672517Y-103524091D01*
X163672516Y-103524091D01*
X163679444Y-103524835D01*
X163732127Y-103530500D01*
X166727872Y-103530499D01*
X166787483Y-103524091D01*
X166922331Y-103473796D01*
X167037546Y-103387546D01*
X167123796Y-103272331D01*
X167174091Y-103137483D01*
X167180500Y-103077873D01*
X167180499Y-97582128D01*
X167174091Y-97522517D01*
X167163919Y-97495245D01*
X167123797Y-97387671D01*
X167123793Y-97387664D01*
X167037547Y-97272455D01*
X167037544Y-97272452D01*
X166922335Y-97186206D01*
X166922328Y-97186202D01*
X166787482Y-97135908D01*
X166787483Y-97135908D01*
X166727883Y-97129501D01*
X166727881Y-97129500D01*
X166727873Y-97129500D01*
X166727864Y-97129500D01*
X163732129Y-97129500D01*
X163732123Y-97129501D01*
X163672516Y-97135908D01*
X163537671Y-97186202D01*
X163537664Y-97186206D01*
X163422455Y-97272452D01*
X163422452Y-97272455D01*
X163336206Y-97387664D01*
X163336202Y-97387671D01*
X163285908Y-97522517D01*
X163279501Y-97582116D01*
X163279501Y-97582123D01*
X163279500Y-97582135D01*
X163279500Y-99305500D01*
X163259815Y-99372539D01*
X163207011Y-99418294D01*
X163155500Y-99429500D01*
X157234500Y-99429500D01*
X157167461Y-99409815D01*
X157121706Y-99357011D01*
X157110500Y-99305500D01*
X157110500Y-93974500D01*
X157130185Y-93907461D01*
X157182989Y-93861706D01*
X157234500Y-93850500D01*
X170176499Y-93850500D01*
X170176501Y-93850500D01*
X170212563Y-93849212D01*
X170353155Y-93818628D01*
X170463773Y-93758226D01*
X170532043Y-93743375D01*
X170597508Y-93767792D01*
X170610879Y-93779378D01*
X173749320Y-96917819D01*
X173782805Y-96979142D01*
X173777821Y-97048834D01*
X173735949Y-97104767D01*
X173670485Y-97129184D01*
X173661643Y-97129500D01*
X173632131Y-97129500D01*
X173632123Y-97129501D01*
X173572516Y-97135908D01*
X173437671Y-97186202D01*
X173437664Y-97186206D01*
X173322455Y-97272452D01*
X173322452Y-97272455D01*
X173236206Y-97387664D01*
X173236202Y-97387671D01*
X173185908Y-97522517D01*
X173179501Y-97582116D01*
X173179501Y-97582123D01*
X173179500Y-97582135D01*
X173179500Y-103077870D01*
X173179501Y-103077876D01*
X173185908Y-103137483D01*
X173236202Y-103272328D01*
X173236206Y-103272335D01*
X173322452Y-103387544D01*
X173322455Y-103387547D01*
X173437664Y-103473793D01*
X173437671Y-103473797D01*
X173572517Y-103524091D01*
X173572516Y-103524091D01*
X173579444Y-103524835D01*
X173632127Y-103530500D01*
X176627872Y-103530499D01*
X176687483Y-103524091D01*
X176822331Y-103473796D01*
X176937546Y-103387546D01*
X177023796Y-103272331D01*
X177074091Y-103137483D01*
X177080500Y-103077873D01*
X177080500Y-101354500D01*
X177100185Y-101287461D01*
X177152989Y-101241706D01*
X177204500Y-101230500D01*
X184995638Y-101230500D01*
X185062677Y-101250185D01*
X185083319Y-101266819D01*
X186388181Y-102571681D01*
X186421666Y-102633004D01*
X186424500Y-102659362D01*
X186424500Y-106373000D01*
X186404815Y-106440039D01*
X186352011Y-106485794D01*
X186300505Y-106497000D01*
X186277132Y-106497000D01*
X186277123Y-106497001D01*
X186217516Y-106503408D01*
X186082671Y-106553702D01*
X186082664Y-106553706D01*
X185967455Y-106639952D01*
X185967452Y-106639955D01*
X185881206Y-106755164D01*
X185881202Y-106755171D01*
X185830908Y-106890017D01*
X185824501Y-106949616D01*
X185824501Y-106949623D01*
X185824500Y-106949635D01*
X185824500Y-108950370D01*
X185824501Y-108950376D01*
X185830908Y-109009983D01*
X185881202Y-109144828D01*
X185881206Y-109144835D01*
X185967452Y-109260044D01*
X185967455Y-109260047D01*
X186082664Y-109346293D01*
X186082669Y-109346296D01*
X186110539Y-109356690D01*
X186166473Y-109398561D01*
X186190891Y-109464024D01*
X186176040Y-109532298D01*
X186167525Y-109545759D01*
X186034783Y-109728461D01*
X185930950Y-109932244D01*
X185860278Y-110149750D01*
X185860278Y-110149753D01*
X185840000Y-110277781D01*
X185824500Y-110375646D01*
X185824500Y-110604354D01*
X185838534Y-110692959D01*
X185860278Y-110830246D01*
X185860278Y-110830249D01*
X185930950Y-111047755D01*
X185982856Y-111149626D01*
X186034783Y-111251538D01*
X186169214Y-111436566D01*
X186330934Y-111598286D01*
X186371188Y-111627532D01*
X186415438Y-111659682D01*
X186458103Y-111715013D01*
X186464082Y-111784626D01*
X186431476Y-111846421D01*
X186415438Y-111860318D01*
X186330932Y-111921715D01*
X186169216Y-112083431D01*
X186169216Y-112083432D01*
X186169214Y-112083434D01*
X186119838Y-112151394D01*
X186034783Y-112268461D01*
X185930950Y-112472244D01*
X185860278Y-112689750D01*
X185860278Y-112689753D01*
X185853073Y-112735245D01*
X185824500Y-112915646D01*
X185824500Y-113144354D01*
X185829007Y-113172812D01*
X185860278Y-113370246D01*
X185860278Y-113370249D01*
X185930950Y-113587755D01*
X185979814Y-113683656D01*
X186034783Y-113791538D01*
X186169214Y-113976566D01*
X186330934Y-114138286D01*
X186515962Y-114272717D01*
X186660993Y-114346614D01*
X186719744Y-114376549D01*
X186937251Y-114447221D01*
X186937252Y-114447221D01*
X186937255Y-114447222D01*
X187163146Y-114483000D01*
X187163147Y-114483000D01*
X187486853Y-114483000D01*
X187486854Y-114483000D01*
X187712745Y-114447222D01*
X187712748Y-114447221D01*
X187712749Y-114447221D01*
X187930255Y-114376549D01*
X187930255Y-114376548D01*
X187930258Y-114376548D01*
X188134038Y-114272717D01*
X188319066Y-114138286D01*
X188480786Y-113976566D01*
X188615217Y-113791538D01*
X188719048Y-113587758D01*
X188736406Y-113534336D01*
X188789721Y-113370249D01*
X188789721Y-113370248D01*
X188789722Y-113370245D01*
X188825500Y-113144354D01*
X188825500Y-112915646D01*
X188789722Y-112689755D01*
X188789721Y-112689751D01*
X188789721Y-112689750D01*
X188719049Y-112472244D01*
X188711542Y-112457511D01*
X188615217Y-112268462D01*
X188480786Y-112083434D01*
X188319066Y-111921714D01*
X188234559Y-111860316D01*
X188191896Y-111804988D01*
X188185917Y-111735375D01*
X188218523Y-111673580D01*
X188234556Y-111659685D01*
X188319066Y-111598286D01*
X188480786Y-111436566D01*
X188480793Y-111436555D01*
X188483009Y-111433963D01*
X188484103Y-111433248D01*
X188484231Y-111433121D01*
X188484257Y-111433147D01*
X188541518Y-111395773D01*
X188577295Y-111390500D01*
X196425638Y-111390500D01*
X196492677Y-111410185D01*
X196513319Y-111426819D01*
X198407311Y-113320811D01*
X198440796Y-113382134D01*
X198442103Y-113427889D01*
X198424500Y-113539032D01*
X198424500Y-113790961D01*
X198463910Y-114039785D01*
X198541760Y-114279383D01*
X198656132Y-114503848D01*
X198804201Y-114707649D01*
X198804205Y-114707654D01*
X198982345Y-114885794D01*
X198982350Y-114885798D01*
X199133982Y-114995964D01*
X199186155Y-115033870D01*
X199280500Y-115081941D01*
X199410616Y-115148239D01*
X199410618Y-115148239D01*
X199410621Y-115148241D01*
X199650215Y-115226090D01*
X199654890Y-115226830D01*
X199718024Y-115256753D01*
X199754961Y-115316061D01*
X199759500Y-115349304D01*
X199759500Y-117754953D01*
X199739815Y-117821992D01*
X199723181Y-117842634D01*
X199668032Y-117897782D01*
X199668028Y-117897786D01*
X199547715Y-118063386D01*
X199454781Y-118245776D01*
X199391522Y-118440465D01*
X199359500Y-118642648D01*
X199359500Y-118847351D01*
X199391522Y-119049534D01*
X199454781Y-119244223D01*
X199547715Y-119426613D01*
X199668028Y-119592213D01*
X199812786Y-119736971D01*
X199967749Y-119849556D01*
X199978390Y-119857287D01*
X200094607Y-119916503D01*
X200160776Y-119950218D01*
X200160778Y-119950218D01*
X200160781Y-119950220D01*
X200265137Y-119984127D01*
X200355465Y-120013477D01*
X200456557Y-120029488D01*
X200557648Y-120045500D01*
X200557649Y-120045500D01*
X200762351Y-120045500D01*
X200762352Y-120045500D01*
X200964534Y-120013477D01*
X201159219Y-119950220D01*
X201341610Y-119857287D01*
X201434590Y-119789732D01*
X201507213Y-119736971D01*
X201507215Y-119736968D01*
X201507219Y-119736966D01*
X201651966Y-119592219D01*
X201651968Y-119592215D01*
X201651971Y-119592213D01*
X201704732Y-119519590D01*
X201772287Y-119426610D01*
X201865220Y-119244219D01*
X201928477Y-119049534D01*
X201960500Y-118847352D01*
X201960500Y-118642648D01*
X201928477Y-118440466D01*
X201865220Y-118245781D01*
X201865218Y-118245778D01*
X201865218Y-118245776D01*
X201823923Y-118164732D01*
X201772287Y-118063390D01*
X201730228Y-118005500D01*
X201651971Y-117897786D01*
X201596819Y-117842634D01*
X201563334Y-117781311D01*
X201560500Y-117754953D01*
X201560500Y-114211308D01*
X201555367Y-114185505D01*
X201559052Y-114122995D01*
X201586090Y-114039785D01*
X201625500Y-113790962D01*
X201625500Y-113539038D01*
X201586090Y-113290215D01*
X201508241Y-113050621D01*
X201508239Y-113050618D01*
X201508239Y-113050616D01*
X201439468Y-112915646D01*
X201393870Y-112826155D01*
X201351147Y-112767352D01*
X201245798Y-112622350D01*
X201245794Y-112622345D01*
X201067654Y-112444205D01*
X201067649Y-112444201D01*
X200863848Y-112296132D01*
X200863847Y-112296131D01*
X200863845Y-112296130D01*
X200793747Y-112260413D01*
X200639383Y-112181760D01*
X200399785Y-112103910D01*
X200150962Y-112064500D01*
X200023360Y-112064500D01*
X199956321Y-112044815D01*
X199910566Y-111992011D01*
X199900622Y-111922853D01*
X199929647Y-111859297D01*
X199935679Y-111852819D01*
X203077203Y-108711296D01*
X206439464Y-105349035D01*
X206464353Y-105311786D01*
X206486596Y-105278498D01*
X206486596Y-105278497D01*
X206489185Y-105274623D01*
X206538013Y-105201547D01*
X206587371Y-105082386D01*
X206605895Y-105037666D01*
X206640500Y-104863691D01*
X206640500Y-104686308D01*
X206640500Y-94512682D01*
X219680000Y-94512682D01*
X219680000Y-94717317D01*
X219712009Y-94919417D01*
X219775244Y-95114031D01*
X219868141Y-95296350D01*
X219868147Y-95296359D01*
X219900523Y-95340921D01*
X219900524Y-95340922D01*
X220580000Y-94661446D01*
X220580000Y-94667661D01*
X220607259Y-94769394D01*
X220659920Y-94860606D01*
X220734394Y-94935080D01*
X220825606Y-94987741D01*
X220927339Y-95015000D01*
X220933553Y-95015000D01*
X220254076Y-95694474D01*
X220298650Y-95726859D01*
X220480968Y-95819755D01*
X220675582Y-95882990D01*
X220877683Y-95915000D01*
X221082317Y-95915000D01*
X221284417Y-95882990D01*
X221479031Y-95819755D01*
X221661349Y-95726859D01*
X221705921Y-95694474D01*
X221026447Y-95015000D01*
X221032661Y-95015000D01*
X221134394Y-94987741D01*
X221225606Y-94935080D01*
X221300080Y-94860606D01*
X221352741Y-94769394D01*
X221380000Y-94667661D01*
X221380000Y-94661448D01*
X222059474Y-95340922D01*
X222059474Y-95340921D01*
X222091859Y-95296349D01*
X222184755Y-95114031D01*
X222247990Y-94919417D01*
X222280000Y-94717317D01*
X222280000Y-94512682D01*
X222247990Y-94310582D01*
X222184755Y-94115968D01*
X222091859Y-93933650D01*
X222059474Y-93889077D01*
X222059474Y-93889076D01*
X221380000Y-94568551D01*
X221380000Y-94562339D01*
X221352741Y-94460606D01*
X221300080Y-94369394D01*
X221225606Y-94294920D01*
X221134394Y-94242259D01*
X221032661Y-94215000D01*
X221026446Y-94215000D01*
X221705922Y-93535524D01*
X221705921Y-93535523D01*
X221661359Y-93503147D01*
X221661350Y-93503141D01*
X221479031Y-93410244D01*
X221284417Y-93347009D01*
X221082317Y-93315000D01*
X220877683Y-93315000D01*
X220675582Y-93347009D01*
X220480968Y-93410244D01*
X220298644Y-93503143D01*
X220254077Y-93535523D01*
X220254077Y-93535524D01*
X220933554Y-94215000D01*
X220927339Y-94215000D01*
X220825606Y-94242259D01*
X220734394Y-94294920D01*
X220659920Y-94369394D01*
X220607259Y-94460606D01*
X220580000Y-94562339D01*
X220580000Y-94568553D01*
X219900524Y-93889077D01*
X219900523Y-93889077D01*
X219868143Y-93933644D01*
X219775244Y-94115968D01*
X219712009Y-94310582D01*
X219680000Y-94512682D01*
X206640500Y-94512682D01*
X206640500Y-91332903D01*
X206660185Y-91265864D01*
X206666115Y-91257428D01*
X206688599Y-91228127D01*
X206813164Y-91012373D01*
X206908502Y-90782207D01*
X206972982Y-90541565D01*
X207005500Y-90294565D01*
X207005500Y-90045435D01*
X206972982Y-89798435D01*
X206908502Y-89557793D01*
X206813164Y-89327627D01*
X206688599Y-89111873D01*
X206543513Y-88922793D01*
X206536939Y-88914225D01*
X206536933Y-88914218D01*
X206360781Y-88738066D01*
X206360774Y-88738060D01*
X206163126Y-88586400D01*
X205947376Y-88461837D01*
X205947361Y-88461830D01*
X205717207Y-88366498D01*
X205476561Y-88302017D01*
X205229575Y-88269501D01*
X205229570Y-88269500D01*
X205229565Y-88269500D01*
X204980435Y-88269500D01*
X204980429Y-88269500D01*
X204980424Y-88269501D01*
X204733438Y-88302017D01*
X204492792Y-88366498D01*
X204262638Y-88461830D01*
X204262623Y-88461837D01*
X204046873Y-88586400D01*
X203849225Y-88738060D01*
X203849218Y-88738066D01*
X203673066Y-88914218D01*
X203673060Y-88914225D01*
X203521400Y-89111873D01*
X203396837Y-89327623D01*
X203396830Y-89327638D01*
X203301498Y-89557792D01*
X203237017Y-89798438D01*
X203204501Y-90045424D01*
X203204500Y-90045441D01*
X203204500Y-90294558D01*
X203204501Y-90294575D01*
X203237017Y-90541561D01*
X203301498Y-90782207D01*
X203396830Y-91012361D01*
X203396837Y-91012376D01*
X203521400Y-91228126D01*
X203673060Y-91425774D01*
X203673066Y-91425781D01*
X203849218Y-91601933D01*
X203849225Y-91601939D01*
X204046873Y-91753599D01*
X204262623Y-91878162D01*
X204262638Y-91878169D01*
X204356040Y-91916857D01*
X204492793Y-91973502D01*
X204733435Y-92037982D01*
X204733446Y-92037983D01*
X204737418Y-92038774D01*
X204737140Y-92040169D01*
X204795566Y-92066004D01*
X204834047Y-92124322D01*
X204839500Y-92160690D01*
X204839500Y-104350638D01*
X204819815Y-104417677D01*
X204803181Y-104438319D01*
X198525181Y-110716318D01*
X198463858Y-110749803D01*
X198394166Y-110744819D01*
X198349819Y-110716318D01*
X197424038Y-109790537D01*
X197337205Y-109732518D01*
X197331135Y-109728462D01*
X197276547Y-109691987D01*
X197194606Y-109658046D01*
X197189714Y-109656019D01*
X197189707Y-109656016D01*
X197112666Y-109624105D01*
X197112658Y-109624103D01*
X196938696Y-109589500D01*
X196938692Y-109589500D01*
X196938691Y-109589500D01*
X188602563Y-109589500D01*
X188535524Y-109569815D01*
X188489769Y-109517011D01*
X188479825Y-109447853D01*
X188508850Y-109384297D01*
X188559229Y-109349318D01*
X188561580Y-109348440D01*
X188567331Y-109346296D01*
X188682546Y-109260046D01*
X188768796Y-109144831D01*
X188819091Y-109009983D01*
X188825500Y-108950373D01*
X188825499Y-106949628D01*
X188819091Y-106890017D01*
X188816458Y-106882958D01*
X188768797Y-106755171D01*
X188768793Y-106755164D01*
X188682547Y-106639955D01*
X188682544Y-106639952D01*
X188567335Y-106553706D01*
X188567328Y-106553702D01*
X188432482Y-106503408D01*
X188432483Y-106503408D01*
X188372883Y-106497001D01*
X188372881Y-106497000D01*
X188372873Y-106497000D01*
X188372865Y-106497000D01*
X188349500Y-106497000D01*
X188282461Y-106477315D01*
X188236706Y-106424511D01*
X188225500Y-106373000D01*
X188225500Y-98590150D01*
X188245185Y-98523111D01*
X188293203Y-98479665D01*
X188454038Y-98397717D01*
X188639066Y-98263286D01*
X188800786Y-98101566D01*
X188935217Y-97916538D01*
X189039048Y-97712758D01*
X189060219Y-97647601D01*
X189109721Y-97495249D01*
X189109721Y-97495248D01*
X189109722Y-97495245D01*
X189145500Y-97269354D01*
X189145500Y-97040646D01*
X189109722Y-96814755D01*
X189109721Y-96814751D01*
X189109721Y-96814750D01*
X189039049Y-96597244D01*
X189010198Y-96540621D01*
X188935217Y-96393462D01*
X188800786Y-96208434D01*
X188639066Y-96046714D01*
X188554559Y-95985316D01*
X188511896Y-95929988D01*
X188505917Y-95860375D01*
X188538523Y-95798580D01*
X188554556Y-95784685D01*
X188639066Y-95723286D01*
X188800786Y-95561566D01*
X188800793Y-95561555D01*
X188803009Y-95558963D01*
X188804103Y-95558248D01*
X188804231Y-95558121D01*
X188804257Y-95558147D01*
X188861518Y-95520773D01*
X188897295Y-95515500D01*
X196425638Y-95515500D01*
X196492677Y-95535185D01*
X196513319Y-95551819D01*
X198407311Y-97445811D01*
X198440796Y-97507134D01*
X198442103Y-97552889D01*
X198424500Y-97664032D01*
X198424500Y-97664037D01*
X198424500Y-97664038D01*
X198424500Y-97915962D01*
X198441400Y-98022664D01*
X198463910Y-98164785D01*
X198463909Y-98164785D01*
X198541760Y-98404383D01*
X198604416Y-98527351D01*
X198653577Y-98623835D01*
X198656132Y-98628848D01*
X198804201Y-98832649D01*
X198804205Y-98832654D01*
X198982345Y-99010794D01*
X198982350Y-99010798D01*
X199143389Y-99127799D01*
X199186155Y-99158870D01*
X199299802Y-99216776D01*
X199410616Y-99273239D01*
X199410618Y-99273239D01*
X199410621Y-99273241D01*
X199650215Y-99351090D01*
X199654890Y-99351830D01*
X199718024Y-99381753D01*
X199754961Y-99441061D01*
X199759500Y-99474304D01*
X199759500Y-101879953D01*
X199739815Y-101946992D01*
X199723181Y-101967634D01*
X199668032Y-102022782D01*
X199668028Y-102022786D01*
X199547715Y-102188386D01*
X199454781Y-102370776D01*
X199391522Y-102565465D01*
X199359500Y-102767648D01*
X199359500Y-102972351D01*
X199391522Y-103174534D01*
X199454781Y-103369223D01*
X199506640Y-103471000D01*
X199536956Y-103530499D01*
X199547715Y-103551613D01*
X199668028Y-103717213D01*
X199812786Y-103861971D01*
X199910159Y-103932715D01*
X199978390Y-103982287D01*
X200057399Y-104022544D01*
X200160776Y-104075218D01*
X200160778Y-104075218D01*
X200160781Y-104075220D01*
X200264108Y-104108793D01*
X200355465Y-104138477D01*
X200456557Y-104154488D01*
X200557648Y-104170500D01*
X200557649Y-104170500D01*
X200762351Y-104170500D01*
X200762352Y-104170500D01*
X200964534Y-104138477D01*
X201159219Y-104075220D01*
X201341610Y-103982287D01*
X201434590Y-103914732D01*
X201507213Y-103861971D01*
X201507215Y-103861968D01*
X201507219Y-103861966D01*
X201651966Y-103717219D01*
X201651968Y-103717215D01*
X201651971Y-103717213D01*
X201724572Y-103617284D01*
X201772287Y-103551610D01*
X201865220Y-103369219D01*
X201928477Y-103174534D01*
X201960500Y-102972352D01*
X201960500Y-102767648D01*
X201949601Y-102698838D01*
X201928477Y-102565465D01*
X201890523Y-102448655D01*
X201865220Y-102370781D01*
X201865218Y-102370778D01*
X201865218Y-102370776D01*
X201816043Y-102274266D01*
X201772287Y-102188390D01*
X201762182Y-102174482D01*
X201651971Y-102022786D01*
X201596819Y-101967634D01*
X201563334Y-101906311D01*
X201560500Y-101879953D01*
X201560500Y-98336307D01*
X201555367Y-98310503D01*
X201559052Y-98247994D01*
X201586090Y-98164785D01*
X201625500Y-97915962D01*
X201625500Y-97664038D01*
X201586090Y-97415215D01*
X201508241Y-97175621D01*
X201508239Y-97175618D01*
X201508239Y-97175616D01*
X201448674Y-97058715D01*
X201393870Y-96951155D01*
X201349425Y-96889982D01*
X201245798Y-96747350D01*
X201245794Y-96747345D01*
X201067654Y-96569205D01*
X201067649Y-96569201D01*
X200863848Y-96421132D01*
X200863847Y-96421131D01*
X200863845Y-96421130D01*
X200793747Y-96385413D01*
X200639383Y-96306760D01*
X200399785Y-96228910D01*
X200150962Y-96189500D01*
X199899038Y-96189500D01*
X199899032Y-96189500D01*
X199787889Y-96207103D01*
X199718596Y-96198148D01*
X199680811Y-96172311D01*
X197424035Y-93915535D01*
X197424030Y-93915531D01*
X197369622Y-93879178D01*
X197369616Y-93879175D01*
X197364959Y-93876063D01*
X197276547Y-93816987D01*
X197194606Y-93783046D01*
X197157765Y-93767786D01*
X197112666Y-93749105D01*
X197112658Y-93749103D01*
X196938696Y-93714500D01*
X196938692Y-93714500D01*
X196938691Y-93714500D01*
X190439266Y-93714500D01*
X190372227Y-93694815D01*
X190326472Y-93642011D01*
X190316528Y-93572853D01*
X190326472Y-93538988D01*
X190350023Y-93487418D01*
X190350022Y-93487418D01*
X190350024Y-93487416D01*
X190370500Y-93345000D01*
X190370500Y-80679734D01*
X190390185Y-80612695D01*
X190442989Y-80566940D01*
X190512147Y-80556996D01*
X190575703Y-80586021D01*
X190582181Y-80592053D01*
X190646370Y-80656242D01*
X190646376Y-80656247D01*
X190823226Y-80791948D01*
X191016274Y-80903405D01*
X191222219Y-80988710D01*
X191437537Y-81046404D01*
X191658543Y-81075500D01*
X191658550Y-81075500D01*
X191881450Y-81075500D01*
X191881457Y-81075500D01*
X192102463Y-81046404D01*
X192317781Y-80988710D01*
X192523726Y-80903405D01*
X192716774Y-80791948D01*
X192893624Y-80656247D01*
X193051247Y-80498624D01*
X193186948Y-80321774D01*
X193298405Y-80128726D01*
X193383710Y-79922781D01*
X193393715Y-79885441D01*
X214634500Y-79885441D01*
X214634500Y-80134558D01*
X214634501Y-80134575D01*
X214667017Y-80381561D01*
X214731498Y-80622207D01*
X214826830Y-80852361D01*
X214826837Y-80852376D01*
X214951400Y-81068126D01*
X215103060Y-81265774D01*
X215103066Y-81265781D01*
X215279218Y-81441933D01*
X215279225Y-81441939D01*
X215476873Y-81593599D01*
X215692623Y-81718162D01*
X215692638Y-81718169D01*
X215791825Y-81759253D01*
X215922793Y-81813502D01*
X216163435Y-81877982D01*
X216410435Y-81910500D01*
X216410442Y-81910500D01*
X216659558Y-81910500D01*
X216659565Y-81910500D01*
X216906565Y-81877982D01*
X217147207Y-81813502D01*
X217377373Y-81718164D01*
X217593127Y-81593599D01*
X217790776Y-81441938D01*
X217966938Y-81265776D01*
X218118599Y-81068127D01*
X218243164Y-80852373D01*
X218338502Y-80622207D01*
X218402982Y-80381565D01*
X218435500Y-80134565D01*
X218435500Y-79885435D01*
X218427966Y-79828209D01*
X245219500Y-79828209D01*
X245219500Y-80191790D01*
X245255137Y-80553630D01*
X245326064Y-80910212D01*
X245326067Y-80910223D01*
X245431614Y-81258165D01*
X245507736Y-81441939D01*
X245570555Y-81593599D01*
X245570754Y-81594078D01*
X245570756Y-81594083D01*
X245742140Y-81914720D01*
X245742151Y-81914738D01*
X245944140Y-82217035D01*
X245944150Y-82217049D01*
X246174807Y-82498106D01*
X246431893Y-82755192D01*
X246431898Y-82755196D01*
X246431899Y-82755197D01*
X246712956Y-82985854D01*
X247015268Y-83187853D01*
X247015277Y-83187858D01*
X247015279Y-83187859D01*
X247335916Y-83359243D01*
X247335918Y-83359243D01*
X247335924Y-83359247D01*
X247671836Y-83498386D01*
X248019767Y-83603930D01*
X248019773Y-83603931D01*
X248019776Y-83603932D01*
X248019787Y-83603935D01*
X248376369Y-83674862D01*
X248738206Y-83710500D01*
X248738209Y-83710500D01*
X249101791Y-83710500D01*
X249101794Y-83710500D01*
X249463631Y-83674862D01*
X249533045Y-83661054D01*
X249820212Y-83603935D01*
X249820223Y-83603932D01*
X249820223Y-83603931D01*
X249820233Y-83603930D01*
X250168164Y-83498386D01*
X250504076Y-83359247D01*
X250824732Y-83187853D01*
X251127044Y-82985854D01*
X251408101Y-82755197D01*
X251665197Y-82498101D01*
X251895854Y-82217044D01*
X252097853Y-81914732D01*
X252269247Y-81594076D01*
X252408386Y-81258164D01*
X252513930Y-80910233D01*
X252513932Y-80910223D01*
X252513935Y-80910212D01*
X252582215Y-80566940D01*
X252584862Y-80553631D01*
X252620500Y-80191794D01*
X252620500Y-79828206D01*
X252584862Y-79466369D01*
X252513935Y-79109787D01*
X252513932Y-79109776D01*
X252513931Y-79109773D01*
X252513930Y-79109767D01*
X252408386Y-78761836D01*
X252269247Y-78425924D01*
X252202917Y-78301830D01*
X252097859Y-78105279D01*
X252097858Y-78105277D01*
X252097853Y-78105268D01*
X251895854Y-77802956D01*
X251665197Y-77521899D01*
X251665196Y-77521898D01*
X251665192Y-77521893D01*
X251408106Y-77264807D01*
X251127049Y-77034150D01*
X251127048Y-77034149D01*
X251127044Y-77034146D01*
X250824732Y-76832147D01*
X250824727Y-76832144D01*
X250824720Y-76832140D01*
X250504083Y-76660756D01*
X250504078Y-76660754D01*
X250168165Y-76521614D01*
X249820223Y-76416067D01*
X249820212Y-76416064D01*
X249463630Y-76345137D01*
X249191111Y-76318296D01*
X249101794Y-76309500D01*
X248738206Y-76309500D01*
X248655679Y-76317628D01*
X248376369Y-76345137D01*
X248019787Y-76416064D01*
X248019776Y-76416067D01*
X247671834Y-76521614D01*
X247335921Y-76660754D01*
X247335916Y-76660756D01*
X247015279Y-76832140D01*
X247015261Y-76832151D01*
X246712964Y-77034140D01*
X246712950Y-77034150D01*
X246431893Y-77264807D01*
X246174807Y-77521893D01*
X245944150Y-77802950D01*
X245944140Y-77802964D01*
X245742151Y-78105261D01*
X245742140Y-78105279D01*
X245570756Y-78425916D01*
X245570754Y-78425921D01*
X245431614Y-78761834D01*
X245326067Y-79109776D01*
X245326064Y-79109787D01*
X245255137Y-79466369D01*
X245219500Y-79828209D01*
X218427966Y-79828209D01*
X218402982Y-79638435D01*
X218338502Y-79397793D01*
X218243164Y-79167627D01*
X218170949Y-79042547D01*
X218118599Y-78951873D01*
X217966939Y-78754225D01*
X217966933Y-78754218D01*
X217790781Y-78578066D01*
X217790774Y-78578060D01*
X217593126Y-78426400D01*
X217377376Y-78301837D01*
X217377361Y-78301830D01*
X217147207Y-78206498D01*
X217090980Y-78191432D01*
X216906565Y-78142018D01*
X216906564Y-78142017D01*
X216906561Y-78142017D01*
X216659575Y-78109501D01*
X216659570Y-78109500D01*
X216659565Y-78109500D01*
X216410435Y-78109500D01*
X216410429Y-78109500D01*
X216410424Y-78109501D01*
X216163438Y-78142017D01*
X215922792Y-78206498D01*
X215692638Y-78301830D01*
X215692623Y-78301837D01*
X215476873Y-78426400D01*
X215279225Y-78578060D01*
X215279218Y-78578066D01*
X215103066Y-78754218D01*
X215103060Y-78754225D01*
X214951400Y-78951873D01*
X214826837Y-79167623D01*
X214826830Y-79167638D01*
X214731498Y-79397792D01*
X214667017Y-79638438D01*
X214634501Y-79885424D01*
X214634500Y-79885441D01*
X193393715Y-79885441D01*
X193441404Y-79707463D01*
X193470500Y-79486457D01*
X193470500Y-79263543D01*
X193441404Y-79042537D01*
X193383710Y-78827219D01*
X193298405Y-78621274D01*
X193186948Y-78428226D01*
X193089966Y-78301836D01*
X193051248Y-78251377D01*
X193051242Y-78251370D01*
X192893629Y-78093757D01*
X192893622Y-78093751D01*
X192716782Y-77958058D01*
X192716780Y-77958057D01*
X192716774Y-77958052D01*
X192523726Y-77846595D01*
X192523722Y-77846593D01*
X192317790Y-77761293D01*
X192317783Y-77761291D01*
X192317781Y-77761290D01*
X192102463Y-77703596D01*
X192102457Y-77703595D01*
X192102452Y-77703594D01*
X191881466Y-77674501D01*
X191881463Y-77674500D01*
X191881457Y-77674500D01*
X191658543Y-77674500D01*
X191658537Y-77674500D01*
X191658533Y-77674501D01*
X191437547Y-77703594D01*
X191437540Y-77703595D01*
X191437537Y-77703596D01*
X191222219Y-77761290D01*
X191222209Y-77761293D01*
X191016277Y-77846593D01*
X191016273Y-77846595D01*
X190823226Y-77958052D01*
X190823217Y-77958058D01*
X190646377Y-78093751D01*
X190646370Y-78093757D01*
X190582181Y-78157947D01*
X190520858Y-78191432D01*
X190451166Y-78186448D01*
X190395233Y-78144576D01*
X190370816Y-78079112D01*
X190370500Y-78070266D01*
X190370500Y-72900441D01*
X224159500Y-72900441D01*
X224159500Y-73149558D01*
X224159501Y-73149575D01*
X224192017Y-73396561D01*
X224256498Y-73637207D01*
X224351830Y-73867361D01*
X224351837Y-73867376D01*
X224476400Y-74083126D01*
X224628060Y-74280774D01*
X224628066Y-74280781D01*
X224804218Y-74456933D01*
X224804225Y-74456939D01*
X225001873Y-74608599D01*
X225217623Y-74733162D01*
X225217638Y-74733169D01*
X225316825Y-74774253D01*
X225447793Y-74828502D01*
X225688435Y-74892982D01*
X225935435Y-74925500D01*
X225935442Y-74925500D01*
X226184558Y-74925500D01*
X226184565Y-74925500D01*
X226431565Y-74892982D01*
X226672207Y-74828502D01*
X226902373Y-74733164D01*
X227118127Y-74608599D01*
X227315776Y-74456938D01*
X227491938Y-74280776D01*
X227643599Y-74083127D01*
X227768164Y-73867373D01*
X227863502Y-73637207D01*
X227927982Y-73396565D01*
X227960500Y-73149565D01*
X227960500Y-72900435D01*
X227927982Y-72653435D01*
X227863502Y-72412793D01*
X227768164Y-72182627D01*
X227643599Y-71966873D01*
X227491938Y-71769224D01*
X227491933Y-71769218D01*
X227315781Y-71593066D01*
X227315774Y-71593060D01*
X227118126Y-71441400D01*
X226902376Y-71316837D01*
X226902361Y-71316830D01*
X226672207Y-71221498D01*
X226431561Y-71157017D01*
X226184575Y-71124501D01*
X226184570Y-71124500D01*
X226184565Y-71124500D01*
X225935435Y-71124500D01*
X225935429Y-71124500D01*
X225935424Y-71124501D01*
X225688438Y-71157017D01*
X225447792Y-71221498D01*
X225217638Y-71316830D01*
X225217623Y-71316837D01*
X225001873Y-71441400D01*
X224804225Y-71593060D01*
X224804218Y-71593066D01*
X224628066Y-71769218D01*
X224628060Y-71769225D01*
X224476400Y-71966873D01*
X224351837Y-72182623D01*
X224351830Y-72182638D01*
X224256498Y-72412792D01*
X224192017Y-72653438D01*
X224159501Y-72900424D01*
X224159500Y-72900441D01*
X190370500Y-72900441D01*
X190370500Y-70192406D01*
X190390185Y-70125367D01*
X190442989Y-70079612D01*
X190494108Y-70068407D01*
X251444013Y-69877939D01*
X251481686Y-69883677D01*
G37*
%TD.AperFunction*%
%TA.AperFunction,Conductor*%
G36*
X246615000Y-111177661D02*
G01*
X246642259Y-111279394D01*
X246694920Y-111370606D01*
X246769394Y-111445080D01*
X246860606Y-111497741D01*
X246962339Y-111525000D01*
X246968553Y-111525000D01*
X246289076Y-112204474D01*
X246333652Y-112236861D01*
X246426628Y-112284234D01*
X246477425Y-112332208D01*
X246494220Y-112400029D01*
X246471683Y-112466164D01*
X246426630Y-112505203D01*
X246333388Y-112552713D01*
X246167786Y-112673028D01*
X246023028Y-112817786D01*
X245902715Y-112983386D01*
X245834985Y-113116313D01*
X245787010Y-113167109D01*
X245719189Y-113183904D01*
X245653054Y-113161366D01*
X245609603Y-113106651D01*
X245600500Y-113060018D01*
X245600500Y-111728881D01*
X245620185Y-111661842D01*
X245672989Y-111616087D01*
X245742147Y-111606143D01*
X245805703Y-111635168D01*
X245834985Y-111672586D01*
X245903141Y-111806350D01*
X245903147Y-111806359D01*
X245935523Y-111850921D01*
X245935524Y-111850922D01*
X246615000Y-111171446D01*
X246615000Y-111177661D01*
G37*
%TD.AperFunction*%
%TA.AperFunction,Conductor*%
G36*
X248094474Y-111850921D02*
G01*
X248126859Y-111806349D01*
X248195015Y-111672586D01*
X248242989Y-111621790D01*
X248310810Y-111604995D01*
X248376945Y-111627532D01*
X248420397Y-111682247D01*
X248429500Y-111728881D01*
X248429500Y-113060018D01*
X248409815Y-113127057D01*
X248357011Y-113172812D01*
X248287853Y-113182756D01*
X248224297Y-113153731D01*
X248195015Y-113116313D01*
X248143348Y-113014912D01*
X248127287Y-112983390D01*
X248105030Y-112952755D01*
X248006971Y-112817786D01*
X247862213Y-112673028D01*
X247696611Y-112552713D01*
X247603369Y-112505203D01*
X247552574Y-112457229D01*
X247535779Y-112389407D01*
X247558317Y-112323273D01*
X247603371Y-112284234D01*
X247696346Y-112236861D01*
X247696347Y-112236861D01*
X247740921Y-112204474D01*
X247061447Y-111525000D01*
X247067661Y-111525000D01*
X247169394Y-111497741D01*
X247260606Y-111445080D01*
X247335080Y-111370606D01*
X247387741Y-111279394D01*
X247415000Y-111177661D01*
X247415000Y-111171446D01*
X248094474Y-111850921D01*
G37*
%TD.AperFunction*%
%TA.AperFunction,Conductor*%
G36*
X240825878Y-101149644D02*
G01*
X240876929Y-101180429D01*
X241633181Y-101936681D01*
X241666666Y-101998004D01*
X241669500Y-102024362D01*
X241669500Y-112046951D01*
X241649815Y-112113990D01*
X241633181Y-112134632D01*
X240721514Y-113046298D01*
X240660191Y-113079783D01*
X240590499Y-113074799D01*
X240534566Y-113032927D01*
X240523348Y-113014912D01*
X240507284Y-112983385D01*
X240386971Y-112817786D01*
X240242213Y-112673028D01*
X240076614Y-112552715D01*
X240054348Y-112541370D01*
X239983917Y-112505483D01*
X239933123Y-112457511D01*
X239916328Y-112389690D01*
X239938865Y-112323555D01*
X239983917Y-112284516D01*
X240076610Y-112237287D01*
X240140106Y-112191155D01*
X240242213Y-112116971D01*
X240242215Y-112116968D01*
X240242219Y-112116966D01*
X240386966Y-111972219D01*
X240386968Y-111972215D01*
X240386971Y-111972213D01*
X240442927Y-111895194D01*
X240507287Y-111806610D01*
X240600220Y-111624219D01*
X240663477Y-111429534D01*
X240695500Y-111227352D01*
X240695500Y-111022648D01*
X240678153Y-110913126D01*
X240663477Y-110820465D01*
X240622250Y-110693583D01*
X240600220Y-110625781D01*
X240600218Y-110625778D01*
X240600218Y-110625776D01*
X240555828Y-110538657D01*
X240507287Y-110443390D01*
X240497220Y-110429534D01*
X240386971Y-110277786D01*
X240242213Y-110133028D01*
X240076614Y-110012715D01*
X240070006Y-110009348D01*
X239983917Y-109965483D01*
X239933123Y-109917511D01*
X239916328Y-109849690D01*
X239938865Y-109783555D01*
X239983917Y-109744516D01*
X240076610Y-109697287D01*
X240151732Y-109642708D01*
X240242213Y-109576971D01*
X240242215Y-109576968D01*
X240242219Y-109576966D01*
X240386966Y-109432219D01*
X240386968Y-109432215D01*
X240386971Y-109432213D01*
X240449394Y-109346293D01*
X240507287Y-109266610D01*
X240600220Y-109084219D01*
X240663477Y-108889534D01*
X240695500Y-108687352D01*
X240695500Y-108482648D01*
X240678447Y-108374982D01*
X240663477Y-108280465D01*
X240632256Y-108184377D01*
X240600220Y-108085781D01*
X240600218Y-108085778D01*
X240600218Y-108085776D01*
X240566503Y-108019607D01*
X240507287Y-107903390D01*
X240469630Y-107851559D01*
X240386971Y-107737786D01*
X240242213Y-107593028D01*
X240076614Y-107472715D01*
X239993970Y-107430606D01*
X239983917Y-107425483D01*
X239933123Y-107377511D01*
X239916328Y-107309690D01*
X239938865Y-107243555D01*
X239983917Y-107204516D01*
X240076610Y-107157287D01*
X240174773Y-107085968D01*
X240242213Y-107036971D01*
X240242215Y-107036968D01*
X240242219Y-107036966D01*
X240386966Y-106892219D01*
X240386968Y-106892215D01*
X240386971Y-106892213D01*
X240486536Y-106755171D01*
X240507287Y-106726610D01*
X240600220Y-106544219D01*
X240663477Y-106349534D01*
X240695500Y-106147352D01*
X240695500Y-105942648D01*
X240679570Y-105842071D01*
X240663477Y-105740465D01*
X240600218Y-105545776D01*
X240554021Y-105455110D01*
X240507287Y-105363390D01*
X240446416Y-105279607D01*
X240386971Y-105197786D01*
X240242213Y-105053028D01*
X240076611Y-104932713D01*
X239983369Y-104885203D01*
X239932574Y-104837229D01*
X239915779Y-104769407D01*
X239938317Y-104703273D01*
X239983371Y-104664234D01*
X240076346Y-104616861D01*
X240076347Y-104616861D01*
X240120921Y-104584474D01*
X239441447Y-103905000D01*
X239447661Y-103905000D01*
X239549394Y-103877741D01*
X239640606Y-103825080D01*
X239715080Y-103750606D01*
X239767741Y-103659394D01*
X239795000Y-103557661D01*
X239795000Y-103551447D01*
X240474474Y-104230921D01*
X240506859Y-104186349D01*
X240599755Y-104004031D01*
X240662990Y-103809417D01*
X240695000Y-103607317D01*
X240695000Y-103402682D01*
X240662990Y-103200582D01*
X240599755Y-103005968D01*
X240506859Y-102823650D01*
X240474474Y-102779077D01*
X240474474Y-102779076D01*
X239795000Y-103458551D01*
X239795000Y-103452339D01*
X239767741Y-103350606D01*
X239715080Y-103259394D01*
X239640606Y-103184920D01*
X239549394Y-103132259D01*
X239447661Y-103105000D01*
X239441446Y-103105000D01*
X240120922Y-102425524D01*
X240120921Y-102425523D01*
X240076359Y-102393147D01*
X240076350Y-102393141D01*
X239983369Y-102345765D01*
X239932573Y-102297790D01*
X239915778Y-102229969D01*
X239938315Y-102163835D01*
X239983370Y-102124795D01*
X240003102Y-102114741D01*
X240076610Y-102077287D01*
X240141675Y-102030015D01*
X240242213Y-101956971D01*
X240242215Y-101956968D01*
X240242219Y-101956966D01*
X240386966Y-101812219D01*
X240386968Y-101812215D01*
X240386971Y-101812213D01*
X240458723Y-101713453D01*
X240507287Y-101646610D01*
X240600220Y-101464219D01*
X240663477Y-101269534D01*
X240666775Y-101248712D01*
X240696704Y-101185577D01*
X240756016Y-101148646D01*
X240825878Y-101149644D01*
G37*
%TD.AperFunction*%
%TA.AperFunction,Conductor*%
G36*
X93327021Y-70391739D02*
G01*
X93372941Y-70444399D01*
X93383100Y-70513526D01*
X93354274Y-70577172D01*
X93295614Y-70615130D01*
X93279331Y-70618152D01*
X93279392Y-70618482D01*
X93273053Y-70619646D01*
X93135007Y-70660181D01*
X93135005Y-70660182D01*
X93013969Y-70737967D01*
X93013965Y-70737971D01*
X92919750Y-70846700D01*
X92919744Y-70846709D01*
X92859976Y-70977580D01*
X92859975Y-70977585D01*
X92839500Y-71119999D01*
X92839500Y-88726638D01*
X92819815Y-88793677D01*
X92767011Y-88839432D01*
X92697853Y-88849376D01*
X92634297Y-88820351D01*
X92627819Y-88814319D01*
X90471819Y-86658319D01*
X90438334Y-86596996D01*
X90435500Y-86570638D01*
X90435500Y-85617903D01*
X90455185Y-85550864D01*
X90461115Y-85542428D01*
X90483599Y-85513127D01*
X90608164Y-85297373D01*
X90703502Y-85067207D01*
X90767982Y-84826565D01*
X90800500Y-84579565D01*
X90800500Y-84330435D01*
X90767982Y-84083435D01*
X90703502Y-83842793D01*
X90608164Y-83612627D01*
X90483599Y-83396873D01*
X90331938Y-83199224D01*
X90331933Y-83199218D01*
X90155781Y-83023066D01*
X90155774Y-83023060D01*
X89958126Y-82871400D01*
X89742376Y-82746837D01*
X89742361Y-82746830D01*
X89512207Y-82651498D01*
X89271561Y-82587017D01*
X89024575Y-82554501D01*
X89024570Y-82554500D01*
X89024565Y-82554500D01*
X88775435Y-82554500D01*
X88775429Y-82554500D01*
X88775424Y-82554501D01*
X88528438Y-82587017D01*
X88287792Y-82651498D01*
X88057638Y-82746830D01*
X88057623Y-82746837D01*
X87841873Y-82871400D01*
X87644225Y-83023060D01*
X87644218Y-83023066D01*
X87468066Y-83199218D01*
X87468060Y-83199225D01*
X87316400Y-83396873D01*
X87191837Y-83612623D01*
X87191830Y-83612638D01*
X87096498Y-83842792D01*
X87032017Y-84083438D01*
X86999501Y-84330424D01*
X86999500Y-84330441D01*
X86999500Y-84579558D01*
X86999501Y-84579575D01*
X87032017Y-84826561D01*
X87096498Y-85067207D01*
X87191830Y-85297361D01*
X87191837Y-85297376D01*
X87316400Y-85513126D01*
X87468060Y-85710774D01*
X87468066Y-85710781D01*
X87644218Y-85886933D01*
X87644225Y-85886939D01*
X87841873Y-86038599D01*
X88057623Y-86163162D01*
X88057638Y-86163169D01*
X88176664Y-86212470D01*
X88287793Y-86258502D01*
X88528435Y-86322982D01*
X88528446Y-86322983D01*
X88532418Y-86323774D01*
X88532140Y-86325169D01*
X88590566Y-86351004D01*
X88629047Y-86409322D01*
X88634500Y-86445690D01*
X88634500Y-87083696D01*
X88669103Y-87257659D01*
X88669105Y-87257665D01*
X88698306Y-87328163D01*
X88698309Y-87328169D01*
X88700481Y-87333412D01*
X88736987Y-87421547D01*
X88782442Y-87489575D01*
X88786057Y-87494985D01*
X88786059Y-87494989D01*
X88835532Y-87569031D01*
X88835538Y-87569039D01*
X92408181Y-91141680D01*
X92441666Y-91203003D01*
X92444500Y-91229361D01*
X92444500Y-95767742D01*
X92424815Y-95834781D01*
X92393387Y-95868059D01*
X92302344Y-95934206D01*
X92124205Y-96112345D01*
X92124201Y-96112350D01*
X91976132Y-96316151D01*
X91861760Y-96540616D01*
X91783910Y-96780214D01*
X91783910Y-96780215D01*
X91744500Y-97029038D01*
X91744500Y-97280962D01*
X91769719Y-97440185D01*
X91783910Y-97529785D01*
X91783910Y-97529789D01*
X91810946Y-97612995D01*
X91811854Y-97628395D01*
X91816521Y-97640253D01*
X91814634Y-97675497D01*
X91812214Y-97687666D01*
X91809500Y-97701309D01*
X91809500Y-97701310D01*
X91809500Y-101879953D01*
X91789815Y-101946992D01*
X91773181Y-101967634D01*
X91718032Y-102022782D01*
X91718028Y-102022786D01*
X91597715Y-102188386D01*
X91504781Y-102370776D01*
X91441522Y-102565465D01*
X91409500Y-102767648D01*
X91409500Y-102972351D01*
X91441522Y-103174534D01*
X91504781Y-103369223D01*
X91556640Y-103471000D01*
X91586956Y-103530499D01*
X91597715Y-103551613D01*
X91718028Y-103717213D01*
X91862786Y-103861971D01*
X91960159Y-103932715D01*
X92028390Y-103982287D01*
X92107399Y-104022544D01*
X92210776Y-104075218D01*
X92210778Y-104075218D01*
X92210781Y-104075220D01*
X92314108Y-104108793D01*
X92405465Y-104138477D01*
X92506557Y-104154488D01*
X92607648Y-104170500D01*
X92607649Y-104170500D01*
X92812351Y-104170500D01*
X92812352Y-104170500D01*
X93014534Y-104138477D01*
X93209219Y-104075220D01*
X93391610Y-103982287D01*
X93484590Y-103914732D01*
X93557213Y-103861971D01*
X93557215Y-103861968D01*
X93557219Y-103861966D01*
X93701966Y-103717219D01*
X93701968Y-103717215D01*
X93701971Y-103717213D01*
X93774572Y-103617284D01*
X93822287Y-103551610D01*
X93915220Y-103369219D01*
X93978477Y-103174534D01*
X94010500Y-102972352D01*
X94010500Y-102767648D01*
X93999601Y-102698838D01*
X93978477Y-102565465D01*
X93940523Y-102448655D01*
X93915220Y-102370781D01*
X93915218Y-102370778D01*
X93915218Y-102370776D01*
X93866043Y-102274266D01*
X93822287Y-102188390D01*
X93812182Y-102174482D01*
X93701971Y-102022786D01*
X93646819Y-101967634D01*
X93613334Y-101906311D01*
X93610500Y-101879953D01*
X93610500Y-98839304D01*
X93630185Y-98772265D01*
X93682989Y-98726510D01*
X93715106Y-98716831D01*
X93719785Y-98716090D01*
X93959379Y-98638241D01*
X94183845Y-98523870D01*
X94387656Y-98375793D01*
X94565793Y-98197656D01*
X94713870Y-97993845D01*
X94828241Y-97769379D01*
X94906090Y-97529785D01*
X94945500Y-97280962D01*
X94945500Y-97029038D01*
X94927895Y-96917887D01*
X94936849Y-96848597D01*
X94962684Y-96810814D01*
X96221680Y-95551819D01*
X96283003Y-95518334D01*
X96309361Y-95515500D01*
X100667705Y-95515500D01*
X100734744Y-95535185D01*
X100761991Y-95558963D01*
X100764212Y-95561563D01*
X100764214Y-95561566D01*
X100925934Y-95723286D01*
X100987122Y-95767742D01*
X101010438Y-95784682D01*
X101053103Y-95840013D01*
X101059082Y-95909626D01*
X101026476Y-95971421D01*
X101010438Y-95985318D01*
X100925932Y-96046715D01*
X100764216Y-96208431D01*
X100764216Y-96208432D01*
X100764214Y-96208434D01*
X100730247Y-96255186D01*
X100629783Y-96393461D01*
X100525950Y-96597244D01*
X100455278Y-96814750D01*
X100455278Y-96814753D01*
X100433675Y-96951151D01*
X100419500Y-97040646D01*
X100419500Y-97269354D01*
X100426368Y-97312715D01*
X100455278Y-97495246D01*
X100455278Y-97495249D01*
X100525950Y-97712755D01*
X100616207Y-97889894D01*
X100629783Y-97916538D01*
X100764214Y-98101566D01*
X100764216Y-98101568D01*
X100883181Y-98220533D01*
X100916666Y-98281856D01*
X100919500Y-98308214D01*
X100919500Y-101910638D01*
X100899815Y-101977677D01*
X100883181Y-101998319D01*
X97138319Y-105743181D01*
X97076996Y-105776666D01*
X97050638Y-105779500D01*
X90559500Y-105779500D01*
X90492461Y-105759815D01*
X90446706Y-105707011D01*
X90435500Y-105655500D01*
X90435500Y-94526310D01*
X90432782Y-94512643D01*
X90432782Y-94512642D01*
X90420716Y-94451983D01*
X90400895Y-94352334D01*
X90333013Y-94188453D01*
X90333012Y-94188452D01*
X90333009Y-94188446D01*
X90234464Y-94040964D01*
X90234461Y-94040960D01*
X86326496Y-90132996D01*
X86293011Y-90071673D01*
X86294401Y-90013224D01*
X86322982Y-89906565D01*
X86355500Y-89659565D01*
X86355500Y-89410435D01*
X86322982Y-89163435D01*
X86258502Y-88922793D01*
X86204253Y-88791825D01*
X86163169Y-88692638D01*
X86163162Y-88692623D01*
X86038599Y-88476873D01*
X85886939Y-88279225D01*
X85886933Y-88279218D01*
X85710781Y-88103066D01*
X85710774Y-88103060D01*
X85513126Y-87951400D01*
X85297376Y-87826837D01*
X85297361Y-87826830D01*
X85067207Y-87731498D01*
X84826561Y-87667017D01*
X84579575Y-87634501D01*
X84579570Y-87634500D01*
X84579565Y-87634500D01*
X84330435Y-87634500D01*
X84330429Y-87634500D01*
X84330424Y-87634501D01*
X84083438Y-87667017D01*
X83842792Y-87731498D01*
X83612638Y-87826830D01*
X83612623Y-87826837D01*
X83396873Y-87951400D01*
X83199225Y-88103060D01*
X83199218Y-88103066D01*
X83023066Y-88279218D01*
X83023060Y-88279225D01*
X82871400Y-88476873D01*
X82746837Y-88692623D01*
X82746830Y-88692638D01*
X82651498Y-88922792D01*
X82587017Y-89163438D01*
X82554501Y-89410424D01*
X82554500Y-89410441D01*
X82554500Y-89659558D01*
X82554501Y-89659575D01*
X82587017Y-89906561D01*
X82651498Y-90147207D01*
X82746830Y-90377361D01*
X82746837Y-90377376D01*
X82871400Y-90593126D01*
X83023060Y-90790774D01*
X83023066Y-90790781D01*
X83199218Y-90966933D01*
X83199225Y-90966939D01*
X83396873Y-91118599D01*
X83612623Y-91243162D01*
X83612638Y-91243169D01*
X83711825Y-91284253D01*
X83842793Y-91338502D01*
X84083435Y-91402982D01*
X84330435Y-91435500D01*
X84330442Y-91435500D01*
X84579558Y-91435500D01*
X84579565Y-91435500D01*
X84826565Y-91402982D01*
X84933223Y-91374402D01*
X85003070Y-91376065D01*
X85052996Y-91406496D01*
X88598181Y-94951681D01*
X88631666Y-95013004D01*
X88634500Y-95039362D01*
X88634500Y-105655500D01*
X88614815Y-105722539D01*
X88562011Y-105768294D01*
X88510500Y-105779500D01*
X86271303Y-105779500D01*
X86097341Y-105814103D01*
X86097333Y-105814105D01*
X86027442Y-105843055D01*
X86027436Y-105843057D01*
X86021541Y-105845500D01*
X85933453Y-105881987D01*
X85845040Y-105941063D01*
X85840226Y-105944278D01*
X85840225Y-105944280D01*
X85785961Y-105980537D01*
X85785960Y-105980538D01*
X79673319Y-112093181D01*
X79611996Y-112126666D01*
X79585638Y-112129500D01*
X77894361Y-112129500D01*
X77827322Y-112109815D01*
X77806680Y-112093181D01*
X67718680Y-102005180D01*
X67714341Y-101997234D01*
X67707094Y-101991809D01*
X67697859Y-101967049D01*
X67685195Y-101943857D01*
X67685840Y-101934827D01*
X67682677Y-101926345D01*
X67688293Y-101900524D01*
X67690179Y-101874165D01*
X67695997Y-101865110D01*
X67697529Y-101858072D01*
X67718676Y-101829822D01*
X67881681Y-101666816D01*
X67943003Y-101633334D01*
X67969361Y-101630500D01*
X68047351Y-101630500D01*
X68047352Y-101630500D01*
X68249534Y-101598477D01*
X68444219Y-101535220D01*
X68626610Y-101442287D01*
X68696913Y-101391208D01*
X68762717Y-101367729D01*
X68830771Y-101383554D01*
X68857478Y-101403846D01*
X68926344Y-101472712D01*
X69075666Y-101564814D01*
X69242203Y-101619999D01*
X69344991Y-101630500D01*
X69920637Y-101630499D01*
X69987676Y-101650183D01*
X70008318Y-101666818D01*
X73243799Y-104902299D01*
X76477386Y-108135885D01*
X76510871Y-108197208D01*
X76513063Y-108236168D01*
X76504500Y-108319980D01*
X76504500Y-110120017D01*
X76515000Y-110222796D01*
X76570185Y-110389332D01*
X76570187Y-110389337D01*
X76571698Y-110391786D01*
X76662288Y-110538656D01*
X76786344Y-110662712D01*
X76935665Y-110754814D01*
X77102202Y-110809999D01*
X77204990Y-110820500D01*
X77204995Y-110820500D01*
X79005005Y-110820500D01*
X79005010Y-110820500D01*
X79107798Y-110809999D01*
X79274335Y-110754814D01*
X79423656Y-110662712D01*
X79547712Y-110538656D01*
X79639814Y-110389335D01*
X79694999Y-110222798D01*
X79705500Y-110120010D01*
X79705500Y-108319990D01*
X79694999Y-108217202D01*
X79639814Y-108050665D01*
X79547712Y-107901344D01*
X79423656Y-107777288D01*
X79330890Y-107720070D01*
X79274337Y-107685187D01*
X79274332Y-107685185D01*
X79246173Y-107675854D01*
X79107798Y-107630001D01*
X79107796Y-107630000D01*
X79005017Y-107619500D01*
X79005010Y-107619500D01*
X78559361Y-107619500D01*
X78492322Y-107599815D01*
X78471680Y-107583181D01*
X71281818Y-100393318D01*
X71248333Y-100331995D01*
X71245499Y-100305637D01*
X71245499Y-99729998D01*
X71245498Y-99729981D01*
X71234999Y-99627203D01*
X71234998Y-99627200D01*
X71223420Y-99592259D01*
X71179814Y-99460666D01*
X71087712Y-99311344D01*
X70963656Y-99187288D01*
X70902384Y-99149495D01*
X70880418Y-99125073D01*
X70857607Y-99101433D01*
X70856607Y-99098600D01*
X70855662Y-99097549D01*
X70845866Y-99068149D01*
X70840267Y-99040001D01*
X70810895Y-98892334D01*
X70769665Y-98792798D01*
X70743013Y-98728453D01*
X70667934Y-98616090D01*
X70644464Y-98580964D01*
X70644462Y-98580961D01*
X69789038Y-97725537D01*
X69752777Y-97701309D01*
X69696997Y-97664038D01*
X69672396Y-97647600D01*
X69646246Y-97616308D01*
X69627594Y-97593990D01*
X69627593Y-97593987D01*
X69621378Y-97544500D01*
X69618887Y-97524665D01*
X69618887Y-97524662D01*
X69649043Y-97461635D01*
X69690712Y-97435897D01*
X69708485Y-97424918D01*
X69741290Y-97420500D01*
X81460500Y-97420500D01*
X81527539Y-97440185D01*
X81573294Y-97492989D01*
X81584500Y-97544500D01*
X81584500Y-98055017D01*
X81595000Y-98157796D01*
X81650185Y-98324332D01*
X81650187Y-98324337D01*
X81681926Y-98375793D01*
X81742288Y-98473656D01*
X81866344Y-98597712D01*
X82015665Y-98689814D01*
X82182202Y-98744999D01*
X82284990Y-98755500D01*
X83460638Y-98755500D01*
X83527677Y-98775185D01*
X83548319Y-98791819D01*
X84153181Y-99396681D01*
X84186666Y-99458004D01*
X84189500Y-99484362D01*
X84189500Y-101879953D01*
X84169815Y-101946992D01*
X84153181Y-101967634D01*
X84098032Y-102022782D01*
X84098028Y-102022786D01*
X83977715Y-102188386D01*
X83884781Y-102370776D01*
X83821522Y-102565465D01*
X83789500Y-102767648D01*
X83789500Y-102972351D01*
X83821522Y-103174534D01*
X83884781Y-103369223D01*
X83936640Y-103471000D01*
X83966956Y-103530499D01*
X83977715Y-103551613D01*
X84098028Y-103717213D01*
X84242786Y-103861971D01*
X84340159Y-103932715D01*
X84408390Y-103982287D01*
X84487399Y-104022544D01*
X84590776Y-104075218D01*
X84590778Y-104075218D01*
X84590781Y-104075220D01*
X84694108Y-104108793D01*
X84785465Y-104138477D01*
X84886557Y-104154488D01*
X84987648Y-104170500D01*
X84987649Y-104170500D01*
X85192351Y-104170500D01*
X85192352Y-104170500D01*
X85394534Y-104138477D01*
X85589219Y-104075220D01*
X85771610Y-103982287D01*
X85864590Y-103914732D01*
X85937213Y-103861971D01*
X85937215Y-103861968D01*
X85937219Y-103861966D01*
X86081966Y-103717219D01*
X86081968Y-103717215D01*
X86081971Y-103717213D01*
X86154572Y-103617284D01*
X86202287Y-103551610D01*
X86295220Y-103369219D01*
X86358477Y-103174534D01*
X86390500Y-102972352D01*
X86390500Y-102767648D01*
X86379601Y-102698838D01*
X86358477Y-102565465D01*
X86320523Y-102448655D01*
X86295220Y-102370781D01*
X86295218Y-102370778D01*
X86295218Y-102370776D01*
X86246043Y-102274266D01*
X86202287Y-102188390D01*
X86192182Y-102174482D01*
X86081971Y-102022786D01*
X86026819Y-101967634D01*
X85993334Y-101906311D01*
X85990500Y-101879953D01*
X85990500Y-98971305D01*
X85988119Y-98959338D01*
X85988118Y-98959335D01*
X85955895Y-98797334D01*
X85900873Y-98664500D01*
X85889996Y-98638241D01*
X85888015Y-98633457D01*
X85888014Y-98633455D01*
X85887556Y-98632770D01*
X85864130Y-98597710D01*
X85789462Y-98485961D01*
X84821819Y-97518318D01*
X84788334Y-97456995D01*
X84785500Y-97430637D01*
X84785500Y-96254995D01*
X84785499Y-96254982D01*
X84782835Y-96228910D01*
X84774999Y-96152202D01*
X84719814Y-95985665D01*
X84627712Y-95836344D01*
X84503656Y-95712288D01*
X84354335Y-95620186D01*
X84187798Y-95565001D01*
X84187796Y-95565000D01*
X84085017Y-95554500D01*
X84085010Y-95554500D01*
X82284990Y-95554500D01*
X82284982Y-95554500D01*
X82182203Y-95565000D01*
X82182202Y-95565001D01*
X82036729Y-95613206D01*
X81997725Y-95619500D01*
X61871305Y-95619500D01*
X61697401Y-95654091D01*
X61697402Y-95654092D01*
X61697339Y-95654104D01*
X61697329Y-95654107D01*
X61533459Y-95721983D01*
X61533446Y-95721990D01*
X61404051Y-95808449D01*
X61404052Y-95808450D01*
X61385967Y-95820534D01*
X61385961Y-95820539D01*
X61118320Y-96088181D01*
X61056997Y-96121666D01*
X61030639Y-96124500D01*
X60952648Y-96124500D01*
X60928329Y-96128351D01*
X60750465Y-96156522D01*
X60555776Y-96219781D01*
X60373386Y-96312715D01*
X60207786Y-96433028D01*
X60063028Y-96577786D01*
X59942715Y-96743386D01*
X59849781Y-96925776D01*
X59786522Y-97120465D01*
X59760892Y-97282288D01*
X59754500Y-97322648D01*
X59754500Y-97527352D01*
X59754886Y-97529789D01*
X59786522Y-97729534D01*
X59849781Y-97924223D01*
X59894759Y-98012495D01*
X59940143Y-98101567D01*
X59942715Y-98106613D01*
X60063028Y-98272213D01*
X60207786Y-98416971D01*
X60362749Y-98529556D01*
X60373390Y-98537287D01*
X60459105Y-98580961D01*
X60466080Y-98584515D01*
X60516876Y-98632490D01*
X60533671Y-98700311D01*
X60511134Y-98766446D01*
X60466080Y-98805485D01*
X60373386Y-98852715D01*
X60207786Y-98973028D01*
X60063028Y-99117786D01*
X59942715Y-99283386D01*
X59849781Y-99465776D01*
X59786522Y-99660465D01*
X59754500Y-99862648D01*
X59754500Y-100067351D01*
X59786522Y-100269534D01*
X59849781Y-100464223D01*
X59913691Y-100589653D01*
X59942585Y-100646359D01*
X59942715Y-100646613D01*
X60063028Y-100812213D01*
X60207786Y-100956971D01*
X60362749Y-101069556D01*
X60373390Y-101077287D01*
X60464840Y-101123883D01*
X60466080Y-101124515D01*
X60516876Y-101172490D01*
X60533671Y-101240311D01*
X60511134Y-101306446D01*
X60466080Y-101345485D01*
X60373386Y-101392715D01*
X60207786Y-101513028D01*
X60063028Y-101657786D01*
X59942715Y-101823386D01*
X59849781Y-102005776D01*
X59786522Y-102200465D01*
X59754500Y-102402648D01*
X59754500Y-102607351D01*
X59786522Y-102809534D01*
X59849781Y-103004223D01*
X59903718Y-103110078D01*
X59935669Y-103172786D01*
X59942715Y-103186613D01*
X60063028Y-103352213D01*
X60207786Y-103496971D01*
X60340915Y-103593693D01*
X60373390Y-103617287D01*
X60456030Y-103659394D01*
X60466080Y-103664515D01*
X60516876Y-103712490D01*
X60533671Y-103780311D01*
X60511134Y-103846446D01*
X60466080Y-103885485D01*
X60373386Y-103932715D01*
X60207786Y-104053028D01*
X60063028Y-104197786D01*
X59942715Y-104363386D01*
X59849781Y-104545776D01*
X59786522Y-104740465D01*
X59754500Y-104942648D01*
X59754500Y-105147351D01*
X59786522Y-105349534D01*
X59849781Y-105544223D01*
X59942715Y-105726613D01*
X60063028Y-105892213D01*
X60207786Y-106036971D01*
X60373385Y-106157284D01*
X60373387Y-106157285D01*
X60373390Y-106157287D01*
X60466080Y-106204515D01*
X60466630Y-106204795D01*
X60517426Y-106252770D01*
X60534221Y-106320591D01*
X60511684Y-106386725D01*
X60466630Y-106425765D01*
X60373644Y-106473143D01*
X60329077Y-106505523D01*
X60329077Y-106505524D01*
X61008554Y-107185000D01*
X61002339Y-107185000D01*
X60900606Y-107212259D01*
X60809394Y-107264920D01*
X60734920Y-107339394D01*
X60682259Y-107430606D01*
X60655000Y-107532339D01*
X60655000Y-107538553D01*
X59975524Y-106859077D01*
X59975523Y-106859077D01*
X59943143Y-106903644D01*
X59850244Y-107085968D01*
X59787431Y-107279286D01*
X59782778Y-107286089D01*
X59781479Y-107294228D01*
X59763348Y-107314504D01*
X59747993Y-107336961D01*
X59740399Y-107340169D01*
X59734907Y-107346313D01*
X59708693Y-107353569D01*
X59683634Y-107364159D01*
X59675512Y-107362753D01*
X59667570Y-107364952D01*
X59641593Y-107356883D01*
X59614788Y-107352244D01*
X59608715Y-107346670D01*
X59600845Y-107344226D01*
X59583355Y-107323395D01*
X59563312Y-107305000D01*
X59560056Y-107295646D01*
X59555917Y-107290716D01*
X59552256Y-107273235D01*
X59546502Y-107256701D01*
X59545500Y-107248868D01*
X59545500Y-107226421D01*
X59530865Y-107134023D01*
X59517786Y-107051444D01*
X59469765Y-106903650D01*
X59463043Y-106882960D01*
X59463042Y-106882957D01*
X59447159Y-106851786D01*
X59397927Y-106755164D01*
X59382614Y-106725110D01*
X59278483Y-106581786D01*
X59153214Y-106456517D01*
X54589430Y-101892733D01*
X54566626Y-101861346D01*
X54562368Y-101852989D01*
X54547287Y-101823390D01*
X54426966Y-101657781D01*
X54282219Y-101513034D01*
X54282213Y-101513028D01*
X54116611Y-101392713D01*
X54023369Y-101345203D01*
X53972574Y-101297229D01*
X53955779Y-101229407D01*
X53978317Y-101163273D01*
X54023371Y-101124234D01*
X54116346Y-101076861D01*
X54116347Y-101076861D01*
X54160921Y-101044474D01*
X53481447Y-100365000D01*
X53487661Y-100365000D01*
X53589394Y-100337741D01*
X53680606Y-100285080D01*
X53755080Y-100210606D01*
X53807741Y-100119394D01*
X53835000Y-100017661D01*
X53835000Y-100011447D01*
X54514474Y-100690921D01*
X54546859Y-100646349D01*
X54639755Y-100464031D01*
X54702990Y-100269417D01*
X54735000Y-100067317D01*
X54735000Y-99862682D01*
X54702990Y-99660582D01*
X54639755Y-99465968D01*
X54546859Y-99283650D01*
X54514474Y-99239077D01*
X54514474Y-99239076D01*
X53835000Y-99918551D01*
X53835000Y-99912339D01*
X53807741Y-99810606D01*
X53755080Y-99719394D01*
X53680606Y-99644920D01*
X53589394Y-99592259D01*
X53487661Y-99565000D01*
X53481446Y-99565000D01*
X54160922Y-98885524D01*
X54160921Y-98885523D01*
X54116359Y-98853147D01*
X54116350Y-98853141D01*
X54023369Y-98805765D01*
X53972573Y-98757790D01*
X53955778Y-98689969D01*
X53978315Y-98623835D01*
X54023370Y-98584795D01*
X54072604Y-98559709D01*
X54116610Y-98537287D01*
X54204190Y-98473657D01*
X54282213Y-98416971D01*
X54282215Y-98416968D01*
X54282219Y-98416966D01*
X54426966Y-98272219D01*
X54426968Y-98272215D01*
X54426971Y-98272213D01*
X54481144Y-98197649D01*
X54547287Y-98106610D01*
X54640220Y-97924219D01*
X54703477Y-97729534D01*
X54735500Y-97527352D01*
X54735500Y-97322648D01*
X54729108Y-97282288D01*
X54703477Y-97120465D01*
X54657558Y-96979142D01*
X54640220Y-96925781D01*
X54640218Y-96925778D01*
X54640218Y-96925776D01*
X54583648Y-96814753D01*
X54547287Y-96743390D01*
X54539556Y-96732749D01*
X54426971Y-96577786D01*
X54282213Y-96433028D01*
X54116613Y-96312715D01*
X54116612Y-96312714D01*
X54116610Y-96312713D01*
X54041613Y-96274500D01*
X53934223Y-96219781D01*
X53739534Y-96156522D01*
X53564995Y-96128878D01*
X53537352Y-96124500D01*
X53332648Y-96124500D01*
X53308329Y-96128351D01*
X53130465Y-96156522D01*
X52935776Y-96219781D01*
X52753386Y-96312715D01*
X52587786Y-96433028D01*
X52443028Y-96577786D01*
X52322715Y-96743386D01*
X52229781Y-96925776D01*
X52166522Y-97120465D01*
X52140892Y-97282288D01*
X52134500Y-97322648D01*
X52134500Y-97527352D01*
X52134886Y-97529789D01*
X52166522Y-97729534D01*
X52229781Y-97924223D01*
X52274759Y-98012495D01*
X52320143Y-98101567D01*
X52322715Y-98106613D01*
X52443028Y-98272213D01*
X52587786Y-98416971D01*
X52753385Y-98537284D01*
X52753387Y-98537285D01*
X52753390Y-98537287D01*
X52797396Y-98559709D01*
X52846630Y-98584795D01*
X52897426Y-98632770D01*
X52914221Y-98700591D01*
X52891684Y-98766725D01*
X52846630Y-98805765D01*
X52753644Y-98853143D01*
X52709077Y-98885523D01*
X52709077Y-98885524D01*
X53388554Y-99565000D01*
X53382339Y-99565000D01*
X53280606Y-99592259D01*
X53189394Y-99644920D01*
X53114920Y-99719394D01*
X53062259Y-99810606D01*
X53035000Y-99912339D01*
X53035000Y-99918553D01*
X52355524Y-99239077D01*
X52355523Y-99239077D01*
X52323143Y-99283644D01*
X52230244Y-99465968D01*
X52167009Y-99660582D01*
X52135000Y-99862682D01*
X52135000Y-100067317D01*
X52167009Y-100269417D01*
X52230244Y-100464031D01*
X52323141Y-100646350D01*
X52323147Y-100646359D01*
X52355523Y-100690921D01*
X52355524Y-100690922D01*
X53035000Y-100011446D01*
X53035000Y-100017661D01*
X53062259Y-100119394D01*
X53114920Y-100210606D01*
X53189394Y-100285080D01*
X53280606Y-100337741D01*
X53382339Y-100365000D01*
X53388553Y-100365000D01*
X52709076Y-101044474D01*
X52753652Y-101076861D01*
X52846628Y-101124234D01*
X52897425Y-101172208D01*
X52914220Y-101240029D01*
X52891683Y-101306164D01*
X52846630Y-101345203D01*
X52753388Y-101392713D01*
X52587786Y-101513028D01*
X52443028Y-101657786D01*
X52322715Y-101823386D01*
X52229781Y-102005776D01*
X52166522Y-102200465D01*
X52143888Y-102343373D01*
X52113959Y-102406508D01*
X52054647Y-102443439D01*
X51984784Y-102442441D01*
X51933734Y-102411656D01*
X51636819Y-102114741D01*
X51603334Y-102053418D01*
X51600500Y-102027060D01*
X51600500Y-94269500D01*
X51620185Y-94202461D01*
X51672989Y-94156706D01*
X51724500Y-94145500D01*
X62943844Y-94145500D01*
X62943845Y-94145499D01*
X63098497Y-94114737D01*
X63244179Y-94054394D01*
X63375289Y-93966789D01*
X64565978Y-92776098D01*
X64627299Y-92742615D01*
X64663404Y-92740165D01*
X64667643Y-92740499D01*
X64667648Y-92740500D01*
X64667653Y-92740500D01*
X64872351Y-92740500D01*
X64872352Y-92740500D01*
X65074534Y-92708477D01*
X65269219Y-92645220D01*
X65451610Y-92552287D01*
X65568769Y-92467167D01*
X65617213Y-92431971D01*
X65617215Y-92431968D01*
X65617219Y-92431966D01*
X65761966Y-92287219D01*
X65761968Y-92287215D01*
X65761971Y-92287213D01*
X65817505Y-92210776D01*
X65882287Y-92121610D01*
X65975220Y-91939219D01*
X66038477Y-91744534D01*
X66070500Y-91542352D01*
X66070500Y-91337682D01*
X71090000Y-91337682D01*
X71090000Y-91542317D01*
X71122009Y-91744417D01*
X71185244Y-91939031D01*
X71278141Y-92121350D01*
X71278147Y-92121359D01*
X71310523Y-92165921D01*
X71310524Y-92165922D01*
X71990000Y-91486446D01*
X71990000Y-91492661D01*
X72017259Y-91594394D01*
X72069920Y-91685606D01*
X72144394Y-91760080D01*
X72235606Y-91812741D01*
X72337339Y-91840000D01*
X72343553Y-91840000D01*
X71664076Y-92519474D01*
X71708650Y-92551859D01*
X71890968Y-92644755D01*
X72085582Y-92707990D01*
X72287683Y-92740000D01*
X72492317Y-92740000D01*
X72694417Y-92707990D01*
X72889031Y-92644755D01*
X73071349Y-92551859D01*
X73115921Y-92519474D01*
X72436447Y-91840000D01*
X72442661Y-91840000D01*
X72544394Y-91812741D01*
X72635606Y-91760080D01*
X72710080Y-91685606D01*
X72762741Y-91594394D01*
X72790000Y-91492661D01*
X72790000Y-91486447D01*
X73469474Y-92165921D01*
X73501859Y-92121349D01*
X73594755Y-91939031D01*
X73657990Y-91744417D01*
X73690000Y-91542317D01*
X73690000Y-91337682D01*
X73657990Y-91135582D01*
X73594755Y-90940968D01*
X73501859Y-90758650D01*
X73469474Y-90714077D01*
X73469474Y-90714076D01*
X72790000Y-91393551D01*
X72790000Y-91387339D01*
X72762741Y-91285606D01*
X72710080Y-91194394D01*
X72635606Y-91119920D01*
X72544394Y-91067259D01*
X72442661Y-91040000D01*
X72436446Y-91040000D01*
X73115922Y-90360524D01*
X73115921Y-90360523D01*
X73071359Y-90328147D01*
X73071350Y-90328141D01*
X72889031Y-90235244D01*
X72694417Y-90172009D01*
X72492317Y-90140000D01*
X72287683Y-90140000D01*
X72085582Y-90172009D01*
X71890968Y-90235244D01*
X71708644Y-90328143D01*
X71664077Y-90360523D01*
X71664077Y-90360524D01*
X72343554Y-91040000D01*
X72337339Y-91040000D01*
X72235606Y-91067259D01*
X72144394Y-91119920D01*
X72069920Y-91194394D01*
X72017259Y-91285606D01*
X71990000Y-91387339D01*
X71990000Y-91393553D01*
X71310524Y-90714077D01*
X71310523Y-90714077D01*
X71278143Y-90758644D01*
X71185244Y-90940968D01*
X71122009Y-91135582D01*
X71090000Y-91337682D01*
X66070500Y-91337682D01*
X66070500Y-91337648D01*
X66049174Y-91203003D01*
X66038477Y-91135465D01*
X65983717Y-90966933D01*
X65975220Y-90940781D01*
X65975218Y-90940778D01*
X65975218Y-90940776D01*
X65932868Y-90857661D01*
X65882287Y-90758390D01*
X65874556Y-90747749D01*
X65761971Y-90592786D01*
X65617213Y-90448028D01*
X65451613Y-90327715D01*
X65451612Y-90327714D01*
X65451610Y-90327713D01*
X65386573Y-90294575D01*
X65269223Y-90234781D01*
X65074534Y-90171522D01*
X64899995Y-90143878D01*
X64872352Y-90139500D01*
X64667648Y-90139500D01*
X64643329Y-90143351D01*
X64465465Y-90171522D01*
X64270776Y-90234781D01*
X64088386Y-90327715D01*
X63922786Y-90448028D01*
X63778028Y-90592786D01*
X63657715Y-90758386D01*
X63564781Y-90940776D01*
X63501522Y-91135465D01*
X63469500Y-91337648D01*
X63469500Y-91542359D01*
X63469835Y-91546619D01*
X63455467Y-91614996D01*
X63433898Y-91644022D01*
X62569741Y-92508181D01*
X62508418Y-92541666D01*
X62482060Y-92544500D01*
X50721155Y-92544500D01*
X50566510Y-92575261D01*
X50566499Y-92575264D01*
X50553867Y-92580496D01*
X50484397Y-92587960D01*
X50421920Y-92556682D01*
X50386271Y-92496591D01*
X50382428Y-92467167D01*
X50360030Y-90204983D01*
X54894388Y-90204983D01*
X54894388Y-91405001D01*
X54894389Y-91405018D01*
X54904888Y-91507796D01*
X54904889Y-91507799D01*
X54960073Y-91674331D01*
X54960075Y-91674336D01*
X54987028Y-91718034D01*
X55052176Y-91823656D01*
X55176232Y-91947712D01*
X55325554Y-92039814D01*
X55492091Y-92094999D01*
X55594879Y-92105500D01*
X56794896Y-92105499D01*
X56897685Y-92094999D01*
X57064222Y-92039814D01*
X57213544Y-91947712D01*
X57282767Y-91878489D01*
X57344090Y-91845004D01*
X57413782Y-91849988D01*
X57443334Y-91865853D01*
X57513534Y-91916857D01*
X57695856Y-92009755D01*
X57890470Y-92072990D01*
X58092571Y-92105000D01*
X58297205Y-92105000D01*
X58499305Y-92072990D01*
X58693919Y-92009755D01*
X58876237Y-91916859D01*
X58920809Y-91884474D01*
X58241335Y-91205000D01*
X58247549Y-91205000D01*
X58349282Y-91177741D01*
X58440494Y-91125080D01*
X58514968Y-91050606D01*
X58567629Y-90959394D01*
X58594888Y-90857661D01*
X58594888Y-90851447D01*
X59274362Y-91530921D01*
X59306747Y-91486349D01*
X59399643Y-91304031D01*
X59462878Y-91109417D01*
X59494888Y-90907317D01*
X59494888Y-90702682D01*
X59462878Y-90500582D01*
X59399643Y-90305968D01*
X59306747Y-90123650D01*
X59274362Y-90079077D01*
X59274362Y-90079076D01*
X58594888Y-90758551D01*
X58594888Y-90752339D01*
X58567629Y-90650606D01*
X58514968Y-90559394D01*
X58440494Y-90484920D01*
X58349282Y-90432259D01*
X58247549Y-90405000D01*
X58241334Y-90405000D01*
X58920810Y-89725524D01*
X58920809Y-89725523D01*
X58876247Y-89693147D01*
X58876238Y-89693141D01*
X58693919Y-89600244D01*
X58499305Y-89537009D01*
X58297205Y-89505000D01*
X58092571Y-89505000D01*
X57890470Y-89537009D01*
X57695856Y-89600244D01*
X57513539Y-89693139D01*
X57443332Y-89744148D01*
X57377525Y-89767627D01*
X57309471Y-89751801D01*
X57282766Y-89731510D01*
X57213545Y-89662289D01*
X57213544Y-89662288D01*
X57064222Y-89570186D01*
X56897685Y-89515001D01*
X56897683Y-89515000D01*
X56794898Y-89504500D01*
X55594886Y-89504500D01*
X55594869Y-89504501D01*
X55492091Y-89515000D01*
X55492088Y-89515001D01*
X55325556Y-89570185D01*
X55325551Y-89570187D01*
X55176230Y-89662289D01*
X55052177Y-89786342D01*
X54960075Y-89935663D01*
X54960074Y-89935666D01*
X54904889Y-90102203D01*
X54904889Y-90102204D01*
X54904888Y-90102204D01*
X54894388Y-90204983D01*
X50360030Y-90204983D01*
X50244715Y-78558209D01*
X51544500Y-78558209D01*
X51544500Y-78921790D01*
X51580137Y-79283630D01*
X51651064Y-79640212D01*
X51651067Y-79640223D01*
X51756614Y-79988165D01*
X51817252Y-80134558D01*
X51894799Y-80321774D01*
X51895754Y-80324078D01*
X51895756Y-80324083D01*
X52067140Y-80644720D01*
X52067151Y-80644738D01*
X52269140Y-80947035D01*
X52269150Y-80947049D01*
X52499807Y-81228106D01*
X52756893Y-81485192D01*
X52756898Y-81485196D01*
X52756899Y-81485197D01*
X53037956Y-81715854D01*
X53340268Y-81917853D01*
X53340277Y-81917858D01*
X53340279Y-81917859D01*
X53660916Y-82089243D01*
X53660918Y-82089243D01*
X53660924Y-82089247D01*
X53996836Y-82228386D01*
X54344767Y-82333930D01*
X54344773Y-82333931D01*
X54344776Y-82333932D01*
X54344787Y-82333935D01*
X54701369Y-82404862D01*
X55063206Y-82440500D01*
X55063209Y-82440500D01*
X55426791Y-82440500D01*
X55426794Y-82440500D01*
X55788631Y-82404862D01*
X55858045Y-82391054D01*
X56145212Y-82333935D01*
X56145223Y-82333932D01*
X56145223Y-82333931D01*
X56145233Y-82333930D01*
X56493164Y-82228386D01*
X56829076Y-82089247D01*
X57149732Y-81917853D01*
X57452044Y-81715854D01*
X57733101Y-81485197D01*
X57990197Y-81228101D01*
X58220854Y-80947044D01*
X58422853Y-80644732D01*
X58594247Y-80324076D01*
X58733386Y-79988164D01*
X58838930Y-79640233D01*
X58838932Y-79640223D01*
X58838935Y-79640212D01*
X58909862Y-79283630D01*
X58911840Y-79263549D01*
X58945500Y-78921794D01*
X58945500Y-78558206D01*
X58909862Y-78196369D01*
X58907889Y-78186448D01*
X58838935Y-77839787D01*
X58838932Y-77839776D01*
X58838931Y-77839773D01*
X58838930Y-77839767D01*
X58733386Y-77491836D01*
X58594247Y-77155924D01*
X58529155Y-77034146D01*
X58422859Y-76835279D01*
X58422858Y-76835277D01*
X58422853Y-76835268D01*
X58220854Y-76532956D01*
X57990197Y-76251899D01*
X57990196Y-76251898D01*
X57990192Y-76251893D01*
X57733106Y-75994807D01*
X57452049Y-75764150D01*
X57452048Y-75764149D01*
X57452044Y-75764146D01*
X57149732Y-75562147D01*
X57149727Y-75562144D01*
X57149720Y-75562140D01*
X56829083Y-75390756D01*
X56829078Y-75390754D01*
X56493165Y-75251614D01*
X56145223Y-75146067D01*
X56145212Y-75146064D01*
X55788630Y-75075137D01*
X55516111Y-75048296D01*
X55426794Y-75039500D01*
X55063206Y-75039500D01*
X54980679Y-75047628D01*
X54701369Y-75075137D01*
X54344787Y-75146064D01*
X54344776Y-75146067D01*
X53996834Y-75251614D01*
X53660921Y-75390754D01*
X53660916Y-75390756D01*
X53340279Y-75562140D01*
X53340261Y-75562151D01*
X53037964Y-75764140D01*
X53037950Y-75764150D01*
X52756893Y-75994807D01*
X52499807Y-76251893D01*
X52269150Y-76532950D01*
X52269140Y-76532964D01*
X52067151Y-76835261D01*
X52067140Y-76835279D01*
X51895756Y-77155916D01*
X51895754Y-77155921D01*
X51756614Y-77491834D01*
X51651067Y-77839776D01*
X51651064Y-77839787D01*
X51580137Y-78196369D01*
X51544500Y-78558209D01*
X50244715Y-78558209D01*
X50169933Y-71005263D01*
X50179155Y-70972668D01*
X50187791Y-70939921D01*
X50188751Y-70938748D01*
X50188953Y-70938036D01*
X50210147Y-70912624D01*
X50363806Y-70771821D01*
X50372058Y-70764897D01*
X50674918Y-70532505D01*
X50683756Y-70526318D01*
X50686595Y-70524509D01*
X50752815Y-70505100D01*
X93259925Y-70372265D01*
X93327021Y-70391739D01*
G37*
%TD.AperFunction*%
%TA.AperFunction,Conductor*%
G36*
X245747942Y-109069889D02*
G01*
X245754307Y-109069617D01*
X245779336Y-109084226D01*
X245805703Y-109096268D01*
X245810527Y-109102433D01*
X245814649Y-109104839D01*
X245834984Y-109133684D01*
X245889570Y-109240815D01*
X245902715Y-109266614D01*
X246023028Y-109432213D01*
X246167786Y-109576971D01*
X246333385Y-109697284D01*
X246333387Y-109697285D01*
X246333390Y-109697287D01*
X246402535Y-109732518D01*
X246426630Y-109744795D01*
X246477426Y-109792770D01*
X246494221Y-109860591D01*
X246471684Y-109926725D01*
X246426630Y-109965765D01*
X246333644Y-110013143D01*
X246289077Y-110045523D01*
X246289077Y-110045524D01*
X246968554Y-110725000D01*
X246962339Y-110725000D01*
X246860606Y-110752259D01*
X246769394Y-110804920D01*
X246694920Y-110879394D01*
X246642259Y-110970606D01*
X246615000Y-111072339D01*
X246615000Y-111078553D01*
X245935524Y-110399077D01*
X245935523Y-110399077D01*
X245903143Y-110443644D01*
X245834985Y-110577413D01*
X245787010Y-110628209D01*
X245719189Y-110645004D01*
X245653054Y-110622466D01*
X245609603Y-110567751D01*
X245600500Y-110521118D01*
X245600500Y-109189981D01*
X245602294Y-109183868D01*
X245601119Y-109177607D01*
X245612020Y-109150747D01*
X245620185Y-109122942D01*
X245624998Y-109118771D01*
X245627395Y-109112866D01*
X245651091Y-109096161D01*
X245672989Y-109077187D01*
X245679293Y-109076280D01*
X245684502Y-109072609D01*
X245713460Y-109071367D01*
X245742147Y-109067243D01*
X245747942Y-109069889D01*
G37*
%TD.AperFunction*%
%TA.AperFunction,Conductor*%
G36*
X60655000Y-107637661D02*
G01*
X60682259Y-107739394D01*
X60734920Y-107830606D01*
X60809394Y-107905080D01*
X60900606Y-107957741D01*
X61002339Y-107985000D01*
X61008553Y-107985000D01*
X60329076Y-108664474D01*
X60373652Y-108696861D01*
X60466628Y-108744234D01*
X60517425Y-108792208D01*
X60534220Y-108860029D01*
X60511683Y-108926164D01*
X60466630Y-108965203D01*
X60373388Y-109012713D01*
X60207786Y-109133028D01*
X60063028Y-109277786D01*
X59942715Y-109443386D01*
X59849781Y-109625776D01*
X59787431Y-109817670D01*
X59747993Y-109875345D01*
X59683634Y-109902543D01*
X59614788Y-109890628D01*
X59563312Y-109843384D01*
X59545500Y-109779351D01*
X59545500Y-107929032D01*
X59565185Y-107861993D01*
X59617989Y-107816238D01*
X59687147Y-107806294D01*
X59750703Y-107835319D01*
X59787431Y-107890713D01*
X59850244Y-108084031D01*
X59943141Y-108266350D01*
X59943147Y-108266359D01*
X59975523Y-108310921D01*
X59975524Y-108310922D01*
X60655000Y-107631446D01*
X60655000Y-107637661D01*
G37*
%TD.AperFunction*%
%TD*%
%TA.AperFunction,Conductor*%
%TO.N,VDC*%
G36*
X100562809Y-93384687D02*
G01*
X100562812Y-93384690D01*
X100677906Y-93470850D01*
X100677913Y-93470854D01*
X100687200Y-93474318D01*
X100743134Y-93516189D01*
X100767551Y-93581653D01*
X100752699Y-93649926D01*
X100703294Y-93699332D01*
X100643867Y-93714500D01*
X95796304Y-93714500D01*
X95749617Y-93723787D01*
X95680025Y-93717560D01*
X95624848Y-93674697D01*
X95621111Y-93669209D01*
X95571471Y-93591968D01*
X95571458Y-93591951D01*
X95525714Y-93539159D01*
X95525710Y-93539156D01*
X95525708Y-93539153D01*
X95416974Y-93444933D01*
X95416971Y-93444931D01*
X95416969Y-93444930D01*
X95286103Y-93385164D01*
X95286098Y-93385162D01*
X95286097Y-93385162D01*
X95219058Y-93365477D01*
X95219060Y-93365477D01*
X95219055Y-93365476D01*
X95156992Y-93356553D01*
X95076638Y-93345000D01*
X100533099Y-93345000D01*
X100562809Y-93384687D01*
G37*
%TD.AperFunction*%
%TA.AperFunction,Conductor*%
G36*
X186287809Y-93384687D02*
G01*
X186287812Y-93384690D01*
X186402906Y-93470850D01*
X186402913Y-93470854D01*
X186412200Y-93474318D01*
X186468134Y-93516189D01*
X186492551Y-93581653D01*
X186477699Y-93649926D01*
X186428294Y-93699332D01*
X186368867Y-93714500D01*
X183304361Y-93714500D01*
X183237322Y-93694815D01*
X183216680Y-93678181D01*
X182883499Y-93345000D01*
X186258099Y-93345000D01*
X186287809Y-93384687D01*
G37*
%TD.AperFunction*%
%TA.AperFunction,Conductor*%
G36*
X189854592Y-93361329D02*
G01*
X189841450Y-93396566D01*
X189831504Y-93430436D01*
X189831502Y-93430445D01*
X189821959Y-93474318D01*
X189816173Y-93500917D01*
X189816173Y-93572853D01*
X189816174Y-93590499D01*
X189796490Y-93657538D01*
X189743687Y-93703294D01*
X189692174Y-93714500D01*
X188921133Y-93714500D01*
X188854094Y-93694815D01*
X188808339Y-93642011D01*
X188798395Y-93572853D01*
X188827420Y-93509297D01*
X188877800Y-93474318D01*
X188887086Y-93470854D01*
X188887093Y-93470850D01*
X189002187Y-93384690D01*
X189002190Y-93384687D01*
X189031900Y-93345000D01*
X189858759Y-93345000D01*
X189854592Y-93361329D01*
G37*
%TD.AperFunction*%
%TA.AperFunction,Conductor*%
G36*
X124121780Y-93345320D02*
G01*
X124114135Y-93345593D01*
X124112890Y-93345638D01*
X124112886Y-93345638D01*
X124112864Y-93345639D01*
X124094878Y-93346603D01*
X124094863Y-93346605D01*
X123954287Y-93377186D01*
X123954282Y-93377187D01*
X123954281Y-93377188D01*
X123950367Y-93378648D01*
X123888815Y-93401605D01*
X123888811Y-93401607D01*
X123762543Y-93470555D01*
X123660805Y-93572289D01*
X123660795Y-93572301D01*
X123630077Y-93613333D01*
X123574142Y-93655202D01*
X123504450Y-93660184D01*
X123504438Y-93660182D01*
X123493604Y-93657823D01*
X123481836Y-93652949D01*
X123359742Y-93628663D01*
X123358644Y-93628444D01*
X123358600Y-93628435D01*
X123288543Y-93614500D01*
X123288541Y-93614500D01*
X109638540Y-93614500D01*
X109441459Y-93614500D01*
X109441456Y-93614500D01*
X109248171Y-93652947D01*
X109248164Y-93652948D01*
X109246428Y-93653668D01*
X109246027Y-93653834D01*
X109244819Y-93653963D01*
X109242337Y-93654717D01*
X109242194Y-93654245D01*
X109176558Y-93661299D01*
X109114080Y-93630021D01*
X109094264Y-93606307D01*
X109085044Y-93591960D01*
X109085037Y-93591951D01*
X109039293Y-93539159D01*
X109039289Y-93539156D01*
X109039287Y-93539153D01*
X108930553Y-93444933D01*
X108930550Y-93444931D01*
X108930548Y-93444930D01*
X108799682Y-93385164D01*
X108799677Y-93385162D01*
X108799676Y-93385162D01*
X108732637Y-93365477D01*
X108732639Y-93365477D01*
X108732634Y-93365476D01*
X108670571Y-93356553D01*
X108590217Y-93345000D01*
X124139763Y-93345000D01*
X124121780Y-93345320D01*
G37*
%TD.AperFunction*%
%TA.AperFunction,Conductor*%
G36*
X173510359Y-93345320D02*
G01*
X173502714Y-93345593D01*
X173501469Y-93345638D01*
X173501465Y-93345638D01*
X173501443Y-93345639D01*
X173483457Y-93346603D01*
X173483442Y-93346605D01*
X173342866Y-93377186D01*
X173342861Y-93377187D01*
X173342860Y-93377188D01*
X173338946Y-93378648D01*
X173277394Y-93401605D01*
X173277390Y-93401607D01*
X173151120Y-93470556D01*
X173151119Y-93470557D01*
X173087766Y-93533908D01*
X173026442Y-93567392D01*
X172956751Y-93562406D01*
X172912406Y-93533906D01*
X172723500Y-93345000D01*
X173528342Y-93345000D01*
X173510359Y-93345320D01*
G37*
%TD.AperFunction*%
%TA.AperFunction,Conductor*%
G36*
X93345000Y-89531501D02*
G01*
X93157441Y-89343942D01*
X93123956Y-89282619D01*
X93128940Y-89212927D01*
X93151407Y-89175061D01*
X93245067Y-89066974D01*
X93304838Y-88936097D01*
X93324523Y-88869058D01*
X93324524Y-88869054D01*
X93345000Y-88726638D01*
X93345000Y-89531501D01*
G37*
%TD.AperFunction*%
%TA.AperFunction,Conductor*%
G36*
X189865320Y-78088267D02*
G01*
X189865639Y-78097183D01*
X189866603Y-78115169D01*
X189866605Y-78115184D01*
X189896233Y-78251377D01*
X189897188Y-78255767D01*
X189912347Y-78296411D01*
X189921605Y-78321232D01*
X189921607Y-78321236D01*
X189980023Y-78428217D01*
X189990556Y-78447506D01*
X190092293Y-78549246D01*
X190092296Y-78549248D01*
X190137436Y-78583041D01*
X190148226Y-78591118D01*
X190148234Y-78591124D01*
X190148240Y-78591127D01*
X190151607Y-78593631D01*
X190151645Y-78593681D01*
X190151791Y-78593791D01*
X190151759Y-78593833D01*
X190170165Y-78618258D01*
X190190364Y-78641531D01*
X190190996Y-78645902D01*
X190193656Y-78649432D01*
X190195952Y-78680177D01*
X190200364Y-78710681D01*
X190198688Y-78716798D01*
X190198861Y-78719107D01*
X190197233Y-78722110D01*
X190192173Y-78740586D01*
X190156295Y-78827203D01*
X190156290Y-78827219D01*
X190108228Y-79006592D01*
X190098597Y-79042534D01*
X190098594Y-79042547D01*
X190069501Y-79263533D01*
X190069500Y-79263549D01*
X190069500Y-79486450D01*
X190069501Y-79486466D01*
X190098594Y-79707452D01*
X190098595Y-79707457D01*
X190098596Y-79707463D01*
X190138160Y-79855119D01*
X190156290Y-79922780D01*
X190156293Y-79922790D01*
X190193062Y-80011557D01*
X190200531Y-80081027D01*
X190169256Y-80143506D01*
X190145543Y-80163324D01*
X190111958Y-80184908D01*
X190111944Y-80184918D01*
X190059159Y-80230657D01*
X189964933Y-80339398D01*
X189964930Y-80339402D01*
X189905164Y-80470268D01*
X189885476Y-80537316D01*
X189865000Y-80679735D01*
X189865000Y-78070285D01*
X189865320Y-78088267D01*
G37*
%TD.AperFunction*%
%TA.AperFunction,Conductor*%
G36*
X93403797Y-71119226D02*
G01*
X93417489Y-71107363D01*
X93433836Y-71101722D01*
X93433825Y-71101689D01*
X93439535Y-71099708D01*
X93439545Y-71099706D01*
X93570235Y-71039528D01*
X93628895Y-71001570D01*
X93628896Y-71001569D01*
X93628917Y-71001550D01*
X93630466Y-71000299D01*
X93632067Y-70998803D01*
X93737339Y-70907008D01*
X93814747Y-70785726D01*
X93843573Y-70722080D01*
X93883677Y-70583906D01*
X93883677Y-70583903D01*
X93883398Y-70494315D01*
X93902873Y-70427214D01*
X93955534Y-70381295D01*
X94007002Y-70369930D01*
X167899904Y-70139014D01*
X93403797Y-71119226D01*
G37*
%TD.AperFunction*%
%TA.AperFunction,Conductor*%
G36*
X189872600Y-70123343D02*
G01*
X189871495Y-70147228D01*
X189865000Y-70192402D01*
X189865000Y-70070373D01*
X189869930Y-70070358D01*
X189872600Y-70123343D01*
G37*
%TD.AperFunction*%
%TD*%
%TA.AperFunction,Conductor*%
%TO.N,VDC*%
G36*
X189770774Y-69855537D02*
G01*
X189771570Y-69855741D01*
X189782338Y-69862144D01*
X189794697Y-69864192D01*
X189811798Y-69879663D01*
X189831624Y-69891452D01*
X189838467Y-69903788D01*
X189846511Y-69911065D01*
X189860483Y-69943476D01*
X189860697Y-69944267D01*
X189865000Y-69976650D01*
X189865000Y-70070374D01*
X189865000Y-93345000D01*
X189031899Y-93345000D01*
X189088350Y-93269593D01*
X189088354Y-93269586D01*
X189138596Y-93134879D01*
X189138598Y-93134872D01*
X189144999Y-93075344D01*
X189145000Y-93075327D01*
X189145000Y-92325000D01*
X188135748Y-92325000D01*
X188157518Y-92287292D01*
X188195000Y-92147409D01*
X188195000Y-92002591D01*
X188157518Y-91862708D01*
X188135748Y-91825000D01*
X189145000Y-91825000D01*
X189145000Y-91074672D01*
X189144999Y-91074655D01*
X189138598Y-91015127D01*
X189138596Y-91015120D01*
X189088354Y-90880413D01*
X189088350Y-90880406D01*
X189002190Y-90765312D01*
X189002187Y-90765309D01*
X188887093Y-90679149D01*
X188887086Y-90679145D01*
X188752379Y-90628903D01*
X188752372Y-90628901D01*
X188692844Y-90622500D01*
X187895000Y-90622500D01*
X187895000Y-91584252D01*
X187857292Y-91562482D01*
X187717409Y-91525000D01*
X187572591Y-91525000D01*
X187432708Y-91562482D01*
X187395000Y-91584252D01*
X187395000Y-90622500D01*
X186597155Y-90622500D01*
X186537627Y-90628901D01*
X186537620Y-90628903D01*
X186402913Y-90679145D01*
X186402906Y-90679149D01*
X186287812Y-90765309D01*
X186287809Y-90765312D01*
X186201649Y-90880406D01*
X186201645Y-90880413D01*
X186151403Y-91015120D01*
X186151401Y-91015127D01*
X186145000Y-91074655D01*
X186145000Y-91825000D01*
X187154252Y-91825000D01*
X187132482Y-91862708D01*
X187095000Y-92002591D01*
X187095000Y-92147409D01*
X187132482Y-92287292D01*
X187154252Y-92325000D01*
X186145000Y-92325000D01*
X186145000Y-93075344D01*
X186151401Y-93134872D01*
X186151403Y-93134879D01*
X186201645Y-93269586D01*
X186201649Y-93269593D01*
X186258099Y-93345000D01*
X182883499Y-93345000D01*
X177701147Y-88162648D01*
X179059500Y-88162648D01*
X179059500Y-88367351D01*
X179091522Y-88569534D01*
X179154781Y-88764223D01*
X179197248Y-88847567D01*
X179247585Y-88946359D01*
X179247715Y-88946613D01*
X179368028Y-89112213D01*
X179512786Y-89256971D01*
X179633226Y-89344474D01*
X179678390Y-89377287D01*
X179794607Y-89436503D01*
X179860776Y-89470218D01*
X179860778Y-89470218D01*
X179860781Y-89470220D01*
X179965137Y-89504127D01*
X180055465Y-89533477D01*
X180156557Y-89549488D01*
X180257648Y-89565500D01*
X180257649Y-89565500D01*
X180462351Y-89565500D01*
X180462352Y-89565500D01*
X180664534Y-89533477D01*
X180859219Y-89470220D01*
X181041610Y-89377287D01*
X181134590Y-89309732D01*
X181207213Y-89256971D01*
X181207215Y-89256968D01*
X181207219Y-89256966D01*
X181351966Y-89112219D01*
X181351968Y-89112215D01*
X181351971Y-89112213D01*
X181472286Y-88946611D01*
X181472415Y-88946359D01*
X181499795Y-88892621D01*
X181547769Y-88841826D01*
X181615589Y-88825030D01*
X181681725Y-88847567D01*
X181720765Y-88892621D01*
X181748141Y-88946350D01*
X181748147Y-88946359D01*
X181780523Y-88990921D01*
X181780524Y-88990922D01*
X182460000Y-88311446D01*
X182460000Y-88317661D01*
X182487259Y-88419394D01*
X182539920Y-88510606D01*
X182614394Y-88585080D01*
X182705606Y-88637741D01*
X182807339Y-88665000D01*
X182813553Y-88665000D01*
X182134076Y-89344474D01*
X182178650Y-89376859D01*
X182360968Y-89469755D01*
X182555582Y-89532990D01*
X182757683Y-89565000D01*
X182962317Y-89565000D01*
X183164417Y-89532990D01*
X183359031Y-89469755D01*
X183541349Y-89376859D01*
X183585921Y-89344474D01*
X182906447Y-88665000D01*
X182912661Y-88665000D01*
X183014394Y-88637741D01*
X183105606Y-88585080D01*
X183180080Y-88510606D01*
X183232741Y-88419394D01*
X183260000Y-88317661D01*
X183260000Y-88311447D01*
X183939474Y-88990921D01*
X183971859Y-88946349D01*
X184064755Y-88764031D01*
X184127990Y-88569417D01*
X184160000Y-88367317D01*
X184160000Y-88162682D01*
X184127990Y-87960582D01*
X184064755Y-87765968D01*
X183971859Y-87583650D01*
X183939474Y-87539077D01*
X183939474Y-87539076D01*
X183260000Y-88218551D01*
X183260000Y-88212339D01*
X183232741Y-88110606D01*
X183180080Y-88019394D01*
X183105606Y-87944920D01*
X183014394Y-87892259D01*
X182912661Y-87865000D01*
X182906446Y-87865000D01*
X183585922Y-87185524D01*
X183585921Y-87185523D01*
X183541359Y-87153147D01*
X183541350Y-87153141D01*
X183359031Y-87060244D01*
X183164417Y-86997009D01*
X182962317Y-86965000D01*
X182757683Y-86965000D01*
X182555582Y-86997009D01*
X182360968Y-87060244D01*
X182178644Y-87153143D01*
X182134077Y-87185523D01*
X182134077Y-87185524D01*
X182813554Y-87865000D01*
X182807339Y-87865000D01*
X182705606Y-87892259D01*
X182614394Y-87944920D01*
X182539920Y-88019394D01*
X182487259Y-88110606D01*
X182460000Y-88212339D01*
X182460000Y-88218553D01*
X181780524Y-87539077D01*
X181780523Y-87539077D01*
X181748143Y-87583644D01*
X181720765Y-87637378D01*
X181672790Y-87688174D01*
X181604969Y-87704969D01*
X181538834Y-87682431D01*
X181499795Y-87637378D01*
X181472287Y-87583390D01*
X181472285Y-87583387D01*
X181472284Y-87583385D01*
X181351971Y-87417786D01*
X181207213Y-87273028D01*
X181041613Y-87152715D01*
X181041612Y-87152714D01*
X181041610Y-87152713D01*
X180984653Y-87123691D01*
X180859223Y-87059781D01*
X180664534Y-86996522D01*
X180489995Y-86968878D01*
X180462352Y-86964500D01*
X180257648Y-86964500D01*
X180233329Y-86968351D01*
X180055465Y-86996522D01*
X179860776Y-87059781D01*
X179678386Y-87152715D01*
X179512786Y-87273028D01*
X179368028Y-87417786D01*
X179247715Y-87583386D01*
X179154781Y-87765776D01*
X179091522Y-87960465D01*
X179059500Y-88162648D01*
X177701147Y-88162648D01*
X175861496Y-86322997D01*
X175828011Y-86261674D01*
X175829401Y-86203224D01*
X175857982Y-86096565D01*
X175890500Y-85849565D01*
X175890500Y-85600435D01*
X175857982Y-85353435D01*
X175793502Y-85112793D01*
X175698164Y-84882627D01*
X175573599Y-84666873D01*
X175421938Y-84469224D01*
X175421933Y-84469218D01*
X175245781Y-84293066D01*
X175245774Y-84293060D01*
X175048126Y-84141400D01*
X174832376Y-84016837D01*
X174832361Y-84016830D01*
X174602207Y-83921498D01*
X174361561Y-83857017D01*
X174114575Y-83824501D01*
X174114570Y-83824500D01*
X174114565Y-83824500D01*
X173865435Y-83824500D01*
X173865429Y-83824500D01*
X173865424Y-83824501D01*
X173618438Y-83857017D01*
X173377792Y-83921498D01*
X173147638Y-84016830D01*
X173147623Y-84016837D01*
X172931873Y-84141400D01*
X172734225Y-84293060D01*
X172734218Y-84293066D01*
X172558066Y-84469218D01*
X172558060Y-84469225D01*
X172406400Y-84666873D01*
X172281837Y-84882623D01*
X172281830Y-84882638D01*
X172186498Y-85112792D01*
X172122017Y-85353438D01*
X172089501Y-85600424D01*
X172089500Y-85600441D01*
X172089500Y-85849558D01*
X172089501Y-85849575D01*
X172115652Y-86048217D01*
X172122018Y-86096565D01*
X172160793Y-86241274D01*
X172186498Y-86337207D01*
X172281830Y-86567361D01*
X172281837Y-86567376D01*
X172406400Y-86783126D01*
X172558060Y-86980774D01*
X172558066Y-86980781D01*
X172734218Y-87156933D01*
X172734225Y-87156939D01*
X172931873Y-87308599D01*
X173147623Y-87433162D01*
X173147638Y-87433169D01*
X173246825Y-87474253D01*
X173377793Y-87528502D01*
X173618435Y-87592982D01*
X173865435Y-87625500D01*
X173865442Y-87625500D01*
X174114558Y-87625500D01*
X174114565Y-87625500D01*
X174361565Y-87592982D01*
X174468224Y-87564402D01*
X174538072Y-87566065D01*
X174587997Y-87596496D01*
X180336501Y-93345000D01*
X172723499Y-93345000D01*
X165701496Y-86322997D01*
X165668011Y-86261674D01*
X165669401Y-86203224D01*
X165697982Y-86096565D01*
X165730500Y-85849565D01*
X165730500Y-85600435D01*
X165697982Y-85353435D01*
X165633502Y-85112793D01*
X165538164Y-84882627D01*
X165413599Y-84666873D01*
X165261938Y-84469224D01*
X165261933Y-84469218D01*
X165085781Y-84293066D01*
X165085774Y-84293060D01*
X164888126Y-84141400D01*
X164672376Y-84016837D01*
X164672361Y-84016830D01*
X164442207Y-83921498D01*
X164201561Y-83857017D01*
X163954575Y-83824501D01*
X163954570Y-83824500D01*
X163954565Y-83824500D01*
X163705435Y-83824500D01*
X163705429Y-83824500D01*
X163705424Y-83824501D01*
X163458438Y-83857017D01*
X163217792Y-83921498D01*
X162987638Y-84016830D01*
X162987623Y-84016837D01*
X162771873Y-84141400D01*
X162574225Y-84293060D01*
X162574218Y-84293066D01*
X162398066Y-84469218D01*
X162398060Y-84469225D01*
X162246400Y-84666873D01*
X162121837Y-84882623D01*
X162121830Y-84882638D01*
X162026498Y-85112792D01*
X161962017Y-85353438D01*
X161929501Y-85600424D01*
X161929500Y-85600441D01*
X161929500Y-85849558D01*
X161929501Y-85849575D01*
X161955652Y-86048217D01*
X161962018Y-86096565D01*
X162000793Y-86241274D01*
X162026498Y-86337207D01*
X162121830Y-86567361D01*
X162121837Y-86567376D01*
X162246400Y-86783126D01*
X162398060Y-86980774D01*
X162398066Y-86980781D01*
X162574218Y-87156933D01*
X162574225Y-87156939D01*
X162771873Y-87308599D01*
X162987623Y-87433162D01*
X162987638Y-87433169D01*
X163086825Y-87474253D01*
X163217793Y-87528502D01*
X163458435Y-87592982D01*
X163705435Y-87625500D01*
X163705442Y-87625500D01*
X163954558Y-87625500D01*
X163954565Y-87625500D01*
X164201565Y-87592982D01*
X164308224Y-87564402D01*
X164378072Y-87566065D01*
X164427997Y-87596496D01*
X170176501Y-93345000D01*
X157110500Y-93345000D01*
X157110500Y-88508605D01*
X157130185Y-88441566D01*
X157159014Y-88410229D01*
X157214894Y-88367351D01*
X157333624Y-88276247D01*
X157491247Y-88118624D01*
X157626948Y-87941774D01*
X157738405Y-87748726D01*
X157823710Y-87542781D01*
X157881404Y-87327463D01*
X157910500Y-87106457D01*
X157910500Y-86883543D01*
X157881404Y-86662537D01*
X157823710Y-86447219D01*
X157814415Y-86424780D01*
X157738406Y-86241277D01*
X157738405Y-86241274D01*
X157626948Y-86048226D01*
X157491247Y-85871376D01*
X157491242Y-85871370D01*
X157333629Y-85713757D01*
X157333622Y-85713751D01*
X157156782Y-85578058D01*
X157156780Y-85578057D01*
X157156774Y-85578052D01*
X156963726Y-85466595D01*
X156963722Y-85466593D01*
X156757790Y-85381293D01*
X156757783Y-85381291D01*
X156757781Y-85381290D01*
X156542463Y-85323596D01*
X156542457Y-85323595D01*
X156542452Y-85323594D01*
X156321466Y-85294501D01*
X156321463Y-85294500D01*
X156321457Y-85294500D01*
X156098543Y-85294500D01*
X156098537Y-85294500D01*
X156098533Y-85294501D01*
X155877547Y-85323594D01*
X155877540Y-85323595D01*
X155877537Y-85323596D01*
X155662219Y-85381290D01*
X155662209Y-85381293D01*
X155456277Y-85466593D01*
X155456273Y-85466595D01*
X155263226Y-85578052D01*
X155263217Y-85578058D01*
X155086377Y-85713751D01*
X155086370Y-85713757D01*
X154928757Y-85871370D01*
X154928751Y-85871377D01*
X154793058Y-86048217D01*
X154793052Y-86048226D01*
X154681595Y-86241273D01*
X154681593Y-86241277D01*
X154596293Y-86447209D01*
X154596290Y-86447219D01*
X154538597Y-86662534D01*
X154538594Y-86662547D01*
X154509501Y-86883533D01*
X154509500Y-86883549D01*
X154509500Y-87106450D01*
X154509501Y-87106466D01*
X154538594Y-87327452D01*
X154538595Y-87327457D01*
X154538596Y-87327463D01*
X154595298Y-87539077D01*
X154596290Y-87542780D01*
X154596293Y-87542790D01*
X154681593Y-87748722D01*
X154681595Y-87748726D01*
X154793052Y-87941774D01*
X154793057Y-87941780D01*
X154793058Y-87941782D01*
X154928751Y-88118622D01*
X154928757Y-88118629D01*
X155086370Y-88276242D01*
X155086377Y-88276248D01*
X155260986Y-88410229D01*
X155302189Y-88466656D01*
X155309500Y-88508605D01*
X155309500Y-93345000D01*
X134610500Y-93345000D01*
X134610500Y-88508605D01*
X134630185Y-88441566D01*
X134659014Y-88410229D01*
X134714894Y-88367351D01*
X134833624Y-88276247D01*
X134991247Y-88118624D01*
X135126948Y-87941774D01*
X135238405Y-87748726D01*
X135323710Y-87542781D01*
X135381404Y-87327463D01*
X135410500Y-87106457D01*
X135410500Y-86883543D01*
X135381404Y-86662537D01*
X135323710Y-86447219D01*
X135314415Y-86424780D01*
X135238406Y-86241277D01*
X135238405Y-86241274D01*
X135126948Y-86048226D01*
X134991247Y-85871376D01*
X134991242Y-85871370D01*
X134833629Y-85713757D01*
X134833622Y-85713751D01*
X134656782Y-85578058D01*
X134656780Y-85578057D01*
X134656774Y-85578052D01*
X134463726Y-85466595D01*
X134463722Y-85466593D01*
X134257790Y-85381293D01*
X134257783Y-85381291D01*
X134257781Y-85381290D01*
X134042463Y-85323596D01*
X134042457Y-85323595D01*
X134042452Y-85323594D01*
X133821466Y-85294501D01*
X133821463Y-85294500D01*
X133821457Y-85294500D01*
X133598543Y-85294500D01*
X133598537Y-85294500D01*
X133598533Y-85294501D01*
X133377547Y-85323594D01*
X133377540Y-85323595D01*
X133377537Y-85323596D01*
X133162219Y-85381290D01*
X133162209Y-85381293D01*
X132956277Y-85466593D01*
X132956273Y-85466595D01*
X132763226Y-85578052D01*
X132763217Y-85578058D01*
X132586377Y-85713751D01*
X132586370Y-85713757D01*
X132428757Y-85871370D01*
X132428751Y-85871377D01*
X132293058Y-86048217D01*
X132293052Y-86048226D01*
X132181595Y-86241273D01*
X132181593Y-86241277D01*
X132096293Y-86447209D01*
X132096290Y-86447219D01*
X132038597Y-86662534D01*
X132038594Y-86662547D01*
X132009501Y-86883533D01*
X132009500Y-86883549D01*
X132009500Y-87106450D01*
X132009501Y-87106466D01*
X132038594Y-87327452D01*
X132038595Y-87327457D01*
X132038596Y-87327463D01*
X132095298Y-87539077D01*
X132096290Y-87542780D01*
X132096293Y-87542790D01*
X132181593Y-87748722D01*
X132181595Y-87748726D01*
X132293052Y-87941774D01*
X132293057Y-87941780D01*
X132293058Y-87941782D01*
X132428751Y-88118622D01*
X132428757Y-88118629D01*
X132586370Y-88276242D01*
X132586377Y-88276248D01*
X132760986Y-88410229D01*
X132802189Y-88466656D01*
X132809500Y-88508605D01*
X132809500Y-93345000D01*
X103306899Y-93345000D01*
X103363350Y-93269593D01*
X103363354Y-93269586D01*
X103413596Y-93134879D01*
X103413598Y-93134872D01*
X103419999Y-93075344D01*
X103420000Y-93075327D01*
X103420000Y-92325000D01*
X102410748Y-92325000D01*
X102432518Y-92287292D01*
X102470000Y-92147409D01*
X102470000Y-92002591D01*
X102432518Y-91862708D01*
X102410748Y-91825000D01*
X103420000Y-91825000D01*
X103420000Y-91074672D01*
X103419999Y-91074655D01*
X103413598Y-91015127D01*
X103413596Y-91015120D01*
X103363354Y-90880413D01*
X103363350Y-90880406D01*
X103277190Y-90765312D01*
X103277187Y-90765309D01*
X103162093Y-90679149D01*
X103162086Y-90679145D01*
X103027379Y-90628903D01*
X103027372Y-90628901D01*
X102967844Y-90622500D01*
X102170000Y-90622500D01*
X102170000Y-91584252D01*
X102132292Y-91562482D01*
X101992409Y-91525000D01*
X101847591Y-91525000D01*
X101707708Y-91562482D01*
X101670000Y-91584252D01*
X101670000Y-90622500D01*
X100872155Y-90622500D01*
X100812627Y-90628901D01*
X100812620Y-90628903D01*
X100677913Y-90679145D01*
X100677906Y-90679149D01*
X100562812Y-90765309D01*
X100562809Y-90765312D01*
X100476649Y-90880406D01*
X100476645Y-90880413D01*
X100426403Y-91015120D01*
X100426401Y-91015127D01*
X100420000Y-91074655D01*
X100420000Y-91825000D01*
X101429252Y-91825000D01*
X101407482Y-91862708D01*
X101370000Y-92002591D01*
X101370000Y-92147409D01*
X101407482Y-92287292D01*
X101429252Y-92325000D01*
X100420000Y-92325000D01*
X100420000Y-93075344D01*
X100426401Y-93134872D01*
X100426403Y-93134879D01*
X100476645Y-93269586D01*
X100476649Y-93269593D01*
X100533099Y-93345000D01*
X94245500Y-93345000D01*
X94245500Y-90716308D01*
X94245499Y-90716304D01*
X94210895Y-90542334D01*
X94145339Y-90384071D01*
X94143695Y-90379474D01*
X94044465Y-90230966D01*
X94044464Y-90230965D01*
X93919035Y-90105536D01*
X93345000Y-89531500D01*
X93345000Y-87527648D01*
X93989500Y-87527648D01*
X93989500Y-87732351D01*
X94021522Y-87934534D01*
X94084781Y-88129223D01*
X94127248Y-88212567D01*
X94177585Y-88311359D01*
X94177715Y-88311613D01*
X94298028Y-88477213D01*
X94442786Y-88621971D01*
X94563226Y-88709474D01*
X94608390Y-88742287D01*
X94724607Y-88801503D01*
X94790776Y-88835218D01*
X94790778Y-88835218D01*
X94790781Y-88835220D01*
X94895137Y-88869127D01*
X94985465Y-88898477D01*
X95086557Y-88914488D01*
X95187648Y-88930500D01*
X95187649Y-88930500D01*
X95392351Y-88930500D01*
X95392352Y-88930500D01*
X95594534Y-88898477D01*
X95789219Y-88835220D01*
X95971610Y-88742287D01*
X96077987Y-88665000D01*
X96137213Y-88621971D01*
X96137215Y-88621968D01*
X96137219Y-88621966D01*
X96281966Y-88477219D01*
X96281968Y-88477215D01*
X96281971Y-88477213D01*
X96370093Y-88355921D01*
X96402287Y-88311610D01*
X96429795Y-88257621D01*
X96477769Y-88206826D01*
X96545589Y-88190030D01*
X96611725Y-88212567D01*
X96650765Y-88257621D01*
X96678141Y-88311350D01*
X96678147Y-88311359D01*
X96710523Y-88355921D01*
X96710524Y-88355922D01*
X97390000Y-87676446D01*
X97390000Y-87682661D01*
X97417259Y-87784394D01*
X97469920Y-87875606D01*
X97544394Y-87950080D01*
X97635606Y-88002741D01*
X97737339Y-88030000D01*
X97743553Y-88030000D01*
X97064076Y-88709474D01*
X97108650Y-88741859D01*
X97290968Y-88834755D01*
X97485582Y-88897990D01*
X97687683Y-88930000D01*
X97892317Y-88930000D01*
X98094417Y-88897990D01*
X98289031Y-88834755D01*
X98471349Y-88741859D01*
X98515921Y-88709474D01*
X97836447Y-88030000D01*
X97842661Y-88030000D01*
X97944394Y-88002741D01*
X98035606Y-87950080D01*
X98110080Y-87875606D01*
X98162741Y-87784394D01*
X98190000Y-87682661D01*
X98190000Y-87676447D01*
X98869474Y-88355921D01*
X98901859Y-88311349D01*
X98994755Y-88129031D01*
X99057990Y-87934417D01*
X99090000Y-87732317D01*
X99090000Y-87527682D01*
X99057990Y-87325582D01*
X98994755Y-87130968D01*
X98901859Y-86948650D01*
X98869474Y-86904077D01*
X98869474Y-86904076D01*
X98190000Y-87583551D01*
X98190000Y-87577339D01*
X98162741Y-87475606D01*
X98110080Y-87384394D01*
X98035606Y-87309920D01*
X97944394Y-87257259D01*
X97842661Y-87230000D01*
X97836446Y-87230000D01*
X98515922Y-86550524D01*
X98515921Y-86550523D01*
X98471359Y-86518147D01*
X98471350Y-86518141D01*
X98289031Y-86425244D01*
X98094417Y-86362009D01*
X97892317Y-86330000D01*
X97687683Y-86330000D01*
X97485582Y-86362009D01*
X97290968Y-86425244D01*
X97108644Y-86518143D01*
X97064077Y-86550523D01*
X97064077Y-86550524D01*
X97743554Y-87230000D01*
X97737339Y-87230000D01*
X97635606Y-87257259D01*
X97544394Y-87309920D01*
X97469920Y-87384394D01*
X97417259Y-87475606D01*
X97390000Y-87577339D01*
X97390000Y-87583553D01*
X96710524Y-86904077D01*
X96710523Y-86904077D01*
X96678143Y-86948644D01*
X96650765Y-87002378D01*
X96602790Y-87053174D01*
X96534969Y-87069969D01*
X96468834Y-87047431D01*
X96429795Y-87002378D01*
X96402287Y-86948390D01*
X96402285Y-86948387D01*
X96402284Y-86948385D01*
X96281971Y-86782786D01*
X96137213Y-86638028D01*
X95971613Y-86517715D01*
X95971612Y-86517714D01*
X95971610Y-86517713D01*
X95914653Y-86488691D01*
X95789223Y-86424781D01*
X95594534Y-86361522D01*
X95419995Y-86333878D01*
X95392352Y-86329500D01*
X95187648Y-86329500D01*
X95163329Y-86333351D01*
X94985465Y-86361522D01*
X94790776Y-86424781D01*
X94608386Y-86517715D01*
X94442786Y-86638028D01*
X94298028Y-86782786D01*
X94177715Y-86948386D01*
X94084781Y-87130776D01*
X94021522Y-87325465D01*
X93989500Y-87527648D01*
X93345000Y-87527648D01*
X93345000Y-83588711D01*
X116744500Y-83588711D01*
X116744500Y-83831288D01*
X116776161Y-84071785D01*
X116838947Y-84306104D01*
X116906514Y-84469224D01*
X116931776Y-84530212D01*
X117053064Y-84740289D01*
X117053066Y-84740292D01*
X117053067Y-84740293D01*
X117200733Y-84932736D01*
X117200739Y-84932743D01*
X117372256Y-85104260D01*
X117372263Y-85104266D01*
X117485321Y-85191018D01*
X117564711Y-85251936D01*
X117774788Y-85373224D01*
X117998900Y-85466054D01*
X118233211Y-85528838D01*
X118390203Y-85549506D01*
X118473711Y-85560500D01*
X118473712Y-85560500D01*
X118716289Y-85560500D01*
X118764388Y-85554167D01*
X118956789Y-85528838D01*
X119191100Y-85466054D01*
X119415212Y-85373224D01*
X119625289Y-85251936D01*
X119817738Y-85104265D01*
X119989265Y-84932738D01*
X120136936Y-84740289D01*
X120258224Y-84530212D01*
X120351054Y-84306100D01*
X120413838Y-84071789D01*
X120445500Y-83831288D01*
X120445500Y-83588712D01*
X120413838Y-83348211D01*
X120351054Y-83113900D01*
X120258224Y-82889788D01*
X120136936Y-82679711D01*
X120128364Y-82668539D01*
X120100596Y-82632351D01*
X120045090Y-82560014D01*
X120705000Y-82560014D01*
X120705000Y-83460000D01*
X121738520Y-83460000D01*
X121737665Y-83462064D01*
X121705000Y-83626282D01*
X121705000Y-83793718D01*
X121737665Y-83957936D01*
X121738520Y-83960000D01*
X120705000Y-83960000D01*
X120705000Y-84859985D01*
X120715493Y-84962689D01*
X120715494Y-84962696D01*
X120770641Y-85129118D01*
X120770643Y-85129123D01*
X120862684Y-85278344D01*
X120986655Y-85402315D01*
X121135876Y-85494356D01*
X121135881Y-85494358D01*
X121302303Y-85549505D01*
X121302310Y-85549506D01*
X121405014Y-85559999D01*
X121405027Y-85560000D01*
X122305000Y-85560000D01*
X122305000Y-84526480D01*
X122307064Y-84527335D01*
X122471282Y-84560000D01*
X122638718Y-84560000D01*
X122802936Y-84527335D01*
X122805000Y-84526480D01*
X122805000Y-85560000D01*
X123704973Y-85560000D01*
X123704985Y-85559999D01*
X123807689Y-85549506D01*
X123807696Y-85549505D01*
X123974118Y-85494358D01*
X123974123Y-85494356D01*
X124123344Y-85402315D01*
X124247315Y-85278344D01*
X124339356Y-85129123D01*
X124339358Y-85129118D01*
X124394505Y-84962696D01*
X124394506Y-84962689D01*
X124404999Y-84859985D01*
X124405000Y-84859972D01*
X124405000Y-83960000D01*
X123371480Y-83960000D01*
X123372335Y-83957936D01*
X123405000Y-83793718D01*
X123405000Y-83626282D01*
X123372335Y-83462064D01*
X123371480Y-83460000D01*
X124405000Y-83460000D01*
X124405000Y-82560027D01*
X124404999Y-82560014D01*
X124394506Y-82457310D01*
X124394505Y-82457303D01*
X124339358Y-82290881D01*
X124339356Y-82290876D01*
X124247315Y-82141655D01*
X124123344Y-82017684D01*
X123974123Y-81925643D01*
X123974118Y-81925641D01*
X123807696Y-81870494D01*
X123807689Y-81870493D01*
X123704985Y-81860000D01*
X122805000Y-81860000D01*
X122805000Y-82893519D01*
X122802936Y-82892665D01*
X122638718Y-82860000D01*
X122471282Y-82860000D01*
X122307064Y-82892665D01*
X122305000Y-82893519D01*
X122305000Y-81860000D01*
X121405014Y-81860000D01*
X121302310Y-81870493D01*
X121302303Y-81870494D01*
X121135881Y-81925641D01*
X121135876Y-81925643D01*
X120986655Y-82017684D01*
X120862684Y-82141655D01*
X120770643Y-82290876D01*
X120770641Y-82290881D01*
X120715494Y-82457303D01*
X120715493Y-82457310D01*
X120705000Y-82560014D01*
X120045090Y-82560014D01*
X119989266Y-82487263D01*
X119989260Y-82487256D01*
X119817743Y-82315739D01*
X119817736Y-82315733D01*
X119625293Y-82168067D01*
X119625292Y-82168066D01*
X119625289Y-82168064D01*
X119415212Y-82046776D01*
X119344978Y-82017684D01*
X119191104Y-81953947D01*
X118956785Y-81891161D01*
X118716289Y-81859500D01*
X118716288Y-81859500D01*
X118473712Y-81859500D01*
X118473711Y-81859500D01*
X118233214Y-81891161D01*
X117998895Y-81953947D01*
X117774794Y-82046773D01*
X117774785Y-82046777D01*
X117564706Y-82168067D01*
X117372263Y-82315733D01*
X117372256Y-82315739D01*
X117200739Y-82487256D01*
X117200733Y-82487263D01*
X117053067Y-82679706D01*
X116931777Y-82889785D01*
X116931773Y-82889794D01*
X116838947Y-83113895D01*
X116776161Y-83348214D01*
X116744500Y-83588711D01*
X93345000Y-83588711D01*
X93345000Y-78375014D01*
X100116041Y-78375014D01*
X100116041Y-79125000D01*
X101267559Y-79125000D01*
X101256930Y-79143409D01*
X101216041Y-79296009D01*
X101216041Y-79453991D01*
X101256930Y-79606591D01*
X101267559Y-79625000D01*
X100116041Y-79625000D01*
X100116041Y-80374985D01*
X100126534Y-80477689D01*
X100126535Y-80477696D01*
X100181682Y-80644118D01*
X100181684Y-80644123D01*
X100273725Y-80793344D01*
X100397696Y-80917315D01*
X100546917Y-81009356D01*
X100546922Y-81009358D01*
X100713344Y-81064505D01*
X100713351Y-81064506D01*
X100816055Y-81074999D01*
X100816068Y-81075000D01*
X101566041Y-81075000D01*
X101566041Y-79923482D01*
X101584450Y-79934111D01*
X101737050Y-79975000D01*
X101895032Y-79975000D01*
X102047632Y-79934111D01*
X102066041Y-79923482D01*
X102066041Y-81075000D01*
X102816014Y-81075000D01*
X102816026Y-81074999D01*
X102918730Y-81064506D01*
X102918737Y-81064505D01*
X103085159Y-81009358D01*
X103085164Y-81009356D01*
X103234385Y-80917315D01*
X103358356Y-80793344D01*
X103450397Y-80644123D01*
X103450399Y-80644118D01*
X103505546Y-80477696D01*
X103505547Y-80477689D01*
X103516040Y-80374985D01*
X103516041Y-80374972D01*
X103516041Y-79625000D01*
X102364523Y-79625000D01*
X102375152Y-79606591D01*
X102416041Y-79453991D01*
X102416041Y-79296009D01*
X102407343Y-79263549D01*
X105115541Y-79263549D01*
X105115541Y-79486450D01*
X105115542Y-79486466D01*
X105144635Y-79707452D01*
X105144636Y-79707457D01*
X105144637Y-79707463D01*
X105184201Y-79855119D01*
X105202331Y-79922780D01*
X105202334Y-79922790D01*
X105287634Y-80128722D01*
X105287636Y-80128726D01*
X105399093Y-80321774D01*
X105399098Y-80321780D01*
X105399099Y-80321782D01*
X105534792Y-80498622D01*
X105534798Y-80498629D01*
X105692411Y-80656242D01*
X105692417Y-80656247D01*
X105869267Y-80791948D01*
X106062315Y-80903405D01*
X106268260Y-80988710D01*
X106483578Y-81046404D01*
X106704584Y-81075500D01*
X106704591Y-81075500D01*
X106927491Y-81075500D01*
X106927498Y-81075500D01*
X107148504Y-81046404D01*
X107363822Y-80988710D01*
X107569767Y-80903405D01*
X107762815Y-80791948D01*
X107939665Y-80656247D01*
X108097288Y-80498624D01*
X108232989Y-80321774D01*
X108344446Y-80128726D01*
X108429751Y-79922781D01*
X108487445Y-79707463D01*
X108516541Y-79486457D01*
X108516541Y-79263543D01*
X108487445Y-79042537D01*
X108429751Y-78827219D01*
X108344446Y-78621274D01*
X108341078Y-78615441D01*
X127639500Y-78615441D01*
X127639500Y-78864558D01*
X127639501Y-78864575D01*
X127662931Y-79042547D01*
X127672018Y-79111565D01*
X127712742Y-79263549D01*
X127736498Y-79352207D01*
X127831830Y-79582361D01*
X127831837Y-79582376D01*
X127956400Y-79798126D01*
X128108060Y-79995774D01*
X128108066Y-79995781D01*
X128284218Y-80171933D01*
X128284225Y-80171939D01*
X128481873Y-80323599D01*
X128697623Y-80448162D01*
X128697638Y-80448169D01*
X128768923Y-80477696D01*
X128927793Y-80543502D01*
X129168435Y-80607982D01*
X129415435Y-80640500D01*
X129415442Y-80640500D01*
X129664558Y-80640500D01*
X129664565Y-80640500D01*
X129911565Y-80607982D01*
X130152207Y-80543502D01*
X130382373Y-80448164D01*
X130598127Y-80323599D01*
X130795776Y-80171938D01*
X130971938Y-79995776D01*
X131123599Y-79798127D01*
X131248164Y-79582373D01*
X131343502Y-79352207D01*
X131407982Y-79111565D01*
X131440500Y-78864565D01*
X131440500Y-78615435D01*
X131408848Y-78375014D01*
X185070000Y-78375014D01*
X185070000Y-79125000D01*
X186221518Y-79125000D01*
X186210889Y-79143409D01*
X186170000Y-79296009D01*
X186170000Y-79453991D01*
X186210889Y-79606591D01*
X186221518Y-79625000D01*
X185070000Y-79625000D01*
X185070000Y-80374985D01*
X185080493Y-80477689D01*
X185080494Y-80477696D01*
X185135641Y-80644118D01*
X185135643Y-80644123D01*
X185227684Y-80793344D01*
X185351655Y-80917315D01*
X185500876Y-81009356D01*
X185500881Y-81009358D01*
X185667303Y-81064505D01*
X185667310Y-81064506D01*
X185770014Y-81074999D01*
X185770027Y-81075000D01*
X186520000Y-81075000D01*
X186520000Y-79923482D01*
X186538409Y-79934111D01*
X186691009Y-79975000D01*
X186848991Y-79975000D01*
X187001591Y-79934111D01*
X187020000Y-79923482D01*
X187020000Y-81075000D01*
X187769973Y-81075000D01*
X187769985Y-81074999D01*
X187872689Y-81064506D01*
X187872696Y-81064505D01*
X188039118Y-81009358D01*
X188039123Y-81009356D01*
X188188344Y-80917315D01*
X188312315Y-80793344D01*
X188404356Y-80644123D01*
X188404358Y-80644118D01*
X188459505Y-80477696D01*
X188459506Y-80477689D01*
X188469999Y-80374985D01*
X188470000Y-80374972D01*
X188470000Y-79625000D01*
X187318482Y-79625000D01*
X187329111Y-79606591D01*
X187370000Y-79453991D01*
X187370000Y-79296009D01*
X187329111Y-79143409D01*
X187318482Y-79125000D01*
X188470000Y-79125000D01*
X188470000Y-78375027D01*
X188469999Y-78375014D01*
X188459506Y-78272310D01*
X188459505Y-78272303D01*
X188404358Y-78105881D01*
X188404356Y-78105876D01*
X188312315Y-77956655D01*
X188188344Y-77832684D01*
X188039123Y-77740643D01*
X188039118Y-77740641D01*
X187872696Y-77685494D01*
X187872689Y-77685493D01*
X187769985Y-77675000D01*
X187020000Y-77675000D01*
X187020000Y-78826517D01*
X187001591Y-78815889D01*
X186848991Y-78775000D01*
X186691009Y-78775000D01*
X186538409Y-78815889D01*
X186520000Y-78826517D01*
X186520000Y-77675000D01*
X185770014Y-77675000D01*
X185667310Y-77685493D01*
X185667303Y-77685494D01*
X185500881Y-77740641D01*
X185500876Y-77740643D01*
X185351655Y-77832684D01*
X185227684Y-77956655D01*
X185135643Y-78105876D01*
X185135641Y-78105881D01*
X185080494Y-78272303D01*
X185080493Y-78272310D01*
X185070000Y-78375014D01*
X131408848Y-78375014D01*
X131407982Y-78368435D01*
X131343502Y-78127793D01*
X131289253Y-77996825D01*
X131248169Y-77897638D01*
X131248162Y-77897623D01*
X131123599Y-77681873D01*
X130971939Y-77484225D01*
X130971933Y-77484218D01*
X130795781Y-77308066D01*
X130795774Y-77308060D01*
X130598126Y-77156400D01*
X130382376Y-77031837D01*
X130382361Y-77031830D01*
X130152207Y-76936498D01*
X129911561Y-76872017D01*
X129664575Y-76839501D01*
X129664570Y-76839500D01*
X129664565Y-76839500D01*
X129415435Y-76839500D01*
X129415429Y-76839500D01*
X129415424Y-76839501D01*
X129168438Y-76872017D01*
X128927792Y-76936498D01*
X128697638Y-77031830D01*
X128697623Y-77031837D01*
X128481873Y-77156400D01*
X128284225Y-77308060D01*
X128284218Y-77308066D01*
X128108066Y-77484218D01*
X128108060Y-77484225D01*
X127956400Y-77681873D01*
X127831837Y-77897623D01*
X127831830Y-77897638D01*
X127736498Y-78127792D01*
X127672017Y-78368438D01*
X127639501Y-78615424D01*
X127639500Y-78615441D01*
X108341078Y-78615441D01*
X108232989Y-78428226D01*
X108097288Y-78251376D01*
X108097283Y-78251370D01*
X107939670Y-78093757D01*
X107939663Y-78093751D01*
X107762823Y-77958058D01*
X107762821Y-77958057D01*
X107762815Y-77958052D01*
X107569767Y-77846595D01*
X107569763Y-77846593D01*
X107363831Y-77761293D01*
X107363824Y-77761291D01*
X107363822Y-77761290D01*
X107148504Y-77703596D01*
X107148498Y-77703595D01*
X107148493Y-77703594D01*
X106927507Y-77674501D01*
X106927504Y-77674500D01*
X106927498Y-77674500D01*
X106704584Y-77674500D01*
X106704578Y-77674500D01*
X106704574Y-77674501D01*
X106483588Y-77703594D01*
X106483581Y-77703595D01*
X106483578Y-77703596D01*
X106345316Y-77740643D01*
X106268260Y-77761290D01*
X106268250Y-77761293D01*
X106062318Y-77846593D01*
X106062314Y-77846595D01*
X105869267Y-77958052D01*
X105869258Y-77958058D01*
X105692418Y-78093751D01*
X105692411Y-78093757D01*
X105534798Y-78251370D01*
X105534792Y-78251377D01*
X105399099Y-78428217D01*
X105399093Y-78428226D01*
X105287636Y-78621273D01*
X105287634Y-78621277D01*
X105202334Y-78827209D01*
X105202331Y-78827219D01*
X105154269Y-79006592D01*
X105144638Y-79042534D01*
X105144635Y-79042547D01*
X105115542Y-79263533D01*
X105115541Y-79263549D01*
X102407343Y-79263549D01*
X102375152Y-79143409D01*
X102364523Y-79125000D01*
X103516041Y-79125000D01*
X103516041Y-78375027D01*
X103516040Y-78375014D01*
X103505547Y-78272310D01*
X103505546Y-78272303D01*
X103450399Y-78105881D01*
X103450397Y-78105876D01*
X103358356Y-77956655D01*
X103234385Y-77832684D01*
X103085164Y-77740643D01*
X103085159Y-77740641D01*
X102918737Y-77685494D01*
X102918730Y-77685493D01*
X102816026Y-77675000D01*
X102066041Y-77675000D01*
X102066041Y-78826517D01*
X102047632Y-78815889D01*
X101895032Y-78775000D01*
X101737050Y-78775000D01*
X101584450Y-78815889D01*
X101566041Y-78826517D01*
X101566041Y-77675000D01*
X100816055Y-77675000D01*
X100713351Y-77685493D01*
X100713344Y-77685494D01*
X100546922Y-77740641D01*
X100546917Y-77740643D01*
X100397696Y-77832684D01*
X100273725Y-77956655D01*
X100181684Y-78105876D01*
X100181682Y-78105881D01*
X100126535Y-78272303D01*
X100126534Y-78272310D01*
X100116041Y-78375014D01*
X93345000Y-78375014D01*
X93345000Y-71120000D01*
X183631790Y-69932015D01*
X189738363Y-69851666D01*
X189770774Y-69855537D01*
G37*
%TD.AperFunction*%
%TD*%
M02*
