%TF.GenerationSoftware,KiCad,Pcbnew,9.0.7*%
%TF.CreationDate,2026-07-17T23:43:54-07:00*%
%TF.ProjectId,PowerStage,506f7765-7253-4746-9167-652e6b696361,rev?*%
%TF.SameCoordinates,Original*%
%TF.FileFunction,Copper,L2,Bot*%
%TF.FilePolarity,Positive*%
%FSLAX46Y46*%
G04 Gerber Fmt 4.6, Leading zero omitted, Abs format (unit mm)*
G04 Created by KiCad (PCBNEW 9.0.7) date 2026-07-17 23:43:54*
%MOMM*%
%LPD*%
G01*
G04 APERTURE LIST*
G04 Aperture macros list*
%AMRoundRect*
0 Rectangle with rounded corners*
0 $1 Rounding radius*
0 $2 $3 $4 $5 $6 $7 $8 $9 X,Y pos of 4 corners*
0 Add a 4 corners polygon primitive as box body*
4,1,4,$2,$3,$4,$5,$6,$7,$8,$9,$2,$3,0*
0 Add four circle primitives for the rounded corners*
1,1,$1+$1,$2,$3*
1,1,$1+$1,$4,$5*
1,1,$1+$1,$6,$7*
1,1,$1+$1,$8,$9*
0 Add four rect primitives between the rounded corners*
20,1,$1+$1,$2,$3,$4,$5,0*
20,1,$1+$1,$4,$5,$6,$7,0*
20,1,$1+$1,$6,$7,$8,$9,0*
20,1,$1+$1,$8,$9,$2,$3,0*%
G04 Aperture macros list end*
%TA.AperFunction,ComponentPad*%
%ADD10RoundRect,0.250001X1.099999X1.099999X-1.099999X1.099999X-1.099999X-1.099999X1.099999X-1.099999X0*%
%TD*%
%TA.AperFunction,ComponentPad*%
%ADD11C,2.700000*%
%TD*%
%TA.AperFunction,ComponentPad*%
%ADD12R,2.000000X1.905000*%
%TD*%
%TA.AperFunction,ComponentPad*%
%ADD13O,2.000000X1.905000*%
%TD*%
%TA.AperFunction,ComponentPad*%
%ADD14RoundRect,0.250000X-0.550000X-0.550000X0.550000X-0.550000X0.550000X0.550000X-0.550000X0.550000X0*%
%TD*%
%TA.AperFunction,ComponentPad*%
%ADD15C,1.600000*%
%TD*%
%TA.AperFunction,ComponentPad*%
%ADD16RoundRect,0.250000X0.600000X0.725000X-0.600000X0.725000X-0.600000X-0.725000X0.600000X-0.725000X0*%
%TD*%
%TA.AperFunction,ComponentPad*%
%ADD17O,1.700000X1.950000*%
%TD*%
%TA.AperFunction,ComponentPad*%
%ADD18C,2.800000*%
%TD*%
%TA.AperFunction,ComponentPad*%
%ADD19RoundRect,0.249999X0.850001X0.850001X-0.850001X0.850001X-0.850001X-0.850001X0.850001X-0.850001X0*%
%TD*%
%TA.AperFunction,ComponentPad*%
%ADD20C,2.200000*%
%TD*%
%TA.AperFunction,ComponentPad*%
%ADD21RoundRect,0.250001X-0.949999X-0.949999X0.949999X-0.949999X0.949999X0.949999X-0.949999X0.949999X0*%
%TD*%
%TA.AperFunction,ComponentPad*%
%ADD22C,2.400000*%
%TD*%
%TA.AperFunction,ComponentPad*%
%ADD23RoundRect,0.250000X0.600000X0.750000X-0.600000X0.750000X-0.600000X-0.750000X0.600000X-0.750000X0*%
%TD*%
%TA.AperFunction,ComponentPad*%
%ADD24O,1.700000X2.000000*%
%TD*%
%TA.AperFunction,ComponentPad*%
%ADD25RoundRect,0.249999X-0.850001X-0.850001X0.850001X-0.850001X0.850001X0.850001X-0.850001X0.850001X0*%
%TD*%
%TA.AperFunction,ComponentPad*%
%ADD26C,0.800000*%
%TD*%
%TA.AperFunction,ComponentPad*%
%ADD27C,6.400000*%
%TD*%
%TA.AperFunction,ComponentPad*%
%ADD28RoundRect,0.250000X0.550000X0.550000X-0.550000X0.550000X-0.550000X-0.550000X0.550000X-0.550000X0*%
%TD*%
%TA.AperFunction,ViaPad*%
%ADD29C,0.600000*%
%TD*%
%TA.AperFunction,Conductor*%
%ADD30C,0.800000*%
%TD*%
%TA.AperFunction,Conductor*%
%ADD31C,1.200000*%
%TD*%
%TA.AperFunction,Conductor*%
%ADD32C,1.000000*%
%TD*%
G04 APERTURE END LIST*
D10*
%TO.P,GNDPWR,1,Pin_1*%
%TO.N,VDC*%
X122555000Y-83710000D03*
D11*
%TO.P,GNDPWR,2,Pin_2*%
%TO.N,GNDPWR*%
X118595000Y-83710000D03*
%TD*%
D12*
%TO.P,Q4,1,D*%
%TO.N,Net-(Q3-S)*%
X187325000Y-107950000D03*
D13*
%TO.P,Q4,2,G*%
%TO.N,Net-(D5-A)*%
X187325000Y-110490000D03*
%TO.P,Q4,3,S*%
%TO.N,GNDPWR*%
X187325000Y-113030000D03*
%TD*%
D14*
%TO.P,C10,1*%
%TO.N,+12V*%
X234855000Y-92710000D03*
D15*
%TO.P,C10,2*%
%TO.N,GND*%
X236855000Y-92710000D03*
%TD*%
D12*
%TO.P,Q1,1,D*%
%TO.N,VDC*%
X101920000Y-92075000D03*
D13*
%TO.P,Q1,2,G*%
%TO.N,Net-(D2-A)*%
X101920000Y-94615000D03*
%TO.P,Q1,3,S*%
%TO.N,Net-(Q1-S)*%
X101920000Y-97155000D03*
%TD*%
D16*
%TO.P,PWM GND !PWM,1,Pin_1*%
%TO.N,!PWM*%
X146605000Y-127000000D03*
D17*
%TO.P,PWM GND !PWM,2,Pin_2*%
%TO.N,GND*%
X144105000Y-127000000D03*
%TO.P,PWM GND !PWM,3,Pin_3*%
%TO.N,PWM*%
X141605000Y-127000000D03*
%TD*%
D15*
%TO.P,R3,1*%
%TO.N,Net-(D4-A)*%
X200660000Y-102870000D03*
%TO.P,R3,2*%
%TO.N,Net-(D4-K)*%
X208280000Y-102870000D03*
%TD*%
%TO.P,R2,1*%
%TO.N,Net-(D3-K)*%
X85725000Y-118745000D03*
%TO.P,R2,2*%
%TO.N,Net-(D3-A)*%
X93345000Y-118745000D03*
%TD*%
D18*
%TO.P,TP4,1,1*%
%TO.N,GNDPWR*%
X129540000Y-78740000D03*
%TD*%
D19*
%TO.P,D5,1,K*%
%TO.N,Net-(D5-K)*%
X210185000Y-113665000D03*
D20*
%TO.P,D5,2,A*%
%TO.N,Net-(D5-A)*%
X200025000Y-113665000D03*
%TD*%
D21*
%TO.P,C3,1*%
%TO.N,VDC*%
X186770000Y-79375000D03*
D22*
%TO.P,C3,2*%
%TO.N,GNDPWR*%
X191770000Y-79375000D03*
%TD*%
D18*
%TO.P,TP3,1,1*%
%TO.N,Net-(D3-A)*%
X117475000Y-109855000D03*
%TD*%
D14*
%TO.P,C9,1*%
%TO.N,Net-(D6-K)*%
X229775000Y-100965000D03*
D15*
%TO.P,C9,2*%
%TO.N,Net-(Q3-S)*%
X231775000Y-100965000D03*
%TD*%
%TO.P,R4,1*%
%TO.N,Net-(D5-A)*%
X200660000Y-118745000D03*
%TO.P,R4,2*%
%TO.N,Net-(D5-K)*%
X208280000Y-118745000D03*
%TD*%
D12*
%TO.P,Q2,1,D*%
%TO.N,Net-(Q1-S)*%
X101920000Y-107315000D03*
D13*
%TO.P,Q2,2,G*%
%TO.N,Net-(D3-A)*%
X101920000Y-109855000D03*
%TO.P,Q2,3,S*%
%TO.N,GNDPWR*%
X101920000Y-112395000D03*
%TD*%
D22*
%TO.P,C6,1*%
%TO.N,Net-(C4-Pad1)*%
X133530000Y-113665000D03*
%TO.P,C6,2*%
%TO.N,Net-(C4-Pad2)*%
X156030000Y-113665000D03*
%TD*%
D12*
%TO.P,Q3,1,D*%
%TO.N,VDC*%
X187645000Y-92075000D03*
D13*
%TO.P,Q3,2,G*%
%TO.N,Net-(D4-A)*%
X187645000Y-94615000D03*
%TO.P,Q3,3,S*%
%TO.N,Net-(Q3-S)*%
X187645000Y-97155000D03*
%TD*%
D14*
%TO.P,C1,1*%
%TO.N,GND*%
X56194888Y-90805000D03*
D15*
%TO.P,C1,2*%
%TO.N,+12V*%
X58194888Y-90805000D03*
%TD*%
D23*
%TO.P,GND 12V,1,Pin_1*%
%TO.N,+12V*%
X127000000Y-127000000D03*
D24*
%TO.P,GND 12V,2,Pin_2*%
%TO.N,GND*%
X124500000Y-127000000D03*
%TD*%
D25*
%TO.P,D3,1,K*%
%TO.N,Net-(D3-K)*%
X84455000Y-113030000D03*
D20*
%TO.P,D3,2,A*%
%TO.N,Net-(D3-A)*%
X94615000Y-113030000D03*
%TD*%
D18*
%TO.P,TP5,1,1*%
%TO.N,Net-(D4-A)*%
X173990000Y-85725000D03*
%TD*%
D25*
%TO.P,D2,1,K*%
%TO.N,Net-(D2-K)*%
X83185000Y-97155000D03*
D20*
%TO.P,D2,2,A*%
%TO.N,Net-(D2-A)*%
X93345000Y-97155000D03*
%TD*%
D15*
%TO.P,R5,1*%
%TO.N,Net-(JP1-A)*%
X228600000Y-94615000D03*
%TO.P,R5,2*%
%TO.N,+12V*%
X220980000Y-94615000D03*
%TD*%
%TO.P,R1,1*%
%TO.N,Net-(D2-K)*%
X85090000Y-102870000D03*
%TO.P,R1,2*%
%TO.N,Net-(D2-A)*%
X92710000Y-102870000D03*
%TD*%
D19*
%TO.P,D1,1,K*%
%TO.N,Net-(D1-K)*%
X78105000Y-109220000D03*
D20*
%TO.P,D1,2,A*%
%TO.N,+12V*%
X67945000Y-109220000D03*
%TD*%
D18*
%TO.P,TP2,1,1*%
%TO.N,Net-(Q1-S)*%
X84455000Y-89535000D03*
%TD*%
%TO.P,TP8,1,1*%
%TO.N,GNDPWR*%
X216535000Y-80010000D03*
%TD*%
D26*
%TO.P,H3,1*%
%TO.N,N/C*%
X246520000Y-127635000D03*
X247222944Y-125937944D03*
X247222944Y-129332056D03*
X248920000Y-125235000D03*
D27*
X248920000Y-127635000D03*
D26*
X248920000Y-130035000D03*
X250617056Y-125937944D03*
X250617056Y-129332056D03*
X251320000Y-127635000D03*
%TD*%
D15*
%TO.P,C11,1*%
%TO.N,VDC*%
X182860000Y-88265000D03*
%TO.P,C11,2*%
%TO.N,GNDPWR*%
X180360000Y-88265000D03*
%TD*%
D18*
%TO.P,TP9,1,1*%
%TO.N,GND*%
X226060000Y-73025000D03*
%TD*%
D28*
%TO.P,U1,1,LO*%
%TO.N,Net-(D3-K)*%
X61055000Y-112665000D03*
D15*
%TO.P,U1,2,COM*%
%TO.N,GNDPWR*%
X61055000Y-110125000D03*
%TO.P,U1,3,VCC*%
%TO.N,+12V*%
X61055000Y-107585000D03*
%TO.P,U1,4,NC*%
%TO.N,unconnected-(U1-NC-Pad4)*%
X61055000Y-105045000D03*
%TO.P,U1,5,VS*%
%TO.N,Net-(Q1-S)*%
X61055000Y-102505000D03*
%TO.P,U1,6,VB*%
%TO.N,Net-(D1-K)*%
X61055000Y-99965000D03*
%TO.P,U1,7,HO*%
%TO.N,Net-(D2-K)*%
X61055000Y-97425000D03*
%TO.P,U1,8,NC*%
%TO.N,unconnected-(U1-NC-Pad8)*%
X53435000Y-97425000D03*
%TO.P,U1,9,VDD*%
%TO.N,+12V*%
X53435000Y-99965000D03*
%TO.P,U1,10,HIN*%
%TO.N,PWM*%
X53435000Y-102505000D03*
%TO.P,U1,11,SD*%
%TO.N,Net-(JP2-A)*%
X53435000Y-105045000D03*
%TO.P,U1,12,LIN*%
%TO.N,!PWM*%
X53435000Y-107585000D03*
%TO.P,U1,13,VSS*%
%TO.N,GND*%
X53435000Y-110125000D03*
%TO.P,U1,14,NC*%
%TO.N,unconnected-(U1-NC-Pad14)*%
X53435000Y-112665000D03*
%TD*%
D21*
%TO.P,C2,1*%
%TO.N,VDC*%
X101816041Y-79375000D03*
D22*
%TO.P,C2,2*%
%TO.N,GNDPWR*%
X106816041Y-79375000D03*
%TD*%
D18*
%TO.P,TP7,1,1*%
%TO.N,Net-(D5-A)*%
X205105000Y-90170000D03*
%TD*%
%TO.P,TP6,1,1*%
%TO.N,Net-(Q3-S)*%
X163830000Y-85725000D03*
%TD*%
%TO.P,TP1,1,1*%
%TO.N,Net-(D2-A)*%
X88900000Y-84455000D03*
%TD*%
D22*
%TO.P,C4,1*%
%TO.N,Net-(C4-Pad1)*%
X133710000Y-86995000D03*
%TO.P,C4,2*%
%TO.N,Net-(C4-Pad2)*%
X156210000Y-86995000D03*
%TD*%
D26*
%TO.P,H2,1*%
%TO.N,N/C*%
X52845000Y-78740000D03*
X53547944Y-77042944D03*
X53547944Y-80437056D03*
X55245000Y-76340000D03*
D27*
X55245000Y-78740000D03*
D26*
X55245000Y-81140000D03*
X56942056Y-77042944D03*
X56942056Y-80437056D03*
X57645000Y-78740000D03*
%TD*%
D15*
%TO.P,R6,1*%
%TO.N,Net-(JP2-A)*%
X64770000Y-91440000D03*
%TO.P,R6,2*%
%TO.N,+12V*%
X72390000Y-91440000D03*
%TD*%
D14*
%TO.P,C8,1*%
%TO.N,+12V*%
X68682349Y-116840000D03*
D15*
%TO.P,C8,2*%
%TO.N,GNDPWR*%
X72482349Y-116840000D03*
%TD*%
%TO.P,C7,1*%
%TO.N,VDC*%
X97790000Y-87630000D03*
%TO.P,C7,2*%
%TO.N,GNDPWR*%
X95290000Y-87630000D03*
%TD*%
D19*
%TO.P,D6,1,K*%
%TO.N,Net-(D6-K)*%
X228600000Y-109855000D03*
D20*
%TO.P,D6,2,A*%
%TO.N,+12V*%
X218440000Y-109855000D03*
%TD*%
D26*
%TO.P,H4,1*%
%TO.N,N/C*%
X51715000Y-128270000D03*
X52417944Y-126572944D03*
X52417944Y-129967056D03*
X54115000Y-125870000D03*
D27*
X54115000Y-128270000D03*
D26*
X54115000Y-130670000D03*
X55812056Y-126572944D03*
X55812056Y-129967056D03*
X56515000Y-128270000D03*
%TD*%
D28*
%TO.P,C5,1*%
%TO.N,Net-(D1-K)*%
X69945000Y-100330000D03*
D15*
%TO.P,C5,2*%
%TO.N,Net-(Q1-S)*%
X67945000Y-100330000D03*
%TD*%
D19*
%TO.P,D4,1,K*%
%TO.N,Net-(D4-K)*%
X210185000Y-97790000D03*
D20*
%TO.P,D4,2,A*%
%TO.N,Net-(D4-A)*%
X200025000Y-97790000D03*
%TD*%
D14*
%TO.P,U2,1,LO*%
%TO.N,Net-(D5-K)*%
X239395000Y-98425000D03*
D15*
%TO.P,U2,2,COM*%
%TO.N,GNDPWR*%
X239395000Y-100965000D03*
%TO.P,U2,3,VCC*%
%TO.N,+12V*%
X239395000Y-103505000D03*
%TO.P,U2,4,NC*%
%TO.N,unconnected-(U2-NC-Pad4)*%
X239395000Y-106045000D03*
%TO.P,U2,5,VS*%
%TO.N,Net-(Q3-S)*%
X239395000Y-108585000D03*
%TO.P,U2,6,VB*%
%TO.N,Net-(D6-K)*%
X239395000Y-111125000D03*
%TO.P,U2,7,HO*%
%TO.N,Net-(D4-K)*%
X239395000Y-113665000D03*
%TO.P,U2,8,NC*%
%TO.N,unconnected-(U2-NC-Pad8)*%
X247015000Y-113665000D03*
%TO.P,U2,9,VDD*%
%TO.N,+12V*%
X247015000Y-111125000D03*
%TO.P,U2,10,HIN*%
%TO.N,!PWM*%
X247015000Y-108585000D03*
%TO.P,U2,11,SD*%
%TO.N,Net-(JP1-A)*%
X247015000Y-106045000D03*
%TO.P,U2,12,LIN*%
%TO.N,PWM*%
X247015000Y-103505000D03*
%TO.P,U2,13,VSS*%
%TO.N,GND*%
X247015000Y-100965000D03*
%TO.P,U2,14,NC*%
%TO.N,unconnected-(U2-NC-Pad14)*%
X247015000Y-98425000D03*
%TD*%
D10*
%TO.P,LS1,1,1*%
%TO.N,Net-(C4-Pad2)*%
X146537500Y-100880000D03*
D11*
%TO.P,LS1,2,2*%
%TO.N,Net-(C4-Pad1)*%
X142577500Y-100880000D03*
%TD*%
D26*
%TO.P,H1,1*%
%TO.N,N/C*%
X246520000Y-80010000D03*
X247222944Y-78312944D03*
X247222944Y-81707056D03*
X248920000Y-77610000D03*
D27*
X248920000Y-80010000D03*
D26*
X248920000Y-82410000D03*
X250617056Y-78312944D03*
X250617056Y-81707056D03*
X251320000Y-80010000D03*
%TD*%
D29*
%TO.N,GND*%
X57785000Y-119380000D03*
X243840000Y-91440000D03*
%TD*%
D30*
%TO.N,Net-(Q3-S)*%
X220345000Y-98425000D02*
X210820000Y-107950000D01*
X230505000Y-98425000D02*
X220345000Y-98425000D01*
X231775000Y-99695000D02*
X230505000Y-98425000D01*
X210820000Y-107950000D02*
X187325000Y-107950000D01*
X231775000Y-100965000D02*
X231775000Y-99695000D01*
D31*
%TO.N,GND*%
X238125000Y-93980000D02*
X243840000Y-93980000D01*
D32*
X243840000Y-93980000D02*
X243840000Y-91440000D01*
D31*
X236855000Y-92710000D02*
X238125000Y-93980000D01*
%TO.N,+12V*%
X239395000Y-103505000D02*
X247015000Y-111125000D01*
%TO.N,GNDPWR*%
X64405000Y-110125000D02*
X68580000Y-114300000D01*
X61055000Y-110125000D02*
X64405000Y-110125000D01*
X68580000Y-114300000D02*
X69942349Y-114300000D01*
X69942349Y-114300000D02*
X72482349Y-116840000D01*
%TD*%
%TA.AperFunction,Conductor*%
%TO.N,GND*%
G36*
X252811869Y-70504419D02*
G01*
X252846244Y-70526318D01*
X252855105Y-70532523D01*
X253157930Y-70764889D01*
X253166217Y-70771843D01*
X253447635Y-71029715D01*
X253455284Y-71037364D01*
X253713156Y-71318782D01*
X253720110Y-71327069D01*
X253952476Y-71629894D01*
X253958680Y-71638754D01*
X253968458Y-71654102D01*
X253987877Y-71721218D01*
X253987872Y-71721944D01*
X253370166Y-134727920D01*
X253349825Y-134794763D01*
X253329946Y-134818126D01*
X253231145Y-134908661D01*
X253166208Y-134968165D01*
X253157930Y-134975111D01*
X252855105Y-135207476D01*
X252846246Y-135213680D01*
X252811871Y-135235580D01*
X252745244Y-135255000D01*
X50784756Y-135255000D01*
X50718131Y-135235580D01*
X50683755Y-135213680D01*
X50674894Y-135207476D01*
X50372069Y-134975110D01*
X50363782Y-134968156D01*
X50200053Y-134818126D01*
X50163925Y-134758322D01*
X50159832Y-134727924D01*
X50094737Y-128088206D01*
X50414500Y-128088206D01*
X50414500Y-128451794D01*
X50418263Y-128489998D01*
X50450137Y-128813630D01*
X50521064Y-129170212D01*
X50521067Y-129170223D01*
X50626614Y-129518165D01*
X50635550Y-129539738D01*
X50760765Y-129842035D01*
X50765754Y-129854078D01*
X50765756Y-129854083D01*
X50937140Y-130174720D01*
X50937151Y-130174738D01*
X51139140Y-130477035D01*
X51139150Y-130477049D01*
X51369807Y-130758106D01*
X51626893Y-131015192D01*
X51626898Y-131015196D01*
X51626899Y-131015197D01*
X51907956Y-131245854D01*
X52210268Y-131447853D01*
X52210277Y-131447858D01*
X52210279Y-131447859D01*
X52530916Y-131619243D01*
X52530918Y-131619243D01*
X52530924Y-131619247D01*
X52866836Y-131758386D01*
X53214767Y-131863930D01*
X53214773Y-131863931D01*
X53214776Y-131863932D01*
X53214787Y-131863935D01*
X53571369Y-131934862D01*
X53933206Y-131970500D01*
X53933209Y-131970500D01*
X54296791Y-131970500D01*
X54296794Y-131970500D01*
X54658631Y-131934862D01*
X54747641Y-131917157D01*
X55015212Y-131863935D01*
X55015223Y-131863932D01*
X55015223Y-131863931D01*
X55015233Y-131863930D01*
X55363164Y-131758386D01*
X55699076Y-131619247D01*
X56019732Y-131447853D01*
X56322044Y-131245854D01*
X56603101Y-131015197D01*
X56860197Y-130758101D01*
X57090854Y-130477044D01*
X57292853Y-130174732D01*
X57464247Y-129854076D01*
X57603386Y-129518164D01*
X57708930Y-129170233D01*
X57708932Y-129170223D01*
X57708935Y-129170212D01*
X57779862Y-128813630D01*
X57811737Y-128489998D01*
X57815500Y-128451794D01*
X57815500Y-128088206D01*
X57779862Y-127726369D01*
X57768295Y-127668217D01*
X57708935Y-127369787D01*
X57708932Y-127369776D01*
X57708931Y-127369773D01*
X57708930Y-127369767D01*
X57603386Y-127021836D01*
X57488201Y-126743753D01*
X123150000Y-126743753D01*
X123150000Y-126750000D01*
X124066988Y-126750000D01*
X124034075Y-126807007D01*
X124000000Y-126934174D01*
X124000000Y-127065826D01*
X124034075Y-127192993D01*
X124066988Y-127250000D01*
X123150000Y-127250000D01*
X123150000Y-127256246D01*
X123183242Y-127466127D01*
X123183242Y-127466130D01*
X123248904Y-127668217D01*
X123345379Y-127857557D01*
X123470272Y-128029459D01*
X123470276Y-128029464D01*
X123620535Y-128179723D01*
X123620540Y-128179727D01*
X123792442Y-128304620D01*
X123981782Y-128401095D01*
X124183871Y-128466757D01*
X124250000Y-128477231D01*
X124250000Y-127433012D01*
X124307007Y-127465925D01*
X124434174Y-127500000D01*
X124565826Y-127500000D01*
X124692993Y-127465925D01*
X124750000Y-127433012D01*
X124750000Y-128477230D01*
X124816126Y-128466757D01*
X124816129Y-128466757D01*
X125018217Y-128401095D01*
X125207557Y-128304620D01*
X125379458Y-128179728D01*
X125518330Y-128040856D01*
X125579653Y-128007371D01*
X125649345Y-128012355D01*
X125705279Y-128054226D01*
X125711551Y-128063440D01*
X125715185Y-128069331D01*
X125715186Y-128069334D01*
X125807288Y-128218656D01*
X125931344Y-128342712D01*
X126080666Y-128434814D01*
X126247203Y-128489999D01*
X126349991Y-128500500D01*
X127650008Y-128500499D01*
X127752797Y-128489999D01*
X127919334Y-128434814D01*
X128068656Y-128342712D01*
X128192712Y-128218656D01*
X128284814Y-128069334D01*
X128339999Y-127902797D01*
X128350500Y-127800009D01*
X128350499Y-126768713D01*
X140254500Y-126768713D01*
X140254500Y-127231286D01*
X140276434Y-127369776D01*
X140287754Y-127441243D01*
X140306845Y-127500000D01*
X140353444Y-127643414D01*
X140449951Y-127832820D01*
X140574890Y-128004786D01*
X140725213Y-128155109D01*
X140897179Y-128280048D01*
X140897181Y-128280049D01*
X140897184Y-128280051D01*
X141086588Y-128376557D01*
X141288757Y-128442246D01*
X141498713Y-128475500D01*
X141498714Y-128475500D01*
X141711286Y-128475500D01*
X141711287Y-128475500D01*
X141921243Y-128442246D01*
X142123412Y-128376557D01*
X142312816Y-128280051D01*
X142334789Y-128264086D01*
X142484786Y-128155109D01*
X142484788Y-128155106D01*
X142484792Y-128155104D01*
X142635104Y-128004792D01*
X142754991Y-127839779D01*
X142810320Y-127797115D01*
X142879933Y-127791136D01*
X142941729Y-127823741D01*
X142955627Y-127839781D01*
X143075272Y-128004459D01*
X143075276Y-128004464D01*
X143225535Y-128154723D01*
X143225540Y-128154727D01*
X143397442Y-128279620D01*
X143586782Y-128376095D01*
X143788871Y-128441757D01*
X143855000Y-128452231D01*
X143855000Y-127404145D01*
X143921657Y-127442630D01*
X144042465Y-127475000D01*
X144167535Y-127475000D01*
X144288343Y-127442630D01*
X144355000Y-127404145D01*
X144355000Y-128452230D01*
X144421126Y-128441757D01*
X144421129Y-128441757D01*
X144623217Y-128376095D01*
X144812557Y-128279620D01*
X144984458Y-128154728D01*
X145123330Y-128015856D01*
X145184653Y-127982371D01*
X145254345Y-127987355D01*
X145310279Y-128029226D01*
X145316551Y-128038440D01*
X145320185Y-128044331D01*
X145320186Y-128044334D01*
X145412288Y-128193656D01*
X145536344Y-128317712D01*
X145685666Y-128409814D01*
X145852203Y-128464999D01*
X145954991Y-128475500D01*
X147255008Y-128475499D01*
X147357797Y-128464999D01*
X147524334Y-128409814D01*
X147673656Y-128317712D01*
X147797712Y-128193656D01*
X147889814Y-128044334D01*
X147944999Y-127877797D01*
X147955500Y-127775009D01*
X147955500Y-127453206D01*
X245219500Y-127453206D01*
X245219500Y-127816794D01*
X245221764Y-127839781D01*
X245255137Y-128178630D01*
X245326064Y-128535212D01*
X245326067Y-128535223D01*
X245326069Y-128535232D01*
X245326070Y-128535233D01*
X245431614Y-128883164D01*
X245550517Y-129170223D01*
X245570754Y-129219078D01*
X245570756Y-129219083D01*
X245742140Y-129539720D01*
X245742151Y-129539738D01*
X245944140Y-129842035D01*
X245944150Y-129842049D01*
X246174807Y-130123106D01*
X246431893Y-130380192D01*
X246431898Y-130380196D01*
X246431899Y-130380197D01*
X246712956Y-130610854D01*
X247015268Y-130812853D01*
X247015277Y-130812858D01*
X247015279Y-130812859D01*
X247335916Y-130984243D01*
X247335918Y-130984243D01*
X247335924Y-130984247D01*
X247671836Y-131123386D01*
X248019767Y-131228930D01*
X248019773Y-131228931D01*
X248019776Y-131228932D01*
X248019787Y-131228935D01*
X248376369Y-131299862D01*
X248738206Y-131335500D01*
X248738209Y-131335500D01*
X249101791Y-131335500D01*
X249101794Y-131335500D01*
X249463631Y-131299862D01*
X249533045Y-131286054D01*
X249820212Y-131228935D01*
X249820223Y-131228932D01*
X249820223Y-131228931D01*
X249820233Y-131228930D01*
X250168164Y-131123386D01*
X250504076Y-130984247D01*
X250824732Y-130812853D01*
X251127044Y-130610854D01*
X251408101Y-130380197D01*
X251665197Y-130123101D01*
X251895854Y-129842044D01*
X252097853Y-129539732D01*
X252269247Y-129219076D01*
X252408386Y-128883164D01*
X252513930Y-128535233D01*
X252513932Y-128535223D01*
X252513935Y-128535212D01*
X252584862Y-128178630D01*
X252593768Y-128088206D01*
X252620500Y-127816794D01*
X252620500Y-127453206D01*
X252584862Y-127091369D01*
X252554249Y-126937465D01*
X252513935Y-126734787D01*
X252513932Y-126734776D01*
X252513931Y-126734773D01*
X252513930Y-126734767D01*
X252408386Y-126386836D01*
X252269247Y-126050924D01*
X252239469Y-125995214D01*
X252097859Y-125730279D01*
X252097858Y-125730277D01*
X252097853Y-125730268D01*
X251895854Y-125427956D01*
X251665197Y-125146899D01*
X251665196Y-125146898D01*
X251665192Y-125146893D01*
X251408106Y-124889807D01*
X251127049Y-124659150D01*
X251127048Y-124659149D01*
X251127044Y-124659146D01*
X250824732Y-124457147D01*
X250824727Y-124457144D01*
X250824720Y-124457140D01*
X250504083Y-124285756D01*
X250504078Y-124285754D01*
X250168165Y-124146614D01*
X249820223Y-124041067D01*
X249820212Y-124041064D01*
X249463630Y-123970137D01*
X249191111Y-123943296D01*
X249101794Y-123934500D01*
X248738206Y-123934500D01*
X248655679Y-123942628D01*
X248376369Y-123970137D01*
X248019787Y-124041064D01*
X248019776Y-124041067D01*
X247671834Y-124146614D01*
X247335921Y-124285754D01*
X247335916Y-124285756D01*
X247015279Y-124457140D01*
X247015261Y-124457151D01*
X246712964Y-124659140D01*
X246712950Y-124659150D01*
X246431893Y-124889807D01*
X246174807Y-125146893D01*
X245944150Y-125427950D01*
X245944140Y-125427964D01*
X245742151Y-125730261D01*
X245742140Y-125730279D01*
X245570756Y-126050916D01*
X245570754Y-126050921D01*
X245431614Y-126386834D01*
X245326067Y-126734776D01*
X245326064Y-126734787D01*
X245255137Y-127091369D01*
X245239514Y-127250000D01*
X245219500Y-127453206D01*
X147955500Y-127453206D01*
X147955499Y-126937465D01*
X147955499Y-126224998D01*
X147955498Y-126224981D01*
X147944999Y-126122203D01*
X147944998Y-126122200D01*
X147921378Y-126050921D01*
X147889814Y-125955666D01*
X147797712Y-125806344D01*
X147673656Y-125682288D01*
X147524334Y-125590186D01*
X147357797Y-125535001D01*
X147357795Y-125535000D01*
X147255010Y-125524500D01*
X145954998Y-125524500D01*
X145954981Y-125524501D01*
X145852203Y-125535000D01*
X145852200Y-125535001D01*
X145685668Y-125590185D01*
X145685663Y-125590187D01*
X145536342Y-125682289D01*
X145412289Y-125806342D01*
X145316551Y-125961559D01*
X145264603Y-126008283D01*
X145195640Y-126019506D01*
X145131558Y-125991662D01*
X145123331Y-125984143D01*
X144984464Y-125845276D01*
X144984459Y-125845272D01*
X144812557Y-125720379D01*
X144623215Y-125623903D01*
X144421124Y-125558241D01*
X144355000Y-125547768D01*
X144355000Y-126595854D01*
X144288343Y-126557370D01*
X144167535Y-126525000D01*
X144042465Y-126525000D01*
X143921657Y-126557370D01*
X143855000Y-126595854D01*
X143855000Y-125547768D01*
X143854999Y-125547768D01*
X143788875Y-125558241D01*
X143586784Y-125623903D01*
X143397442Y-125720379D01*
X143225540Y-125845272D01*
X143225535Y-125845276D01*
X143075276Y-125995535D01*
X143075272Y-125995540D01*
X142955627Y-126160218D01*
X142900297Y-126202884D01*
X142830684Y-126208863D01*
X142768889Y-126176257D01*
X142754991Y-126160218D01*
X142635109Y-125995214D01*
X142635105Y-125995209D01*
X142484786Y-125844890D01*
X142312820Y-125719951D01*
X142123414Y-125623444D01*
X142123413Y-125623443D01*
X142123412Y-125623443D01*
X141921243Y-125557754D01*
X141921241Y-125557753D01*
X141921240Y-125557753D01*
X141759957Y-125532208D01*
X141711287Y-125524500D01*
X141498713Y-125524500D01*
X141450042Y-125532208D01*
X141288760Y-125557753D01*
X141086585Y-125623444D01*
X140897179Y-125719951D01*
X140725213Y-125844890D01*
X140574890Y-125995213D01*
X140449951Y-126167179D01*
X140353444Y-126356585D01*
X140287753Y-126558760D01*
X140254500Y-126768713D01*
X128350499Y-126768713D01*
X128350499Y-126199992D01*
X128348074Y-126176257D01*
X128339999Y-126097203D01*
X128339998Y-126097200D01*
X128328649Y-126062950D01*
X128284814Y-125930666D01*
X128192712Y-125781344D01*
X128068656Y-125657288D01*
X127919334Y-125565186D01*
X127752797Y-125510001D01*
X127752795Y-125510000D01*
X127650010Y-125499500D01*
X126349998Y-125499500D01*
X126349981Y-125499501D01*
X126247203Y-125510000D01*
X126247200Y-125510001D01*
X126080668Y-125565185D01*
X126080663Y-125565187D01*
X125931342Y-125657289D01*
X125807289Y-125781342D01*
X125711551Y-125936559D01*
X125659603Y-125983283D01*
X125590640Y-125994506D01*
X125526558Y-125966662D01*
X125518331Y-125959143D01*
X125379464Y-125820276D01*
X125379459Y-125820272D01*
X125207557Y-125695379D01*
X125018215Y-125598903D01*
X124816124Y-125533241D01*
X124750000Y-125522768D01*
X124750000Y-126566988D01*
X124692993Y-126534075D01*
X124565826Y-126500000D01*
X124434174Y-126500000D01*
X124307007Y-126534075D01*
X124250000Y-126566988D01*
X124250000Y-125522768D01*
X124249999Y-125522768D01*
X124183875Y-125533241D01*
X123981784Y-125598903D01*
X123792442Y-125695379D01*
X123620540Y-125820272D01*
X123620535Y-125820276D01*
X123470276Y-125970535D01*
X123470272Y-125970540D01*
X123345379Y-126142442D01*
X123248904Y-126331782D01*
X123183242Y-126533869D01*
X123183242Y-126533872D01*
X123150000Y-126743753D01*
X57488201Y-126743753D01*
X57464247Y-126685924D01*
X57378231Y-126525000D01*
X57292859Y-126365279D01*
X57292858Y-126365277D01*
X57292853Y-126365268D01*
X57090854Y-126062956D01*
X56860197Y-125781899D01*
X56860196Y-125781898D01*
X56860192Y-125781893D01*
X56603106Y-125524807D01*
X56322049Y-125294150D01*
X56322048Y-125294149D01*
X56322044Y-125294146D01*
X56019732Y-125092147D01*
X56019727Y-125092144D01*
X56019720Y-125092140D01*
X55699083Y-124920756D01*
X55699078Y-124920754D01*
X55624365Y-124889807D01*
X55600690Y-124880000D01*
X55363165Y-124781614D01*
X55015223Y-124676067D01*
X55015212Y-124676064D01*
X54658630Y-124605137D01*
X54386111Y-124578296D01*
X54296794Y-124569500D01*
X53933206Y-124569500D01*
X53850679Y-124577628D01*
X53571369Y-124605137D01*
X53214787Y-124676064D01*
X53214776Y-124676067D01*
X52866834Y-124781614D01*
X52530921Y-124920754D01*
X52530916Y-124920756D01*
X52210279Y-125092140D01*
X52210261Y-125092151D01*
X51907964Y-125294140D01*
X51907950Y-125294150D01*
X51626893Y-125524807D01*
X51369807Y-125781893D01*
X51139150Y-126062950D01*
X51139140Y-126062964D01*
X50937151Y-126365261D01*
X50937140Y-126365279D01*
X50765756Y-126685916D01*
X50765754Y-126685921D01*
X50626614Y-127021834D01*
X50521067Y-127369776D01*
X50521064Y-127369787D01*
X50450137Y-127726369D01*
X50432761Y-127902795D01*
X50414500Y-128088206D01*
X50094737Y-128088206D01*
X49793113Y-97322648D01*
X52134500Y-97322648D01*
X52134500Y-97527351D01*
X52166522Y-97729534D01*
X52229781Y-97924223D01*
X52322715Y-98106613D01*
X52443028Y-98272213D01*
X52587786Y-98416971D01*
X52742749Y-98529556D01*
X52753390Y-98537287D01*
X52844840Y-98583883D01*
X52846080Y-98584515D01*
X52896876Y-98632490D01*
X52913671Y-98700311D01*
X52891134Y-98766446D01*
X52846080Y-98805485D01*
X52753386Y-98852715D01*
X52587786Y-98973028D01*
X52443028Y-99117786D01*
X52322715Y-99283386D01*
X52229781Y-99465776D01*
X52166522Y-99660465D01*
X52134500Y-99862648D01*
X52134500Y-100067351D01*
X52166522Y-100269534D01*
X52229781Y-100464223D01*
X52322715Y-100646613D01*
X52443028Y-100812213D01*
X52587786Y-100956971D01*
X52739667Y-101067317D01*
X52753390Y-101077287D01*
X52836030Y-101119394D01*
X52846080Y-101124515D01*
X52896876Y-101172490D01*
X52913671Y-101240311D01*
X52891134Y-101306446D01*
X52846080Y-101345485D01*
X52753386Y-101392715D01*
X52587786Y-101513028D01*
X52443028Y-101657786D01*
X52322715Y-101823386D01*
X52229781Y-102005776D01*
X52166522Y-102200465D01*
X52134500Y-102402648D01*
X52134500Y-102607351D01*
X52166522Y-102809534D01*
X52229781Y-103004223D01*
X52322715Y-103186613D01*
X52443028Y-103352213D01*
X52587786Y-103496971D01*
X52742749Y-103609556D01*
X52753390Y-103617287D01*
X52844840Y-103663883D01*
X52846080Y-103664515D01*
X52896876Y-103712490D01*
X52913671Y-103780311D01*
X52891134Y-103846446D01*
X52846080Y-103885485D01*
X52753386Y-103932715D01*
X52587786Y-104053028D01*
X52443028Y-104197786D01*
X52322715Y-104363386D01*
X52229781Y-104545776D01*
X52166522Y-104740465D01*
X52134500Y-104942648D01*
X52134500Y-105147351D01*
X52166522Y-105349534D01*
X52229781Y-105544223D01*
X52322715Y-105726613D01*
X52443028Y-105892213D01*
X52587786Y-106036971D01*
X52742749Y-106149556D01*
X52753390Y-106157287D01*
X52844840Y-106203883D01*
X52846080Y-106204515D01*
X52896876Y-106252490D01*
X52913671Y-106320311D01*
X52891134Y-106386446D01*
X52846080Y-106425485D01*
X52753386Y-106472715D01*
X52587786Y-106593028D01*
X52443028Y-106737786D01*
X52322715Y-106903386D01*
X52229781Y-107085776D01*
X52166522Y-107280465D01*
X52134500Y-107482648D01*
X52134500Y-107687351D01*
X52166522Y-107889534D01*
X52229781Y-108084223D01*
X52322715Y-108266613D01*
X52443028Y-108432213D01*
X52587786Y-108576971D01*
X52753385Y-108697284D01*
X52753387Y-108697285D01*
X52753390Y-108697287D01*
X52846080Y-108744515D01*
X52846630Y-108744795D01*
X52897426Y-108792770D01*
X52914221Y-108860591D01*
X52891684Y-108926725D01*
X52846630Y-108965765D01*
X52753644Y-109013143D01*
X52709077Y-109045523D01*
X52709077Y-109045524D01*
X53388554Y-109725000D01*
X53382339Y-109725000D01*
X53280606Y-109752259D01*
X53189394Y-109804920D01*
X53114920Y-109879394D01*
X53062259Y-109970606D01*
X53035000Y-110072339D01*
X53035000Y-110078553D01*
X52355524Y-109399077D01*
X52355523Y-109399077D01*
X52323143Y-109443644D01*
X52230244Y-109625968D01*
X52167009Y-109820582D01*
X52135000Y-110022682D01*
X52135000Y-110227317D01*
X52167009Y-110429417D01*
X52230244Y-110624031D01*
X52323141Y-110806350D01*
X52323147Y-110806359D01*
X52355523Y-110850921D01*
X52355524Y-110850922D01*
X53035000Y-110171446D01*
X53035000Y-110177661D01*
X53062259Y-110279394D01*
X53114920Y-110370606D01*
X53189394Y-110445080D01*
X53280606Y-110497741D01*
X53382339Y-110525000D01*
X53388553Y-110525000D01*
X52709076Y-111204474D01*
X52753652Y-111236861D01*
X52846628Y-111284234D01*
X52897425Y-111332208D01*
X52914220Y-111400029D01*
X52891683Y-111466164D01*
X52846630Y-111505203D01*
X52753388Y-111552713D01*
X52587786Y-111673028D01*
X52443028Y-111817786D01*
X52322715Y-111983386D01*
X52229781Y-112165776D01*
X52166522Y-112360465D01*
X52134500Y-112562648D01*
X52134500Y-112767351D01*
X52166522Y-112969534D01*
X52229781Y-113164223D01*
X52322715Y-113346613D01*
X52443028Y-113512213D01*
X52587786Y-113656971D01*
X52742749Y-113769556D01*
X52753390Y-113777287D01*
X52869607Y-113836503D01*
X52935776Y-113870218D01*
X52935778Y-113870218D01*
X52935781Y-113870220D01*
X53026856Y-113899812D01*
X53130465Y-113933477D01*
X53231557Y-113949488D01*
X53332648Y-113965500D01*
X53332649Y-113965500D01*
X53537351Y-113965500D01*
X53537352Y-113965500D01*
X53739534Y-113933477D01*
X53934219Y-113870220D01*
X54116610Y-113777287D01*
X54245482Y-113683657D01*
X54282213Y-113656971D01*
X54282215Y-113656968D01*
X54282219Y-113656966D01*
X54426966Y-113512219D01*
X54426968Y-113512215D01*
X54426971Y-113512213D01*
X54531892Y-113367799D01*
X54547287Y-113346610D01*
X54640220Y-113164219D01*
X54703477Y-112969534D01*
X54735500Y-112767352D01*
X54735500Y-112562648D01*
X54703477Y-112360466D01*
X54693649Y-112330220D01*
X54640218Y-112165776D01*
X54588865Y-112064991D01*
X54547287Y-111983390D01*
X54531892Y-111962200D01*
X54426971Y-111817786D01*
X54282213Y-111673028D01*
X54116611Y-111552713D01*
X54023369Y-111505203D01*
X53972574Y-111457229D01*
X53955779Y-111389407D01*
X53978317Y-111323273D01*
X54023371Y-111284234D01*
X54116346Y-111236861D01*
X54116347Y-111236861D01*
X54160921Y-111204474D01*
X53481447Y-110525000D01*
X53487661Y-110525000D01*
X53589394Y-110497741D01*
X53680606Y-110445080D01*
X53755080Y-110370606D01*
X53807741Y-110279394D01*
X53835000Y-110177661D01*
X53835000Y-110171447D01*
X54514474Y-110850921D01*
X54546859Y-110806349D01*
X54639755Y-110624031D01*
X54702990Y-110429417D01*
X54735000Y-110227317D01*
X54735000Y-110022682D01*
X54702990Y-109820582D01*
X54639755Y-109625968D01*
X54546859Y-109443650D01*
X54514474Y-109399077D01*
X54514474Y-109399076D01*
X53835000Y-110078551D01*
X53835000Y-110072339D01*
X53807741Y-109970606D01*
X53755080Y-109879394D01*
X53680606Y-109804920D01*
X53589394Y-109752259D01*
X53487661Y-109725000D01*
X53481446Y-109725000D01*
X54160922Y-109045524D01*
X54160921Y-109045523D01*
X54116359Y-109013147D01*
X54116350Y-109013141D01*
X54023369Y-108965765D01*
X53972573Y-108917790D01*
X53955778Y-108849969D01*
X53978315Y-108783835D01*
X54023370Y-108744795D01*
X54023920Y-108744515D01*
X54116610Y-108697287D01*
X54166144Y-108661298D01*
X54282213Y-108576971D01*
X54282215Y-108576968D01*
X54282219Y-108576966D01*
X54426966Y-108432219D01*
X54426968Y-108432215D01*
X54426971Y-108432213D01*
X54524855Y-108297485D01*
X54547287Y-108266610D01*
X54640220Y-108084219D01*
X54703477Y-107889534D01*
X54735500Y-107687352D01*
X54735500Y-107482648D01*
X54703477Y-107280466D01*
X54693649Y-107250220D01*
X54640218Y-107085776D01*
X54606503Y-107019607D01*
X54547287Y-106903390D01*
X54539167Y-106892213D01*
X54426971Y-106737786D01*
X54282213Y-106593028D01*
X54116614Y-106472715D01*
X54110006Y-106469348D01*
X54023917Y-106425483D01*
X53973123Y-106377511D01*
X53956328Y-106309690D01*
X53978865Y-106243555D01*
X54023917Y-106204516D01*
X54116610Y-106157287D01*
X54137770Y-106141913D01*
X54282213Y-106036971D01*
X54282215Y-106036968D01*
X54282219Y-106036966D01*
X54426966Y-105892219D01*
X54426968Y-105892215D01*
X54426971Y-105892213D01*
X54479732Y-105819590D01*
X54547287Y-105726610D01*
X54640220Y-105544219D01*
X54703477Y-105349534D01*
X54735500Y-105147352D01*
X54735500Y-104942648D01*
X54711337Y-104790090D01*
X54703477Y-104740465D01*
X54640218Y-104545776D01*
X54591994Y-104451133D01*
X54547287Y-104363390D01*
X54539167Y-104352213D01*
X54426971Y-104197786D01*
X54282213Y-104053028D01*
X54116614Y-103932715D01*
X54110006Y-103929348D01*
X54023917Y-103885483D01*
X53973123Y-103837511D01*
X53956328Y-103769690D01*
X53978865Y-103703555D01*
X54023917Y-103664516D01*
X54116610Y-103617287D01*
X54137770Y-103601913D01*
X54282213Y-103496971D01*
X54282215Y-103496968D01*
X54282219Y-103496966D01*
X54426966Y-103352219D01*
X54426968Y-103352215D01*
X54426971Y-103352213D01*
X54479732Y-103279590D01*
X54547287Y-103186610D01*
X54640220Y-103004219D01*
X54703477Y-102809534D01*
X54735500Y-102607352D01*
X54735500Y-102402648D01*
X54733926Y-102392713D01*
X54703477Y-102200465D01*
X54640218Y-102005776D01*
X54606503Y-101939607D01*
X54547287Y-101823390D01*
X54539556Y-101812749D01*
X54426971Y-101657786D01*
X54282213Y-101513028D01*
X54116614Y-101392715D01*
X54062220Y-101365000D01*
X54023917Y-101345483D01*
X53973123Y-101297511D01*
X53956328Y-101229690D01*
X53978865Y-101163555D01*
X54023917Y-101124516D01*
X54116610Y-101077287D01*
X54271160Y-100965001D01*
X54282213Y-100956971D01*
X54282215Y-100956968D01*
X54282219Y-100956966D01*
X54426966Y-100812219D01*
X54426968Y-100812215D01*
X54426971Y-100812213D01*
X54494407Y-100719394D01*
X54547287Y-100646610D01*
X54640220Y-100464219D01*
X54703477Y-100269534D01*
X54735500Y-100067352D01*
X54735500Y-99862648D01*
X54733994Y-99853141D01*
X54703477Y-99660465D01*
X54640218Y-99465776D01*
X54606503Y-99399607D01*
X54547287Y-99283390D01*
X54539167Y-99272213D01*
X54426971Y-99117786D01*
X54282213Y-98973028D01*
X54116614Y-98852715D01*
X54110006Y-98849348D01*
X54023917Y-98805483D01*
X53973123Y-98757511D01*
X53956328Y-98689690D01*
X53978865Y-98623555D01*
X54023917Y-98584516D01*
X54116610Y-98537287D01*
X54137770Y-98521913D01*
X54282213Y-98416971D01*
X54282215Y-98416968D01*
X54282219Y-98416966D01*
X54426966Y-98272219D01*
X54426968Y-98272215D01*
X54426971Y-98272213D01*
X54479732Y-98199590D01*
X54547287Y-98106610D01*
X54640220Y-97924219D01*
X54703477Y-97729534D01*
X54735500Y-97527352D01*
X54735500Y-97322648D01*
X59754500Y-97322648D01*
X59754500Y-97527351D01*
X59786522Y-97729534D01*
X59849781Y-97924223D01*
X59942715Y-98106613D01*
X60063028Y-98272213D01*
X60207786Y-98416971D01*
X60362749Y-98529556D01*
X60373390Y-98537287D01*
X60464840Y-98583883D01*
X60466080Y-98584515D01*
X60516876Y-98632490D01*
X60533671Y-98700311D01*
X60511134Y-98766446D01*
X60466080Y-98805485D01*
X60373386Y-98852715D01*
X60207786Y-98973028D01*
X60063028Y-99117786D01*
X59942715Y-99283386D01*
X59849781Y-99465776D01*
X59786522Y-99660465D01*
X59754500Y-99862648D01*
X59754500Y-100067351D01*
X59786522Y-100269534D01*
X59849781Y-100464223D01*
X59942715Y-100646613D01*
X60063028Y-100812213D01*
X60207786Y-100956971D01*
X60359667Y-101067317D01*
X60373390Y-101077287D01*
X60456030Y-101119394D01*
X60466080Y-101124515D01*
X60516876Y-101172490D01*
X60533671Y-101240311D01*
X60511134Y-101306446D01*
X60466080Y-101345485D01*
X60373386Y-101392715D01*
X60207786Y-101513028D01*
X60063028Y-101657786D01*
X59942715Y-101823386D01*
X59849781Y-102005776D01*
X59786522Y-102200465D01*
X59754500Y-102402648D01*
X59754500Y-102607351D01*
X59786522Y-102809534D01*
X59849781Y-103004223D01*
X59942715Y-103186613D01*
X60063028Y-103352213D01*
X60207786Y-103496971D01*
X60362749Y-103609556D01*
X60373390Y-103617287D01*
X60464840Y-103663883D01*
X60466080Y-103664515D01*
X60516876Y-103712490D01*
X60533671Y-103780311D01*
X60511134Y-103846446D01*
X60466080Y-103885485D01*
X60373386Y-103932715D01*
X60207786Y-104053028D01*
X60063028Y-104197786D01*
X59942715Y-104363386D01*
X59849781Y-104545776D01*
X59786522Y-104740465D01*
X59754500Y-104942648D01*
X59754500Y-105147351D01*
X59786522Y-105349534D01*
X59849781Y-105544223D01*
X59942715Y-105726613D01*
X60063028Y-105892213D01*
X60207786Y-106036971D01*
X60362749Y-106149556D01*
X60373390Y-106157287D01*
X60464840Y-106203883D01*
X60466080Y-106204515D01*
X60516876Y-106252490D01*
X60533671Y-106320311D01*
X60511134Y-106386446D01*
X60466080Y-106425485D01*
X60373386Y-106472715D01*
X60207786Y-106593028D01*
X60063028Y-106737786D01*
X59942715Y-106903386D01*
X59849781Y-107085776D01*
X59786522Y-107280465D01*
X59754500Y-107482648D01*
X59754500Y-107687351D01*
X59786522Y-107889534D01*
X59849781Y-108084223D01*
X59942715Y-108266613D01*
X60063028Y-108432213D01*
X60207786Y-108576971D01*
X60362749Y-108689556D01*
X60373390Y-108697287D01*
X60464840Y-108743883D01*
X60466080Y-108744515D01*
X60516876Y-108792490D01*
X60533671Y-108860311D01*
X60511134Y-108926446D01*
X60466080Y-108965485D01*
X60373386Y-109012715D01*
X60207786Y-109133028D01*
X60063028Y-109277786D01*
X59942715Y-109443386D01*
X59849781Y-109625776D01*
X59786522Y-109820465D01*
X59754500Y-110022648D01*
X59754500Y-110227351D01*
X59786522Y-110429534D01*
X59849781Y-110624223D01*
X59913691Y-110749653D01*
X59942585Y-110806359D01*
X59942715Y-110806613D01*
X60063028Y-110972213D01*
X60063034Y-110972219D01*
X60207781Y-111116966D01*
X60301452Y-111185021D01*
X60344117Y-111240350D01*
X60350096Y-111309963D01*
X60317491Y-111371759D01*
X60267571Y-111403045D01*
X60185666Y-111430186D01*
X60185663Y-111430187D01*
X60036342Y-111522289D01*
X59912289Y-111646342D01*
X59820187Y-111795663D01*
X59820185Y-111795668D01*
X59812858Y-111817781D01*
X59765001Y-111962203D01*
X59765001Y-111962204D01*
X59765000Y-111962204D01*
X59754500Y-112064983D01*
X59754500Y-113265001D01*
X59754501Y-113265018D01*
X59765000Y-113367796D01*
X59765001Y-113367799D01*
X59812856Y-113512213D01*
X59820186Y-113534334D01*
X59912288Y-113683656D01*
X60036344Y-113807712D01*
X60185666Y-113899814D01*
X60352203Y-113954999D01*
X60454991Y-113965500D01*
X61655008Y-113965499D01*
X61757797Y-113954999D01*
X61924334Y-113899814D01*
X62073656Y-113807712D01*
X62197712Y-113683656D01*
X62289814Y-113534334D01*
X62344999Y-113367797D01*
X62355500Y-113265009D01*
X62355499Y-112064992D01*
X62344999Y-111962203D01*
X62289814Y-111795666D01*
X62197712Y-111646344D01*
X62073656Y-111522288D01*
X61964626Y-111455038D01*
X61917903Y-111403091D01*
X61906680Y-111334128D01*
X61934524Y-111270046D01*
X61992592Y-111231190D01*
X62029724Y-111225500D01*
X63897796Y-111225500D01*
X63964835Y-111245185D01*
X63985477Y-111261819D01*
X65498181Y-112774523D01*
X65531666Y-112835846D01*
X65534500Y-112862204D01*
X65534500Y-119562327D01*
X65534698Y-119576497D01*
X65534890Y-119583361D01*
X65535486Y-119597556D01*
X65553680Y-119922296D01*
X65556049Y-119950450D01*
X65557603Y-119964266D01*
X65561547Y-119992268D01*
X65615316Y-120309478D01*
X65620823Y-120337229D01*
X65623904Y-120350766D01*
X65630956Y-120378167D01*
X65719834Y-120687421D01*
X65728395Y-120714345D01*
X65732974Y-120727466D01*
X65743038Y-120753895D01*
X65865904Y-121051279D01*
X65865907Y-121051285D01*
X65877444Y-121077135D01*
X65883445Y-121089628D01*
X65896394Y-121114760D01*
X66051708Y-121396551D01*
X66066047Y-121420927D01*
X66070608Y-121428208D01*
X66073417Y-121432691D01*
X66089100Y-121456231D01*
X66274928Y-121718920D01*
X66291875Y-121741510D01*
X66300543Y-121752414D01*
X66318741Y-121774034D01*
X66318748Y-121774042D01*
X66532750Y-122014320D01*
X66549949Y-122032577D01*
X66552150Y-122034913D01*
X66561902Y-122044701D01*
X66561917Y-122044715D01*
X66582449Y-122064200D01*
X66821959Y-122279074D01*
X66843552Y-122297380D01*
X66843572Y-122297396D01*
X66854367Y-122306041D01*
X66854376Y-122306047D01*
X66854380Y-122306051D01*
X66876933Y-122323099D01*
X66978300Y-122395357D01*
X67138948Y-122509873D01*
X67162427Y-122525637D01*
X67162436Y-122525643D01*
X67174166Y-122533051D01*
X67198484Y-122547474D01*
X67306870Y-122607724D01*
X67479697Y-122703797D01*
X67504787Y-122716838D01*
X67504797Y-122716843D01*
X67517281Y-122722895D01*
X67517290Y-122722899D01*
X67543095Y-122734529D01*
X67722172Y-122809272D01*
X67840016Y-122858459D01*
X67866425Y-122868624D01*
X67879507Y-122873243D01*
X67879516Y-122873246D01*
X67879522Y-122873248D01*
X67885423Y-122875147D01*
X67906427Y-122881909D01*
X68215339Y-122971898D01*
X68242709Y-122979046D01*
X68256225Y-122982175D01*
X68283954Y-122987782D01*
X68600984Y-123042700D01*
X68625867Y-123046297D01*
X68628984Y-123046748D01*
X68635862Y-123047546D01*
X68642753Y-123048346D01*
X68670947Y-123050821D01*
X68995608Y-123070187D01*
X68995621Y-123070187D01*
X68995628Y-123070188D01*
X68998390Y-123070313D01*
X69009753Y-123070832D01*
X69016688Y-123071051D01*
X69030818Y-123071300D01*
X238959286Y-123684760D01*
X238968305Y-123684666D01*
X238973269Y-123684616D01*
X238973300Y-123684615D01*
X238973324Y-123684615D01*
X238980234Y-123684448D01*
X238994363Y-123683909D01*
X239317863Y-123667028D01*
X239345955Y-123664776D01*
X239359693Y-123663288D01*
X239387605Y-123659475D01*
X239703789Y-123607271D01*
X239731454Y-123601907D01*
X239744940Y-123598900D01*
X239772253Y-123592006D01*
X240080664Y-123504949D01*
X240107554Y-123496543D01*
X240120623Y-123492054D01*
X240147011Y-123482159D01*
X240443826Y-123361324D01*
X240469625Y-123349973D01*
X240482112Y-123344058D01*
X240507218Y-123331298D01*
X240788739Y-123178196D01*
X240813101Y-123164052D01*
X240824854Y-123156784D01*
X240848404Y-123141298D01*
X241111149Y-122957817D01*
X241133796Y-122941043D01*
X241144666Y-122932513D01*
X241166334Y-122914512D01*
X241407025Y-122702944D01*
X241427666Y-122683755D01*
X241437520Y-122674068D01*
X241457050Y-122653768D01*
X241672720Y-122416720D01*
X241691095Y-122395357D01*
X241699810Y-122384634D01*
X241716961Y-122362286D01*
X241904907Y-122102731D01*
X241920789Y-122079459D01*
X241928257Y-122067833D01*
X241942820Y-122043709D01*
X242100724Y-121764846D01*
X242113921Y-121739946D01*
X242120049Y-121727561D01*
X242131834Y-121701972D01*
X242257729Y-121407275D01*
X242268069Y-121381074D01*
X242272781Y-121368085D01*
X242281649Y-121341335D01*
X242373976Y-121034459D01*
X242381337Y-121007271D01*
X242384575Y-120993837D01*
X242390413Y-120966260D01*
X242448022Y-120651015D01*
X242452312Y-120623176D01*
X242454035Y-120609466D01*
X242456768Y-120581415D01*
X242479185Y-120258264D01*
X242479964Y-120244202D01*
X242480250Y-120237297D01*
X242480637Y-120223207D01*
X242637684Y-108601700D01*
X242658273Y-108534934D01*
X242711690Y-108489897D01*
X242780977Y-108480889D01*
X242844135Y-108510770D01*
X242849354Y-108515696D01*
X245717449Y-111383791D01*
X245747699Y-111433154D01*
X245758425Y-111466164D01*
X245809780Y-111624219D01*
X245897135Y-111795663D01*
X245902715Y-111806613D01*
X246023028Y-111972213D01*
X246167786Y-112116971D01*
X246322749Y-112229556D01*
X246333390Y-112237287D01*
X246424840Y-112283883D01*
X246426080Y-112284515D01*
X246476876Y-112332490D01*
X246493671Y-112400311D01*
X246471134Y-112466446D01*
X246426080Y-112505485D01*
X246333386Y-112552715D01*
X246167786Y-112673028D01*
X246023028Y-112817786D01*
X245902715Y-112983386D01*
X245809781Y-113165776D01*
X245746522Y-113360465D01*
X245714500Y-113562648D01*
X245714500Y-113767351D01*
X245746522Y-113969534D01*
X245809781Y-114164223D01*
X245902715Y-114346613D01*
X246023028Y-114512213D01*
X246167786Y-114656971D01*
X246322749Y-114769556D01*
X246333390Y-114777287D01*
X246449607Y-114836503D01*
X246515776Y-114870218D01*
X246515778Y-114870218D01*
X246515781Y-114870220D01*
X246620137Y-114904127D01*
X246710465Y-114933477D01*
X246811557Y-114949488D01*
X246912648Y-114965500D01*
X246912649Y-114965500D01*
X247117351Y-114965500D01*
X247117352Y-114965500D01*
X247319534Y-114933477D01*
X247514219Y-114870220D01*
X247696610Y-114777287D01*
X247789590Y-114709732D01*
X247862213Y-114656971D01*
X247862215Y-114656968D01*
X247862219Y-114656966D01*
X248006966Y-114512219D01*
X248006968Y-114512215D01*
X248006971Y-114512213D01*
X248059732Y-114439590D01*
X248127287Y-114346610D01*
X248220220Y-114164219D01*
X248283477Y-113969534D01*
X248315500Y-113767352D01*
X248315500Y-113562648D01*
X248307512Y-113512213D01*
X248283477Y-113360465D01*
X248220218Y-113165776D01*
X248186503Y-113099607D01*
X248127287Y-112983390D01*
X248117220Y-112969534D01*
X248006971Y-112817786D01*
X247862213Y-112673028D01*
X247696614Y-112552715D01*
X247690006Y-112549348D01*
X247603917Y-112505483D01*
X247553123Y-112457511D01*
X247536328Y-112389690D01*
X247558865Y-112323555D01*
X247603917Y-112284516D01*
X247696610Y-112237287D01*
X247717770Y-112221913D01*
X247862213Y-112116971D01*
X247862215Y-112116968D01*
X247862219Y-112116966D01*
X248006966Y-111972219D01*
X248006968Y-111972215D01*
X248006971Y-111972213D01*
X248119167Y-111817786D01*
X248127287Y-111806610D01*
X248220220Y-111624219D01*
X248283477Y-111429534D01*
X248315500Y-111227352D01*
X248315500Y-111022648D01*
X248283477Y-110820466D01*
X248278893Y-110806359D01*
X248220218Y-110625776D01*
X248145203Y-110478553D01*
X248127287Y-110443390D01*
X248074407Y-110370606D01*
X248006971Y-110277786D01*
X247862213Y-110133028D01*
X247696614Y-110012715D01*
X247613970Y-109970606D01*
X247603917Y-109965483D01*
X247553123Y-109917511D01*
X247536328Y-109849690D01*
X247558865Y-109783555D01*
X247603917Y-109744516D01*
X247696610Y-109697287D01*
X247794773Y-109625968D01*
X247862213Y-109576971D01*
X247862215Y-109576968D01*
X247862219Y-109576966D01*
X248006966Y-109432219D01*
X248006968Y-109432215D01*
X248006971Y-109432213D01*
X248059732Y-109359590D01*
X248127287Y-109266610D01*
X248220220Y-109084219D01*
X248283477Y-108889534D01*
X248315500Y-108687352D01*
X248315500Y-108482648D01*
X248283477Y-108280466D01*
X248220220Y-108085781D01*
X248220218Y-108085778D01*
X248220218Y-108085776D01*
X248186503Y-108019607D01*
X248127287Y-107903390D01*
X248117220Y-107889534D01*
X248006971Y-107737786D01*
X247862213Y-107593028D01*
X247696614Y-107472715D01*
X247690006Y-107469348D01*
X247603917Y-107425483D01*
X247553123Y-107377511D01*
X247536328Y-107309690D01*
X247558865Y-107243555D01*
X247603917Y-107204516D01*
X247696610Y-107157287D01*
X247717770Y-107141913D01*
X247862213Y-107036971D01*
X247862215Y-107036968D01*
X247862219Y-107036966D01*
X248006966Y-106892219D01*
X248006968Y-106892215D01*
X248006971Y-106892213D01*
X248119167Y-106737786D01*
X248127287Y-106726610D01*
X248220220Y-106544219D01*
X248283477Y-106349534D01*
X248315500Y-106147352D01*
X248315500Y-105942648D01*
X248283477Y-105740466D01*
X248220220Y-105545781D01*
X248220218Y-105545778D01*
X248220218Y-105545776D01*
X248186503Y-105479607D01*
X248127287Y-105363390D01*
X248117220Y-105349534D01*
X248006971Y-105197786D01*
X247862213Y-105053028D01*
X247696614Y-104932715D01*
X247611454Y-104889324D01*
X247603917Y-104885483D01*
X247553123Y-104837511D01*
X247536328Y-104769690D01*
X247558865Y-104703555D01*
X247603917Y-104664516D01*
X247696610Y-104617287D01*
X247729385Y-104593475D01*
X247862213Y-104496971D01*
X247862215Y-104496968D01*
X247862219Y-104496966D01*
X248006966Y-104352219D01*
X248006968Y-104352215D01*
X248006971Y-104352213D01*
X248119167Y-104197786D01*
X248127287Y-104186610D01*
X248220220Y-104004219D01*
X248283477Y-103809534D01*
X248315500Y-103607352D01*
X248315500Y-103402648D01*
X248283477Y-103200466D01*
X248220220Y-103005781D01*
X248220218Y-103005778D01*
X248220218Y-103005776D01*
X248186503Y-102939607D01*
X248127287Y-102823390D01*
X248115693Y-102807432D01*
X248006971Y-102657786D01*
X247862213Y-102513028D01*
X247696611Y-102392713D01*
X247603369Y-102345203D01*
X247552574Y-102297229D01*
X247535779Y-102229407D01*
X247558317Y-102163273D01*
X247603371Y-102124234D01*
X247696346Y-102076861D01*
X247696347Y-102076861D01*
X247740921Y-102044474D01*
X247061447Y-101365000D01*
X247067661Y-101365000D01*
X247169394Y-101337741D01*
X247260606Y-101285080D01*
X247335080Y-101210606D01*
X247387741Y-101119394D01*
X247415000Y-101017661D01*
X247415000Y-101011447D01*
X248094474Y-101690921D01*
X248126859Y-101646349D01*
X248219755Y-101464031D01*
X248282990Y-101269417D01*
X248315000Y-101067317D01*
X248315000Y-100862682D01*
X248282990Y-100660582D01*
X248219755Y-100465968D01*
X248126859Y-100283650D01*
X248094474Y-100239077D01*
X248094474Y-100239076D01*
X247415000Y-100918551D01*
X247415000Y-100912339D01*
X247387741Y-100810606D01*
X247335080Y-100719394D01*
X247260606Y-100644920D01*
X247169394Y-100592259D01*
X247067661Y-100565000D01*
X247061446Y-100565000D01*
X247740922Y-99885524D01*
X247740921Y-99885523D01*
X247696359Y-99853147D01*
X247696350Y-99853141D01*
X247603369Y-99805765D01*
X247552573Y-99757790D01*
X247535778Y-99689969D01*
X247558315Y-99623835D01*
X247603370Y-99584795D01*
X247696610Y-99537287D01*
X247746144Y-99501298D01*
X247862213Y-99416971D01*
X247862215Y-99416968D01*
X247862219Y-99416966D01*
X248006966Y-99272219D01*
X248006968Y-99272215D01*
X248006971Y-99272213D01*
X248119167Y-99117786D01*
X248127287Y-99106610D01*
X248220220Y-98924219D01*
X248283477Y-98729534D01*
X248315500Y-98527352D01*
X248315500Y-98322648D01*
X248283477Y-98120466D01*
X248220220Y-97925781D01*
X248220218Y-97925778D01*
X248220218Y-97925776D01*
X248186503Y-97859607D01*
X248127287Y-97743390D01*
X248117220Y-97729534D01*
X248006971Y-97577786D01*
X247862213Y-97433028D01*
X247696613Y-97312715D01*
X247696612Y-97312714D01*
X247696610Y-97312713D01*
X247639653Y-97283691D01*
X247514223Y-97219781D01*
X247319534Y-97156522D01*
X247144995Y-97128878D01*
X247117352Y-97124500D01*
X246912648Y-97124500D01*
X246888329Y-97128351D01*
X246710465Y-97156522D01*
X246515776Y-97219781D01*
X246333386Y-97312715D01*
X246167786Y-97433028D01*
X246023028Y-97577786D01*
X245902715Y-97743386D01*
X245809781Y-97925776D01*
X245746522Y-98120465D01*
X245714500Y-98322648D01*
X245714500Y-98527351D01*
X245746522Y-98729534D01*
X245809781Y-98924223D01*
X245902715Y-99106613D01*
X246023028Y-99272213D01*
X246167786Y-99416971D01*
X246333385Y-99537284D01*
X246333387Y-99537285D01*
X246333390Y-99537287D01*
X246426630Y-99584795D01*
X246477426Y-99632770D01*
X246494221Y-99700591D01*
X246471684Y-99766725D01*
X246426630Y-99805765D01*
X246333644Y-99853143D01*
X246289077Y-99885523D01*
X246289077Y-99885524D01*
X246968554Y-100565000D01*
X246962339Y-100565000D01*
X246860606Y-100592259D01*
X246769394Y-100644920D01*
X246694920Y-100719394D01*
X246642259Y-100810606D01*
X246615000Y-100912339D01*
X246615000Y-100918553D01*
X245935524Y-100239077D01*
X245935523Y-100239077D01*
X245903143Y-100283644D01*
X245810244Y-100465968D01*
X245747009Y-100660582D01*
X245715000Y-100862682D01*
X245715000Y-101067317D01*
X245747009Y-101269417D01*
X245810244Y-101464031D01*
X245903141Y-101646350D01*
X245903147Y-101646359D01*
X245935523Y-101690921D01*
X245935524Y-101690922D01*
X246615000Y-101011446D01*
X246615000Y-101017661D01*
X246642259Y-101119394D01*
X246694920Y-101210606D01*
X246769394Y-101285080D01*
X246860606Y-101337741D01*
X246962339Y-101365000D01*
X246968553Y-101365000D01*
X246289076Y-102044474D01*
X246333652Y-102076861D01*
X246426628Y-102124234D01*
X246477425Y-102172208D01*
X246494220Y-102240029D01*
X246471683Y-102306164D01*
X246426630Y-102345203D01*
X246333388Y-102392713D01*
X246167786Y-102513028D01*
X246023028Y-102657786D01*
X245902715Y-102823386D01*
X245809781Y-103005776D01*
X245746522Y-103200465D01*
X245714500Y-103402648D01*
X245714500Y-103607351D01*
X245746522Y-103809534D01*
X245809781Y-104004223D01*
X245902715Y-104186613D01*
X246023028Y-104352213D01*
X246167786Y-104496971D01*
X246322749Y-104609556D01*
X246333390Y-104617287D01*
X246417266Y-104660024D01*
X246426080Y-104664515D01*
X246476876Y-104712490D01*
X246493671Y-104780311D01*
X246471134Y-104846446D01*
X246426080Y-104885485D01*
X246333386Y-104932715D01*
X246167786Y-105053028D01*
X246023028Y-105197786D01*
X245902715Y-105363386D01*
X245809781Y-105545776D01*
X245746522Y-105740465D01*
X245714500Y-105942648D01*
X245714500Y-106147351D01*
X245746522Y-106349534D01*
X245809781Y-106544223D01*
X245902715Y-106726613D01*
X246023028Y-106892213D01*
X246167786Y-107036971D01*
X246322749Y-107149556D01*
X246333390Y-107157287D01*
X246424840Y-107203883D01*
X246426080Y-107204515D01*
X246476876Y-107252490D01*
X246493671Y-107320311D01*
X246471134Y-107386446D01*
X246426080Y-107425485D01*
X246333386Y-107472715D01*
X246167786Y-107593028D01*
X246023028Y-107737786D01*
X245902715Y-107903386D01*
X245809779Y-108085781D01*
X245804215Y-108102905D01*
X245764775Y-108160579D01*
X245700416Y-108187774D01*
X245631570Y-108175857D01*
X245598605Y-108152263D01*
X242505810Y-105059468D01*
X242472325Y-104998145D01*
X242477309Y-104928453D01*
X242500882Y-104889327D01*
X242589251Y-104790088D01*
X242650785Y-104660030D01*
X242670964Y-104594591D01*
X242671322Y-104593475D01*
X242671374Y-104593263D01*
X242671375Y-104593260D01*
X242693774Y-104451133D01*
X242818613Y-95213005D01*
X242807822Y-95102064D01*
X242796628Y-95048878D01*
X242761784Y-94942996D01*
X242749746Y-94924264D01*
X242684000Y-94821962D01*
X242683991Y-94821951D01*
X242638247Y-94769159D01*
X242638243Y-94769156D01*
X242638241Y-94769153D01*
X242529507Y-94674933D01*
X242529504Y-94674931D01*
X242529502Y-94674930D01*
X242398636Y-94615164D01*
X242398631Y-94615162D01*
X242398630Y-94615162D01*
X242331591Y-94595477D01*
X242331593Y-94595477D01*
X242331588Y-94595476D01*
X242284115Y-94588650D01*
X242189171Y-94575000D01*
X242189169Y-94575000D01*
X238087933Y-94575000D01*
X238068535Y-94573473D01*
X237995309Y-94561875D01*
X237976388Y-94557333D01*
X237905874Y-94534421D01*
X237887898Y-94526975D01*
X237821850Y-94493322D01*
X237805259Y-94483155D01*
X237745269Y-94439569D01*
X237730474Y-94426932D01*
X237384795Y-94081253D01*
X237351310Y-94019930D01*
X237356294Y-93950238D01*
X237398166Y-93894305D01*
X237416182Y-93883087D01*
X237536346Y-93821861D01*
X237536347Y-93821861D01*
X237580921Y-93789474D01*
X236901447Y-93110000D01*
X236907661Y-93110000D01*
X237009394Y-93082741D01*
X237100606Y-93030080D01*
X237175080Y-92955606D01*
X237227741Y-92864394D01*
X237255000Y-92762661D01*
X237255000Y-92756447D01*
X237934474Y-93435921D01*
X237966861Y-93391347D01*
X237966861Y-93391346D01*
X238029396Y-93268613D01*
X238077370Y-93217817D01*
X238145190Y-93201021D01*
X238211326Y-93223558D01*
X238222739Y-93232654D01*
X238226238Y-93235797D01*
X238227342Y-93236788D01*
X238242620Y-93249100D01*
X238247985Y-93253423D01*
X238269050Y-93268613D01*
X238291868Y-93285067D01*
X238422745Y-93344838D01*
X238489784Y-93364523D01*
X238489788Y-93364524D01*
X238632204Y-93385000D01*
X238632207Y-93385000D01*
X242222264Y-93385000D01*
X242222265Y-93385000D01*
X242326377Y-93374162D01*
X242376360Y-93363642D01*
X242376374Y-93363637D01*
X242376380Y-93363636D01*
X242476005Y-93331596D01*
X242476007Y-93331594D01*
X242476009Y-93331594D01*
X242598088Y-93255449D01*
X242651505Y-93210412D01*
X242747185Y-93102961D01*
X242808719Y-92972903D01*
X242828898Y-92907464D01*
X242829256Y-92906348D01*
X242829308Y-92906136D01*
X242829309Y-92906133D01*
X242851708Y-92764006D01*
X243026516Y-79828209D01*
X245219500Y-79828209D01*
X245219500Y-80191790D01*
X245255137Y-80553630D01*
X245326064Y-80910212D01*
X245326067Y-80910223D01*
X245431614Y-81258165D01*
X245570754Y-81594078D01*
X245570756Y-81594083D01*
X245742140Y-81914720D01*
X245742151Y-81914738D01*
X245944140Y-82217035D01*
X245944150Y-82217049D01*
X246174807Y-82498106D01*
X246431893Y-82755192D01*
X246431898Y-82755196D01*
X246431899Y-82755197D01*
X246712956Y-82985854D01*
X247015268Y-83187853D01*
X247015277Y-83187858D01*
X247015279Y-83187859D01*
X247335916Y-83359243D01*
X247335918Y-83359243D01*
X247335924Y-83359247D01*
X247671836Y-83498386D01*
X248019767Y-83603930D01*
X248019773Y-83603931D01*
X248019776Y-83603932D01*
X248019787Y-83603935D01*
X248376369Y-83674862D01*
X248738206Y-83710500D01*
X248738209Y-83710500D01*
X249101791Y-83710500D01*
X249101794Y-83710500D01*
X249463631Y-83674862D01*
X249533045Y-83661054D01*
X249820212Y-83603935D01*
X249820223Y-83603932D01*
X249820223Y-83603931D01*
X249820233Y-83603930D01*
X250168164Y-83498386D01*
X250504076Y-83359247D01*
X250824732Y-83187853D01*
X251127044Y-82985854D01*
X251408101Y-82755197D01*
X251665197Y-82498101D01*
X251895854Y-82217044D01*
X252097853Y-81914732D01*
X252269247Y-81594076D01*
X252408386Y-81258164D01*
X252513930Y-80910233D01*
X252513932Y-80910223D01*
X252513935Y-80910212D01*
X252584862Y-80553630D01*
X252620500Y-80191794D01*
X252620500Y-79828206D01*
X252584862Y-79466369D01*
X252513935Y-79109787D01*
X252513932Y-79109776D01*
X252513931Y-79109773D01*
X252513930Y-79109767D01*
X252408386Y-78761836D01*
X252269247Y-78425924D01*
X252268763Y-78425019D01*
X252097859Y-78105279D01*
X252097858Y-78105277D01*
X252097853Y-78105268D01*
X251895854Y-77802956D01*
X251665197Y-77521899D01*
X251665196Y-77521898D01*
X251665192Y-77521893D01*
X251408106Y-77264807D01*
X251127049Y-77034150D01*
X251127048Y-77034149D01*
X251127044Y-77034146D01*
X250824732Y-76832147D01*
X250824727Y-76832144D01*
X250824720Y-76832140D01*
X250504083Y-76660756D01*
X250504078Y-76660754D01*
X250168165Y-76521614D01*
X249820223Y-76416067D01*
X249820212Y-76416064D01*
X249463630Y-76345137D01*
X249191111Y-76318296D01*
X249101794Y-76309500D01*
X248738206Y-76309500D01*
X248655679Y-76317628D01*
X248376369Y-76345137D01*
X248019787Y-76416064D01*
X248019776Y-76416067D01*
X247671834Y-76521614D01*
X247335921Y-76660754D01*
X247335916Y-76660756D01*
X247015279Y-76832140D01*
X247015261Y-76832151D01*
X246712964Y-77034140D01*
X246712950Y-77034150D01*
X246431893Y-77264807D01*
X246174807Y-77521893D01*
X245944150Y-77802950D01*
X245944140Y-77802964D01*
X245742151Y-78105261D01*
X245742140Y-78105279D01*
X245570756Y-78425916D01*
X245570754Y-78425921D01*
X245431614Y-78761834D01*
X245326067Y-79109776D01*
X245326064Y-79109787D01*
X245255137Y-79466369D01*
X245219500Y-79828209D01*
X243026516Y-79828209D01*
X243034318Y-79250870D01*
X243034308Y-79236547D01*
X243034204Y-79229532D01*
X243033791Y-79215260D01*
X243023982Y-78987663D01*
X243019636Y-78886809D01*
X243017595Y-78858249D01*
X243016845Y-78850759D01*
X243016202Y-78844321D01*
X243012552Y-78815947D01*
X242961940Y-78494634D01*
X242956688Y-78466498D01*
X242953725Y-78452789D01*
X242946901Y-78425039D01*
X242860333Y-78111516D01*
X242851947Y-78084183D01*
X242851945Y-78084179D01*
X242851938Y-78084154D01*
X242847466Y-78070926D01*
X242847463Y-78070919D01*
X242847456Y-78070897D01*
X242837532Y-78044067D01*
X242834179Y-78035735D01*
X242716103Y-77742297D01*
X242704689Y-77716096D01*
X242702455Y-77711340D01*
X242698719Y-77703387D01*
X242685838Y-77677870D01*
X242531117Y-77391757D01*
X242516812Y-77367002D01*
X242509455Y-77355064D01*
X242493764Y-77331146D01*
X242307720Y-77064328D01*
X242290696Y-77041329D01*
X242282041Y-77030303D01*
X242271662Y-77017824D01*
X242263765Y-77008329D01*
X242048766Y-76764212D01*
X242029313Y-76743344D01*
X242029311Y-76743342D01*
X242029298Y-76743328D01*
X242024668Y-76738635D01*
X242019462Y-76733356D01*
X241998778Y-76713544D01*
X241757614Y-76495290D01*
X241735852Y-76476689D01*
X241735850Y-76476687D01*
X241724947Y-76467889D01*
X241717734Y-76462398D01*
X241702210Y-76450579D01*
X241437944Y-76260956D01*
X241437942Y-76260955D01*
X241437930Y-76260946D01*
X241414227Y-76244934D01*
X241414224Y-76244932D01*
X241414215Y-76244926D01*
X241402386Y-76237414D01*
X241377830Y-76222777D01*
X241093828Y-76064201D01*
X241068487Y-76050976D01*
X241055877Y-76044843D01*
X241029822Y-76033070D01*
X240798589Y-75936374D01*
X240729714Y-75907572D01*
X240703019Y-75897287D01*
X240689813Y-75892623D01*
X240662608Y-75883873D01*
X240662611Y-75883873D01*
X240662599Y-75883870D01*
X240350248Y-75793066D01*
X240350249Y-75793066D01*
X240350231Y-75793061D01*
X240322585Y-75785864D01*
X240310710Y-75783130D01*
X240308906Y-75782715D01*
X240308808Y-75782695D01*
X240280859Y-75777086D01*
X239960251Y-75722136D01*
X239931988Y-75718111D01*
X239931978Y-75718109D01*
X239931972Y-75718109D01*
X239928410Y-75717704D01*
X239918064Y-75716527D01*
X239899586Y-75714955D01*
X239889547Y-75714101D01*
X239572917Y-75696166D01*
X239572881Y-75696164D01*
X239572870Y-75696163D01*
X239572868Y-75696162D01*
X239561229Y-75695504D01*
X239546986Y-75694900D01*
X239539950Y-75694701D01*
X239535055Y-75694632D01*
X239525669Y-75694500D01*
X69043481Y-75694500D01*
X69038166Y-75694574D01*
X69029288Y-75694699D01*
X69022329Y-75694894D01*
X69008227Y-75695487D01*
X68724036Y-75711446D01*
X68682705Y-75713768D01*
X68682701Y-75713768D01*
X68682689Y-75713769D01*
X68654474Y-75716148D01*
X68640653Y-75717705D01*
X68612592Y-75721667D01*
X68612586Y-75721667D01*
X68612579Y-75721669D01*
X68364014Y-75763901D01*
X68294607Y-75775694D01*
X68266828Y-75781219D01*
X68253263Y-75784316D01*
X68225814Y-75791397D01*
X67915900Y-75880682D01*
X67888852Y-75889304D01*
X67875721Y-75893900D01*
X67849283Y-75903993D01*
X67551340Y-76027403D01*
X67525455Y-76038985D01*
X67512974Y-76044995D01*
X67487732Y-76058034D01*
X67205457Y-76214044D01*
X67181032Y-76228453D01*
X67169259Y-76235851D01*
X67145692Y-76251598D01*
X66882690Y-76438209D01*
X66860053Y-76455243D01*
X66849209Y-76463890D01*
X66827525Y-76482200D01*
X66587022Y-76697127D01*
X66566384Y-76716640D01*
X66556600Y-76726424D01*
X66550039Y-76733365D01*
X66537119Y-76747032D01*
X66537114Y-76747038D01*
X66322200Y-76987525D01*
X66303890Y-77009209D01*
X66295243Y-77020053D01*
X66278209Y-77042690D01*
X66091598Y-77305692D01*
X66075851Y-77329259D01*
X66068470Y-77341006D01*
X66054033Y-77365477D01*
X66048439Y-77375601D01*
X66048436Y-77375606D01*
X65898034Y-77647732D01*
X65884995Y-77672974D01*
X65878985Y-77685455D01*
X65867403Y-77711340D01*
X65743993Y-78009283D01*
X65733900Y-78035721D01*
X65729301Y-78048862D01*
X65720679Y-78075910D01*
X65676495Y-78229268D01*
X65676496Y-78229268D01*
X65676349Y-78229782D01*
X65674834Y-78235042D01*
X65674833Y-78235044D01*
X65631399Y-78385807D01*
X65627547Y-78400741D01*
X65627167Y-78402209D01*
X65627162Y-78402231D01*
X65624326Y-78413226D01*
X65621228Y-78426791D01*
X65615688Y-78454641D01*
X65561668Y-78772586D01*
X65557705Y-78800653D01*
X65556148Y-78814474D01*
X65553769Y-78842689D01*
X65535487Y-79168226D01*
X65534894Y-79182328D01*
X65534699Y-79189287D01*
X65534500Y-79203491D01*
X65534500Y-90167597D01*
X65514815Y-90234636D01*
X65462011Y-90280391D01*
X65392853Y-90290335D01*
X65354206Y-90278082D01*
X65269226Y-90234782D01*
X65074534Y-90171522D01*
X64899995Y-90143878D01*
X64872352Y-90139500D01*
X64667648Y-90139500D01*
X64643329Y-90143351D01*
X64465465Y-90171522D01*
X64270776Y-90234781D01*
X64088386Y-90327715D01*
X63922786Y-90448028D01*
X63778028Y-90592786D01*
X63657715Y-90758386D01*
X63564781Y-90940776D01*
X63501522Y-91135465D01*
X63469500Y-91337648D01*
X63469500Y-91542351D01*
X63501522Y-91744534D01*
X63564781Y-91939223D01*
X63611065Y-92030058D01*
X63649249Y-92104999D01*
X63657715Y-92121613D01*
X63778028Y-92287213D01*
X63922786Y-92431971D01*
X64005499Y-92492064D01*
X64088390Y-92552287D01*
X64185796Y-92601918D01*
X64270776Y-92645218D01*
X64270778Y-92645218D01*
X64270781Y-92645220D01*
X64334646Y-92665971D01*
X64465465Y-92708477D01*
X64566557Y-92724488D01*
X64667648Y-92740500D01*
X64667649Y-92740500D01*
X64872351Y-92740500D01*
X64872352Y-92740500D01*
X65074534Y-92708477D01*
X65269219Y-92645220D01*
X65269224Y-92645217D01*
X65269228Y-92645216D01*
X65354205Y-92601918D01*
X65422874Y-92589021D01*
X65487614Y-92615297D01*
X65527872Y-92672403D01*
X65534500Y-92712402D01*
X65534500Y-109398795D01*
X65514815Y-109465834D01*
X65462011Y-109511589D01*
X65392853Y-109521533D01*
X65329297Y-109492508D01*
X65322819Y-109486476D01*
X65121931Y-109285589D01*
X65121928Y-109285586D01*
X64981788Y-109183768D01*
X64827445Y-109105127D01*
X64662701Y-109051598D01*
X64662699Y-109051597D01*
X64662698Y-109051597D01*
X64531271Y-109030781D01*
X64491611Y-109024500D01*
X64491610Y-109024500D01*
X61789512Y-109024500D01*
X61776507Y-109021377D01*
X61766624Y-109022369D01*
X61733221Y-109010986D01*
X61643917Y-108965483D01*
X61593123Y-108917510D01*
X61576328Y-108849689D01*
X61598866Y-108783554D01*
X61643917Y-108744516D01*
X61736610Y-108697287D01*
X61757770Y-108681913D01*
X61902213Y-108576971D01*
X61902215Y-108576968D01*
X61902219Y-108576966D01*
X62046966Y-108432219D01*
X62046968Y-108432215D01*
X62046971Y-108432213D01*
X62144855Y-108297485D01*
X62167287Y-108266610D01*
X62260220Y-108084219D01*
X62323477Y-107889534D01*
X62355500Y-107687352D01*
X62355500Y-107482648D01*
X62323477Y-107280466D01*
X62313649Y-107250220D01*
X62260218Y-107085776D01*
X62226503Y-107019607D01*
X62167287Y-106903390D01*
X62159167Y-106892213D01*
X62046971Y-106737786D01*
X61902213Y-106593028D01*
X61736614Y-106472715D01*
X61730006Y-106469348D01*
X61643917Y-106425483D01*
X61593123Y-106377511D01*
X61576328Y-106309690D01*
X61598865Y-106243555D01*
X61643917Y-106204516D01*
X61736610Y-106157287D01*
X61757770Y-106141913D01*
X61902213Y-106036971D01*
X61902215Y-106036968D01*
X61902219Y-106036966D01*
X62046966Y-105892219D01*
X62046968Y-105892215D01*
X62046971Y-105892213D01*
X62099732Y-105819590D01*
X62167287Y-105726610D01*
X62260220Y-105544219D01*
X62323477Y-105349534D01*
X62355500Y-105147352D01*
X62355500Y-104942648D01*
X62331337Y-104790090D01*
X62323477Y-104740465D01*
X62260218Y-104545776D01*
X62211994Y-104451133D01*
X62167287Y-104363390D01*
X62159167Y-104352213D01*
X62046971Y-104197786D01*
X61902213Y-104053028D01*
X61736614Y-103932715D01*
X61730006Y-103929348D01*
X61643917Y-103885483D01*
X61593123Y-103837511D01*
X61576328Y-103769690D01*
X61598865Y-103703555D01*
X61643917Y-103664516D01*
X61736610Y-103617287D01*
X61757770Y-103601913D01*
X61902213Y-103496971D01*
X61902215Y-103496968D01*
X61902219Y-103496966D01*
X62046966Y-103352219D01*
X62046968Y-103352215D01*
X62046971Y-103352213D01*
X62099732Y-103279590D01*
X62167287Y-103186610D01*
X62260220Y-103004219D01*
X62323477Y-102809534D01*
X62355500Y-102607352D01*
X62355500Y-102402648D01*
X62353926Y-102392713D01*
X62323477Y-102200465D01*
X62260218Y-102005776D01*
X62226503Y-101939607D01*
X62167287Y-101823390D01*
X62159556Y-101812749D01*
X62046971Y-101657786D01*
X61902213Y-101513028D01*
X61736614Y-101392715D01*
X61682220Y-101365000D01*
X61643917Y-101345483D01*
X61593123Y-101297511D01*
X61576328Y-101229690D01*
X61598865Y-101163555D01*
X61643917Y-101124516D01*
X61736610Y-101077287D01*
X61891160Y-100965001D01*
X61902213Y-100956971D01*
X61902215Y-100956968D01*
X61902219Y-100956966D01*
X62046966Y-100812219D01*
X62046968Y-100812215D01*
X62046971Y-100812213D01*
X62114407Y-100719394D01*
X62167287Y-100646610D01*
X62260220Y-100464219D01*
X62323477Y-100269534D01*
X62355500Y-100067352D01*
X62355500Y-99862648D01*
X62353994Y-99853141D01*
X62323477Y-99660465D01*
X62260218Y-99465776D01*
X62226503Y-99399607D01*
X62167287Y-99283390D01*
X62159167Y-99272213D01*
X62046971Y-99117786D01*
X61902213Y-98973028D01*
X61736614Y-98852715D01*
X61730006Y-98849348D01*
X61643917Y-98805483D01*
X61593123Y-98757511D01*
X61576328Y-98689690D01*
X61598865Y-98623555D01*
X61643917Y-98584516D01*
X61736610Y-98537287D01*
X61757770Y-98521913D01*
X61902213Y-98416971D01*
X61902215Y-98416968D01*
X61902219Y-98416966D01*
X62046966Y-98272219D01*
X62046968Y-98272215D01*
X62046971Y-98272213D01*
X62099732Y-98199590D01*
X62167287Y-98106610D01*
X62260220Y-97924219D01*
X62323477Y-97729534D01*
X62355500Y-97527352D01*
X62355500Y-97322648D01*
X62323477Y-97120466D01*
X62260220Y-96925781D01*
X62260218Y-96925778D01*
X62260218Y-96925776D01*
X62226503Y-96859607D01*
X62167287Y-96743390D01*
X62159556Y-96732749D01*
X62046971Y-96577786D01*
X61902213Y-96433028D01*
X61736613Y-96312715D01*
X61736612Y-96312714D01*
X61736610Y-96312713D01*
X61673860Y-96280740D01*
X61554223Y-96219781D01*
X61359534Y-96156522D01*
X61184995Y-96128878D01*
X61157352Y-96124500D01*
X60952648Y-96124500D01*
X60928329Y-96128351D01*
X60750465Y-96156522D01*
X60555776Y-96219781D01*
X60373386Y-96312715D01*
X60207786Y-96433028D01*
X60063028Y-96577786D01*
X59942715Y-96743386D01*
X59849781Y-96925776D01*
X59786522Y-97120465D01*
X59754500Y-97322648D01*
X54735500Y-97322648D01*
X54703477Y-97120466D01*
X54640220Y-96925781D01*
X54640218Y-96925778D01*
X54640218Y-96925776D01*
X54606503Y-96859607D01*
X54547287Y-96743390D01*
X54539556Y-96732749D01*
X54426971Y-96577786D01*
X54282213Y-96433028D01*
X54116613Y-96312715D01*
X54116612Y-96312714D01*
X54116610Y-96312713D01*
X54053860Y-96280740D01*
X53934223Y-96219781D01*
X53739534Y-96156522D01*
X53564995Y-96128878D01*
X53537352Y-96124500D01*
X53332648Y-96124500D01*
X53308329Y-96128351D01*
X53130465Y-96156522D01*
X52935776Y-96219781D01*
X52753386Y-96312715D01*
X52587786Y-96433028D01*
X52443028Y-96577786D01*
X52322715Y-96743386D01*
X52229781Y-96925776D01*
X52166522Y-97120465D01*
X52134500Y-97322648D01*
X49793113Y-97322648D01*
X49723332Y-90205013D01*
X54894888Y-90205013D01*
X54894888Y-90555000D01*
X55879202Y-90555000D01*
X55874808Y-90559394D01*
X55822147Y-90650606D01*
X55794888Y-90752339D01*
X55794888Y-90857661D01*
X55822147Y-90959394D01*
X55874808Y-91050606D01*
X55879202Y-91055000D01*
X54894889Y-91055000D01*
X54894889Y-91404986D01*
X54905382Y-91507697D01*
X54960529Y-91674119D01*
X54960531Y-91674124D01*
X55052572Y-91823345D01*
X55176542Y-91947315D01*
X55325763Y-92039356D01*
X55325768Y-92039358D01*
X55492190Y-92094505D01*
X55492197Y-92094506D01*
X55594907Y-92104999D01*
X55944887Y-92104999D01*
X55944888Y-92104998D01*
X55944888Y-91120686D01*
X55949282Y-91125080D01*
X56040494Y-91177741D01*
X56142227Y-91205000D01*
X56247549Y-91205000D01*
X56349282Y-91177741D01*
X56440494Y-91125080D01*
X56444888Y-91120686D01*
X56444888Y-92104999D01*
X56794860Y-92104999D01*
X56794874Y-92104998D01*
X56897585Y-92094505D01*
X57064007Y-92039358D01*
X57064012Y-92039356D01*
X57213233Y-91947315D01*
X57282000Y-91878549D01*
X57343323Y-91845064D01*
X57413015Y-91850048D01*
X57442562Y-91865909D01*
X57513278Y-91917287D01*
X57547206Y-91934574D01*
X57695664Y-92010218D01*
X57695666Y-92010218D01*
X57695669Y-92010220D01*
X57785347Y-92039358D01*
X57890353Y-92073477D01*
X57991445Y-92089488D01*
X58092536Y-92105500D01*
X58092537Y-92105500D01*
X58297239Y-92105500D01*
X58297240Y-92105500D01*
X58499422Y-92073477D01*
X58694107Y-92010220D01*
X58876498Y-91917287D01*
X58975905Y-91845064D01*
X59042101Y-91796971D01*
X59042103Y-91796968D01*
X59042107Y-91796966D01*
X59186854Y-91652219D01*
X59186856Y-91652215D01*
X59186859Y-91652213D01*
X59266677Y-91542351D01*
X59307175Y-91486610D01*
X59400108Y-91304219D01*
X59463365Y-91109534D01*
X59495388Y-90907352D01*
X59495388Y-90702648D01*
X59477987Y-90592786D01*
X59463365Y-90500465D01*
X59426801Y-90387935D01*
X59400108Y-90305781D01*
X59400106Y-90305778D01*
X59400106Y-90305776D01*
X59348764Y-90205013D01*
X59307175Y-90123390D01*
X59291854Y-90102302D01*
X59186859Y-89957786D01*
X59042101Y-89813028D01*
X58876501Y-89692715D01*
X58876500Y-89692714D01*
X58876498Y-89692713D01*
X58817563Y-89662684D01*
X58694111Y-89599781D01*
X58499422Y-89536522D01*
X58324883Y-89508878D01*
X58297240Y-89504500D01*
X58092536Y-89504500D01*
X58068217Y-89508351D01*
X57890353Y-89536522D01*
X57695664Y-89599781D01*
X57513279Y-89692712D01*
X57513277Y-89692713D01*
X57442564Y-89744088D01*
X57376757Y-89767567D01*
X57308703Y-89751740D01*
X57281999Y-89731450D01*
X57213233Y-89662684D01*
X57064012Y-89570643D01*
X57064007Y-89570641D01*
X56897585Y-89515494D01*
X56897578Y-89515493D01*
X56794874Y-89505000D01*
X56444888Y-89505000D01*
X56444888Y-90489314D01*
X56440494Y-90484920D01*
X56349282Y-90432259D01*
X56247549Y-90405000D01*
X56142227Y-90405000D01*
X56040494Y-90432259D01*
X55949282Y-90484920D01*
X55944888Y-90489314D01*
X55944888Y-89505000D01*
X55594916Y-89505000D01*
X55594900Y-89505001D01*
X55492190Y-89515494D01*
X55325768Y-89570641D01*
X55325763Y-89570643D01*
X55176542Y-89662684D01*
X55052572Y-89786654D01*
X54960531Y-89935875D01*
X54960529Y-89935880D01*
X54905382Y-90102302D01*
X54905381Y-90102309D01*
X54894888Y-90205013D01*
X49723332Y-90205013D01*
X49609148Y-78558209D01*
X51544500Y-78558209D01*
X51544500Y-78921790D01*
X51580137Y-79283630D01*
X51651064Y-79640212D01*
X51651067Y-79640223D01*
X51756614Y-79988165D01*
X51895754Y-80324078D01*
X51895756Y-80324083D01*
X52067140Y-80644720D01*
X52067151Y-80644738D01*
X52269140Y-80947035D01*
X52269150Y-80947049D01*
X52499807Y-81228106D01*
X52756893Y-81485192D01*
X52756898Y-81485196D01*
X52756899Y-81485197D01*
X53037956Y-81715854D01*
X53340268Y-81917853D01*
X53340277Y-81917858D01*
X53340279Y-81917859D01*
X53660916Y-82089243D01*
X53660918Y-82089243D01*
X53660924Y-82089247D01*
X53996836Y-82228386D01*
X54344767Y-82333930D01*
X54344773Y-82333931D01*
X54344776Y-82333932D01*
X54344787Y-82333935D01*
X54701369Y-82404862D01*
X55063206Y-82440500D01*
X55063209Y-82440500D01*
X55426791Y-82440500D01*
X55426794Y-82440500D01*
X55788631Y-82404862D01*
X55876605Y-82387363D01*
X56145212Y-82333935D01*
X56145223Y-82333932D01*
X56145223Y-82333931D01*
X56145233Y-82333930D01*
X56493164Y-82228386D01*
X56829076Y-82089247D01*
X57149732Y-81917853D01*
X57452044Y-81715854D01*
X57733101Y-81485197D01*
X57990197Y-81228101D01*
X58220854Y-80947044D01*
X58422853Y-80644732D01*
X58594247Y-80324076D01*
X58733386Y-79988164D01*
X58838930Y-79640233D01*
X58838932Y-79640223D01*
X58838935Y-79640212D01*
X58909862Y-79283630D01*
X58915190Y-79229532D01*
X58945500Y-78921794D01*
X58945500Y-78558206D01*
X58909862Y-78196369D01*
X58887547Y-78084183D01*
X58838935Y-77839787D01*
X58838932Y-77839776D01*
X58838931Y-77839773D01*
X58838930Y-77839767D01*
X58733386Y-77491836D01*
X58594247Y-77155924D01*
X58529155Y-77034146D01*
X58422859Y-76835279D01*
X58422858Y-76835277D01*
X58422853Y-76835268D01*
X58220854Y-76532956D01*
X57990197Y-76251899D01*
X57990196Y-76251898D01*
X57990192Y-76251893D01*
X57733106Y-75994807D01*
X57452049Y-75764150D01*
X57452048Y-75764149D01*
X57452044Y-75764146D01*
X57149732Y-75562147D01*
X57149727Y-75562144D01*
X57149720Y-75562140D01*
X56829083Y-75390756D01*
X56829078Y-75390754D01*
X56493165Y-75251614D01*
X56145223Y-75146067D01*
X56145212Y-75146064D01*
X55788630Y-75075137D01*
X55516111Y-75048296D01*
X55426794Y-75039500D01*
X55063206Y-75039500D01*
X54980679Y-75047628D01*
X54701369Y-75075137D01*
X54344787Y-75146064D01*
X54344776Y-75146067D01*
X53996834Y-75251614D01*
X53660921Y-75390754D01*
X53660916Y-75390756D01*
X53340279Y-75562140D01*
X53340261Y-75562151D01*
X53037964Y-75764140D01*
X53037950Y-75764150D01*
X52756893Y-75994807D01*
X52499807Y-76251893D01*
X52269150Y-76532950D01*
X52269140Y-76532964D01*
X52067151Y-76835261D01*
X52067140Y-76835279D01*
X51895756Y-77155916D01*
X51895754Y-77155921D01*
X51756614Y-77491834D01*
X51651067Y-77839776D01*
X51651064Y-77839787D01*
X51580137Y-78196369D01*
X51544500Y-78558209D01*
X49609148Y-78558209D01*
X49553680Y-72900466D01*
X224160000Y-72900466D01*
X224160000Y-73149533D01*
X224192508Y-73396463D01*
X224256973Y-73637049D01*
X224352283Y-73867148D01*
X224352288Y-73867159D01*
X224476813Y-74082841D01*
X224476819Y-74082849D01*
X224551400Y-74180045D01*
X225344152Y-73387292D01*
X225351049Y-73403942D01*
X225438599Y-73534970D01*
X225550030Y-73646401D01*
X225681058Y-73733951D01*
X225697705Y-73740846D01*
X224904953Y-74533598D01*
X225002150Y-74608180D01*
X225002158Y-74608186D01*
X225217840Y-74732711D01*
X225217851Y-74732716D01*
X225447950Y-74828026D01*
X225688536Y-74892491D01*
X225935466Y-74925000D01*
X226184534Y-74925000D01*
X226431463Y-74892491D01*
X226672049Y-74828026D01*
X226902148Y-74732716D01*
X226902159Y-74732711D01*
X227117855Y-74608178D01*
X227215045Y-74533600D01*
X227215045Y-74533597D01*
X226422294Y-73740846D01*
X226438942Y-73733951D01*
X226569970Y-73646401D01*
X226681401Y-73534970D01*
X226768951Y-73403942D01*
X226775846Y-73387294D01*
X227568597Y-74180045D01*
X227568600Y-74180045D01*
X227643178Y-74082855D01*
X227767711Y-73867159D01*
X227767716Y-73867148D01*
X227863026Y-73637049D01*
X227927491Y-73396463D01*
X227960000Y-73149533D01*
X227960000Y-72900466D01*
X227927491Y-72653536D01*
X227863026Y-72412950D01*
X227767716Y-72182851D01*
X227767711Y-72182840D01*
X227643186Y-71967158D01*
X227643180Y-71967150D01*
X227568598Y-71869953D01*
X226775846Y-72662705D01*
X226768951Y-72646058D01*
X226681401Y-72515030D01*
X226569970Y-72403599D01*
X226438942Y-72316049D01*
X226422292Y-72309152D01*
X227215045Y-71516400D01*
X227117849Y-71441819D01*
X227117841Y-71441813D01*
X226902159Y-71317288D01*
X226902148Y-71317283D01*
X226672049Y-71221973D01*
X226431463Y-71157508D01*
X226184534Y-71125000D01*
X225935466Y-71125000D01*
X225688536Y-71157508D01*
X225447950Y-71221973D01*
X225217851Y-71317283D01*
X225217847Y-71317285D01*
X225002143Y-71441823D01*
X224904953Y-71516399D01*
X224904953Y-71516400D01*
X225697706Y-72309153D01*
X225681058Y-72316049D01*
X225550030Y-72403599D01*
X225438599Y-72515030D01*
X225351049Y-72646058D01*
X225344153Y-72662706D01*
X224551400Y-71869953D01*
X224551399Y-71869953D01*
X224476823Y-71967143D01*
X224352285Y-72182847D01*
X224352283Y-72182851D01*
X224256973Y-72412950D01*
X224192508Y-72653536D01*
X224160000Y-72900466D01*
X49553680Y-72900466D01*
X49542126Y-71721940D01*
X49547076Y-71704450D01*
X49547004Y-71686268D01*
X49560965Y-71655372D01*
X49561151Y-71654716D01*
X49561246Y-71654564D01*
X49571334Y-71638729D01*
X49577497Y-71629928D01*
X49809896Y-71327060D01*
X49816834Y-71318791D01*
X50074726Y-71037352D01*
X50082352Y-71029726D01*
X50363791Y-70771834D01*
X50372060Y-70764896D01*
X50674905Y-70532515D01*
X50683756Y-70526318D01*
X50718131Y-70504419D01*
X50718133Y-70504418D01*
X50784756Y-70485000D01*
X252745244Y-70485000D01*
X252811869Y-70504419D01*
G37*
%TD.AperFunction*%
%TD*%
%TA.AperFunction,Conductor*%
%TO.N,GNDPWR*%
G36*
X239532681Y-76200198D02*
G01*
X239544330Y-76200857D01*
X239860960Y-76218792D01*
X239874865Y-76220373D01*
X240195469Y-76275323D01*
X240209135Y-76278470D01*
X240521486Y-76369274D01*
X240534690Y-76373937D01*
X240822820Y-76494427D01*
X240834784Y-76499430D01*
X240847396Y-76505564D01*
X241131390Y-76664136D01*
X241143228Y-76671654D01*
X241392433Y-76850471D01*
X241407503Y-76861284D01*
X241418406Y-76870082D01*
X241659598Y-77088361D01*
X241669426Y-77098324D01*
X241884412Y-77342427D01*
X241893067Y-77353453D01*
X242079111Y-77620271D01*
X242086468Y-77632209D01*
X242241189Y-77918322D01*
X242247149Y-77931009D01*
X242368575Y-78232771D01*
X242373066Y-78246057D01*
X242412264Y-78388020D01*
X242454035Y-78539304D01*
X242459634Y-78559580D01*
X242462597Y-78573289D01*
X242513209Y-78894602D01*
X242514604Y-78908557D01*
X242528760Y-79237025D01*
X242528864Y-79244040D01*
X242346254Y-92757176D01*
X242325665Y-92823943D01*
X242272248Y-92868980D01*
X242222265Y-92879500D01*
X238632204Y-92879500D01*
X238565165Y-92859815D01*
X238544523Y-92843181D01*
X238152551Y-92451209D01*
X238122301Y-92401846D01*
X238085054Y-92287213D01*
X238060220Y-92210781D01*
X237967287Y-92028390D01*
X237927409Y-91973502D01*
X237846971Y-91862786D01*
X237702213Y-91718028D01*
X237536613Y-91597715D01*
X237536612Y-91597714D01*
X237536610Y-91597713D01*
X237476896Y-91567287D01*
X237354223Y-91504781D01*
X237159534Y-91441522D01*
X236984995Y-91413878D01*
X236957352Y-91409500D01*
X236752648Y-91409500D01*
X236728329Y-91413351D01*
X236550465Y-91441522D01*
X236355776Y-91504781D01*
X236173391Y-91597712D01*
X236173383Y-91597717D01*
X236103085Y-91648790D01*
X236037279Y-91672269D01*
X235969225Y-91656442D01*
X235942521Y-91636153D01*
X235908301Y-91601933D01*
X235873656Y-91567288D01*
X235798995Y-91521237D01*
X235724336Y-91475187D01*
X235724331Y-91475185D01*
X235722862Y-91474698D01*
X235557797Y-91420001D01*
X235557795Y-91420000D01*
X235455010Y-91409500D01*
X234254998Y-91409500D01*
X234254981Y-91409501D01*
X234152203Y-91420000D01*
X234152200Y-91420001D01*
X233985668Y-91475185D01*
X233985663Y-91475187D01*
X233836342Y-91567289D01*
X233712289Y-91691342D01*
X233620187Y-91840663D01*
X233620186Y-91840666D01*
X233565001Y-92007203D01*
X233565001Y-92007204D01*
X233565000Y-92007204D01*
X233554500Y-92109983D01*
X233554500Y-93310001D01*
X233554501Y-93310018D01*
X233565000Y-93412796D01*
X233565001Y-93412799D01*
X233620185Y-93579331D01*
X233620187Y-93579336D01*
X233647140Y-93623034D01*
X233712288Y-93728656D01*
X233836344Y-93852712D01*
X233985666Y-93944814D01*
X234152203Y-93999999D01*
X234254991Y-94010500D01*
X235455008Y-94010499D01*
X235557797Y-93999999D01*
X235724334Y-93944814D01*
X235873656Y-93852712D01*
X235942524Y-93783843D01*
X236003843Y-93750361D01*
X236073535Y-93755345D01*
X236103082Y-93771206D01*
X236173390Y-93822287D01*
X236355781Y-93915220D01*
X236514431Y-93966768D01*
X236546846Y-93977301D01*
X236596209Y-94007551D01*
X237408072Y-94819414D01*
X237548212Y-94921232D01*
X237614968Y-94955246D01*
X237702549Y-94999871D01*
X237702551Y-94999871D01*
X237702554Y-94999873D01*
X237867299Y-95053402D01*
X238038389Y-95080500D01*
X238038390Y-95080500D01*
X242189171Y-95080500D01*
X242256210Y-95100185D01*
X242301965Y-95152989D01*
X242313159Y-95206175D01*
X242252975Y-99659814D01*
X242188320Y-104444303D01*
X242167731Y-104511070D01*
X242114314Y-104556107D01*
X242045027Y-104565115D01*
X241981869Y-104535234D01*
X241976650Y-104530308D01*
X240692551Y-103246209D01*
X240662301Y-103196846D01*
X240651768Y-103164431D01*
X240600220Y-103005781D01*
X240507287Y-102823390D01*
X240499556Y-102812749D01*
X240386971Y-102657786D01*
X240242213Y-102513028D01*
X240076611Y-102392713D01*
X239983369Y-102345203D01*
X239932574Y-102297229D01*
X239915779Y-102229407D01*
X239938317Y-102163273D01*
X239983371Y-102124234D01*
X240076346Y-102076861D01*
X240076347Y-102076861D01*
X240120921Y-102044474D01*
X239441447Y-101365000D01*
X239447661Y-101365000D01*
X239549394Y-101337741D01*
X239640606Y-101285080D01*
X239715080Y-101210606D01*
X239767741Y-101119394D01*
X239795000Y-101017661D01*
X239795000Y-101011447D01*
X240474474Y-101690921D01*
X240506859Y-101646349D01*
X240599755Y-101464031D01*
X240662990Y-101269417D01*
X240695000Y-101067317D01*
X240695000Y-100862682D01*
X240662990Y-100660582D01*
X240599755Y-100465968D01*
X240506859Y-100283650D01*
X240474474Y-100239077D01*
X240474474Y-100239076D01*
X239795000Y-100918551D01*
X239795000Y-100912339D01*
X239767741Y-100810606D01*
X239715080Y-100719394D01*
X239640606Y-100644920D01*
X239549394Y-100592259D01*
X239447661Y-100565000D01*
X239441446Y-100565000D01*
X240120922Y-99885524D01*
X240119570Y-99868349D01*
X240105299Y-99849842D01*
X240099320Y-99780229D01*
X240131925Y-99718433D01*
X240181845Y-99687148D01*
X240264334Y-99659814D01*
X240413656Y-99567712D01*
X240537712Y-99443656D01*
X240629814Y-99294334D01*
X240684999Y-99127797D01*
X240695500Y-99025009D01*
X240695499Y-97824992D01*
X240689818Y-97769383D01*
X240684999Y-97722203D01*
X240684998Y-97722200D01*
X240681868Y-97712755D01*
X240629814Y-97555666D01*
X240537712Y-97406344D01*
X240413656Y-97282288D01*
X240264334Y-97190186D01*
X240097797Y-97135001D01*
X240097795Y-97135000D01*
X239995010Y-97124500D01*
X238794998Y-97124500D01*
X238794981Y-97124501D01*
X238692203Y-97135000D01*
X238692200Y-97135001D01*
X238525668Y-97190185D01*
X238525663Y-97190187D01*
X238376342Y-97282289D01*
X238252289Y-97406342D01*
X238160187Y-97555663D01*
X238160185Y-97555668D01*
X238132349Y-97639670D01*
X238105001Y-97722203D01*
X238105001Y-97722204D01*
X238105000Y-97722204D01*
X238094500Y-97824983D01*
X238094500Y-99025001D01*
X238094501Y-99025018D01*
X238105000Y-99127796D01*
X238105001Y-99127799D01*
X238160185Y-99294331D01*
X238160187Y-99294336D01*
X238187140Y-99338034D01*
X238252288Y-99443656D01*
X238376344Y-99567712D01*
X238525666Y-99659814D01*
X238608152Y-99687147D01*
X238665597Y-99726920D01*
X238692420Y-99791436D01*
X238680105Y-99860212D01*
X238670143Y-99871975D01*
X238669077Y-99885524D01*
X239348554Y-100565000D01*
X239342339Y-100565000D01*
X239240606Y-100592259D01*
X239149394Y-100644920D01*
X239074920Y-100719394D01*
X239022259Y-100810606D01*
X238995000Y-100912339D01*
X238995000Y-100918553D01*
X238315524Y-100239077D01*
X238315523Y-100239077D01*
X238283143Y-100283644D01*
X238190244Y-100465968D01*
X238127009Y-100660582D01*
X238095000Y-100862682D01*
X238095000Y-101067317D01*
X238127009Y-101269417D01*
X238190244Y-101464031D01*
X238283141Y-101646350D01*
X238283147Y-101646359D01*
X238315523Y-101690921D01*
X238315524Y-101690922D01*
X238995000Y-101011446D01*
X238995000Y-101017661D01*
X239022259Y-101119394D01*
X239074920Y-101210606D01*
X239149394Y-101285080D01*
X239240606Y-101337741D01*
X239342339Y-101365000D01*
X239348553Y-101365000D01*
X238669076Y-102044474D01*
X238713652Y-102076861D01*
X238806628Y-102124234D01*
X238857425Y-102172208D01*
X238874220Y-102240029D01*
X238851683Y-102306164D01*
X238806630Y-102345203D01*
X238713388Y-102392713D01*
X238547786Y-102513028D01*
X238403028Y-102657786D01*
X238282715Y-102823386D01*
X238189781Y-103005776D01*
X238126522Y-103200465D01*
X238094500Y-103402648D01*
X238094500Y-103607351D01*
X238126522Y-103809534D01*
X238189781Y-104004223D01*
X238282715Y-104186613D01*
X238403028Y-104352213D01*
X238547786Y-104496971D01*
X238702749Y-104609556D01*
X238713390Y-104617287D01*
X238804840Y-104663883D01*
X238806080Y-104664515D01*
X238856876Y-104712490D01*
X238873671Y-104780311D01*
X238851134Y-104846446D01*
X238806080Y-104885485D01*
X238713386Y-104932715D01*
X238547786Y-105053028D01*
X238403028Y-105197786D01*
X238282715Y-105363386D01*
X238189781Y-105545776D01*
X238126522Y-105740465D01*
X238094500Y-105942648D01*
X238094500Y-106147351D01*
X238126522Y-106349534D01*
X238189781Y-106544223D01*
X238282715Y-106726613D01*
X238403028Y-106892213D01*
X238547786Y-107036971D01*
X238702749Y-107149556D01*
X238713390Y-107157287D01*
X238804840Y-107203883D01*
X238806080Y-107204515D01*
X238856876Y-107252490D01*
X238873671Y-107320311D01*
X238851134Y-107386446D01*
X238806080Y-107425485D01*
X238713386Y-107472715D01*
X238547786Y-107593028D01*
X238403028Y-107737786D01*
X238282715Y-107903386D01*
X238189781Y-108085776D01*
X238126522Y-108280465D01*
X238094500Y-108482648D01*
X238094500Y-108687351D01*
X238126522Y-108889534D01*
X238189781Y-109084223D01*
X238220663Y-109144831D01*
X238279368Y-109260046D01*
X238282715Y-109266613D01*
X238403028Y-109432213D01*
X238547786Y-109576971D01*
X238702749Y-109689556D01*
X238713390Y-109697287D01*
X238798487Y-109740646D01*
X238806080Y-109744515D01*
X238856876Y-109792490D01*
X238873671Y-109860311D01*
X238851134Y-109926446D01*
X238806080Y-109965485D01*
X238713386Y-110012715D01*
X238547786Y-110133028D01*
X238403028Y-110277786D01*
X238282715Y-110443386D01*
X238189781Y-110625776D01*
X238126522Y-110820465D01*
X238094500Y-111022648D01*
X238094500Y-111227351D01*
X238126522Y-111429534D01*
X238189781Y-111624223D01*
X238246573Y-111735682D01*
X238282043Y-111805296D01*
X238282715Y-111806613D01*
X238403028Y-111972213D01*
X238547786Y-112116971D01*
X238692745Y-112222288D01*
X238713390Y-112237287D01*
X238775087Y-112268723D01*
X238806080Y-112284515D01*
X238856876Y-112332490D01*
X238873671Y-112400311D01*
X238851134Y-112466446D01*
X238806080Y-112505485D01*
X238713386Y-112552715D01*
X238547786Y-112673028D01*
X238403028Y-112817786D01*
X238282715Y-112983386D01*
X238189781Y-113165776D01*
X238126522Y-113360465D01*
X238094500Y-113562648D01*
X238094500Y-113767351D01*
X238126522Y-113969534D01*
X238189781Y-114164223D01*
X238282715Y-114346613D01*
X238403028Y-114512213D01*
X238547786Y-114656971D01*
X238702749Y-114769556D01*
X238713390Y-114777287D01*
X238825347Y-114834332D01*
X238895776Y-114870218D01*
X238895778Y-114870218D01*
X238895781Y-114870220D01*
X239000137Y-114904127D01*
X239090465Y-114933477D01*
X239191557Y-114949488D01*
X239292648Y-114965500D01*
X239292649Y-114965500D01*
X239497351Y-114965500D01*
X239497352Y-114965500D01*
X239699534Y-114933477D01*
X239894219Y-114870220D01*
X240076610Y-114777287D01*
X240172459Y-114707649D01*
X240242213Y-114656971D01*
X240242215Y-114656968D01*
X240242219Y-114656966D01*
X240386966Y-114512219D01*
X240386968Y-114512215D01*
X240386971Y-114512213D01*
X240469320Y-114398867D01*
X240507287Y-114346610D01*
X240600220Y-114164219D01*
X240663477Y-113969534D01*
X240695500Y-113767352D01*
X240695500Y-113562648D01*
X240692312Y-113542518D01*
X240663477Y-113360465D01*
X240600218Y-113165776D01*
X240541540Y-113050616D01*
X240507287Y-112983390D01*
X240484895Y-112952570D01*
X240386971Y-112817786D01*
X240242213Y-112673028D01*
X240076614Y-112552715D01*
X240007465Y-112517482D01*
X239983917Y-112505483D01*
X239933123Y-112457511D01*
X239916328Y-112389690D01*
X239938865Y-112323555D01*
X239983917Y-112284516D01*
X240076610Y-112237287D01*
X240140106Y-112191155D01*
X240242213Y-112116971D01*
X240242215Y-112116968D01*
X240242219Y-112116966D01*
X240386966Y-111972219D01*
X240386968Y-111972215D01*
X240386971Y-111972213D01*
X240452163Y-111882482D01*
X240507287Y-111806610D01*
X240600220Y-111624219D01*
X240663477Y-111429534D01*
X240695500Y-111227352D01*
X240695500Y-111022648D01*
X240669390Y-110857796D01*
X240663477Y-110820465D01*
X240622335Y-110693845D01*
X240600220Y-110625781D01*
X240600218Y-110625778D01*
X240600218Y-110625776D01*
X240566503Y-110559607D01*
X240507287Y-110443390D01*
X240458069Y-110375646D01*
X240386971Y-110277786D01*
X240242213Y-110133028D01*
X240076614Y-110012715D01*
X240014293Y-109980961D01*
X239983917Y-109965483D01*
X239933123Y-109917511D01*
X239916328Y-109849690D01*
X239938865Y-109783555D01*
X239983917Y-109744516D01*
X240076610Y-109697287D01*
X240097770Y-109681913D01*
X240242213Y-109576971D01*
X240242215Y-109576968D01*
X240242219Y-109576966D01*
X240386966Y-109432219D01*
X240386968Y-109432215D01*
X240386971Y-109432213D01*
X240449635Y-109345962D01*
X240507287Y-109266610D01*
X240600220Y-109084219D01*
X240663477Y-108889534D01*
X240695500Y-108687352D01*
X240695500Y-108482648D01*
X240669736Y-108319982D01*
X240663477Y-108280465D01*
X240600218Y-108085776D01*
X240556105Y-107999201D01*
X240507287Y-107903390D01*
X240469320Y-107851132D01*
X240386971Y-107737786D01*
X240242213Y-107593028D01*
X240076614Y-107472715D01*
X240070006Y-107469348D01*
X239983917Y-107425483D01*
X239933123Y-107377511D01*
X239916328Y-107309690D01*
X239938865Y-107243555D01*
X239983917Y-107204516D01*
X240076610Y-107157287D01*
X240097770Y-107141913D01*
X240242213Y-107036971D01*
X240242215Y-107036968D01*
X240242219Y-107036966D01*
X240386966Y-106892219D01*
X240386968Y-106892215D01*
X240386971Y-106892213D01*
X240486536Y-106755171D01*
X240507287Y-106726610D01*
X240600220Y-106544219D01*
X240605782Y-106527099D01*
X240645218Y-106469424D01*
X240709577Y-106442225D01*
X240778423Y-106454139D01*
X240811394Y-106477736D01*
X242105832Y-107772174D01*
X242139317Y-107833497D01*
X242142140Y-107861531D01*
X241975183Y-120216377D01*
X241974897Y-120223282D01*
X241952480Y-120546433D01*
X241950757Y-120560143D01*
X241893148Y-120875388D01*
X241889910Y-120888822D01*
X241797583Y-121195698D01*
X241792871Y-121208687D01*
X241666976Y-121503384D01*
X241660848Y-121515769D01*
X241502944Y-121794632D01*
X241495476Y-121806258D01*
X241307530Y-122065813D01*
X241298815Y-122076536D01*
X241083145Y-122313584D01*
X241073291Y-122323271D01*
X240832600Y-122534839D01*
X240821730Y-122543369D01*
X240558985Y-122726850D01*
X240547232Y-122734118D01*
X240265711Y-122887220D01*
X240253224Y-122893135D01*
X239956409Y-123013970D01*
X239943340Y-123018459D01*
X239634929Y-123105516D01*
X239621443Y-123108523D01*
X239305259Y-123160727D01*
X239291521Y-123162215D01*
X238968021Y-123179096D01*
X238961111Y-123179263D01*
X69032643Y-122565803D01*
X69025708Y-122565584D01*
X68701047Y-122546218D01*
X68687265Y-122544618D01*
X68370235Y-122489700D01*
X68356719Y-122486571D01*
X68047807Y-122396582D01*
X68034725Y-122391963D01*
X67737792Y-122268027D01*
X67725308Y-122261975D01*
X67444088Y-122105649D01*
X67432358Y-122098241D01*
X67386866Y-122065813D01*
X67170354Y-121911475D01*
X67159526Y-121902804D01*
X66920016Y-121687930D01*
X66910236Y-121678114D01*
X66696234Y-121437836D01*
X66687601Y-121426976D01*
X66501783Y-121164301D01*
X66494417Y-121152544D01*
X66345408Y-120882193D01*
X66339103Y-120870753D01*
X66333102Y-120858260D01*
X66210235Y-120560874D01*
X66205665Y-120547781D01*
X66116790Y-120238539D01*
X66113710Y-120225011D01*
X66112832Y-120219833D01*
X66059937Y-119907778D01*
X66058388Y-119894001D01*
X66040194Y-119569273D01*
X66040000Y-119562336D01*
X66040000Y-118642648D01*
X84424500Y-118642648D01*
X84424500Y-118847351D01*
X84456522Y-119049534D01*
X84519781Y-119244223D01*
X84612715Y-119426613D01*
X84733028Y-119592213D01*
X84877786Y-119736971D01*
X85032749Y-119849556D01*
X85043390Y-119857287D01*
X85142484Y-119907778D01*
X85225776Y-119950218D01*
X85225778Y-119950218D01*
X85225781Y-119950220D01*
X85330137Y-119984127D01*
X85420465Y-120013477D01*
X85521557Y-120029488D01*
X85622648Y-120045500D01*
X85622649Y-120045500D01*
X85827351Y-120045500D01*
X85827352Y-120045500D01*
X86029534Y-120013477D01*
X86224219Y-119950220D01*
X86406610Y-119857287D01*
X86499590Y-119789732D01*
X86572213Y-119736971D01*
X86572215Y-119736968D01*
X86572219Y-119736966D01*
X86716966Y-119592219D01*
X86716968Y-119592215D01*
X86716971Y-119592213D01*
X86769732Y-119519590D01*
X86837287Y-119426610D01*
X86930220Y-119244219D01*
X86993477Y-119049534D01*
X87025500Y-118847352D01*
X87025500Y-118642648D01*
X92044500Y-118642648D01*
X92044500Y-118847351D01*
X92076522Y-119049534D01*
X92139781Y-119244223D01*
X92232715Y-119426613D01*
X92353028Y-119592213D01*
X92497786Y-119736971D01*
X92652749Y-119849556D01*
X92663390Y-119857287D01*
X92762484Y-119907778D01*
X92845776Y-119950218D01*
X92845778Y-119950218D01*
X92845781Y-119950220D01*
X92950137Y-119984127D01*
X93040465Y-120013477D01*
X93141557Y-120029488D01*
X93242648Y-120045500D01*
X93242649Y-120045500D01*
X93447351Y-120045500D01*
X93447352Y-120045500D01*
X93649534Y-120013477D01*
X93844219Y-119950220D01*
X94026610Y-119857287D01*
X94119590Y-119789732D01*
X94192213Y-119736971D01*
X94192215Y-119736968D01*
X94192219Y-119736966D01*
X94336966Y-119592219D01*
X94336968Y-119592215D01*
X94336971Y-119592213D01*
X94389732Y-119519590D01*
X94457287Y-119426610D01*
X94550220Y-119244219D01*
X94613477Y-119049534D01*
X94645500Y-118847352D01*
X94645500Y-118642648D01*
X199359500Y-118642648D01*
X199359500Y-118847351D01*
X199391522Y-119049534D01*
X199454781Y-119244223D01*
X199547715Y-119426613D01*
X199668028Y-119592213D01*
X199812786Y-119736971D01*
X199967749Y-119849556D01*
X199978390Y-119857287D01*
X200077484Y-119907778D01*
X200160776Y-119950218D01*
X200160778Y-119950218D01*
X200160781Y-119950220D01*
X200265137Y-119984127D01*
X200355465Y-120013477D01*
X200456557Y-120029488D01*
X200557648Y-120045500D01*
X200557649Y-120045500D01*
X200762351Y-120045500D01*
X200762352Y-120045500D01*
X200964534Y-120013477D01*
X201159219Y-119950220D01*
X201341610Y-119857287D01*
X201434590Y-119789732D01*
X201507213Y-119736971D01*
X201507215Y-119736968D01*
X201507219Y-119736966D01*
X201651966Y-119592219D01*
X201651968Y-119592215D01*
X201651971Y-119592213D01*
X201704732Y-119519590D01*
X201772287Y-119426610D01*
X201865220Y-119244219D01*
X201928477Y-119049534D01*
X201960500Y-118847352D01*
X201960500Y-118642648D01*
X206979500Y-118642648D01*
X206979500Y-118847351D01*
X207011522Y-119049534D01*
X207074781Y-119244223D01*
X207167715Y-119426613D01*
X207288028Y-119592213D01*
X207432786Y-119736971D01*
X207587749Y-119849556D01*
X207598390Y-119857287D01*
X207697484Y-119907778D01*
X207780776Y-119950218D01*
X207780778Y-119950218D01*
X207780781Y-119950220D01*
X207885137Y-119984127D01*
X207975465Y-120013477D01*
X208076557Y-120029488D01*
X208177648Y-120045500D01*
X208177649Y-120045500D01*
X208382351Y-120045500D01*
X208382352Y-120045500D01*
X208584534Y-120013477D01*
X208779219Y-119950220D01*
X208961610Y-119857287D01*
X209054590Y-119789732D01*
X209127213Y-119736971D01*
X209127215Y-119736968D01*
X209127219Y-119736966D01*
X209271966Y-119592219D01*
X209271968Y-119592215D01*
X209271971Y-119592213D01*
X209324732Y-119519590D01*
X209392287Y-119426610D01*
X209485220Y-119244219D01*
X209548477Y-119049534D01*
X209580500Y-118847352D01*
X209580500Y-118642648D01*
X209548477Y-118440466D01*
X209485220Y-118245781D01*
X209485218Y-118245778D01*
X209485218Y-118245776D01*
X209451503Y-118179607D01*
X209392287Y-118063390D01*
X209378748Y-118044755D01*
X209271971Y-117897786D01*
X209127213Y-117753028D01*
X208961613Y-117632715D01*
X208961612Y-117632714D01*
X208961610Y-117632713D01*
X208904653Y-117603691D01*
X208779223Y-117539781D01*
X208584534Y-117476522D01*
X208409995Y-117448878D01*
X208382352Y-117444500D01*
X208177648Y-117444500D01*
X208153329Y-117448351D01*
X207975465Y-117476522D01*
X207780776Y-117539781D01*
X207598386Y-117632715D01*
X207432786Y-117753028D01*
X207288028Y-117897786D01*
X207167715Y-118063386D01*
X207074781Y-118245776D01*
X207011522Y-118440465D01*
X206979500Y-118642648D01*
X201960500Y-118642648D01*
X201928477Y-118440466D01*
X201865220Y-118245781D01*
X201865218Y-118245778D01*
X201865218Y-118245776D01*
X201831503Y-118179607D01*
X201772287Y-118063390D01*
X201758748Y-118044755D01*
X201651971Y-117897786D01*
X201507213Y-117753028D01*
X201341613Y-117632715D01*
X201341612Y-117632714D01*
X201341610Y-117632713D01*
X201284653Y-117603691D01*
X201159223Y-117539781D01*
X200964534Y-117476522D01*
X200789995Y-117448878D01*
X200762352Y-117444500D01*
X200557648Y-117444500D01*
X200533329Y-117448351D01*
X200355465Y-117476522D01*
X200160776Y-117539781D01*
X199978386Y-117632715D01*
X199812786Y-117753028D01*
X199668028Y-117897786D01*
X199547715Y-118063386D01*
X199454781Y-118245776D01*
X199391522Y-118440465D01*
X199359500Y-118642648D01*
X94645500Y-118642648D01*
X94613477Y-118440466D01*
X94550220Y-118245781D01*
X94550218Y-118245778D01*
X94550218Y-118245776D01*
X94516503Y-118179607D01*
X94457287Y-118063390D01*
X94443748Y-118044755D01*
X94336971Y-117897786D01*
X94192213Y-117753028D01*
X94026613Y-117632715D01*
X94026612Y-117632714D01*
X94026610Y-117632713D01*
X93969653Y-117603691D01*
X93844223Y-117539781D01*
X93649534Y-117476522D01*
X93474995Y-117448878D01*
X93447352Y-117444500D01*
X93242648Y-117444500D01*
X93218329Y-117448351D01*
X93040465Y-117476522D01*
X92845776Y-117539781D01*
X92663386Y-117632715D01*
X92497786Y-117753028D01*
X92353028Y-117897786D01*
X92232715Y-118063386D01*
X92139781Y-118245776D01*
X92076522Y-118440465D01*
X92044500Y-118642648D01*
X87025500Y-118642648D01*
X86993477Y-118440466D01*
X86930220Y-118245781D01*
X86930218Y-118245778D01*
X86930218Y-118245776D01*
X86896503Y-118179607D01*
X86837287Y-118063390D01*
X86823748Y-118044755D01*
X86716971Y-117897786D01*
X86572213Y-117753028D01*
X86406613Y-117632715D01*
X86406612Y-117632714D01*
X86406610Y-117632713D01*
X86349653Y-117603691D01*
X86224223Y-117539781D01*
X86029534Y-117476522D01*
X85854995Y-117448878D01*
X85827352Y-117444500D01*
X85622648Y-117444500D01*
X85598329Y-117448351D01*
X85420465Y-117476522D01*
X85225776Y-117539781D01*
X85043386Y-117632715D01*
X84877786Y-117753028D01*
X84733028Y-117897786D01*
X84612715Y-118063386D01*
X84519781Y-118245776D01*
X84456522Y-118440465D01*
X84424500Y-118642648D01*
X66040000Y-118642648D01*
X66040000Y-116239983D01*
X67381849Y-116239983D01*
X67381849Y-117440001D01*
X67381850Y-117440018D01*
X67392349Y-117542796D01*
X67392350Y-117542799D01*
X67447534Y-117709331D01*
X67447536Y-117709336D01*
X67474489Y-117753034D01*
X67539637Y-117858656D01*
X67663693Y-117982712D01*
X67813015Y-118074814D01*
X67979552Y-118129999D01*
X68082340Y-118140500D01*
X69282357Y-118140499D01*
X69385146Y-118129999D01*
X69551683Y-118074814D01*
X69701005Y-117982712D01*
X69825061Y-117858656D01*
X69917163Y-117709334D01*
X69972348Y-117542797D01*
X69982849Y-117440009D01*
X69982848Y-116737682D01*
X71182349Y-116737682D01*
X71182349Y-116942317D01*
X71214358Y-117144417D01*
X71277593Y-117339031D01*
X71370490Y-117521350D01*
X71370496Y-117521359D01*
X71402872Y-117565921D01*
X71402873Y-117565922D01*
X72082349Y-116886446D01*
X72082349Y-116892661D01*
X72109608Y-116994394D01*
X72162269Y-117085606D01*
X72236743Y-117160080D01*
X72327955Y-117212741D01*
X72429688Y-117240000D01*
X72435902Y-117240000D01*
X71756425Y-117919474D01*
X71800999Y-117951859D01*
X71983317Y-118044755D01*
X72177931Y-118107990D01*
X72380032Y-118140000D01*
X72584666Y-118140000D01*
X72786766Y-118107990D01*
X72981380Y-118044755D01*
X73163698Y-117951859D01*
X73208270Y-117919474D01*
X72528796Y-117240000D01*
X72535010Y-117240000D01*
X72636743Y-117212741D01*
X72727955Y-117160080D01*
X72802429Y-117085606D01*
X72855090Y-116994394D01*
X72882349Y-116892661D01*
X72882349Y-116886447D01*
X73561823Y-117565921D01*
X73594208Y-117521349D01*
X73687104Y-117339031D01*
X73750339Y-117144417D01*
X73782349Y-116942317D01*
X73782349Y-116737682D01*
X73750339Y-116535582D01*
X73687104Y-116340968D01*
X73594208Y-116158650D01*
X73561823Y-116114077D01*
X73561823Y-116114076D01*
X72882349Y-116793551D01*
X72882349Y-116787339D01*
X72855090Y-116685606D01*
X72802429Y-116594394D01*
X72727955Y-116519920D01*
X72636743Y-116467259D01*
X72535010Y-116440000D01*
X72528795Y-116440000D01*
X73208271Y-115760524D01*
X73208270Y-115760523D01*
X73163708Y-115728147D01*
X73163699Y-115728141D01*
X72981380Y-115635244D01*
X72786766Y-115572009D01*
X72584666Y-115540000D01*
X72380032Y-115540000D01*
X72177931Y-115572009D01*
X71983317Y-115635244D01*
X71800993Y-115728143D01*
X71756426Y-115760523D01*
X71756426Y-115760524D01*
X72435903Y-116440000D01*
X72429688Y-116440000D01*
X72327955Y-116467259D01*
X72236743Y-116519920D01*
X72162269Y-116594394D01*
X72109608Y-116685606D01*
X72082349Y-116787339D01*
X72082349Y-116793553D01*
X71402873Y-116114077D01*
X71402872Y-116114077D01*
X71370492Y-116158644D01*
X71277593Y-116340968D01*
X71214358Y-116535582D01*
X71182349Y-116737682D01*
X69982848Y-116737682D01*
X69982848Y-116239992D01*
X69972348Y-116137203D01*
X69917163Y-115970666D01*
X69825061Y-115821344D01*
X69701005Y-115697288D01*
X69551683Y-115605186D01*
X69385146Y-115550001D01*
X69385144Y-115550000D01*
X69282359Y-115539500D01*
X68082347Y-115539500D01*
X68082330Y-115539501D01*
X67979552Y-115550000D01*
X67979549Y-115550001D01*
X67813017Y-115605185D01*
X67813012Y-115605187D01*
X67663691Y-115697289D01*
X67539638Y-115821342D01*
X67447536Y-115970663D01*
X67447535Y-115970666D01*
X67392350Y-116137203D01*
X67392350Y-116137204D01*
X67392349Y-116137204D01*
X67381849Y-116239983D01*
X66040000Y-116239983D01*
X66040000Y-112129982D01*
X82854500Y-112129982D01*
X82854500Y-113930017D01*
X82865000Y-114032796D01*
X82920185Y-114199332D01*
X82920187Y-114199337D01*
X82928485Y-114212790D01*
X83012288Y-114348656D01*
X83136344Y-114472712D01*
X83285665Y-114564814D01*
X83452202Y-114619999D01*
X83554990Y-114630500D01*
X83554995Y-114630500D01*
X85355005Y-114630500D01*
X85355010Y-114630500D01*
X85457798Y-114619999D01*
X85624335Y-114564814D01*
X85773656Y-114472712D01*
X85897712Y-114348656D01*
X85989814Y-114199335D01*
X86044999Y-114032798D01*
X86055500Y-113930010D01*
X86055500Y-112904038D01*
X93014500Y-112904038D01*
X93014500Y-113155962D01*
X93042467Y-113332537D01*
X93053910Y-113404785D01*
X93131760Y-113644383D01*
X93246132Y-113868848D01*
X93394201Y-114072649D01*
X93394205Y-114072654D01*
X93572345Y-114250794D01*
X93572350Y-114250798D01*
X93744790Y-114376082D01*
X93776155Y-114398870D01*
X93870094Y-114446734D01*
X94000616Y-114513239D01*
X94000618Y-114513239D01*
X94000621Y-114513241D01*
X94240215Y-114591090D01*
X94489038Y-114630500D01*
X94489039Y-114630500D01*
X94740961Y-114630500D01*
X94740962Y-114630500D01*
X94989785Y-114591090D01*
X95229379Y-114513241D01*
X95453845Y-114398870D01*
X95657656Y-114250793D01*
X95835793Y-114072656D01*
X95983870Y-113868845D01*
X96098241Y-113644379D01*
X96176090Y-113404785D01*
X96215500Y-113155962D01*
X96215500Y-112904038D01*
X96176090Y-112655215D01*
X96165411Y-112622350D01*
X96154865Y-112589890D01*
X96098241Y-112415621D01*
X95983870Y-112191155D01*
X95944230Y-112136595D01*
X95835798Y-111987350D01*
X95835794Y-111987345D01*
X95657654Y-111809205D01*
X95657649Y-111809201D01*
X95453848Y-111661132D01*
X95453847Y-111661131D01*
X95453845Y-111661130D01*
X95330501Y-111598283D01*
X95229383Y-111546760D01*
X94989785Y-111468910D01*
X94905112Y-111455499D01*
X94740962Y-111429500D01*
X94489038Y-111429500D01*
X94422738Y-111440001D01*
X94240214Y-111468910D01*
X94000616Y-111546760D01*
X93776151Y-111661132D01*
X93572350Y-111809201D01*
X93572345Y-111809205D01*
X93394205Y-111987345D01*
X93394201Y-111987350D01*
X93246132Y-112191151D01*
X93131760Y-112415616D01*
X93053910Y-112655214D01*
X93043931Y-112718217D01*
X93014500Y-112904038D01*
X86055500Y-112904038D01*
X86055500Y-112129990D01*
X86044999Y-112027202D01*
X85989814Y-111860665D01*
X85897712Y-111711344D01*
X85773656Y-111587288D01*
X85624335Y-111495186D01*
X85457798Y-111440001D01*
X85457796Y-111440000D01*
X85355017Y-111429500D01*
X85355010Y-111429500D01*
X83554990Y-111429500D01*
X83554982Y-111429500D01*
X83452203Y-111440000D01*
X83452202Y-111440001D01*
X83369669Y-111467349D01*
X83285667Y-111495185D01*
X83285662Y-111495187D01*
X83136342Y-111587289D01*
X83012289Y-111711342D01*
X82920187Y-111860662D01*
X82920185Y-111860667D01*
X82899829Y-111922097D01*
X82865001Y-112027202D01*
X82865001Y-112027203D01*
X82865000Y-112027203D01*
X82854500Y-112129982D01*
X66040000Y-112129982D01*
X66040000Y-109094038D01*
X66344500Y-109094038D01*
X66344500Y-109345962D01*
X66358161Y-109432213D01*
X66383910Y-109594785D01*
X66461760Y-109834383D01*
X66576132Y-110058848D01*
X66724201Y-110262649D01*
X66724205Y-110262654D01*
X66902345Y-110440794D01*
X66902350Y-110440798D01*
X67050194Y-110548212D01*
X67106155Y-110588870D01*
X67249184Y-110661747D01*
X67330616Y-110703239D01*
X67330618Y-110703239D01*
X67330621Y-110703241D01*
X67570215Y-110781090D01*
X67819038Y-110820500D01*
X67819039Y-110820500D01*
X68070961Y-110820500D01*
X68070962Y-110820500D01*
X68319785Y-110781090D01*
X68559379Y-110703241D01*
X68783845Y-110588870D01*
X68987656Y-110440793D01*
X69165793Y-110262656D01*
X69313870Y-110058845D01*
X69428241Y-109834379D01*
X69506090Y-109594785D01*
X69545500Y-109345962D01*
X69545500Y-109094038D01*
X69506090Y-108845215D01*
X69428241Y-108605621D01*
X69428239Y-108605618D01*
X69428239Y-108605616D01*
X69365583Y-108482648D01*
X69313870Y-108381155D01*
X69307044Y-108371760D01*
X69269425Y-108319982D01*
X76504500Y-108319982D01*
X76504500Y-110120017D01*
X76515000Y-110222796D01*
X76570185Y-110389332D01*
X76570187Y-110389337D01*
X76584633Y-110412758D01*
X76662288Y-110538656D01*
X76786344Y-110662712D01*
X76935665Y-110754814D01*
X77102202Y-110809999D01*
X77204990Y-110820500D01*
X77204995Y-110820500D01*
X79005005Y-110820500D01*
X79005010Y-110820500D01*
X79107798Y-110809999D01*
X79274335Y-110754814D01*
X79423656Y-110662712D01*
X79547712Y-110538656D01*
X79639814Y-110389335D01*
X79694999Y-110222798D01*
X79705500Y-110120010D01*
X79705500Y-108319990D01*
X79694999Y-108217202D01*
X79639814Y-108050665D01*
X79547712Y-107901344D01*
X79423656Y-107777288D01*
X79274335Y-107685186D01*
X79107798Y-107630001D01*
X79107796Y-107630000D01*
X79005017Y-107619500D01*
X79005010Y-107619500D01*
X77204990Y-107619500D01*
X77204982Y-107619500D01*
X77102203Y-107630000D01*
X77102202Y-107630001D01*
X77019669Y-107657349D01*
X76935667Y-107685185D01*
X76935662Y-107685187D01*
X76786342Y-107777289D01*
X76662289Y-107901342D01*
X76570187Y-108050662D01*
X76570185Y-108050667D01*
X76542349Y-108134669D01*
X76515001Y-108217202D01*
X76515001Y-108217203D01*
X76515000Y-108217203D01*
X76504500Y-108319982D01*
X69269425Y-108319982D01*
X69165798Y-108177350D01*
X69165794Y-108177345D01*
X68987654Y-107999205D01*
X68987649Y-107999201D01*
X68783848Y-107851132D01*
X68783847Y-107851131D01*
X68783845Y-107851130D01*
X68713747Y-107815413D01*
X68559383Y-107736760D01*
X68319785Y-107658910D01*
X68070962Y-107619500D01*
X67819038Y-107619500D01*
X67752738Y-107630001D01*
X67570214Y-107658910D01*
X67330616Y-107736760D01*
X67106151Y-107851132D01*
X66902350Y-107999201D01*
X66902345Y-107999205D01*
X66724205Y-108177345D01*
X66724201Y-108177350D01*
X66576132Y-108381151D01*
X66461760Y-108605616D01*
X66383910Y-108845214D01*
X66357813Y-109009983D01*
X66344500Y-109094038D01*
X66040000Y-109094038D01*
X66040000Y-106314635D01*
X100419500Y-106314635D01*
X100419500Y-108315370D01*
X100419501Y-108315376D01*
X100425908Y-108374983D01*
X100476202Y-108509828D01*
X100476206Y-108509835D01*
X100562452Y-108625044D01*
X100562455Y-108625047D01*
X100677664Y-108711293D01*
X100677669Y-108711296D01*
X100705539Y-108721690D01*
X100761473Y-108763561D01*
X100785891Y-108829024D01*
X100771040Y-108897298D01*
X100762525Y-108910759D01*
X100629783Y-109093461D01*
X100525950Y-109297244D01*
X100455278Y-109514750D01*
X100455278Y-109514753D01*
X100445424Y-109576971D01*
X100419500Y-109740646D01*
X100419500Y-109969354D01*
X100426368Y-110012715D01*
X100455278Y-110195246D01*
X100455278Y-110195249D01*
X100525950Y-110412755D01*
X100554804Y-110469383D01*
X100629783Y-110616538D01*
X100764214Y-110801566D01*
X100925934Y-110963286D01*
X101010864Y-111024991D01*
X101053529Y-111080321D01*
X101059508Y-111149935D01*
X101026902Y-111211730D01*
X101010864Y-111225627D01*
X100926257Y-111287097D01*
X100764597Y-111448757D01*
X100630211Y-111633723D01*
X100526417Y-111837429D01*
X100455765Y-112054871D01*
X100441491Y-112145000D01*
X101429252Y-112145000D01*
X101407482Y-112182708D01*
X101370000Y-112322591D01*
X101370000Y-112467409D01*
X101407482Y-112607292D01*
X101429252Y-112645000D01*
X100441491Y-112645000D01*
X100455765Y-112735128D01*
X100526417Y-112952570D01*
X100630211Y-113156276D01*
X100764597Y-113341242D01*
X100926257Y-113502902D01*
X101111223Y-113637288D01*
X101314929Y-113741082D01*
X101532371Y-113811734D01*
X101670000Y-113833532D01*
X101670000Y-112885747D01*
X101707708Y-112907518D01*
X101847591Y-112945000D01*
X101992409Y-112945000D01*
X102132292Y-112907518D01*
X102170000Y-112885747D01*
X102170000Y-113833531D01*
X102307628Y-113811734D01*
X102525070Y-113741082D01*
X102728776Y-113637288D01*
X102844033Y-113553549D01*
X131829500Y-113553549D01*
X131829500Y-113776450D01*
X131829501Y-113776466D01*
X131858594Y-113997452D01*
X131858595Y-113997457D01*
X131858596Y-113997463D01*
X131912687Y-114199335D01*
X131916290Y-114212780D01*
X131916293Y-114212790D01*
X131983931Y-114376082D01*
X132001595Y-114418726D01*
X132113052Y-114611774D01*
X132113057Y-114611780D01*
X132113058Y-114611782D01*
X132248751Y-114788622D01*
X132248757Y-114788629D01*
X132406370Y-114946242D01*
X132406377Y-114946248D01*
X132455130Y-114983657D01*
X132583226Y-115081948D01*
X132776274Y-115193405D01*
X132982219Y-115278710D01*
X133197537Y-115336404D01*
X133418543Y-115365500D01*
X133418550Y-115365500D01*
X133641450Y-115365500D01*
X133641457Y-115365500D01*
X133862463Y-115336404D01*
X134077781Y-115278710D01*
X134283726Y-115193405D01*
X134476774Y-115081948D01*
X134653624Y-114946247D01*
X134811247Y-114788624D01*
X134946948Y-114611774D01*
X135058405Y-114418726D01*
X135143710Y-114212781D01*
X135201404Y-113997463D01*
X135230500Y-113776457D01*
X135230500Y-113553549D01*
X154329500Y-113553549D01*
X154329500Y-113776450D01*
X154329501Y-113776466D01*
X154358594Y-113997452D01*
X154358595Y-113997457D01*
X154358596Y-113997463D01*
X154412687Y-114199335D01*
X154416290Y-114212780D01*
X154416293Y-114212790D01*
X154483931Y-114376082D01*
X154501595Y-114418726D01*
X154613052Y-114611774D01*
X154613057Y-114611780D01*
X154613058Y-114611782D01*
X154748751Y-114788622D01*
X154748757Y-114788629D01*
X154906370Y-114946242D01*
X154906377Y-114946248D01*
X154955130Y-114983657D01*
X155083226Y-115081948D01*
X155276274Y-115193405D01*
X155482219Y-115278710D01*
X155697537Y-115336404D01*
X155918543Y-115365500D01*
X155918550Y-115365500D01*
X156141450Y-115365500D01*
X156141457Y-115365500D01*
X156362463Y-115336404D01*
X156577781Y-115278710D01*
X156783726Y-115193405D01*
X156976774Y-115081948D01*
X157153624Y-114946247D01*
X157311247Y-114788624D01*
X157446948Y-114611774D01*
X157558405Y-114418726D01*
X157643710Y-114212781D01*
X157701404Y-113997463D01*
X157730500Y-113776457D01*
X157730500Y-113553543D01*
X157701404Y-113332537D01*
X157643710Y-113117219D01*
X157558405Y-112911274D01*
X157446948Y-112718226D01*
X157311247Y-112541376D01*
X157311242Y-112541370D01*
X157153629Y-112383757D01*
X157153622Y-112383751D01*
X156976782Y-112248058D01*
X156976780Y-112248057D01*
X156976774Y-112248052D01*
X156783726Y-112136595D01*
X156783722Y-112136593D01*
X156577790Y-112051293D01*
X156577783Y-112051291D01*
X156577781Y-112051290D01*
X156362463Y-111993596D01*
X156362457Y-111993595D01*
X156362452Y-111993594D01*
X156141466Y-111964501D01*
X156141463Y-111964500D01*
X156141457Y-111964500D01*
X155918543Y-111964500D01*
X155918537Y-111964500D01*
X155918533Y-111964501D01*
X155697547Y-111993594D01*
X155697540Y-111993595D01*
X155697537Y-111993596D01*
X155482219Y-112051290D01*
X155482209Y-112051293D01*
X155276277Y-112136593D01*
X155276273Y-112136595D01*
X155083226Y-112248052D01*
X155083217Y-112248058D01*
X154906377Y-112383751D01*
X154906370Y-112383757D01*
X154748757Y-112541370D01*
X154748751Y-112541377D01*
X154613058Y-112718217D01*
X154613052Y-112718226D01*
X154501595Y-112911273D01*
X154501593Y-112911277D01*
X154416293Y-113117209D01*
X154416291Y-113117216D01*
X154416290Y-113117219D01*
X154369937Y-113290214D01*
X154358597Y-113332534D01*
X154358594Y-113332547D01*
X154329501Y-113553533D01*
X154329500Y-113553549D01*
X135230500Y-113553549D01*
X135230500Y-113553543D01*
X135201404Y-113332537D01*
X135143710Y-113117219D01*
X135058405Y-112911274D01*
X134946948Y-112718226D01*
X134811247Y-112541376D01*
X134811242Y-112541370D01*
X134653629Y-112383757D01*
X134653622Y-112383751D01*
X134476782Y-112248058D01*
X134476780Y-112248057D01*
X134476774Y-112248052D01*
X134283726Y-112136595D01*
X134283722Y-112136593D01*
X134077790Y-112051293D01*
X134077783Y-112051291D01*
X134077781Y-112051290D01*
X133862463Y-111993596D01*
X133862457Y-111993595D01*
X133862452Y-111993594D01*
X133641466Y-111964501D01*
X133641463Y-111964500D01*
X133641457Y-111964500D01*
X133418543Y-111964500D01*
X133418537Y-111964500D01*
X133418533Y-111964501D01*
X133197547Y-111993594D01*
X133197540Y-111993595D01*
X133197537Y-111993596D01*
X132982219Y-112051290D01*
X132982209Y-112051293D01*
X132776277Y-112136593D01*
X132776273Y-112136595D01*
X132583226Y-112248052D01*
X132583217Y-112248058D01*
X132406377Y-112383751D01*
X132406370Y-112383757D01*
X132248757Y-112541370D01*
X132248751Y-112541377D01*
X132113058Y-112718217D01*
X132113052Y-112718226D01*
X132001595Y-112911273D01*
X132001593Y-112911277D01*
X131916293Y-113117209D01*
X131916291Y-113117216D01*
X131916290Y-113117219D01*
X131869937Y-113290214D01*
X131858597Y-113332534D01*
X131858594Y-113332547D01*
X131829501Y-113553533D01*
X131829500Y-113553549D01*
X102844033Y-113553549D01*
X102913742Y-113502902D01*
X102954842Y-113461803D01*
X103075402Y-113341242D01*
X103209788Y-113156276D01*
X103313582Y-112952570D01*
X103384234Y-112735128D01*
X103398509Y-112645000D01*
X102410748Y-112645000D01*
X102432518Y-112607292D01*
X102470000Y-112467409D01*
X102470000Y-112322591D01*
X102432518Y-112182708D01*
X102410748Y-112145000D01*
X103398509Y-112145000D01*
X103384234Y-112054871D01*
X103313582Y-111837429D01*
X103209788Y-111633723D01*
X103075402Y-111448757D01*
X102913742Y-111287097D01*
X102829135Y-111225626D01*
X102786470Y-111170296D01*
X102780491Y-111100682D01*
X102813097Y-111038887D01*
X102829125Y-111024999D01*
X102914066Y-110963286D01*
X103075786Y-110801566D01*
X103210217Y-110616538D01*
X103314048Y-110412758D01*
X103362821Y-110262649D01*
X103384721Y-110195249D01*
X103384721Y-110195248D01*
X103384722Y-110195245D01*
X103420500Y-109969354D01*
X103420500Y-109740646D01*
X103418884Y-109730441D01*
X115574500Y-109730441D01*
X115574500Y-109979558D01*
X115574501Y-109979575D01*
X115607017Y-110226561D01*
X115671498Y-110467207D01*
X115766830Y-110697361D01*
X115766837Y-110697376D01*
X115891400Y-110913126D01*
X116043060Y-111110774D01*
X116043066Y-111110781D01*
X116219218Y-111286933D01*
X116219225Y-111286939D01*
X116416873Y-111438599D01*
X116632623Y-111563162D01*
X116632638Y-111563169D01*
X116717412Y-111598283D01*
X116862793Y-111658502D01*
X117103435Y-111722982D01*
X117350435Y-111755500D01*
X117350442Y-111755500D01*
X117599558Y-111755500D01*
X117599565Y-111755500D01*
X117846565Y-111722982D01*
X118087207Y-111658502D01*
X118317373Y-111563164D01*
X118533127Y-111438599D01*
X118730776Y-111286938D01*
X118906938Y-111110776D01*
X119058599Y-110913127D01*
X119183164Y-110697373D01*
X119278502Y-110467207D01*
X119342982Y-110226565D01*
X119375500Y-109979565D01*
X119375500Y-109730435D01*
X119342982Y-109483435D01*
X119278502Y-109242793D01*
X119212820Y-109084223D01*
X119183169Y-109012638D01*
X119183162Y-109012623D01*
X119058599Y-108796873D01*
X118906939Y-108599225D01*
X118906933Y-108599218D01*
X118730781Y-108423066D01*
X118730774Y-108423060D01*
X118533126Y-108271400D01*
X118317376Y-108146837D01*
X118317361Y-108146830D01*
X118087207Y-108051498D01*
X117846561Y-107987017D01*
X117599575Y-107954501D01*
X117599570Y-107954500D01*
X117599565Y-107954500D01*
X117350435Y-107954500D01*
X117350429Y-107954500D01*
X117350424Y-107954501D01*
X117103438Y-107987017D01*
X116862792Y-108051498D01*
X116632638Y-108146830D01*
X116632623Y-108146837D01*
X116416873Y-108271400D01*
X116219225Y-108423060D01*
X116219218Y-108423066D01*
X116043066Y-108599218D01*
X116043060Y-108599225D01*
X115891400Y-108796873D01*
X115766837Y-109012623D01*
X115766830Y-109012638D01*
X115671498Y-109242792D01*
X115607017Y-109483438D01*
X115574501Y-109730424D01*
X115574500Y-109730441D01*
X103418884Y-109730441D01*
X103384722Y-109514755D01*
X103384721Y-109514751D01*
X103384721Y-109514750D01*
X103314049Y-109297244D01*
X103285198Y-109240621D01*
X103210217Y-109093462D01*
X103077472Y-108910755D01*
X103053994Y-108844953D01*
X103069819Y-108776899D01*
X103119925Y-108728204D01*
X103134455Y-108721692D01*
X103162331Y-108711296D01*
X103277546Y-108625046D01*
X103363796Y-108509831D01*
X103414091Y-108374983D01*
X103420500Y-108315373D01*
X103420499Y-106949635D01*
X185824500Y-106949635D01*
X185824500Y-108950370D01*
X185824501Y-108950376D01*
X185830908Y-109009983D01*
X185881202Y-109144828D01*
X185881206Y-109144835D01*
X185967452Y-109260044D01*
X185967455Y-109260047D01*
X186082664Y-109346293D01*
X186082669Y-109346296D01*
X186110539Y-109356690D01*
X186166473Y-109398561D01*
X186190891Y-109464024D01*
X186176040Y-109532298D01*
X186167525Y-109545759D01*
X186034783Y-109728461D01*
X185930950Y-109932244D01*
X185860278Y-110149750D01*
X185860278Y-110149753D01*
X185824500Y-110375646D01*
X185824500Y-110604353D01*
X185860278Y-110830246D01*
X185860278Y-110830249D01*
X185930950Y-111047755D01*
X185993388Y-111170296D01*
X186034783Y-111251538D01*
X186169214Y-111436566D01*
X186330934Y-111598286D01*
X186415864Y-111659991D01*
X186458529Y-111715321D01*
X186464508Y-111784935D01*
X186431902Y-111846730D01*
X186415864Y-111860627D01*
X186331257Y-111922097D01*
X186169597Y-112083757D01*
X186035211Y-112268723D01*
X185931417Y-112472429D01*
X185860765Y-112689871D01*
X185846491Y-112780000D01*
X186834252Y-112780000D01*
X186812482Y-112817708D01*
X186775000Y-112957591D01*
X186775000Y-113102409D01*
X186812482Y-113242292D01*
X186834252Y-113280000D01*
X185846491Y-113280000D01*
X185860765Y-113370128D01*
X185931417Y-113587570D01*
X186035211Y-113791276D01*
X186169597Y-113976242D01*
X186331257Y-114137902D01*
X186516223Y-114272288D01*
X186719929Y-114376082D01*
X186937371Y-114446734D01*
X187075000Y-114468532D01*
X187075000Y-113520747D01*
X187112708Y-113542518D01*
X187252591Y-113580000D01*
X187397409Y-113580000D01*
X187537292Y-113542518D01*
X187575000Y-113520747D01*
X187575000Y-114468531D01*
X187712628Y-114446734D01*
X187930070Y-114376082D01*
X188133776Y-114272288D01*
X188318742Y-114137902D01*
X188480402Y-113976242D01*
X188614788Y-113791276D01*
X188718582Y-113587568D01*
X188734351Y-113539038D01*
X198424500Y-113539038D01*
X198424500Y-113790962D01*
X198436836Y-113868845D01*
X198463910Y-114039785D01*
X198541760Y-114279383D01*
X198656132Y-114503848D01*
X198804201Y-114707649D01*
X198804205Y-114707654D01*
X198982345Y-114885794D01*
X198982350Y-114885798D01*
X199160117Y-115014952D01*
X199186155Y-115033870D01*
X199280500Y-115081941D01*
X199410616Y-115148239D01*
X199410618Y-115148239D01*
X199410621Y-115148241D01*
X199650215Y-115226090D01*
X199899038Y-115265500D01*
X199899039Y-115265500D01*
X200150961Y-115265500D01*
X200150962Y-115265500D01*
X200399785Y-115226090D01*
X200639379Y-115148241D01*
X200863845Y-115033870D01*
X201067656Y-114885793D01*
X201245793Y-114707656D01*
X201393870Y-114503845D01*
X201508241Y-114279379D01*
X201586090Y-114039785D01*
X201625500Y-113790962D01*
X201625500Y-113539038D01*
X201586090Y-113290215D01*
X201508241Y-113050621D01*
X201508239Y-113050618D01*
X201508239Y-113050616D01*
X201433553Y-112904038D01*
X201393870Y-112826155D01*
X201349431Y-112764990D01*
X201349425Y-112764982D01*
X208584500Y-112764982D01*
X208584500Y-114565017D01*
X208595000Y-114667796D01*
X208650185Y-114834332D01*
X208650186Y-114834335D01*
X208742288Y-114983656D01*
X208866344Y-115107712D01*
X209015665Y-115199814D01*
X209182202Y-115254999D01*
X209284990Y-115265500D01*
X209284995Y-115265500D01*
X211085005Y-115265500D01*
X211085010Y-115265500D01*
X211187798Y-115254999D01*
X211354335Y-115199814D01*
X211503656Y-115107712D01*
X211627712Y-114983656D01*
X211719814Y-114834335D01*
X211774999Y-114667798D01*
X211785500Y-114565010D01*
X211785500Y-112764990D01*
X211774999Y-112662202D01*
X211719814Y-112495665D01*
X211627712Y-112346344D01*
X211503656Y-112222288D01*
X211410890Y-112165070D01*
X211354337Y-112130187D01*
X211354332Y-112130185D01*
X211352863Y-112129698D01*
X211187798Y-112075001D01*
X211187796Y-112075000D01*
X211085017Y-112064500D01*
X211085010Y-112064500D01*
X209284990Y-112064500D01*
X209284982Y-112064500D01*
X209182203Y-112075000D01*
X209182202Y-112075001D01*
X209099669Y-112102349D01*
X209015667Y-112130185D01*
X209015662Y-112130187D01*
X208866342Y-112222289D01*
X208742289Y-112346342D01*
X208650187Y-112495662D01*
X208650185Y-112495667D01*
X208631282Y-112552713D01*
X208595001Y-112662202D01*
X208595001Y-112662203D01*
X208595000Y-112662203D01*
X208584500Y-112764982D01*
X201349425Y-112764982D01*
X201245798Y-112622350D01*
X201245794Y-112622345D01*
X201067654Y-112444205D01*
X201067649Y-112444201D01*
X200863848Y-112296132D01*
X200863847Y-112296131D01*
X200863845Y-112296130D01*
X200793747Y-112260413D01*
X200639383Y-112181760D01*
X200399785Y-112103910D01*
X200150962Y-112064500D01*
X199899038Y-112064500D01*
X199832738Y-112075001D01*
X199650214Y-112103910D01*
X199410616Y-112181760D01*
X199186151Y-112296132D01*
X198982350Y-112444201D01*
X198982345Y-112444205D01*
X198804205Y-112622345D01*
X198804201Y-112622350D01*
X198656132Y-112826151D01*
X198541760Y-113050616D01*
X198504341Y-113165781D01*
X198463910Y-113290215D01*
X198424500Y-113539038D01*
X188734351Y-113539038D01*
X188748385Y-113495848D01*
X188748385Y-113495847D01*
X188789234Y-113370128D01*
X188803509Y-113280000D01*
X187815748Y-113280000D01*
X187837518Y-113242292D01*
X187875000Y-113102409D01*
X187875000Y-112957591D01*
X187837518Y-112817708D01*
X187815748Y-112780000D01*
X188803509Y-112780000D01*
X188789234Y-112689871D01*
X188718582Y-112472429D01*
X188614788Y-112268723D01*
X188480402Y-112083757D01*
X188318742Y-111922097D01*
X188234135Y-111860626D01*
X188191470Y-111805296D01*
X188185491Y-111735682D01*
X188218097Y-111673887D01*
X188234125Y-111659999D01*
X188319066Y-111598286D01*
X188480786Y-111436566D01*
X188615217Y-111251538D01*
X188719048Y-111047758D01*
X188746495Y-110963286D01*
X188789721Y-110830249D01*
X188789721Y-110830248D01*
X188789722Y-110830245D01*
X188825500Y-110604354D01*
X188825500Y-110375646D01*
X188789722Y-110149755D01*
X188789721Y-110149751D01*
X188789721Y-110149750D01*
X188719049Y-109932244D01*
X188641712Y-109780461D01*
X188616222Y-109730435D01*
X188615510Y-109729038D01*
X216839500Y-109729038D01*
X216839500Y-109980961D01*
X216878910Y-110229785D01*
X216956760Y-110469383D01*
X217071132Y-110693848D01*
X217219201Y-110897649D01*
X217219205Y-110897654D01*
X217397345Y-111075794D01*
X217397350Y-111075798D01*
X217570431Y-111201548D01*
X217601155Y-111223870D01*
X217724933Y-111286938D01*
X217825616Y-111338239D01*
X217825618Y-111338239D01*
X217825621Y-111338241D01*
X218065215Y-111416090D01*
X218314038Y-111455500D01*
X218314039Y-111455500D01*
X218565961Y-111455500D01*
X218565962Y-111455500D01*
X218814785Y-111416090D01*
X219054379Y-111338241D01*
X219278845Y-111223870D01*
X219482656Y-111075793D01*
X219660793Y-110897656D01*
X219808870Y-110693845D01*
X219923241Y-110469379D01*
X220001090Y-110229785D01*
X220040500Y-109980962D01*
X220040500Y-109729038D01*
X220001090Y-109480215D01*
X219923241Y-109240621D01*
X219923239Y-109240618D01*
X219923239Y-109240616D01*
X219808869Y-109016154D01*
X219808865Y-109016148D01*
X219764426Y-108954982D01*
X226999500Y-108954982D01*
X226999500Y-110755017D01*
X227010000Y-110857796D01*
X227065185Y-111024332D01*
X227065187Y-111024337D01*
X227079633Y-111047758D01*
X227157288Y-111173656D01*
X227281344Y-111297712D01*
X227430665Y-111389814D01*
X227597202Y-111444999D01*
X227699990Y-111455500D01*
X227699995Y-111455500D01*
X229500005Y-111455500D01*
X229500010Y-111455500D01*
X229602798Y-111444999D01*
X229769335Y-111389814D01*
X229918656Y-111297712D01*
X230042712Y-111173656D01*
X230134814Y-111024335D01*
X230189999Y-110857798D01*
X230200500Y-110755010D01*
X230200500Y-108954990D01*
X230189999Y-108852202D01*
X230134814Y-108685665D01*
X230042712Y-108536344D01*
X229918656Y-108412288D01*
X229769335Y-108320186D01*
X229602798Y-108265001D01*
X229602796Y-108265000D01*
X229500017Y-108254500D01*
X229500010Y-108254500D01*
X227699990Y-108254500D01*
X227699982Y-108254500D01*
X227597203Y-108265000D01*
X227597202Y-108265001D01*
X227550535Y-108280465D01*
X227430667Y-108320185D01*
X227430662Y-108320187D01*
X227281342Y-108412289D01*
X227157289Y-108536342D01*
X227065187Y-108685662D01*
X227065185Y-108685667D01*
X227056692Y-108711297D01*
X227010001Y-108852202D01*
X227010001Y-108852203D01*
X227010000Y-108852203D01*
X226999500Y-108954982D01*
X219764426Y-108954982D01*
X219660798Y-108812350D01*
X219660794Y-108812345D01*
X219482654Y-108634205D01*
X219482649Y-108634201D01*
X219278848Y-108486132D01*
X219278847Y-108486131D01*
X219278845Y-108486130D01*
X219155075Y-108423066D01*
X219054383Y-108371760D01*
X218814785Y-108293910D01*
X218565962Y-108254500D01*
X218314038Y-108254500D01*
X218207330Y-108271401D01*
X218065214Y-108293910D01*
X217825616Y-108371760D01*
X217601151Y-108486132D01*
X217397350Y-108634201D01*
X217397345Y-108634205D01*
X217219205Y-108812345D01*
X217219201Y-108812350D01*
X217071132Y-109016151D01*
X216956760Y-109240616D01*
X216878910Y-109480214D01*
X216839500Y-109729038D01*
X188615510Y-109729038D01*
X188615217Y-109728462D01*
X188482472Y-109545755D01*
X188458994Y-109479953D01*
X188474819Y-109411899D01*
X188524925Y-109363204D01*
X188539455Y-109356692D01*
X188567331Y-109346296D01*
X188682546Y-109260046D01*
X188768796Y-109144831D01*
X188819091Y-109009983D01*
X188824331Y-108961241D01*
X188851068Y-108896694D01*
X188908461Y-108856846D01*
X188947620Y-108850500D01*
X210908693Y-108850500D01*
X210908694Y-108850499D01*
X211082666Y-108815895D01*
X211164606Y-108781953D01*
X211246547Y-108748013D01*
X211357777Y-108673691D01*
X211394036Y-108649464D01*
X220681681Y-99361819D01*
X220743004Y-99328334D01*
X220769362Y-99325500D01*
X230080638Y-99325500D01*
X230110078Y-99334144D01*
X230140065Y-99340668D01*
X230145080Y-99344422D01*
X230147677Y-99345185D01*
X230168319Y-99361819D01*
X230259319Y-99452819D01*
X230292804Y-99514142D01*
X230287820Y-99583834D01*
X230245948Y-99639767D01*
X230180484Y-99664184D01*
X230171638Y-99664500D01*
X229174998Y-99664500D01*
X229174981Y-99664501D01*
X229072203Y-99675000D01*
X229072200Y-99675001D01*
X228905668Y-99730185D01*
X228905663Y-99730187D01*
X228756342Y-99822289D01*
X228632289Y-99946342D01*
X228540187Y-100095663D01*
X228540186Y-100095666D01*
X228485001Y-100262203D01*
X228485001Y-100262204D01*
X228485000Y-100262204D01*
X228474500Y-100364983D01*
X228474500Y-101565001D01*
X228474501Y-101565018D01*
X228485000Y-101667796D01*
X228485001Y-101667799D01*
X228540185Y-101834331D01*
X228540187Y-101834336D01*
X228567140Y-101878034D01*
X228632288Y-101983656D01*
X228756344Y-102107712D01*
X228905666Y-102199814D01*
X229072203Y-102254999D01*
X229174991Y-102265500D01*
X230375008Y-102265499D01*
X230477797Y-102254999D01*
X230644334Y-102199814D01*
X230793656Y-102107712D01*
X230862524Y-102038843D01*
X230923843Y-102005361D01*
X230993535Y-102010345D01*
X231023082Y-102026206D01*
X231093390Y-102077287D01*
X231179561Y-102121193D01*
X231275776Y-102170218D01*
X231275778Y-102170218D01*
X231275781Y-102170220D01*
X231331703Y-102188390D01*
X231470465Y-102233477D01*
X231571557Y-102249488D01*
X231672648Y-102265500D01*
X231672649Y-102265500D01*
X231877351Y-102265500D01*
X231877352Y-102265500D01*
X232079534Y-102233477D01*
X232274219Y-102170220D01*
X232456610Y-102077287D01*
X232549590Y-102009732D01*
X232622213Y-101956971D01*
X232622215Y-101956968D01*
X232622219Y-101956966D01*
X232766966Y-101812219D01*
X232766968Y-101812215D01*
X232766971Y-101812213D01*
X232819732Y-101739590D01*
X232887287Y-101646610D01*
X232980220Y-101464219D01*
X233043477Y-101269534D01*
X233075500Y-101067352D01*
X233075500Y-100862648D01*
X233058395Y-100754653D01*
X233043477Y-100660465D01*
X233012458Y-100565000D01*
X232980220Y-100465781D01*
X232980218Y-100465778D01*
X232980218Y-100465776D01*
X232928865Y-100364991D01*
X232887287Y-100283390D01*
X232855092Y-100239077D01*
X232766971Y-100117786D01*
X232711819Y-100062634D01*
X232678334Y-100001311D01*
X232675500Y-99974953D01*
X232675500Y-99606309D01*
X232667823Y-99567711D01*
X232667823Y-99567710D01*
X232651517Y-99485735D01*
X232640895Y-99432334D01*
X232611686Y-99361819D01*
X232609477Y-99356485D01*
X232609474Y-99356480D01*
X232606953Y-99350393D01*
X232573013Y-99268453D01*
X232513936Y-99180040D01*
X232479029Y-99127796D01*
X232474466Y-99120966D01*
X232474464Y-99120964D01*
X231263016Y-97909515D01*
X231079038Y-97725537D01*
X230992681Y-97667836D01*
X230986997Y-97664038D01*
X230931547Y-97626987D01*
X230849606Y-97593046D01*
X230844674Y-97591003D01*
X230844672Y-97591002D01*
X230767666Y-97559105D01*
X230767658Y-97559103D01*
X230593696Y-97524500D01*
X230593692Y-97524500D01*
X230593691Y-97524500D01*
X220433692Y-97524500D01*
X220256308Y-97524500D01*
X220256303Y-97524500D01*
X220082341Y-97559103D01*
X220082329Y-97559106D01*
X220000392Y-97593045D01*
X220000393Y-97593046D01*
X219918455Y-97626985D01*
X219863003Y-97664038D01*
X219863002Y-97664039D01*
X219770961Y-97725537D01*
X219770960Y-97725538D01*
X210483319Y-107013181D01*
X210421996Y-107046666D01*
X210395638Y-107049500D01*
X188947620Y-107049500D01*
X188880581Y-107029815D01*
X188834826Y-106977011D01*
X188824330Y-106938753D01*
X188819091Y-106890016D01*
X188768797Y-106755171D01*
X188768793Y-106755164D01*
X188682547Y-106639955D01*
X188682544Y-106639952D01*
X188567335Y-106553706D01*
X188567328Y-106553702D01*
X188432482Y-106503408D01*
X188432483Y-106503408D01*
X188372883Y-106497001D01*
X188372881Y-106497000D01*
X188372873Y-106497000D01*
X188372864Y-106497000D01*
X186277129Y-106497000D01*
X186277123Y-106497001D01*
X186217516Y-106503408D01*
X186082671Y-106553702D01*
X186082664Y-106553706D01*
X185967455Y-106639952D01*
X185967452Y-106639955D01*
X185881206Y-106755164D01*
X185881202Y-106755171D01*
X185830908Y-106890017D01*
X185824501Y-106949616D01*
X185824500Y-106949635D01*
X103420499Y-106949635D01*
X103420499Y-106314628D01*
X103414091Y-106255017D01*
X103363796Y-106120169D01*
X103363795Y-106120168D01*
X103363793Y-106120164D01*
X103277547Y-106004955D01*
X103277544Y-106004952D01*
X103162335Y-105918706D01*
X103162328Y-105918702D01*
X103027482Y-105868408D01*
X103027483Y-105868408D01*
X102967883Y-105862001D01*
X102967881Y-105862000D01*
X102967873Y-105862000D01*
X102967864Y-105862000D01*
X100872129Y-105862000D01*
X100872123Y-105862001D01*
X100812516Y-105868408D01*
X100677671Y-105918702D01*
X100677664Y-105918706D01*
X100562455Y-106004952D01*
X100562452Y-106004955D01*
X100476206Y-106120164D01*
X100476202Y-106120171D01*
X100425908Y-106255017D01*
X100419501Y-106314616D01*
X100419501Y-106314623D01*
X100419500Y-106314635D01*
X66040000Y-106314635D01*
X66040000Y-102767648D01*
X83789500Y-102767648D01*
X83789500Y-102972351D01*
X83821522Y-103174534D01*
X83884781Y-103369223D01*
X83977715Y-103551613D01*
X84098028Y-103717213D01*
X84242786Y-103861971D01*
X84397749Y-103974556D01*
X84408390Y-103982287D01*
X84524607Y-104041503D01*
X84590776Y-104075218D01*
X84590778Y-104075218D01*
X84590781Y-104075220D01*
X84695137Y-104109127D01*
X84785465Y-104138477D01*
X84886557Y-104154488D01*
X84987648Y-104170500D01*
X84987649Y-104170500D01*
X85192351Y-104170500D01*
X85192352Y-104170500D01*
X85394534Y-104138477D01*
X85589219Y-104075220D01*
X85771610Y-103982287D01*
X85864590Y-103914732D01*
X85937213Y-103861971D01*
X85937215Y-103861968D01*
X85937219Y-103861966D01*
X86081966Y-103717219D01*
X86081968Y-103717215D01*
X86081971Y-103717213D01*
X86161789Y-103607351D01*
X86202287Y-103551610D01*
X86295220Y-103369219D01*
X86358477Y-103174534D01*
X86390500Y-102972352D01*
X86390500Y-102767648D01*
X91409500Y-102767648D01*
X91409500Y-102972351D01*
X91441522Y-103174534D01*
X91504781Y-103369223D01*
X91597715Y-103551613D01*
X91718028Y-103717213D01*
X91862786Y-103861971D01*
X92017749Y-103974556D01*
X92028390Y-103982287D01*
X92144607Y-104041503D01*
X92210776Y-104075218D01*
X92210778Y-104075218D01*
X92210781Y-104075220D01*
X92315137Y-104109127D01*
X92405465Y-104138477D01*
X92506557Y-104154488D01*
X92607648Y-104170500D01*
X92607649Y-104170500D01*
X92812351Y-104170500D01*
X92812352Y-104170500D01*
X93014534Y-104138477D01*
X93209219Y-104075220D01*
X93391610Y-103982287D01*
X93484590Y-103914732D01*
X93557213Y-103861971D01*
X93557215Y-103861968D01*
X93557219Y-103861966D01*
X93701966Y-103717219D01*
X93701968Y-103717215D01*
X93701971Y-103717213D01*
X93781789Y-103607351D01*
X93822287Y-103551610D01*
X93915220Y-103369219D01*
X93978477Y-103174534D01*
X94010500Y-102972352D01*
X94010500Y-102767648D01*
X199359500Y-102767648D01*
X199359500Y-102972351D01*
X199391522Y-103174534D01*
X199454781Y-103369223D01*
X199547715Y-103551613D01*
X199668028Y-103717213D01*
X199812786Y-103861971D01*
X199967749Y-103974556D01*
X199978390Y-103982287D01*
X200094607Y-104041503D01*
X200160776Y-104075218D01*
X200160778Y-104075218D01*
X200160781Y-104075220D01*
X200265137Y-104109127D01*
X200355465Y-104138477D01*
X200456557Y-104154488D01*
X200557648Y-104170500D01*
X200557649Y-104170500D01*
X200762351Y-104170500D01*
X200762352Y-104170500D01*
X200964534Y-104138477D01*
X201159219Y-104075220D01*
X201341610Y-103982287D01*
X201434590Y-103914732D01*
X201507213Y-103861971D01*
X201507215Y-103861968D01*
X201507219Y-103861966D01*
X201651966Y-103717219D01*
X201651968Y-103717215D01*
X201651971Y-103717213D01*
X201731789Y-103607351D01*
X201772287Y-103551610D01*
X201865220Y-103369219D01*
X201928477Y-103174534D01*
X201960500Y-102972352D01*
X201960500Y-102767648D01*
X206979500Y-102767648D01*
X206979500Y-102972351D01*
X207011522Y-103174534D01*
X207074781Y-103369223D01*
X207167715Y-103551613D01*
X207288028Y-103717213D01*
X207432786Y-103861971D01*
X207587749Y-103974556D01*
X207598390Y-103982287D01*
X207714607Y-104041503D01*
X207780776Y-104075218D01*
X207780778Y-104075218D01*
X207780781Y-104075220D01*
X207885137Y-104109127D01*
X207975465Y-104138477D01*
X208076557Y-104154488D01*
X208177648Y-104170500D01*
X208177649Y-104170500D01*
X208382351Y-104170500D01*
X208382352Y-104170500D01*
X208584534Y-104138477D01*
X208779219Y-104075220D01*
X208961610Y-103982287D01*
X209054590Y-103914732D01*
X209127213Y-103861971D01*
X209127215Y-103861968D01*
X209127219Y-103861966D01*
X209271966Y-103717219D01*
X209271968Y-103717215D01*
X209271971Y-103717213D01*
X209351789Y-103607351D01*
X209392287Y-103551610D01*
X209485220Y-103369219D01*
X209548477Y-103174534D01*
X209580500Y-102972352D01*
X209580500Y-102767648D01*
X209569601Y-102698838D01*
X209548477Y-102565465D01*
X209510523Y-102448655D01*
X209485220Y-102370781D01*
X209485218Y-102370778D01*
X209485218Y-102370776D01*
X209436043Y-102274266D01*
X209392287Y-102188390D01*
X209351896Y-102132796D01*
X209271971Y-102022786D01*
X209127213Y-101878028D01*
X208961613Y-101757715D01*
X208961612Y-101757714D01*
X208961610Y-101757713D01*
X208904653Y-101728691D01*
X208779223Y-101664781D01*
X208584534Y-101601522D01*
X208409995Y-101573878D01*
X208382352Y-101569500D01*
X208177648Y-101569500D01*
X208153329Y-101573351D01*
X207975465Y-101601522D01*
X207780776Y-101664781D01*
X207598386Y-101757715D01*
X207432786Y-101878028D01*
X207288028Y-102022786D01*
X207167715Y-102188386D01*
X207074781Y-102370776D01*
X207011522Y-102565465D01*
X206979500Y-102767648D01*
X201960500Y-102767648D01*
X201949601Y-102698838D01*
X201928477Y-102565465D01*
X201890523Y-102448655D01*
X201865220Y-102370781D01*
X201865218Y-102370778D01*
X201865218Y-102370776D01*
X201816043Y-102274266D01*
X201772287Y-102188390D01*
X201731896Y-102132796D01*
X201651971Y-102022786D01*
X201507213Y-101878028D01*
X201341613Y-101757715D01*
X201341612Y-101757714D01*
X201341610Y-101757713D01*
X201284653Y-101728691D01*
X201159223Y-101664781D01*
X200964534Y-101601522D01*
X200789995Y-101573878D01*
X200762352Y-101569500D01*
X200557648Y-101569500D01*
X200533329Y-101573351D01*
X200355465Y-101601522D01*
X200160776Y-101664781D01*
X199978386Y-101757715D01*
X199812786Y-101878028D01*
X199668028Y-102022786D01*
X199547715Y-102188386D01*
X199454781Y-102370776D01*
X199391522Y-102565465D01*
X199359500Y-102767648D01*
X94010500Y-102767648D01*
X93999601Y-102698838D01*
X93978477Y-102565465D01*
X93940523Y-102448655D01*
X93915220Y-102370781D01*
X93915218Y-102370778D01*
X93915218Y-102370776D01*
X93866043Y-102274266D01*
X93822287Y-102188390D01*
X93781896Y-102132796D01*
X93701971Y-102022786D01*
X93557213Y-101878028D01*
X93391613Y-101757715D01*
X93391612Y-101757714D01*
X93391610Y-101757713D01*
X93334653Y-101728691D01*
X93209223Y-101664781D01*
X93014534Y-101601522D01*
X92839995Y-101573878D01*
X92812352Y-101569500D01*
X92607648Y-101569500D01*
X92583329Y-101573351D01*
X92405465Y-101601522D01*
X92210776Y-101664781D01*
X92028386Y-101757715D01*
X91862786Y-101878028D01*
X91718028Y-102022786D01*
X91597715Y-102188386D01*
X91504781Y-102370776D01*
X91441522Y-102565465D01*
X91409500Y-102767648D01*
X86390500Y-102767648D01*
X86379601Y-102698838D01*
X86358477Y-102565465D01*
X86320523Y-102448655D01*
X86295220Y-102370781D01*
X86295218Y-102370778D01*
X86295218Y-102370776D01*
X86246043Y-102274266D01*
X86202287Y-102188390D01*
X86161896Y-102132796D01*
X86081971Y-102022786D01*
X85937213Y-101878028D01*
X85771613Y-101757715D01*
X85771612Y-101757714D01*
X85771610Y-101757713D01*
X85714653Y-101728691D01*
X85589223Y-101664781D01*
X85394534Y-101601522D01*
X85219995Y-101573878D01*
X85192352Y-101569500D01*
X84987648Y-101569500D01*
X84963329Y-101573351D01*
X84785465Y-101601522D01*
X84590776Y-101664781D01*
X84408386Y-101757715D01*
X84242786Y-101878028D01*
X84098028Y-102022786D01*
X83977715Y-102188386D01*
X83884781Y-102370776D01*
X83821522Y-102565465D01*
X83789500Y-102767648D01*
X66040000Y-102767648D01*
X66040000Y-100227648D01*
X66644500Y-100227648D01*
X66644500Y-100432351D01*
X66676522Y-100634534D01*
X66739781Y-100829223D01*
X66791132Y-100930003D01*
X66808964Y-100965001D01*
X66832715Y-101011613D01*
X66953028Y-101177213D01*
X67097786Y-101321971D01*
X67210480Y-101403846D01*
X67263390Y-101442287D01*
X67379607Y-101501503D01*
X67445776Y-101535218D01*
X67445778Y-101535218D01*
X67445781Y-101535220D01*
X67537459Y-101565008D01*
X67640465Y-101598477D01*
X67659697Y-101601523D01*
X67842648Y-101630500D01*
X67842649Y-101630500D01*
X68047351Y-101630500D01*
X68047352Y-101630500D01*
X68249534Y-101598477D01*
X68444219Y-101535220D01*
X68626610Y-101442287D01*
X68696913Y-101391208D01*
X68762717Y-101367729D01*
X68830771Y-101383554D01*
X68857478Y-101403846D01*
X68926344Y-101472712D01*
X69075666Y-101564814D01*
X69242203Y-101619999D01*
X69344991Y-101630500D01*
X70545008Y-101630499D01*
X70647797Y-101619999D01*
X70814334Y-101564814D01*
X70963656Y-101472712D01*
X71087712Y-101348656D01*
X71179814Y-101199334D01*
X71234999Y-101032797D01*
X71245500Y-100930009D01*
X71245500Y-100758711D01*
X140727000Y-100758711D01*
X140727000Y-101001288D01*
X140754556Y-101210606D01*
X140758662Y-101241789D01*
X140787297Y-101348656D01*
X140821447Y-101476104D01*
X140910428Y-101690922D01*
X140914276Y-101700212D01*
X141035564Y-101910289D01*
X141035566Y-101910292D01*
X141035567Y-101910293D01*
X141183233Y-102102736D01*
X141183239Y-102102743D01*
X141354756Y-102274260D01*
X141354763Y-102274266D01*
X141447210Y-102345203D01*
X141547211Y-102421936D01*
X141757288Y-102543224D01*
X141981400Y-102636054D01*
X142215711Y-102698838D01*
X142376440Y-102719998D01*
X142456211Y-102730500D01*
X142456212Y-102730500D01*
X142698789Y-102730500D01*
X142778552Y-102719999D01*
X142939289Y-102698838D01*
X143173600Y-102636054D01*
X143397712Y-102543224D01*
X143607789Y-102421936D01*
X143800238Y-102274265D01*
X143971765Y-102102738D01*
X144119436Y-101910289D01*
X144240724Y-101700212D01*
X144333554Y-101476100D01*
X144396338Y-101241789D01*
X144428000Y-101001288D01*
X144428000Y-100758712D01*
X144396338Y-100518211D01*
X144333554Y-100283900D01*
X144333450Y-100283650D01*
X144255585Y-100095666D01*
X144240724Y-100059788D01*
X144119436Y-99849711D01*
X144104907Y-99830776D01*
X144083073Y-99802321D01*
X144027567Y-99729984D01*
X144687000Y-99729984D01*
X144687000Y-102030015D01*
X144697500Y-102132795D01*
X144697501Y-102132797D01*
X144715923Y-102188390D01*
X144752686Y-102299335D01*
X144752687Y-102299337D01*
X144844786Y-102448651D01*
X144844789Y-102448655D01*
X144968844Y-102572710D01*
X144968848Y-102572713D01*
X145118162Y-102664812D01*
X145118164Y-102664813D01*
X145118166Y-102664814D01*
X145284703Y-102719999D01*
X145387492Y-102730500D01*
X145387497Y-102730500D01*
X147687503Y-102730500D01*
X147687508Y-102730500D01*
X147790297Y-102719999D01*
X147956834Y-102664814D01*
X148106155Y-102572711D01*
X148230211Y-102448655D01*
X148322314Y-102299334D01*
X148377499Y-102132797D01*
X148388000Y-102030008D01*
X148388000Y-99729992D01*
X148377499Y-99627203D01*
X148322314Y-99460666D01*
X148322313Y-99460664D01*
X148322312Y-99460662D01*
X148230213Y-99311348D01*
X148230210Y-99311344D01*
X148106155Y-99187289D01*
X148106151Y-99187286D01*
X147956837Y-99095187D01*
X147956835Y-99095186D01*
X147855243Y-99061522D01*
X147790297Y-99040001D01*
X147790295Y-99040000D01*
X147687515Y-99029500D01*
X147687508Y-99029500D01*
X145387492Y-99029500D01*
X145387484Y-99029500D01*
X145284704Y-99040000D01*
X145284703Y-99040001D01*
X145118164Y-99095186D01*
X145118162Y-99095187D01*
X144968848Y-99187286D01*
X144968844Y-99187289D01*
X144844789Y-99311344D01*
X144844786Y-99311348D01*
X144752687Y-99460662D01*
X144752686Y-99460664D01*
X144697501Y-99627203D01*
X144697500Y-99627204D01*
X144687000Y-99729984D01*
X144027567Y-99729984D01*
X143971766Y-99657263D01*
X143971760Y-99657256D01*
X143800243Y-99485739D01*
X143800236Y-99485733D01*
X143607793Y-99338067D01*
X143607792Y-99338066D01*
X143607789Y-99338064D01*
X143425311Y-99232710D01*
X143397714Y-99216777D01*
X143397705Y-99216773D01*
X143173604Y-99123947D01*
X142940636Y-99061523D01*
X142939289Y-99061162D01*
X142939288Y-99061161D01*
X142939285Y-99061161D01*
X142698789Y-99029500D01*
X142698788Y-99029500D01*
X142456212Y-99029500D01*
X142456211Y-99029500D01*
X142215714Y-99061161D01*
X141981395Y-99123947D01*
X141757294Y-99216773D01*
X141757285Y-99216777D01*
X141622950Y-99294336D01*
X141547274Y-99338028D01*
X141547206Y-99338067D01*
X141354763Y-99485733D01*
X141354756Y-99485739D01*
X141183239Y-99657256D01*
X141183233Y-99657263D01*
X141035567Y-99849706D01*
X140914277Y-100059785D01*
X140914273Y-100059794D01*
X140821447Y-100283895D01*
X140758661Y-100518214D01*
X140727000Y-100758711D01*
X71245500Y-100758711D01*
X71245499Y-100283900D01*
X71245499Y-99729998D01*
X71245498Y-99729981D01*
X71234999Y-99627203D01*
X71234998Y-99627200D01*
X71220628Y-99583834D01*
X71179814Y-99460666D01*
X71087712Y-99311344D01*
X70963656Y-99187288D01*
X70836174Y-99108657D01*
X70814336Y-99095187D01*
X70814331Y-99095185D01*
X70812862Y-99094698D01*
X70647797Y-99040001D01*
X70647795Y-99040000D01*
X70545010Y-99029500D01*
X69344998Y-99029500D01*
X69344981Y-99029501D01*
X69242203Y-99040000D01*
X69242200Y-99040001D01*
X69075668Y-99095185D01*
X69075663Y-99095187D01*
X68926345Y-99187287D01*
X68857478Y-99256154D01*
X68796154Y-99289638D01*
X68726463Y-99284653D01*
X68696912Y-99268790D01*
X68626612Y-99217714D01*
X68626608Y-99217712D01*
X68444223Y-99124781D01*
X68249534Y-99061522D01*
X68074995Y-99033878D01*
X68047352Y-99029500D01*
X67842648Y-99029500D01*
X67818329Y-99033351D01*
X67640465Y-99061522D01*
X67445776Y-99124781D01*
X67263386Y-99217715D01*
X67097786Y-99338028D01*
X66953028Y-99482786D01*
X66832715Y-99648386D01*
X66739781Y-99830776D01*
X66676522Y-100025465D01*
X66644500Y-100227648D01*
X66040000Y-100227648D01*
X66040000Y-96254982D01*
X81584500Y-96254982D01*
X81584500Y-98055017D01*
X81595000Y-98157796D01*
X81629955Y-98263283D01*
X81650186Y-98324335D01*
X81742288Y-98473656D01*
X81866344Y-98597712D01*
X82015665Y-98689814D01*
X82182202Y-98744999D01*
X82284990Y-98755500D01*
X82284995Y-98755500D01*
X84085005Y-98755500D01*
X84085010Y-98755500D01*
X84187798Y-98744999D01*
X84354335Y-98689814D01*
X84503656Y-98597712D01*
X84627712Y-98473656D01*
X84719814Y-98324335D01*
X84774999Y-98157798D01*
X84785500Y-98055010D01*
X84785500Y-97029038D01*
X91744500Y-97029038D01*
X91744500Y-97280961D01*
X91783910Y-97529785D01*
X91861760Y-97769383D01*
X91976132Y-97993848D01*
X92124201Y-98197649D01*
X92124205Y-98197654D01*
X92302345Y-98375794D01*
X92302350Y-98375798D01*
X92475431Y-98501548D01*
X92506155Y-98523870D01*
X92649184Y-98596747D01*
X92730616Y-98638239D01*
X92730618Y-98638239D01*
X92730621Y-98638241D01*
X92970215Y-98716090D01*
X93219038Y-98755500D01*
X93219039Y-98755500D01*
X93470961Y-98755500D01*
X93470962Y-98755500D01*
X93719785Y-98716090D01*
X93959379Y-98638241D01*
X94183845Y-98523870D01*
X94387656Y-98375793D01*
X94565793Y-98197656D01*
X94713870Y-97993845D01*
X94828241Y-97769379D01*
X94906090Y-97529785D01*
X94945500Y-97280962D01*
X94945500Y-97029038D01*
X94906090Y-96780215D01*
X94828241Y-96540621D01*
X94828239Y-96540618D01*
X94828239Y-96540616D01*
X94767357Y-96421130D01*
X94713870Y-96316155D01*
X94650483Y-96228910D01*
X94565798Y-96112350D01*
X94565794Y-96112345D01*
X94387654Y-95934205D01*
X94387649Y-95934201D01*
X94183848Y-95786132D01*
X94183847Y-95786131D01*
X94183845Y-95786130D01*
X94113747Y-95750413D01*
X93959383Y-95671760D01*
X93719785Y-95593910D01*
X93470962Y-95554500D01*
X93219038Y-95554500D01*
X93152738Y-95565001D01*
X92970214Y-95593910D01*
X92730616Y-95671760D01*
X92506151Y-95786132D01*
X92302350Y-95934201D01*
X92302345Y-95934205D01*
X92124205Y-96112345D01*
X92124201Y-96112350D01*
X91976132Y-96316151D01*
X91861760Y-96540616D01*
X91783910Y-96780214D01*
X91744500Y-97029038D01*
X84785500Y-97029038D01*
X84785500Y-96254990D01*
X84774999Y-96152202D01*
X84719814Y-95985665D01*
X84627712Y-95836344D01*
X84503656Y-95712288D01*
X84354335Y-95620186D01*
X84187798Y-95565001D01*
X84187796Y-95565000D01*
X84085017Y-95554500D01*
X84085010Y-95554500D01*
X82284990Y-95554500D01*
X82284982Y-95554500D01*
X82182203Y-95565000D01*
X82182202Y-95565001D01*
X82099669Y-95592349D01*
X82015667Y-95620185D01*
X82015662Y-95620187D01*
X81866342Y-95712289D01*
X81742289Y-95836342D01*
X81650187Y-95985662D01*
X81650186Y-95985665D01*
X81595001Y-96152202D01*
X81595001Y-96152203D01*
X81595000Y-96152203D01*
X81584500Y-96254982D01*
X66040000Y-96254982D01*
X66040000Y-91744675D01*
X66041527Y-91725277D01*
X66061731Y-91597715D01*
X66070500Y-91542352D01*
X66070500Y-91337648D01*
X71089500Y-91337648D01*
X71089500Y-91542351D01*
X71121522Y-91744534D01*
X71184781Y-91939223D01*
X71277715Y-92121613D01*
X71398028Y-92287213D01*
X71542786Y-92431971D01*
X71697749Y-92544556D01*
X71708390Y-92552287D01*
X71824607Y-92611503D01*
X71890776Y-92645218D01*
X71890778Y-92645218D01*
X71890781Y-92645220D01*
X71995137Y-92679127D01*
X72085465Y-92708477D01*
X72186557Y-92724488D01*
X72287648Y-92740500D01*
X72287649Y-92740500D01*
X72492351Y-92740500D01*
X72492352Y-92740500D01*
X72694534Y-92708477D01*
X72889219Y-92645220D01*
X73071610Y-92552287D01*
X73164590Y-92484732D01*
X73237213Y-92431971D01*
X73237215Y-92431968D01*
X73237219Y-92431966D01*
X73381966Y-92287219D01*
X73381968Y-92287215D01*
X73381971Y-92287213D01*
X73437503Y-92210778D01*
X73502287Y-92121610D01*
X73595220Y-91939219D01*
X73658477Y-91744534D01*
X73690500Y-91542352D01*
X73690500Y-91337648D01*
X73658477Y-91135466D01*
X73595220Y-90940781D01*
X73595218Y-90940778D01*
X73595218Y-90940776D01*
X73561503Y-90874607D01*
X73502287Y-90758390D01*
X73444394Y-90678706D01*
X73381971Y-90592786D01*
X73237213Y-90448028D01*
X73071613Y-90327715D01*
X73071612Y-90327714D01*
X73071610Y-90327713D01*
X73006573Y-90294575D01*
X72889223Y-90234781D01*
X72694534Y-90171522D01*
X72519995Y-90143878D01*
X72492352Y-90139500D01*
X72287648Y-90139500D01*
X72263329Y-90143351D01*
X72085465Y-90171522D01*
X71890776Y-90234781D01*
X71708386Y-90327715D01*
X71542786Y-90448028D01*
X71398028Y-90592786D01*
X71277715Y-90758386D01*
X71184781Y-90940776D01*
X71121522Y-91135465D01*
X71089500Y-91337648D01*
X66070500Y-91337648D01*
X66041453Y-91154254D01*
X66041476Y-91154078D01*
X66040000Y-91135324D01*
X66040000Y-89410441D01*
X82554500Y-89410441D01*
X82554500Y-89659558D01*
X82554501Y-89659575D01*
X82587017Y-89906561D01*
X82651498Y-90147207D01*
X82746830Y-90377361D01*
X82746837Y-90377376D01*
X82871400Y-90593126D01*
X83023060Y-90790774D01*
X83023066Y-90790781D01*
X83199218Y-90966933D01*
X83199225Y-90966939D01*
X83396873Y-91118599D01*
X83612623Y-91243162D01*
X83612638Y-91243169D01*
X83711825Y-91284253D01*
X83842793Y-91338502D01*
X84083435Y-91402982D01*
X84330435Y-91435500D01*
X84330442Y-91435500D01*
X84579558Y-91435500D01*
X84579565Y-91435500D01*
X84826565Y-91402982D01*
X85067207Y-91338502D01*
X85297373Y-91243164D01*
X85513127Y-91118599D01*
X85570422Y-91074635D01*
X100419500Y-91074635D01*
X100419500Y-93075370D01*
X100419501Y-93075376D01*
X100425908Y-93134983D01*
X100476202Y-93269828D01*
X100476206Y-93269835D01*
X100562452Y-93385044D01*
X100562455Y-93385047D01*
X100677664Y-93471293D01*
X100677669Y-93471296D01*
X100705539Y-93481690D01*
X100761473Y-93523561D01*
X100785891Y-93589024D01*
X100771040Y-93657298D01*
X100762526Y-93670756D01*
X100732212Y-93712480D01*
X100629783Y-93853461D01*
X100525950Y-94057244D01*
X100455278Y-94274750D01*
X100455278Y-94274753D01*
X100419500Y-94500646D01*
X100419500Y-94729353D01*
X100455278Y-94955246D01*
X100455278Y-94955249D01*
X100525950Y-95172755D01*
X100589058Y-95296610D01*
X100629783Y-95376538D01*
X100764214Y-95561566D01*
X100925934Y-95723286D01*
X100995423Y-95773773D01*
X101010438Y-95784682D01*
X101053103Y-95840013D01*
X101059082Y-95909626D01*
X101026476Y-95971421D01*
X101010438Y-95985318D01*
X100925932Y-96046715D01*
X100764216Y-96208431D01*
X100764216Y-96208432D01*
X100764214Y-96208434D01*
X100730247Y-96255186D01*
X100629783Y-96393461D01*
X100525950Y-96597244D01*
X100455278Y-96814750D01*
X100455278Y-96814753D01*
X100455278Y-96814755D01*
X100419500Y-97040646D01*
X100419500Y-97269354D01*
X100421339Y-97280962D01*
X100455278Y-97495246D01*
X100455278Y-97495249D01*
X100525950Y-97712755D01*
X100583138Y-97824992D01*
X100629783Y-97916538D01*
X100764214Y-98101566D01*
X100925934Y-98263286D01*
X101110962Y-98397717D01*
X101260001Y-98473656D01*
X101314744Y-98501549D01*
X101532251Y-98572221D01*
X101532252Y-98572221D01*
X101532255Y-98572222D01*
X101758146Y-98608000D01*
X101758147Y-98608000D01*
X102081853Y-98608000D01*
X102081854Y-98608000D01*
X102307745Y-98572222D01*
X102307748Y-98572221D01*
X102307749Y-98572221D01*
X102525255Y-98501549D01*
X102525255Y-98501548D01*
X102525258Y-98501548D01*
X102729038Y-98397717D01*
X102914066Y-98263286D01*
X103075786Y-98101566D01*
X103210217Y-97916538D01*
X103314048Y-97712758D01*
X103353609Y-97591002D01*
X103384721Y-97495249D01*
X103384721Y-97495248D01*
X103384722Y-97495245D01*
X103420500Y-97269354D01*
X103420500Y-97040646D01*
X103384722Y-96814755D01*
X103384721Y-96814751D01*
X103384721Y-96814750D01*
X103314049Y-96597244D01*
X103285198Y-96540621D01*
X103210217Y-96393462D01*
X103075786Y-96208434D01*
X102914066Y-96046714D01*
X102829559Y-95985316D01*
X102786896Y-95929988D01*
X102780917Y-95860375D01*
X102813523Y-95798580D01*
X102829556Y-95784685D01*
X102914066Y-95723286D01*
X103075786Y-95561566D01*
X103210217Y-95376538D01*
X103314048Y-95172758D01*
X103333067Y-95114223D01*
X103384721Y-94955249D01*
X103384721Y-94955248D01*
X103384722Y-94955245D01*
X103420500Y-94729354D01*
X103420500Y-94500646D01*
X103384722Y-94274755D01*
X103384721Y-94274751D01*
X103384721Y-94274750D01*
X103314049Y-94057244D01*
X103284881Y-93999998D01*
X103210217Y-93853462D01*
X103077472Y-93670755D01*
X103053994Y-93604953D01*
X103069819Y-93536899D01*
X103119925Y-93488204D01*
X103134455Y-93481692D01*
X103162331Y-93471296D01*
X103277546Y-93385046D01*
X103363796Y-93269831D01*
X103414091Y-93134983D01*
X103420500Y-93075373D01*
X103420499Y-91074635D01*
X186144500Y-91074635D01*
X186144500Y-93075370D01*
X186144501Y-93075376D01*
X186150908Y-93134983D01*
X186201202Y-93269828D01*
X186201206Y-93269835D01*
X186287452Y-93385044D01*
X186287455Y-93385047D01*
X186402664Y-93471293D01*
X186402669Y-93471296D01*
X186430539Y-93481690D01*
X186486473Y-93523561D01*
X186510891Y-93589024D01*
X186496040Y-93657298D01*
X186487526Y-93670756D01*
X186457212Y-93712480D01*
X186354783Y-93853461D01*
X186250950Y-94057244D01*
X186180278Y-94274750D01*
X186180278Y-94274753D01*
X186144500Y-94500646D01*
X186144500Y-94729353D01*
X186180278Y-94955246D01*
X186180278Y-94955249D01*
X186250950Y-95172755D01*
X186314058Y-95296610D01*
X186354783Y-95376538D01*
X186489214Y-95561566D01*
X186650934Y-95723286D01*
X186720423Y-95773773D01*
X186735438Y-95784682D01*
X186778103Y-95840013D01*
X186784082Y-95909626D01*
X186751476Y-95971421D01*
X186735438Y-95985318D01*
X186650932Y-96046715D01*
X186489216Y-96208431D01*
X186489216Y-96208432D01*
X186489214Y-96208434D01*
X186455247Y-96255186D01*
X186354783Y-96393461D01*
X186250950Y-96597244D01*
X186180278Y-96814750D01*
X186180278Y-96814753D01*
X186180278Y-96814755D01*
X186144500Y-97040646D01*
X186144500Y-97269354D01*
X186146339Y-97280962D01*
X186180278Y-97495246D01*
X186180278Y-97495249D01*
X186250950Y-97712755D01*
X186308138Y-97824992D01*
X186354783Y-97916538D01*
X186489214Y-98101566D01*
X186650934Y-98263286D01*
X186835962Y-98397717D01*
X186985001Y-98473656D01*
X187039744Y-98501549D01*
X187257251Y-98572221D01*
X187257252Y-98572221D01*
X187257255Y-98572222D01*
X187483146Y-98608000D01*
X187483147Y-98608000D01*
X187806853Y-98608000D01*
X187806854Y-98608000D01*
X188032745Y-98572222D01*
X188032748Y-98572221D01*
X188032749Y-98572221D01*
X188250255Y-98501549D01*
X188250255Y-98501548D01*
X188250258Y-98501548D01*
X188454038Y-98397717D01*
X188639066Y-98263286D01*
X188800786Y-98101566D01*
X188935217Y-97916538D01*
X189039048Y-97712758D01*
X189054878Y-97664038D01*
X198424500Y-97664038D01*
X198424500Y-97915961D01*
X198463910Y-98164785D01*
X198541760Y-98404383D01*
X198656132Y-98628848D01*
X198804201Y-98832649D01*
X198804205Y-98832654D01*
X198982345Y-99010794D01*
X198982350Y-99010798D01*
X199143389Y-99127799D01*
X199186155Y-99158870D01*
X199299802Y-99216776D01*
X199410616Y-99273239D01*
X199410618Y-99273239D01*
X199410621Y-99273241D01*
X199650215Y-99351090D01*
X199899038Y-99390500D01*
X199899039Y-99390500D01*
X200150961Y-99390500D01*
X200150962Y-99390500D01*
X200399785Y-99351090D01*
X200639379Y-99273241D01*
X200863845Y-99158870D01*
X201067656Y-99010793D01*
X201245793Y-98832656D01*
X201393870Y-98628845D01*
X201508241Y-98404379D01*
X201586090Y-98164785D01*
X201625500Y-97915962D01*
X201625500Y-97664038D01*
X201586090Y-97415215D01*
X201508241Y-97175621D01*
X201508239Y-97175618D01*
X201508239Y-97175616D01*
X201393869Y-96951154D01*
X201393865Y-96951148D01*
X201349426Y-96889982D01*
X208584500Y-96889982D01*
X208584500Y-98690017D01*
X208595000Y-98792796D01*
X208650185Y-98959332D01*
X208650186Y-98959335D01*
X208742288Y-99108656D01*
X208866344Y-99232712D01*
X209015665Y-99324814D01*
X209182202Y-99379999D01*
X209284990Y-99390500D01*
X209284995Y-99390500D01*
X211085005Y-99390500D01*
X211085010Y-99390500D01*
X211187798Y-99379999D01*
X211354335Y-99324814D01*
X211503656Y-99232712D01*
X211627712Y-99108656D01*
X211719814Y-98959335D01*
X211774999Y-98792798D01*
X211785500Y-98690010D01*
X211785500Y-96889990D01*
X211774999Y-96787202D01*
X211719814Y-96620665D01*
X211627712Y-96471344D01*
X211503656Y-96347288D01*
X211354335Y-96255186D01*
X211187798Y-96200001D01*
X211187796Y-96200000D01*
X211085017Y-96189500D01*
X211085010Y-96189500D01*
X209284990Y-96189500D01*
X209284982Y-96189500D01*
X209182203Y-96200000D01*
X209182202Y-96200001D01*
X209099669Y-96227349D01*
X209015667Y-96255185D01*
X209015662Y-96255187D01*
X208866342Y-96347289D01*
X208742289Y-96471342D01*
X208650187Y-96620662D01*
X208650186Y-96620665D01*
X208595001Y-96787202D01*
X208595001Y-96787203D01*
X208595000Y-96787203D01*
X208584500Y-96889982D01*
X201349426Y-96889982D01*
X201245798Y-96747350D01*
X201245794Y-96747345D01*
X201067654Y-96569205D01*
X201067649Y-96569201D01*
X200863848Y-96421132D01*
X200863847Y-96421131D01*
X200863845Y-96421130D01*
X200793747Y-96385413D01*
X200639383Y-96306760D01*
X200399785Y-96228910D01*
X200150962Y-96189500D01*
X199899038Y-96189500D01*
X199832738Y-96200001D01*
X199650214Y-96228910D01*
X199410616Y-96306760D01*
X199186151Y-96421132D01*
X198982350Y-96569201D01*
X198982345Y-96569205D01*
X198804205Y-96747345D01*
X198804201Y-96747350D01*
X198656132Y-96951151D01*
X198541760Y-97175616D01*
X198463910Y-97415214D01*
X198424500Y-97664038D01*
X189054878Y-97664038D01*
X189066917Y-97626987D01*
X189068912Y-97620848D01*
X189109721Y-97495249D01*
X189109721Y-97495248D01*
X189109722Y-97495245D01*
X189145500Y-97269354D01*
X189145500Y-97040646D01*
X189109722Y-96814755D01*
X189109721Y-96814751D01*
X189109721Y-96814750D01*
X189039049Y-96597244D01*
X189010198Y-96540621D01*
X188935217Y-96393462D01*
X188800786Y-96208434D01*
X188639066Y-96046714D01*
X188554559Y-95985316D01*
X188511896Y-95929988D01*
X188505917Y-95860375D01*
X188538523Y-95798580D01*
X188554556Y-95784685D01*
X188639066Y-95723286D01*
X188800786Y-95561566D01*
X188935217Y-95376538D01*
X189039048Y-95172758D01*
X189058067Y-95114223D01*
X189109721Y-94955249D01*
X189109721Y-94955248D01*
X189109722Y-94955245D01*
X189145500Y-94729354D01*
X189145500Y-94512648D01*
X219679500Y-94512648D01*
X219679500Y-94717351D01*
X219711522Y-94919534D01*
X219774781Y-95114223D01*
X219867715Y-95296613D01*
X219988028Y-95462213D01*
X220132786Y-95606971D01*
X220277745Y-95712288D01*
X220298390Y-95727287D01*
X220411034Y-95784682D01*
X220480776Y-95820218D01*
X220480778Y-95820218D01*
X220480781Y-95820220D01*
X220530406Y-95836344D01*
X220675465Y-95883477D01*
X220776557Y-95899488D01*
X220877648Y-95915500D01*
X220877649Y-95915500D01*
X221082351Y-95915500D01*
X221082352Y-95915500D01*
X221284534Y-95883477D01*
X221479219Y-95820220D01*
X221661610Y-95727287D01*
X221809022Y-95620187D01*
X221827213Y-95606971D01*
X221827215Y-95606968D01*
X221827219Y-95606966D01*
X221971966Y-95462219D01*
X221971968Y-95462215D01*
X221971971Y-95462213D01*
X222034216Y-95376538D01*
X222092287Y-95296610D01*
X222185220Y-95114219D01*
X222248477Y-94919534D01*
X222280500Y-94717352D01*
X222280500Y-94512648D01*
X227299500Y-94512648D01*
X227299500Y-94717351D01*
X227331522Y-94919534D01*
X227394781Y-95114223D01*
X227487715Y-95296613D01*
X227608028Y-95462213D01*
X227752786Y-95606971D01*
X227897745Y-95712288D01*
X227918390Y-95727287D01*
X228031034Y-95784682D01*
X228100776Y-95820218D01*
X228100778Y-95820218D01*
X228100781Y-95820220D01*
X228150406Y-95836344D01*
X228295465Y-95883477D01*
X228396557Y-95899488D01*
X228497648Y-95915500D01*
X228497649Y-95915500D01*
X228702351Y-95915500D01*
X228702352Y-95915500D01*
X228904534Y-95883477D01*
X229099219Y-95820220D01*
X229281610Y-95727287D01*
X229429022Y-95620187D01*
X229447213Y-95606971D01*
X229447215Y-95606968D01*
X229447219Y-95606966D01*
X229591966Y-95462219D01*
X229591968Y-95462215D01*
X229591971Y-95462213D01*
X229654216Y-95376538D01*
X229712287Y-95296610D01*
X229805220Y-95114219D01*
X229868477Y-94919534D01*
X229900500Y-94717352D01*
X229900500Y-94512648D01*
X229868477Y-94310466D01*
X229805220Y-94115781D01*
X229805218Y-94115778D01*
X229805218Y-94115776D01*
X229771503Y-94049607D01*
X229712287Y-93933390D01*
X229683225Y-93893389D01*
X229591971Y-93767786D01*
X229447213Y-93623028D01*
X229281613Y-93502715D01*
X229281612Y-93502714D01*
X229281610Y-93502713D01*
X229219945Y-93471293D01*
X229099223Y-93409781D01*
X228904534Y-93346522D01*
X228729995Y-93318878D01*
X228702352Y-93314500D01*
X228497648Y-93314500D01*
X228473329Y-93318351D01*
X228295465Y-93346522D01*
X228100776Y-93409781D01*
X227918386Y-93502715D01*
X227752786Y-93623028D01*
X227608028Y-93767786D01*
X227487715Y-93933386D01*
X227394781Y-94115776D01*
X227331522Y-94310465D01*
X227299500Y-94512648D01*
X222280500Y-94512648D01*
X222248477Y-94310466D01*
X222185220Y-94115781D01*
X222185218Y-94115778D01*
X222185218Y-94115776D01*
X222151503Y-94049607D01*
X222092287Y-93933390D01*
X222063225Y-93893389D01*
X221971971Y-93767786D01*
X221827213Y-93623028D01*
X221661613Y-93502715D01*
X221661612Y-93502714D01*
X221661610Y-93502713D01*
X221599945Y-93471293D01*
X221479223Y-93409781D01*
X221284534Y-93346522D01*
X221109995Y-93318878D01*
X221082352Y-93314500D01*
X220877648Y-93314500D01*
X220853329Y-93318351D01*
X220675465Y-93346522D01*
X220480776Y-93409781D01*
X220298386Y-93502715D01*
X220132786Y-93623028D01*
X219988028Y-93767786D01*
X219867715Y-93933386D01*
X219774781Y-94115776D01*
X219711522Y-94310465D01*
X219679500Y-94512648D01*
X189145500Y-94512648D01*
X189145500Y-94500646D01*
X189109722Y-94274755D01*
X189109721Y-94274751D01*
X189109721Y-94274750D01*
X189039049Y-94057244D01*
X189009881Y-93999998D01*
X188935217Y-93853462D01*
X188802472Y-93670755D01*
X188778994Y-93604953D01*
X188794819Y-93536899D01*
X188844925Y-93488204D01*
X188859455Y-93481692D01*
X188887331Y-93471296D01*
X189002546Y-93385046D01*
X189088796Y-93269831D01*
X189139091Y-93134983D01*
X189145500Y-93075373D01*
X189145499Y-91074628D01*
X189139091Y-91015017D01*
X189138100Y-91012361D01*
X189088797Y-90880171D01*
X189088793Y-90880164D01*
X189002547Y-90764955D01*
X189002544Y-90764952D01*
X188887335Y-90678706D01*
X188887328Y-90678702D01*
X188752482Y-90628408D01*
X188752483Y-90628408D01*
X188692883Y-90622001D01*
X188692881Y-90622000D01*
X188692873Y-90622000D01*
X188692864Y-90622000D01*
X186597129Y-90622000D01*
X186597123Y-90622001D01*
X186537516Y-90628408D01*
X186402671Y-90678702D01*
X186402664Y-90678706D01*
X186287455Y-90764952D01*
X186287452Y-90764955D01*
X186201206Y-90880164D01*
X186201202Y-90880171D01*
X186150908Y-91015017D01*
X186144501Y-91074616D01*
X186144501Y-91074623D01*
X186144500Y-91074635D01*
X103420499Y-91074635D01*
X103420499Y-91074628D01*
X103414091Y-91015017D01*
X103413100Y-91012361D01*
X103363797Y-90880171D01*
X103363793Y-90880164D01*
X103277547Y-90764955D01*
X103277544Y-90764952D01*
X103162335Y-90678706D01*
X103162328Y-90678702D01*
X103027482Y-90628408D01*
X103027483Y-90628408D01*
X102967883Y-90622001D01*
X102967881Y-90622000D01*
X102967873Y-90622000D01*
X102967864Y-90622000D01*
X100872129Y-90622000D01*
X100872123Y-90622001D01*
X100812516Y-90628408D01*
X100677671Y-90678702D01*
X100677664Y-90678706D01*
X100562455Y-90764952D01*
X100562452Y-90764955D01*
X100476206Y-90880164D01*
X100476202Y-90880171D01*
X100425908Y-91015017D01*
X100419501Y-91074616D01*
X100419501Y-91074623D01*
X100419500Y-91074635D01*
X85570422Y-91074635D01*
X85648118Y-91015017D01*
X85702968Y-90972930D01*
X85702968Y-90972929D01*
X85710771Y-90966942D01*
X85710772Y-90966940D01*
X85710776Y-90966938D01*
X85886938Y-90790776D01*
X86038599Y-90593127D01*
X86163164Y-90377373D01*
X86258502Y-90147207D01*
X86285770Y-90045441D01*
X203204500Y-90045441D01*
X203204500Y-90294558D01*
X203204501Y-90294575D01*
X203237017Y-90541561D01*
X203301498Y-90782207D01*
X203396830Y-91012361D01*
X203396837Y-91012376D01*
X203521400Y-91228126D01*
X203673060Y-91425774D01*
X203673066Y-91425781D01*
X203849218Y-91601933D01*
X203849225Y-91601939D01*
X204046873Y-91753599D01*
X204262623Y-91878162D01*
X204262638Y-91878169D01*
X204361825Y-91919253D01*
X204492793Y-91973502D01*
X204733435Y-92037982D01*
X204980435Y-92070500D01*
X204980442Y-92070500D01*
X205229558Y-92070500D01*
X205229565Y-92070500D01*
X205476565Y-92037982D01*
X205717207Y-91973502D01*
X205947373Y-91878164D01*
X206163127Y-91753599D01*
X206360776Y-91601938D01*
X206536938Y-91425776D01*
X206688599Y-91228127D01*
X206813164Y-91012373D01*
X206908502Y-90782207D01*
X206972982Y-90541565D01*
X207005500Y-90294565D01*
X207005500Y-90045435D01*
X206972982Y-89798435D01*
X206908502Y-89557793D01*
X206833557Y-89376859D01*
X206813169Y-89327638D01*
X206813162Y-89327623D01*
X206688599Y-89111873D01*
X206536939Y-88914225D01*
X206536933Y-88914218D01*
X206360781Y-88738066D01*
X206360774Y-88738060D01*
X206163126Y-88586400D01*
X205947376Y-88461837D01*
X205947361Y-88461830D01*
X205717207Y-88366498D01*
X205511392Y-88311350D01*
X205476565Y-88302018D01*
X205476564Y-88302017D01*
X205476561Y-88302017D01*
X205229575Y-88269501D01*
X205229570Y-88269500D01*
X205229565Y-88269500D01*
X204980435Y-88269500D01*
X204980429Y-88269500D01*
X204980424Y-88269501D01*
X204733438Y-88302017D01*
X204492792Y-88366498D01*
X204262638Y-88461830D01*
X204262623Y-88461837D01*
X204046873Y-88586400D01*
X203849225Y-88738060D01*
X203849218Y-88738066D01*
X203673066Y-88914218D01*
X203673060Y-88914225D01*
X203521400Y-89111873D01*
X203396837Y-89327623D01*
X203396830Y-89327638D01*
X203301498Y-89557792D01*
X203237017Y-89798438D01*
X203204501Y-90045424D01*
X203204500Y-90045441D01*
X86285770Y-90045441D01*
X86322982Y-89906565D01*
X86355500Y-89659565D01*
X86355500Y-89410435D01*
X86322982Y-89163435D01*
X86258502Y-88922793D01*
X86218008Y-88825031D01*
X86170223Y-88709667D01*
X86163167Y-88692633D01*
X86163162Y-88692623D01*
X86038599Y-88476873D01*
X85886939Y-88279225D01*
X85886933Y-88279218D01*
X85710781Y-88103066D01*
X85710774Y-88103060D01*
X85513126Y-87951400D01*
X85297376Y-87826837D01*
X85297361Y-87826830D01*
X85067207Y-87731498D01*
X84826561Y-87667017D01*
X84665057Y-87645755D01*
X84579575Y-87634501D01*
X84579570Y-87634500D01*
X84579565Y-87634500D01*
X84330435Y-87634500D01*
X84330429Y-87634500D01*
X84330424Y-87634501D01*
X84083438Y-87667017D01*
X83842792Y-87731498D01*
X83612638Y-87826830D01*
X83612623Y-87826837D01*
X83396873Y-87951400D01*
X83199225Y-88103060D01*
X83199218Y-88103066D01*
X83023066Y-88279218D01*
X83023060Y-88279225D01*
X82871400Y-88476873D01*
X82746837Y-88692623D01*
X82746830Y-88692638D01*
X82651498Y-88922792D01*
X82587017Y-89163438D01*
X82554501Y-89410424D01*
X82554500Y-89410441D01*
X66040000Y-89410441D01*
X66040000Y-87527682D01*
X93990000Y-87527682D01*
X93990000Y-87732317D01*
X94022009Y-87934417D01*
X94085244Y-88129031D01*
X94178141Y-88311350D01*
X94178147Y-88311359D01*
X94210523Y-88355921D01*
X94210524Y-88355922D01*
X94890000Y-87676446D01*
X94890000Y-87682661D01*
X94917259Y-87784394D01*
X94969920Y-87875606D01*
X95044394Y-87950080D01*
X95135606Y-88002741D01*
X95237339Y-88030000D01*
X95243553Y-88030000D01*
X94564076Y-88709474D01*
X94608650Y-88741859D01*
X94790968Y-88834755D01*
X94985582Y-88897990D01*
X95187683Y-88930000D01*
X95392317Y-88930000D01*
X95594417Y-88897990D01*
X95789031Y-88834755D01*
X95971349Y-88741859D01*
X96015921Y-88709474D01*
X95336447Y-88030000D01*
X95342661Y-88030000D01*
X95444394Y-88002741D01*
X95535606Y-87950080D01*
X95610080Y-87875606D01*
X95662741Y-87784394D01*
X95690000Y-87682661D01*
X95690000Y-87676447D01*
X96369474Y-88355921D01*
X96401859Y-88311349D01*
X96429233Y-88257624D01*
X96477207Y-88206827D01*
X96545028Y-88190031D01*
X96611163Y-88212567D01*
X96650203Y-88257621D01*
X96677713Y-88311611D01*
X96798028Y-88477213D01*
X96942786Y-88621971D01*
X97063226Y-88709474D01*
X97108390Y-88742287D01*
X97224607Y-88801503D01*
X97290776Y-88835218D01*
X97290778Y-88835218D01*
X97290781Y-88835220D01*
X97395137Y-88869127D01*
X97485465Y-88898477D01*
X97584849Y-88914218D01*
X97687648Y-88930500D01*
X97687649Y-88930500D01*
X97892351Y-88930500D01*
X97892352Y-88930500D01*
X98094534Y-88898477D01*
X98289219Y-88835220D01*
X98471610Y-88742287D01*
X98564590Y-88674732D01*
X98637213Y-88621971D01*
X98637215Y-88621968D01*
X98637219Y-88621966D01*
X98781966Y-88477219D01*
X98781968Y-88477215D01*
X98781971Y-88477213D01*
X98861789Y-88367351D01*
X98902287Y-88311610D01*
X98995220Y-88129219D01*
X99058477Y-87934534D01*
X99090500Y-87732352D01*
X99090500Y-87527648D01*
X99073099Y-87417786D01*
X99058477Y-87325465D01*
X99002485Y-87153141D01*
X98995220Y-87130781D01*
X98995218Y-87130778D01*
X98995218Y-87130776D01*
X98929794Y-87002376D01*
X98902287Y-86948390D01*
X98902283Y-86948385D01*
X98902281Y-86948381D01*
X98855179Y-86883549D01*
X132009500Y-86883549D01*
X132009500Y-87106450D01*
X132009501Y-87106466D01*
X132038594Y-87327452D01*
X132038595Y-87327457D01*
X132038596Y-87327463D01*
X132095298Y-87539077D01*
X132096290Y-87542780D01*
X132096293Y-87542790D01*
X132181593Y-87748722D01*
X132181595Y-87748726D01*
X132293052Y-87941774D01*
X132293057Y-87941780D01*
X132293058Y-87941782D01*
X132428751Y-88118622D01*
X132428757Y-88118629D01*
X132586370Y-88276242D01*
X132586377Y-88276248D01*
X132632466Y-88311613D01*
X132763226Y-88411948D01*
X132956274Y-88523405D01*
X133162219Y-88608710D01*
X133377537Y-88666404D01*
X133598543Y-88695500D01*
X133598550Y-88695500D01*
X133821450Y-88695500D01*
X133821457Y-88695500D01*
X134042463Y-88666404D01*
X134257781Y-88608710D01*
X134463726Y-88523405D01*
X134656774Y-88411948D01*
X134833624Y-88276247D01*
X134991247Y-88118624D01*
X135126948Y-87941774D01*
X135238405Y-87748726D01*
X135323710Y-87542781D01*
X135381404Y-87327463D01*
X135410500Y-87106457D01*
X135410500Y-86883549D01*
X154509500Y-86883549D01*
X154509500Y-87106450D01*
X154509501Y-87106466D01*
X154538594Y-87327452D01*
X154538595Y-87327457D01*
X154538596Y-87327463D01*
X154595298Y-87539077D01*
X154596290Y-87542780D01*
X154596293Y-87542790D01*
X154681593Y-87748722D01*
X154681595Y-87748726D01*
X154793052Y-87941774D01*
X154793057Y-87941780D01*
X154793058Y-87941782D01*
X154928751Y-88118622D01*
X154928757Y-88118629D01*
X155086370Y-88276242D01*
X155086377Y-88276248D01*
X155132466Y-88311613D01*
X155263226Y-88411948D01*
X155456274Y-88523405D01*
X155662219Y-88608710D01*
X155877537Y-88666404D01*
X156098543Y-88695500D01*
X156098550Y-88695500D01*
X156321450Y-88695500D01*
X156321457Y-88695500D01*
X156542463Y-88666404D01*
X156757781Y-88608710D01*
X156963726Y-88523405D01*
X157156774Y-88411948D01*
X157333624Y-88276247D01*
X157447189Y-88162682D01*
X179060000Y-88162682D01*
X179060000Y-88367317D01*
X179092009Y-88569417D01*
X179155244Y-88764031D01*
X179248141Y-88946350D01*
X179248147Y-88946359D01*
X179280523Y-88990921D01*
X179280524Y-88990922D01*
X179960000Y-88311446D01*
X179960000Y-88317661D01*
X179987259Y-88419394D01*
X180039920Y-88510606D01*
X180114394Y-88585080D01*
X180205606Y-88637741D01*
X180307339Y-88665000D01*
X180313553Y-88665000D01*
X179634076Y-89344474D01*
X179678650Y-89376859D01*
X179860968Y-89469755D01*
X180055582Y-89532990D01*
X180257683Y-89565000D01*
X180462317Y-89565000D01*
X180664417Y-89532990D01*
X180859031Y-89469755D01*
X181041349Y-89376859D01*
X181085921Y-89344474D01*
X180406447Y-88665000D01*
X180412661Y-88665000D01*
X180514394Y-88637741D01*
X180605606Y-88585080D01*
X180680080Y-88510606D01*
X180732741Y-88419394D01*
X180760000Y-88317661D01*
X180760000Y-88311448D01*
X181439474Y-88990922D01*
X181439474Y-88990921D01*
X181471859Y-88946349D01*
X181499233Y-88892624D01*
X181547207Y-88841827D01*
X181615028Y-88825031D01*
X181681163Y-88847567D01*
X181720203Y-88892621D01*
X181747713Y-88946611D01*
X181868028Y-89112213D01*
X182012786Y-89256971D01*
X182110038Y-89327627D01*
X182178390Y-89377287D01*
X182294607Y-89436503D01*
X182360776Y-89470218D01*
X182360778Y-89470218D01*
X182360781Y-89470220D01*
X182465137Y-89504127D01*
X182555465Y-89533477D01*
X182656557Y-89549488D01*
X182757648Y-89565500D01*
X182757649Y-89565500D01*
X182962351Y-89565500D01*
X182962352Y-89565500D01*
X183164534Y-89533477D01*
X183359219Y-89470220D01*
X183541610Y-89377287D01*
X183634590Y-89309732D01*
X183707213Y-89256971D01*
X183707215Y-89256968D01*
X183707219Y-89256966D01*
X183851966Y-89112219D01*
X183851968Y-89112215D01*
X183851971Y-89112213D01*
X183904732Y-89039590D01*
X183972287Y-88946610D01*
X184065220Y-88764219D01*
X184128477Y-88569534D01*
X184160500Y-88367352D01*
X184160500Y-88162648D01*
X184139490Y-88030000D01*
X184128477Y-87960465D01*
X184085056Y-87826830D01*
X184065220Y-87765781D01*
X184065218Y-87765778D01*
X184065218Y-87765776D01*
X184022750Y-87682429D01*
X183972287Y-87583390D01*
X183942783Y-87542781D01*
X183851971Y-87417786D01*
X183707213Y-87273028D01*
X183541613Y-87152715D01*
X183541612Y-87152714D01*
X183541610Y-87152713D01*
X183484653Y-87123691D01*
X183359223Y-87059781D01*
X183164534Y-86996522D01*
X182989995Y-86968878D01*
X182962352Y-86964500D01*
X182757648Y-86964500D01*
X182733329Y-86968351D01*
X182555465Y-86996522D01*
X182360776Y-87059781D01*
X182178386Y-87152715D01*
X182012786Y-87273028D01*
X181868028Y-87417786D01*
X181747714Y-87583386D01*
X181720203Y-87637379D01*
X181672227Y-87688174D01*
X181604406Y-87704968D01*
X181538272Y-87682429D01*
X181499234Y-87637376D01*
X181471861Y-87583652D01*
X181439474Y-87539077D01*
X181439474Y-87539076D01*
X180760000Y-88218551D01*
X180760000Y-88212339D01*
X180732741Y-88110606D01*
X180680080Y-88019394D01*
X180605606Y-87944920D01*
X180514394Y-87892259D01*
X180412661Y-87865000D01*
X180406446Y-87865000D01*
X181085922Y-87185524D01*
X181085921Y-87185523D01*
X181041359Y-87153147D01*
X181041350Y-87153141D01*
X180859031Y-87060244D01*
X180664417Y-86997009D01*
X180462317Y-86965000D01*
X180257683Y-86965000D01*
X180055582Y-86997009D01*
X179860968Y-87060244D01*
X179678644Y-87153143D01*
X179634077Y-87185523D01*
X179634077Y-87185524D01*
X180313554Y-87865000D01*
X180307339Y-87865000D01*
X180205606Y-87892259D01*
X180114394Y-87944920D01*
X180039920Y-88019394D01*
X179987259Y-88110606D01*
X179960000Y-88212339D01*
X179960000Y-88218553D01*
X179280524Y-87539077D01*
X179280523Y-87539077D01*
X179248143Y-87583644D01*
X179155244Y-87765968D01*
X179092009Y-87960582D01*
X179060000Y-88162682D01*
X157447189Y-88162682D01*
X157491247Y-88118624D01*
X157626948Y-87941774D01*
X157738405Y-87748726D01*
X157823710Y-87542781D01*
X157881404Y-87327463D01*
X157910500Y-87106457D01*
X157910500Y-86883543D01*
X157881404Y-86662537D01*
X157823710Y-86447219D01*
X157814415Y-86424780D01*
X157745541Y-86258502D01*
X157738405Y-86241274D01*
X157626948Y-86048226D01*
X157491247Y-85871376D01*
X157491242Y-85871370D01*
X157333629Y-85713757D01*
X157333622Y-85713751D01*
X157308862Y-85694752D01*
X157185952Y-85600441D01*
X161929500Y-85600441D01*
X161929500Y-85849558D01*
X161929501Y-85849575D01*
X161955652Y-86048217D01*
X161962018Y-86096565D01*
X162000793Y-86241274D01*
X162026498Y-86337207D01*
X162121830Y-86567361D01*
X162121837Y-86567376D01*
X162246400Y-86783126D01*
X162398060Y-86980774D01*
X162398066Y-86980781D01*
X162574218Y-87156933D01*
X162574225Y-87156939D01*
X162771873Y-87308599D01*
X162987623Y-87433162D01*
X162987638Y-87433169D01*
X163086825Y-87474253D01*
X163217793Y-87528502D01*
X163458435Y-87592982D01*
X163705435Y-87625500D01*
X163705442Y-87625500D01*
X163954558Y-87625500D01*
X163954565Y-87625500D01*
X164201565Y-87592982D01*
X164442207Y-87528502D01*
X164672373Y-87433164D01*
X164888127Y-87308599D01*
X165085776Y-87156938D01*
X165261938Y-86980776D01*
X165413599Y-86783127D01*
X165538164Y-86567373D01*
X165633502Y-86337207D01*
X165697982Y-86096565D01*
X165730500Y-85849565D01*
X165730500Y-85600441D01*
X172089500Y-85600441D01*
X172089500Y-85849558D01*
X172089501Y-85849575D01*
X172115652Y-86048217D01*
X172122018Y-86096565D01*
X172160793Y-86241274D01*
X172186498Y-86337207D01*
X172281830Y-86567361D01*
X172281837Y-86567376D01*
X172406400Y-86783126D01*
X172558060Y-86980774D01*
X172558066Y-86980781D01*
X172734218Y-87156933D01*
X172734225Y-87156939D01*
X172931873Y-87308599D01*
X173147623Y-87433162D01*
X173147638Y-87433169D01*
X173246825Y-87474253D01*
X173377793Y-87528502D01*
X173618435Y-87592982D01*
X173865435Y-87625500D01*
X173865442Y-87625500D01*
X174114558Y-87625500D01*
X174114565Y-87625500D01*
X174361565Y-87592982D01*
X174602207Y-87528502D01*
X174832373Y-87433164D01*
X175048127Y-87308599D01*
X175245776Y-87156938D01*
X175250001Y-87152713D01*
X175257613Y-87145102D01*
X175421933Y-86980781D01*
X175421938Y-86980776D01*
X175573599Y-86783127D01*
X175698164Y-86567373D01*
X175793502Y-86337207D01*
X175857982Y-86096565D01*
X175890500Y-85849565D01*
X175890500Y-85600435D01*
X175857982Y-85353435D01*
X175793502Y-85112793D01*
X175698164Y-84882627D01*
X175667424Y-84829384D01*
X175573599Y-84666873D01*
X175421939Y-84469225D01*
X175421933Y-84469218D01*
X175245781Y-84293066D01*
X175245774Y-84293060D01*
X175048126Y-84141400D01*
X174832376Y-84016837D01*
X174832361Y-84016830D01*
X174602207Y-83921498D01*
X174361561Y-83857017D01*
X174114575Y-83824501D01*
X174114570Y-83824500D01*
X174114565Y-83824500D01*
X173865435Y-83824500D01*
X173865429Y-83824500D01*
X173865424Y-83824501D01*
X173618438Y-83857017D01*
X173377792Y-83921498D01*
X173147638Y-84016830D01*
X173147623Y-84016837D01*
X172931873Y-84141400D01*
X172734225Y-84293060D01*
X172734218Y-84293066D01*
X172558066Y-84469218D01*
X172558060Y-84469225D01*
X172406400Y-84666873D01*
X172281837Y-84882623D01*
X172281830Y-84882638D01*
X172186498Y-85112792D01*
X172122017Y-85353438D01*
X172089501Y-85600424D01*
X172089500Y-85600441D01*
X165730500Y-85600441D01*
X165730500Y-85600435D01*
X165697982Y-85353435D01*
X165633502Y-85112793D01*
X165538164Y-84882627D01*
X165507424Y-84829384D01*
X165413599Y-84666873D01*
X165261939Y-84469225D01*
X165261933Y-84469218D01*
X165085781Y-84293066D01*
X165085774Y-84293060D01*
X164888126Y-84141400D01*
X164672376Y-84016837D01*
X164672361Y-84016830D01*
X164442207Y-83921498D01*
X164201561Y-83857017D01*
X163954575Y-83824501D01*
X163954570Y-83824500D01*
X163954565Y-83824500D01*
X163705435Y-83824500D01*
X163705429Y-83824500D01*
X163705424Y-83824501D01*
X163458438Y-83857017D01*
X163217792Y-83921498D01*
X162987638Y-84016830D01*
X162987623Y-84016837D01*
X162771873Y-84141400D01*
X162574225Y-84293060D01*
X162574218Y-84293066D01*
X162398066Y-84469218D01*
X162398060Y-84469225D01*
X162246400Y-84666873D01*
X162121837Y-84882623D01*
X162121830Y-84882638D01*
X162026498Y-85112792D01*
X161962017Y-85353438D01*
X161929501Y-85600424D01*
X161929500Y-85600441D01*
X157185952Y-85600441D01*
X157156782Y-85578058D01*
X157156780Y-85578057D01*
X157156774Y-85578052D01*
X156963726Y-85466595D01*
X156963722Y-85466593D01*
X156757790Y-85381293D01*
X156757783Y-85381291D01*
X156757781Y-85381290D01*
X156542463Y-85323596D01*
X156542457Y-85323595D01*
X156542452Y-85323594D01*
X156321466Y-85294501D01*
X156321463Y-85294500D01*
X156321457Y-85294500D01*
X156098543Y-85294500D01*
X156098537Y-85294500D01*
X156098533Y-85294501D01*
X155877547Y-85323594D01*
X155877540Y-85323595D01*
X155877537Y-85323596D01*
X155766176Y-85353435D01*
X155662219Y-85381290D01*
X155662209Y-85381293D01*
X155456277Y-85466593D01*
X155456273Y-85466595D01*
X155263226Y-85578052D01*
X155263217Y-85578058D01*
X155086377Y-85713751D01*
X155086370Y-85713757D01*
X154928757Y-85871370D01*
X154928751Y-85871377D01*
X154793058Y-86048217D01*
X154793052Y-86048226D01*
X154681595Y-86241273D01*
X154681593Y-86241277D01*
X154596293Y-86447209D01*
X154596290Y-86447219D01*
X154538597Y-86662534D01*
X154538594Y-86662547D01*
X154509501Y-86883533D01*
X154509500Y-86883549D01*
X135410500Y-86883549D01*
X135410500Y-86883543D01*
X135381404Y-86662537D01*
X135323710Y-86447219D01*
X135314415Y-86424780D01*
X135245541Y-86258502D01*
X135238405Y-86241274D01*
X135126948Y-86048226D01*
X134991247Y-85871376D01*
X134991242Y-85871370D01*
X134833629Y-85713757D01*
X134833622Y-85713751D01*
X134656782Y-85578058D01*
X134656780Y-85578057D01*
X134656774Y-85578052D01*
X134463726Y-85466595D01*
X134463722Y-85466593D01*
X134257790Y-85381293D01*
X134257783Y-85381291D01*
X134257781Y-85381290D01*
X134042463Y-85323596D01*
X134042457Y-85323595D01*
X134042452Y-85323594D01*
X133821466Y-85294501D01*
X133821463Y-85294500D01*
X133821457Y-85294500D01*
X133598543Y-85294500D01*
X133598537Y-85294500D01*
X133598533Y-85294501D01*
X133377547Y-85323594D01*
X133377540Y-85323595D01*
X133377537Y-85323596D01*
X133266176Y-85353435D01*
X133162219Y-85381290D01*
X133162209Y-85381293D01*
X132956277Y-85466593D01*
X132956273Y-85466595D01*
X132763226Y-85578052D01*
X132763217Y-85578058D01*
X132586377Y-85713751D01*
X132586370Y-85713757D01*
X132428757Y-85871370D01*
X132428751Y-85871377D01*
X132293058Y-86048217D01*
X132293052Y-86048226D01*
X132181595Y-86241273D01*
X132181593Y-86241277D01*
X132096293Y-86447209D01*
X132096290Y-86447219D01*
X132038597Y-86662534D01*
X132038594Y-86662547D01*
X132009501Y-86883533D01*
X132009500Y-86883549D01*
X98855179Y-86883549D01*
X98781971Y-86782786D01*
X98637213Y-86638028D01*
X98471613Y-86517715D01*
X98471612Y-86517714D01*
X98471610Y-86517713D01*
X98414653Y-86488691D01*
X98289223Y-86424781D01*
X98094534Y-86361522D01*
X97919995Y-86333878D01*
X97892352Y-86329500D01*
X97687648Y-86329500D01*
X97663329Y-86333351D01*
X97485465Y-86361522D01*
X97290776Y-86424781D01*
X97108386Y-86517715D01*
X96942786Y-86638028D01*
X96798028Y-86782786D01*
X96677714Y-86948386D01*
X96650203Y-87002379D01*
X96602227Y-87053174D01*
X96534406Y-87069968D01*
X96468272Y-87047429D01*
X96429234Y-87002376D01*
X96401861Y-86948652D01*
X96369474Y-86904077D01*
X96369474Y-86904076D01*
X95690000Y-87583551D01*
X95690000Y-87577339D01*
X95662741Y-87475606D01*
X95610080Y-87384394D01*
X95535606Y-87309920D01*
X95444394Y-87257259D01*
X95342661Y-87230000D01*
X95336446Y-87230000D01*
X96015922Y-86550524D01*
X96015921Y-86550523D01*
X95971359Y-86518147D01*
X95971350Y-86518141D01*
X95789031Y-86425244D01*
X95594417Y-86362009D01*
X95392317Y-86330000D01*
X95187683Y-86330000D01*
X94985582Y-86362009D01*
X94790968Y-86425244D01*
X94608644Y-86518143D01*
X94564077Y-86550523D01*
X94564077Y-86550524D01*
X95243554Y-87230000D01*
X95237339Y-87230000D01*
X95135606Y-87257259D01*
X95044394Y-87309920D01*
X94969920Y-87384394D01*
X94917259Y-87475606D01*
X94890000Y-87577339D01*
X94890000Y-87583553D01*
X94210524Y-86904077D01*
X94210523Y-86904077D01*
X94178143Y-86948644D01*
X94085244Y-87130968D01*
X94022009Y-87325582D01*
X93990000Y-87527682D01*
X66040000Y-87527682D01*
X66040000Y-84330441D01*
X86999500Y-84330441D01*
X86999500Y-84579558D01*
X86999501Y-84579575D01*
X87020623Y-84740016D01*
X87032018Y-84826565D01*
X87040979Y-84860008D01*
X87096498Y-85067207D01*
X87191830Y-85297361D01*
X87191837Y-85297376D01*
X87316400Y-85513126D01*
X87468060Y-85710774D01*
X87468066Y-85710781D01*
X87644218Y-85886933D01*
X87644225Y-85886939D01*
X87841873Y-86038599D01*
X88057623Y-86163162D01*
X88057638Y-86163169D01*
X88156825Y-86204253D01*
X88287793Y-86258502D01*
X88528435Y-86322982D01*
X88775435Y-86355500D01*
X88775442Y-86355500D01*
X89024558Y-86355500D01*
X89024565Y-86355500D01*
X89271565Y-86322982D01*
X89512207Y-86258502D01*
X89742373Y-86163164D01*
X89958127Y-86038599D01*
X90155776Y-85886938D01*
X90331938Y-85710776D01*
X90483599Y-85513127D01*
X90608164Y-85297373D01*
X90703502Y-85067207D01*
X90767982Y-84826565D01*
X90800500Y-84579565D01*
X90800500Y-84330435D01*
X90767982Y-84083435D01*
X90703502Y-83842793D01*
X90608164Y-83612627D01*
X90594379Y-83588751D01*
X116745000Y-83588751D01*
X116745000Y-83831248D01*
X116745001Y-83831264D01*
X116776653Y-84071687D01*
X116839421Y-84305939D01*
X116932220Y-84529978D01*
X116932227Y-84529992D01*
X117053481Y-84740010D01*
X117122061Y-84829384D01*
X117840884Y-84110560D01*
X117841740Y-84112626D01*
X117934762Y-84251844D01*
X118053156Y-84370238D01*
X118192374Y-84463260D01*
X118194437Y-84464114D01*
X117475614Y-85182936D01*
X117475614Y-85182937D01*
X117564989Y-85251517D01*
X117564996Y-85251522D01*
X117775007Y-85372772D01*
X117775021Y-85372779D01*
X117999060Y-85465578D01*
X118233312Y-85528346D01*
X118473735Y-85559998D01*
X118473752Y-85560000D01*
X118716248Y-85560000D01*
X118716264Y-85559998D01*
X118956687Y-85528346D01*
X119190939Y-85465578D01*
X119414978Y-85372779D01*
X119414992Y-85372772D01*
X119625016Y-85251515D01*
X119714384Y-85182939D01*
X119714384Y-85182936D01*
X118995562Y-84464114D01*
X118997626Y-84463260D01*
X119136844Y-84370238D01*
X119255238Y-84251844D01*
X119348260Y-84112626D01*
X119349114Y-84110562D01*
X120067936Y-84829384D01*
X120067939Y-84829384D01*
X120136515Y-84740016D01*
X120257772Y-84529992D01*
X120257779Y-84529978D01*
X120350578Y-84305939D01*
X120413346Y-84071687D01*
X120444998Y-83831264D01*
X120445000Y-83831248D01*
X120445000Y-83588751D01*
X120444998Y-83588735D01*
X120413346Y-83348312D01*
X120350578Y-83114060D01*
X120257779Y-82890021D01*
X120257772Y-82890007D01*
X120136522Y-82679996D01*
X120136511Y-82679979D01*
X120099944Y-82632325D01*
X120099941Y-82632322D01*
X120067937Y-82590614D01*
X120067936Y-82590614D01*
X119349114Y-83309436D01*
X119348260Y-83307374D01*
X119255238Y-83168156D01*
X119136844Y-83049762D01*
X118997626Y-82956740D01*
X118995560Y-82955884D01*
X119391461Y-82559984D01*
X120704500Y-82559984D01*
X120704500Y-84860015D01*
X120715000Y-84962795D01*
X120715001Y-84962796D01*
X120770186Y-85129335D01*
X120770187Y-85129337D01*
X120862286Y-85278651D01*
X120862289Y-85278655D01*
X120986344Y-85402710D01*
X120986348Y-85402713D01*
X121135662Y-85494812D01*
X121135664Y-85494813D01*
X121135666Y-85494814D01*
X121302203Y-85549999D01*
X121404992Y-85560500D01*
X121404997Y-85560500D01*
X123705003Y-85560500D01*
X123705008Y-85560500D01*
X123807797Y-85549999D01*
X123974334Y-85494814D01*
X124123655Y-85402711D01*
X124247711Y-85278655D01*
X124339814Y-85129334D01*
X124394999Y-84962797D01*
X124405500Y-84860008D01*
X124405500Y-82559992D01*
X124394999Y-82457203D01*
X124339814Y-82290666D01*
X124306749Y-82237060D01*
X124247713Y-82141348D01*
X124247710Y-82141344D01*
X124123655Y-82017289D01*
X124123651Y-82017286D01*
X123974337Y-81925187D01*
X123974335Y-81925186D01*
X123830400Y-81877491D01*
X123807797Y-81870001D01*
X123807795Y-81870000D01*
X123705015Y-81859500D01*
X123705008Y-81859500D01*
X121404992Y-81859500D01*
X121404984Y-81859500D01*
X121302204Y-81870000D01*
X121302203Y-81870001D01*
X121135664Y-81925186D01*
X121135662Y-81925187D01*
X120986348Y-82017286D01*
X120986344Y-82017289D01*
X120862289Y-82141344D01*
X120862286Y-82141348D01*
X120770187Y-82290662D01*
X120770186Y-82290664D01*
X120715001Y-82457203D01*
X120715000Y-82457204D01*
X120704500Y-82559984D01*
X119391461Y-82559984D01*
X119714384Y-82237061D01*
X119625010Y-82168481D01*
X119414992Y-82047227D01*
X119414978Y-82047220D01*
X119190939Y-81954421D01*
X118956687Y-81891653D01*
X118716264Y-81860001D01*
X118716248Y-81860000D01*
X118473752Y-81860000D01*
X118473735Y-81860001D01*
X118233312Y-81891653D01*
X117999060Y-81954421D01*
X117775021Y-82047220D01*
X117775006Y-82047227D01*
X117564990Y-82168480D01*
X117475614Y-82237060D01*
X117475614Y-82237061D01*
X118194438Y-82955885D01*
X118192374Y-82956740D01*
X118053156Y-83049762D01*
X117934762Y-83168156D01*
X117841740Y-83307374D01*
X117840885Y-83309438D01*
X117122061Y-82590614D01*
X117122060Y-82590614D01*
X117053480Y-82679990D01*
X116932227Y-82890006D01*
X116932220Y-82890021D01*
X116839421Y-83114060D01*
X116776653Y-83348312D01*
X116745001Y-83588735D01*
X116745000Y-83588751D01*
X90594379Y-83588751D01*
X90483599Y-83396873D01*
X90331939Y-83199225D01*
X90331933Y-83199218D01*
X90155781Y-83023066D01*
X90155774Y-83023060D01*
X89958126Y-82871400D01*
X89742376Y-82746837D01*
X89742361Y-82746830D01*
X89512207Y-82651498D01*
X89271565Y-82587018D01*
X89271564Y-82587017D01*
X89271561Y-82587017D01*
X89024575Y-82554501D01*
X89024570Y-82554500D01*
X89024565Y-82554500D01*
X88775435Y-82554500D01*
X88775429Y-82554500D01*
X88775424Y-82554501D01*
X88528438Y-82587017D01*
X88287792Y-82651498D01*
X88057638Y-82746830D01*
X88057623Y-82746837D01*
X87841873Y-82871400D01*
X87644225Y-83023060D01*
X87644218Y-83023066D01*
X87468066Y-83199218D01*
X87468060Y-83199225D01*
X87316400Y-83396873D01*
X87191837Y-83612623D01*
X87191830Y-83612638D01*
X87096498Y-83842792D01*
X87032017Y-84083438D01*
X86999501Y-84330424D01*
X86999500Y-84330441D01*
X66040000Y-84330441D01*
X66040000Y-79203480D01*
X66040195Y-79196528D01*
X66045978Y-79093553D01*
X66058473Y-78871048D01*
X66060027Y-78857253D01*
X66114049Y-78539299D01*
X66117143Y-78525747D01*
X66160577Y-78374984D01*
X100115541Y-78374984D01*
X100115541Y-80375015D01*
X100126041Y-80477795D01*
X100126042Y-80477796D01*
X100181227Y-80644335D01*
X100181228Y-80644337D01*
X100273327Y-80793651D01*
X100273330Y-80793655D01*
X100397385Y-80917710D01*
X100397389Y-80917713D01*
X100546703Y-81009812D01*
X100546705Y-81009813D01*
X100546707Y-81009814D01*
X100713244Y-81064999D01*
X100816033Y-81075500D01*
X100816038Y-81075500D01*
X102816044Y-81075500D01*
X102816049Y-81075500D01*
X102918838Y-81064999D01*
X103085375Y-81009814D01*
X103234696Y-80917711D01*
X103358752Y-80793655D01*
X103450855Y-80644334D01*
X103506040Y-80477797D01*
X103516541Y-80375008D01*
X103516541Y-79263575D01*
X105116041Y-79263575D01*
X105116041Y-79486424D01*
X105145126Y-79707354D01*
X105145129Y-79707367D01*
X105202804Y-79922618D01*
X105288086Y-80128502D01*
X105288095Y-80128520D01*
X105399505Y-80321491D01*
X105399514Y-80321504D01*
X105450081Y-80387403D01*
X105450084Y-80387403D01*
X106251428Y-79586059D01*
X106256930Y-79606591D01*
X106335922Y-79743408D01*
X106447633Y-79855119D01*
X106584450Y-79934111D01*
X106604981Y-79939612D01*
X105803636Y-80740955D01*
X105803636Y-80740956D01*
X105869548Y-80791533D01*
X106062526Y-80902949D01*
X106062538Y-80902954D01*
X106268422Y-80988236D01*
X106483673Y-81045911D01*
X106483686Y-81045914D01*
X106704616Y-81075000D01*
X106927466Y-81075000D01*
X107148395Y-81045914D01*
X107148408Y-81045911D01*
X107363659Y-80988236D01*
X107569543Y-80902954D01*
X107569555Y-80902949D01*
X107762539Y-80791530D01*
X107828444Y-80740957D01*
X107828445Y-80740956D01*
X107027100Y-79939612D01*
X107047632Y-79934111D01*
X107184449Y-79855119D01*
X107296160Y-79743408D01*
X107375152Y-79606591D01*
X107380653Y-79586059D01*
X108181997Y-80387404D01*
X108181998Y-80387403D01*
X108232571Y-80321498D01*
X108338141Y-80138646D01*
X108343991Y-80128512D01*
X108343995Y-80128502D01*
X108429277Y-79922618D01*
X108486952Y-79707367D01*
X108486955Y-79707354D01*
X108516041Y-79486424D01*
X108516041Y-79263575D01*
X108486955Y-79042645D01*
X108486952Y-79042632D01*
X108429277Y-78827381D01*
X108359473Y-78658861D01*
X108359472Y-78658859D01*
X108343999Y-78621505D01*
X108343990Y-78621485D01*
X108340515Y-78615466D01*
X127640000Y-78615466D01*
X127640000Y-78864533D01*
X127672508Y-79111463D01*
X127736973Y-79352049D01*
X127832283Y-79582148D01*
X127832288Y-79582159D01*
X127956813Y-79797841D01*
X127956819Y-79797849D01*
X128031400Y-79895045D01*
X128824152Y-79102292D01*
X128831049Y-79118942D01*
X128918599Y-79249970D01*
X129030030Y-79361401D01*
X129161058Y-79448951D01*
X129177705Y-79455846D01*
X128384953Y-80248598D01*
X128482150Y-80323180D01*
X128482158Y-80323186D01*
X128697840Y-80447711D01*
X128697851Y-80447716D01*
X128927950Y-80543026D01*
X129168536Y-80607491D01*
X129415466Y-80640000D01*
X129664534Y-80640000D01*
X129911463Y-80607491D01*
X130152049Y-80543026D01*
X130382148Y-80447716D01*
X130382159Y-80447711D01*
X130597855Y-80323178D01*
X130695045Y-80248600D01*
X130695045Y-80248597D01*
X129902294Y-79455846D01*
X129918942Y-79448951D01*
X130049970Y-79361401D01*
X130161401Y-79249970D01*
X130248951Y-79118942D01*
X130255846Y-79102294D01*
X131048597Y-79895045D01*
X131048600Y-79895045D01*
X131123178Y-79797855D01*
X131247711Y-79582159D01*
X131247716Y-79582148D01*
X131343026Y-79352049D01*
X131407491Y-79111463D01*
X131440000Y-78864533D01*
X131440000Y-78615466D01*
X131410056Y-78388020D01*
X131410056Y-78388018D01*
X131408340Y-78374984D01*
X185069500Y-78374984D01*
X185069500Y-80375015D01*
X185080000Y-80477795D01*
X185080001Y-80477796D01*
X185135186Y-80644335D01*
X185135187Y-80644337D01*
X185227286Y-80793651D01*
X185227289Y-80793655D01*
X185351344Y-80917710D01*
X185351348Y-80917713D01*
X185500662Y-81009812D01*
X185500664Y-81009813D01*
X185500666Y-81009814D01*
X185667203Y-81064999D01*
X185769992Y-81075500D01*
X185769997Y-81075500D01*
X187770003Y-81075500D01*
X187770008Y-81075500D01*
X187872797Y-81064999D01*
X188039334Y-81009814D01*
X188188655Y-80917711D01*
X188312711Y-80793655D01*
X188404814Y-80644334D01*
X188459999Y-80477797D01*
X188470500Y-80375008D01*
X188470500Y-79263575D01*
X190070000Y-79263575D01*
X190070000Y-79486424D01*
X190099085Y-79707354D01*
X190099088Y-79707367D01*
X190156763Y-79922618D01*
X190242045Y-80128502D01*
X190242054Y-80128520D01*
X190353464Y-80321491D01*
X190353473Y-80321504D01*
X190404040Y-80387403D01*
X190404043Y-80387403D01*
X191205387Y-79586059D01*
X191210889Y-79606591D01*
X191289881Y-79743408D01*
X191401592Y-79855119D01*
X191538409Y-79934111D01*
X191558940Y-79939612D01*
X190757595Y-80740955D01*
X190757595Y-80740956D01*
X190823507Y-80791533D01*
X191016485Y-80902949D01*
X191016497Y-80902954D01*
X191222381Y-80988236D01*
X191437632Y-81045911D01*
X191437645Y-81045914D01*
X191658575Y-81075000D01*
X191881425Y-81075000D01*
X192102354Y-81045914D01*
X192102367Y-81045911D01*
X192317618Y-80988236D01*
X192523502Y-80902954D01*
X192523514Y-80902949D01*
X192716498Y-80791530D01*
X192782403Y-80740957D01*
X192782404Y-80740956D01*
X191981059Y-79939612D01*
X192001591Y-79934111D01*
X192138408Y-79855119D01*
X192250119Y-79743408D01*
X192329111Y-79606591D01*
X192334612Y-79586059D01*
X193135956Y-80387404D01*
X193135957Y-80387403D01*
X193186530Y-80321498D01*
X193297949Y-80128514D01*
X193297954Y-80128502D01*
X193383235Y-79922620D01*
X193393191Y-79885466D01*
X214635000Y-79885466D01*
X214635000Y-80134533D01*
X214667508Y-80381463D01*
X214731973Y-80622049D01*
X214827283Y-80852148D01*
X214827288Y-80852159D01*
X214951813Y-81067841D01*
X214951819Y-81067849D01*
X215026400Y-81165045D01*
X215819152Y-80372292D01*
X215826049Y-80388942D01*
X215913599Y-80519970D01*
X216025030Y-80631401D01*
X216156058Y-80718951D01*
X216172705Y-80725846D01*
X215379953Y-81518598D01*
X215477150Y-81593180D01*
X215477158Y-81593186D01*
X215692840Y-81717711D01*
X215692851Y-81717716D01*
X215922950Y-81813026D01*
X216163536Y-81877491D01*
X216410466Y-81910000D01*
X216659534Y-81910000D01*
X216906463Y-81877491D01*
X217147049Y-81813026D01*
X217377148Y-81717716D01*
X217377159Y-81717711D01*
X217592855Y-81593178D01*
X217690045Y-81518600D01*
X217690045Y-81518597D01*
X216897294Y-80725846D01*
X216913942Y-80718951D01*
X217044970Y-80631401D01*
X217156401Y-80519970D01*
X217243951Y-80388942D01*
X217250846Y-80372294D01*
X218043597Y-81165045D01*
X218043600Y-81165045D01*
X218118178Y-81067855D01*
X218242711Y-80852159D01*
X218242716Y-80852148D01*
X218338026Y-80622049D01*
X218402491Y-80381463D01*
X218435000Y-80134533D01*
X218435000Y-79885466D01*
X218402491Y-79638536D01*
X218338026Y-79397950D01*
X218242716Y-79167851D01*
X218242711Y-79167840D01*
X218118186Y-78952158D01*
X218118180Y-78952150D01*
X218043598Y-78854953D01*
X217250846Y-79647705D01*
X217243951Y-79631058D01*
X217156401Y-79500030D01*
X217044970Y-79388599D01*
X216913942Y-79301049D01*
X216897292Y-79294152D01*
X217690045Y-78501400D01*
X217592849Y-78426819D01*
X217592841Y-78426813D01*
X217377159Y-78302288D01*
X217377148Y-78302283D01*
X217147049Y-78206973D01*
X216906463Y-78142508D01*
X216659534Y-78110000D01*
X216410466Y-78110000D01*
X216163536Y-78142508D01*
X215922950Y-78206973D01*
X215692851Y-78302283D01*
X215692847Y-78302285D01*
X215477143Y-78426823D01*
X215379953Y-78501399D01*
X215379953Y-78501400D01*
X216172706Y-79294153D01*
X216156058Y-79301049D01*
X216025030Y-79388599D01*
X215913599Y-79500030D01*
X215826049Y-79631058D01*
X215819153Y-79647706D01*
X215026400Y-78854953D01*
X215026399Y-78854953D01*
X214951823Y-78952143D01*
X214827285Y-79167847D01*
X214827283Y-79167851D01*
X214731973Y-79397950D01*
X214667508Y-79638536D01*
X214635000Y-79885466D01*
X193393191Y-79885466D01*
X193402878Y-79849314D01*
X193402878Y-79849313D01*
X193440911Y-79707367D01*
X193440914Y-79707354D01*
X193470000Y-79486424D01*
X193470000Y-79263575D01*
X193440914Y-79042645D01*
X193440911Y-79042632D01*
X193383236Y-78827381D01*
X193297954Y-78621497D01*
X193297949Y-78621486D01*
X193292099Y-78611353D01*
X193186533Y-78428507D01*
X193135956Y-78362595D01*
X193135955Y-78362595D01*
X192334612Y-79163939D01*
X192329111Y-79143409D01*
X192250119Y-79006592D01*
X192138408Y-78894881D01*
X192001591Y-78815889D01*
X191981058Y-78810387D01*
X192782403Y-78009043D01*
X192782403Y-78009040D01*
X192716504Y-77958473D01*
X192716491Y-77958464D01*
X192523520Y-77847054D01*
X192523502Y-77847045D01*
X192317618Y-77761763D01*
X192102367Y-77704088D01*
X192102354Y-77704085D01*
X191881425Y-77675000D01*
X191658575Y-77675000D01*
X191437645Y-77704085D01*
X191437632Y-77704088D01*
X191222381Y-77761763D01*
X191016497Y-77847045D01*
X191016479Y-77847054D01*
X190823511Y-77958462D01*
X190757595Y-78009042D01*
X191558941Y-78810387D01*
X191538409Y-78815889D01*
X191401592Y-78894881D01*
X191289881Y-79006592D01*
X191210889Y-79143409D01*
X191205387Y-79163940D01*
X190404042Y-78362595D01*
X190353462Y-78428511D01*
X190242054Y-78621479D01*
X190242045Y-78621497D01*
X190156763Y-78827381D01*
X190099088Y-79042632D01*
X190099085Y-79042645D01*
X190070000Y-79263575D01*
X188470500Y-79263575D01*
X188470500Y-78374992D01*
X188459999Y-78272203D01*
X188404814Y-78105666D01*
X188312711Y-77956345D01*
X188188655Y-77832289D01*
X188188651Y-77832286D01*
X188039337Y-77740187D01*
X188039335Y-77740186D01*
X187956065Y-77712593D01*
X187872797Y-77685001D01*
X187872795Y-77685000D01*
X187770015Y-77674500D01*
X187770008Y-77674500D01*
X185769992Y-77674500D01*
X185769984Y-77674500D01*
X185667204Y-77685000D01*
X185667203Y-77685001D01*
X185500664Y-77740186D01*
X185500662Y-77740187D01*
X185351348Y-77832286D01*
X185351344Y-77832289D01*
X185227289Y-77956344D01*
X185227286Y-77956348D01*
X185135187Y-78105662D01*
X185135186Y-78105664D01*
X185080001Y-78272203D01*
X185080000Y-78272204D01*
X185069500Y-78374984D01*
X131408340Y-78374984D01*
X131407491Y-78368538D01*
X131343026Y-78127950D01*
X131247716Y-77897851D01*
X131247711Y-77897840D01*
X131123186Y-77682158D01*
X131123180Y-77682150D01*
X131048598Y-77584953D01*
X130255846Y-78377705D01*
X130248951Y-78361058D01*
X130161401Y-78230030D01*
X130049970Y-78118599D01*
X129918942Y-78031049D01*
X129902292Y-78024152D01*
X130695045Y-77231400D01*
X130597849Y-77156819D01*
X130597841Y-77156813D01*
X130382159Y-77032288D01*
X130382148Y-77032283D01*
X130152049Y-76936973D01*
X129911463Y-76872508D01*
X129664534Y-76840000D01*
X129415466Y-76840000D01*
X129168536Y-76872508D01*
X128927950Y-76936973D01*
X128697851Y-77032283D01*
X128697847Y-77032285D01*
X128482143Y-77156823D01*
X128384953Y-77231399D01*
X128384953Y-77231400D01*
X129177706Y-78024153D01*
X129161058Y-78031049D01*
X129030030Y-78118599D01*
X128918599Y-78230030D01*
X128831049Y-78361058D01*
X128824153Y-78377706D01*
X128031400Y-77584953D01*
X128031399Y-77584953D01*
X127956823Y-77682143D01*
X127832285Y-77897847D01*
X127832283Y-77897851D01*
X127736973Y-78127950D01*
X127672508Y-78368536D01*
X127640000Y-78615466D01*
X108340515Y-78615466D01*
X108232574Y-78428507D01*
X108181997Y-78362595D01*
X108181996Y-78362595D01*
X107380653Y-79163939D01*
X107375152Y-79143409D01*
X107296160Y-79006592D01*
X107184449Y-78894881D01*
X107047632Y-78815889D01*
X107027099Y-78810387D01*
X107828444Y-78009043D01*
X107828444Y-78009040D01*
X107762545Y-77958473D01*
X107762532Y-77958464D01*
X107569561Y-77847054D01*
X107569543Y-77847045D01*
X107363659Y-77761763D01*
X107148408Y-77704088D01*
X107148395Y-77704085D01*
X106927466Y-77675000D01*
X106704616Y-77675000D01*
X106483686Y-77704085D01*
X106483673Y-77704088D01*
X106268422Y-77761763D01*
X106062538Y-77847045D01*
X106062520Y-77847054D01*
X105869552Y-77958462D01*
X105803636Y-78009042D01*
X106604982Y-78810387D01*
X106584450Y-78815889D01*
X106447633Y-78894881D01*
X106335922Y-79006592D01*
X106256930Y-79143409D01*
X106251428Y-79163940D01*
X105450083Y-78362595D01*
X105399503Y-78428511D01*
X105288095Y-78621479D01*
X105288086Y-78621497D01*
X105202804Y-78827381D01*
X105145129Y-79042632D01*
X105145126Y-79042645D01*
X105116041Y-79263575D01*
X103516541Y-79263575D01*
X103516541Y-78374992D01*
X103506040Y-78272203D01*
X103450855Y-78105666D01*
X103358752Y-77956345D01*
X103234696Y-77832289D01*
X103234692Y-77832286D01*
X103085378Y-77740187D01*
X103085376Y-77740186D01*
X103002106Y-77712593D01*
X102918838Y-77685001D01*
X102918836Y-77685000D01*
X102816056Y-77674500D01*
X102816049Y-77674500D01*
X100816033Y-77674500D01*
X100816025Y-77674500D01*
X100713245Y-77685000D01*
X100713244Y-77685001D01*
X100546705Y-77740186D01*
X100546703Y-77740187D01*
X100397389Y-77832286D01*
X100397385Y-77832289D01*
X100273330Y-77956344D01*
X100273327Y-77956348D01*
X100181228Y-78105662D01*
X100181227Y-78105664D01*
X100126042Y-78272203D01*
X100126041Y-78272204D01*
X100115541Y-78374984D01*
X66160577Y-78374984D01*
X66206424Y-78215847D01*
X66211016Y-78202727D01*
X66241989Y-78127950D01*
X66334430Y-77904775D01*
X66340452Y-77892269D01*
X66496467Y-77609983D01*
X66503854Y-77598228D01*
X66690482Y-77335201D01*
X66699128Y-77324358D01*
X66914041Y-77083870D01*
X66923861Y-77074049D01*
X67164358Y-76859128D01*
X67175201Y-76850482D01*
X67438228Y-76663854D01*
X67449983Y-76656467D01*
X67732269Y-76500452D01*
X67744775Y-76494430D01*
X68042727Y-76371016D01*
X68055847Y-76366424D01*
X68365753Y-76277141D01*
X68379299Y-76274049D01*
X68697253Y-76220027D01*
X68711048Y-76218473D01*
X68999283Y-76202286D01*
X69036529Y-76200195D01*
X69043481Y-76200000D01*
X239525669Y-76200000D01*
X239532681Y-76200198D01*
G37*
%TD.AperFunction*%
%TD*%
M02*
