M48
; DRILL file {KiCad 9.0.7} date 2026-07-17T23:43:51-0700
; FORMAT={-:-/ absolute / metric / decimal}
; #@! TF.CreationDate,2026-07-17T23:43:51-07:00
; #@! TF.GenerationSoftware,Kicad,Pcbnew,9.0.7
; #@! TF.FileFunction,Plated,1,2,PTH
FMAT,2
METRIC
; #@! TA.AperFunction,Plated,PTH,ViaDrill
T1C0.300
; #@! TA.AperFunction,Plated,PTH,ViaDrill
T2C0.400
; #@! TA.AperFunction,Plated,PTH,ComponentDrill
T3C0.500
; #@! TA.AperFunction,Plated,PTH,ComponentDrill
T4C0.800
; #@! TA.AperFunction,Plated,PTH,ComponentDrill
T5C0.950
; #@! TA.AperFunction,Plated,PTH,ComponentDrill
T6C1.000
; #@! TA.AperFunction,Plated,PTH,ComponentDrill
T7C1.100
; #@! TA.AperFunction,Plated,PTH,ComponentDrill
T8C1.200
; #@! TA.AperFunction,Plated,PTH,ComponentDrill
T9C1.600
; #@! TA.AperFunction,Plated,PTH,ComponentDrill
T10C1.700
; #@! TA.AperFunction,Plated,PTH,ComponentDrill
T11C3.200
%
G90
G05
T1
X57.785Y-119.38
T2
X243.84Y-91.44
T3
X51.715Y-128.27
X52.418Y-126.573
X52.418Y-129.967
X52.845Y-78.74
X53.548Y-77.043
X53.548Y-80.437
X54.115Y-125.87
X54.115Y-130.67
X55.245Y-76.34
X55.245Y-81.14
X55.812Y-126.573
X55.812Y-129.967
X56.515Y-128.27
X56.942Y-77.043
X56.942Y-80.437
X57.645Y-78.74
X246.52Y-80.01
X246.52Y-127.635
X247.223Y-78.313
X247.223Y-81.707
X247.223Y-125.938
X247.223Y-129.332
X248.92Y-77.61
X248.92Y-82.41
X248.92Y-125.235
X248.92Y-130.035
X250.617Y-78.313
X250.617Y-81.707
X250.617Y-125.938
X250.617Y-129.332
X251.32Y-80.01
X251.32Y-127.635
T4
X53.435Y-97.425
X53.435Y-99.965
X53.435Y-102.505
X53.435Y-105.045
X53.435Y-107.585
X53.435Y-110.125
X53.435Y-112.665
X56.195Y-90.805
X58.195Y-90.805
X61.055Y-97.425
X61.055Y-99.965
X61.055Y-102.505
X61.055Y-105.045
X61.055Y-107.585
X61.055Y-110.125
X61.055Y-112.665
X64.77Y-91.44
X67.945Y-100.33
X68.682Y-116.84
X69.945Y-100.33
X72.39Y-91.44
X72.482Y-116.84
X85.09Y-102.87
X85.725Y-118.745
X92.71Y-102.87
X93.345Y-118.745
X95.29Y-87.63
X97.79Y-87.63
X180.36Y-88.265
X182.86Y-88.265
X200.66Y-102.87
X200.66Y-118.745
X208.28Y-102.87
X208.28Y-118.745
X220.98Y-94.615
X228.6Y-94.615
X229.775Y-100.965
X231.775Y-100.965
X234.855Y-92.71
X236.855Y-92.71
X239.395Y-98.425
X239.395Y-100.965
X239.395Y-103.505
X239.395Y-106.045
X239.395Y-108.585
X239.395Y-111.125
X239.395Y-113.665
X247.015Y-98.425
X247.015Y-100.965
X247.015Y-103.505
X247.015Y-106.045
X247.015Y-108.585
X247.015Y-111.125
X247.015Y-113.665
T5
X141.605Y-127.0
X144.105Y-127.0
X146.605Y-127.0
T6
X124.5Y-127.0
X127.0Y-127.0
T7
X67.945Y-109.22
X78.105Y-109.22
X83.185Y-97.155
X84.455Y-113.03
X93.345Y-97.155
X94.615Y-113.03
X101.92Y-92.075
X101.92Y-94.615
X101.92Y-97.155
X101.92Y-107.315
X101.92Y-109.855
X101.92Y-112.395
X187.325Y-107.95
X187.325Y-110.49
X187.325Y-113.03
X187.645Y-92.075
X187.645Y-94.615
X187.645Y-97.155
X200.025Y-97.79
X200.025Y-113.665
X210.185Y-97.79
X210.185Y-113.665
X218.44Y-109.855
X228.6Y-109.855
T8
X101.816Y-79.375
X106.816Y-79.375
X133.53Y-113.665
X133.71Y-86.995
X156.03Y-113.665
X156.21Y-86.995
X186.77Y-79.375
X191.77Y-79.375
T9
X84.455Y-89.535
X88.9Y-84.455
X117.475Y-109.855
X129.54Y-78.74
X163.83Y-85.725
X173.99Y-85.725
X205.105Y-90.17
X216.535Y-80.01
X226.06Y-73.025
T10
X118.595Y-83.71
X122.555Y-83.71
X142.577Y-100.88
X146.537Y-100.88
T11
X54.115Y-128.27
X55.245Y-78.74
X248.92Y-80.01
X248.92Y-127.635
M30
