%TF.GenerationSoftware,KiCad,Pcbnew,9.0.7*%
%TF.CreationDate,2026-07-17T23:43:54-07:00*%
%TF.ProjectId,PowerStage,506f7765-7253-4746-9167-652e6b696361,rev?*%
%TF.SameCoordinates,Original*%
%TF.FileFunction,Soldermask,Top*%
%TF.FilePolarity,Negative*%
%FSLAX46Y46*%
G04 Gerber Fmt 4.6, Leading zero omitted, Abs format (unit mm)*
G04 Created by KiCad (PCBNEW 9.0.7) date 2026-07-17 23:43:54*
%MOMM*%
%LPD*%
G01*
G04 APERTURE LIST*
G04 Aperture macros list*
%AMRoundRect*
0 Rectangle with rounded corners*
0 $1 Rounding radius*
0 $2 $3 $4 $5 $6 $7 $8 $9 X,Y pos of 4 corners*
0 Add a 4 corners polygon primitive as box body*
4,1,4,$2,$3,$4,$5,$6,$7,$8,$9,$2,$3,0*
0 Add four circle primitives for the rounded corners*
1,1,$1+$1,$2,$3*
1,1,$1+$1,$4,$5*
1,1,$1+$1,$6,$7*
1,1,$1+$1,$8,$9*
0 Add four rect primitives between the rounded corners*
20,1,$1+$1,$2,$3,$4,$5,0*
20,1,$1+$1,$4,$5,$6,$7,0*
20,1,$1+$1,$6,$7,$8,$9,0*
20,1,$1+$1,$8,$9,$2,$3,0*%
G04 Aperture macros list end*
%ADD10RoundRect,0.250001X1.099999X1.099999X-1.099999X1.099999X-1.099999X-1.099999X1.099999X-1.099999X0*%
%ADD11C,2.700000*%
%ADD12R,2.000000X1.905000*%
%ADD13O,2.000000X1.905000*%
%ADD14RoundRect,0.250000X-0.550000X-0.550000X0.550000X-0.550000X0.550000X0.550000X-0.550000X0.550000X0*%
%ADD15C,1.600000*%
%ADD16RoundRect,0.250000X0.600000X0.725000X-0.600000X0.725000X-0.600000X-0.725000X0.600000X-0.725000X0*%
%ADD17O,1.700000X1.950000*%
%ADD18C,2.800000*%
%ADD19RoundRect,0.249999X0.850001X0.850001X-0.850001X0.850001X-0.850001X-0.850001X0.850001X-0.850001X0*%
%ADD20C,2.200000*%
%ADD21RoundRect,0.250001X-0.949999X-0.949999X0.949999X-0.949999X0.949999X0.949999X-0.949999X0.949999X0*%
%ADD22C,2.400000*%
%ADD23R,2.900000X5.400000*%
%ADD24R,1.000000X1.500000*%
%ADD25RoundRect,0.250000X0.600000X0.750000X-0.600000X0.750000X-0.600000X-0.750000X0.600000X-0.750000X0*%
%ADD26O,1.700000X2.000000*%
%ADD27RoundRect,0.249999X-0.850001X-0.850001X0.850001X-0.850001X0.850001X0.850001X-0.850001X0.850001X0*%
%ADD28C,0.800000*%
%ADD29C,6.400000*%
%ADD30RoundRect,0.250000X0.550000X0.550000X-0.550000X0.550000X-0.550000X-0.550000X0.550000X-0.550000X0*%
G04 APERTURE END LIST*
%TO.C,ON/OFF*%
G36*
X56985000Y-118630000D02*
G01*
X57285000Y-118630000D01*
X57285000Y-120130000D01*
X56985000Y-120130000D01*
X56985000Y-118630000D01*
G37*
%TO.C,JP1*%
G36*
X243040000Y-90690000D02*
G01*
X243340000Y-90690000D01*
X243340000Y-92190000D01*
X243040000Y-92190000D01*
X243040000Y-90690000D01*
G37*
%TD*%
D10*
%TO.C,GNDPWR*%
X122555000Y-83710000D03*
D11*
X118595000Y-83710000D03*
%TD*%
D12*
%TO.C,Q4*%
X187325000Y-107950000D03*
D13*
X187325000Y-110490000D03*
X187325000Y-113030000D03*
%TD*%
D14*
%TO.C,C10*%
X234855000Y-92710000D03*
D15*
X236855000Y-92710000D03*
%TD*%
D12*
%TO.C,Q1*%
X101920000Y-92075000D03*
D13*
X101920000Y-94615000D03*
X101920000Y-97155000D03*
%TD*%
D16*
%TO.C,PWM GND !PWM*%
X146605000Y-127000000D03*
D17*
X144105000Y-127000000D03*
X141605000Y-127000000D03*
%TD*%
D15*
%TO.C,R3*%
X200660000Y-102870000D03*
X208280000Y-102870000D03*
%TD*%
%TO.C,R2*%
X85725000Y-118745000D03*
X93345000Y-118745000D03*
%TD*%
D18*
%TO.C,TP4*%
X129540000Y-78740000D03*
%TD*%
D19*
%TO.C,D5*%
X210185000Y-113665000D03*
D20*
X200025000Y-113665000D03*
%TD*%
D21*
%TO.C,C3*%
X186770000Y-79375000D03*
D22*
X191770000Y-79375000D03*
%TD*%
D18*
%TO.C,TP3*%
X117475000Y-109855000D03*
%TD*%
D23*
%TO.C,L1*%
X116970000Y-100965000D03*
X126870000Y-100965000D03*
%TD*%
D14*
%TO.C,C9*%
X229775000Y-100965000D03*
D15*
X231775000Y-100965000D03*
%TD*%
%TO.C,R4*%
X200660000Y-118745000D03*
X208280000Y-118745000D03*
%TD*%
D12*
%TO.C,Q2*%
X101920000Y-107315000D03*
D13*
X101920000Y-109855000D03*
X101920000Y-112395000D03*
%TD*%
D22*
%TO.C,C6*%
X133530000Y-113665000D03*
X156030000Y-113665000D03*
%TD*%
D24*
%TO.C,ON/OFF*%
X56485000Y-119380000D03*
X57785000Y-119380000D03*
%TD*%
D12*
%TO.C,Q3*%
X187645000Y-92075000D03*
D13*
X187645000Y-94615000D03*
X187645000Y-97155000D03*
%TD*%
D24*
%TO.C,JP1*%
X242540000Y-91440000D03*
X243840000Y-91440000D03*
%TD*%
D14*
%TO.C,C1*%
X56194888Y-90805000D03*
D15*
X58194888Y-90805000D03*
%TD*%
D25*
%TO.C,GND 12V*%
X127000000Y-127000000D03*
D26*
X124500000Y-127000000D03*
%TD*%
D27*
%TO.C,D3*%
X84455000Y-113030000D03*
D20*
X94615000Y-113030000D03*
%TD*%
D18*
%TO.C,TP5*%
X173990000Y-85725000D03*
%TD*%
D27*
%TO.C,D2*%
X83185000Y-97155000D03*
D20*
X93345000Y-97155000D03*
%TD*%
D15*
%TO.C,R5*%
X228600000Y-94615000D03*
X220980000Y-94615000D03*
%TD*%
%TO.C,R1*%
X85090000Y-102870000D03*
X92710000Y-102870000D03*
%TD*%
D19*
%TO.C,D1*%
X78105000Y-109220000D03*
D20*
X67945000Y-109220000D03*
%TD*%
D18*
%TO.C,TP2*%
X84455000Y-89535000D03*
%TD*%
%TO.C,TP8*%
X216535000Y-80010000D03*
%TD*%
D28*
%TO.C,H3*%
X246520000Y-127635000D03*
X247222944Y-125937944D03*
X247222944Y-129332056D03*
X248920000Y-125235000D03*
D29*
X248920000Y-127635000D03*
D28*
X248920000Y-130035000D03*
X250617056Y-125937944D03*
X250617056Y-129332056D03*
X251320000Y-127635000D03*
%TD*%
D15*
%TO.C,C11*%
X182860000Y-88265000D03*
X180360000Y-88265000D03*
%TD*%
D18*
%TO.C,TP9*%
X226060000Y-73025000D03*
%TD*%
D30*
%TO.C,U1*%
X61055000Y-112665000D03*
D15*
X61055000Y-110125000D03*
X61055000Y-107585000D03*
X61055000Y-105045000D03*
X61055000Y-102505000D03*
X61055000Y-99965000D03*
X61055000Y-97425000D03*
X53435000Y-97425000D03*
X53435000Y-99965000D03*
X53435000Y-102505000D03*
X53435000Y-105045000D03*
X53435000Y-107585000D03*
X53435000Y-110125000D03*
X53435000Y-112665000D03*
%TD*%
D21*
%TO.C,C2*%
X101816041Y-79375000D03*
D22*
X106816041Y-79375000D03*
%TD*%
D18*
%TO.C,TP7*%
X205105000Y-90170000D03*
%TD*%
%TO.C,TP6*%
X163830000Y-85725000D03*
%TD*%
%TO.C,TP1*%
X88900000Y-84455000D03*
%TD*%
D23*
%TO.C,L2*%
X165230000Y-100330000D03*
X175130000Y-100330000D03*
%TD*%
D22*
%TO.C,C4*%
X133710000Y-86995000D03*
X156210000Y-86995000D03*
%TD*%
D28*
%TO.C,H2*%
X52845000Y-78740000D03*
X53547944Y-77042944D03*
X53547944Y-80437056D03*
X55245000Y-76340000D03*
D29*
X55245000Y-78740000D03*
D28*
X55245000Y-81140000D03*
X56942056Y-77042944D03*
X56942056Y-80437056D03*
X57645000Y-78740000D03*
%TD*%
D15*
%TO.C,R6*%
X64770000Y-91440000D03*
X72390000Y-91440000D03*
%TD*%
D14*
%TO.C,C8*%
X68682349Y-116840000D03*
D15*
X72482349Y-116840000D03*
%TD*%
%TO.C,C7*%
X97790000Y-87630000D03*
X95290000Y-87630000D03*
%TD*%
D19*
%TO.C,D6*%
X228600000Y-109855000D03*
D20*
X218440000Y-109855000D03*
%TD*%
D28*
%TO.C,H4*%
X51715000Y-128270000D03*
X52417944Y-126572944D03*
X52417944Y-129967056D03*
X54115000Y-125870000D03*
D29*
X54115000Y-128270000D03*
D28*
X54115000Y-130670000D03*
X55812056Y-126572944D03*
X55812056Y-129967056D03*
X56515000Y-128270000D03*
%TD*%
D30*
%TO.C,C5*%
X69945000Y-100330000D03*
D15*
X67945000Y-100330000D03*
%TD*%
D19*
%TO.C,D4*%
X210185000Y-97790000D03*
D20*
X200025000Y-97790000D03*
%TD*%
D14*
%TO.C,U2*%
X239395000Y-98425000D03*
D15*
X239395000Y-100965000D03*
X239395000Y-103505000D03*
X239395000Y-106045000D03*
X239395000Y-108585000D03*
X239395000Y-111125000D03*
X239395000Y-113665000D03*
X247015000Y-113665000D03*
X247015000Y-111125000D03*
X247015000Y-108585000D03*
X247015000Y-106045000D03*
X247015000Y-103505000D03*
X247015000Y-100965000D03*
X247015000Y-98425000D03*
%TD*%
D10*
%TO.C,LS1*%
X146537500Y-100880000D03*
D11*
X142577500Y-100880000D03*
%TD*%
D28*
%TO.C,H1*%
X246520000Y-80010000D03*
X247222944Y-78312944D03*
X247222944Y-81707056D03*
X248920000Y-77610000D03*
D29*
X248920000Y-80010000D03*
D28*
X248920000Y-82410000D03*
X250617056Y-78312944D03*
X250617056Y-81707056D03*
X251320000Y-80010000D03*
%TD*%
M02*
