%TF.GenerationSoftware,KiCad,Pcbnew,9.0.7*%
%TF.CreationDate,2026-08-15T13:11:21-07:00*%
%TF.ProjectId,PowerStage,506f7765-7253-4746-9167-652e6b696361,rev?*%
%TF.SameCoordinates,Original*%
%TF.FileFunction,Copper,L2,Inr*%
%TF.FilePolarity,Positive*%
%FSLAX46Y46*%
G04 Gerber Fmt 4.6, Leading zero omitted, Abs format (unit mm)*
G04 Created by KiCad (PCBNEW 9.0.7) date 2026-08-15 13:11:21*
%MOMM*%
%LPD*%
G01*
G04 APERTURE LIST*
G04 Aperture macros list*
%AMRoundRect*
0 Rectangle with rounded corners*
0 $1 Rounding radius*
0 $2 $3 $4 $5 $6 $7 $8 $9 X,Y pos of 4 corners*
0 Add a 4 corners polygon primitive as box body*
4,1,4,$2,$3,$4,$5,$6,$7,$8,$9,$2,$3,0*
0 Add four circle primitives for the rounded corners*
1,1,$1+$1,$2,$3*
1,1,$1+$1,$4,$5*
1,1,$1+$1,$6,$7*
1,1,$1+$1,$8,$9*
0 Add four rect primitives between the rounded corners*
20,1,$1+$1,$2,$3,$4,$5,0*
20,1,$1+$1,$4,$5,$6,$7,0*
20,1,$1+$1,$6,$7,$8,$9,0*
20,1,$1+$1,$8,$9,$2,$3,0*%
G04 Aperture macros list end*
%TA.AperFunction,ComponentPad*%
%ADD10RoundRect,0.250000X-0.550000X-0.550000X0.550000X-0.550000X0.550000X0.550000X-0.550000X0.550000X0*%
%TD*%
%TA.AperFunction,ComponentPad*%
%ADD11C,1.600000*%
%TD*%
%TA.AperFunction,ComponentPad*%
%ADD12C,2.800000*%
%TD*%
%TA.AperFunction,ComponentPad*%
%ADD13RoundRect,0.249999X-0.850001X-0.850001X0.850001X-0.850001X0.850001X0.850001X-0.850001X0.850001X0*%
%TD*%
%TA.AperFunction,ComponentPad*%
%ADD14C,2.200000*%
%TD*%
%TA.AperFunction,ComponentPad*%
%ADD15RoundRect,0.250000X0.600000X0.750000X-0.600000X0.750000X-0.600000X-0.750000X0.600000X-0.750000X0*%
%TD*%
%TA.AperFunction,ComponentPad*%
%ADD16O,1.700000X2.000000*%
%TD*%
%TA.AperFunction,ComponentPad*%
%ADD17RoundRect,0.250001X-1.099999X1.099999X-1.099999X-1.099999X1.099999X-1.099999X1.099999X1.099999X0*%
%TD*%
%TA.AperFunction,ComponentPad*%
%ADD18C,2.700000*%
%TD*%
%TA.AperFunction,ComponentPad*%
%ADD19C,0.800000*%
%TD*%
%TA.AperFunction,ComponentPad*%
%ADD20C,6.400000*%
%TD*%
%TA.AperFunction,ComponentPad*%
%ADD21R,2.600000X1.800000*%
%TD*%
%TA.AperFunction,ComponentPad*%
%ADD22O,2.600000X1.800000*%
%TD*%
%TA.AperFunction,ComponentPad*%
%ADD23RoundRect,0.249999X0.850001X-0.850001X0.850001X0.850001X-0.850001X0.850001X-0.850001X-0.850001X0*%
%TD*%
%TA.AperFunction,ComponentPad*%
%ADD24C,2.400000*%
%TD*%
%TA.AperFunction,ComponentPad*%
%ADD25RoundRect,0.250000X-0.725000X0.600000X-0.725000X-0.600000X0.725000X-0.600000X0.725000X0.600000X0*%
%TD*%
%TA.AperFunction,ComponentPad*%
%ADD26O,1.950000X1.700000*%
%TD*%
%TA.AperFunction,ComponentPad*%
%ADD27C,1.800000*%
%TD*%
%TA.AperFunction,ComponentPad*%
%ADD28RoundRect,0.250001X1.099999X1.099999X-1.099999X1.099999X-1.099999X-1.099999X1.099999X-1.099999X0*%
%TD*%
%TA.AperFunction,ComponentPad*%
%ADD29RoundRect,0.250000X0.550000X0.550000X-0.550000X0.550000X-0.550000X-0.550000X0.550000X-0.550000X0*%
%TD*%
%TA.AperFunction,ViaPad*%
%ADD30C,0.600000*%
%TD*%
%TA.AperFunction,Conductor*%
%ADD31C,1.200000*%
%TD*%
G04 APERTURE END LIST*
D10*
%TO.N,+12V*%
%TO.C,C8*%
X66777349Y-76835000D03*
D11*
%TO.N,GND*%
X70577349Y-76835000D03*
%TD*%
D12*
%TO.N,Net-(D5-A)*%
%TO.C,GQ4*%
X146050000Y-76200000D03*
%TD*%
%TO.N,Net-(D3-A)*%
%TO.C,GQ2*%
X71755000Y-43180000D03*
%TD*%
D10*
%TO.N,+12V*%
%TO.C,C1*%
X66354888Y-67945000D03*
D11*
%TO.N,GND*%
X68354888Y-67945000D03*
%TD*%
D12*
%TO.N,GND*%
%TO.C,GND*%
X105410000Y-73660000D03*
%TD*%
D13*
%TO.N,Net-(D1-K)*%
%TO.C,D1*%
X53750000Y-49510000D03*
D14*
%TO.N,+12V*%
X63910000Y-49510000D03*
%TD*%
D15*
%TO.N,+12V*%
%TO.C,J2*%
X97770000Y-74185000D03*
D16*
%TO.N,GND*%
X95270000Y-74185000D03*
%TD*%
D17*
%TO.N,VDC*%
%TO.C,J1*%
X136525000Y-72240000D03*
D18*
%TO.N,GND*%
X136525000Y-76200000D03*
%TD*%
D10*
%TO.N,Net-(D6-K)*%
%TO.C,C9*%
X165005000Y-56515000D03*
D11*
%TO.N,Net-(Q3-S)*%
X167005000Y-56515000D03*
%TD*%
D10*
%TO.N,+12V*%
%TO.C,C10*%
X164144888Y-67945000D03*
D11*
%TO.N,GND*%
X166144888Y-67945000D03*
%TD*%
D10*
%TO.N,+12V*%
%TO.C,C4*%
X163205000Y-78740000D03*
D11*
%TO.N,GND*%
X167005000Y-78740000D03*
%TD*%
D19*
%TO.N,N/C*%
%TO.C,H1*%
X54542056Y-42337056D03*
X55245000Y-40640000D03*
X55245000Y-44034112D03*
X56942056Y-39937056D03*
D20*
X56942056Y-42337056D03*
D19*
X56942056Y-44737056D03*
X58639112Y-40640000D03*
X58639112Y-44034112D03*
X59342056Y-42337056D03*
%TD*%
D10*
%TO.N,Net-(D1-K)*%
%TO.C,C5*%
X66354888Y-55245000D03*
D11*
%TO.N,Net-(Q1-S)*%
X68354888Y-55245000D03*
%TD*%
D21*
%TO.N,Net-(D5-A)*%
%TO.C,Q4*%
X148590000Y-64135000D03*
D22*
%TO.N,Net-(Q3-S)*%
X148590000Y-66675000D03*
%TO.N,GND*%
X148590000Y-69215000D03*
%TD*%
D12*
%TO.N,Net-(D2-A)*%
%TO.C,GQ1*%
X64770000Y-43180000D03*
%TD*%
D19*
%TO.N,N/C*%
%TO.C,H4*%
X150635000Y-76695000D03*
X151337944Y-74997944D03*
X151337944Y-78392056D03*
X153035000Y-74295000D03*
D20*
X153035000Y-76695000D03*
D19*
X153035000Y-79095000D03*
X154732056Y-74997944D03*
X154732056Y-78392056D03*
X155435000Y-76695000D03*
%TD*%
D21*
%TO.N,Net-(D2-A)*%
%TO.C,Q1*%
X83185000Y-51435000D03*
D22*
%TO.N,VDC*%
X83185000Y-53975000D03*
%TO.N,Net-(Q1-S)*%
X83185000Y-56515000D03*
%TD*%
D12*
%TO.N,Net-(D4-A)*%
%TO.C,GQ3*%
X154940000Y-43180000D03*
%TD*%
%TO.N,Net-(Q3-S)*%
%TO.C,SWN-2*%
X126365000Y-73660000D03*
%TD*%
D23*
%TO.N,Net-(D4-K)*%
%TO.C,D4*%
X159385000Y-58420000D03*
D14*
%TO.N,Net-(D4-A)*%
X159385000Y-48260000D03*
%TD*%
D24*
%TO.N,Net-(C6-Pad1)*%
%TO.C,C6*%
X127500000Y-48250000D03*
%TO.N,Net-(C6-Pad2)*%
X105000000Y-48250000D03*
%TD*%
D25*
%TO.N,!PWM*%
%TO.C,J3*%
X116730000Y-71795000D03*
D26*
%TO.N,GND*%
X116730000Y-74295000D03*
%TO.N,PWM*%
X116730000Y-76795000D03*
%TD*%
D21*
%TO.N,Net-(D3-A)*%
%TO.C,Q2*%
X83185000Y-64135000D03*
D22*
%TO.N,Net-(Q1-S)*%
X83185000Y-66675000D03*
%TO.N,GND*%
X83185000Y-69215000D03*
%TD*%
D12*
%TO.N,Net-(Q1-S)*%
%TO.C,SWN-1*%
X77470000Y-78105000D03*
%TD*%
%TO.N,GND*%
%TO.C,GND*%
X163195000Y-43180000D03*
%TD*%
D21*
%TO.N,Net-(D4-A)*%
%TO.C,Q3*%
X148590000Y-51435000D03*
D22*
%TO.N,VDC*%
X148590000Y-53975000D03*
%TO.N,Net-(Q3-S)*%
X148590000Y-56515000D03*
%TD*%
D19*
%TO.N,N/C*%
%TO.C,H3*%
X174130000Y-41910000D03*
X174832944Y-40212944D03*
X174832944Y-43607056D03*
X176530000Y-39510000D03*
D20*
X176530000Y-41910000D03*
D19*
X176530000Y-44310000D03*
X178227056Y-40212944D03*
X178227056Y-43607056D03*
X178930000Y-41910000D03*
%TD*%
D27*
%TO.N,+12V*%
%TO.C,ON<>OFF*%
X55245000Y-77040000D03*
%TO.N,Net-(U1-SD)*%
X57785000Y-77040000D03*
%TO.N,GND*%
X60325000Y-77040000D03*
%TO.N,unconnected-(SW1-Pad4)*%
X55245000Y-80440000D03*
%TO.N,unconnected-(SW1-Pad5)*%
X57785000Y-80440000D03*
%TO.N,unconnected-(SW1-Pad6)*%
X60325000Y-80440000D03*
%TD*%
D12*
%TO.N,GND*%
%TO.C,GND*%
X78740000Y-43180000D03*
%TD*%
D23*
%TO.N,Net-(D3-K)*%
%TO.C,D3*%
X74295000Y-72390000D03*
D14*
%TO.N,Net-(D3-A)*%
X74295000Y-62230000D03*
%TD*%
D10*
%TO.N,Net-(D3-K)*%
%TO.C,U1*%
X53975000Y-54615000D03*
D11*
%TO.N,GND*%
X53975000Y-57155000D03*
%TO.N,+12V*%
X53975000Y-59695000D03*
%TO.N,unconnected-(U1-NC-Pad4)*%
X53975000Y-62235000D03*
%TO.N,Net-(Q1-S)*%
X53975000Y-64775000D03*
%TO.N,Net-(D1-K)*%
X53975000Y-67315000D03*
%TO.N,Net-(D2-K)*%
X53975000Y-69855000D03*
%TO.N,unconnected-(U1-NC-Pad8)*%
X61595000Y-69855000D03*
%TO.N,+12V*%
X61595000Y-67315000D03*
%TO.N,PWM*%
X61595000Y-64775000D03*
%TO.N,Net-(U1-SD)*%
X61595000Y-62235000D03*
%TO.N,!PWM*%
X61595000Y-59695000D03*
%TO.N,GND*%
X61595000Y-57155000D03*
%TO.N,unconnected-(U1-NC-Pad14)*%
X61595000Y-54615000D03*
%TD*%
D19*
%TO.N,N/C*%
%TO.C,H2*%
X83325000Y-77470000D03*
X84027944Y-75772944D03*
X84027944Y-79167056D03*
X85725000Y-75070000D03*
D20*
X85725000Y-77470000D03*
D19*
X85725000Y-79870000D03*
X87422056Y-75772944D03*
X87422056Y-79167056D03*
X88125000Y-77470000D03*
%TD*%
D28*
%TO.N,Net-(C6-Pad1)*%
%TO.C,LS1*%
X117962500Y-60960000D03*
D18*
%TO.N,Net-(C6-Pad2)*%
X114002500Y-60960000D03*
%TD*%
D23*
%TO.N,Net-(D2-K)*%
%TO.C,D2*%
X74295000Y-58420000D03*
D14*
%TO.N,Net-(D2-A)*%
X74295000Y-48260000D03*
%TD*%
D23*
%TO.N,Net-(D5-K)*%
%TO.C,D5*%
X159400000Y-72420000D03*
D14*
%TO.N,Net-(D5-A)*%
X159400000Y-62260000D03*
%TD*%
D13*
%TO.N,Net-(D6-K)*%
%TO.C,D6*%
X169190000Y-49520000D03*
D14*
%TO.N,+12V*%
X179350000Y-49520000D03*
%TD*%
D27*
%TO.N,+12V*%
%TO.C,ON<>OFF*%
X172720000Y-76835000D03*
%TO.N,Net-(U2-SD)*%
X175260000Y-76835000D03*
%TO.N,GND*%
X177800000Y-76835000D03*
%TO.N,unconnected-(SW2-Pad4)*%
X172720000Y-80235000D03*
%TO.N,unconnected-(SW2-Pad5)*%
X175260000Y-80235000D03*
%TO.N,unconnected-(SW2-Pad6)*%
X177800000Y-80235000D03*
%TD*%
D29*
%TO.N,Net-(D5-K)*%
%TO.C,U2*%
X179070000Y-69850000D03*
D11*
%TO.N,GND*%
X179070000Y-67310000D03*
%TO.N,+12V*%
X179070000Y-64770000D03*
%TO.N,unconnected-(U2-NC-Pad4)*%
X179070000Y-62230000D03*
%TO.N,Net-(Q3-S)*%
X179070000Y-59690000D03*
%TO.N,Net-(D6-K)*%
X179070000Y-57150000D03*
%TO.N,Net-(D4-K)*%
X179070000Y-54610000D03*
%TO.N,unconnected-(U2-NC-Pad8)*%
X171450000Y-54610000D03*
%TO.N,+12V*%
X171450000Y-57150000D03*
%TO.N,!PWM*%
X171450000Y-59690000D03*
%TO.N,Net-(U2-SD)*%
X171450000Y-62230000D03*
%TO.N,PWM*%
X171450000Y-64770000D03*
%TO.N,GND*%
X171450000Y-67310000D03*
%TO.N,unconnected-(U2-NC-Pad14)*%
X171450000Y-69850000D03*
%TD*%
D30*
%TO.N,GND*%
X98520000Y-44040000D03*
X164190000Y-62210000D03*
X67310000Y-64250000D03*
X100150000Y-46550000D03*
X81150000Y-45720000D03*
X140330000Y-44060000D03*
X96880000Y-44090000D03*
X138430000Y-44070000D03*
X55000000Y-73660000D03*
X101230000Y-45340000D03*
X96930000Y-46570000D03*
X142070000Y-46520000D03*
X142940000Y-45190000D03*
X142110000Y-44060000D03*
X138470000Y-46520000D03*
X100160000Y-44050000D03*
X140340000Y-46510000D03*
X146600000Y-46355000D03*
X98580000Y-46570000D03*
X177950000Y-73660000D03*
%TD*%
D31*
%TO.N,Net-(Q1-S)*%
X77470000Y-72124423D02*
X82919423Y-66675000D01*
X77470000Y-78105000D02*
X77470000Y-72124423D01*
X82919423Y-66675000D02*
X83185000Y-66675000D01*
%TO.N,Net-(D1-K)*%
X53750000Y-49510000D02*
X56515000Y-52275000D01*
X66354888Y-55245000D02*
X60619888Y-49510000D01*
X56515000Y-52275000D02*
X56515000Y-64775000D01*
X60619888Y-49510000D02*
X53750000Y-49510000D01*
X56515000Y-64775000D02*
X53975000Y-67315000D01*
%TO.N,Net-(Q3-S)*%
X126365000Y-73660000D02*
X133350000Y-66675000D01*
X133350000Y-66675000D02*
X148590000Y-66675000D01*
X165596370Y-53975000D02*
X167005000Y-55383630D01*
X156210000Y-53975000D02*
X165596370Y-53975000D01*
X148590000Y-56515000D02*
X153670000Y-56515000D01*
X153670000Y-56515000D02*
X156210000Y-53975000D01*
X167005000Y-55383630D02*
X167005000Y-56515000D01*
%TO.N,Net-(D3-A)*%
X71755000Y-59690000D02*
X71755000Y-43180000D01*
X74295000Y-62230000D02*
X71755000Y-59690000D01*
%TO.N,Net-(D5-A)*%
X159400000Y-62850000D02*
X159400000Y-62260000D01*
X146050000Y-76200000D02*
X159400000Y-62850000D01*
%TO.N,PWM*%
X116730000Y-76795000D02*
X112054000Y-81471000D01*
X116730000Y-76795000D02*
X121215000Y-81280000D01*
X168910000Y-69850000D02*
X168910000Y-67310000D01*
X121215000Y-81280000D02*
X157480000Y-81280000D01*
X68820083Y-81471000D02*
X64135000Y-76785917D01*
X168910000Y-67310000D02*
X171450000Y-64770000D01*
X157480000Y-81280000D02*
X168910000Y-69850000D01*
X112054000Y-81471000D02*
X68820083Y-81471000D01*
X64135000Y-67315000D02*
X61595000Y-64775000D01*
X64135000Y-76785917D02*
X64135000Y-67315000D01*
%TD*%
%TA.AperFunction,Conductor*%
%TO.N,GND*%
G36*
X171050000Y-67362661D02*
G01*
X171077259Y-67464394D01*
X171129920Y-67555606D01*
X171204394Y-67630080D01*
X171295606Y-67682741D01*
X171397339Y-67710000D01*
X171403553Y-67710000D01*
X170724076Y-68389474D01*
X170769571Y-68422528D01*
X170812236Y-68477858D01*
X170818215Y-68547471D01*
X170785609Y-68609266D01*
X170752981Y-68633330D01*
X170715976Y-68652185D01*
X170537641Y-68781752D01*
X170537636Y-68781756D01*
X170381756Y-68937636D01*
X170381752Y-68937641D01*
X170334818Y-69002241D01*
X170279488Y-69044907D01*
X170209875Y-69050886D01*
X170148080Y-69018280D01*
X170113723Y-68957442D01*
X170110500Y-68929356D01*
X170110500Y-68059545D01*
X170130185Y-67992506D01*
X170182989Y-67946751D01*
X170252147Y-67936807D01*
X170315703Y-67965832D01*
X170334480Y-67987985D01*
X170335276Y-67987408D01*
X170370523Y-68035921D01*
X170370524Y-68035922D01*
X171050000Y-67356446D01*
X171050000Y-67362661D01*
G37*
%TD.AperFunction*%
%TA.AperFunction,Conductor*%
G36*
X55054474Y-57880921D02*
G01*
X55089724Y-57832407D01*
X55091482Y-57833684D01*
X55136586Y-57792879D01*
X55205516Y-57781458D01*
X55269678Y-57809115D01*
X55308702Y-57867071D01*
X55314500Y-57904545D01*
X55314500Y-58774356D01*
X55294815Y-58841395D01*
X55242011Y-58887150D01*
X55172853Y-58897094D01*
X55109297Y-58868069D01*
X55090182Y-58847241D01*
X55043247Y-58782641D01*
X55043243Y-58782636D01*
X54887363Y-58626756D01*
X54887358Y-58626752D01*
X54709025Y-58497187D01*
X54709024Y-58497186D01*
X54709022Y-58497185D01*
X54672018Y-58478330D01*
X54621223Y-58430356D01*
X54604428Y-58362535D01*
X54626966Y-58296400D01*
X54655428Y-58267529D01*
X54700921Y-58234475D01*
X54700921Y-58234474D01*
X54021447Y-57555000D01*
X54027661Y-57555000D01*
X54129394Y-57527741D01*
X54220606Y-57475080D01*
X54295080Y-57400606D01*
X54347741Y-57309394D01*
X54375000Y-57207661D01*
X54375000Y-57201447D01*
X55054474Y-57880921D01*
G37*
%TD.AperFunction*%
%TA.AperFunction,Conductor*%
G36*
X55246140Y-55769539D02*
G01*
X55297219Y-55817212D01*
X55314500Y-55880355D01*
X55314500Y-56405454D01*
X55294815Y-56472493D01*
X55242011Y-56518248D01*
X55172853Y-56528192D01*
X55109297Y-56499167D01*
X55090513Y-56477019D01*
X55089724Y-56477593D01*
X55054474Y-56429077D01*
X55054474Y-56429076D01*
X54375000Y-57108551D01*
X54375000Y-57102339D01*
X54347741Y-57000606D01*
X54295080Y-56909394D01*
X54220606Y-56834920D01*
X54129394Y-56782259D01*
X54027661Y-56755000D01*
X54021446Y-56755000D01*
X54711281Y-56065165D01*
X54717516Y-56035488D01*
X54766567Y-55985730D01*
X54796840Y-55973801D01*
X54820021Y-55968037D01*
X54985753Y-55885842D01*
X55112812Y-55783707D01*
X55177396Y-55757049D01*
X55246140Y-55769539D01*
G37*
%TD.AperFunction*%
%TA.AperFunction,Conductor*%
G36*
X180694727Y-37470613D02*
G01*
X180759187Y-37490699D01*
X180773163Y-37496000D01*
X181034743Y-37613727D01*
X181047989Y-37620680D01*
X181293465Y-37769075D01*
X181305776Y-37777573D01*
X181531573Y-37954473D01*
X181542781Y-37964403D01*
X181573681Y-37995303D01*
X181607166Y-38056626D01*
X181610000Y-38082984D01*
X181610000Y-83061000D01*
X181590315Y-83128039D01*
X181537511Y-83173794D01*
X181486000Y-83185000D01*
X51559000Y-83185000D01*
X51491961Y-83165315D01*
X51446206Y-83112511D01*
X51435000Y-83061000D01*
X51435000Y-80321902D01*
X53744500Y-80321902D01*
X53744500Y-80558097D01*
X53781446Y-80791368D01*
X53854433Y-81015996D01*
X53936914Y-81177873D01*
X53961657Y-81226433D01*
X54100483Y-81417510D01*
X54267490Y-81584517D01*
X54458567Y-81723343D01*
X54557991Y-81774002D01*
X54669003Y-81830566D01*
X54669005Y-81830566D01*
X54669008Y-81830568D01*
X54789412Y-81869689D01*
X54893631Y-81903553D01*
X55126903Y-81940500D01*
X55126908Y-81940500D01*
X55363097Y-81940500D01*
X55596368Y-81903553D01*
X55820992Y-81830568D01*
X56031433Y-81723343D01*
X56222510Y-81584517D01*
X56389517Y-81417510D01*
X56414682Y-81382872D01*
X56470011Y-81340207D01*
X56539625Y-81334228D01*
X56601420Y-81366833D01*
X56615315Y-81382870D01*
X56640483Y-81417510D01*
X56807490Y-81584517D01*
X56998567Y-81723343D01*
X57097991Y-81774002D01*
X57209003Y-81830566D01*
X57209005Y-81830566D01*
X57209008Y-81830568D01*
X57329412Y-81869689D01*
X57433631Y-81903553D01*
X57666903Y-81940500D01*
X57666908Y-81940500D01*
X57903097Y-81940500D01*
X58136368Y-81903553D01*
X58360992Y-81830568D01*
X58571433Y-81723343D01*
X58762510Y-81584517D01*
X58929517Y-81417510D01*
X58954682Y-81382872D01*
X59010011Y-81340207D01*
X59079625Y-81334228D01*
X59141420Y-81366833D01*
X59155315Y-81382870D01*
X59180483Y-81417510D01*
X59347490Y-81584517D01*
X59538567Y-81723343D01*
X59637991Y-81774002D01*
X59749003Y-81830566D01*
X59749005Y-81830566D01*
X59749008Y-81830568D01*
X59869412Y-81869689D01*
X59973631Y-81903553D01*
X60206903Y-81940500D01*
X60206908Y-81940500D01*
X60443097Y-81940500D01*
X60676368Y-81903553D01*
X60900992Y-81830568D01*
X61111433Y-81723343D01*
X61302510Y-81584517D01*
X61469517Y-81417510D01*
X61608343Y-81226433D01*
X61715568Y-81015992D01*
X61788553Y-80791368D01*
X61821022Y-80586368D01*
X61825500Y-80558097D01*
X61825500Y-80321902D01*
X61788553Y-80088631D01*
X61728251Y-79903043D01*
X61715568Y-79864008D01*
X61715566Y-79864005D01*
X61715566Y-79864003D01*
X61611115Y-79659008D01*
X61608343Y-79653567D01*
X61469517Y-79462490D01*
X61302510Y-79295483D01*
X61111433Y-79156657D01*
X61078742Y-79140000D01*
X60900996Y-79049433D01*
X60676368Y-78976446D01*
X60443097Y-78939500D01*
X60443092Y-78939500D01*
X60206908Y-78939500D01*
X60206903Y-78939500D01*
X59973631Y-78976446D01*
X59749003Y-79049433D01*
X59538566Y-79156657D01*
X59429550Y-79235862D01*
X59347490Y-79295483D01*
X59347488Y-79295485D01*
X59347487Y-79295485D01*
X59180484Y-79462488D01*
X59155318Y-79497127D01*
X59099987Y-79539792D01*
X59030374Y-79545771D01*
X58968579Y-79513165D01*
X58954682Y-79497127D01*
X58929517Y-79462490D01*
X58762510Y-79295483D01*
X58571433Y-79156657D01*
X58538742Y-79140000D01*
X58360996Y-79049433D01*
X58136368Y-78976446D01*
X57903097Y-78939500D01*
X57903092Y-78939500D01*
X57666908Y-78939500D01*
X57666903Y-78939500D01*
X57433631Y-78976446D01*
X57209003Y-79049433D01*
X56998566Y-79156657D01*
X56889550Y-79235862D01*
X56807490Y-79295483D01*
X56807488Y-79295485D01*
X56807487Y-79295485D01*
X56640484Y-79462488D01*
X56615318Y-79497127D01*
X56559987Y-79539792D01*
X56490374Y-79545771D01*
X56428579Y-79513165D01*
X56414682Y-79497127D01*
X56389517Y-79462490D01*
X56222510Y-79295483D01*
X56031433Y-79156657D01*
X55998742Y-79140000D01*
X55820996Y-79049433D01*
X55596368Y-78976446D01*
X55363097Y-78939500D01*
X55363092Y-78939500D01*
X55126908Y-78939500D01*
X55126903Y-78939500D01*
X54893631Y-78976446D01*
X54669003Y-79049433D01*
X54458566Y-79156657D01*
X54349550Y-79235862D01*
X54267490Y-79295483D01*
X54267488Y-79295485D01*
X54267487Y-79295485D01*
X54100485Y-79462487D01*
X54100485Y-79462488D01*
X54100483Y-79462490D01*
X54062782Y-79514381D01*
X53961657Y-79653566D01*
X53854433Y-79864003D01*
X53781446Y-80088631D01*
X53744500Y-80321902D01*
X51435000Y-80321902D01*
X51435000Y-76921902D01*
X53744500Y-76921902D01*
X53744500Y-77158097D01*
X53781446Y-77391368D01*
X53854433Y-77615996D01*
X53934819Y-77773760D01*
X53961657Y-77826433D01*
X54100483Y-78017510D01*
X54267490Y-78184517D01*
X54458567Y-78323343D01*
X54528489Y-78358970D01*
X54669003Y-78430566D01*
X54669005Y-78430566D01*
X54669008Y-78430568D01*
X54698037Y-78440000D01*
X54893631Y-78503553D01*
X55126903Y-78540500D01*
X55126908Y-78540500D01*
X55363097Y-78540500D01*
X55596368Y-78503553D01*
X55820992Y-78430568D01*
X56031433Y-78323343D01*
X56222510Y-78184517D01*
X56389517Y-78017510D01*
X56414682Y-77982872D01*
X56470011Y-77940207D01*
X56539625Y-77934228D01*
X56601420Y-77966833D01*
X56615315Y-77982870D01*
X56640483Y-78017510D01*
X56807490Y-78184517D01*
X56998567Y-78323343D01*
X57068489Y-78358970D01*
X57209003Y-78430566D01*
X57209005Y-78430566D01*
X57209008Y-78430568D01*
X57238037Y-78440000D01*
X57433631Y-78503553D01*
X57666903Y-78540500D01*
X57666908Y-78540500D01*
X57903097Y-78540500D01*
X58136368Y-78503553D01*
X58360992Y-78430568D01*
X58571433Y-78323343D01*
X58762510Y-78184517D01*
X58929517Y-78017510D01*
X59027174Y-77883096D01*
X59028808Y-77881038D01*
X59055291Y-77862354D01*
X59080951Y-77842568D01*
X59083969Y-77842123D01*
X59085900Y-77840761D01*
X59096239Y-77840314D01*
X59135670Y-77834501D01*
X59173933Y-77837512D01*
X59760388Y-77251057D01*
X59765890Y-77271591D01*
X59844882Y-77408408D01*
X59956592Y-77520118D01*
X60093409Y-77599110D01*
X60113940Y-77604611D01*
X59527485Y-78191065D01*
X59527485Y-78191066D01*
X59591243Y-78237388D01*
X59787589Y-78337432D01*
X59997164Y-78405526D01*
X60214819Y-78440000D01*
X60435181Y-78440000D01*
X60652835Y-78405526D01*
X60862410Y-78337432D01*
X61058760Y-78237386D01*
X61122513Y-78191066D01*
X61122514Y-78191066D01*
X60536058Y-77604611D01*
X60556591Y-77599110D01*
X60693408Y-77520118D01*
X60805118Y-77408408D01*
X60884110Y-77271591D01*
X60889611Y-77251059D01*
X61476066Y-77837514D01*
X61476066Y-77837513D01*
X61522386Y-77773760D01*
X61622432Y-77577410D01*
X61690526Y-77367835D01*
X61725000Y-77150181D01*
X61725000Y-76929818D01*
X61690526Y-76712164D01*
X61622432Y-76502589D01*
X61522388Y-76306243D01*
X61476066Y-76242485D01*
X61476065Y-76242485D01*
X60889611Y-76828940D01*
X60884110Y-76808409D01*
X60805118Y-76671592D01*
X60693408Y-76559882D01*
X60556591Y-76480890D01*
X60536057Y-76475387D01*
X61122513Y-75888932D01*
X61058756Y-75842611D01*
X60862410Y-75742567D01*
X60652835Y-75674473D01*
X60435181Y-75640000D01*
X60214819Y-75640000D01*
X59997164Y-75674473D01*
X59787589Y-75742567D01*
X59591233Y-75842616D01*
X59527485Y-75888931D01*
X59527485Y-75888932D01*
X60113941Y-76475388D01*
X60093409Y-76480890D01*
X59956592Y-76559882D01*
X59844882Y-76671592D01*
X59765890Y-76808409D01*
X59760388Y-76828941D01*
X59173932Y-76242485D01*
X59135667Y-76245497D01*
X59128094Y-76243906D01*
X59120585Y-76245763D01*
X59094387Y-76236825D01*
X59067290Y-76231133D01*
X59060111Y-76225131D01*
X59054458Y-76223203D01*
X59035817Y-76204820D01*
X59028807Y-76198960D01*
X59027168Y-76196894D01*
X58929517Y-76062490D01*
X58762510Y-75895483D01*
X58571433Y-75756657D01*
X58543780Y-75742567D01*
X58360996Y-75649433D01*
X58136368Y-75576446D01*
X57903097Y-75539500D01*
X57903092Y-75539500D01*
X57666908Y-75539500D01*
X57666903Y-75539500D01*
X57433631Y-75576446D01*
X57209003Y-75649433D01*
X56998566Y-75756657D01*
X56889550Y-75835862D01*
X56807490Y-75895483D01*
X56807488Y-75895485D01*
X56807487Y-75895485D01*
X56640484Y-76062488D01*
X56615318Y-76097127D01*
X56559987Y-76139792D01*
X56490374Y-76145771D01*
X56428579Y-76113165D01*
X56414682Y-76097127D01*
X56401331Y-76078751D01*
X56389517Y-76062490D01*
X56222510Y-75895483D01*
X56031433Y-75756657D01*
X56003780Y-75742567D01*
X55820996Y-75649433D01*
X55596368Y-75576446D01*
X55363097Y-75539500D01*
X55363092Y-75539500D01*
X55126908Y-75539500D01*
X55126903Y-75539500D01*
X54893631Y-75576446D01*
X54669003Y-75649433D01*
X54458566Y-75756657D01*
X54349550Y-75835862D01*
X54267490Y-75895483D01*
X54267488Y-75895485D01*
X54267487Y-75895485D01*
X54100485Y-76062487D01*
X54100485Y-76062488D01*
X54100483Y-76062490D01*
X54061401Y-76116282D01*
X53961657Y-76253566D01*
X53854433Y-76464003D01*
X53781446Y-76688631D01*
X53744500Y-76921902D01*
X51435000Y-76921902D01*
X51435000Y-48586048D01*
X52049500Y-48586048D01*
X52049500Y-50433951D01*
X52052317Y-50475499D01*
X52096963Y-50655023D01*
X52179157Y-50820752D01*
X52264520Y-50926948D01*
X52295059Y-50964941D01*
X52439247Y-51080842D01*
X52604978Y-51163037D01*
X52784501Y-51207682D01*
X52784502Y-51207682D01*
X52784505Y-51207683D01*
X52826046Y-51210500D01*
X53701374Y-51210500D01*
X53768413Y-51230185D01*
X53789055Y-51246819D01*
X55278181Y-52735944D01*
X55311666Y-52797267D01*
X55314500Y-52823625D01*
X55314500Y-53349644D01*
X55294815Y-53416683D01*
X55242011Y-53462438D01*
X55172853Y-53472382D01*
X55112813Y-53446291D01*
X54985753Y-53344157D01*
X54820023Y-53261964D01*
X54820021Y-53261963D01*
X54640497Y-53217317D01*
X54640501Y-53217317D01*
X54609339Y-53215204D01*
X54598954Y-53214500D01*
X53351046Y-53214500D01*
X53339177Y-53215304D01*
X53309500Y-53217317D01*
X53129978Y-53261963D01*
X53129976Y-53261964D01*
X52964249Y-53344156D01*
X52820059Y-53460059D01*
X52704156Y-53604249D01*
X52621964Y-53769976D01*
X52621963Y-53769978D01*
X52577317Y-53949500D01*
X52574500Y-53991048D01*
X52574500Y-55238951D01*
X52577317Y-55280499D01*
X52621963Y-55460021D01*
X52621964Y-55460023D01*
X52704156Y-55625750D01*
X52820059Y-55769940D01*
X52873398Y-55812815D01*
X52964247Y-55885842D01*
X53129979Y-55968037D01*
X53153156Y-55973801D01*
X53213462Y-56009083D01*
X53245120Y-56071368D01*
X53245131Y-56071578D01*
X53928554Y-56755000D01*
X53922339Y-56755000D01*
X53820606Y-56782259D01*
X53729394Y-56834920D01*
X53654920Y-56909394D01*
X53602259Y-57000606D01*
X53575000Y-57102339D01*
X53575000Y-57108553D01*
X52895524Y-56429077D01*
X52895523Y-56429077D01*
X52863143Y-56473644D01*
X52770244Y-56655968D01*
X52707009Y-56850582D01*
X52675000Y-57052682D01*
X52675000Y-57257317D01*
X52707009Y-57459417D01*
X52770244Y-57654031D01*
X52863141Y-57836350D01*
X52863147Y-57836359D01*
X52895523Y-57880921D01*
X52895524Y-57880922D01*
X53575000Y-57201446D01*
X53575000Y-57207661D01*
X53602259Y-57309394D01*
X53654920Y-57400606D01*
X53729394Y-57475080D01*
X53820606Y-57527741D01*
X53922339Y-57555000D01*
X53928553Y-57555000D01*
X53249076Y-58234474D01*
X53294571Y-58267528D01*
X53337236Y-58322858D01*
X53343215Y-58392471D01*
X53310609Y-58454266D01*
X53277981Y-58478330D01*
X53240976Y-58497185D01*
X53062641Y-58626752D01*
X53062636Y-58626756D01*
X52906756Y-58782636D01*
X52906752Y-58782641D01*
X52777187Y-58960974D01*
X52677104Y-59157393D01*
X52677103Y-59157396D01*
X52608985Y-59367047D01*
X52574500Y-59584778D01*
X52574500Y-59805221D01*
X52608985Y-60022952D01*
X52677103Y-60232603D01*
X52677104Y-60232606D01*
X52745122Y-60366096D01*
X52774637Y-60424022D01*
X52777187Y-60429025D01*
X52906752Y-60607358D01*
X52906756Y-60607363D01*
X53062636Y-60763243D01*
X53062641Y-60763247D01*
X53202254Y-60864682D01*
X53244920Y-60920012D01*
X53250899Y-60989625D01*
X53218293Y-61051420D01*
X53202254Y-61065318D01*
X53062641Y-61166752D01*
X53062636Y-61166756D01*
X52906756Y-61322636D01*
X52906752Y-61322641D01*
X52777187Y-61500974D01*
X52677104Y-61697393D01*
X52677103Y-61697396D01*
X52608985Y-61907047D01*
X52574500Y-62124778D01*
X52574500Y-62345221D01*
X52608985Y-62562952D01*
X52677103Y-62772603D01*
X52677104Y-62772606D01*
X52730361Y-62877126D01*
X52774637Y-62964022D01*
X52777187Y-62969025D01*
X52906752Y-63147358D01*
X52906756Y-63147363D01*
X53062636Y-63303243D01*
X53062641Y-63303247D01*
X53202254Y-63404682D01*
X53244920Y-63460012D01*
X53250899Y-63529625D01*
X53218293Y-63591420D01*
X53202254Y-63605318D01*
X53062641Y-63706752D01*
X53062636Y-63706756D01*
X52906756Y-63862636D01*
X52906752Y-63862641D01*
X52777187Y-64040974D01*
X52677104Y-64237393D01*
X52677103Y-64237396D01*
X52608985Y-64447047D01*
X52574500Y-64664778D01*
X52574500Y-64885221D01*
X52608985Y-65102952D01*
X52677103Y-65312603D01*
X52677104Y-65312606D01*
X52707631Y-65372517D01*
X52774656Y-65504059D01*
X52777187Y-65509025D01*
X52906752Y-65687358D01*
X52906756Y-65687363D01*
X53062636Y-65843243D01*
X53062641Y-65843247D01*
X53202254Y-65944682D01*
X53244920Y-66000012D01*
X53250899Y-66069625D01*
X53218293Y-66131420D01*
X53202254Y-66145318D01*
X53062641Y-66246752D01*
X53062636Y-66246756D01*
X52906756Y-66402636D01*
X52906752Y-66402641D01*
X52777187Y-66580974D01*
X52677104Y-66777393D01*
X52677103Y-66777396D01*
X52608985Y-66987047D01*
X52574500Y-67204778D01*
X52574500Y-67425221D01*
X52608985Y-67642952D01*
X52677103Y-67852603D01*
X52677104Y-67852606D01*
X52730981Y-67958343D01*
X52776316Y-68047317D01*
X52777187Y-68049025D01*
X52906752Y-68227358D01*
X52906756Y-68227363D01*
X53062636Y-68383243D01*
X53062641Y-68383247D01*
X53202254Y-68484682D01*
X53244920Y-68540012D01*
X53250899Y-68609625D01*
X53218293Y-68671420D01*
X53202254Y-68685318D01*
X53062641Y-68786752D01*
X53062636Y-68786756D01*
X52906756Y-68942636D01*
X52906752Y-68942641D01*
X52777187Y-69120974D01*
X52677104Y-69317393D01*
X52677103Y-69317396D01*
X52608985Y-69527047D01*
X52574500Y-69744778D01*
X52574500Y-69965221D01*
X52608985Y-70182952D01*
X52677103Y-70392603D01*
X52677104Y-70392606D01*
X52738160Y-70512432D01*
X52774637Y-70584022D01*
X52777187Y-70589025D01*
X52906752Y-70767358D01*
X52906756Y-70767363D01*
X53062636Y-70923243D01*
X53062641Y-70923247D01*
X53211318Y-71031266D01*
X53240978Y-71052815D01*
X53351731Y-71109247D01*
X53437393Y-71152895D01*
X53437396Y-71152896D01*
X53542221Y-71186955D01*
X53647049Y-71221015D01*
X53864778Y-71255500D01*
X53864779Y-71255500D01*
X54085221Y-71255500D01*
X54085222Y-71255500D01*
X54302951Y-71221015D01*
X54512606Y-71152895D01*
X54709022Y-71052815D01*
X54887365Y-70923242D01*
X55043242Y-70767365D01*
X55172815Y-70589022D01*
X55272895Y-70392606D01*
X55341015Y-70182951D01*
X55375500Y-69965222D01*
X55375500Y-69744778D01*
X55341015Y-69527049D01*
X55282027Y-69345500D01*
X55272896Y-69317396D01*
X55272895Y-69317393D01*
X55226350Y-69226046D01*
X55172815Y-69120978D01*
X55125573Y-69055955D01*
X55043247Y-68942641D01*
X55043243Y-68942636D01*
X54887363Y-68786756D01*
X54887358Y-68786752D01*
X54747745Y-68685318D01*
X54705079Y-68629989D01*
X54699100Y-68560375D01*
X54731705Y-68498580D01*
X54747745Y-68484682D01*
X54887358Y-68383247D01*
X54887356Y-68383247D01*
X54887365Y-68383242D01*
X55043242Y-68227365D01*
X55172815Y-68049022D01*
X55272895Y-67852606D01*
X55329989Y-67676882D01*
X55360235Y-67627527D01*
X57430690Y-65557074D01*
X57541760Y-65404199D01*
X57627547Y-65235832D01*
X57685940Y-65056118D01*
X57707962Y-64917072D01*
X57715500Y-64869481D01*
X57715500Y-54504778D01*
X60194500Y-54504778D01*
X60194500Y-54725221D01*
X60228985Y-54942952D01*
X60297103Y-55152603D01*
X60297104Y-55152606D01*
X60356730Y-55269626D01*
X60394637Y-55344022D01*
X60397187Y-55349025D01*
X60526752Y-55527358D01*
X60526756Y-55527363D01*
X60682636Y-55683243D01*
X60682641Y-55683247D01*
X60819399Y-55782606D01*
X60860978Y-55812815D01*
X60897977Y-55831667D01*
X60897979Y-55831668D01*
X60948775Y-55879643D01*
X60965570Y-55947464D01*
X60943032Y-56013599D01*
X60914569Y-56042471D01*
X60869077Y-56075522D01*
X60869077Y-56075524D01*
X61548554Y-56755000D01*
X61542339Y-56755000D01*
X61440606Y-56782259D01*
X61349394Y-56834920D01*
X61274920Y-56909394D01*
X61222259Y-57000606D01*
X61195000Y-57102339D01*
X61195000Y-57108553D01*
X60515524Y-56429077D01*
X60515523Y-56429077D01*
X60483143Y-56473644D01*
X60390244Y-56655968D01*
X60327009Y-56850582D01*
X60295000Y-57052682D01*
X60295000Y-57257317D01*
X60327009Y-57459417D01*
X60390244Y-57654031D01*
X60483141Y-57836350D01*
X60483147Y-57836359D01*
X60515523Y-57880921D01*
X60515524Y-57880922D01*
X61195000Y-57201446D01*
X61195000Y-57207661D01*
X61222259Y-57309394D01*
X61274920Y-57400606D01*
X61349394Y-57475080D01*
X61440606Y-57527741D01*
X61542339Y-57555000D01*
X61548553Y-57555000D01*
X60869076Y-58234474D01*
X60914571Y-58267528D01*
X60957236Y-58322858D01*
X60963215Y-58392471D01*
X60930609Y-58454266D01*
X60897981Y-58478330D01*
X60860976Y-58497185D01*
X60682641Y-58626752D01*
X60682636Y-58626756D01*
X60526756Y-58782636D01*
X60526752Y-58782641D01*
X60397187Y-58960974D01*
X60297104Y-59157393D01*
X60297103Y-59157396D01*
X60228985Y-59367047D01*
X60194500Y-59584778D01*
X60194500Y-59805221D01*
X60228985Y-60022952D01*
X60297103Y-60232603D01*
X60297104Y-60232606D01*
X60365122Y-60366096D01*
X60394637Y-60424022D01*
X60397187Y-60429025D01*
X60526752Y-60607358D01*
X60526756Y-60607363D01*
X60682636Y-60763243D01*
X60682641Y-60763247D01*
X60822254Y-60864682D01*
X60864920Y-60920012D01*
X60870899Y-60989625D01*
X60838293Y-61051420D01*
X60822254Y-61065318D01*
X60682641Y-61166752D01*
X60682636Y-61166756D01*
X60526756Y-61322636D01*
X60526752Y-61322641D01*
X60397187Y-61500974D01*
X60297104Y-61697393D01*
X60297103Y-61697396D01*
X60228985Y-61907047D01*
X60194500Y-62124778D01*
X60194500Y-62345221D01*
X60228985Y-62562952D01*
X60297103Y-62772603D01*
X60297104Y-62772606D01*
X60350361Y-62877126D01*
X60394637Y-62964022D01*
X60397187Y-62969025D01*
X60526752Y-63147358D01*
X60526756Y-63147363D01*
X60682636Y-63303243D01*
X60682641Y-63303247D01*
X60822254Y-63404682D01*
X60864920Y-63460012D01*
X60870899Y-63529625D01*
X60838293Y-63591420D01*
X60822254Y-63605318D01*
X60682641Y-63706752D01*
X60682636Y-63706756D01*
X60526756Y-63862636D01*
X60526752Y-63862641D01*
X60397187Y-64040974D01*
X60297104Y-64237393D01*
X60297103Y-64237396D01*
X60228985Y-64447047D01*
X60194500Y-64664778D01*
X60194500Y-64885221D01*
X60228985Y-65102952D01*
X60297103Y-65312603D01*
X60297104Y-65312606D01*
X60327631Y-65372517D01*
X60394656Y-65504059D01*
X60397187Y-65509025D01*
X60526752Y-65687358D01*
X60526756Y-65687363D01*
X60682636Y-65843243D01*
X60682641Y-65843247D01*
X60822254Y-65944682D01*
X60864920Y-66000012D01*
X60870899Y-66069625D01*
X60838293Y-66131420D01*
X60822254Y-66145318D01*
X60682641Y-66246752D01*
X60682636Y-66246756D01*
X60526756Y-66402636D01*
X60526752Y-66402641D01*
X60397187Y-66580974D01*
X60297104Y-66777393D01*
X60297103Y-66777396D01*
X60228985Y-66987047D01*
X60194500Y-67204778D01*
X60194500Y-67425221D01*
X60228985Y-67642952D01*
X60297103Y-67852603D01*
X60297104Y-67852606D01*
X60350981Y-67958343D01*
X60396316Y-68047317D01*
X60397187Y-68049025D01*
X60526752Y-68227358D01*
X60526756Y-68227363D01*
X60682636Y-68383243D01*
X60682641Y-68383247D01*
X60822254Y-68484682D01*
X60864920Y-68540012D01*
X60870899Y-68609625D01*
X60838293Y-68671420D01*
X60822254Y-68685318D01*
X60682641Y-68786752D01*
X60682636Y-68786756D01*
X60526756Y-68942636D01*
X60526752Y-68942641D01*
X60397187Y-69120974D01*
X60297104Y-69317393D01*
X60297103Y-69317396D01*
X60228985Y-69527047D01*
X60194500Y-69744778D01*
X60194500Y-69965221D01*
X60228985Y-70182952D01*
X60297103Y-70392603D01*
X60297104Y-70392606D01*
X60358160Y-70512432D01*
X60394637Y-70584022D01*
X60397187Y-70589025D01*
X60526752Y-70767358D01*
X60526756Y-70767363D01*
X60682636Y-70923243D01*
X60682641Y-70923247D01*
X60831318Y-71031266D01*
X60860978Y-71052815D01*
X60971731Y-71109247D01*
X61057393Y-71152895D01*
X61057396Y-71152896D01*
X61162221Y-71186955D01*
X61267049Y-71221015D01*
X61484778Y-71255500D01*
X61484779Y-71255500D01*
X61705221Y-71255500D01*
X61705222Y-71255500D01*
X61922951Y-71221015D01*
X62132606Y-71152895D01*
X62329022Y-71052815D01*
X62507365Y-70923242D01*
X62663242Y-70767365D01*
X62710182Y-70702757D01*
X62765511Y-70660092D01*
X62835124Y-70654113D01*
X62896920Y-70686718D01*
X62931277Y-70747557D01*
X62934500Y-70775643D01*
X62934500Y-76880403D01*
X62964059Y-77067035D01*
X63022454Y-77246753D01*
X63071147Y-77342317D01*
X63108240Y-77415116D01*
X63219310Y-77567991D01*
X67904393Y-82253073D01*
X68038010Y-82386690D01*
X68190884Y-82497760D01*
X68270430Y-82538290D01*
X68359246Y-82583545D01*
X68359248Y-82583545D01*
X68359251Y-82583547D01*
X68455580Y-82614846D01*
X68538964Y-82641940D01*
X68725597Y-82671500D01*
X68725602Y-82671500D01*
X112148486Y-82671500D01*
X112335118Y-82641940D01*
X112354307Y-82635705D01*
X112514832Y-82583547D01*
X112683199Y-82497760D01*
X112836074Y-82386690D01*
X116642318Y-78580443D01*
X116703641Y-78546959D01*
X116773333Y-78551943D01*
X116817680Y-78580444D01*
X120299310Y-82062073D01*
X120432927Y-82195690D01*
X120585801Y-82306760D01*
X120665347Y-82347290D01*
X120754163Y-82392545D01*
X120754165Y-82392545D01*
X120754168Y-82392547D01*
X120850497Y-82423846D01*
X120933881Y-82450940D01*
X121120514Y-82480500D01*
X121120519Y-82480500D01*
X157574486Y-82480500D01*
X157761118Y-82450940D01*
X157940832Y-82392547D01*
X158109199Y-82306760D01*
X158262074Y-82195690D01*
X161592819Y-78864945D01*
X161654142Y-78831460D01*
X161723834Y-78836444D01*
X161779767Y-78878316D01*
X161804184Y-78943780D01*
X161804500Y-78952626D01*
X161804500Y-79363951D01*
X161807317Y-79405499D01*
X161851963Y-79585021D01*
X161851964Y-79585023D01*
X161934156Y-79750750D01*
X161934157Y-79750751D01*
X161934158Y-79750753D01*
X161951176Y-79771924D01*
X162050059Y-79894940D01*
X162112032Y-79944755D01*
X162194247Y-80010842D01*
X162359979Y-80093037D01*
X162539501Y-80137682D01*
X162539502Y-80137682D01*
X162539505Y-80137683D01*
X162581046Y-80140500D01*
X162581048Y-80140500D01*
X163828952Y-80140500D01*
X163828954Y-80140500D01*
X163870495Y-80137683D01*
X163954057Y-80116902D01*
X171219500Y-80116902D01*
X171219500Y-80353097D01*
X171256446Y-80586368D01*
X171329433Y-80810996D01*
X171402553Y-80954500D01*
X171436657Y-81021433D01*
X171575483Y-81212510D01*
X171742490Y-81379517D01*
X171933567Y-81518343D01*
X172032991Y-81569002D01*
X172144003Y-81625566D01*
X172144005Y-81625566D01*
X172144008Y-81625568D01*
X172264412Y-81664689D01*
X172368631Y-81698553D01*
X172601903Y-81735500D01*
X172601908Y-81735500D01*
X172838097Y-81735500D01*
X173071368Y-81698553D01*
X173295992Y-81625568D01*
X173506433Y-81518343D01*
X173697510Y-81379517D01*
X173864517Y-81212510D01*
X173889682Y-81177872D01*
X173945011Y-81135207D01*
X174014625Y-81129228D01*
X174076420Y-81161833D01*
X174090315Y-81177870D01*
X174115483Y-81212510D01*
X174282490Y-81379517D01*
X174473567Y-81518343D01*
X174572991Y-81569002D01*
X174684003Y-81625566D01*
X174684005Y-81625566D01*
X174684008Y-81625568D01*
X174804412Y-81664689D01*
X174908631Y-81698553D01*
X175141903Y-81735500D01*
X175141908Y-81735500D01*
X175378097Y-81735500D01*
X175611368Y-81698553D01*
X175835992Y-81625568D01*
X176046433Y-81518343D01*
X176237510Y-81379517D01*
X176404517Y-81212510D01*
X176429682Y-81177872D01*
X176485011Y-81135207D01*
X176554625Y-81129228D01*
X176616420Y-81161833D01*
X176630315Y-81177870D01*
X176655483Y-81212510D01*
X176822490Y-81379517D01*
X177013567Y-81518343D01*
X177112991Y-81569002D01*
X177224003Y-81625566D01*
X177224005Y-81625566D01*
X177224008Y-81625568D01*
X177344412Y-81664689D01*
X177448631Y-81698553D01*
X177681903Y-81735500D01*
X177681908Y-81735500D01*
X177918097Y-81735500D01*
X178151368Y-81698553D01*
X178375992Y-81625568D01*
X178586433Y-81518343D01*
X178777510Y-81379517D01*
X178944517Y-81212510D01*
X179083343Y-81021433D01*
X179190568Y-80810992D01*
X179263553Y-80586368D01*
X179268031Y-80558097D01*
X179300500Y-80353097D01*
X179300500Y-80116902D01*
X179263553Y-79883631D01*
X179220378Y-79750753D01*
X179190568Y-79659008D01*
X179190566Y-79659005D01*
X179190566Y-79659003D01*
X179116257Y-79513165D01*
X179083343Y-79448567D01*
X178944517Y-79257490D01*
X178777510Y-79090483D01*
X178586433Y-78951657D01*
X178562574Y-78939500D01*
X178375996Y-78844433D01*
X178151368Y-78771446D01*
X177918097Y-78734500D01*
X177918092Y-78734500D01*
X177681908Y-78734500D01*
X177681903Y-78734500D01*
X177448631Y-78771446D01*
X177224003Y-78844433D01*
X177013566Y-78951657D01*
X176904550Y-79030862D01*
X176822490Y-79090483D01*
X176822488Y-79090485D01*
X176822487Y-79090485D01*
X176655484Y-79257488D01*
X176630318Y-79292127D01*
X176574987Y-79334792D01*
X176505374Y-79340771D01*
X176443579Y-79308165D01*
X176429682Y-79292127D01*
X176404517Y-79257490D01*
X176237510Y-79090483D01*
X176046433Y-78951657D01*
X176022574Y-78939500D01*
X175835996Y-78844433D01*
X175611368Y-78771446D01*
X175378097Y-78734500D01*
X175378092Y-78734500D01*
X175141908Y-78734500D01*
X175141903Y-78734500D01*
X174908631Y-78771446D01*
X174684003Y-78844433D01*
X174473566Y-78951657D01*
X174364550Y-79030862D01*
X174282490Y-79090483D01*
X174282488Y-79090485D01*
X174282487Y-79090485D01*
X174115484Y-79257488D01*
X174090318Y-79292127D01*
X174034987Y-79334792D01*
X173965374Y-79340771D01*
X173903579Y-79308165D01*
X173889682Y-79292127D01*
X173864517Y-79257490D01*
X173697510Y-79090483D01*
X173506433Y-78951657D01*
X173482574Y-78939500D01*
X173295996Y-78844433D01*
X173071368Y-78771446D01*
X172838097Y-78734500D01*
X172838092Y-78734500D01*
X172601908Y-78734500D01*
X172601903Y-78734500D01*
X172368631Y-78771446D01*
X172144003Y-78844433D01*
X171933566Y-78951657D01*
X171824550Y-79030862D01*
X171742490Y-79090483D01*
X171742488Y-79090485D01*
X171742487Y-79090485D01*
X171575485Y-79257487D01*
X171575485Y-79257488D01*
X171575483Y-79257490D01*
X171519320Y-79334792D01*
X171436657Y-79448566D01*
X171329433Y-79659003D01*
X171256446Y-79883631D01*
X171219500Y-80116902D01*
X163954057Y-80116902D01*
X164050021Y-80093037D01*
X164215753Y-80010842D01*
X164359940Y-79894940D01*
X164475842Y-79750753D01*
X164558037Y-79585021D01*
X164602683Y-79405495D01*
X164605500Y-79363954D01*
X164605500Y-78637682D01*
X165705000Y-78637682D01*
X165705000Y-78842317D01*
X165737009Y-79044417D01*
X165800244Y-79239031D01*
X165893141Y-79421350D01*
X165893147Y-79421359D01*
X165925523Y-79465921D01*
X165925524Y-79465922D01*
X166605000Y-78786446D01*
X166605000Y-78792661D01*
X166632259Y-78894394D01*
X166684920Y-78985606D01*
X166759394Y-79060080D01*
X166850606Y-79112741D01*
X166952339Y-79140000D01*
X166958553Y-79140000D01*
X166279076Y-79819474D01*
X166323650Y-79851859D01*
X166505968Y-79944755D01*
X166700582Y-80007990D01*
X166902683Y-80040000D01*
X167107317Y-80040000D01*
X167309417Y-80007990D01*
X167352151Y-79994105D01*
X167504031Y-79944755D01*
X167686349Y-79851859D01*
X167730921Y-79819474D01*
X167051447Y-79140000D01*
X167057661Y-79140000D01*
X167159394Y-79112741D01*
X167250606Y-79060080D01*
X167325080Y-78985606D01*
X167377741Y-78894394D01*
X167405000Y-78792661D01*
X167405000Y-78786447D01*
X168084474Y-79465921D01*
X168116859Y-79421349D01*
X168209755Y-79239031D01*
X168272990Y-79044417D01*
X168305000Y-78842317D01*
X168305000Y-78637682D01*
X168272990Y-78435582D01*
X168209755Y-78240968D01*
X168116859Y-78058650D01*
X168084474Y-78014077D01*
X168084474Y-78014076D01*
X167405000Y-78693551D01*
X167405000Y-78687339D01*
X167377741Y-78585606D01*
X167325080Y-78494394D01*
X167250606Y-78419920D01*
X167159394Y-78367259D01*
X167057661Y-78340000D01*
X167051446Y-78340000D01*
X167730922Y-77660524D01*
X167730921Y-77660523D01*
X167686359Y-77628147D01*
X167686350Y-77628141D01*
X167504031Y-77535244D01*
X167309417Y-77472009D01*
X167107317Y-77440000D01*
X166902683Y-77440000D01*
X166700582Y-77472009D01*
X166505968Y-77535244D01*
X166323644Y-77628143D01*
X166279077Y-77660523D01*
X166279077Y-77660524D01*
X166958554Y-78340000D01*
X166952339Y-78340000D01*
X166850606Y-78367259D01*
X166759394Y-78419920D01*
X166684920Y-78494394D01*
X166632259Y-78585606D01*
X166605000Y-78687339D01*
X166605000Y-78693553D01*
X165925524Y-78014077D01*
X165925523Y-78014077D01*
X165893143Y-78058644D01*
X165800244Y-78240968D01*
X165737009Y-78435582D01*
X165705000Y-78637682D01*
X164605500Y-78637682D01*
X164605500Y-78116046D01*
X164602683Y-78074505D01*
X164596588Y-78049998D01*
X164588717Y-78018346D01*
X164558037Y-77894979D01*
X164475842Y-77729247D01*
X164458185Y-77707281D01*
X164359940Y-77585059D01*
X164257785Y-77502945D01*
X164215753Y-77469158D01*
X164215751Y-77469157D01*
X164215750Y-77469156D01*
X164050023Y-77386964D01*
X164050021Y-77386963D01*
X163870497Y-77342317D01*
X163870501Y-77342317D01*
X163839339Y-77340204D01*
X163828954Y-77339500D01*
X163828952Y-77339500D01*
X163417626Y-77339500D01*
X163350587Y-77319815D01*
X163304832Y-77267011D01*
X163294888Y-77197853D01*
X163323913Y-77134297D01*
X163329945Y-77127819D01*
X163740862Y-76716902D01*
X171219500Y-76716902D01*
X171219500Y-76953097D01*
X171256446Y-77186368D01*
X171329433Y-77410996D01*
X171418124Y-77585060D01*
X171436657Y-77621433D01*
X171575483Y-77812510D01*
X171742490Y-77979517D01*
X171933567Y-78118343D01*
X172027627Y-78166269D01*
X172144003Y-78225566D01*
X172144005Y-78225566D01*
X172144008Y-78225568D01*
X172264412Y-78264689D01*
X172368631Y-78298553D01*
X172601903Y-78335500D01*
X172601908Y-78335500D01*
X172838097Y-78335500D01*
X173071368Y-78298553D01*
X173099913Y-78289278D01*
X173295992Y-78225568D01*
X173506433Y-78118343D01*
X173697510Y-77979517D01*
X173864517Y-77812510D01*
X173889682Y-77777872D01*
X173945011Y-77735207D01*
X174014625Y-77729228D01*
X174076420Y-77761833D01*
X174090315Y-77777870D01*
X174115483Y-77812510D01*
X174282490Y-77979517D01*
X174473567Y-78118343D01*
X174567627Y-78166269D01*
X174684003Y-78225566D01*
X174684005Y-78225566D01*
X174684008Y-78225568D01*
X174804412Y-78264689D01*
X174908631Y-78298553D01*
X175141903Y-78335500D01*
X175141908Y-78335500D01*
X175378097Y-78335500D01*
X175611368Y-78298553D01*
X175639913Y-78289278D01*
X175835992Y-78225568D01*
X176046433Y-78118343D01*
X176237510Y-77979517D01*
X176404517Y-77812510D01*
X176502174Y-77678096D01*
X176503808Y-77676038D01*
X176530291Y-77657354D01*
X176555951Y-77637568D01*
X176558969Y-77637123D01*
X176560900Y-77635761D01*
X176571239Y-77635314D01*
X176610670Y-77629501D01*
X176648933Y-77632512D01*
X177235388Y-77046057D01*
X177240890Y-77066591D01*
X177319882Y-77203408D01*
X177431592Y-77315118D01*
X177568409Y-77394110D01*
X177588940Y-77399611D01*
X177002485Y-77986065D01*
X177002485Y-77986066D01*
X177066243Y-78032388D01*
X177262589Y-78132432D01*
X177472164Y-78200526D01*
X177689819Y-78235000D01*
X177910181Y-78235000D01*
X178127835Y-78200526D01*
X178337410Y-78132432D01*
X178533760Y-78032386D01*
X178597513Y-77986066D01*
X178597514Y-77986066D01*
X178011058Y-77399611D01*
X178031591Y-77394110D01*
X178168408Y-77315118D01*
X178280118Y-77203408D01*
X178359110Y-77066591D01*
X178364611Y-77046059D01*
X178951066Y-77632514D01*
X178951066Y-77632513D01*
X178997386Y-77568760D01*
X179097432Y-77372410D01*
X179165526Y-77162835D01*
X179200000Y-76945181D01*
X179200000Y-76724818D01*
X179165526Y-76507164D01*
X179097432Y-76297589D01*
X178997388Y-76101243D01*
X178951066Y-76037485D01*
X178951065Y-76037485D01*
X178364611Y-76623940D01*
X178359110Y-76603409D01*
X178280118Y-76466592D01*
X178168408Y-76354882D01*
X178031591Y-76275890D01*
X178011057Y-76270387D01*
X178597513Y-75683932D01*
X178533756Y-75637611D01*
X178337410Y-75537567D01*
X178127835Y-75469473D01*
X177910181Y-75435000D01*
X177689819Y-75435000D01*
X177472164Y-75469473D01*
X177262589Y-75537567D01*
X177066233Y-75637616D01*
X177002485Y-75683931D01*
X177002485Y-75683932D01*
X177588941Y-76270388D01*
X177568409Y-76275890D01*
X177431592Y-76354882D01*
X177319882Y-76466592D01*
X177240890Y-76603409D01*
X177235388Y-76623941D01*
X176648932Y-76037485D01*
X176610667Y-76040497D01*
X176603094Y-76038906D01*
X176595585Y-76040763D01*
X176569387Y-76031825D01*
X176542290Y-76026133D01*
X176535111Y-76020131D01*
X176529458Y-76018203D01*
X176510817Y-75999820D01*
X176503807Y-75993960D01*
X176502168Y-75991894D01*
X176404517Y-75857490D01*
X176237510Y-75690483D01*
X176046433Y-75551657D01*
X176013742Y-75535000D01*
X175835996Y-75444433D01*
X175611368Y-75371446D01*
X175378097Y-75334500D01*
X175378092Y-75334500D01*
X175141908Y-75334500D01*
X175141903Y-75334500D01*
X174908631Y-75371446D01*
X174684003Y-75444433D01*
X174473566Y-75551657D01*
X174370873Y-75626269D01*
X174282490Y-75690483D01*
X174282488Y-75690485D01*
X174282487Y-75690485D01*
X174115484Y-75857488D01*
X174090318Y-75892127D01*
X174034987Y-75934792D01*
X173965374Y-75940771D01*
X173903579Y-75908165D01*
X173889682Y-75892127D01*
X173887360Y-75888931D01*
X173864517Y-75857490D01*
X173697510Y-75690483D01*
X173506433Y-75551657D01*
X173473742Y-75535000D01*
X173295996Y-75444433D01*
X173071368Y-75371446D01*
X172838097Y-75334500D01*
X172838092Y-75334500D01*
X172601908Y-75334500D01*
X172601903Y-75334500D01*
X172368631Y-75371446D01*
X172144003Y-75444433D01*
X171933566Y-75551657D01*
X171830873Y-75626269D01*
X171742490Y-75690483D01*
X171742488Y-75690485D01*
X171742487Y-75690485D01*
X171575485Y-75857487D01*
X171575485Y-75857488D01*
X171575483Y-75857490D01*
X171538190Y-75908819D01*
X171436657Y-76048566D01*
X171329433Y-76259003D01*
X171256446Y-76483631D01*
X171219500Y-76716902D01*
X163740862Y-76716902D01*
X163833409Y-76624355D01*
X166822743Y-73635021D01*
X169825690Y-70632074D01*
X169936760Y-70479199D01*
X169957282Y-70438921D01*
X170005256Y-70388126D01*
X170073076Y-70371330D01*
X170139212Y-70393867D01*
X170178250Y-70438919D01*
X170227237Y-70535060D01*
X170252187Y-70584025D01*
X170381752Y-70762358D01*
X170381756Y-70762363D01*
X170537636Y-70918243D01*
X170537641Y-70918247D01*
X170602072Y-70965058D01*
X170715978Y-71047815D01*
X170836544Y-71109247D01*
X170912393Y-71147895D01*
X170912396Y-71147896D01*
X171017221Y-71181955D01*
X171122049Y-71216015D01*
X171339778Y-71250500D01*
X171339779Y-71250500D01*
X171560221Y-71250500D01*
X171560222Y-71250500D01*
X171777951Y-71216015D01*
X171987606Y-71147895D01*
X172184022Y-71047815D01*
X172362365Y-70918242D01*
X172518242Y-70762365D01*
X172647815Y-70584022D01*
X172747895Y-70387606D01*
X172816015Y-70177951D01*
X172850500Y-69960222D01*
X172850500Y-69739778D01*
X172816015Y-69522049D01*
X172772803Y-69389055D01*
X172747896Y-69312396D01*
X172747894Y-69312393D01*
X172731513Y-69280242D01*
X172731512Y-69280240D01*
X172647814Y-69115976D01*
X172518247Y-68937641D01*
X172518243Y-68937636D01*
X172362363Y-68781756D01*
X172362358Y-68781752D01*
X172184025Y-68652187D01*
X172184024Y-68652186D01*
X172184022Y-68652185D01*
X172147018Y-68633330D01*
X172096223Y-68585356D01*
X172079428Y-68517535D01*
X172101966Y-68451400D01*
X172130428Y-68422529D01*
X172175921Y-68389475D01*
X172175921Y-68389474D01*
X171496447Y-67710000D01*
X171502661Y-67710000D01*
X171604394Y-67682741D01*
X171695606Y-67630080D01*
X171770080Y-67555606D01*
X171822741Y-67464394D01*
X171850000Y-67362661D01*
X171850000Y-67356448D01*
X172529474Y-68035922D01*
X172529474Y-68035921D01*
X172561859Y-67991349D01*
X172654755Y-67809031D01*
X172717990Y-67614417D01*
X172750000Y-67412317D01*
X172750000Y-67207682D01*
X172717990Y-67005582D01*
X172654755Y-66810968D01*
X172561859Y-66628650D01*
X172529474Y-66584077D01*
X172529474Y-66584076D01*
X171850000Y-67263551D01*
X171850000Y-67257339D01*
X171822741Y-67155606D01*
X171770080Y-67064394D01*
X171695606Y-66989920D01*
X171604394Y-66937259D01*
X171502661Y-66910000D01*
X171496446Y-66910000D01*
X172175922Y-66230524D01*
X172175921Y-66230523D01*
X172130429Y-66197471D01*
X172087763Y-66142142D01*
X172081784Y-66072528D01*
X172114389Y-66010733D01*
X172147015Y-65986670D01*
X172184022Y-65967815D01*
X172362365Y-65838242D01*
X172518242Y-65682365D01*
X172647815Y-65504022D01*
X172747895Y-65307606D01*
X172816015Y-65097951D01*
X172850500Y-64880222D01*
X172850500Y-64659778D01*
X172816015Y-64442049D01*
X172762627Y-64277736D01*
X172747896Y-64232396D01*
X172747895Y-64232393D01*
X172713237Y-64164375D01*
X172647815Y-64035978D01*
X172583946Y-63948069D01*
X172518247Y-63857641D01*
X172518243Y-63857636D01*
X172362363Y-63701756D01*
X172362358Y-63701752D01*
X172222745Y-63600318D01*
X172180079Y-63544989D01*
X172174100Y-63475375D01*
X172206705Y-63413580D01*
X172222745Y-63399682D01*
X172362358Y-63298247D01*
X172362356Y-63298247D01*
X172362365Y-63298242D01*
X172518242Y-63142365D01*
X172647815Y-62964022D01*
X172747895Y-62767606D01*
X172816015Y-62557951D01*
X172850500Y-62340222D01*
X172850500Y-62119778D01*
X172816015Y-61902049D01*
X172757607Y-61722285D01*
X172747896Y-61692396D01*
X172747895Y-61692393D01*
X172694867Y-61588322D01*
X172647815Y-61495978D01*
X172583946Y-61408069D01*
X172518247Y-61317641D01*
X172518243Y-61317636D01*
X172362363Y-61161756D01*
X172362358Y-61161752D01*
X172222745Y-61060318D01*
X172180079Y-61004989D01*
X172174100Y-60935375D01*
X172206705Y-60873580D01*
X172222745Y-60859682D01*
X172362358Y-60758247D01*
X172362356Y-60758247D01*
X172362365Y-60758242D01*
X172518242Y-60602365D01*
X172647815Y-60424022D01*
X172747895Y-60227606D01*
X172816015Y-60017951D01*
X172850500Y-59800222D01*
X172850500Y-59579778D01*
X172816015Y-59362049D01*
X172781252Y-59255059D01*
X172747896Y-59152396D01*
X172747895Y-59152393D01*
X172676521Y-59012317D01*
X172647815Y-58955978D01*
X172583946Y-58868069D01*
X172518247Y-58777641D01*
X172518243Y-58777636D01*
X172362363Y-58621756D01*
X172362358Y-58621752D01*
X172222745Y-58520318D01*
X172180079Y-58464989D01*
X172174100Y-58395375D01*
X172206705Y-58333580D01*
X172222745Y-58319682D01*
X172362358Y-58218247D01*
X172362356Y-58218247D01*
X172362365Y-58218242D01*
X172518242Y-58062365D01*
X172647815Y-57884022D01*
X172747895Y-57687606D01*
X172816015Y-57477951D01*
X172850500Y-57260222D01*
X172850500Y-57039778D01*
X172816015Y-56822049D01*
X172777083Y-56702227D01*
X172747896Y-56612396D01*
X172747895Y-56612393D01*
X172690202Y-56499167D01*
X172647815Y-56415978D01*
X172573174Y-56313243D01*
X172518247Y-56237641D01*
X172518243Y-56237636D01*
X172362363Y-56081756D01*
X172362358Y-56081752D01*
X172222745Y-55980318D01*
X172180079Y-55924989D01*
X172174100Y-55855375D01*
X172206705Y-55793580D01*
X172222745Y-55779682D01*
X172362358Y-55678247D01*
X172362356Y-55678247D01*
X172362365Y-55678242D01*
X172518242Y-55522365D01*
X172647815Y-55344022D01*
X172747895Y-55147606D01*
X172816015Y-54937951D01*
X172850500Y-54720222D01*
X172850500Y-54499778D01*
X177669500Y-54499778D01*
X177669500Y-54720221D01*
X177703985Y-54937952D01*
X177772103Y-55147603D01*
X177772104Y-55147606D01*
X177820207Y-55242011D01*
X177865764Y-55331421D01*
X177872187Y-55344025D01*
X178001752Y-55522358D01*
X178001756Y-55522363D01*
X178157636Y-55678243D01*
X178157641Y-55678247D01*
X178297254Y-55779682D01*
X178339920Y-55835012D01*
X178345899Y-55904625D01*
X178313293Y-55966420D01*
X178297254Y-55980318D01*
X178157641Y-56081752D01*
X178157636Y-56081756D01*
X178001756Y-56237636D01*
X178001752Y-56237641D01*
X177872187Y-56415974D01*
X177772104Y-56612393D01*
X177772103Y-56612396D01*
X177703985Y-56822047D01*
X177669500Y-57039778D01*
X177669500Y-57260221D01*
X177703985Y-57477952D01*
X177772103Y-57687603D01*
X177772104Y-57687606D01*
X177835944Y-57812895D01*
X177870652Y-57881014D01*
X177872187Y-57884025D01*
X178001752Y-58062358D01*
X178001756Y-58062363D01*
X178157636Y-58218243D01*
X178157641Y-58218247D01*
X178297254Y-58319682D01*
X178339920Y-58375012D01*
X178345899Y-58444625D01*
X178313293Y-58506420D01*
X178297254Y-58520318D01*
X178157641Y-58621752D01*
X178157636Y-58621756D01*
X178001756Y-58777636D01*
X178001752Y-58777641D01*
X177872187Y-58955974D01*
X177772104Y-59152393D01*
X177772103Y-59152396D01*
X177703985Y-59362047D01*
X177669500Y-59579778D01*
X177669500Y-59800221D01*
X177703985Y-60017952D01*
X177772103Y-60227603D01*
X177772104Y-60227606D01*
X177872187Y-60424025D01*
X178001752Y-60602358D01*
X178001756Y-60602363D01*
X178157636Y-60758243D01*
X178157641Y-60758247D01*
X178297254Y-60859682D01*
X178339920Y-60915012D01*
X178345899Y-60984625D01*
X178313293Y-61046420D01*
X178297254Y-61060318D01*
X178157641Y-61161752D01*
X178157636Y-61161756D01*
X178001756Y-61317636D01*
X178001752Y-61317641D01*
X177872187Y-61495974D01*
X177772104Y-61692393D01*
X177772103Y-61692396D01*
X177703985Y-61902047D01*
X177669697Y-62118533D01*
X177669500Y-62119778D01*
X177669500Y-62340222D01*
X177669696Y-62341457D01*
X177703985Y-62557952D01*
X177772103Y-62767603D01*
X177772104Y-62767606D01*
X177820730Y-62863037D01*
X177855950Y-62932160D01*
X177872187Y-62964025D01*
X178001752Y-63142358D01*
X178001756Y-63142363D01*
X178157636Y-63298243D01*
X178157641Y-63298247D01*
X178297254Y-63399682D01*
X178339920Y-63455012D01*
X178345899Y-63524625D01*
X178313293Y-63586420D01*
X178297254Y-63600318D01*
X178157641Y-63701752D01*
X178157636Y-63701756D01*
X178001756Y-63857636D01*
X178001752Y-63857641D01*
X177872187Y-64035974D01*
X177772104Y-64232393D01*
X177772103Y-64232396D01*
X177703985Y-64442047D01*
X177703985Y-64442049D01*
X177669500Y-64659778D01*
X177669500Y-64880222D01*
X177675337Y-64917073D01*
X177703985Y-65097952D01*
X177772103Y-65307603D01*
X177772104Y-65307606D01*
X177872187Y-65504025D01*
X178001752Y-65682358D01*
X178001756Y-65682363D01*
X178157636Y-65838243D01*
X178157641Y-65838247D01*
X178304138Y-65944682D01*
X178335978Y-65967815D01*
X178372977Y-65986667D01*
X178372979Y-65986668D01*
X178423775Y-66034643D01*
X178440570Y-66102464D01*
X178418032Y-66168599D01*
X178389569Y-66197471D01*
X178344077Y-66230522D01*
X178344077Y-66230524D01*
X179023554Y-66910000D01*
X179017339Y-66910000D01*
X178915606Y-66937259D01*
X178824394Y-66989920D01*
X178749920Y-67064394D01*
X178697259Y-67155606D01*
X178670000Y-67257339D01*
X178670000Y-67263553D01*
X177990524Y-66584077D01*
X177990523Y-66584077D01*
X177958143Y-66628644D01*
X177865244Y-66810968D01*
X177802009Y-67005582D01*
X177770000Y-67207682D01*
X177770000Y-67412317D01*
X177802009Y-67614417D01*
X177865244Y-67809031D01*
X177958141Y-67991350D01*
X177958147Y-67991359D01*
X177990523Y-68035921D01*
X177990524Y-68035922D01*
X178670000Y-67356446D01*
X178670000Y-67362661D01*
X178697259Y-67464394D01*
X178749920Y-67555606D01*
X178824394Y-67630080D01*
X178915606Y-67682741D01*
X179017339Y-67710000D01*
X179023553Y-67710000D01*
X178333716Y-68399835D01*
X178327480Y-68429516D01*
X178278427Y-68479272D01*
X178248159Y-68491198D01*
X178224979Y-68496963D01*
X178224977Y-68496963D01*
X178224976Y-68496964D01*
X178059249Y-68579156D01*
X177915059Y-68695059D01*
X177799156Y-68839249D01*
X177716964Y-69004976D01*
X177716963Y-69004978D01*
X177672317Y-69184500D01*
X177669500Y-69226048D01*
X177669500Y-70473951D01*
X177672317Y-70515499D01*
X177716963Y-70695021D01*
X177716964Y-70695023D01*
X177799156Y-70860750D01*
X177915059Y-71004940D01*
X177991076Y-71066044D01*
X178059247Y-71120842D01*
X178224979Y-71203037D01*
X178404501Y-71247682D01*
X178404502Y-71247682D01*
X178404505Y-71247683D01*
X178446046Y-71250500D01*
X178446048Y-71250500D01*
X179693952Y-71250500D01*
X179693954Y-71250500D01*
X179735495Y-71247683D01*
X179915021Y-71203037D01*
X180080753Y-71120842D01*
X180224940Y-71004940D01*
X180340842Y-70860753D01*
X180423037Y-70695021D01*
X180467683Y-70515495D01*
X180470500Y-70473954D01*
X180470500Y-69226046D01*
X180467683Y-69184505D01*
X180423037Y-69004979D01*
X180340842Y-68839247D01*
X180290945Y-68777173D01*
X180224940Y-68695059D01*
X180122785Y-68612945D01*
X180080753Y-68579158D01*
X180080751Y-68579157D01*
X180080750Y-68579156D01*
X179915023Y-68496964D01*
X179915018Y-68496962D01*
X179891841Y-68491198D01*
X179831535Y-68455915D01*
X179799878Y-68393629D01*
X179799866Y-68393418D01*
X179116447Y-67710000D01*
X179122661Y-67710000D01*
X179224394Y-67682741D01*
X179315606Y-67630080D01*
X179390080Y-67555606D01*
X179442741Y-67464394D01*
X179470000Y-67362661D01*
X179470000Y-67356448D01*
X180149474Y-68035922D01*
X180149474Y-68035921D01*
X180181859Y-67991349D01*
X180274755Y-67809031D01*
X180337990Y-67614417D01*
X180370000Y-67412317D01*
X180370000Y-67207682D01*
X180337990Y-67005582D01*
X180274755Y-66810968D01*
X180181859Y-66628650D01*
X180149474Y-66584077D01*
X180149474Y-66584076D01*
X179470000Y-67263551D01*
X179470000Y-67257339D01*
X179442741Y-67155606D01*
X179390080Y-67064394D01*
X179315606Y-66989920D01*
X179224394Y-66937259D01*
X179122661Y-66910000D01*
X179116446Y-66910000D01*
X179795922Y-66230524D01*
X179795921Y-66230523D01*
X179750429Y-66197471D01*
X179707763Y-66142142D01*
X179701784Y-66072528D01*
X179734389Y-66010733D01*
X179767015Y-65986670D01*
X179804022Y-65967815D01*
X179982365Y-65838242D01*
X180138242Y-65682365D01*
X180267815Y-65504022D01*
X180367895Y-65307606D01*
X180436015Y-65097951D01*
X180470500Y-64880222D01*
X180470500Y-64659778D01*
X180436015Y-64442049D01*
X180382627Y-64277736D01*
X180367896Y-64232396D01*
X180367895Y-64232393D01*
X180333237Y-64164375D01*
X180267815Y-64035978D01*
X180203946Y-63948069D01*
X180138247Y-63857641D01*
X180138243Y-63857636D01*
X179982363Y-63701756D01*
X179982358Y-63701752D01*
X179842745Y-63600318D01*
X179800079Y-63544989D01*
X179794100Y-63475375D01*
X179826705Y-63413580D01*
X179842745Y-63399682D01*
X179982358Y-63298247D01*
X179982356Y-63298247D01*
X179982365Y-63298242D01*
X180138242Y-63142365D01*
X180267815Y-62964022D01*
X180367895Y-62767606D01*
X180436015Y-62557951D01*
X180470500Y-62340222D01*
X180470500Y-62119778D01*
X180436015Y-61902049D01*
X180377607Y-61722285D01*
X180367896Y-61692396D01*
X180367895Y-61692393D01*
X180314867Y-61588322D01*
X180267815Y-61495978D01*
X180203946Y-61408069D01*
X180138247Y-61317641D01*
X180138243Y-61317636D01*
X179982363Y-61161756D01*
X179982358Y-61161752D01*
X179842745Y-61060318D01*
X179800079Y-61004989D01*
X179794100Y-60935375D01*
X179826705Y-60873580D01*
X179842745Y-60859682D01*
X179982358Y-60758247D01*
X179982356Y-60758247D01*
X179982365Y-60758242D01*
X180138242Y-60602365D01*
X180267815Y-60424022D01*
X180367895Y-60227606D01*
X180436015Y-60017951D01*
X180470500Y-59800222D01*
X180470500Y-59579778D01*
X180436015Y-59362049D01*
X180401252Y-59255059D01*
X180367896Y-59152396D01*
X180367895Y-59152393D01*
X180296521Y-59012317D01*
X180267815Y-58955978D01*
X180203946Y-58868069D01*
X180138247Y-58777641D01*
X180138243Y-58777636D01*
X179982363Y-58621756D01*
X179982358Y-58621752D01*
X179842745Y-58520318D01*
X179800079Y-58464989D01*
X179794100Y-58395375D01*
X179826705Y-58333580D01*
X179842745Y-58319682D01*
X179982358Y-58218247D01*
X179982356Y-58218247D01*
X179982365Y-58218242D01*
X180138242Y-58062365D01*
X180267815Y-57884022D01*
X180367895Y-57687606D01*
X180436015Y-57477951D01*
X180470500Y-57260222D01*
X180470500Y-57039778D01*
X180436015Y-56822049D01*
X180397083Y-56702227D01*
X180367896Y-56612396D01*
X180367895Y-56612393D01*
X180310202Y-56499167D01*
X180267815Y-56415978D01*
X180193174Y-56313243D01*
X180138247Y-56237641D01*
X180138243Y-56237636D01*
X179982363Y-56081756D01*
X179982358Y-56081752D01*
X179842745Y-55980318D01*
X179800079Y-55924989D01*
X179794100Y-55855375D01*
X179826705Y-55793580D01*
X179842745Y-55779682D01*
X179982358Y-55678247D01*
X179982356Y-55678247D01*
X179982365Y-55678242D01*
X180138242Y-55522365D01*
X180267815Y-55344022D01*
X180367895Y-55147606D01*
X180436015Y-54937951D01*
X180470500Y-54720222D01*
X180470500Y-54499778D01*
X180436015Y-54282049D01*
X180369611Y-54077675D01*
X180367896Y-54072396D01*
X180367895Y-54072393D01*
X180317841Y-53974158D01*
X180267815Y-53875978D01*
X180190802Y-53769978D01*
X180138247Y-53697641D01*
X180138243Y-53697636D01*
X179982363Y-53541756D01*
X179982358Y-53541752D01*
X179804025Y-53412187D01*
X179804024Y-53412186D01*
X179804022Y-53412185D01*
X179741096Y-53380122D01*
X179607606Y-53312104D01*
X179607603Y-53312103D01*
X179397952Y-53243985D01*
X179229576Y-53217317D01*
X179180222Y-53209500D01*
X178959778Y-53209500D01*
X178910424Y-53217317D01*
X178742047Y-53243985D01*
X178532396Y-53312103D01*
X178532393Y-53312104D01*
X178335974Y-53412187D01*
X178157641Y-53541752D01*
X178157636Y-53541756D01*
X178001756Y-53697636D01*
X178001752Y-53697641D01*
X177872187Y-53875974D01*
X177772104Y-54072393D01*
X177772103Y-54072396D01*
X177703985Y-54282047D01*
X177669500Y-54499778D01*
X172850500Y-54499778D01*
X172816015Y-54282049D01*
X172749611Y-54077675D01*
X172747896Y-54072396D01*
X172747895Y-54072393D01*
X172697841Y-53974158D01*
X172647815Y-53875978D01*
X172570802Y-53769978D01*
X172518247Y-53697641D01*
X172518243Y-53697636D01*
X172362363Y-53541756D01*
X172362358Y-53541752D01*
X172184025Y-53412187D01*
X172184024Y-53412186D01*
X172184022Y-53412185D01*
X172121096Y-53380122D01*
X171987606Y-53312104D01*
X171987603Y-53312103D01*
X171777952Y-53243985D01*
X171609576Y-53217317D01*
X171560222Y-53209500D01*
X171339778Y-53209500D01*
X171290424Y-53217317D01*
X171122047Y-53243985D01*
X170912396Y-53312103D01*
X170912393Y-53312104D01*
X170715974Y-53412187D01*
X170537641Y-53541752D01*
X170537636Y-53541756D01*
X170381756Y-53697636D01*
X170381752Y-53697641D01*
X170252187Y-53875974D01*
X170152104Y-54072393D01*
X170152103Y-54072396D01*
X170083985Y-54282047D01*
X170049500Y-54499778D01*
X170049500Y-54720221D01*
X170083985Y-54937952D01*
X170152103Y-55147603D01*
X170152104Y-55147606D01*
X170200207Y-55242011D01*
X170245764Y-55331421D01*
X170252187Y-55344025D01*
X170381752Y-55522358D01*
X170381756Y-55522363D01*
X170537636Y-55678243D01*
X170537641Y-55678247D01*
X170677254Y-55779682D01*
X170719920Y-55835012D01*
X170725899Y-55904625D01*
X170693293Y-55966420D01*
X170677254Y-55980318D01*
X170537641Y-56081752D01*
X170537636Y-56081756D01*
X170381756Y-56237636D01*
X170381752Y-56237641D01*
X170252187Y-56415974D01*
X170152104Y-56612393D01*
X170152103Y-56612396D01*
X170083985Y-56822047D01*
X170049500Y-57039778D01*
X170049500Y-57260221D01*
X170083985Y-57477952D01*
X170152103Y-57687603D01*
X170152104Y-57687606D01*
X170215944Y-57812895D01*
X170250652Y-57881014D01*
X170252187Y-57884025D01*
X170381752Y-58062358D01*
X170381756Y-58062363D01*
X170537636Y-58218243D01*
X170537641Y-58218247D01*
X170677254Y-58319682D01*
X170719920Y-58375012D01*
X170725899Y-58444625D01*
X170693293Y-58506420D01*
X170677254Y-58520318D01*
X170537641Y-58621752D01*
X170537636Y-58621756D01*
X170381756Y-58777636D01*
X170381752Y-58777641D01*
X170252187Y-58955974D01*
X170152104Y-59152393D01*
X170152103Y-59152396D01*
X170083985Y-59362047D01*
X170049500Y-59579778D01*
X170049500Y-59800221D01*
X170083985Y-60017952D01*
X170152103Y-60227603D01*
X170152104Y-60227606D01*
X170252187Y-60424025D01*
X170381752Y-60602358D01*
X170381756Y-60602363D01*
X170537636Y-60758243D01*
X170537641Y-60758247D01*
X170677254Y-60859682D01*
X170719920Y-60915012D01*
X170725899Y-60984625D01*
X170693293Y-61046420D01*
X170677254Y-61060318D01*
X170537641Y-61161752D01*
X170537636Y-61161756D01*
X170381756Y-61317636D01*
X170381752Y-61317641D01*
X170252187Y-61495974D01*
X170152104Y-61692393D01*
X170152103Y-61692396D01*
X170083985Y-61902047D01*
X170049697Y-62118533D01*
X170049500Y-62119778D01*
X170049500Y-62340222D01*
X170049696Y-62341457D01*
X170083985Y-62557952D01*
X170152103Y-62767603D01*
X170152104Y-62767606D01*
X170200730Y-62863037D01*
X170235950Y-62932160D01*
X170252187Y-62964025D01*
X170381752Y-63142358D01*
X170381756Y-63142363D01*
X170537636Y-63298243D01*
X170537641Y-63298247D01*
X170677254Y-63399682D01*
X170719920Y-63455012D01*
X170725899Y-63524625D01*
X170693293Y-63586420D01*
X170677254Y-63600318D01*
X170537641Y-63701752D01*
X170537636Y-63701756D01*
X170381756Y-63857636D01*
X170381752Y-63857641D01*
X170252187Y-64035974D01*
X170252185Y-64035978D01*
X170152105Y-64232394D01*
X170150480Y-64237396D01*
X170095011Y-64408111D01*
X170064761Y-64457473D01*
X167994312Y-66527923D01*
X167994310Y-66527926D01*
X167888066Y-66674158D01*
X167888064Y-66674161D01*
X167883239Y-66680801D01*
X167883238Y-66680802D01*
X167797454Y-66849163D01*
X167739059Y-67028881D01*
X167709500Y-67215513D01*
X167709500Y-69301374D01*
X167689815Y-69368413D01*
X167673181Y-69389055D01*
X157019055Y-80043181D01*
X156957732Y-80076666D01*
X156931374Y-80079500D01*
X155219230Y-80079500D01*
X155152191Y-80059815D01*
X155106436Y-80007011D01*
X155096492Y-79937853D01*
X155125517Y-79874297D01*
X155150339Y-79852398D01*
X155199613Y-79819474D01*
X155301685Y-79751271D01*
X155302318Y-79750752D01*
X155414108Y-79659008D01*
X155590338Y-79514381D01*
X155854381Y-79250338D01*
X156091271Y-78961685D01*
X156298729Y-78651204D01*
X156474754Y-78321883D01*
X156617653Y-77976894D01*
X156726049Y-77619560D01*
X156798899Y-77253322D01*
X156835500Y-76881707D01*
X156835500Y-76508293D01*
X156798899Y-76136678D01*
X156726049Y-75770440D01*
X156617653Y-75413106D01*
X156474754Y-75068117D01*
X156298729Y-74738796D01*
X156091271Y-74428315D01*
X156091267Y-74428309D01*
X155854376Y-74139656D01*
X155590343Y-73875623D01*
X155301690Y-73638732D01*
X154991210Y-73431275D01*
X154991209Y-73431274D01*
X154991204Y-73431271D01*
X154991199Y-73431268D01*
X154991192Y-73431264D01*
X154661890Y-73255250D01*
X154661883Y-73255246D01*
X154638354Y-73245500D01*
X154316895Y-73112347D01*
X154073779Y-73038599D01*
X153959560Y-73003951D01*
X153959557Y-73003950D01*
X153959556Y-73003950D01*
X153593324Y-72931101D01*
X153593311Y-72931099D01*
X153312293Y-72903422D01*
X153221707Y-72894500D01*
X152848293Y-72894500D01*
X152764514Y-72902751D01*
X152476688Y-72931099D01*
X152476675Y-72931101D01*
X152110443Y-73003950D01*
X151753104Y-73112347D01*
X151408123Y-73255243D01*
X151408109Y-73255250D01*
X151078807Y-73431264D01*
X151078789Y-73431275D01*
X150768309Y-73638732D01*
X150479656Y-73875623D01*
X150215623Y-74139656D01*
X149978732Y-74428309D01*
X149771275Y-74738789D01*
X149771264Y-74738807D01*
X149595250Y-75068109D01*
X149595243Y-75068123D01*
X149452347Y-75413104D01*
X149343950Y-75770443D01*
X149271101Y-76136675D01*
X149271099Y-76136688D01*
X149242751Y-76424514D01*
X149234500Y-76508293D01*
X149234500Y-76881707D01*
X149242311Y-76961009D01*
X149271099Y-77253311D01*
X149271101Y-77253324D01*
X149333846Y-77568760D01*
X149343951Y-77619560D01*
X149362292Y-77680021D01*
X149452347Y-77976895D01*
X149585582Y-78298553D01*
X149595246Y-78321883D01*
X149634090Y-78394556D01*
X149771264Y-78651192D01*
X149771275Y-78651210D01*
X149978732Y-78961690D01*
X150215623Y-79250343D01*
X150479656Y-79514376D01*
X150768309Y-79751267D01*
X150919661Y-79852398D01*
X150964466Y-79906010D01*
X150973173Y-79975335D01*
X150943018Y-80038363D01*
X150883575Y-80075082D01*
X150850770Y-80079500D01*
X121763625Y-80079500D01*
X121696586Y-80059815D01*
X121675944Y-80043181D01*
X119345429Y-77712665D01*
X118332463Y-76699699D01*
X118298978Y-76638376D01*
X118297671Y-76631415D01*
X118293235Y-76603409D01*
X118269784Y-76455340D01*
X118267378Y-76447936D01*
X118237049Y-76354592D01*
X118199231Y-76238201D01*
X118199229Y-76238198D01*
X118199229Y-76238196D01*
X118144600Y-76130981D01*
X118109700Y-76062487D01*
X118095579Y-76034772D01*
X117961379Y-75850063D01*
X117799937Y-75688621D01*
X117654844Y-75583204D01*
X117612180Y-75527875D01*
X117606201Y-75458261D01*
X117638807Y-75396466D01*
X117654847Y-75382568D01*
X117734462Y-75324725D01*
X117884723Y-75174464D01*
X117884727Y-75174459D01*
X118009620Y-75002557D01*
X118106095Y-74813217D01*
X118171757Y-74611129D01*
X118171757Y-74611126D01*
X118182231Y-74545000D01*
X117134146Y-74545000D01*
X117172630Y-74478343D01*
X117205000Y-74357535D01*
X117205000Y-74232465D01*
X117172630Y-74111657D01*
X117134146Y-74045000D01*
X118182231Y-74045000D01*
X118171757Y-73978873D01*
X118171757Y-73978870D01*
X118106095Y-73776782D01*
X118009623Y-73587446D01*
X118009618Y-73587438D01*
X117967067Y-73528872D01*
X124364500Y-73528872D01*
X124364500Y-73791127D01*
X124384751Y-73944939D01*
X124398730Y-74051116D01*
X124465847Y-74301602D01*
X124466602Y-74304418D01*
X124466605Y-74304428D01*
X124566953Y-74546690D01*
X124566958Y-74546700D01*
X124698075Y-74773803D01*
X124857718Y-74981851D01*
X124857726Y-74981860D01*
X125043140Y-75167274D01*
X125043148Y-75167281D01*
X125251196Y-75326924D01*
X125478299Y-75458041D01*
X125478309Y-75458046D01*
X125713756Y-75555571D01*
X125720581Y-75558398D01*
X125973884Y-75626270D01*
X126233880Y-75660500D01*
X126233887Y-75660500D01*
X126496113Y-75660500D01*
X126496120Y-75660500D01*
X126756116Y-75626270D01*
X127009419Y-75558398D01*
X127251697Y-75458043D01*
X127478803Y-75326924D01*
X127686851Y-75167282D01*
X127686855Y-75167277D01*
X127686860Y-75167274D01*
X127872274Y-74981860D01*
X127872277Y-74981855D01*
X127872282Y-74981851D01*
X128031924Y-74773803D01*
X128163043Y-74546697D01*
X128168686Y-74533075D01*
X128211688Y-74429257D01*
X128263398Y-74304419D01*
X128331270Y-74051116D01*
X128365500Y-73791120D01*
X128365500Y-73528880D01*
X128353516Y-73437855D01*
X128364281Y-73368819D01*
X128388771Y-73333991D01*
X130656713Y-71066049D01*
X134574500Y-71066049D01*
X134574500Y-73413952D01*
X134574501Y-73413955D01*
X134577316Y-73455491D01*
X134577316Y-73455492D01*
X134621963Y-73635022D01*
X134704158Y-73800752D01*
X134778592Y-73893351D01*
X134820060Y-73944940D01*
X134964247Y-74060841D01*
X135129979Y-74143037D01*
X135309502Y-74187682D01*
X135309503Y-74187682D01*
X135309506Y-74187683D01*
X135351047Y-74190500D01*
X135934836Y-74190499D01*
X136001873Y-74210183D01*
X136047628Y-74262987D01*
X136057572Y-74332146D01*
X136028547Y-74395702D01*
X135969769Y-74433476D01*
X135966930Y-74434273D01*
X135929064Y-74444419D01*
X135705021Y-74537220D01*
X135705006Y-74537227D01*
X135494990Y-74658480D01*
X135405614Y-74727060D01*
X135405614Y-74727061D01*
X136124438Y-75445885D01*
X136122374Y-75446740D01*
X135983156Y-75539762D01*
X135864762Y-75658156D01*
X135771740Y-75797374D01*
X135770885Y-75799438D01*
X135052061Y-75080614D01*
X135052060Y-75080614D01*
X134983480Y-75169990D01*
X134862227Y-75380006D01*
X134862220Y-75380021D01*
X134769421Y-75604060D01*
X134706653Y-75838312D01*
X134675001Y-76078735D01*
X134675000Y-76078751D01*
X134675000Y-76321248D01*
X134675001Y-76321264D01*
X134706653Y-76561687D01*
X134769421Y-76795939D01*
X134862220Y-77019978D01*
X134862227Y-77019992D01*
X134983481Y-77230010D01*
X135052061Y-77319384D01*
X135770884Y-76600560D01*
X135771740Y-76602626D01*
X135864762Y-76741844D01*
X135983156Y-76860238D01*
X136122374Y-76953260D01*
X136124437Y-76954114D01*
X135405614Y-77672936D01*
X135405614Y-77672937D01*
X135494989Y-77741517D01*
X135494996Y-77741522D01*
X135705007Y-77862772D01*
X135705021Y-77862779D01*
X135929060Y-77955578D01*
X136163312Y-78018346D01*
X136403735Y-78049998D01*
X136403752Y-78050000D01*
X136646248Y-78050000D01*
X136646264Y-78049998D01*
X136886687Y-78018346D01*
X137120939Y-77955578D01*
X137344978Y-77862779D01*
X137344992Y-77862772D01*
X137555016Y-77741515D01*
X137644384Y-77672939D01*
X137644384Y-77672936D01*
X136925562Y-76954114D01*
X136927626Y-76953260D01*
X137066844Y-76860238D01*
X137185238Y-76741844D01*
X137278260Y-76602626D01*
X137279114Y-76600562D01*
X137997936Y-77319384D01*
X137997939Y-77319384D01*
X138066515Y-77230016D01*
X138187772Y-77019992D01*
X138187779Y-77019978D01*
X138280578Y-76795939D01*
X138343346Y-76561687D01*
X138374998Y-76321264D01*
X138375000Y-76321248D01*
X138375000Y-76078751D01*
X138374998Y-76078733D01*
X138373700Y-76068872D01*
X144049500Y-76068872D01*
X144049500Y-76331127D01*
X144069218Y-76480890D01*
X144083730Y-76591116D01*
X144151602Y-76844418D01*
X144151605Y-76844428D01*
X144251953Y-77086690D01*
X144251958Y-77086700D01*
X144383075Y-77313803D01*
X144542718Y-77521851D01*
X144542726Y-77521860D01*
X144728140Y-77707274D01*
X144728148Y-77707281D01*
X144728149Y-77707282D01*
X144756774Y-77729247D01*
X144936196Y-77866924D01*
X145163299Y-77998041D01*
X145163309Y-77998046D01*
X145347886Y-78074500D01*
X145405581Y-78098398D01*
X145658884Y-78166270D01*
X145918880Y-78200500D01*
X145918887Y-78200500D01*
X146181113Y-78200500D01*
X146181120Y-78200500D01*
X146441116Y-78166270D01*
X146694419Y-78098398D01*
X146936697Y-77998043D01*
X147163803Y-77866924D01*
X147371851Y-77707282D01*
X147371855Y-77707277D01*
X147371860Y-77707274D01*
X147557274Y-77521860D01*
X147557277Y-77521855D01*
X147557282Y-77521851D01*
X147716924Y-77313803D01*
X147848043Y-77086697D01*
X147948398Y-76844419D01*
X148016270Y-76591116D01*
X148050500Y-76331120D01*
X148050500Y-76068880D01*
X148049659Y-76062490D01*
X148038516Y-75977855D01*
X148049281Y-75908819D01*
X148073771Y-75873991D01*
X152451714Y-71496048D01*
X157699500Y-71496048D01*
X157699500Y-73343951D01*
X157702317Y-73385499D01*
X157746963Y-73565023D01*
X157829157Y-73730752D01*
X157920944Y-73844940D01*
X157945059Y-73874941D01*
X158089247Y-73990842D01*
X158254978Y-74073037D01*
X158434501Y-74117682D01*
X158434502Y-74117682D01*
X158434505Y-74117683D01*
X158476046Y-74120500D01*
X158476048Y-74120500D01*
X160323952Y-74120500D01*
X160323954Y-74120500D01*
X160365495Y-74117683D01*
X160545022Y-74073037D01*
X160710753Y-73990842D01*
X160854941Y-73874941D01*
X160970842Y-73730753D01*
X161053037Y-73565022D01*
X161097683Y-73385495D01*
X161100500Y-73343954D01*
X161100500Y-71496046D01*
X161097683Y-71454505D01*
X161090222Y-71424505D01*
X161083114Y-71395922D01*
X161053037Y-71274978D01*
X160970842Y-71109247D01*
X160854941Y-70965059D01*
X160802925Y-70923247D01*
X160710752Y-70849157D01*
X160545023Y-70766963D01*
X160365497Y-70722317D01*
X160365501Y-70722317D01*
X160334339Y-70720204D01*
X160323954Y-70719500D01*
X158476046Y-70719500D01*
X158464177Y-70720304D01*
X158434500Y-70722317D01*
X158254976Y-70766963D01*
X158089247Y-70849157D01*
X157945059Y-70965058D01*
X157945058Y-70965059D01*
X157829157Y-71109247D01*
X157746963Y-71274976D01*
X157702317Y-71454500D01*
X157699500Y-71496048D01*
X152451714Y-71496048D01*
X156626714Y-67321048D01*
X162744388Y-67321048D01*
X162744388Y-68568951D01*
X162747205Y-68610499D01*
X162791851Y-68790021D01*
X162791852Y-68790023D01*
X162874044Y-68955750D01*
X162989947Y-69099940D01*
X163034819Y-69136009D01*
X163134135Y-69215842D01*
X163299867Y-69298037D01*
X163479389Y-69342682D01*
X163479390Y-69342682D01*
X163479393Y-69342683D01*
X163520934Y-69345500D01*
X163520936Y-69345500D01*
X164768840Y-69345500D01*
X164768842Y-69345500D01*
X164810383Y-69342683D01*
X164989909Y-69298037D01*
X165155641Y-69215842D01*
X165299828Y-69099940D01*
X165308820Y-69088754D01*
X165366162Y-69048834D01*
X165435984Y-69046254D01*
X165461763Y-69055955D01*
X165645856Y-69149755D01*
X165840470Y-69212990D01*
X166042571Y-69245000D01*
X166247205Y-69245000D01*
X166449305Y-69212990D01*
X166643919Y-69149755D01*
X166826237Y-69056859D01*
X166870809Y-69024474D01*
X166191335Y-68345000D01*
X166197549Y-68345000D01*
X166299282Y-68317741D01*
X166390494Y-68265080D01*
X166464968Y-68190606D01*
X166517629Y-68099394D01*
X166544888Y-67997661D01*
X166544888Y-67991447D01*
X167224362Y-68670921D01*
X167256747Y-68626349D01*
X167349643Y-68444031D01*
X167412878Y-68249417D01*
X167444888Y-68047317D01*
X167444888Y-67842682D01*
X167412878Y-67640582D01*
X167349643Y-67445968D01*
X167256747Y-67263650D01*
X167224362Y-67219077D01*
X167224362Y-67219076D01*
X166544888Y-67898551D01*
X166544888Y-67892339D01*
X166517629Y-67790606D01*
X166464968Y-67699394D01*
X166390494Y-67624920D01*
X166299282Y-67572259D01*
X166197549Y-67545000D01*
X166191334Y-67545000D01*
X166870810Y-66865524D01*
X166870809Y-66865523D01*
X166826247Y-66833147D01*
X166826238Y-66833141D01*
X166643919Y-66740244D01*
X166449305Y-66677009D01*
X166247205Y-66645000D01*
X166042571Y-66645000D01*
X165840470Y-66677009D01*
X165645853Y-66740245D01*
X165461761Y-66834045D01*
X165393092Y-66846941D01*
X165328352Y-66820664D01*
X165308822Y-66801249D01*
X165299828Y-66790060D01*
X165299826Y-66790058D01*
X165299825Y-66790057D01*
X165163905Y-66680801D01*
X165155641Y-66674158D01*
X165155639Y-66674157D01*
X165155638Y-66674156D01*
X164989911Y-66591964D01*
X164989909Y-66591963D01*
X164810385Y-66547317D01*
X164810389Y-66547317D01*
X164779227Y-66545204D01*
X164768842Y-66544500D01*
X163520934Y-66544500D01*
X163509065Y-66545304D01*
X163479388Y-66547317D01*
X163299866Y-66591963D01*
X163299864Y-66591964D01*
X163134137Y-66674156D01*
X162989947Y-66790059D01*
X162874044Y-66934249D01*
X162791852Y-67099976D01*
X162791851Y-67099978D01*
X162747205Y-67279500D01*
X162744388Y-67321048D01*
X156626714Y-67321048D01*
X160155512Y-63792250D01*
X160181185Y-63772550D01*
X160346774Y-63676948D01*
X160523624Y-63541247D01*
X160681247Y-63383624D01*
X160816948Y-63206774D01*
X160928405Y-63013726D01*
X161013710Y-62807781D01*
X161071404Y-62592463D01*
X161100500Y-62371457D01*
X161100500Y-62148543D01*
X161071404Y-61927537D01*
X161013710Y-61712219D01*
X161001279Y-61682209D01*
X160962390Y-61588322D01*
X160928405Y-61506274D01*
X160816948Y-61313226D01*
X160681247Y-61136376D01*
X160681242Y-61136370D01*
X160523629Y-60978757D01*
X160523622Y-60978751D01*
X160346782Y-60843058D01*
X160346780Y-60843057D01*
X160346774Y-60843052D01*
X160153726Y-60731595D01*
X160153722Y-60731593D01*
X159947790Y-60646293D01*
X159947783Y-60646291D01*
X159947781Y-60646290D01*
X159732463Y-60588596D01*
X159732457Y-60588595D01*
X159732452Y-60588594D01*
X159511466Y-60559501D01*
X159511463Y-60559500D01*
X159511457Y-60559500D01*
X159288543Y-60559500D01*
X159288537Y-60559500D01*
X159288533Y-60559501D01*
X159067547Y-60588594D01*
X159067540Y-60588595D01*
X159067537Y-60588596D01*
X158997490Y-60607365D01*
X158852219Y-60646290D01*
X158852209Y-60646293D01*
X158646277Y-60731593D01*
X158646273Y-60731595D01*
X158453226Y-60843052D01*
X158453217Y-60843058D01*
X158276377Y-60978751D01*
X158276370Y-60978757D01*
X158118757Y-61136370D01*
X158118751Y-61136377D01*
X157983058Y-61313217D01*
X157983052Y-61313226D01*
X157871595Y-61506273D01*
X157871593Y-61506277D01*
X157786293Y-61712209D01*
X157786290Y-61712219D01*
X157735426Y-61902049D01*
X157728597Y-61927534D01*
X157728594Y-61927547D01*
X157699501Y-62148533D01*
X157699500Y-62148549D01*
X157699500Y-62371450D01*
X157699501Y-62371466D01*
X157728594Y-62592452D01*
X157728595Y-62592457D01*
X157728596Y-62592463D01*
X157744001Y-62649955D01*
X157758920Y-62705634D01*
X157757257Y-62775484D01*
X157726826Y-62825408D01*
X146376009Y-74176225D01*
X146314686Y-74209710D01*
X146272143Y-74211483D01*
X146181130Y-74199501D01*
X146181125Y-74199500D01*
X146181120Y-74199500D01*
X145918880Y-74199500D01*
X145918872Y-74199500D01*
X145687772Y-74229926D01*
X145658884Y-74233730D01*
X145515875Y-74272049D01*
X145405581Y-74301602D01*
X145405571Y-74301605D01*
X145163309Y-74401953D01*
X145163299Y-74401958D01*
X144936196Y-74533075D01*
X144728148Y-74692718D01*
X144542718Y-74878148D01*
X144383075Y-75086196D01*
X144251958Y-75313299D01*
X144251953Y-75313309D01*
X144151605Y-75555571D01*
X144151602Y-75555581D01*
X144084774Y-75804990D01*
X144083730Y-75808885D01*
X144049500Y-76068872D01*
X138373700Y-76068872D01*
X138343346Y-75838312D01*
X138280578Y-75604060D01*
X138187779Y-75380021D01*
X138187772Y-75380007D01*
X138066522Y-75169996D01*
X138066517Y-75169989D01*
X137997937Y-75080614D01*
X137997936Y-75080614D01*
X137279114Y-75799436D01*
X137278260Y-75797374D01*
X137185238Y-75658156D01*
X137066844Y-75539762D01*
X136927626Y-75446740D01*
X136925560Y-75445884D01*
X137644384Y-74727061D01*
X137555010Y-74658481D01*
X137344992Y-74537227D01*
X137344978Y-74537220D01*
X137120939Y-74444421D01*
X137083069Y-74434274D01*
X137023409Y-74397909D01*
X136992880Y-74335062D01*
X137001175Y-74265686D01*
X137045660Y-74211808D01*
X137112212Y-74190534D01*
X137115142Y-74190499D01*
X137698952Y-74190499D01*
X137698953Y-74190499D01*
X137698953Y-74190498D01*
X137740494Y-74187683D01*
X137920021Y-74143037D01*
X138085753Y-74060841D01*
X138229940Y-73944940D01*
X138345841Y-73800753D01*
X138428037Y-73635021D01*
X138472683Y-73455494D01*
X138475500Y-73413953D01*
X138475499Y-71066048D01*
X138472683Y-71024506D01*
X138428037Y-70844979D01*
X138345841Y-70679247D01*
X138229940Y-70535060D01*
X138160444Y-70479197D01*
X138085752Y-70419158D01*
X137920022Y-70336963D01*
X137740496Y-70292317D01*
X137740500Y-70292317D01*
X137712800Y-70290439D01*
X137698953Y-70289500D01*
X137698950Y-70289500D01*
X135351047Y-70289500D01*
X135351044Y-70289501D01*
X135309508Y-70292316D01*
X135309507Y-70292316D01*
X135129977Y-70336963D01*
X134964247Y-70419158D01*
X134820060Y-70535059D01*
X134820059Y-70535060D01*
X134704158Y-70679247D01*
X134621963Y-70844977D01*
X134577317Y-71024501D01*
X134574500Y-71066049D01*
X130656713Y-71066049D01*
X133810944Y-67911819D01*
X133872267Y-67878334D01*
X133898625Y-67875500D01*
X147249253Y-67875500D01*
X147269670Y-67881495D01*
X147290918Y-67882709D01*
X147312395Y-67894040D01*
X147316292Y-67895185D01*
X147322134Y-67899179D01*
X147332612Y-67906791D01*
X147375280Y-67962119D01*
X147381262Y-68031732D01*
X147348659Y-68093528D01*
X147332617Y-68107429D01*
X147277967Y-68147135D01*
X147277958Y-68147142D01*
X147122142Y-68302958D01*
X146992613Y-68481239D01*
X146892567Y-68677589D01*
X146824473Y-68887161D01*
X146824473Y-68887164D01*
X146812145Y-68965000D01*
X148041519Y-68965000D01*
X148030890Y-68983409D01*
X147990001Y-69136009D01*
X147990001Y-69293991D01*
X148030890Y-69446591D01*
X148041519Y-69465000D01*
X146812145Y-69465000D01*
X146824473Y-69542835D01*
X146824473Y-69542838D01*
X146892567Y-69752410D01*
X146992613Y-69948760D01*
X147122142Y-70127041D01*
X147277958Y-70282857D01*
X147456239Y-70412386D01*
X147652589Y-70512432D01*
X147862164Y-70580526D01*
X148079819Y-70615000D01*
X148340000Y-70615000D01*
X148340000Y-69763481D01*
X148358409Y-69774110D01*
X148511009Y-69814999D01*
X148668991Y-69814999D01*
X148821591Y-69774110D01*
X148840000Y-69763481D01*
X148840000Y-70615000D01*
X149100181Y-70615000D01*
X149317835Y-70580526D01*
X149527410Y-70512432D01*
X149723760Y-70412386D01*
X149902041Y-70282857D01*
X150057857Y-70127041D01*
X150187386Y-69948760D01*
X150287432Y-69752410D01*
X150355526Y-69542838D01*
X150355526Y-69542835D01*
X150367855Y-69465000D01*
X149138481Y-69465000D01*
X149149110Y-69446591D01*
X149189999Y-69293991D01*
X149189999Y-69136009D01*
X149149110Y-68983409D01*
X149138481Y-68965000D01*
X150367855Y-68965000D01*
X150355526Y-68887164D01*
X150355526Y-68887161D01*
X150287432Y-68677589D01*
X150187386Y-68481239D01*
X150057857Y-68302958D01*
X149902041Y-68147142D01*
X149902035Y-68147137D01*
X149847383Y-68107430D01*
X149804717Y-68052100D01*
X149798738Y-67982487D01*
X149831344Y-67920692D01*
X149847378Y-67906798D01*
X149967510Y-67819517D01*
X150134517Y-67652510D01*
X150273343Y-67461433D01*
X150380568Y-67250992D01*
X150453553Y-67026368D01*
X150459326Y-66989920D01*
X150490500Y-66793097D01*
X150490500Y-66556902D01*
X150453553Y-66323631D01*
X150403797Y-66170500D01*
X150380568Y-66099008D01*
X150380566Y-66099005D01*
X150380566Y-66099003D01*
X150273342Y-65888566D01*
X150236780Y-65838243D01*
X150162041Y-65735373D01*
X150138562Y-65669570D01*
X150154387Y-65601516D01*
X150186874Y-65564114D01*
X150192839Y-65559536D01*
X150192841Y-65559536D01*
X150318282Y-65463282D01*
X150414536Y-65337841D01*
X150475044Y-65191762D01*
X150490500Y-65074361D01*
X150490499Y-63195640D01*
X150490499Y-63195639D01*
X150490499Y-63195636D01*
X150475046Y-63078246D01*
X150475044Y-63078239D01*
X150475044Y-63078238D01*
X150414536Y-62932159D01*
X150318282Y-62806718D01*
X150192841Y-62710464D01*
X150181180Y-62705634D01*
X150046762Y-62649956D01*
X150046760Y-62649955D01*
X149929370Y-62634501D01*
X149929367Y-62634500D01*
X149929361Y-62634500D01*
X149929354Y-62634500D01*
X147250636Y-62634500D01*
X147133246Y-62649953D01*
X147133237Y-62649956D01*
X146987160Y-62710463D01*
X146861718Y-62806718D01*
X146765463Y-62932160D01*
X146704956Y-63078237D01*
X146704955Y-63078239D01*
X146689501Y-63195629D01*
X146689501Y-63195636D01*
X146689500Y-63195645D01*
X146689500Y-65074363D01*
X146704953Y-65191753D01*
X146704956Y-65191762D01*
X146751052Y-65303047D01*
X146758521Y-65372517D01*
X146727246Y-65434996D01*
X146667157Y-65470648D01*
X146636491Y-65474500D01*
X133255514Y-65474500D01*
X133068881Y-65504059D01*
X132889163Y-65562454D01*
X132720800Y-65648240D01*
X132633579Y-65711610D01*
X132567927Y-65759310D01*
X132567925Y-65759312D01*
X132567924Y-65759312D01*
X126691009Y-71636225D01*
X126629686Y-71669710D01*
X126587143Y-71671483D01*
X126496130Y-71659501D01*
X126496125Y-71659500D01*
X126496120Y-71659500D01*
X126233880Y-71659500D01*
X126233872Y-71659500D01*
X126002772Y-71689926D01*
X125973884Y-71693730D01*
X125726560Y-71760000D01*
X125720581Y-71761602D01*
X125720571Y-71761605D01*
X125478309Y-71861953D01*
X125478299Y-71861958D01*
X125251196Y-71993075D01*
X125043148Y-72152718D01*
X124857718Y-72338148D01*
X124698075Y-72546196D01*
X124566958Y-72773299D01*
X124566953Y-72773309D01*
X124466605Y-73015571D01*
X124466602Y-73015581D01*
X124400082Y-73263841D01*
X124398730Y-73268885D01*
X124364500Y-73528872D01*
X117967067Y-73528872D01*
X117884727Y-73415540D01*
X117884723Y-73415535D01*
X117816742Y-73347554D01*
X117783257Y-73286231D01*
X117788241Y-73216539D01*
X117830113Y-73160606D01*
X117849320Y-73148789D01*
X117915753Y-73115842D01*
X118059940Y-72999940D01*
X118175842Y-72855753D01*
X118258037Y-72690021D01*
X118302683Y-72510495D01*
X118305500Y-72468954D01*
X118305500Y-71121046D01*
X118302683Y-71079505D01*
X118299336Y-71066048D01*
X118289004Y-71024501D01*
X118258037Y-70899979D01*
X118175842Y-70734247D01*
X118093714Y-70632076D01*
X118059940Y-70590059D01*
X117922024Y-70479199D01*
X117915753Y-70474158D01*
X117915751Y-70474157D01*
X117915750Y-70474156D01*
X117750023Y-70391964D01*
X117750021Y-70391963D01*
X117570497Y-70347317D01*
X117570501Y-70347317D01*
X117539339Y-70345204D01*
X117528954Y-70344500D01*
X115931046Y-70344500D01*
X115919177Y-70345304D01*
X115889500Y-70347317D01*
X115709978Y-70391963D01*
X115709976Y-70391964D01*
X115544249Y-70474156D01*
X115400059Y-70590059D01*
X115284156Y-70734249D01*
X115201964Y-70899976D01*
X115201963Y-70899978D01*
X115157317Y-71079500D01*
X115154500Y-71121048D01*
X115154500Y-72468951D01*
X115157317Y-72510499D01*
X115201963Y-72690021D01*
X115201964Y-72690023D01*
X115284156Y-72855750D01*
X115400059Y-72999940D01*
X115448153Y-73038599D01*
X115544247Y-73115842D01*
X115544248Y-73115842D01*
X115544249Y-73115843D01*
X115610670Y-73148785D01*
X115661983Y-73196206D01*
X115679513Y-73263841D01*
X115657693Y-73330216D01*
X115643258Y-73347554D01*
X115575271Y-73415541D01*
X115450379Y-73587442D01*
X115353904Y-73776782D01*
X115288242Y-73978870D01*
X115288242Y-73978873D01*
X115277769Y-74045000D01*
X116325854Y-74045000D01*
X116287370Y-74111657D01*
X116255000Y-74232465D01*
X116255000Y-74357535D01*
X116287370Y-74478343D01*
X116325854Y-74545000D01*
X115277769Y-74545000D01*
X115288242Y-74611126D01*
X115288242Y-74611129D01*
X115353904Y-74813217D01*
X115450379Y-75002557D01*
X115575272Y-75174459D01*
X115575276Y-75174464D01*
X115725539Y-75324727D01*
X115805153Y-75382569D01*
X115847819Y-75437898D01*
X115853798Y-75507512D01*
X115821193Y-75569307D01*
X115805154Y-75583204D01*
X115660069Y-75688616D01*
X115660060Y-75688623D01*
X115498622Y-75850061D01*
X115364421Y-76034771D01*
X115260770Y-76238198D01*
X115190215Y-76455342D01*
X115162327Y-76631418D01*
X115132397Y-76694552D01*
X115127535Y-76699700D01*
X111593055Y-80234181D01*
X111531732Y-80267666D01*
X111505374Y-80270500D01*
X88598582Y-80270500D01*
X88531543Y-80250815D01*
X88485788Y-80198011D01*
X88475844Y-80128853D01*
X88504869Y-80065297D01*
X88510901Y-80058819D01*
X88544376Y-80025343D01*
X88544381Y-80025338D01*
X88781271Y-79736685D01*
X88988729Y-79426204D01*
X89164754Y-79096883D01*
X89307653Y-78751894D01*
X89416049Y-78394560D01*
X89488899Y-78028322D01*
X89525500Y-77656707D01*
X89525500Y-77283293D01*
X89488899Y-76911678D01*
X89416049Y-76545440D01*
X89307653Y-76188106D01*
X89164754Y-75843117D01*
X88988729Y-75513796D01*
X88781271Y-75203315D01*
X88781267Y-75203309D01*
X88544376Y-74914656D01*
X88280343Y-74650623D01*
X88071818Y-74479491D01*
X87991689Y-74413731D01*
X87681210Y-74206275D01*
X87681209Y-74206274D01*
X87681204Y-74206271D01*
X87681199Y-74206268D01*
X87681192Y-74206264D01*
X87390924Y-74051114D01*
X87351883Y-74030246D01*
X87351876Y-74030243D01*
X87106858Y-73928753D01*
X93920000Y-73928753D01*
X93920000Y-73935000D01*
X94836988Y-73935000D01*
X94804075Y-73992007D01*
X94770000Y-74119174D01*
X94770000Y-74250826D01*
X94804075Y-74377993D01*
X94836988Y-74435000D01*
X93920000Y-74435000D01*
X93920000Y-74441246D01*
X93953242Y-74651127D01*
X93953242Y-74651130D01*
X94018904Y-74853217D01*
X94115379Y-75042557D01*
X94240272Y-75214459D01*
X94240276Y-75214464D01*
X94390535Y-75364723D01*
X94390540Y-75364727D01*
X94562442Y-75489620D01*
X94751782Y-75586095D01*
X94953871Y-75651757D01*
X95020000Y-75662231D01*
X95020000Y-74618012D01*
X95077007Y-74650925D01*
X95204174Y-74685000D01*
X95335826Y-74685000D01*
X95462993Y-74650925D01*
X95520000Y-74618012D01*
X95520000Y-75662230D01*
X95586126Y-75651757D01*
X95586129Y-75651757D01*
X95788217Y-75586095D01*
X95977557Y-75489620D01*
X96149458Y-75364728D01*
X96217444Y-75296742D01*
X96278767Y-75263257D01*
X96348459Y-75268241D01*
X96404393Y-75310112D01*
X96416214Y-75329328D01*
X96449157Y-75395752D01*
X96565059Y-75539940D01*
X96644828Y-75604060D01*
X96709247Y-75655842D01*
X96874979Y-75738037D01*
X97054501Y-75782682D01*
X97054502Y-75782682D01*
X97054505Y-75782683D01*
X97096046Y-75785500D01*
X97096048Y-75785500D01*
X98443952Y-75785500D01*
X98443954Y-75785500D01*
X98485495Y-75782683D01*
X98665021Y-75738037D01*
X98830753Y-75655842D01*
X98974940Y-75539940D01*
X99090842Y-75395753D01*
X99173037Y-75230021D01*
X99217683Y-75050495D01*
X99220500Y-75008954D01*
X99220500Y-73535466D01*
X103510000Y-73535466D01*
X103510000Y-73784533D01*
X103542508Y-74031463D01*
X103606973Y-74272049D01*
X103702283Y-74502148D01*
X103702288Y-74502159D01*
X103826813Y-74717841D01*
X103826819Y-74717849D01*
X103901400Y-74815045D01*
X104694152Y-74022292D01*
X104701049Y-74038942D01*
X104788599Y-74169970D01*
X104900030Y-74281401D01*
X105031058Y-74368951D01*
X105047705Y-74375846D01*
X104254953Y-75168598D01*
X104352150Y-75243180D01*
X104352158Y-75243186D01*
X104567840Y-75367711D01*
X104567851Y-75367716D01*
X104797950Y-75463026D01*
X105038536Y-75527491D01*
X105285466Y-75560000D01*
X105534534Y-75560000D01*
X105781463Y-75527491D01*
X106022049Y-75463026D01*
X106252148Y-75367716D01*
X106252159Y-75367711D01*
X106467855Y-75243178D01*
X106565045Y-75168600D01*
X106565045Y-75168597D01*
X105772294Y-74375846D01*
X105788942Y-74368951D01*
X105919970Y-74281401D01*
X106031401Y-74169970D01*
X106118951Y-74038942D01*
X106125846Y-74022294D01*
X106918597Y-74815045D01*
X106918600Y-74815045D01*
X106993178Y-74717855D01*
X107117711Y-74502159D01*
X107117716Y-74502148D01*
X107213026Y-74272049D01*
X107277491Y-74031463D01*
X107310000Y-73784533D01*
X107310000Y-73535466D01*
X107277491Y-73288536D01*
X107213026Y-73047950D01*
X107117716Y-72817851D01*
X107117711Y-72817840D01*
X106993186Y-72602158D01*
X106993180Y-72602150D01*
X106918598Y-72504953D01*
X106125846Y-73297705D01*
X106118951Y-73281058D01*
X106031401Y-73150030D01*
X105919970Y-73038599D01*
X105788942Y-72951049D01*
X105772292Y-72944152D01*
X106565045Y-72151400D01*
X106467849Y-72076819D01*
X106467841Y-72076813D01*
X106252159Y-71952288D01*
X106252148Y-71952283D01*
X106022049Y-71856973D01*
X105781463Y-71792508D01*
X105534534Y-71760000D01*
X105285466Y-71760000D01*
X105038536Y-71792508D01*
X104797950Y-71856973D01*
X104567851Y-71952283D01*
X104567847Y-71952285D01*
X104352143Y-72076823D01*
X104254953Y-72151399D01*
X104254953Y-72151400D01*
X105047706Y-72944153D01*
X105031058Y-72951049D01*
X104900030Y-73038599D01*
X104788599Y-73150030D01*
X104701049Y-73281058D01*
X104694153Y-73297706D01*
X103901400Y-72504953D01*
X103901399Y-72504953D01*
X103826823Y-72602143D01*
X103702285Y-72817847D01*
X103702283Y-72817851D01*
X103606973Y-73047950D01*
X103542508Y-73288536D01*
X103510000Y-73535466D01*
X99220500Y-73535466D01*
X99220500Y-73361046D01*
X99217683Y-73319505D01*
X99214435Y-73306446D01*
X99203840Y-73263841D01*
X99173037Y-73139979D01*
X99090842Y-72974247D01*
X98995593Y-72855753D01*
X98974940Y-72830059D01*
X98835832Y-72718241D01*
X98830753Y-72714158D01*
X98830751Y-72714157D01*
X98830750Y-72714156D01*
X98665023Y-72631964D01*
X98665021Y-72631963D01*
X98485497Y-72587317D01*
X98485501Y-72587317D01*
X98454339Y-72585204D01*
X98443954Y-72584500D01*
X97096046Y-72584500D01*
X97084177Y-72585304D01*
X97054500Y-72587317D01*
X96874978Y-72631963D01*
X96874976Y-72631964D01*
X96709249Y-72714156D01*
X96565059Y-72830059D01*
X96449157Y-72974247D01*
X96416214Y-73040671D01*
X96368792Y-73091984D01*
X96301157Y-73109512D01*
X96234782Y-73087692D01*
X96217445Y-73073257D01*
X96149464Y-73005276D01*
X96149459Y-73005272D01*
X95977557Y-72880379D01*
X95788215Y-72783903D01*
X95586124Y-72718241D01*
X95520000Y-72707768D01*
X95520000Y-73751988D01*
X95462993Y-73719075D01*
X95335826Y-73685000D01*
X95204174Y-73685000D01*
X95077007Y-73719075D01*
X95020000Y-73751988D01*
X95020000Y-72707768D01*
X95019999Y-72707768D01*
X94953875Y-72718241D01*
X94751784Y-72783903D01*
X94562442Y-72880379D01*
X94390540Y-73005272D01*
X94390535Y-73005276D01*
X94240276Y-73155535D01*
X94240272Y-73155540D01*
X94115379Y-73327442D01*
X94018904Y-73516782D01*
X93953242Y-73718869D01*
X93953242Y-73718872D01*
X93920000Y-73928753D01*
X87106858Y-73928753D01*
X87006895Y-73887347D01*
X86797119Y-73823712D01*
X86649560Y-73778951D01*
X86649557Y-73778950D01*
X86649556Y-73778950D01*
X86283324Y-73706101D01*
X86283311Y-73706099D01*
X86002293Y-73678422D01*
X85911707Y-73669500D01*
X85538293Y-73669500D01*
X85454514Y-73677751D01*
X85166688Y-73706099D01*
X85166675Y-73706101D01*
X84800443Y-73778950D01*
X84443104Y-73887347D01*
X84098123Y-74030243D01*
X84098109Y-74030250D01*
X83768807Y-74206264D01*
X83768789Y-74206275D01*
X83458309Y-74413732D01*
X83169656Y-74650623D01*
X82905623Y-74914656D01*
X82668732Y-75203309D01*
X82461275Y-75513789D01*
X82461264Y-75513807D01*
X82285250Y-75843109D01*
X82285243Y-75843123D01*
X82142347Y-76188104D01*
X82033950Y-76545443D01*
X81961101Y-76911675D01*
X81961099Y-76911688D01*
X81937610Y-77150181D01*
X81924500Y-77283293D01*
X81924500Y-77656707D01*
X81930132Y-77713885D01*
X81961099Y-78028311D01*
X81961101Y-78028324D01*
X82028520Y-78367259D01*
X82033951Y-78394560D01*
X82041644Y-78419920D01*
X82142347Y-78751895D01*
X82270002Y-79060080D01*
X82285246Y-79096883D01*
X82317196Y-79156657D01*
X82461264Y-79426192D01*
X82461275Y-79426210D01*
X82668732Y-79736690D01*
X82905623Y-80025343D01*
X82939099Y-80058819D01*
X82972584Y-80120142D01*
X82967600Y-80189834D01*
X82925728Y-80245767D01*
X82860264Y-80270184D01*
X82851418Y-80270500D01*
X78059453Y-80270500D01*
X77992414Y-80250815D01*
X77946659Y-80198011D01*
X77936715Y-80128853D01*
X77965740Y-80065297D01*
X78024518Y-80027523D01*
X78027317Y-80026736D01*
X78114419Y-80003398D01*
X78356697Y-79903043D01*
X78583803Y-79771924D01*
X78791851Y-79612282D01*
X78791855Y-79612277D01*
X78791860Y-79612274D01*
X78977274Y-79426860D01*
X78977277Y-79426855D01*
X78977282Y-79426851D01*
X79136924Y-79218803D01*
X79268043Y-78991697D01*
X79368398Y-78749419D01*
X79436270Y-78496116D01*
X79470500Y-78236120D01*
X79470500Y-77973880D01*
X79436270Y-77713884D01*
X79368398Y-77460581D01*
X79337905Y-77386964D01*
X79268046Y-77218309D01*
X79268041Y-77218299D01*
X79136924Y-76991196D01*
X78977281Y-76783148D01*
X78977274Y-76783140D01*
X78791858Y-76597724D01*
X78791853Y-76597720D01*
X78791851Y-76597718D01*
X78719012Y-76541826D01*
X78677810Y-76485397D01*
X78670500Y-76443451D01*
X78670500Y-72673047D01*
X78690185Y-72606008D01*
X78706814Y-72585371D01*
X81384510Y-69907675D01*
X81445829Y-69874193D01*
X81515521Y-69879177D01*
X81571454Y-69921049D01*
X81582669Y-69939059D01*
X81587611Y-69948757D01*
X81717142Y-70127041D01*
X81872958Y-70282857D01*
X82051239Y-70412386D01*
X82247589Y-70512432D01*
X82457164Y-70580526D01*
X82674819Y-70615000D01*
X82935000Y-70615000D01*
X82935000Y-69763481D01*
X82953409Y-69774110D01*
X83106009Y-69814999D01*
X83263991Y-69814999D01*
X83416591Y-69774110D01*
X83435000Y-69763481D01*
X83435000Y-70615000D01*
X83695181Y-70615000D01*
X83912835Y-70580526D01*
X84122410Y-70512432D01*
X84318760Y-70412386D01*
X84497041Y-70282857D01*
X84652857Y-70127041D01*
X84782386Y-69948760D01*
X84882432Y-69752410D01*
X84950526Y-69542838D01*
X84950526Y-69542835D01*
X84962855Y-69465000D01*
X83733481Y-69465000D01*
X83744110Y-69446591D01*
X83784999Y-69293991D01*
X83784999Y-69136009D01*
X83744110Y-68983409D01*
X83733481Y-68965000D01*
X84962855Y-68965000D01*
X84950526Y-68887164D01*
X84950526Y-68887161D01*
X84882432Y-68677589D01*
X84782386Y-68481239D01*
X84652857Y-68302958D01*
X84497041Y-68147142D01*
X84497035Y-68147137D01*
X84442383Y-68107430D01*
X84399717Y-68052100D01*
X84393738Y-67982487D01*
X84426344Y-67920692D01*
X84442378Y-67906798D01*
X84562510Y-67819517D01*
X84729517Y-67652510D01*
X84868343Y-67461433D01*
X84975568Y-67250992D01*
X85048553Y-67026368D01*
X85054326Y-66989920D01*
X85085500Y-66793097D01*
X85085500Y-66556902D01*
X85048553Y-66323631D01*
X84998797Y-66170500D01*
X84975568Y-66099008D01*
X84975566Y-66099005D01*
X84975566Y-66099003D01*
X84868342Y-65888566D01*
X84831780Y-65838243D01*
X84757041Y-65735373D01*
X84733562Y-65669570D01*
X84749387Y-65601516D01*
X84781874Y-65564114D01*
X84787839Y-65559536D01*
X84787841Y-65559536D01*
X84913282Y-65463282D01*
X85009536Y-65337841D01*
X85070044Y-65191762D01*
X85085500Y-65074361D01*
X85085499Y-63195640D01*
X85085499Y-63195639D01*
X85085499Y-63195636D01*
X85070046Y-63078246D01*
X85070044Y-63078239D01*
X85070044Y-63078238D01*
X85009536Y-62932159D01*
X84913282Y-62806718D01*
X84787841Y-62710464D01*
X84776180Y-62705634D01*
X84641762Y-62649956D01*
X84641760Y-62649955D01*
X84524370Y-62634501D01*
X84524367Y-62634500D01*
X84524361Y-62634500D01*
X84524354Y-62634500D01*
X81845636Y-62634500D01*
X81728246Y-62649953D01*
X81728237Y-62649956D01*
X81582160Y-62710463D01*
X81456718Y-62806718D01*
X81360463Y-62932160D01*
X81299956Y-63078237D01*
X81299955Y-63078239D01*
X81284501Y-63195629D01*
X81284501Y-63195636D01*
X81284500Y-63195645D01*
X81284500Y-65074363D01*
X81299953Y-65191753D01*
X81299956Y-65191762D01*
X81360464Y-65337841D01*
X81456718Y-65463282D01*
X81509860Y-65504059D01*
X81588125Y-65564114D01*
X81629328Y-65620542D01*
X81633483Y-65690288D01*
X81612957Y-65735375D01*
X81501659Y-65888563D01*
X81394433Y-66099003D01*
X81321446Y-66323631D01*
X81284500Y-66556902D01*
X81284500Y-66560797D01*
X81264815Y-66627836D01*
X81248181Y-66648478D01*
X76554308Y-71342350D01*
X76554304Y-71342354D01*
X76486266Y-71436003D01*
X76443242Y-71495220D01*
X76357454Y-71663586D01*
X76299059Y-71843304D01*
X76269500Y-72029936D01*
X76269500Y-76443451D01*
X76249815Y-76510490D01*
X76220988Y-76541826D01*
X76148141Y-76597724D01*
X76148140Y-76597726D01*
X75962718Y-76783148D01*
X75803075Y-76991196D01*
X75671958Y-77218299D01*
X75671953Y-77218309D01*
X75571605Y-77460571D01*
X75571602Y-77460581D01*
X75505500Y-77707281D01*
X75503730Y-77713885D01*
X75469500Y-77973872D01*
X75469500Y-78236127D01*
X75491803Y-78405526D01*
X75503730Y-78496116D01*
X75571602Y-78749418D01*
X75571605Y-78749428D01*
X75671953Y-78991690D01*
X75671958Y-78991700D01*
X75803075Y-79218803D01*
X75962718Y-79426851D01*
X75962726Y-79426860D01*
X76148140Y-79612274D01*
X76148148Y-79612281D01*
X76148149Y-79612282D01*
X76196554Y-79649424D01*
X76356196Y-79771924D01*
X76583299Y-79903041D01*
X76583309Y-79903046D01*
X76825571Y-80003394D01*
X76825581Y-80003398D01*
X76912642Y-80026725D01*
X76972301Y-80063090D01*
X77002830Y-80125937D01*
X76994535Y-80195313D01*
X76950050Y-80249190D01*
X76883498Y-80270465D01*
X76880547Y-80270500D01*
X69368708Y-80270500D01*
X69301669Y-80250815D01*
X69281027Y-80234181D01*
X67467140Y-78420293D01*
X67433655Y-78358970D01*
X67438639Y-78289278D01*
X67480511Y-78233345D01*
X67524893Y-78212278D01*
X67622370Y-78188037D01*
X67788102Y-78105842D01*
X67932289Y-77989940D01*
X68048191Y-77845753D01*
X68130386Y-77680021D01*
X68175032Y-77500495D01*
X68177849Y-77458954D01*
X68177849Y-76732682D01*
X69277349Y-76732682D01*
X69277349Y-76937317D01*
X69309358Y-77139417D01*
X69372593Y-77334031D01*
X69465490Y-77516350D01*
X69465496Y-77516359D01*
X69497872Y-77560921D01*
X69497873Y-77560922D01*
X70177349Y-76881446D01*
X70177349Y-76887661D01*
X70204608Y-76989394D01*
X70257269Y-77080606D01*
X70331743Y-77155080D01*
X70422955Y-77207741D01*
X70524688Y-77235000D01*
X70530902Y-77235000D01*
X69851425Y-77914474D01*
X69895999Y-77946859D01*
X70078317Y-78039755D01*
X70272931Y-78102990D01*
X70475032Y-78135000D01*
X70679666Y-78135000D01*
X70881766Y-78102990D01*
X71076380Y-78039755D01*
X71258698Y-77946859D01*
X71303270Y-77914474D01*
X70623796Y-77235000D01*
X70630010Y-77235000D01*
X70731743Y-77207741D01*
X70822955Y-77155080D01*
X70897429Y-77080606D01*
X70950090Y-76989394D01*
X70977349Y-76887661D01*
X70977349Y-76881448D01*
X71656823Y-77560922D01*
X71656823Y-77560921D01*
X71689208Y-77516349D01*
X71782104Y-77334031D01*
X71845339Y-77139417D01*
X71877349Y-76937317D01*
X71877349Y-76732682D01*
X71845339Y-76530582D01*
X71782104Y-76335968D01*
X71689208Y-76153650D01*
X71656823Y-76109077D01*
X71656823Y-76109076D01*
X70977349Y-76788551D01*
X70977349Y-76782339D01*
X70950090Y-76680606D01*
X70897429Y-76589394D01*
X70822955Y-76514920D01*
X70731743Y-76462259D01*
X70630010Y-76435000D01*
X70623795Y-76435000D01*
X71303271Y-75755524D01*
X71303270Y-75755523D01*
X71258708Y-75723147D01*
X71258699Y-75723141D01*
X71076380Y-75630244D01*
X70881766Y-75567009D01*
X70679666Y-75535000D01*
X70475032Y-75535000D01*
X70272931Y-75567009D01*
X70078317Y-75630244D01*
X69895993Y-75723143D01*
X69851426Y-75755523D01*
X69851426Y-75755524D01*
X70530903Y-76435000D01*
X70524688Y-76435000D01*
X70422955Y-76462259D01*
X70331743Y-76514920D01*
X70257269Y-76589394D01*
X70204608Y-76680606D01*
X70177349Y-76782339D01*
X70177349Y-76788553D01*
X69497873Y-76109077D01*
X69497872Y-76109077D01*
X69465492Y-76153644D01*
X69372593Y-76335968D01*
X69309358Y-76530582D01*
X69277349Y-76732682D01*
X68177849Y-76732682D01*
X68177849Y-76211046D01*
X68175032Y-76169505D01*
X68130386Y-75989979D01*
X68048191Y-75824247D01*
X68004942Y-75770443D01*
X67932289Y-75680059D01*
X67830134Y-75597945D01*
X67788102Y-75564158D01*
X67788100Y-75564157D01*
X67788099Y-75564156D01*
X67622372Y-75481964D01*
X67622370Y-75481963D01*
X67442846Y-75437317D01*
X67442850Y-75437317D01*
X67408676Y-75435000D01*
X67401303Y-75434500D01*
X66153395Y-75434500D01*
X66146022Y-75435000D01*
X66111849Y-75437317D01*
X65932327Y-75481963D01*
X65932325Y-75481964D01*
X65766598Y-75564156D01*
X65622408Y-75680060D01*
X65556147Y-75762492D01*
X65498803Y-75802410D01*
X65428981Y-75804990D01*
X65368848Y-75769411D01*
X65337497Y-75706970D01*
X65335500Y-75684804D01*
X65335500Y-71466046D01*
X72594500Y-71466046D01*
X72594500Y-73313954D01*
X72595415Y-73327442D01*
X72597317Y-73355499D01*
X72641963Y-73535023D01*
X72724157Y-73700752D01*
X72796797Y-73791120D01*
X72840059Y-73844941D01*
X72984247Y-73960842D01*
X73149978Y-74043037D01*
X73329501Y-74087682D01*
X73329502Y-74087682D01*
X73329505Y-74087683D01*
X73371046Y-74090500D01*
X73371048Y-74090500D01*
X75218952Y-74090500D01*
X75218954Y-74090500D01*
X75260495Y-74087683D01*
X75440022Y-74043037D01*
X75605753Y-73960842D01*
X75749941Y-73844941D01*
X75865842Y-73700753D01*
X75948037Y-73535022D01*
X75992683Y-73355495D01*
X75995500Y-73313954D01*
X75995500Y-71466046D01*
X75992683Y-71424505D01*
X75948037Y-71244978D01*
X75865842Y-71079247D01*
X75749941Y-70935059D01*
X75706300Y-70899979D01*
X75605752Y-70819157D01*
X75440023Y-70736963D01*
X75260497Y-70692317D01*
X75260501Y-70692317D01*
X75229339Y-70690204D01*
X75218954Y-70689500D01*
X73371046Y-70689500D01*
X73359177Y-70690304D01*
X73329500Y-70692317D01*
X73149976Y-70736963D01*
X72984247Y-70819157D01*
X72840059Y-70935058D01*
X72840058Y-70935059D01*
X72724157Y-71079247D01*
X72641963Y-71244976D01*
X72597317Y-71424500D01*
X72597317Y-71424505D01*
X72594500Y-71466046D01*
X65335500Y-71466046D01*
X65335500Y-69411469D01*
X65355185Y-69344430D01*
X65407989Y-69298675D01*
X65477147Y-69288731D01*
X65503153Y-69296823D01*
X65503559Y-69295719D01*
X65509862Y-69298034D01*
X65509867Y-69298037D01*
X65689389Y-69342682D01*
X65689390Y-69342682D01*
X65689393Y-69342683D01*
X65730934Y-69345500D01*
X65730936Y-69345500D01*
X66978840Y-69345500D01*
X66978842Y-69345500D01*
X67020383Y-69342683D01*
X67199909Y-69298037D01*
X67365641Y-69215842D01*
X67509828Y-69099940D01*
X67518820Y-69088754D01*
X67576162Y-69048834D01*
X67645984Y-69046254D01*
X67671763Y-69055955D01*
X67855856Y-69149755D01*
X68050470Y-69212990D01*
X68252571Y-69245000D01*
X68457205Y-69245000D01*
X68659305Y-69212990D01*
X68853919Y-69149755D01*
X69036237Y-69056859D01*
X69080809Y-69024474D01*
X68401335Y-68345000D01*
X68407549Y-68345000D01*
X68509282Y-68317741D01*
X68600494Y-68265080D01*
X68674968Y-68190606D01*
X68727629Y-68099394D01*
X68754888Y-67997661D01*
X68754888Y-67991447D01*
X69434362Y-68670921D01*
X69466747Y-68626349D01*
X69559643Y-68444031D01*
X69622878Y-68249417D01*
X69654888Y-68047317D01*
X69654888Y-67842682D01*
X69622878Y-67640582D01*
X69559643Y-67445968D01*
X69466747Y-67263650D01*
X69434362Y-67219077D01*
X69434362Y-67219076D01*
X68754888Y-67898551D01*
X68754888Y-67892339D01*
X68727629Y-67790606D01*
X68674968Y-67699394D01*
X68600494Y-67624920D01*
X68509282Y-67572259D01*
X68407549Y-67545000D01*
X68401334Y-67545000D01*
X69080810Y-66865524D01*
X69080809Y-66865523D01*
X69036247Y-66833147D01*
X69036238Y-66833141D01*
X68853919Y-66740244D01*
X68659305Y-66677009D01*
X68457205Y-66645000D01*
X68252571Y-66645000D01*
X68050470Y-66677009D01*
X67855853Y-66740245D01*
X67671761Y-66834045D01*
X67603092Y-66846941D01*
X67538352Y-66820664D01*
X67518822Y-66801249D01*
X67509828Y-66790060D01*
X67509826Y-66790058D01*
X67509825Y-66790057D01*
X67373905Y-66680801D01*
X67365641Y-66674158D01*
X67365639Y-66674157D01*
X67365638Y-66674156D01*
X67199911Y-66591964D01*
X67199909Y-66591963D01*
X67020385Y-66547317D01*
X67020389Y-66547317D01*
X66989227Y-66545204D01*
X66978842Y-66544500D01*
X65730934Y-66544500D01*
X65719065Y-66545304D01*
X65689388Y-66547317D01*
X65509866Y-66591963D01*
X65509864Y-66591964D01*
X65344138Y-66674155D01*
X65344137Y-66674156D01*
X65325134Y-66689431D01*
X65260550Y-66716088D01*
X65191806Y-66703596D01*
X65147133Y-66665669D01*
X65050690Y-66532926D01*
X62980238Y-64462474D01*
X62949988Y-64413110D01*
X62892897Y-64237399D01*
X62892895Y-64237393D01*
X62858237Y-64169375D01*
X62792815Y-64040978D01*
X62710181Y-63927241D01*
X62663247Y-63862641D01*
X62663243Y-63862636D01*
X62507363Y-63706756D01*
X62507358Y-63706752D01*
X62367745Y-63605318D01*
X62325079Y-63549989D01*
X62319100Y-63480375D01*
X62351705Y-63418580D01*
X62367745Y-63404682D01*
X62507358Y-63303247D01*
X62507356Y-63303247D01*
X62507365Y-63303242D01*
X62663242Y-63147365D01*
X62792815Y-62969022D01*
X62892895Y-62772606D01*
X62961015Y-62562951D01*
X62995500Y-62345222D01*
X62995500Y-62124778D01*
X62961015Y-61907049D01*
X62917597Y-61773421D01*
X62892896Y-61697396D01*
X62892895Y-61697393D01*
X62837314Y-61588312D01*
X62792815Y-61500978D01*
X62710181Y-61387241D01*
X62663247Y-61322641D01*
X62663243Y-61322636D01*
X62507363Y-61166756D01*
X62507358Y-61166752D01*
X62367745Y-61065318D01*
X62325079Y-61009989D01*
X62319100Y-60940375D01*
X62351705Y-60878580D01*
X62367745Y-60864682D01*
X62507358Y-60763247D01*
X62507356Y-60763247D01*
X62507365Y-60763242D01*
X62663242Y-60607365D01*
X62792815Y-60429022D01*
X62892895Y-60232606D01*
X62961015Y-60022951D01*
X62995500Y-59805222D01*
X62995500Y-59584778D01*
X62961015Y-59367049D01*
X62892895Y-59157394D01*
X62892895Y-59157393D01*
X62841722Y-59056963D01*
X62792815Y-58960978D01*
X62710181Y-58847241D01*
X62663247Y-58782641D01*
X62663243Y-58782636D01*
X62507363Y-58626756D01*
X62507358Y-58626752D01*
X62329025Y-58497187D01*
X62329024Y-58497186D01*
X62329022Y-58497185D01*
X62292018Y-58478330D01*
X62241223Y-58430356D01*
X62224428Y-58362535D01*
X62246966Y-58296400D01*
X62275428Y-58267529D01*
X62320921Y-58234475D01*
X62320921Y-58234474D01*
X61641447Y-57555000D01*
X61647661Y-57555000D01*
X61749394Y-57527741D01*
X61840606Y-57475080D01*
X61915080Y-57400606D01*
X61967741Y-57309394D01*
X61995000Y-57207661D01*
X61995000Y-57201447D01*
X62674474Y-57880921D01*
X62706859Y-57836349D01*
X62799755Y-57654031D01*
X62862990Y-57459417D01*
X62895000Y-57257317D01*
X62895000Y-57052682D01*
X62862990Y-56850582D01*
X62799755Y-56655968D01*
X62706859Y-56473650D01*
X62674474Y-56429077D01*
X62674474Y-56429076D01*
X61995000Y-57108551D01*
X61995000Y-57102339D01*
X61967741Y-57000606D01*
X61915080Y-56909394D01*
X61840606Y-56834920D01*
X61749394Y-56782259D01*
X61647661Y-56755000D01*
X61641446Y-56755000D01*
X62320922Y-56075524D01*
X62320921Y-56075523D01*
X62275429Y-56042471D01*
X62232763Y-55987142D01*
X62226784Y-55917528D01*
X62259389Y-55855733D01*
X62292015Y-55831670D01*
X62329022Y-55812815D01*
X62507365Y-55683242D01*
X62663242Y-55527365D01*
X62792815Y-55349022D01*
X62892895Y-55152606D01*
X62961015Y-54942951D01*
X62995500Y-54725222D01*
X62995500Y-54504778D01*
X62961015Y-54287049D01*
X62925178Y-54176752D01*
X62892896Y-54077396D01*
X62892895Y-54077393D01*
X62840292Y-53974156D01*
X62792815Y-53880978D01*
X62766312Y-53844500D01*
X62663247Y-53702641D01*
X62663243Y-53702636D01*
X62507363Y-53546756D01*
X62507358Y-53546752D01*
X62329025Y-53417187D01*
X62329024Y-53417186D01*
X62329022Y-53417185D01*
X62266096Y-53385122D01*
X62132606Y-53317104D01*
X62132603Y-53317103D01*
X61922952Y-53248985D01*
X61814086Y-53231742D01*
X61705222Y-53214500D01*
X61484778Y-53214500D01*
X61412201Y-53225995D01*
X61267047Y-53248985D01*
X61057396Y-53317103D01*
X61057393Y-53317104D01*
X60860974Y-53417187D01*
X60682641Y-53546752D01*
X60682636Y-53546756D01*
X60526756Y-53702636D01*
X60526752Y-53702641D01*
X60397187Y-53880974D01*
X60297104Y-54077393D01*
X60297103Y-54077396D01*
X60228985Y-54287047D01*
X60194500Y-54504778D01*
X57715500Y-54504778D01*
X57715500Y-52180519D01*
X57715500Y-52180513D01*
X57685940Y-51993881D01*
X57627545Y-51814163D01*
X57601666Y-51763374D01*
X57577588Y-51716117D01*
X57541760Y-51645800D01*
X57430689Y-51492926D01*
X56859944Y-50922181D01*
X56826459Y-50860858D01*
X56831443Y-50791166D01*
X56873315Y-50735233D01*
X56938779Y-50710816D01*
X56947625Y-50710500D01*
X60071262Y-50710500D01*
X60138301Y-50730185D01*
X60158943Y-50746819D01*
X64918069Y-55505944D01*
X64951554Y-55567267D01*
X64954388Y-55593625D01*
X64954388Y-55868951D01*
X64957205Y-55910499D01*
X65001851Y-56090021D01*
X65001852Y-56090023D01*
X65084044Y-56255750D01*
X65199947Y-56399940D01*
X65253286Y-56442815D01*
X65344135Y-56515842D01*
X65509867Y-56598037D01*
X65689389Y-56642682D01*
X65689390Y-56642682D01*
X65689393Y-56642683D01*
X65730934Y-56645500D01*
X65730936Y-56645500D01*
X66978840Y-56645500D01*
X66978842Y-56645500D01*
X67020383Y-56642683D01*
X67199909Y-56598037D01*
X67365641Y-56515842D01*
X67460645Y-56439474D01*
X67525226Y-56412816D01*
X67593970Y-56425306D01*
X67611218Y-56435805D01*
X67620866Y-56442815D01*
X67689121Y-56477593D01*
X67817281Y-56542895D01*
X67817284Y-56542896D01*
X67922109Y-56576955D01*
X68026937Y-56611015D01*
X68244666Y-56645500D01*
X68244667Y-56645500D01*
X68465109Y-56645500D01*
X68465110Y-56645500D01*
X68682839Y-56611015D01*
X68892494Y-56542895D01*
X69088910Y-56442815D01*
X69267253Y-56313242D01*
X69423130Y-56157365D01*
X69552703Y-55979022D01*
X69652783Y-55782606D01*
X69720903Y-55572951D01*
X69755388Y-55355222D01*
X69755388Y-55134778D01*
X69720903Y-54917049D01*
X69658576Y-54725222D01*
X69652784Y-54707396D01*
X69652783Y-54707393D01*
X69598856Y-54601557D01*
X69552703Y-54510978D01*
X69521434Y-54467940D01*
X69423135Y-54332641D01*
X69423131Y-54332636D01*
X69267251Y-54176756D01*
X69267246Y-54176752D01*
X69088913Y-54047187D01*
X69088912Y-54047186D01*
X69088910Y-54047185D01*
X69025984Y-54015122D01*
X68892494Y-53947104D01*
X68892491Y-53947103D01*
X68682840Y-53878985D01*
X68573974Y-53861742D01*
X68465110Y-53844500D01*
X68244666Y-53844500D01*
X68172089Y-53855995D01*
X68026935Y-53878985D01*
X67817284Y-53947103D01*
X67817281Y-53947104D01*
X67620867Y-54047184D01*
X67620864Y-54047186D01*
X67611211Y-54054199D01*
X67545403Y-54077675D01*
X67477350Y-54061846D01*
X67460646Y-54050526D01*
X67365641Y-53974158D01*
X67365639Y-53974157D01*
X67365638Y-53974156D01*
X67199911Y-53891964D01*
X67199909Y-53891963D01*
X67020385Y-53847317D01*
X67020389Y-53847317D01*
X66989227Y-53845204D01*
X66978842Y-53844500D01*
X66978840Y-53844500D01*
X66703513Y-53844500D01*
X66636474Y-53824815D01*
X66615832Y-53808181D01*
X65445490Y-52637839D01*
X64194472Y-51386820D01*
X64160989Y-51325500D01*
X64165973Y-51255808D01*
X64207845Y-51199875D01*
X64250058Y-51179368D01*
X64457781Y-51123710D01*
X64663726Y-51038405D01*
X64856774Y-50926948D01*
X65033624Y-50791247D01*
X65191247Y-50633624D01*
X65326948Y-50456774D01*
X65438405Y-50263726D01*
X65523710Y-50057781D01*
X65581404Y-49842463D01*
X65610500Y-49621457D01*
X65610500Y-49398543D01*
X65581404Y-49177537D01*
X65523710Y-48962219D01*
X65438405Y-48756274D01*
X65326948Y-48563226D01*
X65265573Y-48483240D01*
X65191248Y-48386377D01*
X65191242Y-48386370D01*
X65033629Y-48228757D01*
X65033622Y-48228751D01*
X64856782Y-48093058D01*
X64856780Y-48093057D01*
X64856774Y-48093052D01*
X64663726Y-47981595D01*
X64663722Y-47981593D01*
X64457790Y-47896293D01*
X64457783Y-47896291D01*
X64457781Y-47896290D01*
X64242463Y-47838596D01*
X64242457Y-47838595D01*
X64242452Y-47838594D01*
X64021466Y-47809501D01*
X64021463Y-47809500D01*
X64021457Y-47809500D01*
X63798543Y-47809500D01*
X63798537Y-47809500D01*
X63798533Y-47809501D01*
X63577547Y-47838594D01*
X63577540Y-47838595D01*
X63577537Y-47838596D01*
X63362219Y-47896290D01*
X63362209Y-47896293D01*
X63156277Y-47981593D01*
X63156273Y-47981595D01*
X62963226Y-48093052D01*
X62963217Y-48093058D01*
X62786377Y-48228751D01*
X62786370Y-48228757D01*
X62628757Y-48386370D01*
X62628751Y-48386377D01*
X62493058Y-48563217D01*
X62493052Y-48563226D01*
X62381595Y-48756273D01*
X62381593Y-48756277D01*
X62296293Y-48962209D01*
X62296290Y-48962219D01*
X62240631Y-49169938D01*
X62204268Y-49229598D01*
X62141421Y-49260127D01*
X62072046Y-49251832D01*
X62033177Y-49225525D01*
X61401964Y-48594312D01*
X61401962Y-48594310D01*
X61249087Y-48483240D01*
X61080724Y-48397454D01*
X60901006Y-48339059D01*
X60714374Y-48309500D01*
X60714369Y-48309500D01*
X55452436Y-48309500D01*
X55385397Y-48289815D01*
X55341348Y-48240594D01*
X55335475Y-48228753D01*
X55320842Y-48199247D01*
X55320841Y-48199246D01*
X55320841Y-48199245D01*
X55320839Y-48199243D01*
X55204941Y-48055059D01*
X55204940Y-48055058D01*
X55060752Y-47939157D01*
X54895023Y-47856963D01*
X54715497Y-47812317D01*
X54715501Y-47812317D01*
X54684339Y-47810204D01*
X54673954Y-47809500D01*
X52826046Y-47809500D01*
X52814177Y-47810304D01*
X52784500Y-47812317D01*
X52604976Y-47856963D01*
X52439247Y-47939157D01*
X52295059Y-48055058D01*
X52295058Y-48055059D01*
X52179157Y-48199247D01*
X52096963Y-48364976D01*
X52052317Y-48544500D01*
X52049500Y-48586048D01*
X51435000Y-48586048D01*
X51435000Y-42150352D01*
X53141556Y-42150352D01*
X53141556Y-42523759D01*
X53178155Y-42895367D01*
X53178157Y-42895380D01*
X53251006Y-43261612D01*
X53359403Y-43618951D01*
X53502299Y-43963932D01*
X53502306Y-43963946D01*
X53678320Y-44293248D01*
X53678331Y-44293266D01*
X53885788Y-44603746D01*
X54122679Y-44892399D01*
X54386712Y-45156432D01*
X54675365Y-45393323D01*
X54675371Y-45393327D01*
X54985852Y-45600785D01*
X55315173Y-45776810D01*
X55660162Y-45919709D01*
X56017496Y-46028105D01*
X56383734Y-46100955D01*
X56755349Y-46137556D01*
X56755352Y-46137556D01*
X57128760Y-46137556D01*
X57128763Y-46137556D01*
X57500378Y-46100955D01*
X57866616Y-46028105D01*
X58223950Y-45919709D01*
X58568939Y-45776810D01*
X58898260Y-45600785D01*
X59208741Y-45393327D01*
X59497394Y-45156437D01*
X59761437Y-44892394D01*
X59998327Y-44603741D01*
X60205785Y-44293260D01*
X60381810Y-43963939D01*
X60524709Y-43618950D01*
X60633105Y-43261616D01*
X60675423Y-43048872D01*
X62769500Y-43048872D01*
X62769500Y-43311127D01*
X62782959Y-43413351D01*
X62803730Y-43571116D01*
X62871602Y-43824418D01*
X62871605Y-43824428D01*
X62971953Y-44066690D01*
X62971958Y-44066700D01*
X63103075Y-44293803D01*
X63262718Y-44501851D01*
X63262726Y-44501860D01*
X63448140Y-44687274D01*
X63448148Y-44687281D01*
X63448149Y-44687282D01*
X63449863Y-44688597D01*
X63656196Y-44846924D01*
X63883299Y-44978041D01*
X63883309Y-44978046D01*
X64125571Y-45078394D01*
X64125581Y-45078398D01*
X64378884Y-45146270D01*
X64638880Y-45180500D01*
X64638887Y-45180500D01*
X64901113Y-45180500D01*
X64901120Y-45180500D01*
X65161116Y-45146270D01*
X65414419Y-45078398D01*
X65656697Y-44978043D01*
X65883803Y-44846924D01*
X66091851Y-44687282D01*
X66091855Y-44687277D01*
X66091860Y-44687274D01*
X66277274Y-44501860D01*
X66277277Y-44501855D01*
X66277282Y-44501851D01*
X66436924Y-44293803D01*
X66568043Y-44066697D01*
X66668398Y-43824419D01*
X66736270Y-43571116D01*
X66770500Y-43311120D01*
X66770500Y-43048880D01*
X66770499Y-43048872D01*
X69754500Y-43048872D01*
X69754500Y-43311127D01*
X69767959Y-43413351D01*
X69788730Y-43571116D01*
X69856602Y-43824418D01*
X69856605Y-43824428D01*
X69956953Y-44066690D01*
X69956958Y-44066700D01*
X70088075Y-44293803D01*
X70247718Y-44501851D01*
X70247726Y-44501860D01*
X70433143Y-44687277D01*
X70433150Y-44687283D01*
X70505986Y-44743172D01*
X70547189Y-44799600D01*
X70554500Y-44841548D01*
X70554500Y-59784486D01*
X70584059Y-59971118D01*
X70642454Y-60150836D01*
X70703609Y-60270858D01*
X70728240Y-60319199D01*
X70839310Y-60472074D01*
X70839312Y-60472076D01*
X72558181Y-62190945D01*
X72591666Y-62252268D01*
X72594500Y-62278626D01*
X72594500Y-62341450D01*
X72594501Y-62341466D01*
X72623594Y-62562452D01*
X72623595Y-62562457D01*
X72623596Y-62562463D01*
X72680675Y-62775484D01*
X72681290Y-62777780D01*
X72681293Y-62777790D01*
X72766593Y-62983722D01*
X72766595Y-62983726D01*
X72878052Y-63176774D01*
X72878057Y-63176780D01*
X72878058Y-63176782D01*
X73013751Y-63353622D01*
X73013757Y-63353629D01*
X73171370Y-63511242D01*
X73171377Y-63511248D01*
X73269344Y-63586420D01*
X73348226Y-63646948D01*
X73541274Y-63758405D01*
X73747219Y-63843710D01*
X73962537Y-63901404D01*
X74183543Y-63930500D01*
X74183550Y-63930500D01*
X74406450Y-63930500D01*
X74406457Y-63930500D01*
X74627463Y-63901404D01*
X74842781Y-63843710D01*
X75048726Y-63758405D01*
X75241774Y-63646948D01*
X75418624Y-63511247D01*
X75576247Y-63353624D01*
X75711948Y-63176774D01*
X75823405Y-62983726D01*
X75908710Y-62777781D01*
X75966404Y-62562463D01*
X75995500Y-62341457D01*
X75995500Y-62118543D01*
X75966404Y-61897537D01*
X75908710Y-61682219D01*
X75823405Y-61476274D01*
X75711948Y-61283226D01*
X75672867Y-61232294D01*
X75576248Y-61106377D01*
X75576242Y-61106370D01*
X75418629Y-60948757D01*
X75418622Y-60948751D01*
X75389590Y-60926474D01*
X75266662Y-60832149D01*
X112052000Y-60832149D01*
X112052000Y-61087850D01*
X112077722Y-61283217D01*
X112085374Y-61341340D01*
X112126808Y-61495974D01*
X112151550Y-61588312D01*
X112151553Y-61588322D01*
X112249394Y-61824531D01*
X112249399Y-61824542D01*
X112377234Y-62045957D01*
X112377245Y-62045973D01*
X112532888Y-62248811D01*
X112532894Y-62248818D01*
X112713681Y-62429605D01*
X112713687Y-62429610D01*
X112916535Y-62585261D01*
X112916542Y-62585265D01*
X113137957Y-62713100D01*
X113137962Y-62713102D01*
X113137965Y-62713104D01*
X113374187Y-62810950D01*
X113621160Y-62877126D01*
X113853260Y-62907683D01*
X113874641Y-62910498D01*
X113874657Y-62910500D01*
X113874664Y-62910500D01*
X114130336Y-62910500D01*
X114130343Y-62910500D01*
X114383840Y-62877126D01*
X114630813Y-62810950D01*
X114867035Y-62713104D01*
X115088465Y-62585261D01*
X115291313Y-62429610D01*
X115472110Y-62248813D01*
X115627761Y-62045965D01*
X115755604Y-61824535D01*
X115773439Y-61781476D01*
X115817278Y-61727074D01*
X115883571Y-61705007D01*
X115951271Y-61722285D01*
X115998883Y-61773421D01*
X116012000Y-61828928D01*
X116012000Y-62133952D01*
X116012001Y-62133955D01*
X116014816Y-62175491D01*
X116014816Y-62175492D01*
X116059463Y-62355022D01*
X116141658Y-62520752D01*
X116245515Y-62649955D01*
X116257560Y-62664940D01*
X116401747Y-62780841D01*
X116567479Y-62863037D01*
X116747002Y-62907682D01*
X116747003Y-62907682D01*
X116747006Y-62907683D01*
X116788547Y-62910500D01*
X119136452Y-62910499D01*
X119177994Y-62907683D01*
X119357521Y-62863037D01*
X119523253Y-62780841D01*
X119667440Y-62664940D01*
X119783341Y-62520753D01*
X119865537Y-62355021D01*
X119910183Y-62175494D01*
X119913000Y-62133953D01*
X119912999Y-59786048D01*
X119910183Y-59744506D01*
X119865537Y-59564979D01*
X119783341Y-59399247D01*
X119667440Y-59255060D01*
X119607522Y-59206896D01*
X119523252Y-59139158D01*
X119357522Y-59056963D01*
X119177996Y-59012317D01*
X119178000Y-59012317D01*
X119150300Y-59010439D01*
X119136453Y-59009500D01*
X119136450Y-59009500D01*
X116788547Y-59009500D01*
X116788544Y-59009501D01*
X116747008Y-59012316D01*
X116747007Y-59012316D01*
X116567477Y-59056963D01*
X116401747Y-59139158D01*
X116257560Y-59255059D01*
X116257559Y-59255060D01*
X116141658Y-59399247D01*
X116059463Y-59564977D01*
X116014817Y-59744501D01*
X116012000Y-59786049D01*
X116012000Y-60091069D01*
X115992315Y-60158108D01*
X115939511Y-60203863D01*
X115870353Y-60213807D01*
X115806797Y-60184782D01*
X115773439Y-60138522D01*
X115755605Y-60095468D01*
X115755600Y-60095457D01*
X115628284Y-59874941D01*
X115627761Y-59874035D01*
X115472110Y-59671187D01*
X115472105Y-59671181D01*
X115291318Y-59490394D01*
X115291311Y-59490388D01*
X115088473Y-59334745D01*
X115088471Y-59334743D01*
X115088465Y-59334739D01*
X115088460Y-59334736D01*
X115088457Y-59334734D01*
X114867042Y-59206899D01*
X114867031Y-59206894D01*
X114630822Y-59109053D01*
X114630815Y-59109051D01*
X114630813Y-59109050D01*
X114383840Y-59042874D01*
X114327507Y-59035457D01*
X114130350Y-59009500D01*
X114130343Y-59009500D01*
X113874657Y-59009500D01*
X113874649Y-59009500D01*
X113649326Y-59039165D01*
X113621160Y-59042874D01*
X113374187Y-59109050D01*
X113374177Y-59109053D01*
X113137968Y-59206894D01*
X113137957Y-59206899D01*
X112916542Y-59334734D01*
X112916526Y-59334745D01*
X112713688Y-59490388D01*
X112713681Y-59490394D01*
X112532894Y-59671181D01*
X112532888Y-59671188D01*
X112377245Y-59874026D01*
X112377234Y-59874042D01*
X112249399Y-60095457D01*
X112249394Y-60095468D01*
X112151553Y-60331677D01*
X112151550Y-60331687D01*
X112098547Y-60529500D01*
X112085374Y-60578661D01*
X112052000Y-60832149D01*
X75266662Y-60832149D01*
X75241782Y-60813058D01*
X75241780Y-60813057D01*
X75241774Y-60813052D01*
X75048726Y-60701595D01*
X75048722Y-60701593D01*
X74842790Y-60616293D01*
X74842783Y-60616291D01*
X74842781Y-60616290D01*
X74627463Y-60558596D01*
X74627457Y-60558595D01*
X74627452Y-60558594D01*
X74406466Y-60529501D01*
X74406463Y-60529500D01*
X74406457Y-60529500D01*
X74406450Y-60529500D01*
X74343626Y-60529500D01*
X74314185Y-60520855D01*
X74284199Y-60514332D01*
X74279183Y-60510577D01*
X74276587Y-60509815D01*
X74255945Y-60493181D01*
X74094945Y-60332181D01*
X74061460Y-60270858D01*
X74066444Y-60201166D01*
X74108316Y-60145233D01*
X74173780Y-60120816D01*
X74182626Y-60120500D01*
X75218952Y-60120500D01*
X75218954Y-60120500D01*
X75260495Y-60117683D01*
X75440022Y-60073037D01*
X75605753Y-59990842D01*
X75749941Y-59874941D01*
X75865842Y-59730753D01*
X75948037Y-59565022D01*
X75992683Y-59385495D01*
X75995500Y-59343954D01*
X75995500Y-57496046D01*
X75992683Y-57454505D01*
X75948037Y-57274978D01*
X75865842Y-57109247D01*
X75749941Y-56965059D01*
X75680691Y-56909394D01*
X75605752Y-56849157D01*
X75440023Y-56766963D01*
X75260497Y-56722317D01*
X75260501Y-56722317D01*
X75229339Y-56720204D01*
X75218954Y-56719500D01*
X73371046Y-56719500D01*
X73359177Y-56720304D01*
X73329500Y-56722317D01*
X73180420Y-56759392D01*
X73149978Y-56766963D01*
X73149976Y-56766963D01*
X73149975Y-56766964D01*
X73134593Y-56774593D01*
X73065788Y-56786744D01*
X73001336Y-56759766D01*
X72961701Y-56702227D01*
X72955500Y-56663504D01*
X72955500Y-50495645D01*
X81284500Y-50495645D01*
X81284500Y-52374363D01*
X81299953Y-52491753D01*
X81299956Y-52491762D01*
X81360464Y-52637841D01*
X81456718Y-52763282D01*
X81509860Y-52804059D01*
X81588125Y-52864114D01*
X81629328Y-52920542D01*
X81633483Y-52990288D01*
X81612957Y-53035375D01*
X81501659Y-53188563D01*
X81394433Y-53399003D01*
X81321446Y-53623631D01*
X81284500Y-53856902D01*
X81284500Y-54093097D01*
X81321446Y-54326368D01*
X81394433Y-54550996D01*
X81498089Y-54754430D01*
X81501657Y-54761433D01*
X81640483Y-54952510D01*
X81807490Y-55119517D01*
X81842127Y-55144683D01*
X81884792Y-55200013D01*
X81890771Y-55269626D01*
X81858165Y-55331421D01*
X81842130Y-55345315D01*
X81828496Y-55355221D01*
X81807488Y-55370484D01*
X81640485Y-55537487D01*
X81640485Y-55537488D01*
X81640483Y-55537490D01*
X81580862Y-55619550D01*
X81501657Y-55728566D01*
X81394433Y-55939003D01*
X81321446Y-56163631D01*
X81284500Y-56396902D01*
X81284500Y-56633097D01*
X81321446Y-56866368D01*
X81394433Y-57090996D01*
X81501657Y-57301433D01*
X81640483Y-57492510D01*
X81807490Y-57659517D01*
X81998567Y-57798343D01*
X82067928Y-57833684D01*
X82209003Y-57905566D01*
X82209005Y-57905566D01*
X82209008Y-57905568D01*
X82329412Y-57944689D01*
X82433631Y-57978553D01*
X82666903Y-58015500D01*
X82666908Y-58015500D01*
X83703097Y-58015500D01*
X83936368Y-57978553D01*
X84160992Y-57905568D01*
X84371433Y-57798343D01*
X84562510Y-57659517D01*
X84729517Y-57492510D01*
X84868343Y-57301433D01*
X84975568Y-57090992D01*
X85048553Y-56866368D01*
X85053534Y-56834920D01*
X85085500Y-56633097D01*
X85085500Y-56396902D01*
X85048553Y-56163631D01*
X84999804Y-56013599D01*
X84975568Y-55939008D01*
X84975566Y-55939005D01*
X84975566Y-55939003D01*
X84895877Y-55782606D01*
X84868343Y-55728567D01*
X84729517Y-55537490D01*
X84562510Y-55370483D01*
X84527872Y-55345317D01*
X84485207Y-55289989D01*
X84479228Y-55220375D01*
X84511833Y-55158580D01*
X84527873Y-55144682D01*
X84562510Y-55119517D01*
X84729517Y-54952510D01*
X84868343Y-54761433D01*
X84975568Y-54550992D01*
X85048553Y-54326368D01*
X85085500Y-54093097D01*
X85085500Y-53856902D01*
X85048553Y-53623631D01*
X84990931Y-53446291D01*
X84975568Y-53399008D01*
X84975566Y-53399005D01*
X84975566Y-53399003D01*
X84919002Y-53287991D01*
X84868343Y-53188567D01*
X84757041Y-53035373D01*
X84733562Y-52969570D01*
X84749387Y-52901516D01*
X84781874Y-52864114D01*
X84787839Y-52859536D01*
X84787841Y-52859536D01*
X84913282Y-52763282D01*
X85009536Y-52637841D01*
X85070044Y-52491762D01*
X85085500Y-52374361D01*
X85085499Y-50495645D01*
X146689500Y-50495645D01*
X146689500Y-52374363D01*
X146704953Y-52491753D01*
X146704956Y-52491762D01*
X146765464Y-52637841D01*
X146861718Y-52763282D01*
X146914860Y-52804059D01*
X146993125Y-52864114D01*
X147034328Y-52920542D01*
X147038483Y-52990288D01*
X147017957Y-53035375D01*
X146906659Y-53188563D01*
X146799433Y-53399003D01*
X146726446Y-53623631D01*
X146689500Y-53856902D01*
X146689500Y-54093097D01*
X146726446Y-54326368D01*
X146799433Y-54550996D01*
X146903089Y-54754430D01*
X146906657Y-54761433D01*
X147045483Y-54952510D01*
X147212490Y-55119517D01*
X147247127Y-55144683D01*
X147289792Y-55200013D01*
X147295771Y-55269626D01*
X147263165Y-55331421D01*
X147247130Y-55345315D01*
X147233496Y-55355221D01*
X147212488Y-55370484D01*
X147045485Y-55537487D01*
X147045485Y-55537488D01*
X147045483Y-55537490D01*
X146985862Y-55619550D01*
X146906657Y-55728566D01*
X146799433Y-55939003D01*
X146726446Y-56163631D01*
X146689500Y-56396902D01*
X146689500Y-56633097D01*
X146726446Y-56866368D01*
X146799433Y-57090996D01*
X146906657Y-57301433D01*
X147045483Y-57492510D01*
X147212490Y-57659517D01*
X147403567Y-57798343D01*
X147472928Y-57833684D01*
X147614003Y-57905566D01*
X147614005Y-57905566D01*
X147614008Y-57905568D01*
X147734412Y-57944689D01*
X147838631Y-57978553D01*
X148071903Y-58015500D01*
X148071908Y-58015500D01*
X149108097Y-58015500D01*
X149341368Y-57978553D01*
X149565992Y-57905568D01*
X149776433Y-57798343D01*
X149814238Y-57770875D01*
X149857862Y-57739182D01*
X149923668Y-57715702D01*
X149930747Y-57715500D01*
X153764486Y-57715500D01*
X153951118Y-57685940D01*
X153960733Y-57682816D01*
X154130832Y-57627547D01*
X154299199Y-57541760D01*
X154362116Y-57496048D01*
X157684500Y-57496048D01*
X157684500Y-59343951D01*
X157687317Y-59385499D01*
X157731963Y-59565023D01*
X157814157Y-59730752D01*
X157929324Y-59874026D01*
X157930059Y-59874941D01*
X158074247Y-59990842D01*
X158239978Y-60073037D01*
X158419501Y-60117682D01*
X158419502Y-60117682D01*
X158419505Y-60117683D01*
X158461046Y-60120500D01*
X158461048Y-60120500D01*
X160308952Y-60120500D01*
X160308954Y-60120500D01*
X160350495Y-60117683D01*
X160530022Y-60073037D01*
X160695753Y-59990842D01*
X160839941Y-59874941D01*
X160955842Y-59730753D01*
X161038037Y-59565022D01*
X161082683Y-59385495D01*
X161085500Y-59343954D01*
X161085500Y-57496046D01*
X161082683Y-57454505D01*
X161038037Y-57274978D01*
X160955842Y-57109247D01*
X160839941Y-56965059D01*
X160770691Y-56909394D01*
X160695752Y-56849157D01*
X160530023Y-56766963D01*
X160350497Y-56722317D01*
X160350501Y-56722317D01*
X160319339Y-56720204D01*
X160308954Y-56719500D01*
X158461046Y-56719500D01*
X158449177Y-56720304D01*
X158419500Y-56722317D01*
X158239976Y-56766963D01*
X158074247Y-56849157D01*
X157930059Y-56965058D01*
X157930058Y-56965059D01*
X157814157Y-57109247D01*
X157731963Y-57274976D01*
X157687317Y-57454500D01*
X157684500Y-57496048D01*
X154362116Y-57496048D01*
X154452074Y-57430690D01*
X156670945Y-55211819D01*
X156732268Y-55178334D01*
X156758626Y-55175500D01*
X163739645Y-55175500D01*
X163806684Y-55195185D01*
X163852439Y-55247989D01*
X163862383Y-55317147D01*
X163836292Y-55377188D01*
X163734156Y-55504249D01*
X163651964Y-55669976D01*
X163651963Y-55669978D01*
X163607317Y-55849500D01*
X163604500Y-55891048D01*
X163604500Y-57138951D01*
X163607317Y-57180499D01*
X163651963Y-57360021D01*
X163651964Y-57360023D01*
X163734156Y-57525750D01*
X163850059Y-57669940D01*
X163906990Y-57715702D01*
X163994247Y-57785842D01*
X164159979Y-57868037D01*
X164339501Y-57912682D01*
X164339502Y-57912682D01*
X164339505Y-57912683D01*
X164381046Y-57915500D01*
X164381048Y-57915500D01*
X165628952Y-57915500D01*
X165628954Y-57915500D01*
X165670495Y-57912683D01*
X165850021Y-57868037D01*
X166015753Y-57785842D01*
X166110757Y-57709474D01*
X166175338Y-57682816D01*
X166244082Y-57695306D01*
X166261330Y-57705805D01*
X166270978Y-57712815D01*
X166322726Y-57739182D01*
X166467393Y-57812895D01*
X166467396Y-57812896D01*
X166531377Y-57833684D01*
X166677049Y-57881015D01*
X166894778Y-57915500D01*
X166894779Y-57915500D01*
X167115221Y-57915500D01*
X167115222Y-57915500D01*
X167332951Y-57881015D01*
X167542606Y-57812895D01*
X167739022Y-57712815D01*
X167917365Y-57583242D01*
X168073242Y-57427365D01*
X168202815Y-57249022D01*
X168302895Y-57052606D01*
X168371015Y-56842951D01*
X168405500Y-56625222D01*
X168405500Y-56404778D01*
X168371015Y-56187049D01*
X168331413Y-56065165D01*
X168302896Y-55977396D01*
X168302895Y-55977393D01*
X168219015Y-55812771D01*
X168205500Y-55756476D01*
X168205500Y-55289143D01*
X168175940Y-55102511D01*
X168148846Y-55019127D01*
X168117547Y-54922798D01*
X168117545Y-54922795D01*
X168117545Y-54922793D01*
X168072290Y-54833977D01*
X168031760Y-54754431D01*
X167920690Y-54601557D01*
X167787073Y-54467940D01*
X166378444Y-53059310D01*
X166225569Y-52948240D01*
X166057206Y-52862454D01*
X165877488Y-52804059D01*
X165690856Y-52774500D01*
X165690851Y-52774500D01*
X156115519Y-52774500D01*
X156115514Y-52774500D01*
X155928881Y-52804059D01*
X155749163Y-52862454D01*
X155580800Y-52948240D01*
X155427923Y-53059312D01*
X153209055Y-55278181D01*
X153147732Y-55311666D01*
X153121374Y-55314500D01*
X150071889Y-55314500D01*
X150004850Y-55294815D01*
X149959095Y-55242011D01*
X149949151Y-55172853D01*
X149978176Y-55109297D01*
X149984208Y-55102819D01*
X149984516Y-55102511D01*
X150134517Y-54952510D01*
X150273343Y-54761433D01*
X150380568Y-54550992D01*
X150453553Y-54326368D01*
X150490500Y-54093097D01*
X150490500Y-53856902D01*
X150453553Y-53623631D01*
X150395931Y-53446291D01*
X150380568Y-53399008D01*
X150380566Y-53399005D01*
X150380566Y-53399003D01*
X150324002Y-53287991D01*
X150273343Y-53188567D01*
X150162041Y-53035373D01*
X150138562Y-52969570D01*
X150154387Y-52901516D01*
X150186874Y-52864114D01*
X150192839Y-52859536D01*
X150192841Y-52859536D01*
X150318282Y-52763282D01*
X150414536Y-52637841D01*
X150475044Y-52491762D01*
X150490500Y-52374361D01*
X150490499Y-50495640D01*
X150490499Y-50495639D01*
X150490499Y-50495636D01*
X150475046Y-50378246D01*
X150475044Y-50378239D01*
X150475044Y-50378238D01*
X150414536Y-50232159D01*
X150318282Y-50106718D01*
X150192841Y-50010464D01*
X150067642Y-49958605D01*
X150046762Y-49949956D01*
X150046760Y-49949955D01*
X149929370Y-49934501D01*
X149929367Y-49934500D01*
X149929361Y-49934500D01*
X149929354Y-49934500D01*
X147250636Y-49934500D01*
X147133246Y-49949953D01*
X147133237Y-49949956D01*
X146987160Y-50010463D01*
X146861718Y-50106718D01*
X146765463Y-50232160D01*
X146704956Y-50378237D01*
X146704955Y-50378239D01*
X146693300Y-50466773D01*
X146689501Y-50495636D01*
X146689500Y-50495645D01*
X85085499Y-50495645D01*
X85085499Y-50495640D01*
X85085499Y-50495639D01*
X85085499Y-50495636D01*
X85070046Y-50378246D01*
X85070044Y-50378239D01*
X85070044Y-50378238D01*
X85009536Y-50232159D01*
X84913282Y-50106718D01*
X84787841Y-50010464D01*
X84662642Y-49958605D01*
X84641762Y-49949956D01*
X84641760Y-49949955D01*
X84524370Y-49934501D01*
X84524367Y-49934500D01*
X84524361Y-49934500D01*
X84524354Y-49934500D01*
X81845636Y-49934500D01*
X81728246Y-49949953D01*
X81728237Y-49949956D01*
X81582160Y-50010463D01*
X81456718Y-50106718D01*
X81360463Y-50232160D01*
X81299956Y-50378237D01*
X81299955Y-50378239D01*
X81288300Y-50466773D01*
X81284501Y-50495636D01*
X81284500Y-50495645D01*
X72955500Y-50495645D01*
X72955500Y-49624734D01*
X72975185Y-49557695D01*
X73027989Y-49511940D01*
X73097147Y-49501996D01*
X73160703Y-49531021D01*
X73167181Y-49537053D01*
X73171370Y-49541242D01*
X73171377Y-49541248D01*
X73288941Y-49631457D01*
X73348226Y-49676948D01*
X73541274Y-49788405D01*
X73671140Y-49842197D01*
X73695897Y-49852452D01*
X73747219Y-49873710D01*
X73962537Y-49931404D01*
X74183543Y-49960500D01*
X74183550Y-49960500D01*
X74406450Y-49960500D01*
X74406457Y-49960500D01*
X74627463Y-49931404D01*
X74842781Y-49873710D01*
X75048726Y-49788405D01*
X75241774Y-49676948D01*
X75418624Y-49541247D01*
X75576247Y-49383624D01*
X75711948Y-49206774D01*
X75823405Y-49013726D01*
X75908710Y-48807781D01*
X75966404Y-48592463D01*
X75995500Y-48371457D01*
X75995500Y-48148543D01*
X75993321Y-48131995D01*
X103199500Y-48131995D01*
X103199500Y-48368004D01*
X103199501Y-48368020D01*
X103229521Y-48596048D01*
X103230307Y-48602014D01*
X103274321Y-48766277D01*
X103291394Y-48829993D01*
X103381714Y-49048045D01*
X103381719Y-49048056D01*
X103452088Y-49169937D01*
X103499727Y-49252450D01*
X103499729Y-49252453D01*
X103499730Y-49252454D01*
X103643406Y-49439697D01*
X103643412Y-49439704D01*
X103810295Y-49606587D01*
X103810302Y-49606593D01*
X103842706Y-49631457D01*
X103997550Y-49750273D01*
X104128918Y-49826118D01*
X104201943Y-49868280D01*
X104201948Y-49868282D01*
X104201951Y-49868284D01*
X104420007Y-49958606D01*
X104647986Y-50019693D01*
X104881989Y-50050500D01*
X104881996Y-50050500D01*
X105118004Y-50050500D01*
X105118011Y-50050500D01*
X105352014Y-50019693D01*
X105579993Y-49958606D01*
X105798049Y-49868284D01*
X106002450Y-49750273D01*
X106189699Y-49606592D01*
X106356592Y-49439699D01*
X106500273Y-49252450D01*
X106618284Y-49048049D01*
X106708606Y-48829993D01*
X106769693Y-48602014D01*
X106800500Y-48368011D01*
X106800500Y-48131995D01*
X125699500Y-48131995D01*
X125699500Y-48368004D01*
X125699501Y-48368020D01*
X125729521Y-48596048D01*
X125730307Y-48602014D01*
X125774321Y-48766277D01*
X125791394Y-48829993D01*
X125881714Y-49048045D01*
X125881719Y-49048056D01*
X125952088Y-49169937D01*
X125999727Y-49252450D01*
X125999729Y-49252453D01*
X125999730Y-49252454D01*
X126143406Y-49439697D01*
X126143412Y-49439704D01*
X126310295Y-49606587D01*
X126310302Y-49606593D01*
X126342706Y-49631457D01*
X126497550Y-49750273D01*
X126628918Y-49826118D01*
X126701943Y-49868280D01*
X126701948Y-49868282D01*
X126701951Y-49868284D01*
X126920007Y-49958606D01*
X127147986Y-50019693D01*
X127381989Y-50050500D01*
X127381996Y-50050500D01*
X127618004Y-50050500D01*
X127618011Y-50050500D01*
X127852014Y-50019693D01*
X128079993Y-49958606D01*
X128298049Y-49868284D01*
X128502450Y-49750273D01*
X128689699Y-49606592D01*
X128856592Y-49439699D01*
X129000273Y-49252450D01*
X129118284Y-49048049D01*
X129208606Y-48829993D01*
X129269693Y-48602014D01*
X129300500Y-48368011D01*
X129300500Y-48148549D01*
X157684500Y-48148549D01*
X157684500Y-48371450D01*
X157684501Y-48371466D01*
X157713594Y-48592452D01*
X157713595Y-48592457D01*
X157713596Y-48592463D01*
X157760169Y-48766277D01*
X157771290Y-48807780D01*
X157771293Y-48807790D01*
X157780490Y-48829993D01*
X157856595Y-49013726D01*
X157968052Y-49206774D01*
X157968057Y-49206780D01*
X157968058Y-49206782D01*
X158103751Y-49383622D01*
X158103757Y-49383629D01*
X158261370Y-49541242D01*
X158261377Y-49541248D01*
X158378941Y-49631457D01*
X158438226Y-49676948D01*
X158631274Y-49788405D01*
X158761140Y-49842197D01*
X158785897Y-49852452D01*
X158837219Y-49873710D01*
X159052537Y-49931404D01*
X159273543Y-49960500D01*
X159273550Y-49960500D01*
X159496450Y-49960500D01*
X159496457Y-49960500D01*
X159717463Y-49931404D01*
X159932781Y-49873710D01*
X160138726Y-49788405D01*
X160331774Y-49676948D01*
X160508624Y-49541247D01*
X160666247Y-49383624D01*
X160801948Y-49206774D01*
X160913405Y-49013726D01*
X160998710Y-48807781D01*
X161055443Y-48596048D01*
X167489500Y-48596048D01*
X167489500Y-50443951D01*
X167492317Y-50485499D01*
X167536963Y-50665023D01*
X167619157Y-50830752D01*
X167704520Y-50936948D01*
X167735059Y-50974941D01*
X167879247Y-51090842D01*
X168044978Y-51173037D01*
X168224501Y-51217682D01*
X168224502Y-51217682D01*
X168224505Y-51217683D01*
X168266046Y-51220500D01*
X168266048Y-51220500D01*
X170113952Y-51220500D01*
X170113954Y-51220500D01*
X170155495Y-51217683D01*
X170335022Y-51173037D01*
X170500753Y-51090842D01*
X170644941Y-50974941D01*
X170760842Y-50830753D01*
X170843037Y-50665022D01*
X170887683Y-50485495D01*
X170890500Y-50443954D01*
X170890500Y-49408549D01*
X177649500Y-49408549D01*
X177649500Y-49631450D01*
X177649501Y-49631466D01*
X177678594Y-49852452D01*
X177678595Y-49852457D01*
X177678596Y-49852463D01*
X177733611Y-50057781D01*
X177736290Y-50067780D01*
X177736293Y-50067790D01*
X177817451Y-50263722D01*
X177821595Y-50273726D01*
X177933052Y-50466774D01*
X177933057Y-50466780D01*
X177933058Y-50466782D01*
X178068751Y-50643622D01*
X178068757Y-50643629D01*
X178226370Y-50801242D01*
X178226377Y-50801248D01*
X178251797Y-50820753D01*
X178403226Y-50936948D01*
X178596274Y-51048405D01*
X178802219Y-51133710D01*
X179017537Y-51191404D01*
X179238543Y-51220500D01*
X179238550Y-51220500D01*
X179461450Y-51220500D01*
X179461457Y-51220500D01*
X179682463Y-51191404D01*
X179897781Y-51133710D01*
X180103726Y-51048405D01*
X180296774Y-50936948D01*
X180473624Y-50801247D01*
X180631247Y-50643624D01*
X180766948Y-50466774D01*
X180878405Y-50273726D01*
X180963710Y-50067781D01*
X181021404Y-49852463D01*
X181050500Y-49631457D01*
X181050500Y-49408543D01*
X181021404Y-49187537D01*
X180963710Y-48972219D01*
X180878405Y-48766274D01*
X180766948Y-48573226D01*
X180632074Y-48397454D01*
X180631248Y-48396377D01*
X180631242Y-48396370D01*
X180473629Y-48238757D01*
X180473622Y-48238751D01*
X180296782Y-48103058D01*
X180296780Y-48103057D01*
X180296774Y-48103052D01*
X180103726Y-47991595D01*
X180103722Y-47991593D01*
X179897790Y-47906293D01*
X179897783Y-47906291D01*
X179897781Y-47906290D01*
X179682463Y-47848596D01*
X179682457Y-47848595D01*
X179682452Y-47848594D01*
X179461466Y-47819501D01*
X179461463Y-47819500D01*
X179461457Y-47819500D01*
X179238543Y-47819500D01*
X179238537Y-47819500D01*
X179238533Y-47819501D01*
X179017547Y-47848594D01*
X179017540Y-47848595D01*
X179017537Y-47848596D01*
X178833210Y-47897986D01*
X178802219Y-47906290D01*
X178802209Y-47906293D01*
X178596277Y-47991593D01*
X178596273Y-47991595D01*
X178403226Y-48103052D01*
X178403217Y-48103058D01*
X178226377Y-48238751D01*
X178226370Y-48238757D01*
X178068757Y-48396370D01*
X178068751Y-48396377D01*
X177933058Y-48573217D01*
X177933052Y-48573226D01*
X177821595Y-48766273D01*
X177821593Y-48766277D01*
X177736293Y-48972209D01*
X177736290Y-48972219D01*
X177681276Y-49177537D01*
X177678597Y-49187534D01*
X177678594Y-49187547D01*
X177649501Y-49408533D01*
X177649500Y-49408549D01*
X170890500Y-49408549D01*
X170890500Y-48596046D01*
X170887683Y-48554505D01*
X170843037Y-48374978D01*
X170760842Y-48209247D01*
X170644941Y-48065059D01*
X170632501Y-48055059D01*
X170500752Y-47949157D01*
X170335023Y-47866963D01*
X170155497Y-47822317D01*
X170155501Y-47822317D01*
X170124339Y-47820204D01*
X170113954Y-47819500D01*
X168266046Y-47819500D01*
X168254177Y-47820304D01*
X168224500Y-47822317D01*
X168044976Y-47866963D01*
X167879247Y-47949157D01*
X167735059Y-48065058D01*
X167735058Y-48065059D01*
X167619157Y-48209247D01*
X167536963Y-48374976D01*
X167492317Y-48554500D01*
X167489500Y-48596048D01*
X161055443Y-48596048D01*
X161056404Y-48592463D01*
X161085500Y-48371457D01*
X161085500Y-48148543D01*
X161056404Y-47927537D01*
X160998710Y-47712219D01*
X160913405Y-47506274D01*
X160801948Y-47313226D01*
X160751553Y-47247550D01*
X160666248Y-47136377D01*
X160666242Y-47136370D01*
X160508629Y-46978757D01*
X160508622Y-46978751D01*
X160331782Y-46843058D01*
X160331780Y-46843057D01*
X160331774Y-46843052D01*
X160138726Y-46731595D01*
X160138722Y-46731593D01*
X159932790Y-46646293D01*
X159932783Y-46646291D01*
X159932781Y-46646290D01*
X159717463Y-46588596D01*
X159717457Y-46588595D01*
X159717452Y-46588594D01*
X159496466Y-46559501D01*
X159496463Y-46559500D01*
X159496457Y-46559500D01*
X159273543Y-46559500D01*
X159273537Y-46559500D01*
X159273533Y-46559501D01*
X159052547Y-46588594D01*
X159052540Y-46588595D01*
X159052537Y-46588596D01*
X158891618Y-46631714D01*
X158837219Y-46646290D01*
X158837209Y-46646293D01*
X158631277Y-46731593D01*
X158631273Y-46731595D01*
X158438226Y-46843052D01*
X158438217Y-46843058D01*
X158261377Y-46978751D01*
X158261370Y-46978757D01*
X158103757Y-47136370D01*
X158103751Y-47136377D01*
X157968058Y-47313217D01*
X157968052Y-47313226D01*
X157856595Y-47506273D01*
X157856593Y-47506277D01*
X157771293Y-47712209D01*
X157771290Y-47712219D01*
X157741790Y-47822317D01*
X157713597Y-47927534D01*
X157713594Y-47927547D01*
X157684501Y-48148533D01*
X157684500Y-48148549D01*
X129300500Y-48148549D01*
X129300500Y-48131989D01*
X129269693Y-47897986D01*
X129208606Y-47670007D01*
X129118284Y-47451951D01*
X129118282Y-47451948D01*
X129118280Y-47451943D01*
X129038191Y-47313226D01*
X129000273Y-47247550D01*
X128856592Y-47060301D01*
X128856587Y-47060295D01*
X128689704Y-46893412D01*
X128689697Y-46893406D01*
X128502454Y-46749730D01*
X128502453Y-46749729D01*
X128502450Y-46749727D01*
X128420957Y-46702677D01*
X128298056Y-46631719D01*
X128298045Y-46631714D01*
X128079993Y-46541394D01*
X127852010Y-46480306D01*
X127618020Y-46449501D01*
X127618017Y-46449500D01*
X127618011Y-46449500D01*
X127381989Y-46449500D01*
X127381983Y-46449500D01*
X127381979Y-46449501D01*
X127147989Y-46480306D01*
X126920006Y-46541394D01*
X126701954Y-46631714D01*
X126701943Y-46631719D01*
X126497545Y-46749730D01*
X126310302Y-46893406D01*
X126310295Y-46893412D01*
X126143412Y-47060295D01*
X126143406Y-47060302D01*
X125999730Y-47247545D01*
X125881719Y-47451943D01*
X125881714Y-47451954D01*
X125791394Y-47670006D01*
X125730306Y-47897989D01*
X125699501Y-48131979D01*
X125699500Y-48131995D01*
X106800500Y-48131995D01*
X106800500Y-48131989D01*
X106769693Y-47897986D01*
X106708606Y-47670007D01*
X106618284Y-47451951D01*
X106618282Y-47451948D01*
X106618280Y-47451943D01*
X106538191Y-47313226D01*
X106500273Y-47247550D01*
X106356592Y-47060301D01*
X106356587Y-47060295D01*
X106189704Y-46893412D01*
X106189697Y-46893406D01*
X106002454Y-46749730D01*
X106002453Y-46749729D01*
X106002450Y-46749727D01*
X105920957Y-46702677D01*
X105798056Y-46631719D01*
X105798045Y-46631714D01*
X105579993Y-46541394D01*
X105352010Y-46480306D01*
X105118020Y-46449501D01*
X105118017Y-46449500D01*
X105118011Y-46449500D01*
X104881989Y-46449500D01*
X104881983Y-46449500D01*
X104881979Y-46449501D01*
X104647989Y-46480306D01*
X104420006Y-46541394D01*
X104201954Y-46631714D01*
X104201943Y-46631719D01*
X103997545Y-46749730D01*
X103810302Y-46893406D01*
X103810295Y-46893412D01*
X103643412Y-47060295D01*
X103643406Y-47060302D01*
X103499730Y-47247545D01*
X103381719Y-47451943D01*
X103381714Y-47451954D01*
X103291394Y-47670006D01*
X103230306Y-47897989D01*
X103199501Y-48131979D01*
X103199500Y-48131995D01*
X75993321Y-48131995D01*
X75966404Y-47927537D01*
X75908710Y-47712219D01*
X75823405Y-47506274D01*
X75711948Y-47313226D01*
X75661553Y-47247550D01*
X75576248Y-47136377D01*
X75576242Y-47136370D01*
X75418629Y-46978757D01*
X75418622Y-46978751D01*
X75241782Y-46843058D01*
X75241780Y-46843057D01*
X75241774Y-46843052D01*
X75048726Y-46731595D01*
X75048722Y-46731593D01*
X74842790Y-46646293D01*
X74842783Y-46646291D01*
X74842781Y-46646290D01*
X74627463Y-46588596D01*
X74627457Y-46588595D01*
X74627452Y-46588594D01*
X74406466Y-46559501D01*
X74406463Y-46559500D01*
X74406457Y-46559500D01*
X74183543Y-46559500D01*
X74183537Y-46559500D01*
X74183533Y-46559501D01*
X73962547Y-46588594D01*
X73962540Y-46588595D01*
X73962537Y-46588596D01*
X73801618Y-46631714D01*
X73747219Y-46646290D01*
X73747209Y-46646293D01*
X73541277Y-46731593D01*
X73541273Y-46731595D01*
X73348226Y-46843052D01*
X73348217Y-46843058D01*
X73171377Y-46978751D01*
X73171370Y-46978757D01*
X73167181Y-46982947D01*
X73105858Y-47016432D01*
X73036166Y-47011448D01*
X72980233Y-46969576D01*
X72955816Y-46904112D01*
X72955500Y-46895266D01*
X72955500Y-44841548D01*
X72975185Y-44774509D01*
X73004014Y-44743172D01*
X73075133Y-44688600D01*
X73076851Y-44687282D01*
X73076859Y-44687274D01*
X73211169Y-44552965D01*
X73262274Y-44501860D01*
X73262277Y-44501855D01*
X73262282Y-44501851D01*
X73421924Y-44293803D01*
X73553043Y-44066697D01*
X73653398Y-43824419D01*
X73721270Y-43571116D01*
X73755500Y-43311120D01*
X73755500Y-43055466D01*
X76840000Y-43055466D01*
X76840000Y-43304533D01*
X76872508Y-43551463D01*
X76936973Y-43792049D01*
X77032283Y-44022148D01*
X77032288Y-44022159D01*
X77156813Y-44237841D01*
X77156819Y-44237849D01*
X77231400Y-44335045D01*
X78024152Y-43542292D01*
X78031049Y-43558942D01*
X78118599Y-43689970D01*
X78230030Y-43801401D01*
X78361058Y-43888951D01*
X78377705Y-43895846D01*
X77584953Y-44688598D01*
X77682150Y-44763180D01*
X77682158Y-44763186D01*
X77897840Y-44887711D01*
X77897851Y-44887716D01*
X78127950Y-44983026D01*
X78368536Y-45047491D01*
X78615466Y-45080000D01*
X78864534Y-45080000D01*
X79111463Y-45047491D01*
X79352049Y-44983026D01*
X79582148Y-44887716D01*
X79582159Y-44887711D01*
X79797855Y-44763178D01*
X79895045Y-44688600D01*
X79895045Y-44688597D01*
X79102294Y-43895846D01*
X79118942Y-43888951D01*
X79249970Y-43801401D01*
X79361401Y-43689970D01*
X79448951Y-43558942D01*
X79455846Y-43542294D01*
X80248597Y-44335045D01*
X80248600Y-44335045D01*
X80323178Y-44237855D01*
X80447711Y-44022159D01*
X80447716Y-44022148D01*
X80543026Y-43792049D01*
X80607491Y-43551463D01*
X80640000Y-43304533D01*
X80640000Y-43055467D01*
X80639999Y-43055465D01*
X80639131Y-43048872D01*
X152939500Y-43048872D01*
X152939500Y-43311127D01*
X152952959Y-43413351D01*
X152973730Y-43571116D01*
X153041602Y-43824418D01*
X153041605Y-43824428D01*
X153141953Y-44066690D01*
X153141958Y-44066700D01*
X153273075Y-44293803D01*
X153432718Y-44501851D01*
X153432726Y-44501860D01*
X153618140Y-44687274D01*
X153618148Y-44687281D01*
X153618149Y-44687282D01*
X153619863Y-44688597D01*
X153826196Y-44846924D01*
X154053299Y-44978041D01*
X154053309Y-44978046D01*
X154295571Y-45078394D01*
X154295581Y-45078398D01*
X154548884Y-45146270D01*
X154808880Y-45180500D01*
X154808887Y-45180500D01*
X155071113Y-45180500D01*
X155071120Y-45180500D01*
X155331116Y-45146270D01*
X155584419Y-45078398D01*
X155826697Y-44978043D01*
X156053803Y-44846924D01*
X156261851Y-44687282D01*
X156261855Y-44687277D01*
X156261860Y-44687274D01*
X156447274Y-44501860D01*
X156447277Y-44501855D01*
X156447282Y-44501851D01*
X156606924Y-44293803D01*
X156738043Y-44066697D01*
X156838398Y-43824419D01*
X156906270Y-43571116D01*
X156940500Y-43311120D01*
X156940500Y-43055466D01*
X161295000Y-43055466D01*
X161295000Y-43304533D01*
X161327508Y-43551463D01*
X161391973Y-43792049D01*
X161487283Y-44022148D01*
X161487288Y-44022159D01*
X161611813Y-44237841D01*
X161611819Y-44237849D01*
X161686400Y-44335045D01*
X162479152Y-43542292D01*
X162486049Y-43558942D01*
X162573599Y-43689970D01*
X162685030Y-43801401D01*
X162816058Y-43888951D01*
X162832705Y-43895846D01*
X162039953Y-44688598D01*
X162137150Y-44763180D01*
X162137158Y-44763186D01*
X162352840Y-44887711D01*
X162352851Y-44887716D01*
X162582950Y-44983026D01*
X162823536Y-45047491D01*
X163070466Y-45080000D01*
X163319534Y-45080000D01*
X163566463Y-45047491D01*
X163807049Y-44983026D01*
X164037148Y-44887716D01*
X164037159Y-44887711D01*
X164252855Y-44763178D01*
X164350045Y-44688600D01*
X164350045Y-44688597D01*
X163557294Y-43895846D01*
X163573942Y-43888951D01*
X163704970Y-43801401D01*
X163816401Y-43689970D01*
X163903951Y-43558942D01*
X163910846Y-43542294D01*
X164703597Y-44335045D01*
X164703600Y-44335045D01*
X164778178Y-44237855D01*
X164902711Y-44022159D01*
X164902716Y-44022148D01*
X164998026Y-43792049D01*
X165062491Y-43551463D01*
X165095000Y-43304533D01*
X165095000Y-43055466D01*
X165062491Y-42808536D01*
X164998026Y-42567950D01*
X164902716Y-42337851D01*
X164902711Y-42337840D01*
X164778186Y-42122158D01*
X164778180Y-42122150D01*
X164703598Y-42024953D01*
X163910846Y-42817705D01*
X163903951Y-42801058D01*
X163816401Y-42670030D01*
X163704970Y-42558599D01*
X163573942Y-42471049D01*
X163557292Y-42464152D01*
X164298152Y-41723293D01*
X172729500Y-41723293D01*
X172729500Y-42096707D01*
X172732006Y-42122150D01*
X172766099Y-42468311D01*
X172766101Y-42468324D01*
X172838950Y-42834556D01*
X172947347Y-43191895D01*
X173090243Y-43536876D01*
X173090250Y-43536890D01*
X173266264Y-43866192D01*
X173266275Y-43866210D01*
X173473732Y-44176690D01*
X173710623Y-44465343D01*
X173974656Y-44729376D01*
X173974661Y-44729380D01*
X173974662Y-44729381D01*
X173996581Y-44747369D01*
X174263309Y-44966267D01*
X174263315Y-44966271D01*
X174573796Y-45173729D01*
X174903117Y-45349754D01*
X175248106Y-45492653D01*
X175605440Y-45601049D01*
X175971678Y-45673899D01*
X176343293Y-45710500D01*
X176343296Y-45710500D01*
X176716704Y-45710500D01*
X176716707Y-45710500D01*
X177088322Y-45673899D01*
X177454560Y-45601049D01*
X177811894Y-45492653D01*
X178156883Y-45349754D01*
X178486204Y-45173729D01*
X178796685Y-44966271D01*
X179085338Y-44729381D01*
X179349381Y-44465338D01*
X179586271Y-44176685D01*
X179793729Y-43866204D01*
X179969754Y-43536883D01*
X180112653Y-43191894D01*
X180221049Y-42834560D01*
X180293899Y-42468322D01*
X180330500Y-42096707D01*
X180330500Y-41723293D01*
X180293899Y-41351678D01*
X180221049Y-40985440D01*
X180112653Y-40628106D01*
X179969754Y-40283117D01*
X179793729Y-39953796D01*
X179586271Y-39643315D01*
X179586267Y-39643309D01*
X179349376Y-39354656D01*
X179085343Y-39090623D01*
X178796690Y-38853732D01*
X178486210Y-38646275D01*
X178486209Y-38646274D01*
X178486204Y-38646271D01*
X178486199Y-38646268D01*
X178486192Y-38646264D01*
X178156890Y-38470250D01*
X178156883Y-38470246D01*
X178011731Y-38410122D01*
X177811895Y-38327347D01*
X177602119Y-38263712D01*
X177454560Y-38218951D01*
X177454557Y-38218950D01*
X177454556Y-38218950D01*
X177088324Y-38146101D01*
X177088311Y-38146099D01*
X176807293Y-38118422D01*
X176716707Y-38109500D01*
X176343293Y-38109500D01*
X176259514Y-38117751D01*
X175971688Y-38146099D01*
X175971675Y-38146101D01*
X175605443Y-38218950D01*
X175248104Y-38327347D01*
X174903123Y-38470243D01*
X174903109Y-38470250D01*
X174573807Y-38646264D01*
X174573789Y-38646275D01*
X174263309Y-38853732D01*
X173974656Y-39090623D01*
X173710623Y-39354656D01*
X173473732Y-39643309D01*
X173266275Y-39953789D01*
X173266264Y-39953807D01*
X173090250Y-40283109D01*
X173090243Y-40283123D01*
X172947347Y-40628104D01*
X172838950Y-40985443D01*
X172766101Y-41351675D01*
X172766099Y-41351688D01*
X172741956Y-41596823D01*
X172729500Y-41723293D01*
X164298152Y-41723293D01*
X164350045Y-41671400D01*
X164252849Y-41596819D01*
X164252841Y-41596813D01*
X164037159Y-41472288D01*
X164037148Y-41472283D01*
X163807049Y-41376973D01*
X163566463Y-41312508D01*
X163319534Y-41280000D01*
X163070466Y-41280000D01*
X162823536Y-41312508D01*
X162582950Y-41376973D01*
X162352851Y-41472283D01*
X162352847Y-41472285D01*
X162137143Y-41596823D01*
X162039953Y-41671399D01*
X162039953Y-41671400D01*
X162832706Y-42464153D01*
X162816058Y-42471049D01*
X162685030Y-42558599D01*
X162573599Y-42670030D01*
X162486049Y-42801058D01*
X162479153Y-42817706D01*
X161686400Y-42024953D01*
X161686399Y-42024953D01*
X161611823Y-42122143D01*
X161487285Y-42337847D01*
X161487283Y-42337851D01*
X161391973Y-42567950D01*
X161327508Y-42808536D01*
X161295000Y-43055466D01*
X156940500Y-43055466D01*
X156940500Y-43048880D01*
X156906270Y-42788884D01*
X156838398Y-42535581D01*
X156810539Y-42468324D01*
X156738046Y-42293309D01*
X156738041Y-42293299D01*
X156606924Y-42066196D01*
X156447281Y-41858148D01*
X156447274Y-41858140D01*
X156261860Y-41672726D01*
X156261851Y-41672718D01*
X156053803Y-41513075D01*
X155826700Y-41381958D01*
X155826690Y-41381953D01*
X155584428Y-41281605D01*
X155584421Y-41281603D01*
X155584419Y-41281602D01*
X155331116Y-41213730D01*
X155273339Y-41206123D01*
X155071127Y-41179500D01*
X155071120Y-41179500D01*
X154808880Y-41179500D01*
X154808872Y-41179500D01*
X154577772Y-41209926D01*
X154548884Y-41213730D01*
X154301560Y-41280000D01*
X154295581Y-41281602D01*
X154295571Y-41281605D01*
X154053309Y-41381953D01*
X154053299Y-41381958D01*
X153826196Y-41513075D01*
X153618148Y-41672718D01*
X153432718Y-41858148D01*
X153273075Y-42066196D01*
X153141958Y-42293299D01*
X153141953Y-42293309D01*
X153041605Y-42535571D01*
X153041602Y-42535581D01*
X152973730Y-42788885D01*
X152939500Y-43048872D01*
X80639131Y-43048872D01*
X80607491Y-42808536D01*
X80543026Y-42567950D01*
X80447716Y-42337851D01*
X80447711Y-42337840D01*
X80323186Y-42122158D01*
X80323180Y-42122150D01*
X80248598Y-42024953D01*
X79455846Y-42817705D01*
X79448951Y-42801058D01*
X79361401Y-42670030D01*
X79249970Y-42558599D01*
X79118942Y-42471049D01*
X79102292Y-42464152D01*
X79895045Y-41671400D01*
X79797849Y-41596819D01*
X79797841Y-41596813D01*
X79582159Y-41472288D01*
X79582148Y-41472283D01*
X79352049Y-41376973D01*
X79111463Y-41312508D01*
X78864534Y-41280000D01*
X78615466Y-41280000D01*
X78368536Y-41312508D01*
X78127950Y-41376973D01*
X77897851Y-41472283D01*
X77897847Y-41472285D01*
X77682143Y-41596823D01*
X77584953Y-41671399D01*
X77584953Y-41671400D01*
X78377706Y-42464153D01*
X78361058Y-42471049D01*
X78230030Y-42558599D01*
X78118599Y-42670030D01*
X78031049Y-42801058D01*
X78024153Y-42817706D01*
X77231400Y-42024953D01*
X77231399Y-42024953D01*
X77156823Y-42122143D01*
X77032285Y-42337847D01*
X77032283Y-42337851D01*
X76936973Y-42567950D01*
X76872508Y-42808536D01*
X76840000Y-43055466D01*
X73755500Y-43055466D01*
X73755500Y-43048880D01*
X73721270Y-42788884D01*
X73653398Y-42535581D01*
X73625539Y-42468324D01*
X73553046Y-42293309D01*
X73553041Y-42293299D01*
X73421924Y-42066196D01*
X73262281Y-41858148D01*
X73262274Y-41858140D01*
X73076860Y-41672726D01*
X73076851Y-41672718D01*
X72868803Y-41513075D01*
X72641700Y-41381958D01*
X72641690Y-41381953D01*
X72399428Y-41281605D01*
X72399421Y-41281603D01*
X72399419Y-41281602D01*
X72146116Y-41213730D01*
X72088339Y-41206123D01*
X71886127Y-41179500D01*
X71886120Y-41179500D01*
X71623880Y-41179500D01*
X71623872Y-41179500D01*
X71392772Y-41209926D01*
X71363884Y-41213730D01*
X71116560Y-41280000D01*
X71110581Y-41281602D01*
X71110571Y-41281605D01*
X70868309Y-41381953D01*
X70868299Y-41381958D01*
X70641196Y-41513075D01*
X70433148Y-41672718D01*
X70247718Y-41858148D01*
X70088075Y-42066196D01*
X69956958Y-42293299D01*
X69956953Y-42293309D01*
X69856605Y-42535571D01*
X69856602Y-42535581D01*
X69788730Y-42788885D01*
X69754500Y-43048872D01*
X66770499Y-43048872D01*
X66736270Y-42788884D01*
X66668398Y-42535581D01*
X66640539Y-42468324D01*
X66568046Y-42293309D01*
X66568041Y-42293299D01*
X66436924Y-42066196D01*
X66277281Y-41858148D01*
X66277274Y-41858140D01*
X66091860Y-41672726D01*
X66091851Y-41672718D01*
X65883803Y-41513075D01*
X65656700Y-41381958D01*
X65656690Y-41381953D01*
X65414428Y-41281605D01*
X65414421Y-41281603D01*
X65414419Y-41281602D01*
X65161116Y-41213730D01*
X65103339Y-41206123D01*
X64901127Y-41179500D01*
X64901120Y-41179500D01*
X64638880Y-41179500D01*
X64638872Y-41179500D01*
X64407772Y-41209926D01*
X64378884Y-41213730D01*
X64131560Y-41280000D01*
X64125581Y-41281602D01*
X64125571Y-41281605D01*
X63883309Y-41381953D01*
X63883299Y-41381958D01*
X63656196Y-41513075D01*
X63448148Y-41672718D01*
X63262718Y-41858148D01*
X63103075Y-42066196D01*
X62971958Y-42293299D01*
X62971953Y-42293309D01*
X62871605Y-42535571D01*
X62871602Y-42535581D01*
X62803730Y-42788885D01*
X62769500Y-43048872D01*
X60675423Y-43048872D01*
X60705955Y-42895378D01*
X60742556Y-42523763D01*
X60742556Y-42150349D01*
X60705955Y-41778734D01*
X60633105Y-41412496D01*
X60524709Y-41055162D01*
X60381810Y-40710173D01*
X60205785Y-40380852D01*
X59998327Y-40070371D01*
X59998323Y-40070365D01*
X59761432Y-39781712D01*
X59497399Y-39517679D01*
X59208746Y-39280788D01*
X58898266Y-39073331D01*
X58898265Y-39073330D01*
X58898260Y-39073327D01*
X58898255Y-39073324D01*
X58898248Y-39073320D01*
X58568946Y-38897306D01*
X58568939Y-38897302D01*
X58463752Y-38853732D01*
X58223951Y-38754403D01*
X57940515Y-38668424D01*
X57866616Y-38646007D01*
X57866613Y-38646006D01*
X57866612Y-38646006D01*
X57500380Y-38573157D01*
X57500367Y-38573155D01*
X57219349Y-38545478D01*
X57128763Y-38536556D01*
X56755349Y-38536556D01*
X56671570Y-38544807D01*
X56383744Y-38573155D01*
X56383731Y-38573157D01*
X56017499Y-38646006D01*
X55660160Y-38754403D01*
X55315179Y-38897299D01*
X55315165Y-38897306D01*
X54985863Y-39073320D01*
X54985845Y-39073331D01*
X54675365Y-39280788D01*
X54386712Y-39517679D01*
X54122679Y-39781712D01*
X53885788Y-40070365D01*
X53678331Y-40380845D01*
X53678320Y-40380863D01*
X53502306Y-40710165D01*
X53502299Y-40710179D01*
X53359403Y-41055160D01*
X53251006Y-41412499D01*
X53178157Y-41778731D01*
X53178155Y-41778744D01*
X53170335Y-41858148D01*
X53144334Y-42122150D01*
X53141556Y-42150352D01*
X51435000Y-42150352D01*
X51435000Y-38082984D01*
X51443644Y-38053544D01*
X51450167Y-38023559D01*
X51453922Y-38018541D01*
X51454685Y-38015945D01*
X51471312Y-37995309D01*
X51502233Y-37964388D01*
X51513417Y-37954480D01*
X51739230Y-37777567D01*
X51751526Y-37769080D01*
X51997016Y-37620676D01*
X52010249Y-37613731D01*
X52271841Y-37495998D01*
X52285812Y-37490699D01*
X52350271Y-37470613D01*
X52387157Y-37465000D01*
X180657843Y-37465000D01*
X180694727Y-37470613D01*
G37*
%TD.AperFunction*%
%TD*%
M02*
