#VRML V2.0 utf8
# 3D model generated by kicad-lcsc-manager
# Based on easyeda2kicad.py v1.0.1

Shape{
    appearance Appearance {
        material  Material {
            diffuseColor 1.0 1.0 1.0
            specularColor 0.5019607843137255 0.5019607843137255 0.5019607843137255
            ambientIntensity 1.0
            transparency 0.0
            shininess 0.5
        }
    }
    geometry IndexedFaceSet {
        ccw TRUE
        solid FALSE
        coord DEF co Coordinate {
            point [
                1.1024 0.6213 0.2346, 1.1024 0.6102 0.2598, 0.8661 0.6213 0.2346, 0.8661 0.6102 0.2598, 1.1024 0.6378 0.1557, 0.8661 0.6378 0.1557, 1.1024 0.6378 -0.7874, 0.8661 0.6378 -0.7874, 1.0677 0.6378 -0.9843, 0.9009 0.6378 -0.9843, 1.0677 0.7008 -0.9843, 0.9009 0.7008 -0.9843, 1.1024 0.7008 -0.7874, 0.8661 0.7008 -0.7874, 1.1024 0.7008 0.1557, 0.8661 0.7008 0.1557, 0.8661 0.6843 0.2346, 0.8661 0.6732 0.2598, 1.1024 0.6843 0.2346, 1.1024 0.6732 0.2598, 1.1024 0.6359 0.1826, 1.1024 0.6934 0.2091, 1.1024 0.6304 0.2091, 1.1024 0.6989 0.1826, 0.8661 0.6304 0.2091, 0.8661 0.6934 0.2091, 0.8661 0.6359 0.1826, 0.8661 0.6989 0.1826, 1.1024 -0.6732 0.2598, 1.1024 -0.6102 0.2598, 0.8661 -0.6732 0.2598, 0.8661 -0.6102 0.2598, 1.1024 -0.6843 0.2346, 0.8661 -0.6843 0.2346, 1.1024 -0.7008 0.1557, 0.8661 -0.7008 0.1557, 1.1024 -0.7008 -0.7874, 0.8661 -0.7008 -0.7874, 1.0677 -0.7008 -0.9843, 0.9009 -0.7008 -0.9843, 1.0677 -0.6378 -0.9843, 0.9009 -0.6378 -0.9843, 1.1024 -0.6378 -0.7874, 0.8661 -0.6378 -0.7874, 1.1024 -0.6378 0.1557, 0.8661 -0.6378 0.1557, 0.8661 -0.6213 0.2346, 1.1024 -0.6213 0.2346, 1.1024 -0.6989 0.1826, 1.1024 -0.6359 0.1826, 1.1024 -0.6934 0.2091, 1.1024 -0.6304 0.2091, 0.8661 -0.6359 0.1826, 0.8661 -0.6989 0.1826, 0.8661 -0.6934 0.2091, 0.8661 -0.6304 0.2091, 0.1181 0.6213 0.2346, 0.1181 0.6102 0.2598, -0.1181 0.6213 0.2346, -0.1181 0.6102 0.2598, 0.1181 0.6378 0.1557, -0.1181 0.6378 0.1557, 0.1181 0.6378 -0.7874, -0.1181 0.6378 -0.7874, 0.0834 0.6378 -0.9843, -0.0834 0.6378 -0.9843, 0.0834 0.7008 -0.9843, -0.0834 0.7008 -0.9843, 0.1181 0.7008 -0.7874, -0.1181 0.7008 -0.7874, 0.1181 0.7008 0.1557, -0.1181 0.7008 0.1557, -0.1181 0.6843 0.2346, -0.1181 0.6732 0.2598, 0.1181 0.6843 0.2346, 0.1181 0.6732 0.2598, 0.1181 0.6359 0.1826, 0.1181 0.6934 0.2091, 0.1181 0.6304 0.2091, 0.1181 0.6989 0.1826, -0.1181 0.6304 0.2091, -0.1181 0.6934 0.2091, -0.1181 0.6359 0.1826, -0.1181 0.6989 0.1826, 0.1181 -0.6732 0.2598, 0.1181 -0.6102 0.2598, -0.1181 -0.6732 0.2598, -0.1181 -0.6102 0.2598, 0.1181 -0.6843 0.2346, -0.1181 -0.6843 0.2346, 0.1181 -0.7008 0.1557, -0.1181 -0.7008 0.1557, 0.1181 -0.7008 -0.7874, -0.1181 -0.7008 -0.7874, 0.0834 -0.7008 -0.9843, -0.0834 -0.7008 -0.9843, 0.0834 -0.6378 -0.9843, -0.0834 -0.6378 -0.9843, -0.1181 -0.6378 0.1557, 0.1181 -0.6378 0.1557, -0.1181 -0.6378 -0.7874, 0.1181 -0.6378 -0.7874, -0.1181 -0.6213 0.2346, 0.1181 -0.6213 0.2346, 0.1181 -0.6989 0.1826, 0.1181 -0.6359 0.1826, 0.1181 -0.6934 0.2091, 0.1181 -0.6304 0.2091, -0.1181 -0.6359 0.1826, -0.1181 -0.6989 0.1826, -0.1181 -0.6934 0.2091, -0.1181 -0.6304 0.2091, -0.8661 0.6213 0.2346, -0.8661 0.6102 0.2598, -1.1024 0.6213 0.2346, -1.1024 0.6102 0.2598, -0.8661 0.6378 0.1557, -1.1024 0.6378 0.1557, -0.8661 0.6378 -0.7874, -1.1024 0.6378 -0.7874, -0.9009 0.6378 -0.9843, -1.0677 0.6378 -0.9843, -0.9009 0.7008 -0.9843, -1.0677 0.7008 -0.9843, -0.8661 0.7008 -0.7874, -1.1024 0.7008 -0.7874, -0.8661 0.7008 0.1557, -1.1024 0.7008 0.1557, -1.1024 0.6843 0.2346, -1.1024 0.6732 0.2598, -0.8661 0.6843 0.2346, -0.8661 0.6732 0.2598, -0.8661 0.6359 0.1826, -0.8661 0.6934 0.2091, -0.8661 0.6304 0.2091, -0.8661 0.6989 0.1826, -1.1024 0.6304 0.2091, -1.1024 0.6934 0.2091, -1.1024 0.6359 0.1826, -1.1024 0.6989 0.1826, -0.8661 -0.6732 0.2598, -0.8661 -0.6102 0.2598, -1.1024 -0.6732 0.2598, -1.1024 -0.6102 0.2598, -0.8661 -0.6843 0.2346, -1.1024 -0.6843 0.2346, -0.8661 -0.7008 0.1557, -1.1024 -0.7008 0.1557, -0.8661 -0.7008 -0.7874, -1.1024 -0.7008 -0.7874, -0.9009 -0.7008 -0.9843, -1.0677 -0.7008 -0.9843, -0.9009 -0.6378 -0.9843, -1.0677 -0.6378 -0.9843, -0.8661 -0.6378 -0.7874, -1.1024 -0.6378 -0.7874, -0.8661 -0.6378 0.1557, -1.1024 -0.6378 0.1557, -1.1024 -0.6213 0.2346, -0.8661 -0.6213 0.2346, -0.8661 -0.6989 0.1826, -0.8661 -0.6359 0.1826, -0.8661 -0.6934 0.2091, -0.8661 -0.6304 0.2091, -1.1024 -0.6359 0.1826, -1.1024 -0.6989 0.1826, -1.1024 -0.6934 0.2091, -1.1024 -0.6304 0.2091
            ]
        }
        coordIndex [
            0,1,2,-1,2,1,3,-1,4,5,6,-1,6,5,7,-1,6,7,8,-1,8,7,9,-1,8,9,10,-1,10,9,11,-1,10,11,12,-1,12,11,13,-1,12,13,14,-1,14,13,15,-1,16,17,18,-1,18,17,19,-1,1,19,3,-1,3,19,17,-1,20,21,22,-1,22,21,18,-1,22,18,0,-1,0,18,19,-1,0,19,1,-1,6,12,4,-1,4,12,14,-1,4,14,20,-1,20,14,23,-1,20,23,21,-1,2,3,17,-1,2,17,24,-1,17,16,24,-1,24,16,25,-1,24,25,26,-1,26,25,27,-1,26,27,5,-1,5,27,15,-1,5,15,7,-1,7,15,13,-1,5,4,26,-1,26,4,20,-1,26,20,24,-1,24,20,22,-1,24,22,2,-1,2,22,0,-1,14,15,27,-1,14,27,23,-1,23,27,25,-1,23,25,21,-1,21,25,16,-1,21,16,18,-1,10,12,8,-1,8,12,6,-1,13,11,7,-1,7,11,9,-1,28,29,30,-1,30,29,31,-1,32,28,33,-1,33,28,30,-1,34,35,36,-1,36,35,37,-1,36,37,38,-1,38,37,39,-1,38,39,40,-1,40,39,41,-1,40,41,42,-1,42,41,43,-1,42,43,44,-1,44,43,45,-1,46,31,47,-1,47,31,29,-1,36,42,34,-1,34,42,44,-1,34,44,48,-1,48,44,49,-1,48,49,50,-1,50,49,51,-1,50,51,32,-1,32,51,28,-1,28,51,47,-1,28,47,29,-1,43,37,45,-1,45,37,35,-1,45,35,52,-1,35,53,52,-1,52,53,54,-1,52,54,55,-1,55,54,33,-1,55,33,46,-1,46,33,30,-1,46,30,31,-1,46,47,55,-1,55,47,51,-1,55,51,52,-1,52,51,49,-1,52,49,45,-1,45,49,44,-1,32,33,54,-1,32,54,50,-1,50,54,53,-1,50,53,48,-1,48,53,35,-1,48,35,34,-1,40,42,38,-1,38,42,36,-1,43,41,37,-1,37,41,39,-1,56,57,58,-1,58,57,59,-1,60,61,62,-1,62,61,63,-1,62,63,64,-1,64,63,65,-1,64,65,66,-1,66,65,67,-1,66,67,68,-1,68,67,69,-1,68,69,70,-1,70,69,71,-1,72,73,74,-1,74,73,75,-1,57,75,59,-1,59,75,73,-1,76,77,78,-1,78,77,74,-1,78,74,56,-1,56,74,75,-1,56,75,57,-1,62,68,60,-1,60,68,70,-1,60,70,76,-1,76,70,79,-1,76,79,77,-1,58,59,73,-1,58,73,80,-1,73,72,80,-1,80,72,81,-1,80,81,82,-1,82,81,83,-1,82,83,61,-1,61,83,71,-1,61,71,63,-1,63,71,69,-1,61,60,82,-1,82,60,76,-1,82,76,80,-1,80,76,78,-1,80,78,58,-1,58,78,56,-1,70,71,83,-1,70,83,79,-1,79,83,81,-1,79,81,77,-1,77,81,72,-1,77,72,74,-1,66,68,64,-1,64,68,62,-1,69,67,63,-1,63,67,65,-1,84,85,86,-1,86,85,87,-1,88,84,89,-1,89,84,86,-1,90,91,92,-1,92,91,93,-1,92,93,94,-1,94,93,95,-1,94,95,96,-1,96,95,97,-1,98,99,100,-1,100,99,101,-1,100,101,97,-1,97,101,96,-1,102,87,103,-1,103,87,85,-1,92,101,90,-1,90,101,99,-1,90,99,104,-1,104,99,105,-1,104,105,106,-1,106,105,107,-1,106,107,88,-1,88,107,84,-1,84,107,103,-1,84,103,85,-1,100,93,98,-1,98,93,91,-1,98,91,108,-1,91,109,108,-1,108,109,110,-1,108,110,111,-1,111,110,89,-1,111,89,102,-1,102,89,86,-1,102,86,87,-1,102,103,111,-1,111,103,107,-1,111,107,108,-1,108,107,105,-1,108,105,98,-1,98,105,99,-1,88,89,110,-1,88,110,106,-1,106,110,109,-1,106,109,104,-1,104,109,91,-1,104,91,90,-1,100,97,93,-1,93,97,95,-1,96,101,94,-1,94,101,92,-1,112,113,114,-1,114,113,115,-1,116,117,118,-1,118,117,119,-1,118,119,120,-1,120,119,121,-1,120,121,122,-1,122,121,123,-1,122,123,124,-1,124,123,125,-1,124,125,126,-1,126,125,127,-1,128,129,130,-1,130,129,131,-1,113,131,115,-1,115,131,129,-1,132,133,134,-1,134,133,130,-1,134,130,112,-1,112,130,131,-1,112,131,113,-1,118,124,116,-1,116,124,126,-1,116,126,132,-1,132,126,135,-1,132,135,133,-1,114,115,129,-1,114,129,136,-1,129,128,136,-1,136,128,137,-1,136,137,138,-1,138,137,139,-1,138,139,117,-1,117,139,127,-1,117,127,119,-1,119,127,125,-1,117,116,138,-1,138,116,132,-1,138,132,136,-1,136,132,134,-1,136,134,114,-1,114,134,112,-1,126,127,139,-1,126,139,135,-1,135,139,137,-1,135,137,133,-1,133,137,128,-1,133,128,130,-1,122,124,120,-1,120,124,118,-1,125,123,119,-1,119,123,121,-1,140,141,142,-1,142,141,143,-1,144,140,145,-1,145,140,142,-1,146,147,148,-1,148,147,149,-1,148,149,150,-1,150,149,151,-1,150,151,152,-1,152,151,153,-1,152,153,154,-1,154,153,155,-1,154,155,156,-1,156,155,157,-1,158,143,159,-1,159,143,141,-1,148,154,146,-1,146,154,156,-1,146,156,160,-1,160,156,161,-1,160,161,162,-1,162,161,163,-1,162,163,144,-1,144,163,140,-1,140,163,159,-1,140,159,141,-1,155,149,157,-1,157,149,147,-1,157,147,164,-1,147,165,164,-1,164,165,166,-1,164,166,167,-1,167,166,145,-1,167,145,158,-1,158,145,142,-1,158,142,143,-1,158,159,167,-1,167,159,163,-1,167,163,164,-1,164,163,161,-1,164,161,157,-1,157,161,156,-1,144,145,166,-1,144,166,162,-1,162,166,165,-1,162,165,160,-1,160,165,147,-1,160,147,146,-1,155,153,149,-1,149,153,151,-1,152,154,150,-1,150,154,148,-1,
        ]
    }
}
Shape{
    appearance Appearance {
        material  Material {
            diffuseColor 0.25098039215686274 0.25098039215686274 0.25098039215686274
            specularColor 0.12549019607843137 0.12549019607843137 0.12549019607843137
            ambientIntensity 0.251
            transparency 0.0
            shininess 0.5
        }
    }
    geometry IndexedFaceSet {
        ccw TRUE
        solid FALSE
        coord DEF co Coordinate {
            point [
                0.9297 0.3451 -0.0551, 0.9297 0.4186 -0.0551, 1.0084 0.4186 -0.0551, 1.3583 0.4921 -0.0551, 1.3583 0.4186 -0.0551, 1.2008 0.4186 -0.0551, 1.2008 0.1613 -0.0551, 1.2008 0.6102 -0.0551, 1.5157 0.4921 -0.0551, 1.5748 0.6102 -0.0551, 1.5157 0.4186 -0.0551, 1.5748 0.4186 -0.0551, 1.5157 0.2953 -0.0551, 1.5748 0.1613 -0.0551, 1.3583 0.2953 -0.0551, 1.3583 -0.3998 -0.0551, 1.3583 -0.4921 -0.0551, 1.2008 -0.6102 -0.0551, 1.5748 -0.6102 -0.0551, 1.5157 -0.4921 -0.0551, 1.5748 -0.3998 -0.0551, 1.5157 -0.3998 -0.0551, 1.5748 -0.2423 -0.0551, 1.2008 -0.3998 -0.0551, 1.3583 -0.2953 -0.0551, 1.2008 -0.2423 -0.0551, 1.5157 -0.2953 -0.0551, -1.2008 -0.2423 -0.0551, -1.2008 -0.3998 -0.0551, -1.3583 -0.3998 -0.0551, -1.3583 -0.4921 -0.0551, -1.2008 -0.6102 -0.0551, -1.5157 -0.4921 -0.0551, -1.6339 -0.6102 -0.0551, -1.5157 -0.3998 -0.0551, -1.6339 -0.3998 -0.0551, -1.5157 -0.2953 -0.0551, -1.6339 -0.2423 -0.0551, -1.3583 -0.2953 -0.0551, -1.3583 0.4186 -0.0551, -1.2008 0.4186 -0.0551, -1.3583 0.2953 -0.0551, -1.2008 0.1613 -0.0551, -1.5157 0.2953 -0.0551, -1.2008 0.6102 -0.0551, -1.3583 0.4921 -0.0551, -1.6339 0.6102 -0.0551, -1.5157 0.4921 -0.0551, -1.6339 0.4186 -0.0551, -1.5157 0.4186 -0.0551, -1.6339 0.1613 -0.0551, 1.0084 0.227 -0.0551, 1.0433 0.227 -0.0551, 0.8965 0.4186 -0.0551, 0.9252 0.3451 -0.0551, 0.9252 0.227 -0.0551, 0.8965 0.1613 -0.0551, 0.9297 0.1613 -0.0551, 1.0433 0.3451 -0.0551, 1.0084 0.3451 -0.0551, -0.4921 -0.3998 -0.0551, -0.9252 -0.3075 -0.0551, -1.0433 -0.3075 -0.0551, -0.4921 -0.2423 -0.0551, -0.9252 -0.2423 -0.0551, -0.4921 0.0154 -0.0551, -1.0433 -0.2423 -0.0551, -1.0433 -0.1894 -0.0551, -1.2008 0.0154 -0.0551, -0.9252 -0.1894 -0.0551, 0.9297 -0.3075 -0.0551, 1.0084 -0.3075 -0.0551, 0.9297 -0.3998 -0.0551, 1.0084 -0.3998 -0.0551, 1.0433 -0.1894 -0.0551, 1.0084 -0.1894 -0.0551, 1.0084 0.0154 -0.0551, 0.9297 -0.1894 -0.0551, 1.0433 -0.3075 -0.0551, 1.0433 -0.2423 -0.0551, 1.2008 0.0154 -0.0551, 0.0591 -0.3075 -0.0551, 0.3568 -0.3998 -0.0551, -0.0591 -0.3075 -0.0551, -0.0591 -0.2423 -0.0551, -0.0591 -0.1894 -0.0551, 0.0591 -0.1894 -0.0551, 0.8524 0.0947 -0.0551, 0.8678 0.0287 -0.0551, 0.8524 0.0159 -0.0551, 0.8678 0.02 -0.0551, 0.8121 0.0947 -0.0551, 0.8025 0.1613 -0.0551, 0.8121 0.086 -0.0551, 0.8102 0.0246 -0.0551, 0.8953 0.0244 -0.0551, 0.888 0.0236 -0.0551, 0.8965 0.0852 -0.0551, 0.8102 0.0159 -0.0551, 0.8025 0.0154 -0.0551, 0.8762 0.0166 -0.0551, 0.8841 0.0154 -0.0551, 0.8775 0.0248 -0.0551, 0.8692 0.0279 -0.0551, 0.894 0.0861 -0.0551, 0.8769 0.095 -0.0551, 0.8863 0.0956 -0.0551, 0.8942 0.095 -0.0551, 0.8419 0.0515 -0.0551, 0.8419 0.0246 -0.0551, 0.814 0.0515 -0.0551, 0.814 0.0601 -0.0551, 0.8419 0.0601 -0.0551, 0.8419 0.086 -0.0551, 0.8678 0.0925 -0.0551, 0.8678 0.0819 -0.0551, 0.8767 0.0857 -0.0551, 0.8862 0.087 -0.0551, 0.8999 0.084 -0.0551, 0.9154 0.0606 -0.0551, 0.9158 0.0545 -0.0551, 0.915 0.0459 -0.0551, 0.9059 0.0298 -0.0551, 0.9011 0.0265 -0.0551, 0.8965 0.0249 -0.0551, 0.9053 0.0803 -0.0551, 0.9101 0.0751 -0.0551, 0.9133 0.069 -0.0551, 0.9129 0.0392 -0.0551, 0.9096 0.0337 -0.0551, 0.9222 0.0739 -0.0551, 0.9176 0.0813 -0.0551, 0.9131 0.0226 -0.0551, 0.919 0.0289 -0.0551, 0.9297 0.0154 -0.0551, 0.9232 0.0364 -0.0551, 0.8965 0.0154 -0.0551, 0.8992 0.016 -0.0551, 0.9068 0.0186 -0.0551, 0.9105 0.0881 -0.0551, 0.903 0.0924 -0.0551, 0.8965 0.0943 -0.0551, 0.9256 0.0447 -0.0551, 0.9264 0.0538 -0.0551, 0.9252 0.065 -0.0551, 0.8873 0.015 -0.0551, 0.8895 0.015 -0.0551, 0.8965 -0.2423 -0.0551, 0.8941 0.0154 -0.0551, 0.8965 0.0157 -0.0551, 0.7286 0.6102 -0.0551, 0.3568 0.4186 -0.0551, 0.3568 0.6102 -0.0551, -0.4921 0.4186 -0.0551, -0.4921 0.6102 -0.0551, 1.0084 0.6102 -0.0551, 0.9297 0.6102 -0.0551, 0.8965 0.6102 -0.0551, -1.0433 0.227 -0.0551, -1.0433 0.3451 -0.0551, -0.9252 0.3451 -0.0551, -0.9252 0.227 -0.0551, -0.0591 0.227 -0.0551, 0.0591 0.227 -0.0551, 0.3568 0.1613 -0.0551, 0.7286 0.4186 -0.0551, 0.8025 0.6102 -0.0551, 0.0591 0.3451 -0.0551, -0.0591 0.3451 -0.0551, -0.4921 0.1613 -0.0551, 0.3568 0.0154 -0.0551, 0.7141 0.0159 -0.0551, 0.7257 0.0159 -0.0551, 0.7286 0.0154 -0.0551, 0.6661 0.0159 -0.0551, 0.6741 0.038 -0.0551, 0.7066 0.038 -0.0551, 0.7286 0.1613 -0.0551, 0.6959 0.0947 -0.0551, 0.6853 0.0947 -0.0551, 0.6546 0.0159 -0.0551, 0.8025 0.4186 -0.0551, 0.7354 0.0375 -0.0551, 0.7399 0.0305 -0.0551, 0.7464 0.0243 -0.0551, 0.7546 0.0195 -0.0551, 0.7948 0.0947 -0.0551, 0.7726 0.0947 -0.0551, 0.7612 0.0935 -0.0551, 0.752 0.0902 -0.0551, 0.7434 0.0845 -0.0551, 0.7433 0.0844 -0.0551, 0.7378 0.0782 -0.0551, 0.7341 0.0715 -0.0551, 0.7637 0.0168 -0.0551, 0.7734 0.0159 -0.0551, 0.7948 0.0159 -0.0551, 0.732 0.0637 -0.0551, 0.7314 0.0563 -0.0551, 0.7325 0.0458 -0.0551, 0.9331 0.0246 -0.0551, 0.9331 0.0159 -0.0551, 0.9734 0.0159 -0.0551, 0.9629 0.0246 -0.0551, 0.9629 0.0947 -0.0551, 0.9734 0.0947 -0.0551, 1.0084 0.1613 -0.0551, 0.9252 -0.1894 -0.0551, 0.9252 -0.2423 -0.0551, 0.9252 -0.3075 -0.0551, 0.9297 0.227 -0.0551, -1.6339 0.0154 -0.0551, 0.8025 -0.2423 -0.0551, 0.7286 -0.2423 -0.0551, 0.3568 -0.2423 -0.0551, 0.0591 -0.2423 -0.0551, 1.5748 0.0154 -0.0551, 0.8965 -0.3998 -0.0551, 0.8025 -0.3998 -0.0551, 0.7286 -0.3998 -0.0551, 1.0084 -0.6102 -0.0551, 0.9297 -0.6102 -0.0551, 0.8965 -0.6102 -0.0551, 0.8025 -0.6102 -0.0551, 0.7286 -0.6102 -0.0551, 0.3568 -0.6102 -0.0551, -0.4921 -0.6102 -0.0551, 1.6339 0.6102 -0.0551, 1.6339 0.4186 -0.0551, 1.6339 0.1613 -0.0551, 1.6339 0.0154 -0.0551, 1.6339 -0.2423 -0.0551, 1.6339 -0.3998 -0.0551, 1.6339 -0.6102 -0.0551, 1.6732 0.6102 0.1811, 1.1024 0.6102 0.1811, 1.1024 0.689 0.1811, 1.685 -0.689 0.1811, 1.1024 -0.689 0.1811, 1.1024 -0.6102 0.1811, 1.6732 -0.6102 0.1811, 1.685 0.689 0.1811, -1.6732 -0.6102 0.1811, -1.1024 -0.6102 0.1811, -1.1024 -0.689 0.1811, -1.685 0.689 0.1811, -1.1024 0.689 0.1811, -1.1024 0.6102 0.1811, -1.6732 0.6102 0.1811, -1.685 -0.689 0.1811, -0.1181 0.689 0.1811, -0.1181 0.6102 0.1811, -0.8661 0.689 0.1811, -0.8661 0.6102 0.1811, 0.8661 0.689 0.1811, 0.8661 0.6102 0.1811, 0.1181 0.689 0.1811, 0.1181 0.6102 0.1811, 1.685 0.689 0.2402, 1.752 0.689 0.6929, 1.7323 0.689 0.2402, 1.752 0.689 0.1909, 1.7323 0.689 0.1909, -0.2559 0.689 0.7717, 1.2845 0.689 0.7717, 1.1024 0.689 0.2598, 1.7913 0.689 1.0079, 1.7913 0.689 0.6929, 1.7572 0.689 1.0669, 1.3189 0.689 1.1654, 0.8661 0.689 0.2598, 0.1181 0.689 0.2598, -1.5868 0.689 1.1654, -0.2559 0.689 1.1654, -0.1181 0.689 0.2598, 1.5868 0.689 1.1654, 1.6277 0.689 1.1611, 1.6668 0.689 1.1483, -0.8661 0.689 0.2598, -1.7913 0.689 0.6929, -1.7913 0.689 1.0079, -1.752 0.689 0.6929, -1.1024 0.689 0.2598, 1.7025 0.689 1.1278, 1.7331 0.689 1.1002, -1.7572 0.689 1.0669, -1.726 0.689 1.1077, -1.7323 0.689 0.1909, -1.752 0.689 0.1909, -1.7323 0.689 0.2402, -1.685 0.689 0.2402, -1.6852 0.689 1.139, -1.6377 0.689 1.1586, -0.8661 -0.6102 0.1811, -0.1181 -0.6102 0.1811, -0.8661 -0.689 0.1811, -0.1181 -0.689 0.1811, -1.7572 -0.2559 1.0669, -1.7913 -0.2559 1.0079, -1.7572 -0.689 1.0669, -1.7913 -0.689 1.0079, 1.7572 0.2559 1.0669, 1.7913 0.2559 1.0079, -0.2559 0.5315 1.1654, 0.6299 0.315 1.1654, 1.378 0.315 1.1654, 1.3189 0.5315 1.1654, 1.3189 -0.5315 1.1654, 1.3189 -0.689 1.1654, 1.5868 -0.689 1.1654, -0.6443 0.2756 1.1654, -0.6381 0.2837 1.1654, -0.0984 0.2953 1.1654, 0.6021 0.3034 1.1654, -0.6102 0.2953 1.1654, 0.6102 0.3097 1.1654, 0.6197 0.3136 1.1654, -0.6381 -0.2837 1.1654, -0.6443 -0.2756 1.1654, -1.5868 -0.689 1.1654, 0.6021 -0.3034 1.1654, 0.5958 -0.2953 1.1654, -0.2559 -0.5315 1.1654, -0.0984 -0.2953 1.1654, -0.6102 -0.2953 1.1654, -0.2559 -0.689 1.1654, -0.6299 -0.29 1.1654, -0.6483 0.2661 1.1654, -0.6299 0.29 1.1654, -0.6204 0.2939 1.1654, -0.0882 0.2939 1.1654, -0.0787 0.29 1.1654, -0.0706 0.2837 1.1654, -0.6204 -0.2939 1.1654, 0.6102 -0.3097 1.1654, 1.378 -0.315 1.1654, 0.6299 -0.315 1.1654, 0.6197 -0.3136 1.1654, 0.0224 0.1779 1.1654, 0.0302 0.1969 1.1654, -0.0591 0.2559 1.1654, 0.4134 0.2362 1.1654, 0.4338 0.2335 1.1654, 0.5958 0.2953 1.1654, 0.4691 -0.2132 1.1654, 0.4528 -0.2257 1.1654, 0.4338 -0.2335 1.1654, 0.4134 -0.2362 1.1654, 0.0984 -0.2362 1.1654, 0.078 -0.2335 1.1654, -0.0604 -0.2661 1.1654, -0.0643 -0.2756 1.1654, 0.0984 0.2362 1.1654, 0.4528 0.2257 1.1654, 0.4691 0.2132 1.1654, 0.5919 0.2858 1.1654, 0.5906 0.2756 1.1654, -0.6483 -0.2661 1.1654, -0.6496 -0.2559 1.1654, -0.6496 0.2559 1.1654, 0.4816 -0.1969 1.1654, 0.5919 -0.2858 1.1654, 0.4894 -0.1779 1.1654, 0.0427 0.2132 1.1654, 0.0591 0.2257 1.1654, 0.078 0.2335 1.1654, 0.4816 0.1969 1.1654, 0.4894 0.1779 1.1654, 0.5906 -0.2756 1.1654, 0.4921 0.1575 1.1654, 0.4921 -0.1575 1.1654, -0.0706 -0.2837 1.1654, -0.0787 -0.29 1.1654, -0.0882 -0.2939 1.1654, -0.0604 0.2661 1.1654, -0.0643 0.2756 1.1654, 0.0591 -0.2257 1.1654, 0.0427 -0.2132 1.1654, -0.0591 -0.2559 1.1654, 0.0302 -0.1969 1.1654, 0.0224 -0.1779 1.1654, 0.0197 -0.1575 1.1654, 0.0197 0.1575 1.1654, 1.6277 -0.689 1.1611, 1.7572 -0.689 1.0669, 1.7913 -0.689 1.0079, -0.1181 -0.689 0.2598, -0.2559 -0.689 0.7717, -0.8661 -0.689 0.2598, -1.7913 -0.689 0.6929, -1.752 -0.689 0.6929, -1.685 -0.689 0.2402, 0.1181 -0.689 0.1811, 0.8661 -0.689 0.1811, 0.1181 -0.689 0.2598, 0.8661 -0.689 0.2598, 1.6668 -0.689 1.1483, 1.7331 -0.689 1.1002, 1.7025 -0.689 1.1278, 1.685 -0.689 0.2402, 1.2845 -0.689 0.7717, 1.7323 -0.689 0.1909, 1.752 -0.689 0.1909, 1.7323 -0.689 0.2402, 1.752 -0.689 0.6929, -1.6377 -0.689 1.1586, -1.6852 -0.689 1.139, -1.726 -0.689 1.1077, -1.1024 -0.689 0.2598, -1.7323 -0.689 0.2402, -1.752 -0.689 0.1909, -1.7323 -0.689 0.1909, 1.1024 -0.689 0.2598, 1.7913 -0.689 0.6929, 1.7913 -0.2559 1.0079, 1.7913 -0.2559 0.6929, 1.7913 0.2559 0.6929, -1.7913 0.2559 1.0079, -1.7913 0.2559 0.6929, 0.1181 -0.6102 0.1811, 0.8661 -0.6102 0.1811, -1.7913 -0.2559 0.6929, 1.6732 0.6102 -0.0157, 1.6732 -0.6102 -0.0157, -0.8661 -0.6102 0.2598, -1.1024 -0.6102 0.2598, 1.1024 -0.6102 0.2598, 0.8661 -0.6102 0.2598, 1.668 -0.6102 -0.0354, 1.6719 -0.6102 -0.0259, 0.1181 -0.6102 0.2598, -0.1181 -0.6102 0.2598, -1.6535 -0.6102 -0.0498, -1.6719 -0.6102 -0.0259, -1.6617 -0.6102 -0.0436, -1.668 -0.6102 -0.0354, -1.6732 -0.6102 -0.0157, -1.644 -0.6102 -0.0538, 1.644 -0.6102 -0.0538, 1.6535 -0.6102 -0.0498, 1.6617 -0.6102 -0.0436, -1.6732 0.6102 -0.0157, -1.1024 0.6102 0.2598, -0.8661 0.6102 0.2598, -0.1181 0.6102 0.2598, 0.1181 0.6102 0.2598, 0.8661 0.6102 0.2598, 1.1024 0.6102 0.2598, -1.644 0.6102 -0.0538, -1.6719 0.6102 -0.0259, -1.6535 0.6102 -0.0498, -1.6617 0.6102 -0.0436, -1.668 0.6102 -0.0354, 1.6719 0.6102 -0.0259, 1.668 0.6102 -0.0354, 1.6617 0.6102 -0.0436, 1.6535 0.6102 -0.0498, 1.644 0.6102 -0.0538, -1.3583 0.2953 -0.1102, -1.3583 0.4921 -0.1102, -1.3604 0.2953 -0.1265, -1.4213 0.2953 -0.1732, -1.4528 0.2953 -0.1732, -1.5157 0.2953 -0.1102, -1.3898 0.2953 -0.1648, -1.3767 0.2953 -0.1548, -1.3667 0.2953 -0.1417, -1.405 0.2953 -0.1711, -1.5136 0.2953 -0.1265, -1.5073 0.2953 -0.1417, -1.4691 0.2953 -0.1711, -1.4973 0.2953 -0.1548, -1.4843 0.2953 -0.1648, -1.5157 0.4921 -0.1102, -1.5136 0.4921 -0.1265, -1.4528 0.4921 -0.1732, -1.4213 0.4921 -0.1732, -1.4843 0.4921 -0.1648, -1.4973 0.4921 -0.1548, -1.5073 0.4921 -0.1417, -1.3604 0.4921 -0.1265, -1.3667 0.4921 -0.1417, -1.405 0.4921 -0.1711, -1.3767 0.4921 -0.1548, -1.3898 0.4921 -0.1648, -1.4691 0.4921 -0.1711, -1.3583 -0.2953 -0.1102, -1.3583 -0.4921 -0.1102, -1.3604 -0.4921 -0.1265, -1.4213 -0.4921 -0.1732, -1.4528 -0.4921 -0.1732, -1.405 -0.4921 -0.1711, -1.3898 -0.4921 -0.1648, -1.3667 -0.4921 -0.1417, -1.3767 -0.4921 -0.1548, -1.4973 -0.4921 -0.1548, -1.4843 -0.4921 -0.1648, -1.5073 -0.4921 -0.1417, -1.5136 -0.4921 -0.1265, -1.5157 -0.4921 -0.1102, -1.4691 -0.4921 -0.1711, -1.5157 -0.2953 -0.1102, -1.4213 -0.2953 -0.1732, -1.4528 -0.2953 -0.1732, -1.5136 -0.2953 -0.1265, -1.3767 -0.2953 -0.1548, -1.3898 -0.2953 -0.1648, -1.3667 -0.2953 -0.1417, -1.3604 -0.2953 -0.1265, -1.405 -0.2953 -0.1711, -1.4691 -0.2953 -0.1711, -1.4843 -0.2953 -0.1648, -1.5073 -0.2953 -0.1417, -1.4973 -0.2953 -0.1548, 1.5157 -0.2953 -0.1102, 1.5157 -0.4921 -0.1102, 1.5136 -0.4921 -0.1265, 1.4528 -0.4921 -0.1732, 1.4213 -0.4921 -0.1732, 1.3583 -0.4921 -0.1102, 1.4691 -0.4921 -0.1711, 1.4843 -0.4921 -0.1648, 1.5073 -0.4921 -0.1417, 1.4973 -0.4921 -0.1548, 1.3667 -0.4921 -0.1417, 1.3767 -0.4921 -0.1548, 1.3898 -0.4921 -0.1648, 1.3604 -0.4921 -0.1265, 1.405 -0.4921 -0.1711, 1.3583 -0.2953 -0.1102, 1.3604 -0.2953 -0.1265, 1.4213 -0.2953 -0.1732, 1.4528 -0.2953 -0.1732, 1.5073 -0.2953 -0.1417, 1.4973 -0.2953 -0.1548, 1.4843 -0.2953 -0.1648, 1.5136 -0.2953 -0.1265, 1.4691 -0.2953 -0.1711, 1.405 -0.2953 -0.1711, 1.3898 -0.2953 -0.1648, 1.3667 -0.2953 -0.1417, 1.3767 -0.2953 -0.1548, 1.5157 0.2953 -0.1102, 1.5157 0.4921 -0.1102, 1.3583 0.2953 -0.1102, 1.3667 0.2953 -0.1417, 1.3767 0.2953 -0.1548, 1.3898 0.2953 -0.1648, 1.4213 0.2953 -0.1732, 1.4528 0.2953 -0.1732, 1.5136 0.2953 -0.1265, 1.4843 0.2953 -0.1648, 1.4973 0.2953 -0.1548, 1.5073 0.2953 -0.1417, 1.3604 0.2953 -0.1265, 1.405 0.2953 -0.1711, 1.4691 0.2953 -0.1711, 1.3583 0.4921 -0.1102, 1.5073 0.4921 -0.1417, 1.4973 0.4921 -0.1548, 1.4843 0.4921 -0.1648, 1.4528 0.4921 -0.1732, 1.4213 0.4921 -0.1732, 1.3604 0.4921 -0.1265, 1.3898 0.4921 -0.1648, 1.3767 0.4921 -0.1548, 1.3667 0.4921 -0.1417, 1.5136 0.4921 -0.1265, 1.4691 0.4921 -0.1711, 1.405 0.4921 -0.1711, 1.0433 0.227 0.0236, 1.0433 0.3451 0.0236, 0.9252 0.3451 0.0236, 0.9252 0.227 0.0236, -0.9252 -0.3075 0.0236, -0.9252 -0.1894 0.0236, -1.0433 -0.1894 0.0236, -1.0433 -0.3075 0.0236, 1.0433 -0.3075 0.0236, 1.0433 -0.1894 0.0236, 0.9252 -0.1894 0.0236, 0.9252 -0.3075 0.0236, 0.0591 0.227 0.0236, 0.0591 0.3451 0.0236, -0.0591 0.3451 0.0236, -0.0591 0.227 0.0236, 0.0591 -0.3075 0.0236, 0.0591 -0.1894 0.0236, -0.0591 -0.1894 0.0236, -0.0591 -0.3075 0.0236, -0.9252 0.227 0.0236, -0.9252 0.3451 0.0236, -1.0433 0.3451 0.0236, -1.0433 0.227 0.0236, -1.752 0.2559 0.6929, -1.7572 0.2559 1.0669, -1.752 0.2559 1.0755, -1.752 -0.2559 0.6929, -1.752 -0.2559 1.0755, 1.752 0.2559 0.6929, 1.752 -0.2559 0.6929, 1.7572 -0.2559 1.0669, 1.752 -0.2559 1.0755, 1.752 0.2559 1.0755, 1.2845 -0.5315 0.7717, -0.2559 -0.5315 0.7717, -0.2559 0.5315 0.7717, 1.2845 0.5315 0.7717, -0.6496 0.2559 2.3465, -0.6496 -0.2559 2.3465, -0.6102 -0.2953 2.3465, -0.0984 -0.2953 2.3465, -0.0591 -0.2559 2.3465, -0.0591 0.2559 2.3465, -0.6102 0.2953 2.3465, -0.0984 0.2953 2.3465, -0.0643 -0.2756 2.3465, -0.0706 -0.2837 2.3465, -0.0882 -0.2939 2.3465, -0.0787 -0.29 2.3465, -0.6299 -0.29 2.3465, -0.6204 -0.2939 2.3465, -0.0604 -0.2661 2.3465, -0.0604 0.2661 2.3465, -0.0643 0.2756 2.3465, -0.0706 0.2837 2.3465, -0.0787 0.29 2.3465, -0.6204 0.2939 2.3465, -0.6299 0.29 2.3465, -0.6381 -0.2837 2.3465, -0.6483 -0.2661 2.3465, -0.6443 -0.2756 2.3465, -0.0882 0.2939 2.3465, -0.6381 0.2837 2.3465, -0.6443 0.2756 2.3465, -0.6483 0.2661 2.3465, 0.0197 -0.1575 1.0866, 0.0197 0.1575 1.0866, 0.4134 0.2362 1.0866, 0.0984 0.2362 1.0866, 0.4921 -0.1575 1.0866, 0.4921 0.1575 1.0866, 0.4134 -0.2362 1.0866, 0.0984 -0.2362 1.0866, 0.0224 -0.1779 1.0866, 0.0302 -0.1969 1.0866, 0.4894 -0.1779 1.0866, 0.4894 0.1779 1.0866, 0.4816 0.1969 1.0866, 0.0427 -0.2132 1.0866, 0.0591 -0.2257 1.0866, 0.078 -0.2335 1.0866, 0.078 0.2335 1.0866, 0.0224 0.1779 1.0866, 0.0591 0.2257 1.0866, 0.0427 0.2132 1.0866, 0.0302 0.1969 1.0866, 0.4338 -0.2335 1.0866, 0.4528 -0.2257 1.0866, 0.4691 0.2132 1.0866, 0.4528 0.2257 1.0866, 0.4338 0.2335 1.0866, 0.4691 -0.2132 1.0866, 0.4816 -0.1969 1.0866, 0.5906 -0.2756 1.0866, 0.5906 0.2756 1.0866, 0.6299 0.315 1.0866, 1.378 0.315 1.0866, 1.378 -0.315 1.0866, 0.6299 -0.315 1.0866, 0.6102 -0.3097 1.0866, 0.6197 -0.3136 1.0866, 0.6102 0.3097 1.0866, 0.6021 0.3034 1.0866, 0.5958 0.2953 1.0866, 0.6021 -0.3034 1.0866, 0.5919 -0.2858 1.0866, 0.5958 -0.2953 1.0866, 0.6197 0.3136 1.0866, 0.5919 0.2858 1.0866, 1.7421 0.6791 0.1811, 1.74 0.6812 0.1813, 1.7442 0.6812 0.1814, 1.7447 0.6817 0.1814, 1.7396 0.6817 0.1815, 1.7463 0.6833 0.1821, 1.7379 0.6833 0.182, 1.747 0.6841 0.1824, 1.7372 0.684 0.1825, 1.7482 0.6852 0.1833, 1.736 0.6852 0.1832, 1.7491 0.6861 0.184, 1.7352 0.686 0.184, 1.7498 0.6868 0.1848, 1.7345 0.6868 0.1848, 1.7506 0.6876 0.1861, 1.7336 0.6876 0.1861, 1.751 0.688 0.1867, 1.7333 0.688 0.1867, 1.7326 0.6886 0.1884, 1.7516 0.6886 0.1884, 1.7326 0.6887 0.1887, 1.7517 0.6887 0.1887, 1.7323 0.6889 0.1898, 1.7519 0.6889 0.1898, 1.7372 -0.684 0.1825, 1.7421 -0.6791 0.1811, 1.74 -0.6812 0.1813, 1.7396 -0.6817 0.1815, 1.7379 -0.6833 0.182, 1.736 -0.6852 0.1832, 1.7352 -0.686 0.184, 1.7345 -0.6868 0.1848, 1.7336 -0.6876 0.1861, 1.7333 -0.688 0.1867, 1.7326 -0.6886 0.1884, 1.7326 -0.6887 0.1887, 1.7323 -0.6889 0.1898, 1.7442 -0.6812 0.1813, 1.749 -0.686 0.184, 1.7498 -0.6868 0.1848, 1.7519 -0.6889 0.1898, 1.7517 -0.6887 0.1887, 1.7516 -0.6886 0.1884, 1.751 -0.688 0.1867, 1.7506 -0.6876 0.1861, 1.7482 -0.6852 0.1832, 1.747 -0.684 0.1825, 1.7463 -0.6833 0.182, 1.7447 -0.6817 0.1815, -1.74 -0.6812 0.1814, -1.7421 -0.6791 0.1811, -1.7421 0.6791 0.1811, -1.7396 -0.6817 0.1814, -1.74 0.6812 0.1813, -1.7396 0.6817 0.1815, -1.7379 -0.6833 0.1821, -1.7372 -0.6841 0.1824, -1.7379 0.6833 0.182, -1.7372 0.684 0.1825, -1.7361 -0.6852 0.1833, -1.7352 -0.6861 0.184, -1.736 0.6852 0.1832, -1.7352 0.686 0.184, -1.7345 -0.6868 0.1848, -1.7345 0.6868 0.1848, -1.7336 0.6876 0.1861, -1.7336 -0.6876 0.1861, -1.7333 0.688 0.1867, -1.7333 -0.688 0.1867, -1.7326 0.6886 0.1884, -1.7326 -0.6886 0.1884, -1.7325 -0.6887 0.1887, -1.7326 0.6887 0.1887, -1.7323 -0.6889 0.1898, -1.7323 0.6889 0.1898, -1.7442 0.6812 0.1813, -1.747 0.684 0.1825, -1.7482 0.6852 0.1832, -1.749 0.686 0.184, -1.7498 0.6868 0.1848, -1.7519 0.6889 0.1898, -1.7517 0.6887 0.1887, -1.7516 0.6886 0.1884, -1.751 0.688 0.1867, -1.7506 0.6876 0.1861, -1.7463 0.6833 0.182, -1.7447 0.6817 0.1815, -1.7442 -0.6812 0.1814, -1.7447 -0.6817 0.1814, -1.7463 -0.6833 0.1821, -1.747 -0.6841 0.1824, -1.7482 -0.6852 0.1833, -1.7491 -0.6861 0.184, -1.7498 -0.6868 0.1848, -1.7516 -0.6886 0.1884, -1.751 -0.688 0.1867, -1.7506 -0.6876 0.1861, -1.7519 -0.6889 0.1898, -1.7517 -0.6887 0.1887
            ]
        }
        coordIndex [
            0,1,2,-1,3,4,5,-1,5,4,6,-1,3,7,8,-1,8,7,9,-1,8,9,10,-1,10,9,11,-1,10,11,12,-1,12,11,13,-1,12,13,14,-1,15,16,17,-1,17,16,18,-1,18,16,19,-1,18,19,20,-1,20,19,21,-1,20,21,22,-1,15,23,24,-1,24,23,25,-1,24,25,26,-1,27,28,29,-1,30,31,32,-1,32,31,33,-1,32,33,34,-1,34,33,35,-1,34,35,36,-1,36,35,37,-1,36,37,38,-1,39,40,41,-1,41,40,42,-1,41,42,43,-1,44,45,46,-1,46,45,47,-1,46,47,48,-1,48,47,49,-1,48,49,50,-1,51,52,6,-1,1,0,53,-1,54,55,56,-1,56,55,57,-1,6,52,5,-1,5,52,58,-1,5,58,2,-1,2,58,59,-1,2,59,0,-1,60,28,61,-1,61,28,62,-1,60,61,63,-1,63,61,64,-1,63,64,65,-1,62,28,66,-1,66,28,27,-1,66,27,67,-1,67,27,68,-1,67,68,69,-1,70,71,72,-1,72,71,73,-1,74,75,76,-1,76,75,77,-1,73,71,23,-1,23,71,78,-1,23,78,25,-1,25,78,79,-1,25,79,80,-1,81,82,83,-1,83,82,60,-1,83,60,84,-1,84,60,63,-1,84,63,85,-1,85,63,65,-1,85,65,86,-1,87,88,89,-1,89,88,90,-1,87,91,92,-1,92,91,93,-1,92,93,94,-1,95,96,97,-1,94,98,99,-1,99,98,89,-1,90,100,89,-1,89,100,101,-1,89,101,99,-1,96,102,97,-1,97,102,103,-1,97,103,104,-1,105,56,106,-1,106,56,107,-1,108,109,110,-1,110,109,94,-1,110,94,111,-1,111,94,93,-1,111,93,112,-1,112,93,113,-1,92,114,87,-1,87,114,115,-1,87,115,88,-1,88,115,116,-1,88,116,103,-1,103,116,117,-1,103,117,104,-1,118,119,97,-1,97,119,120,-1,97,120,121,-1,122,123,97,-1,97,123,124,-1,97,124,95,-1,118,125,119,-1,119,125,126,-1,119,126,127,-1,121,128,97,-1,97,128,129,-1,97,129,122,-1,130,131,57,-1,132,133,134,-1,134,133,135,-1,136,137,134,-1,134,137,138,-1,134,138,132,-1,131,139,57,-1,57,139,140,-1,57,140,56,-1,56,140,141,-1,56,141,107,-1,135,142,134,-1,134,142,143,-1,134,143,57,-1,57,143,144,-1,57,144,130,-1,145,146,147,-1,147,146,148,-1,147,148,136,-1,136,148,149,-1,136,149,137,-1,150,151,152,-1,152,151,153,-1,152,153,154,-1,154,153,40,-1,154,40,44,-1,44,40,39,-1,44,39,45,-1,3,5,7,-1,7,5,2,-1,7,2,155,-1,155,2,1,-1,155,1,156,-1,156,1,53,-1,156,53,157,-1,158,42,159,-1,159,42,40,-1,159,40,160,-1,160,40,153,-1,160,153,161,-1,162,163,164,-1,164,163,151,-1,164,151,165,-1,165,151,150,-1,165,150,166,-1,163,167,151,-1,151,167,168,-1,151,168,153,-1,153,168,169,-1,153,169,161,-1,0,54,53,-1,53,54,56,-1,53,56,92,-1,92,56,105,-1,92,105,114,-1,158,161,42,-1,42,161,169,-1,42,169,68,-1,68,169,65,-1,68,65,69,-1,69,65,64,-1,168,162,169,-1,169,162,164,-1,169,164,65,-1,65,164,170,-1,65,170,86,-1,171,172,173,-1,174,175,176,-1,173,172,177,-1,177,172,178,-1,177,178,179,-1,176,171,174,-1,174,171,173,-1,174,173,180,-1,180,173,170,-1,180,170,179,-1,179,170,164,-1,179,164,177,-1,177,164,165,-1,177,165,181,-1,181,165,166,-1,181,166,157,-1,182,183,173,-1,173,183,184,-1,173,184,185,-1,94,99,92,-1,92,99,186,-1,92,186,187,-1,188,189,177,-1,177,189,190,-1,157,53,181,-1,181,53,92,-1,181,92,177,-1,177,92,187,-1,177,187,188,-1,190,191,177,-1,177,191,192,-1,177,192,193,-1,185,194,173,-1,173,194,195,-1,173,195,99,-1,99,195,196,-1,99,196,186,-1,193,197,177,-1,177,197,198,-1,177,198,173,-1,173,198,199,-1,173,199,182,-1,57,200,134,-1,134,200,201,-1,134,201,202,-1,203,200,204,-1,204,200,57,-1,204,57,205,-1,205,57,206,-1,205,206,202,-1,202,206,76,-1,202,76,134,-1,134,76,77,-1,134,77,136,-1,136,77,207,-1,136,207,147,-1,147,207,208,-1,147,208,209,-1,55,210,57,-1,57,210,51,-1,57,51,206,-1,206,51,6,-1,206,6,76,-1,76,6,80,-1,76,80,74,-1,74,80,79,-1,49,43,50,-1,50,43,42,-1,50,42,211,-1,211,42,68,-1,211,68,37,-1,37,68,27,-1,37,27,38,-1,38,27,29,-1,145,147,101,-1,101,147,212,-1,101,212,99,-1,99,212,213,-1,99,213,173,-1,173,213,214,-1,173,214,170,-1,170,214,215,-1,170,215,86,-1,4,14,6,-1,6,14,13,-1,6,13,80,-1,80,13,216,-1,80,216,25,-1,25,216,22,-1,25,22,26,-1,26,22,21,-1,70,72,209,-1,209,72,217,-1,209,217,147,-1,147,217,218,-1,147,218,212,-1,212,218,219,-1,212,219,213,-1,213,219,82,-1,213,82,214,-1,214,82,81,-1,214,81,215,-1,15,17,23,-1,23,17,220,-1,23,220,73,-1,73,220,221,-1,73,221,72,-1,72,221,222,-1,72,222,217,-1,217,222,223,-1,217,223,218,-1,218,223,224,-1,218,224,219,-1,219,224,225,-1,219,225,82,-1,82,225,226,-1,82,226,60,-1,60,226,31,-1,60,31,28,-1,28,31,30,-1,28,30,29,-1,9,227,11,-1,11,227,228,-1,11,228,13,-1,13,228,229,-1,13,229,216,-1,216,229,230,-1,216,230,22,-1,22,230,231,-1,22,231,20,-1,20,231,232,-1,20,232,18,-1,18,232,233,-1,234,235,236,-1,237,238,239,-1,239,240,237,-1,237,240,234,-1,237,234,241,-1,241,234,236,-1,242,243,244,-1,245,246,247,-1,247,248,245,-1,245,248,242,-1,245,242,249,-1,249,242,244,-1,250,251,252,-1,252,251,253,-1,254,255,256,-1,256,255,257,-1,258,259,260,-1,260,259,261,-1,260,261,262,-1,263,264,265,-1,266,267,268,-1,268,267,259,-1,269,259,264,-1,264,259,258,-1,264,258,265,-1,265,258,241,-1,265,241,236,-1,254,256,270,-1,270,256,271,-1,272,273,263,-1,274,250,252,-1,269,275,259,-1,259,275,276,-1,259,276,277,-1,252,278,274,-1,274,278,272,-1,274,272,271,-1,271,272,263,-1,271,263,270,-1,270,263,265,-1,279,280,281,-1,281,280,282,-1,277,283,259,-1,259,283,284,-1,259,284,268,-1,282,280,278,-1,278,280,285,-1,278,285,286,-1,287,288,289,-1,289,288,281,-1,289,281,290,-1,290,281,282,-1,290,282,245,-1,245,282,246,-1,286,291,278,-1,278,291,292,-1,278,292,272,-1,293,294,295,-1,295,294,296,-1,297,298,299,-1,299,298,300,-1,301,302,268,-1,268,302,266,-1,303,273,272,-1,304,305,306,-1,307,308,309,-1,310,311,272,-1,312,313,314,-1,314,313,315,-1,314,315,316,-1,317,318,319,-1,320,321,322,-1,323,324,322,-1,319,325,322,-1,317,319,326,-1,310,272,327,-1,311,328,272,-1,272,328,329,-1,272,329,303,-1,303,329,314,-1,303,314,306,-1,306,314,316,-1,306,316,304,-1,312,330,313,-1,313,330,331,-1,313,331,332,-1,322,324,319,-1,319,324,333,-1,319,333,326,-1,320,322,334,-1,269,306,275,-1,275,306,305,-1,275,305,309,-1,309,305,335,-1,309,335,307,-1,307,335,336,-1,307,336,322,-1,322,336,337,-1,322,337,334,-1,338,339,340,-1,341,342,343,-1,321,344,345,-1,345,346,321,-1,321,346,347,-1,321,347,322,-1,322,347,348,-1,322,348,349,-1,349,350,351,-1,341,343,352,-1,342,353,343,-1,343,353,354,-1,343,354,355,-1,355,354,356,-1,318,357,319,-1,319,357,358,-1,319,358,272,-1,272,358,359,-1,272,359,327,-1,344,321,360,-1,360,321,361,-1,360,361,362,-1,339,363,340,-1,340,363,364,-1,340,364,365,-1,354,366,356,-1,356,366,367,-1,356,367,368,-1,368,367,369,-1,368,369,361,-1,361,369,370,-1,361,370,362,-1,351,371,349,-1,349,371,372,-1,349,372,322,-1,322,372,373,-1,322,373,323,-1,365,352,340,-1,340,352,343,-1,340,343,374,-1,374,343,313,-1,374,313,375,-1,375,313,332,-1,349,376,350,-1,350,376,377,-1,350,377,378,-1,378,377,379,-1,379,380,378,-1,378,380,381,-1,378,381,340,-1,340,381,382,-1,340,382,338,-1,383,309,384,-1,384,309,308,-1,384,308,385,-1,296,386,295,-1,295,386,387,-1,295,387,388,-1,300,389,299,-1,299,389,390,-1,391,249,244,-1,392,393,394,-1,394,393,395,-1,383,384,396,-1,396,384,397,-1,396,397,398,-1,237,399,400,-1,401,402,403,-1,403,402,404,-1,405,406,390,-1,390,406,407,-1,390,407,299,-1,244,408,391,-1,391,408,390,-1,391,390,409,-1,409,390,410,-1,409,410,411,-1,238,237,412,-1,412,237,400,-1,412,400,395,-1,395,400,387,-1,395,387,394,-1,394,387,386,-1,399,403,400,-1,400,403,404,-1,400,404,308,-1,308,404,413,-1,308,413,385,-1,388,387,408,-1,408,387,325,-1,408,325,390,-1,390,325,319,-1,390,319,405,-1,385,413,414,-1,414,413,415,-1,302,416,266,-1,266,416,267,-1,280,279,417,-1,417,279,418,-1,419,420,392,-1,392,420,393,-1,298,421,300,-1,300,421,389,-1,422,234,423,-1,423,234,240,-1,293,424,425,-1,426,427,239,-1,239,427,420,-1,242,33,243,-1,243,33,31,-1,243,31,226,-1,428,429,233,-1,224,420,225,-1,225,420,419,-1,225,419,226,-1,430,431,419,-1,419,431,294,-1,419,294,226,-1,226,294,293,-1,226,293,243,-1,243,293,425,-1,224,223,420,-1,420,223,222,-1,420,222,221,-1,432,433,434,-1,434,433,435,-1,242,436,33,-1,33,436,433,-1,33,433,437,-1,437,433,432,-1,233,438,428,-1,428,438,439,-1,428,439,440,-1,429,423,233,-1,233,423,240,-1,233,240,18,-1,18,240,239,-1,18,239,17,-1,17,239,420,-1,17,420,220,-1,220,420,221,-1,436,242,441,-1,441,242,248,-1,442,443,247,-1,247,443,253,-1,46,248,44,-1,44,248,247,-1,44,247,154,-1,154,247,253,-1,154,253,152,-1,444,445,251,-1,251,445,257,-1,446,447,255,-1,255,447,235,-1,255,235,7,-1,448,449,46,-1,46,449,441,-1,46,441,248,-1,448,450,449,-1,449,450,451,-1,449,451,452,-1,7,235,9,-1,9,235,234,-1,9,234,227,-1,7,155,255,-1,255,155,156,-1,255,156,157,-1,234,422,227,-1,227,422,453,-1,227,453,454,-1,253,251,152,-1,152,251,257,-1,152,257,150,-1,150,257,255,-1,150,255,166,-1,166,255,157,-1,455,456,454,-1,454,456,457,-1,454,457,227,-1,41,458,39,-1,39,458,459,-1,39,459,45,-1,460,458,461,-1,461,458,41,-1,461,41,462,-1,462,41,43,-1,462,43,463,-1,464,465,466,-1,460,461,466,-1,466,461,467,-1,466,467,464,-1,463,468,462,-1,462,468,469,-1,462,469,470,-1,470,469,471,-1,470,471,472,-1,463,43,473,-1,473,43,49,-1,473,49,47,-1,474,473,475,-1,475,473,47,-1,475,47,476,-1,476,47,45,-1,476,45,459,-1,477,478,479,-1,459,480,476,-1,476,480,481,-1,476,481,482,-1,482,481,483,-1,482,483,484,-1,474,475,479,-1,479,475,485,-1,479,485,477,-1,461,462,476,-1,476,462,475,-1,486,38,487,-1,487,38,29,-1,487,29,30,-1,488,487,489,-1,489,487,30,-1,489,30,490,-1,490,30,32,-1,489,491,488,-1,488,491,492,-1,488,492,493,-1,493,492,494,-1,495,496,497,-1,497,496,498,-1,32,499,490,-1,490,499,498,-1,490,498,500,-1,500,498,496,-1,36,501,34,-1,34,501,499,-1,34,499,32,-1,38,502,36,-1,36,502,503,-1,36,503,501,-1,501,503,504,-1,505,506,507,-1,507,506,508,-1,38,486,502,-1,502,486,508,-1,502,508,509,-1,509,508,506,-1,503,510,504,-1,504,510,511,-1,504,511,512,-1,512,511,513,-1,489,490,502,-1,502,490,503,-1,514,26,515,-1,515,26,21,-1,515,21,19,-1,516,515,517,-1,517,515,19,-1,517,19,518,-1,518,19,16,-1,518,16,519,-1,517,520,516,-1,516,520,521,-1,516,521,522,-1,522,521,523,-1,524,525,526,-1,519,527,518,-1,518,527,524,-1,518,524,528,-1,528,524,526,-1,24,529,15,-1,15,529,519,-1,15,519,16,-1,530,529,531,-1,531,529,24,-1,531,24,532,-1,532,24,26,-1,532,26,514,-1,533,534,535,-1,514,536,532,-1,532,536,533,-1,532,533,537,-1,537,533,535,-1,531,538,530,-1,530,538,539,-1,530,539,540,-1,540,539,541,-1,517,518,532,-1,532,518,531,-1,12,542,10,-1,10,542,543,-1,10,543,8,-1,12,14,542,-1,542,14,544,-1,545,546,547,-1,544,548,542,-1,542,548,549,-1,542,549,550,-1,551,552,553,-1,544,554,548,-1,548,554,545,-1,548,545,555,-1,555,545,547,-1,550,549,553,-1,553,549,556,-1,553,556,551,-1,544,14,557,-1,557,14,4,-1,557,4,3,-1,3,8,557,-1,557,8,543,-1,558,559,560,-1,543,561,557,-1,557,561,562,-1,557,562,563,-1,564,565,566,-1,543,567,561,-1,561,567,558,-1,561,558,568,-1,568,558,560,-1,563,562,566,-1,566,562,569,-1,566,569,564,-1,549,548,561,-1,561,548,562,-1,570,571,52,-1,52,571,58,-1,58,571,59,-1,59,571,572,-1,59,572,0,-1,0,572,54,-1,572,573,54,-1,54,573,55,-1,55,573,210,-1,210,573,570,-1,210,570,51,-1,51,570,52,-1,573,572,570,-1,570,572,571,-1,61,574,64,-1,64,574,575,-1,64,575,69,-1,575,576,69,-1,69,576,67,-1,577,62,576,-1,576,62,66,-1,576,66,67,-1,577,574,62,-1,62,574,61,-1,577,576,574,-1,574,576,575,-1,78,578,79,-1,79,578,579,-1,79,579,74,-1,74,579,75,-1,75,579,580,-1,75,580,77,-1,77,580,207,-1,581,209,580,-1,580,209,208,-1,580,208,207,-1,209,581,70,-1,70,581,578,-1,70,578,71,-1,71,578,78,-1,581,580,578,-1,578,580,579,-1,582,583,163,-1,163,583,167,-1,583,584,167,-1,167,584,168,-1,584,585,168,-1,168,585,162,-1,585,582,162,-1,162,582,163,-1,585,584,582,-1,582,584,583,-1,81,586,215,-1,215,586,587,-1,215,587,86,-1,587,588,86,-1,86,588,85,-1,589,83,588,-1,588,83,84,-1,588,84,85,-1,589,586,83,-1,83,586,81,-1,589,588,586,-1,586,588,587,-1,590,591,161,-1,161,591,160,-1,591,592,160,-1,160,592,159,-1,592,593,159,-1,159,593,158,-1,593,590,158,-1,158,590,161,-1,593,592,590,-1,590,592,591,-1,281,594,279,-1,279,594,418,-1,417,418,595,-1,595,418,594,-1,595,594,596,-1,421,298,597,-1,597,298,297,-1,597,297,598,-1,597,390,421,-1,421,390,389,-1,410,390,288,-1,288,390,597,-1,281,288,594,-1,594,288,597,-1,594,597,596,-1,596,597,598,-1,599,259,416,-1,416,259,267,-1,404,600,413,-1,413,600,415,-1,414,415,601,-1,601,415,600,-1,601,600,602,-1,416,302,599,-1,599,302,301,-1,599,301,603,-1,261,259,402,-1,402,259,599,-1,404,402,600,-1,600,402,599,-1,600,599,602,-1,602,599,603,-1,604,605,400,-1,400,605,387,-1,605,322,387,-1,387,322,325,-1,307,322,604,-1,604,322,605,-1,303,606,273,-1,273,606,263,-1,264,263,607,-1,607,263,606,-1,607,606,306,-1,306,606,303,-1,359,358,608,-1,608,358,609,-1,324,323,610,-1,610,323,611,-1,378,340,612,-1,612,340,613,-1,614,615,314,-1,314,615,312,-1,609,612,608,-1,608,612,613,-1,616,611,617,-1,617,611,618,-1,617,618,619,-1,620,621,609,-1,609,621,610,-1,609,610,612,-1,612,610,611,-1,612,611,622,-1,622,611,616,-1,623,624,613,-1,613,624,625,-1,613,625,626,-1,627,628,608,-1,620,609,629,-1,629,609,630,-1,629,630,631,-1,626,632,613,-1,613,632,615,-1,613,615,608,-1,608,615,614,-1,608,614,627,-1,633,634,628,-1,628,634,635,-1,628,635,608,-1,636,637,381,-1,381,637,382,-1,341,352,638,-1,638,352,639,-1,370,369,640,-1,640,369,641,-1,642,643,347,-1,347,643,348,-1,644,645,643,-1,639,643,638,-1,638,643,642,-1,646,640,642,-1,647,648,638,-1,645,649,643,-1,643,649,650,-1,643,650,651,-1,642,640,638,-1,638,640,641,-1,638,641,647,-1,652,653,639,-1,639,653,637,-1,639,637,643,-1,643,637,636,-1,643,636,644,-1,652,654,653,-1,653,654,655,-1,653,655,656,-1,642,657,658,-1,659,660,648,-1,648,660,661,-1,648,661,638,-1,658,662,642,-1,642,662,663,-1,642,663,646,-1,664,665,368,-1,368,665,356,-1,666,667,304,-1,304,667,305,-1,667,668,305,-1,305,668,335,-1,336,335,669,-1,669,335,668,-1,664,668,665,-1,665,668,667,-1,665,667,666,-1,670,671,664,-1,664,671,669,-1,664,669,668,-1,672,673,674,-1,670,664,675,-1,675,664,676,-1,675,676,677,-1,666,678,665,-1,665,678,672,-1,665,672,679,-1,679,672,674,-1,384,385,601,-1,601,385,414,-1,285,280,595,-1,595,280,417,-1,384,601,397,-1,397,601,602,-1,301,268,603,-1,603,268,284,-1,603,284,602,-1,602,284,397,-1,397,284,283,-1,397,283,398,-1,398,283,277,-1,398,277,396,-1,396,277,276,-1,396,276,383,-1,383,276,275,-1,383,275,309,-1,285,595,286,-1,286,595,596,-1,297,299,598,-1,598,299,407,-1,598,407,596,-1,596,407,286,-1,286,407,406,-1,286,406,291,-1,291,406,405,-1,291,405,292,-1,292,405,319,-1,292,319,272,-1,420,427,393,-1,393,427,395,-1,427,426,395,-1,395,426,412,-1,426,239,412,-1,412,239,238,-1,294,431,296,-1,296,431,386,-1,431,430,386,-1,386,430,394,-1,430,419,394,-1,394,419,392,-1,243,425,244,-1,244,425,408,-1,425,424,408,-1,408,424,388,-1,424,293,388,-1,388,293,295,-1,446,255,270,-1,270,255,254,-1,235,447,236,-1,236,447,265,-1,447,446,265,-1,265,446,270,-1,444,251,274,-1,274,251,250,-1,257,445,256,-1,256,445,271,-1,445,444,271,-1,271,444,274,-1,442,247,282,-1,282,247,246,-1,253,443,252,-1,252,443,278,-1,443,442,278,-1,278,442,282,-1,549,561,568,-1,549,568,556,-1,556,568,560,-1,556,560,551,-1,551,560,559,-1,551,559,552,-1,552,559,558,-1,552,558,553,-1,553,558,567,-1,553,567,550,-1,550,567,543,-1,550,543,542,-1,562,548,555,-1,562,555,569,-1,569,555,547,-1,569,547,564,-1,564,547,546,-1,564,546,565,-1,565,546,545,-1,565,545,566,-1,566,545,554,-1,566,554,563,-1,563,554,544,-1,563,544,557,-1,517,532,537,-1,517,537,520,-1,520,537,535,-1,520,535,521,-1,521,535,534,-1,521,534,523,-1,523,534,533,-1,523,533,522,-1,522,533,536,-1,522,536,516,-1,516,536,514,-1,516,514,515,-1,531,518,528,-1,531,528,538,-1,538,528,526,-1,538,526,539,-1,539,526,525,-1,539,525,541,-1,541,525,524,-1,541,524,540,-1,540,524,527,-1,540,527,530,-1,530,527,519,-1,530,519,529,-1,459,458,460,-1,459,460,480,-1,480,460,466,-1,480,466,481,-1,481,466,465,-1,481,465,483,-1,483,465,464,-1,483,464,484,-1,484,464,467,-1,484,467,482,-1,482,467,461,-1,482,461,476,-1,463,473,474,-1,463,474,468,-1,468,474,479,-1,468,479,469,-1,469,479,478,-1,469,478,471,-1,471,478,477,-1,471,477,472,-1,472,477,485,-1,472,485,470,-1,470,485,475,-1,470,475,462,-1,486,487,488,-1,486,488,508,-1,508,488,493,-1,508,493,507,-1,507,493,494,-1,507,494,505,-1,505,494,492,-1,505,492,506,-1,506,492,491,-1,506,491,509,-1,509,491,489,-1,509,489,502,-1,499,501,504,-1,499,504,498,-1,498,504,512,-1,498,512,497,-1,497,512,513,-1,497,513,495,-1,495,513,511,-1,495,511,496,-1,496,511,510,-1,496,510,500,-1,500,510,503,-1,500,503,490,-1,233,232,438,-1,438,232,231,-1,438,231,230,-1,230,229,457,-1,457,229,228,-1,457,228,227,-1,230,457,438,-1,438,457,456,-1,438,456,439,-1,439,456,455,-1,439,455,440,-1,440,455,454,-1,440,454,428,-1,428,454,453,-1,428,453,429,-1,429,453,422,-1,429,422,423,-1,46,48,448,-1,448,48,50,-1,448,50,211,-1,211,37,437,-1,437,37,35,-1,437,35,33,-1,211,437,448,-1,448,437,432,-1,448,432,450,-1,450,432,434,-1,450,434,451,-1,451,434,435,-1,451,435,452,-1,452,435,433,-1,452,433,449,-1,449,433,436,-1,449,436,441,-1,237,241,399,-1,399,241,258,-1,399,258,403,-1,403,258,260,-1,401,403,262,-1,262,403,260,-1,287,289,411,-1,411,289,409,-1,409,289,391,-1,391,289,290,-1,391,290,249,-1,249,290,245,-1,680,681,682,-1,682,681,683,-1,683,681,684,-1,683,684,685,-1,685,684,686,-1,685,686,687,-1,687,686,688,-1,687,688,689,-1,689,688,690,-1,689,690,691,-1,691,690,692,-1,691,692,693,-1,693,692,694,-1,693,694,695,-1,695,694,696,-1,695,696,697,-1,696,698,697,-1,697,698,699,-1,697,699,700,-1,700,699,701,-1,700,701,702,-1,702,701,703,-1,702,703,704,-1,704,703,262,-1,704,262,261,-1,705,688,686,-1,680,706,681,-1,681,706,707,-1,681,707,684,-1,684,707,708,-1,684,708,686,-1,686,708,709,-1,686,709,705,-1,688,705,690,-1,690,705,710,-1,690,710,692,-1,692,710,711,-1,692,711,694,-1,694,711,712,-1,694,712,696,-1,712,713,696,-1,696,713,714,-1,696,714,698,-1,698,714,715,-1,698,715,699,-1,699,715,701,-1,701,715,703,-1,703,715,716,-1,703,716,262,-1,262,716,717,-1,262,717,401,-1,718,707,706,-1,719,720,711,-1,402,401,721,-1,721,401,717,-1,721,717,722,-1,722,717,716,-1,722,716,723,-1,723,716,715,-1,723,715,724,-1,724,715,714,-1,724,714,725,-1,725,714,713,-1,725,713,720,-1,720,713,712,-1,720,712,711,-1,719,711,726,-1,726,711,710,-1,726,710,727,-1,727,710,705,-1,727,705,728,-1,728,705,709,-1,728,709,708,-1,707,718,708,-1,708,718,729,-1,708,729,728,-1,706,680,718,-1,718,680,682,-1,718,682,729,-1,729,682,683,-1,729,683,728,-1,728,683,685,-1,728,685,727,-1,727,685,687,-1,727,687,726,-1,726,687,689,-1,726,689,719,-1,719,689,691,-1,719,691,720,-1,720,691,693,-1,720,693,725,-1,725,693,695,-1,725,695,724,-1,724,695,697,-1,724,697,723,-1,723,697,700,-1,723,700,722,-1,722,700,721,-1,721,700,702,-1,721,702,402,-1,402,702,704,-1,402,704,261,-1,730,731,732,-1,730,732,733,-1,732,734,733,-1,733,734,735,-1,733,735,736,-1,736,735,737,-1,735,738,737,-1,737,738,739,-1,737,739,740,-1,740,739,741,-1,739,742,741,-1,741,742,743,-1,741,743,744,-1,743,745,744,-1,744,745,746,-1,744,746,747,-1,747,746,748,-1,747,748,749,-1,749,748,750,-1,749,750,751,-1,751,750,752,-1,752,750,753,-1,752,753,754,-1,754,753,411,-1,411,753,755,-1,411,755,287,-1,756,734,732,-1,757,758,739,-1,759,760,743,-1,288,287,755,-1,288,755,761,-1,761,755,753,-1,761,753,762,-1,762,753,750,-1,762,750,763,-1,763,750,748,-1,763,748,764,-1,764,748,765,-1,765,748,746,-1,765,746,760,-1,760,746,745,-1,760,745,743,-1,759,743,758,-1,758,743,742,-1,758,742,739,-1,757,739,766,-1,766,739,738,-1,766,738,735,-1,734,756,735,-1,735,756,767,-1,735,767,766,-1,731,730,768,-1,768,730,769,-1,769,730,733,-1,769,733,770,-1,770,733,736,-1,770,736,771,-1,771,736,737,-1,771,737,772,-1,772,737,740,-1,772,740,773,-1,773,740,741,-1,773,741,774,-1,752,775,751,-1,751,775,776,-1,751,776,749,-1,749,776,777,-1,749,777,747,-1,747,777,774,-1,747,774,744,-1,744,774,741,-1,411,410,754,-1,754,410,778,-1,754,778,752,-1,752,778,779,-1,752,779,775,-1,762,775,761,-1,761,775,779,-1,761,779,288,-1,288,779,778,-1,288,778,410,-1,762,763,775,-1,775,763,764,-1,775,764,776,-1,776,764,765,-1,732,731,756,-1,756,731,768,-1,756,768,767,-1,767,768,769,-1,767,769,766,-1,766,769,770,-1,766,770,757,-1,757,770,771,-1,757,771,758,-1,758,771,772,-1,758,772,759,-1,759,772,773,-1,759,773,760,-1,760,773,774,-1,760,774,765,-1,765,774,777,-1,765,777,776,-1,614,314,329,-1,614,329,627,-1,627,329,328,-1,627,328,628,-1,628,328,311,-1,628,311,633,-1,633,311,310,-1,633,310,634,-1,634,310,327,-1,634,327,635,-1,635,327,359,-1,635,359,608,-1,609,358,357,-1,609,357,630,-1,630,357,318,-1,630,318,631,-1,631,318,317,-1,631,317,629,-1,629,317,326,-1,629,326,620,-1,620,326,333,-1,620,333,621,-1,621,333,324,-1,621,324,610,-1,611,323,373,-1,611,373,618,-1,618,373,372,-1,618,372,619,-1,619,372,371,-1,619,371,617,-1,617,371,351,-1,617,351,616,-1,616,351,350,-1,616,350,622,-1,622,350,378,-1,622,378,612,-1,613,340,374,-1,613,374,623,-1,623,374,375,-1,623,375,624,-1,624,375,332,-1,624,332,625,-1,625,332,331,-1,625,331,626,-1,626,331,330,-1,626,330,632,-1,632,330,312,-1,632,312,615,-1,370,640,362,-1,362,640,646,-1,362,646,360,-1,360,646,663,-1,360,663,344,-1,344,663,662,-1,344,662,345,-1,345,662,658,-1,345,658,346,-1,346,658,657,-1,346,657,347,-1,347,657,642,-1,348,643,349,-1,349,643,651,-1,349,651,376,-1,376,651,650,-1,376,650,377,-1,377,650,649,-1,377,649,379,-1,379,649,645,-1,379,645,380,-1,380,645,644,-1,380,644,381,-1,381,644,636,-1,341,638,342,-1,342,638,661,-1,342,661,353,-1,353,661,660,-1,353,660,354,-1,354,660,659,-1,354,659,366,-1,366,659,648,-1,366,648,367,-1,367,648,647,-1,367,647,369,-1,369,647,641,-1,382,637,338,-1,338,637,653,-1,338,653,339,-1,339,653,656,-1,339,656,363,-1,363,656,655,-1,363,655,364,-1,364,655,654,-1,364,654,365,-1,365,654,652,-1,365,652,352,-1,352,652,639,-1,336,669,337,-1,337,669,671,-1,337,671,334,-1,334,671,670,-1,334,670,320,-1,320,670,675,-1,320,675,321,-1,321,675,677,-1,321,677,361,-1,361,677,676,-1,361,676,368,-1,368,676,664,-1,356,665,355,-1,355,665,679,-1,355,679,343,-1,343,679,674,-1,343,674,313,-1,313,674,673,-1,313,673,315,-1,315,673,672,-1,315,672,316,-1,316,672,678,-1,316,678,304,-1,304,678,666,-1,
        ]
    }
}
Shape{
    appearance Appearance {
        material  Material {
            diffuseColor 1.0 1.0 1.0
            specularColor 0.8784313725490196 0.8784313725490196 0.8784313725490196
            ambientIntensity 1.0
            transparency 0.0
            shininess 0.5
        }
    }
    geometry IndexedFaceSet {
        ccw TRUE
        solid FALSE
        coord DEF co Coordinate {
            point [
                0.9331 0.0246 -0.0591, 0.9331 0.0159 -0.0591, 0.9331 0.0246 -0.0551, 0.9331 0.0159 -0.0551, 0.9629 0.0246 -0.0591, 0.9629 0.0246 -0.0551, 0.9629 0.0947 -0.0591, 0.9629 0.0947 -0.0551, 0.9734 0.0947 -0.0591, 0.9734 0.0947 -0.0551, 0.9734 0.0159 -0.0591, 0.9734 0.0159 -0.0551, 0.8678 0.0287 -0.0591, 0.8678 0.02 -0.0591, 0.8678 0.0287 -0.0551, 0.8678 0.02 -0.0551, 0.8692 0.0279 -0.0551, 0.8692 0.0279 -0.0591, 0.8775 0.0248 -0.0551, 0.8775 0.0248 -0.0591, 0.888 0.0236 -0.0551, 0.888 0.0236 -0.0591, 0.8953 0.0244 -0.0551, 0.8953 0.0244 -0.0591, 0.8965 0.0249 -0.0551, 0.9011 0.0265 -0.0591, 0.9011 0.0265 -0.0551, 0.9059 0.0298 -0.0551, 0.9059 0.0298 -0.0591, 0.9096 0.0337 -0.0551, 0.9096 0.0337 -0.0591, 0.9129 0.0392 -0.0551, 0.9129 0.0392 -0.0591, 0.915 0.0459 -0.0551, 0.915 0.0459 -0.0591, 0.9158 0.0545 -0.0551, 0.9158 0.0545 -0.0591, 0.8999 0.084 -0.0551, 0.9053 0.0803 -0.0591, 0.9053 0.0803 -0.0551, 0.9101 0.0751 -0.0591, 0.9101 0.0751 -0.0551, 0.9133 0.069 -0.0591, 0.9133 0.069 -0.0551, 0.9154 0.0606 -0.0591, 0.9154 0.0606 -0.0551, 0.8965 0.0852 -0.0551, 0.894 0.0861 -0.0591, 0.8999 0.084 -0.0591, 0.894 0.0861 -0.0551, 0.8862 0.087 -0.0551, 0.8862 0.087 -0.0591, 0.8767 0.0857 -0.0551, 0.8767 0.0857 -0.0591, 0.8678 0.0819 -0.0551, 0.8678 0.0819 -0.0591, 0.8678 0.0925 -0.0591, 0.8678 0.0925 -0.0551, 0.8769 0.095 -0.0551, 0.8769 0.095 -0.0591, 0.8863 0.0956 -0.0551, 0.8863 0.0956 -0.0591, 0.8942 0.095 -0.0551, 0.8942 0.095 -0.0591, 0.8965 0.0943 -0.0551, 0.903 0.0924 -0.0591, 0.903 0.0924 -0.0551, 0.9105 0.0881 -0.0551, 0.9105 0.0881 -0.0591, 0.9176 0.0813 -0.0551, 0.9176 0.0813 -0.0591, 0.9222 0.0739 -0.0551, 0.9222 0.0739 -0.0591, 0.9252 0.065 -0.0551, 0.9252 0.065 -0.0591, 0.9264 0.0538 -0.0551, 0.9264 0.0538 -0.0591, 0.8941 0.0154 -0.0551, 0.8895 0.015 -0.0551, 0.8895 0.015 -0.0591, 0.8965 0.0157 -0.0551, 0.8992 0.016 -0.0591, 0.8992 0.016 -0.0551, 0.9068 0.0186 -0.0591, 0.9068 0.0186 -0.0551, 0.9131 0.0226 -0.0591, 0.9131 0.0226 -0.0551, 0.919 0.0289 -0.0591, 0.919 0.0289 -0.0551, 0.9232 0.0364 -0.0591, 0.9232 0.0364 -0.0551, 0.9256 0.0447 -0.0591, 0.9256 0.0447 -0.0551, 0.8762 0.0166 -0.0591, 0.8873 0.015 -0.0551, 0.8873 0.015 -0.0591, 0.8841 0.0154 -0.0551, 0.8762 0.0166 -0.0551, 0.8102 0.0246 -0.0591, 0.8102 0.0159 -0.0591, 0.8102 0.0246 -0.0551, 0.8102 0.0159 -0.0551, 0.8419 0.0246 -0.0591, 0.8419 0.0246 -0.0551, 0.8419 0.0515 -0.0591, 0.8419 0.0515 -0.0551, 0.814 0.0515 -0.0591, 0.814 0.0515 -0.0551, 0.814 0.0601 -0.0591, 0.814 0.0601 -0.0551, 0.8419 0.0601 -0.0591, 0.8419 0.0601 -0.0551, 0.8419 0.086 -0.0591, 0.8419 0.086 -0.0551, 0.8121 0.086 -0.0591, 0.8121 0.086 -0.0551, 0.8121 0.0947 -0.0591, 0.8121 0.0947 -0.0551, 0.8524 0.0947 -0.0591, 0.8524 0.0947 -0.0551, 0.8524 0.0159 -0.0591, 0.8524 0.0159 -0.0551, 0.7341 0.0715 -0.0591, 0.7378 0.0782 -0.0591, 0.7472 0.075 -0.0591, 0.7433 0.0844 -0.0591, 0.7511 0.079 -0.0591, 0.7434 0.0845 -0.0591, 0.7568 0.0828 -0.0591, 0.752 0.0902 -0.0591, 0.7633 0.085 -0.0591, 0.7612 0.0935 -0.0591, 0.7726 0.086 -0.0591, 0.7726 0.0947 -0.0591, 0.7842 0.086 -0.0591, 0.7948 0.0947 -0.0591, 0.7842 0.0246 -0.0591, 0.7948 0.0159 -0.0591, 0.7731 0.0246 -0.0591, 0.7734 0.0159 -0.0591, 0.7648 0.0253 -0.0591, 0.7637 0.0168 -0.0591, 0.7581 0.0274 -0.0591, 0.7546 0.0195 -0.0591, 0.7528 0.0306 -0.0591, 0.7464 0.0243 -0.0591, 0.7483 0.035 -0.0591, 0.7399 0.0305 -0.0591, 0.745 0.0404 -0.0591, 0.7354 0.0375 -0.0591, 0.7427 0.0478 -0.0591, 0.7325 0.0458 -0.0591, 0.742 0.0561 -0.0591, 0.7314 0.0563 -0.0591, 0.7427 0.0639 -0.0591, 0.732 0.0637 -0.0591, 0.7445 0.0701 -0.0591, 0.7734 0.0159 -0.0551, 0.7948 0.0159 -0.0551, 0.7637 0.0168 -0.0551, 0.7546 0.0195 -0.0551, 0.7464 0.0243 -0.0551, 0.7399 0.0305 -0.0551, 0.7354 0.0375 -0.0551, 0.7325 0.0458 -0.0551, 0.7314 0.0563 -0.0551, 0.732 0.0637 -0.0551, 0.7341 0.0715 -0.0551, 0.7378 0.0782 -0.0551, 0.7433 0.0844 -0.0551, 0.7434 0.0845 -0.0551, 0.752 0.0902 -0.0551, 0.7612 0.0935 -0.0551, 0.7726 0.0947 -0.0551, 0.7948 0.0947 -0.0551, 0.7726 0.086 -0.0551, 0.7842 0.086 -0.0551, 0.7842 0.0246 -0.0551, 0.7731 0.0246 -0.0551, 0.742 0.0561 -0.0551, 0.7427 0.0478 -0.0551, 0.745 0.0404 -0.0551, 0.7483 0.035 -0.0551, 0.7528 0.0306 -0.0551, 0.7581 0.0274 -0.0551, 0.7648 0.0253 -0.0551, 0.7633 0.085 -0.0551, 0.7568 0.0828 -0.0551, 0.7511 0.079 -0.0551, 0.7472 0.075 -0.0551, 0.7445 0.0701 -0.0551, 0.7427 0.0639 -0.0551
            ]
        }
        coordIndex [
            0,1,2,-1,2,1,3,-1,4,0,5,-1,5,0,2,-1,6,4,7,-1,7,4,5,-1,8,6,9,-1,9,6,7,-1,10,8,11,-1,11,8,9,-1,1,10,3,-1,3,10,11,-1,6,8,4,-1,4,8,10,-1,4,10,0,-1,0,10,1,-1,12,13,14,-1,14,13,15,-1,12,14,16,-1,12,16,17,-1,17,16,18,-1,17,18,19,-1,19,18,20,-1,19,20,21,-1,21,20,22,-1,21,22,23,-1,23,22,24,-1,23,24,25,-1,24,26,25,-1,25,26,27,-1,25,27,28,-1,28,27,29,-1,28,29,30,-1,30,29,31,-1,30,31,32,-1,32,31,33,-1,32,33,34,-1,34,33,35,-1,34,35,36,-1,37,38,39,-1,39,38,40,-1,39,40,41,-1,41,40,42,-1,41,42,43,-1,43,42,44,-1,43,44,45,-1,45,44,36,-1,45,36,35,-1,46,47,37,-1,37,47,48,-1,37,48,38,-1,46,49,47,-1,47,49,50,-1,47,50,51,-1,51,50,52,-1,51,52,53,-1,53,52,54,-1,53,54,55,-1,56,55,57,-1,57,55,54,-1,56,57,58,-1,56,58,59,-1,59,58,60,-1,59,60,61,-1,61,60,62,-1,61,62,63,-1,63,62,64,-1,63,64,65,-1,64,66,65,-1,65,66,67,-1,65,67,68,-1,68,67,69,-1,68,69,70,-1,70,69,71,-1,70,71,72,-1,72,71,73,-1,72,73,74,-1,74,73,75,-1,74,75,76,-1,77,78,79,-1,77,79,80,-1,80,79,81,-1,80,81,82,-1,82,81,83,-1,82,83,84,-1,84,83,85,-1,84,85,86,-1,86,85,87,-1,86,87,88,-1,88,87,89,-1,88,89,90,-1,90,89,91,-1,90,91,92,-1,92,91,76,-1,92,76,75,-1,15,13,93,-1,79,78,94,-1,79,94,95,-1,95,94,96,-1,95,96,93,-1,93,96,97,-1,93,97,15,-1,23,79,21,-1,21,79,95,-1,21,95,19,-1,19,95,93,-1,19,93,17,-1,17,93,13,-1,17,13,12,-1,55,56,53,-1,53,56,59,-1,53,59,51,-1,51,59,61,-1,51,61,47,-1,47,61,63,-1,47,63,48,-1,48,63,65,-1,48,65,38,-1,38,65,68,-1,38,68,40,-1,40,68,70,-1,40,70,42,-1,42,70,72,-1,42,72,44,-1,44,72,74,-1,44,74,36,-1,36,74,76,-1,36,76,34,-1,34,76,91,-1,34,91,32,-1,32,91,89,-1,32,89,30,-1,30,89,87,-1,30,87,28,-1,28,87,85,-1,28,85,25,-1,25,85,83,-1,25,83,23,-1,23,83,81,-1,23,81,79,-1,98,99,100,-1,100,99,101,-1,102,98,103,-1,103,98,100,-1,104,102,105,-1,105,102,103,-1,106,104,107,-1,107,104,105,-1,108,106,109,-1,109,106,107,-1,110,108,111,-1,111,108,109,-1,112,110,113,-1,113,110,111,-1,114,112,115,-1,115,112,113,-1,116,114,117,-1,117,114,115,-1,118,116,119,-1,119,116,117,-1,120,118,121,-1,121,118,119,-1,99,120,101,-1,101,120,121,-1,120,99,98,-1,98,102,120,-1,120,102,104,-1,120,104,118,-1,114,116,112,-1,112,116,118,-1,112,118,110,-1,110,118,104,-1,110,104,108,-1,108,104,106,-1,122,123,124,-1,124,123,125,-1,124,125,126,-1,126,125,127,-1,126,127,128,-1,128,127,129,-1,128,129,130,-1,130,129,131,-1,130,131,132,-1,132,131,133,-1,132,133,134,-1,134,133,135,-1,134,135,136,-1,136,135,137,-1,136,137,138,-1,138,137,139,-1,138,139,140,-1,140,139,141,-1,140,141,142,-1,142,141,143,-1,142,143,144,-1,144,143,145,-1,144,145,146,-1,146,145,147,-1,146,147,148,-1,148,147,149,-1,148,149,150,-1,150,149,151,-1,150,151,152,-1,152,151,153,-1,152,153,154,-1,154,153,155,-1,154,155,156,-1,156,155,122,-1,156,122,124,-1,139,137,157,-1,157,137,158,-1,139,157,159,-1,139,159,141,-1,141,159,160,-1,141,160,143,-1,143,160,161,-1,143,161,145,-1,145,161,162,-1,145,162,147,-1,147,162,163,-1,147,163,149,-1,149,163,164,-1,149,164,151,-1,151,164,165,-1,151,165,153,-1,153,165,166,-1,153,166,155,-1,155,166,167,-1,155,167,122,-1,122,167,168,-1,122,168,123,-1,123,168,169,-1,123,169,125,-1,125,169,170,-1,125,170,127,-1,127,170,171,-1,127,171,129,-1,129,171,172,-1,129,172,131,-1,131,172,173,-1,131,173,133,-1,135,133,174,-1,174,133,173,-1,137,135,158,-1,158,135,174,-1,132,134,175,-1,175,134,176,-1,134,136,176,-1,176,136,177,-1,136,138,177,-1,177,138,178,-1,152,179,180,-1,152,180,150,-1,150,180,181,-1,150,181,148,-1,148,181,182,-1,148,182,146,-1,146,182,183,-1,146,183,144,-1,144,183,184,-1,144,184,142,-1,142,184,185,-1,142,185,140,-1,140,185,178,-1,140,178,138,-1,132,175,186,-1,132,186,130,-1,130,186,187,-1,130,187,128,-1,128,187,188,-1,128,188,126,-1,126,188,189,-1,126,189,124,-1,124,189,190,-1,124,190,156,-1,156,190,191,-1,156,191,154,-1,154,191,179,-1,154,179,152,-1,
        ]
    }
}
Shape{
    appearance Appearance {
        material  Material {
            diffuseColor 0.25098039215686274 0.25098039215686274 0.25098039215686274
            specularColor 0.12549019607843137 0.12549019607843137 0.12549019607843137
            ambientIntensity 0.251
            transparency 0.0
            shininess 0.5
        }
    }
    geometry IndexedFaceSet {
        ccw TRUE
        solid FALSE
        coord DEF co Coordinate {
            point [
                0.7842 0.086 -0.0551, 0.7842 0.0246 -0.0551, 0.7726 0.086 -0.0551, 0.7731 0.0246 -0.0551, 0.7648 0.0253 -0.0551, 0.742 0.0561 -0.0551, 0.7427 0.0639 -0.0551, 0.7445 0.0701 -0.0551, 0.7633 0.085 -0.0551, 0.7581 0.0274 -0.0551, 0.7528 0.0306 -0.0551, 0.7483 0.035 -0.0551, 0.745 0.0404 -0.0551, 0.7427 0.0478 -0.0551, 0.7472 0.075 -0.0551, 0.7511 0.079 -0.0551, 0.7568 0.0828 -0.0551
            ]
        }
        coordIndex [
            0,1,2,-1,2,1,3,-1,2,3,4,-1,5,6,2,-1,2,6,7,-1,2,7,8,-1,4,9,2,-1,2,9,10,-1,2,10,11,-1,11,12,2,-1,2,12,13,-1,2,13,5,-1,14,15,7,-1,7,15,16,-1,7,16,8,-1,
        ]
    }
}
Shape{
    appearance Appearance {
        material  Material {
            diffuseColor 1.0 1.0 1.0
            specularColor 0.8784313725490196 0.8784313725490196 0.8784313725490196
            ambientIntensity 1.0
            transparency 0.0
            shininess 0.5
        }
    }
    geometry IndexedFaceSet {
        ccw TRUE
        solid FALSE
        coord DEF co Coordinate {
            point [
                0.704 0.0467 -0.0591, 0.7066 0.038 -0.0591, 0.6776 0.0467 -0.0591, 0.6741 0.038 -0.0591, 0.6922 0.0795 -0.0591, 0.6959 0.0947 -0.0591, 0.7257 0.0159 -0.0591, 0.7141 0.0159 -0.0591, 0.6915 0.0823 -0.0591, 0.691 0.0851 -0.0591, 0.6853 0.0947 -0.0591, 0.6907 0.0851 -0.0591, 0.6902 0.0823 -0.0591, 0.6895 0.0795 -0.0591, 0.6546 0.0159 -0.0591, 0.6661 0.0159 -0.0591, 0.6853 0.0947 -0.0551, 0.6546 0.0159 -0.0551, 0.6959 0.0947 -0.0551, 0.7257 0.0159 -0.0551, 0.7141 0.0159 -0.0551, 0.7066 0.038 -0.0551, 0.6741 0.038 -0.0551, 0.6661 0.0159 -0.0551, 0.704 0.0467 -0.0551, 0.6776 0.0467 -0.0551, 0.6895 0.0795 -0.0551, 0.6907 0.0851 -0.0551, 0.6902 0.0823 -0.0551, 0.691 0.0851 -0.0551, 0.6922 0.0795 -0.0551, 0.6915 0.0823 -0.0551
            ]
        }
        coordIndex [
            0,1,2,-1,2,1,3,-1,4,5,0,-1,0,5,6,-1,0,6,1,-1,1,6,7,-1,4,8,5,-1,5,8,9,-1,5,9,10,-1,10,9,11,-1,10,11,12,-1,12,13,10,-1,10,13,2,-1,10,2,14,-1,14,2,3,-1,14,3,15,-1,10,14,16,-1,16,14,17,-1,5,10,18,-1,18,10,16,-1,6,5,19,-1,19,5,18,-1,7,6,20,-1,20,6,19,-1,1,7,21,-1,21,7,20,-1,3,1,22,-1,22,1,21,-1,15,3,23,-1,23,3,22,-1,14,15,17,-1,17,15,23,-1,0,2,24,-1,24,2,25,-1,2,13,25,-1,25,13,26,-1,11,27,28,-1,11,28,12,-1,12,28,26,-1,12,26,13,-1,11,9,27,-1,27,9,29,-1,4,30,31,-1,4,31,8,-1,8,31,29,-1,8,29,9,-1,4,0,30,-1,30,0,24,-1,
        ]
    }
}
Shape{
    appearance Appearance {
        material  Material {
            diffuseColor 0.25098039215686274 0.25098039215686274 0.25098039215686274
            specularColor 0.12549019607843137 0.12549019607843137 0.12549019607843137
            ambientIntensity 0.251
            transparency 0.0
            shininess 0.5
        }
    }
    geometry IndexedFaceSet {
        ccw TRUE
        solid FALSE
        coord DEF co Coordinate {
            point [
                0.704 0.0467 -0.0551, 0.6776 0.0467 -0.0551, 0.6922 0.0795 -0.0551, 0.6895 0.0795 -0.0551, 0.6915 0.0823 -0.0551, 0.6902 0.0823 -0.0551, 0.691 0.0851 -0.0551, 0.6907 0.0851 -0.0551, 1.2845 -0.689 0.7717, 1.3189 -0.689 1.1654, 1.2845 -0.5315 0.7717, 1.3189 -0.5315 1.1654, 1.3189 0.689 1.1654, 1.2845 0.689 0.7717, 1.3189 0.5315 1.1654, 1.2845 0.5315 0.7717
            ]
        }
        coordIndex [
            0,1,2,-1,2,1,3,-1,2,3,4,-1,4,3,5,-1,4,5,6,-1,6,5,7,-1,8,9,10,-1,10,9,11,-1,12,13,14,-1,14,13,15,-1,
        ]
    }
}
Shape{
    appearance Appearance {
        material  Material {
            diffuseColor 1.0 1.0 1.0
            specularColor 0.5019607843137255 0.5019607843137255 0.5019607843137255
            ambientIntensity 1.0
            transparency 0.0
            shininess 0.5
        }
    }
    geometry IndexedFaceSet {
        ccw TRUE
        solid FALSE
        coord DEF co Coordinate {
            point [
                0.7034 0.689 1.0276, 0.7073 0.689 1.0371, 1.2682 0.689 0.811, 1.2992 0.689 1.1654, 0.7087 0.689 1.0472, 0.7087 0.689 1.1654, 0.2513 0.689 0.811, 0.2513 0.689 1.0079, 0.6693 0.689 1.0079, 0.6795 0.689 1.0092, 0.689 0.689 1.0131, 0.6971 0.689 1.0194, 1.2992 -0.689 1.1654, 0.7087 -0.689 1.1654, 0.7087 -0.689 1.0472, 0.7034 -0.689 1.0276, 0.6971 -0.689 1.0194, 1.2682 -0.689 0.811, 0.2513 -0.689 1.0079, 0.2513 -0.689 0.811, 0.6693 -0.689 1.0079, 0.7073 -0.689 1.0371, 0.689 -0.689 1.0131, 0.6795 -0.689 1.0092, 1.5256 0.689 1.1654, 1.2992 0.6102 1.1654, 1.5256 0.2953 1.1654, 1.5453 0.2612 1.1654, 1.5548 0.2572 1.1654, 1.7126 -0.2559 1.1654, 1.565 0.2559 1.1654, 1.7126 0.2559 1.1654, 1.5256 -0.689 1.1654, 1.5256 -0.2953 1.1654, 1.2992 -0.6102 1.1654, 1.5269 -0.2851 1.1654, 1.5309 -0.2756 1.1654, 0.6882 0.3171 1.1654, 0.6858 0.3228 1.1654, 1.5371 -0.2674 1.1654, -1.2598 0.6772 1.1654, -1.2598 0.6496 1.1654, -1.2717 0.689 1.1654, -1.5164 0.6887 1.1654, -1.5138 0.689 1.1654, -1.5256 0.6772 1.1654, -1.5244 0.6823 1.1654, -1.523 0.6845 1.1654, -1.5211 0.6864 1.1654, -0.6858 0.3228 1.1654, -0.6882 0.3171 1.1654, -1.2402 0.6155 1.1654, 1.5269 0.2851 1.1654, 1.5309 0.2756 1.1654, 1.5371 0.2674 1.1654, -0.689 -0.311 1.1654, -0.6882 -0.3171 1.1654, -1.2307 -0.6116 1.1654, -1.5253 0.6798 1.1654, -1.2402 -0.6155 1.1654, -1.2483 -0.6218 1.1654, -1.5256 -0.2953 1.1654, -1.2546 -0.6299 1.1654, -1.5256 -0.6772 1.1654, -1.2585 -0.6394 1.1654, -1.2598 -0.6496 1.1654, -1.5189 0.6878 1.1654, 0.6772 0.3315 1.1654, 0.6715 0.3338 1.1654, 0.6693 0.6102 1.1654, 0.6654 0.3346 1.1654, -1.2205 0.6102 1.1654, -1.2585 0.6394 1.1654, -1.5309 0.2756 1.1654, -1.5269 0.2851 1.1654, -1.5453 -0.2612 1.1654, -1.5548 0.2572 1.1654, -1.5453 0.2612 1.1654, -0.6821 -0.3277 1.1654, -0.6772 -0.3315 1.1654, -1.2205 -0.6102 1.1654, 1.565 -0.2559 1.1654, 1.5548 -0.2572 1.1654, 1.5453 -0.2612 1.1654, -0.6654 0.3346 1.1654, -0.6715 0.3338 1.1654, -1.2307 0.6116 1.1654, -0.6772 0.3315 1.1654, -0.6821 0.3277 1.1654, -1.5371 0.2674 1.1654, -1.2483 0.6218 1.1654, -1.2546 0.6299 1.1654, -1.5256 0.2953 1.1654, -0.6858 -0.3228 1.1654, 0.6821 -0.3277 1.1654, 0.6772 -0.3315 1.1654, 0.6693 -0.6102 1.1654, 0.6715 -0.3338 1.1654, 0.6821 0.3277 1.1654, -1.2717 -0.689 1.1654, -1.2598 -0.6772 1.1654, -1.2657 0.6874 1.1654, -1.2633 0.6855 1.1654, -1.2686 0.6886 1.1654, -1.2614 0.6831 1.1654, -1.2602 0.6802 1.1654, -1.565 -0.2559 1.1654, -1.7126 -0.2559 1.1654, -1.7126 0.2559 1.1654, -1.5371 -0.2674 1.1654, -1.5309 -0.2756 1.1654, -0.689 0.311 1.1654, -1.5269 -0.2851 1.1654, 0.6858 -0.3228 1.1654, 0.6882 -0.3171 1.1654, 0.689 -0.311 1.1654, 0.689 0.311 1.1654, -1.5138 -0.689 1.1654, -1.5252 -0.6802 1.1654, -1.5548 -0.2572 1.1654, -1.565 0.2559 1.1654, -1.5168 -0.6886 1.1654, -1.5197 -0.6874 1.1654, -0.6715 -0.3338 1.1654, -0.6654 -0.3346 1.1654, 0.6654 -0.3346 1.1654, -1.2601 -0.6798 1.1654, -1.2665 -0.6878 1.1654, -1.269 -0.6887 1.1654, -1.261 -0.6823 1.1654, -1.2624 -0.6845 1.1654, -1.2643 -0.6864 1.1654, -1.5221 -0.6855 1.1654, -1.524 -0.6831 1.1654, -1.5138 0.689 1.2047, -1.2717 0.689 1.2047, 1.7913 0.689 0.6535, 1.7913 0.689 0.4567, 1.752 0.689 0.6535, 1.752 0.689 0.4567, -1.5138 -0.689 1.2047, -1.2717 -0.689 1.2047, 1.7913 -0.689 0.4567, 1.7913 -0.689 0.6535, 1.752 -0.689 0.4567, 1.752 -0.689 0.6535, 1.7913 -0.238 0.6848, 1.7913 -0.2404 0.6808, 1.7913 0.6496 0.4173, 1.7913 0.2523 0.6736, 1.7913 0.2478 0.675, 1.7913 -0.2365 0.6893, 1.7913 0.2438 0.6774, 1.7913 0.2404 0.6808, 1.7913 -0.2363 0.6941, 1.7913 0.254 0.7427, 1.7913 -0.2371 0.6987, 1.7913 0.2559 0.7639, 1.7913 -0.239 0.7031, 1.7913 0.2371 0.6987, 1.7913 0.239 0.7031, 1.7913 0.2483 0.7222, 1.7913 -0.2438 0.6774, 1.7913 -0.2478 0.675, 1.7913 -0.2523 0.6736, 1.7913 -0.6496 0.6929, 1.7913 -0.6598 0.6916, 1.7913 -0.6693 0.6876, 1.7913 0.6693 0.4226, 1.7913 0.6774 0.4289, 1.7913 0.6837 0.437, 1.7913 -0.2852 0.6853, 1.7913 -0.3057 0.691, 1.7913 -0.266 0.676, 1.7913 -0.2617 0.6741, 1.7913 0.2852 0.6853, 1.7913 0.266 0.676, 1.7913 0.2617 0.6741, 1.7913 0.2571 0.6733, 1.7913 0.2559 1.1654, 1.7913 -0.2559 1.1654, 1.7913 -0.2559 0.7639, 1.7913 0.238 0.6848, 1.7913 0.2365 0.6893, 1.7913 0.2363 0.6941, 1.7913 0.6876 0.4465, 1.7913 -0.6693 0.4226, 1.7913 -0.6876 0.4465, 1.7913 -0.6774 0.4289, 1.7913 -0.6837 0.437, 1.7913 -0.6598 0.4187, 1.7913 -0.6496 0.4173, 1.7913 -0.2571 0.6733, 1.7913 -0.3269 0.6929, 1.7913 0.6496 0.6929, 1.7913 0.3269 0.6929, 1.7913 -0.254 0.7427, 1.7913 -0.2483 0.7222, 1.7913 0.6598 0.4187, 1.7913 -0.6774 0.6814, 1.7913 -0.6837 0.6732, 1.7913 -0.6876 0.6637, 1.7913 0.3057 0.691, 1.7913 0.6837 0.6732, 1.7913 0.6774 0.6814, 1.7913 0.6693 0.6876, 1.7913 0.6876 0.6637, 1.7913 0.6598 0.6916, 1.752 -0.2559 1.126, 1.752 0.2559 1.126, 1.752 0.2559 0.7639, 1.752 0.2371 0.6987, 1.752 -0.2559 0.7639, 1.752 0.239 0.7031, 1.752 0.2438 0.6774, 1.752 -0.6496 0.4173, 1.752 0.2404 0.6808, 1.752 0.238 0.6848, 1.752 0.2365 0.6893, 1.752 -0.2365 0.6893, 1.752 0.254 0.7427, 1.752 0.2483 0.7222, 1.752 -0.239 0.7031, 1.752 -0.2483 0.7222, 1.752 -0.254 0.7427, 1.752 0.2478 0.675, 1.752 0.2523 0.6736, 1.752 0.6496 0.4173, 1.752 0.2571 0.6733, 1.752 0.2617 0.6741, 1.752 0.266 0.676, 1.752 0.2852 0.6853, 1.752 0.3057 0.691, 1.752 -0.2438 0.6774, 1.752 -0.2404 0.6808, 1.752 -0.238 0.6848, 1.752 0.2363 0.6941, 1.752 -0.2363 0.6941, 1.752 -0.2371 0.6987, 1.752 -0.6496 0.6929, 1.752 -0.3269 0.6929, 1.752 -0.2617 0.6741, 1.752 -0.2571 0.6733, 1.752 -0.2523 0.6736, 1.752 -0.2478 0.675, 1.752 0.3269 0.6929, 1.752 0.6496 0.6929, 1.752 0.6598 0.6916, 1.752 0.6693 0.6876, 1.752 0.6774 0.6814, 1.752 0.6837 0.6732, 1.752 0.6876 0.6637, 1.752 -0.3057 0.691, 1.752 -0.2852 0.6853, 1.752 -0.266 0.676, 1.752 0.6693 0.4226, 1.752 0.6876 0.4465, 1.752 0.6774 0.4289, 1.752 0.6837 0.437, 1.752 0.6598 0.4187, 1.752 -0.6774 0.4289, 1.752 -0.6837 0.437, 1.752 -0.6693 0.4226, 1.752 -0.6876 0.4465, 1.752 -0.6598 0.4187, 1.752 -0.6837 0.6732, 1.752 -0.6774 0.6814, 1.752 -0.6693 0.6876, 1.752 -0.6876 0.6637, 1.752 -0.6598 0.6916, -1.7913 0.689 0.4567, -1.7913 0.689 0.6535, -1.752 0.689 0.4567, -1.752 0.689 0.6535, -1.7913 0.6598 0.4187, -1.7913 0.6496 0.4173, -1.7913 0.3269 0.6929, -1.7913 0.2404 0.6808, -1.7913 0.2438 0.6774, -1.7913 -0.6496 0.4173, -1.7913 0.238 0.6848, -1.7913 -0.266 0.676, -1.7913 -0.2617 0.6741, -1.7913 -0.689 0.4567, -1.7913 0.2478 0.675, -1.7913 0.2523 0.6736, -1.7913 0.2365 0.6893, -1.7913 -0.2438 0.6774, -1.7913 -0.2404 0.6808, -1.7913 -0.6496 0.6929, -1.7913 -0.3269 0.6929, -1.7913 -0.2571 0.6733, -1.7913 -0.2523 0.6736, -1.7913 -0.2478 0.675, -1.7913 0.2483 0.7222, -1.7913 0.239 0.7031, -1.7913 -0.2371 0.6987, -1.7913 0.2371 0.6987, -1.7913 0.2363 0.6941, -1.7913 -0.2559 1.1654, -1.7913 0.2559 1.1654, -1.7913 -0.2559 0.7639, -1.7913 0.2559 0.7639, -1.7913 -0.6693 0.4226, -1.7913 -0.6774 0.4289, -1.7913 0.2571 0.6733, -1.7913 0.2617 0.6741, -1.7913 0.266 0.676, -1.7913 -0.238 0.6848, -1.7913 -0.2365 0.6893, -1.7913 -0.2363 0.6941, -1.7913 -0.239 0.7031, -1.7913 -0.2483 0.7222, -1.7913 -0.254 0.7427, -1.7913 -0.6837 0.437, -1.7913 -0.6876 0.4465, -1.7913 -0.3057 0.691, -1.7913 -0.2852 0.6853, -1.7913 0.254 0.7427, -1.7913 -0.6598 0.4187, -1.7913 0.2852 0.6853, -1.7913 0.3057 0.691, -1.7913 -0.6693 0.6876, -1.7913 -0.6876 0.6637, -1.7913 -0.6774 0.6814, -1.7913 -0.6837 0.6732, -1.7913 -0.689 0.6535, -1.7913 -0.6598 0.6916, -1.7913 0.6693 0.6876, -1.7913 0.6774 0.6814, -1.7913 0.6837 0.6732, -1.7913 0.6876 0.4465, -1.7913 0.6837 0.437, -1.7913 0.6496 0.6929, -1.7913 0.6598 0.6916, -1.7913 0.6876 0.6637, -1.7913 0.6774 0.4289, -1.7913 0.6693 0.4226, -1.752 -0.689 0.4567, -1.752 -0.689 0.6535, -1.2546 -0.6299 1.2047, -1.2483 -0.6218 1.2047, -1.5256 -0.2953 1.2047, -1.5269 0.2851 1.2047, -1.5309 0.2756 1.2047, -1.5453 -0.2612 1.2047, 0.689 -0.311 1.2047, 0.6882 -0.3171 1.2047, 1.5256 -0.6496 1.2047, -1.5256 0.2953 1.2047, -1.5371 -0.2674 1.2047, -1.5309 -0.2756 1.2047, 1.5309 -0.2756 1.2047, 1.5371 -0.2674 1.2047, 0.6858 0.3228 1.2047, 1.5548 0.2572 1.2047, 1.5453 -0.2612 1.2047, -1.5371 0.2674 1.2047, -1.5453 0.2612 1.2047, -1.5548 0.2572 1.2047, -1.2598 -0.6772 1.2047, -1.2598 -0.6496 1.2047, -1.2546 0.6299 1.2047, -1.2585 0.6394 1.2047, -1.5256 0.6772 1.2047, -1.2598 0.6496 1.2047, 0.7001 0.6251 1.2047, 0.6938 0.6188 1.2047, 0.6715 0.3338 1.2047, 1.5256 -0.2953 1.2047, 1.5269 -0.2851 1.2047, 0.689 0.311 1.2047, 0.6882 0.3171 1.2047, 1.565 -0.2559 1.2047, 1.752 -0.2559 1.2047, 1.752 0.2559 1.2047, 0.6772 0.3315 1.2047, 0.6821 0.3277 1.2047, 1.5256 0.6496 1.2047, 1.5256 0.2953 1.2047, 1.5269 0.2851 1.2047, -1.752 0.2559 1.2047, -1.752 -0.2559 1.2047, -1.565 0.2559 1.2047, -1.565 -0.2559 1.2047, -1.5548 -0.2572 1.2047, 0.6858 -0.3228 1.2047, 0.6821 -0.3277 1.2047, 0.7087 -0.6496 1.2047, 0.6772 -0.3315 1.2047, 0.6715 -0.3338 1.2047, -0.6715 -0.3338 1.2047, -0.6772 -0.3315 1.2047, -1.2205 -0.6102 1.2047, -0.689 0.311 1.2047, -0.6882 0.3171 1.2047, -1.2402 0.6155 1.2047, -0.6772 0.3315 1.2047, -1.2205 0.6102 1.2047, -0.6821 0.3277 1.2047, -0.6858 0.3228 1.2047, 1.5548 -0.2572 1.2047, 1.565 0.2559 1.2047, -1.5269 -0.2851 1.2047, -1.2307 -0.6116 1.2047, -1.2402 -0.6155 1.2047, 0.689 -0.6155 1.2047, 0.6971 -0.6218 1.2047, -0.6821 -0.3277 1.2047, -0.6858 -0.3228 1.2047, -0.6882 -0.3171 1.2047, -0.689 -0.311 1.2047, -1.2307 0.6116 1.2047, 0.7087 0.6496 1.2047, 0.7077 0.6408 1.2047, 0.7048 0.6325 1.2047, 1.5453 0.2612 1.2047, 1.5371 0.2674 1.2047, 1.5309 0.2756 1.2047, -1.2585 -0.6394 1.2047, -1.5256 -0.6772 1.2047, 0.6795 -0.6116 1.2047, 0.7034 -0.6299 1.2047, 0.7073 -0.6394 1.2047, -1.2598 0.6772 1.2047, -1.5211 0.6864 1.2047, -1.523 0.6845 1.2047, -1.5244 0.6823 1.2047, -1.524 -0.6831 1.2047, -1.5221 -0.6855 1.2047, -1.5197 -0.6874 1.2047, -1.2483 0.6218 1.2047, -1.5164 0.6887 1.2047, -1.5189 0.6878 1.2047, -1.5253 0.6798 1.2047, -1.5252 -0.6802 1.2047, -1.5168 -0.6886 1.2047, -1.2624 -0.6845 1.2047, -1.261 -0.6823 1.2047, -1.2643 -0.6864 1.2047, -1.2665 -0.6878 1.2047, -1.269 -0.6887 1.2047, -1.2601 -0.6798 1.2047, -1.2602 0.6802 1.2047, -1.2614 0.6831 1.2047, -1.2686 0.6886 1.2047, -1.2633 0.6855 1.2047, -1.2657 0.6874 1.2047, -0.6715 0.3338 1.2047, -0.6654 0.3346 1.2047, 0.6693 0.6102 1.2047, 0.6654 0.3346 1.2047, 0.6781 0.6112 1.2047, 0.6864 0.6141 1.2047, 0.6693 -0.6102 1.2047, 0.6654 -0.3346 1.2047, -0.6654 -0.3346 1.2047, -1.752 0.2617 0.6741, -1.752 0.2571 0.6733, -1.752 0.6496 0.4173, -1.752 -0.6496 0.4173, -1.752 0.2523 0.6736, -1.752 0.2478 0.675, -1.752 0.2365 0.6893, -1.752 0.238 0.6848, -1.752 -0.6876 0.4465, -1.752 -0.6837 0.437, -1.752 0.2438 0.6774, -1.752 0.2404 0.6808, -1.752 -0.6598 0.4187, -1.752 -0.238 0.6848, -1.752 -0.2404 0.6808, -1.752 -0.6496 0.6929, -1.752 -0.6598 0.6916, -1.752 -0.6693 0.6876, -1.752 0.6496 0.6929, -1.752 0.3269 0.6929, -1.752 0.3057 0.691, -1.752 -0.6774 0.4289, -1.752 -0.6693 0.4226, -1.752 0.2483 0.7222, -1.752 0.254 0.7427, -1.752 -0.2559 1.126, -1.752 0.2559 0.7639, -1.752 0.2559 1.126, -1.752 -0.2852 0.6853, -1.752 -0.3057 0.691, -1.752 -0.266 0.676, -1.752 -0.2617 0.6741, -1.752 0.2852 0.6853, -1.752 0.266 0.676, -1.752 -0.2559 0.7639, -1.752 -0.254 0.7427, -1.752 0.2371 0.6987, -1.752 -0.2483 0.7222, -1.752 0.239 0.7031, -1.752 -0.2571 0.6733, -1.752 -0.6774 0.6814, -1.752 -0.6837 0.6732, -1.752 -0.3269 0.6929, -1.752 -0.239 0.7031, -1.752 -0.2371 0.6987, -1.752 0.2363 0.6941, -1.752 -0.2363 0.6941, -1.752 -0.2365 0.6893, -1.752 -0.6876 0.6637, -1.752 0.6876 0.6637, -1.752 0.6693 0.6876, -1.752 0.6837 0.6732, -1.752 0.6774 0.6814, -1.752 -0.2438 0.6774, -1.752 -0.2478 0.675, -1.752 -0.2523 0.6736, -1.752 0.6598 0.6916, -1.752 0.6876 0.4465, -1.752 0.6598 0.4187, -1.752 0.6693 0.4226, -1.752 0.6774 0.4289, -1.752 0.6837 0.437, -1.79 0.2559 1.1755, -1.7467 0.2559 1.1457, -1.7861 0.2559 1.185, -1.7404 0.2559 1.1538, -1.7506 0.2559 1.1362, -1.7228 0.2559 1.164, -1.7622 0.2559 1.2034, -1.7323 0.2559 1.1601, -1.7717 0.2559 1.1994, -1.7798 0.2559 1.1932, -1.7228 -0.2559 1.164, -1.7323 -0.2559 1.1601, -1.7506 -0.2559 1.1362, -1.79 -0.2559 1.1755, -1.7467 -0.2559 1.1457, -1.7861 -0.2559 1.185, -1.7404 -0.2559 1.1538, -1.7622 -0.2559 1.2034, -1.7717 -0.2559 1.1994, -1.7798 -0.2559 1.1932, 1.7717 0.2559 1.1994, 1.7798 0.2559 1.1932, 1.7371 0.2559 1.1568, 1.7434 0.2559 1.1505, 1.7622 0.2559 1.2034, 1.7297 0.2559 1.1615, 1.7214 0.2559 1.1644, 1.751 0.2559 1.1347, 1.7481 0.2559 1.1431, 1.79 0.2559 1.1755, 1.7861 0.2559 1.185, 1.7214 -0.2559 1.1644, 1.7297 -0.2559 1.1615, 1.7622 -0.2559 1.2034, 1.7371 -0.2559 1.1568, 1.7717 -0.2559 1.1994, 1.7798 -0.2559 1.1932, 1.7434 -0.2559 1.1505, 1.7861 -0.2559 1.185, 1.79 -0.2559 1.1755, 1.7481 -0.2559 1.1431, 1.751 -0.2559 1.1347, 0.7087 -0.6498 1.0472, 0.7087 -0.6876 1.1755, 0.7087 -0.6837 1.185, 0.7087 -0.6774 1.1932, 0.7087 -0.6693 1.1994, 0.7087 -0.6598 1.2034, 0.7087 -0.6496 1.126, 0.7087 -0.6496 0.811, 0.7087 -0.6498 0.811, 1.2958 -0.6496 1.126, 1.2682 -0.6496 0.811, -0.1103 -0.689 0.811, -0.1304 -0.6551 0.811, -0.0457 -0.6505 0.811, -0.0516 -0.6082 0.811, -0.0243 -0.6406 0.811, -0.0302 -0.5982 0.811, -0.0015 -0.635 0.811, -0.0072 -0.5927 0.811, 0.0221 -0.6341 0.811, 0.0164 -0.5919 0.811, 0.0453 -0.6379 0.811, 0.0397 -0.5957 0.811, 0.2208 -0.685 0.811, 0.2241 -0.6456 0.811, 0.2359 -0.688 0.811, 0.2394 -0.6487 0.811, 0.2549 -0.6498 0.811, 0.7087 0.6498 1.0472, 0.7087 0.6876 1.1755, 0.7087 0.6496 1.126, 0.7087 0.6496 0.811, 0.7087 0.6498 0.811, 0.7087 0.6693 1.1994, 0.7087 0.6598 1.2034, 0.7087 0.6774 1.1932, 0.7087 0.6837 1.185, 1.2958 0.6496 1.126, 1.2682 0.6496 0.811, -0.1304 0.6551 0.811, -0.1103 0.689 0.811, -0.0516 0.6082 0.811, -0.0457 0.6505 0.811, -0.0302 0.5982 0.811, -0.0243 0.6406 0.811, -0.0072 0.5927 0.811, -0.0015 0.635 0.811, 0.0164 0.5919 0.811, 0.0221 0.6341 0.811, 0.0397 0.5957 0.811, 0.0453 0.6379 0.811, 0.2241 0.6456 0.811, 0.2208 0.685 0.811, 0.2394 0.6487 0.811, 0.2359 0.688 0.811, 0.2549 0.6498 0.811, 0.2549 -0.6498 1.0079, 0.6693 -0.6498 1.0079, 0.6795 -0.6498 1.0092, 0.689 -0.6498 1.0131, 0.6971 -0.6498 1.0194, 0.7034 -0.6498 1.0276, 0.7073 -0.6498 1.0371, 0.2241 -0.6456 1.0079, 0.0397 -0.5957 1.0079, -0.0516 -0.6082 1.0079, -0.1304 -0.6551 1.0079, -0.1103 -0.689 1.0079, -0.0457 -0.6505 1.0079, 0.0453 -0.6379 1.0079, 0.2208 -0.685 1.0079, -0.0302 -0.5982 1.0079, -0.0243 -0.6406 1.0079, -0.0072 -0.5927 1.0079, -0.0015 -0.635 1.0079, 0.0164 -0.5919 1.0079, 0.0221 -0.6341 1.0079, 0.2394 -0.6487 1.0079, 0.2359 -0.688 1.0079, 0.7073 0.6498 1.0371, 0.7034 0.6498 1.0276, 0.6971 0.6498 1.0194, 0.689 0.6498 1.0131, 0.2549 0.6498 1.0079, 0.6693 0.6498 1.0079, 0.6795 0.6498 1.0092, 0.0453 0.6379 1.0079, 0.2208 0.685 1.0079, -0.0457 0.6505 1.0079, -0.1103 0.689 1.0079, -0.1304 0.6551 1.0079, -0.0516 0.6082 1.0079, 0.0397 0.5957 1.0079, 0.2241 0.6456 1.0079, 0.2394 0.6487 1.0079, 0.2359 0.688 1.0079, 0.0164 0.5919 1.0079, 0.0221 0.6341 1.0079, -0.0072 0.5927 1.0079, -0.0015 0.635 1.0079, -0.0302 0.5982 1.0079, -0.0243 0.6406 1.0079, 1.5256 -0.6598 1.2034, 1.5256 -0.6693 1.1994, 1.5256 -0.6774 1.1932, 1.5256 -0.6837 1.185, 1.5256 -0.6876 1.1755, 1.5256 0.6837 1.185, 1.5256 0.6774 1.1932, 1.5256 0.6693 1.1994, 1.5256 0.6598 1.2034, 1.5256 0.6876 1.1755, 0.6864 0.6141 1.1652, 0.6781 0.6112 1.1653, 0.6957 0.6204 1.164, 0.6938 0.6188 1.1644, 0.7034 0.6299 1.1601, 0.7001 0.6251 1.1625, 0.7069 0.6381 1.1538, 0.7048 0.6325 1.1584, 0.7086 0.6483 1.1362, 0.7087 0.6493 1.1311, 0.7085 0.6466 1.1411, 0.7083 0.6443 1.1457, 0.7077 0.6408 1.1507, 0.7085 -0.6466 1.1411, 0.7086 -0.6483 1.1362, 0.7087 -0.6493 1.1311, 0.7034 -0.6299 1.1601, 0.7055 -0.6341 1.1573, 0.7068 -0.638 1.1537, 0.7073 -0.6394 1.1524, 0.7083 -0.6443 1.1457, 0.689 -0.6155 1.165, 0.6957 -0.6204 1.164, 0.6971 -0.6218 1.1636, 0.7006 -0.6257 1.1622, 0.6744 -0.6106 1.1654, 0.6795 -0.6116 1.1653, 0.6844 -0.6132 1.1652, 1.2967 -0.6483 1.1362, 1.2975 -0.6443 1.1457, 1.2982 -0.6381 1.1538, 1.299 -0.6253 1.1624, 1.2991 -0.6204 1.164, 1.2992 -0.6154 1.165, 1.2985 -0.6342 1.1572, 1.2988 -0.6299 1.1601, 1.2992 0.6154 1.165, 1.2967 0.6483 1.1362, 1.2975 0.6443 1.1457, 1.2991 0.6204 1.164, 1.299 0.6253 1.1624, 1.2988 0.6299 1.1601, 1.2985 0.6342 1.1572, 1.2982 0.6381 1.1538
            ]
        }
        coordIndex [
            0,1,2,-1,2,1,3,-1,3,1,4,-1,3,4,5,-1,6,7,2,-1,2,7,8,-1,2,8,9,-1,9,10,2,-1,2,10,11,-1,2,11,0,-1,12,13,14,-1,15,16,17,-1,18,19,20,-1,20,19,17,-1,12,14,17,-1,17,14,21,-1,17,21,15,-1,16,22,17,-1,17,22,23,-1,17,23,20,-1,3,24,25,-1,25,24,26,-1,27,28,29,-1,29,28,30,-1,29,30,31,-1,32,12,33,-1,33,12,34,-1,33,34,35,-1,35,34,36,-1,37,38,39,-1,40,41,42,-1,43,44,45,-1,46,47,48,-1,49,50,51,-1,26,52,25,-1,25,52,53,-1,25,53,29,-1,29,53,54,-1,29,54,27,-1,55,56,57,-1,46,48,58,-1,59,60,61,-1,61,60,62,-1,61,62,63,-1,63,62,64,-1,63,64,65,-1,58,48,45,-1,45,48,66,-1,45,66,43,-1,67,68,69,-1,69,68,70,-1,69,70,71,-1,72,73,74,-1,75,76,77,-1,78,79,80,-1,29,81,25,-1,25,81,82,-1,25,82,83,-1,70,84,71,-1,71,84,85,-1,71,85,86,-1,86,85,87,-1,86,87,51,-1,51,87,88,-1,51,88,49,-1,51,89,90,-1,90,89,73,-1,90,73,91,-1,91,73,72,-1,74,92,72,-1,72,92,45,-1,72,45,41,-1,41,45,44,-1,41,44,42,-1,57,56,80,-1,80,56,93,-1,80,93,78,-1,94,34,95,-1,95,34,96,-1,95,96,97,-1,67,69,98,-1,98,69,25,-1,98,25,38,-1,38,25,83,-1,38,83,39,-1,99,65,100,-1,101,102,103,-1,103,102,104,-1,103,104,42,-1,42,104,105,-1,42,105,40,-1,106,107,108,-1,77,89,75,-1,75,89,51,-1,75,51,109,-1,109,51,50,-1,109,50,110,-1,110,50,111,-1,110,111,112,-1,112,111,55,-1,112,55,61,-1,61,55,57,-1,61,57,59,-1,94,113,34,-1,34,113,114,-1,34,114,36,-1,36,114,115,-1,36,115,39,-1,39,115,116,-1,39,116,37,-1,65,99,63,-1,63,99,117,-1,63,117,118,-1,75,119,76,-1,76,119,106,-1,76,106,120,-1,120,106,108,-1,117,121,122,-1,79,123,80,-1,80,123,124,-1,80,124,96,-1,96,124,125,-1,96,125,97,-1,126,127,100,-1,100,127,128,-1,100,128,99,-1,126,129,127,-1,127,129,130,-1,127,130,131,-1,122,132,117,-1,117,132,133,-1,117,133,118,-1,134,135,44,-1,44,135,42,-1,136,137,138,-1,138,137,139,-1,117,99,140,-1,140,99,141,-1,142,143,144,-1,144,143,145,-1,146,147,148,-1,149,150,151,-1,151,150,152,-1,151,152,153,-1,154,155,156,-1,156,155,157,-1,156,157,158,-1,159,160,154,-1,154,160,161,-1,154,161,155,-1,147,162,148,-1,148,162,163,-1,148,163,164,-1,165,166,167,-1,168,169,151,-1,151,169,170,-1,171,172,173,-1,173,172,174,-1,175,176,137,-1,137,176,177,-1,137,177,178,-1,179,180,157,-1,157,180,181,-1,153,182,151,-1,151,182,183,-1,151,183,154,-1,154,183,184,-1,154,184,159,-1,178,149,137,-1,137,149,151,-1,137,151,185,-1,185,151,170,-1,186,187,188,-1,188,187,189,-1,186,190,187,-1,187,190,191,-1,187,191,142,-1,167,192,165,-1,165,192,174,-1,165,174,193,-1,193,174,172,-1,194,195,136,-1,181,196,157,-1,157,196,197,-1,157,197,158,-1,146,148,151,-1,151,148,198,-1,151,198,168,-1,167,199,192,-1,192,199,200,-1,192,200,201,-1,136,195,137,-1,137,195,202,-1,137,202,175,-1,201,143,192,-1,192,143,142,-1,192,142,164,-1,164,142,191,-1,164,191,148,-1,203,204,205,-1,136,206,194,-1,194,206,203,-1,194,203,207,-1,207,203,205,-1,208,209,210,-1,211,212,213,-1,213,212,208,-1,214,215,216,-1,216,215,217,-1,218,217,219,-1,210,220,208,-1,208,220,221,-1,208,221,213,-1,222,223,211,-1,211,223,224,-1,211,224,212,-1,214,225,215,-1,215,225,226,-1,215,226,227,-1,227,226,228,-1,227,228,229,-1,229,230,227,-1,227,230,231,-1,227,231,232,-1,233,234,217,-1,217,234,235,-1,217,235,219,-1,218,219,236,-1,236,219,237,-1,236,237,211,-1,211,237,238,-1,211,238,222,-1,239,240,145,-1,241,242,215,-1,215,242,243,-1,215,243,217,-1,217,243,244,-1,217,244,233,-1,232,245,227,-1,227,245,246,-1,227,246,138,-1,138,246,247,-1,138,247,248,-1,249,250,248,-1,248,250,251,-1,248,251,138,-1,252,253,215,-1,215,253,254,-1,215,254,241,-1,255,256,257,-1,257,256,258,-1,138,139,227,-1,227,139,256,-1,227,256,259,-1,259,256,255,-1,260,261,240,-1,260,240,262,-1,261,263,240,-1,240,263,144,-1,240,144,145,-1,252,215,240,-1,240,215,264,-1,240,264,262,-1,265,266,267,-1,145,268,239,-1,239,268,265,-1,239,265,269,-1,269,265,267,-1,270,271,272,-1,272,271,273,-1,274,275,276,-1,277,278,279,-1,277,279,280,-1,281,282,283,-1,278,284,279,-1,279,284,285,-1,279,285,275,-1,286,287,288,-1,289,290,283,-1,282,291,283,-1,283,291,292,-1,283,292,286,-1,286,292,293,-1,286,293,287,-1,294,295,296,-1,296,295,297,-1,296,297,298,-1,299,300,301,-1,301,300,302,-1,303,304,286,-1,285,305,275,-1,275,305,306,-1,275,306,307,-1,288,308,286,-1,286,308,309,-1,286,309,298,-1,298,309,310,-1,298,310,296,-1,311,312,302,-1,302,312,313,-1,302,313,301,-1,304,314,286,-1,286,314,315,-1,286,315,283,-1,290,316,283,-1,283,316,317,-1,283,317,281,-1,311,302,296,-1,296,302,318,-1,296,318,294,-1,280,279,286,-1,286,279,319,-1,286,319,303,-1,307,320,275,-1,275,320,321,-1,275,321,276,-1,322,323,324,-1,324,323,325,-1,283,326,289,-1,289,326,323,-1,289,323,327,-1,327,323,322,-1,328,329,330,-1,331,332,276,-1,333,334,271,-1,271,334,328,-1,271,328,335,-1,335,328,330,-1,333,271,276,-1,276,271,270,-1,276,270,331,-1,332,336,276,-1,276,336,337,-1,276,337,274,-1,338,339,283,-1,283,339,326,-1,340,341,342,-1,343,344,345,-1,346,347,348,-1,343,345,349,-1,349,345,350,-1,349,350,351,-1,352,353,354,-1,355,353,356,-1,344,357,345,-1,345,357,358,-1,345,358,359,-1,360,361,141,-1,362,363,364,-1,364,363,365,-1,366,367,368,-1,348,369,346,-1,346,369,370,-1,346,370,371,-1,371,370,352,-1,371,352,372,-1,372,352,354,-1,373,374,375,-1,376,377,378,-1,378,377,354,-1,378,354,379,-1,379,354,380,-1,381,382,383,-1,383,382,384,-1,383,384,359,-1,359,384,385,-1,359,385,345,-1,347,386,348,-1,348,386,387,-1,348,387,388,-1,388,387,389,-1,388,389,390,-1,391,392,393,-1,394,395,396,-1,397,398,399,-1,399,398,400,-1,356,401,355,-1,355,401,373,-1,355,373,402,-1,402,373,375,-1,351,403,349,-1,349,403,404,-1,349,404,364,-1,342,341,403,-1,403,341,405,-1,403,405,404,-1,406,407,390,-1,392,408,393,-1,393,408,409,-1,393,409,404,-1,404,409,410,-1,404,410,411,-1,400,398,395,-1,395,398,412,-1,395,412,396,-1,378,413,376,-1,376,413,414,-1,376,414,368,-1,368,414,415,-1,368,415,366,-1,355,416,353,-1,353,416,417,-1,353,417,354,-1,354,417,418,-1,354,418,380,-1,340,342,419,-1,419,342,420,-1,419,420,361,-1,361,420,140,-1,361,140,141,-1,406,390,421,-1,407,422,390,-1,390,422,423,-1,390,423,388,-1,135,365,424,-1,425,426,427,-1,428,429,430,-1,362,364,431,-1,431,364,404,-1,431,404,396,-1,396,404,411,-1,396,411,394,-1,365,135,364,-1,364,135,134,-1,364,134,432,-1,432,433,364,-1,364,433,425,-1,364,425,434,-1,434,425,427,-1,420,435,140,-1,140,435,428,-1,140,428,436,-1,436,428,430,-1,437,438,439,-1,439,438,440,-1,141,441,360,-1,360,441,440,-1,360,440,442,-1,442,440,438,-1,424,443,135,-1,135,443,444,-1,135,444,445,-1,445,444,446,-1,445,446,447,-1,397,448,398,-1,398,448,449,-1,398,449,450,-1,450,449,451,-1,450,451,452,-1,452,451,368,-1,452,368,453,-1,453,368,367,-1,421,390,454,-1,454,390,455,-1,454,455,393,-1,393,455,456,-1,393,456,391,-1,457,458,459,-1,459,458,460,-1,460,458,461,-1,460,461,462,-1,463,338,464,-1,464,338,465,-1,464,465,466,-1,462,467,460,-1,460,467,468,-1,460,468,469,-1,469,468,464,-1,463,470,471,-1,472,473,474,-1,475,476,459,-1,459,476,477,-1,466,478,464,-1,464,478,479,-1,464,479,469,-1,480,481,482,-1,482,481,483,-1,482,483,484,-1,485,486,487,-1,487,486,488,-1,477,489,459,-1,459,489,490,-1,459,490,457,-1,491,492,493,-1,493,492,494,-1,491,493,482,-1,482,493,495,-1,482,495,480,-1,496,497,498,-1,486,499,488,-1,488,499,472,-1,488,472,496,-1,496,472,474,-1,496,474,497,-1,494,500,493,-1,493,500,501,-1,493,501,502,-1,502,501,503,-1,502,503,463,-1,463,503,504,-1,463,504,470,-1,498,505,496,-1,496,505,339,-1,496,339,338,-1,273,506,507,-1,507,506,508,-1,507,508,509,-1,471,510,463,-1,463,510,511,-1,463,511,338,-1,338,511,512,-1,338,512,496,-1,507,513,273,-1,273,513,475,-1,273,475,272,-1,272,475,459,-1,272,459,514,-1,514,459,515,-1,515,516,514,-1,514,516,517,-1,514,517,518,-1,459,460,275,-1,275,460,279,-1,148,191,227,-1,227,191,215,-1,381,383,120,-1,300,519,520,-1,520,519,521,-1,520,521,522,-1,483,302,484,-1,484,302,300,-1,484,300,523,-1,523,300,520,-1,120,108,381,-1,381,108,524,-1,381,524,525,-1,525,524,526,-1,525,526,527,-1,527,526,522,-1,527,522,528,-1,528,522,521,-1,476,475,276,-1,276,475,333,-1,290,289,499,-1,499,289,472,-1,299,301,491,-1,106,384,107,-1,107,384,382,-1,107,382,529,-1,529,382,530,-1,491,482,299,-1,299,482,531,-1,299,531,532,-1,532,531,533,-1,532,533,534,-1,534,533,535,-1,382,536,530,-1,530,536,537,-1,530,537,535,-1,535,537,538,-1,535,538,534,-1,195,194,245,-1,245,194,246,-1,539,540,541,-1,541,540,542,-1,539,541,543,-1,543,541,544,-1,543,544,375,-1,157,210,179,-1,179,210,209,-1,30,402,31,-1,31,402,375,-1,31,375,545,-1,545,375,544,-1,209,546,179,-1,179,546,547,-1,179,547,548,-1,548,547,542,-1,548,542,549,-1,549,542,540,-1,550,551,374,-1,374,551,552,-1,552,551,553,-1,552,553,554,-1,554,553,555,-1,555,553,556,-1,555,556,557,-1,373,81,374,-1,374,81,29,-1,374,29,550,-1,557,556,558,-1,558,556,559,-1,558,559,180,-1,212,181,208,-1,208,181,180,-1,208,180,560,-1,560,180,559,-1,240,239,193,-1,193,239,165,-1,346,371,115,-1,115,371,116,-1,456,455,124,-1,124,455,125,-1,55,111,411,-1,411,111,394,-1,451,449,70,-1,70,449,84,-1,14,13,561,-1,561,13,562,-1,561,562,563,-1,563,564,561,-1,561,564,565,-1,561,565,566,-1,566,388,567,-1,566,567,561,-1,561,567,568,-1,561,568,569,-1,570,571,567,-1,567,571,568,-1,568,571,569,-1,569,571,17,-1,569,17,19,-1,572,573,574,-1,574,573,575,-1,574,575,576,-1,576,575,577,-1,576,577,578,-1,578,577,579,-1,578,579,580,-1,580,579,581,-1,580,581,582,-1,582,581,583,-1,582,583,584,-1,584,583,585,-1,584,585,586,-1,586,585,587,-1,586,587,19,-1,19,587,588,-1,19,588,569,-1,5,4,589,-1,590,5,591,-1,591,5,589,-1,591,589,592,-1,592,589,593,-1,594,591,595,-1,595,591,413,-1,594,596,591,-1,591,596,597,-1,591,597,590,-1,591,592,598,-1,598,592,599,-1,600,601,602,-1,602,601,603,-1,602,603,604,-1,604,603,605,-1,604,605,606,-1,606,605,607,-1,606,607,608,-1,608,607,609,-1,608,609,610,-1,610,609,611,-1,610,611,612,-1,612,611,613,-1,612,613,614,-1,614,613,615,-1,614,615,616,-1,616,615,6,-1,616,6,593,-1,593,6,2,-1,593,2,592,-1,592,2,599,-1,588,617,569,-1,569,617,618,-1,618,619,569,-1,569,619,620,-1,569,620,621,-1,621,622,569,-1,569,622,623,-1,569,623,561,-1,585,583,624,-1,624,583,625,-1,575,573,626,-1,626,573,627,-1,628,627,572,-1,572,627,573,-1,629,628,574,-1,574,628,572,-1,582,584,630,-1,630,584,631,-1,627,628,626,-1,626,628,629,-1,626,629,632,-1,632,629,633,-1,632,633,634,-1,634,633,635,-1,634,635,636,-1,636,635,637,-1,636,637,625,-1,625,637,630,-1,625,630,624,-1,624,630,631,-1,624,631,638,-1,638,631,639,-1,638,639,617,-1,617,639,18,-1,617,18,618,-1,618,18,20,-1,593,589,640,-1,640,641,593,-1,593,641,642,-1,593,642,643,-1,644,616,645,-1,645,616,593,-1,645,593,646,-1,646,593,643,-1,647,648,611,-1,611,648,613,-1,603,601,649,-1,649,601,650,-1,651,650,600,-1,600,650,601,-1,652,651,602,-1,602,651,600,-1,610,612,653,-1,653,612,654,-1,645,8,644,-1,644,8,7,-1,644,7,655,-1,655,7,656,-1,655,656,654,-1,654,656,648,-1,654,648,653,-1,653,648,647,-1,653,647,657,-1,657,647,658,-1,657,658,659,-1,659,658,660,-1,659,660,661,-1,661,660,662,-1,661,662,652,-1,652,662,649,-1,652,649,651,-1,651,649,650,-1,69,71,450,-1,450,71,398,-1,424,365,40,-1,40,365,41,-1,100,65,360,-1,360,65,361,-1,454,393,96,-1,96,393,80,-1,32,33,369,-1,369,348,32,-1,32,348,663,-1,32,663,664,-1,665,666,664,-1,664,666,667,-1,664,667,32,-1,668,669,670,-1,379,26,378,-1,378,26,24,-1,378,24,671,-1,671,24,670,-1,670,24,672,-1,670,672,668,-1,420,342,63,-1,63,342,61,-1,45,92,364,-1,364,92,349,-1,136,138,251,-1,136,251,206,-1,206,251,250,-1,206,250,203,-1,203,250,249,-1,203,249,204,-1,204,249,248,-1,204,248,205,-1,205,248,247,-1,205,247,207,-1,207,247,246,-1,207,246,194,-1,139,137,185,-1,139,185,256,-1,256,185,170,-1,256,170,258,-1,258,170,169,-1,258,169,257,-1,257,169,168,-1,257,168,255,-1,255,168,198,-1,255,198,259,-1,259,198,148,-1,259,148,227,-1,142,144,263,-1,142,263,187,-1,187,263,261,-1,187,261,189,-1,189,261,260,-1,189,260,188,-1,188,260,262,-1,188,262,186,-1,186,262,264,-1,186,264,190,-1,190,264,215,-1,190,215,191,-1,165,239,269,-1,165,269,166,-1,166,269,267,-1,166,267,167,-1,167,267,266,-1,167,266,199,-1,199,266,265,-1,199,265,200,-1,200,265,268,-1,200,268,201,-1,201,268,145,-1,201,145,143,-1,459,275,274,-1,459,274,515,-1,515,274,337,-1,515,337,516,-1,516,337,336,-1,516,336,517,-1,517,336,332,-1,517,332,518,-1,518,332,331,-1,518,331,514,-1,514,331,270,-1,514,270,272,-1,273,271,335,-1,273,335,506,-1,506,335,330,-1,506,330,508,-1,508,330,329,-1,508,329,509,-1,509,329,328,-1,509,328,507,-1,507,328,334,-1,507,334,513,-1,513,334,333,-1,513,333,475,-1,279,460,469,-1,279,469,319,-1,319,469,479,-1,319,479,303,-1,303,479,478,-1,303,478,304,-1,304,478,466,-1,304,466,314,-1,314,466,465,-1,314,465,315,-1,315,465,338,-1,315,338,283,-1,472,289,327,-1,472,327,473,-1,473,327,322,-1,473,322,474,-1,474,322,324,-1,474,324,497,-1,497,324,325,-1,497,325,498,-1,498,325,323,-1,498,323,505,-1,505,323,326,-1,505,326,339,-1,254,173,241,-1,241,173,174,-1,241,174,242,-1,242,174,192,-1,242,192,243,-1,243,192,164,-1,243,164,244,-1,244,164,163,-1,244,163,233,-1,233,163,162,-1,233,162,234,-1,234,162,147,-1,234,147,235,-1,235,147,146,-1,235,146,219,-1,219,146,151,-1,219,151,237,-1,237,151,154,-1,237,154,238,-1,238,154,156,-1,238,156,222,-1,222,156,158,-1,213,160,211,-1,211,160,159,-1,211,159,236,-1,236,159,184,-1,236,184,218,-1,218,184,183,-1,218,183,217,-1,217,183,182,-1,217,182,216,-1,216,182,153,-1,216,153,214,-1,214,153,152,-1,214,152,225,-1,225,152,150,-1,225,150,226,-1,226,150,149,-1,226,149,228,-1,228,149,178,-1,228,178,229,-1,229,178,177,-1,229,177,230,-1,230,177,176,-1,281,487,282,-1,282,487,488,-1,282,488,291,-1,291,488,496,-1,291,496,292,-1,292,496,512,-1,292,512,293,-1,293,512,511,-1,293,511,287,-1,287,511,510,-1,287,510,288,-1,288,510,471,-1,288,471,308,-1,308,471,470,-1,308,470,309,-1,309,470,504,-1,309,504,310,-1,310,504,503,-1,310,503,296,-1,296,503,501,-1,296,501,311,-1,311,501,500,-1,295,495,297,-1,297,495,493,-1,297,493,298,-1,298,493,502,-1,298,502,286,-1,286,502,463,-1,286,463,280,-1,280,463,464,-1,280,464,277,-1,277,464,468,-1,277,468,278,-1,278,468,467,-1,278,467,284,-1,284,467,462,-1,284,462,285,-1,285,462,461,-1,285,461,305,-1,305,461,458,-1,305,458,306,-1,306,458,457,-1,306,457,307,-1,307,457,490,-1,307,490,489,-1,307,489,320,-1,320,489,477,-1,320,477,321,-1,321,477,476,-1,321,476,276,-1,302,483,481,-1,302,481,318,-1,318,481,480,-1,318,480,294,-1,294,480,495,-1,294,495,295,-1,311,500,494,-1,311,494,312,-1,312,494,492,-1,312,492,313,-1,313,492,491,-1,313,491,301,-1,290,499,486,-1,290,486,316,-1,316,486,485,-1,316,485,317,-1,317,485,487,-1,317,487,281,-1,222,158,197,-1,222,197,223,-1,223,197,196,-1,223,196,224,-1,224,196,181,-1,224,181,212,-1,240,193,172,-1,240,172,252,-1,252,172,171,-1,252,171,253,-1,253,171,173,-1,253,173,254,-1,230,176,175,-1,230,175,231,-1,231,175,202,-1,231,202,232,-1,232,202,195,-1,232,195,245,-1,210,157,155,-1,210,155,220,-1,220,155,161,-1,220,161,221,-1,221,161,160,-1,221,160,213,-1,375,374,552,-1,375,552,543,-1,543,552,554,-1,543,554,539,-1,539,554,555,-1,539,555,540,-1,540,555,557,-1,540,557,549,-1,549,557,558,-1,549,558,548,-1,548,558,180,-1,548,180,179,-1,413,378,671,-1,672,24,3,-1,413,671,595,-1,595,671,670,-1,595,670,594,-1,594,670,669,-1,594,669,596,-1,596,669,668,-1,596,668,597,-1,597,668,672,-1,597,672,590,-1,590,672,3,-1,590,3,5,-1,12,32,667,-1,562,666,563,-1,563,666,665,-1,563,665,564,-1,564,665,664,-1,564,664,565,-1,565,664,663,-1,565,663,566,-1,566,663,348,-1,566,348,388,-1,13,12,562,-1,562,12,667,-1,562,667,666,-1,382,381,525,-1,382,525,536,-1,536,525,527,-1,536,527,537,-1,537,527,528,-1,537,528,538,-1,538,528,521,-1,538,521,534,-1,534,521,519,-1,534,519,532,-1,532,519,300,-1,532,300,299,-1,81,373,82,-1,82,373,401,-1,82,401,83,-1,83,401,356,-1,83,356,39,-1,39,356,353,-1,39,353,36,-1,36,353,352,-1,36,352,35,-1,35,352,370,-1,35,370,33,-1,33,370,369,-1,26,379,52,-1,52,379,380,-1,52,380,53,-1,53,380,418,-1,53,418,54,-1,54,418,417,-1,54,417,27,-1,27,417,416,-1,27,416,28,-1,28,416,355,-1,28,355,30,-1,30,355,402,-1,349,92,343,-1,343,92,74,-1,343,74,344,-1,344,74,73,-1,344,73,357,-1,357,73,89,-1,357,89,358,-1,358,89,77,-1,358,77,359,-1,359,77,76,-1,359,76,383,-1,383,76,120,-1,384,106,385,-1,385,106,119,-1,385,119,345,-1,345,119,75,-1,345,75,350,-1,350,75,109,-1,350,109,351,-1,351,109,110,-1,351,110,403,-1,403,110,112,-1,403,112,342,-1,342,112,61,-1,398,71,412,-1,412,71,86,-1,412,86,396,-1,396,86,51,-1,396,51,431,-1,431,51,90,-1,431,90,362,-1,362,90,91,-1,362,91,363,-1,363,91,72,-1,363,72,365,-1,365,72,41,-1,361,65,419,-1,419,65,64,-1,419,64,340,-1,340,64,62,-1,340,62,341,-1,341,62,60,-1,341,60,405,-1,405,60,59,-1,405,59,404,-1,404,59,57,-1,404,57,393,-1,393,57,80,-1,45,364,434,-1,45,434,58,-1,58,434,427,-1,58,427,46,-1,46,427,426,-1,46,426,47,-1,47,426,425,-1,47,425,48,-1,48,425,433,-1,48,433,66,-1,66,433,432,-1,66,432,43,-1,43,432,134,-1,43,134,44,-1,42,135,445,-1,42,445,103,-1,103,445,447,-1,103,447,101,-1,101,447,446,-1,101,446,102,-1,102,446,444,-1,102,444,104,-1,104,444,443,-1,104,443,105,-1,105,443,424,-1,105,424,40,-1,117,140,436,-1,117,436,121,-1,121,436,430,-1,121,430,122,-1,122,430,429,-1,122,429,132,-1,132,429,428,-1,132,428,133,-1,133,428,435,-1,133,435,118,-1,118,435,420,-1,118,420,63,-1,100,360,442,-1,100,442,126,-1,126,442,438,-1,126,438,129,-1,129,438,437,-1,129,437,130,-1,130,437,439,-1,130,439,131,-1,131,439,440,-1,131,440,127,-1,127,440,441,-1,127,441,128,-1,128,441,141,-1,128,141,99,-1,367,673,453,-1,453,673,674,-1,453,674,452,-1,452,674,69,-1,452,69,450,-1,366,675,367,-1,367,675,676,-1,367,676,673,-1,415,677,366,-1,366,677,678,-1,366,678,675,-1,414,679,415,-1,415,679,680,-1,415,680,677,-1,681,413,682,-1,682,413,591,-1,681,683,413,-1,413,683,684,-1,413,684,414,-1,414,684,685,-1,414,685,679,-1,686,687,388,-1,388,687,688,-1,388,688,567,-1,422,689,423,-1,423,689,690,-1,690,691,423,-1,423,691,692,-1,423,692,388,-1,388,692,693,-1,388,693,686,-1,407,406,694,-1,694,695,407,-1,407,695,696,-1,407,696,422,-1,422,696,697,-1,422,697,689,-1,421,454,96,-1,96,698,421,-1,421,698,699,-1,421,699,406,-1,406,699,700,-1,406,700,694,-1,456,124,391,-1,391,124,123,-1,391,123,392,-1,392,123,79,-1,392,79,408,-1,408,79,78,-1,408,78,409,-1,409,78,93,-1,409,93,410,-1,410,93,56,-1,410,56,411,-1,411,56,55,-1,346,115,347,-1,347,115,114,-1,347,114,386,-1,386,114,113,-1,386,113,387,-1,387,113,94,-1,387,94,389,-1,389,94,95,-1,389,95,390,-1,390,95,97,-1,390,97,455,-1,455,97,125,-1,451,70,368,-1,368,70,68,-1,368,68,376,-1,376,68,67,-1,376,67,377,-1,377,67,98,-1,377,98,354,-1,354,98,38,-1,354,38,372,-1,372,38,37,-1,372,37,371,-1,371,37,116,-1,394,111,395,-1,395,111,50,-1,395,50,400,-1,400,50,49,-1,400,49,399,-1,399,49,88,-1,399,88,397,-1,397,88,87,-1,397,87,448,-1,448,87,85,-1,448,85,449,-1,449,85,84,-1,701,702,12,-1,12,702,703,-1,17,571,12,-1,12,571,570,-1,12,570,701,-1,704,705,12,-1,12,705,706,-1,12,706,34,-1,703,707,12,-1,12,707,708,-1,12,708,704,-1,3,25,709,-1,599,2,598,-1,598,2,3,-1,598,3,710,-1,710,3,711,-1,709,712,3,-1,3,712,713,-1,3,713,714,-1,714,715,3,-1,3,715,716,-1,3,716,711,-1,618,20,619,-1,619,20,23,-1,619,23,620,-1,620,23,22,-1,620,22,621,-1,621,22,16,-1,621,16,622,-1,622,16,15,-1,622,15,623,-1,623,15,21,-1,623,21,561,-1,561,21,14,-1,8,645,9,-1,9,645,646,-1,9,646,10,-1,10,646,643,-1,10,643,11,-1,11,643,642,-1,11,642,0,-1,0,642,641,-1,0,641,1,-1,1,641,640,-1,1,640,4,-1,4,640,589,-1,585,624,587,-1,587,624,638,-1,587,638,588,-1,588,638,617,-1,625,583,581,-1,625,581,636,-1,636,581,579,-1,636,579,634,-1,634,579,577,-1,634,577,632,-1,632,577,575,-1,632,575,626,-1,582,630,580,-1,580,630,637,-1,580,637,578,-1,578,637,635,-1,578,635,576,-1,576,635,633,-1,576,633,574,-1,574,633,629,-1,19,18,639,-1,19,639,586,-1,586,639,631,-1,586,631,584,-1,652,602,604,-1,652,604,661,-1,661,604,606,-1,661,606,659,-1,659,606,608,-1,659,608,657,-1,657,608,610,-1,657,610,653,-1,616,644,614,-1,614,644,655,-1,614,655,612,-1,612,655,654,-1,603,649,605,-1,605,649,662,-1,605,662,607,-1,607,662,660,-1,607,660,609,-1,609,660,658,-1,609,658,611,-1,611,658,647,-1,613,648,656,-1,613,656,615,-1,615,656,7,-1,615,7,6,-1,482,484,531,-1,531,484,523,-1,531,523,533,-1,533,523,520,-1,533,520,535,-1,535,520,522,-1,535,522,530,-1,530,522,526,-1,530,526,529,-1,529,526,524,-1,529,524,107,-1,107,524,108,-1,701,570,567,-1,567,688,701,-1,701,688,687,-1,701,687,702,-1,687,686,702,-1,702,686,693,-1,702,693,703,-1,693,692,703,-1,703,692,691,-1,703,691,707,-1,707,691,690,-1,707,690,708,-1,708,690,689,-1,708,689,704,-1,704,689,697,-1,704,697,705,-1,697,696,705,-1,705,696,695,-1,705,695,706,-1,706,695,694,-1,706,694,34,-1,34,694,700,-1,700,699,34,-1,34,699,698,-1,34,698,96,-1,591,598,682,-1,682,598,710,-1,711,683,710,-1,710,683,681,-1,710,681,682,-1,714,677,680,-1,714,680,715,-1,715,680,679,-1,715,679,716,-1,716,679,685,-1,716,685,711,-1,711,685,684,-1,711,684,683,-1,712,675,678,-1,677,714,678,-1,678,714,713,-1,678,713,712,-1,69,674,25,-1,25,674,673,-1,25,673,676,-1,675,712,676,-1,676,712,709,-1,676,709,25,-1,209,208,546,-1,546,208,560,-1,546,560,547,-1,547,560,559,-1,547,559,542,-1,542,559,556,-1,542,556,541,-1,541,556,553,-1,541,553,544,-1,544,553,551,-1,544,551,545,-1,545,551,550,-1,545,550,31,-1,31,550,29,-1,
        ]
    }
}