#VRML V2.0 utf8
# 3D model generated by kicad-lcsc-manager
# Based on easyeda2kicad.py v1.0.1

Shape{
    appearance Appearance {
        material  Material {
            diffuseColor 0.7529411764705882 0.7529411764705882 0.7529411764705882
            specularColor 0.3764705882352941 0.3764705882352941 0.3764705882352941
            ambientIntensity 0.7529
            transparency 0.0
            shininess 0.5
        }
    }
    geometry IndexedFaceSet {
        ccw TRUE
        solid FALSE
        coord DEF co Coordinate {
            point [
                2.6575 0.9252 0.9843, 2.5 0.9252 0.9843, 2.6575 0.3937 0.9843, 2.5 0.3937 0.9843, 1.752 0.9252 0.0, 2.4606 0.9252 0.0, 1.752 -0.9252 0.0, 2.4606 -0.9252 0.0, 1.752 0.9252 0.1575, 1.752 -0.9252 0.1575, 2.4606 0.9252 0.1575, 2.4606 -0.9252 0.1575, 2.4708 0.9252 0.1588, 2.4708 -0.9252 0.1588, 2.4803 0.9252 0.1628, 2.4803 -0.9252 0.1628, 2.4885 0.9252 0.169, 2.4885 -0.9252 0.169, 2.4947 0.9252 0.1772, 2.4947 -0.9252 0.1772, 2.4987 0.9252 0.1867, 2.4987 -0.9252 0.1867, 2.5 0.9252 0.1969, 2.5 -0.9252 0.1969, 2.5 0.3937 0.748, 2.5 -0.3937 0.748, 2.5 -0.3937 0.9843, 2.5 -0.9252 0.9843, 2.6575 -0.9252 0.9843, 2.6575 -0.3937 0.9843, 2.6575 -0.3937 0.748, 2.6575 -0.9252 0.1969, 2.6575 0.3937 0.748, 2.6575 0.9252 0.1969, 2.6525 -0.9252 0.153, 2.6525 0.9252 0.153, 2.638 -0.9252 0.1114, 2.638 0.9252 0.1114, 2.6145 -0.9252 0.0741, 2.6145 0.9252 0.0741, 2.5834 -0.9252 0.0429, 2.5834 0.9252 0.0429, 2.546 -0.9252 0.0195, 2.546 0.9252 0.0195, 2.5044 -0.9252 0.0049, 2.5044 0.9252 0.0049
            ]
        }
        coordIndex [
            0,1,2,-1,2,1,3,-1,4,5,6,-1,6,5,7,-1,8,4,9,-1,9,4,6,-1,10,8,11,-1,11,8,9,-1,10,11,12,-1,12,11,13,-1,12,13,14,-1,14,13,15,-1,14,15,16,-1,16,15,17,-1,16,17,18,-1,18,17,19,-1,18,19,20,-1,20,19,21,-1,20,21,22,-1,22,21,23,-1,3,1,24,-1,24,1,22,-1,24,22,25,-1,25,22,23,-1,25,23,26,-1,26,23,27,-1,27,28,26,-1,26,28,29,-1,29,28,30,-1,30,28,31,-1,30,31,32,-1,32,31,33,-1,32,33,2,-1,2,33,0,-1,33,31,34,-1,33,34,35,-1,35,34,36,-1,35,36,37,-1,37,36,38,-1,37,38,39,-1,39,38,40,-1,39,40,41,-1,41,40,42,-1,41,42,43,-1,43,42,44,-1,43,44,45,-1,45,44,7,-1,45,7,5,-1,1,0,22,-1,22,0,33,-1,22,33,20,-1,20,33,35,-1,20,35,18,-1,18,35,37,-1,18,37,16,-1,37,39,16,-1,16,39,41,-1,16,41,14,-1,14,41,43,-1,14,43,12,-1,12,43,45,-1,12,45,10,-1,10,45,5,-1,10,5,8,-1,8,5,4,-1,15,40,17,-1,17,40,38,-1,17,38,19,-1,19,38,36,-1,19,36,21,-1,21,36,34,-1,21,34,23,-1,23,34,31,-1,23,31,27,-1,27,31,28,-1,9,6,11,-1,11,6,7,-1,11,7,13,-1,13,7,44,-1,13,44,15,-1,15,44,42,-1,15,42,40,-1,32,2,24,-1,24,2,3,-1,30,32,25,-1,25,32,24,-1,29,30,26,-1,26,30,25,-1,
        ]
    }
}
Shape{
    appearance Appearance {
        material  Material {
            diffuseColor 1.0 1.0 1.0
            specularColor 0.5019607843137255 0.5019607843137255 0.5019607843137255
            ambientIntensity 1.0
            transparency 0.0
            shininess 0.5
        }
    }
    geometry IndexedFaceSet {
        ccw TRUE
        solid FALSE
        coord DEF co Coordinate {
            point [
                -2.5 0.9252 0.9843, -2.6575 0.9252 0.9843, -2.5 0.3937 0.9843, -2.6575 0.3937 0.9843
            ]
        }
        coordIndex [
            0,1,2,-1,2,1,3,-1,
        ]
    }
}
Shape{
    appearance Appearance {
        material  Material {
            diffuseColor 0.7529411764705882 0.7529411764705882 0.7529411764705882
            specularColor 0.3764705882352941 0.3764705882352941 0.3764705882352941
            ambientIntensity 0.7529
            transparency 0.0
            shininess 0.5
        }
    }
    geometry IndexedFaceSet {
        ccw TRUE
        solid FALSE
        coord DEF co Coordinate {
            point [
                -2.4606 0.9252 0.0, -1.752 0.9252 0.0, -2.4606 -0.9252 0.0, -1.752 -0.9252 0.0, -1.752 0.9252 0.1575, -1.752 -0.9252 0.1575, -2.4606 0.9252 0.1575, -2.4606 -0.9252 0.1575, -2.5 0.9252 0.1969, -2.5 -0.9252 0.1969, -2.4987 0.9252 0.1867, -2.4987 -0.9252 0.1867, -2.4947 0.9252 0.1772, -2.4947 -0.9252 0.1772, -2.4885 0.9252 0.169, -2.4885 -0.9252 0.169, -2.4803 0.9252 0.1628, -2.4803 -0.9252 0.1628, -2.4708 0.9252 0.1588, -2.4708 -0.9252 0.1588, -2.5 -0.3937 0.9843, -2.5 -0.9252 0.9843, -2.5 -0.3937 0.748, -2.5 0.3937 0.748, -2.5 0.3937 0.9843, -2.5 0.9252 0.9843, -2.6575 -0.9252 0.9843, -2.6575 -0.3937 0.9843, -2.6575 0.3937 0.9843, -2.6575 0.9252 0.9843, -2.6575 0.3937 0.748, -2.6575 0.9252 0.1969, -2.6575 -0.3937 0.748, -2.6575 -0.9252 0.1969, -2.5044 -0.9252 0.0049, -2.5044 0.9252 0.0049, -2.546 -0.9252 0.0195, -2.546 0.9252 0.0195, -2.5834 -0.9252 0.0429, -2.5834 0.9252 0.0429, -2.6145 -0.9252 0.0741, -2.6145 0.9252 0.0741, -2.638 -0.9252 0.1114, -2.638 0.9252 0.1114, -2.6525 -0.9252 0.153, -2.6525 0.9252 0.153
            ]
        }
        coordIndex [
            0,1,2,-1,2,1,3,-1,1,4,3,-1,3,4,5,-1,4,6,5,-1,5,6,7,-1,8,9,10,-1,10,9,11,-1,10,11,12,-1,12,11,13,-1,12,13,14,-1,14,13,15,-1,14,15,16,-1,16,15,17,-1,16,17,18,-1,18,17,19,-1,18,19,6,-1,6,19,7,-1,20,21,22,-1,22,21,9,-1,22,9,23,-1,23,9,8,-1,23,8,24,-1,24,8,25,-1,26,21,27,-1,27,21,20,-1,28,29,30,-1,30,29,31,-1,30,31,32,-1,32,31,33,-1,32,33,27,-1,27,33,26,-1,0,2,34,-1,0,34,35,-1,35,34,36,-1,35,36,37,-1,37,36,38,-1,37,38,39,-1,39,38,40,-1,39,40,41,-1,41,40,42,-1,41,42,43,-1,43,42,44,-1,43,44,45,-1,45,44,33,-1,45,33,31,-1,29,25,31,-1,31,25,8,-1,31,8,45,-1,45,8,10,-1,45,10,43,-1,43,10,12,-1,43,12,41,-1,41,12,14,-1,4,1,6,-1,6,1,0,-1,6,0,18,-1,18,0,35,-1,18,35,16,-1,16,35,37,-1,16,37,14,-1,14,37,39,-1,14,39,41,-1,21,26,9,-1,9,26,33,-1,9,33,11,-1,11,33,44,-1,11,44,13,-1,44,42,13,-1,13,42,40,-1,13,40,15,-1,15,40,38,-1,15,38,17,-1,17,38,36,-1,17,36,19,-1,19,36,34,-1,19,34,7,-1,7,34,2,-1,7,2,5,-1,5,2,3,-1,28,30,24,-1,24,30,23,-1,30,32,23,-1,23,32,22,-1,32,27,22,-1,22,27,20,-1,
        ]
    }
}
Shape{
    appearance Appearance {
        material  Material {
            diffuseColor 0.5019607843137255 0.5019607843137255 0.5019607843137255
            specularColor 0.25098039215686274 0.25098039215686274 0.25098039215686274
            ambientIntensity 0.502
            transparency 0.0
            shininess 0.5
        }
    }
    geometry IndexedFaceSet {
        ccw TRUE
        solid FALSE
        coord DEF co Coordinate {
            point [
                -2.2835 2.4803 0.0787, -0.1567 2.4803 0.0787, -1.2992 1.0236 0.0787, 0.1699 -0.1533 0.0787, 0.1826 -0.1551 0.0787, -0.1567 -2.4803 0.0787, 1.2992 -1.0236 0.0787, 2.2835 -2.4803 0.0787, 2.4803 -1.0236 0.0787, 0.1912 -0.1552 0.0787, 1.2992 -0.1533 0.0787, 2.4803 -2.2835 0.0787, 2.4736 -2.3344 0.0787, 2.4539 -2.3819 0.0787, 2.4227 -2.4227 0.0787, 2.3819 -2.4539 0.0787, 2.3344 -2.4736 0.0787, -0.1259 -0.1168 0.0787, -0.1567 -0.1533 0.0787, -0.1259 -0.1514 0.0787, 0.0431 -0.1514 0.0787, -0.1183 0.129 0.0787, 0.0008 0.129 0.0787, 0.0008 0.0253 0.0787, 0.1045 -0.135 0.0787, 0.1045 -0.1005 0.0787, 0.0431 0.1636 0.0787, 0.1381 -0.1488 0.0787, 1.2992 1.0236 0.0787, 2.4803 1.0236 0.0787, 2.2835 2.4803 0.0787, 0.0008 -0.0093 0.0787, 0.0008 -0.1168 0.0787, -0.1106 -0.0093 0.0787, -0.1106 0.0253 0.0787, 2.3344 2.4736 0.0787, 2.3819 2.4539 0.0787, 2.4227 2.4227 0.0787, 0.527 -0.1514 0.0787, 0.2097 -0.1533 0.0787, 0.3657 -0.1514 0.0787, 0.23 -0.1512 0.0787, 0.2605 -0.1407 0.0787, -0.1183 0.1636 0.0787, 0.2093 0.1294 0.0787, 0.2329 0.1209 0.0787, 0.1102 -0.1036 0.0787, 0.2547 0.1063 0.0787, 0.2737 0.0853 0.0787, 0.2966 0.0027 0.0787, 0.2934 -0.0314 0.0787, 0.2848 -0.0584 0.0787, 0.2147 -0.1174 0.0787, 0.1854 -0.1206 0.0787, 0.2377 -0.1089 0.0787, 0.257 -0.0959 0.0787, 0.2718 -0.0803 0.0787, 0.1435 -0.116 0.0787, 2.4539 2.3819 0.0787, 2.4736 2.3344 0.0787, 2.4803 2.2835 0.0787, 0.3222 0.0806 0.0787, 0.3037 0.1101 0.0787, 0.4848 0.1636 0.0787, 0.2867 0.061 0.0787, 0.2951 0.0273 0.0787, 0.2753 0.1374 0.0787, 0.527 0.1636 0.0787, 0.2859 -0.1245 0.0787, 0.3095 -0.0996 0.0787, 0.3657 -0.1168 0.0787, 0.3263 -0.0697 0.0787, 0.4848 -0.1168 0.0787, 0.3358 -0.0363 0.0787, 0.3388 0.0002 0.0787, 0.3343 0.0449 0.0787, 0.2454 0.1546 0.0787, 0.2103 0.1648 0.0787, 0.1786 0.1674 0.0787, 0.1409 0.1648 0.0787, 0.1045 0.1549 0.0787, 0.1045 0.1127 0.0787, 0.14 0.1279 0.0787, 0.1783 0.1329 0.0787, -2.4803 1.0236 0.0787, -2.4803 2.2835 0.0787, -2.4736 2.3344 0.0787, -0.7482 -0.1514 0.0787, -0.7021 -0.1514 0.0787, -0.464 -0.1514 0.0787, -0.4252 -0.0651 0.0787, -0.4071 -0.0932 0.0787, -0.583 0.1636 0.0787, -0.6253 0.1636 0.0787, -1.2992 -0.1533 0.0787, -2.4539 2.3819 0.0787, -2.4227 2.4227 0.0787, -2.3344 2.4736 0.0787, -2.3819 2.4539 0.0787, -0.3812 -0.118 0.0787, -0.3483 -0.1372 0.0787, -0.312 -0.148 0.0787, -0.273 -0.1514 0.0787, -0.1874 -0.1514 0.0787, -0.1874 0.1636 0.0787, -0.2763 0.1636 0.0787, -0.3932 0.1225 0.0787, -0.4155 0.0978 0.0787, -0.4302 0.0707 0.0787, -0.3218 0.1587 0.0787, -0.3586 0.1458 0.0787, -0.3929 0.1228 0.0787, -0.51 -0.1514 0.0787, -0.5401 -0.063 0.0787, -0.6702 -0.063 0.0787, -0.4386 0.0397 0.0787, -0.4409 0.0101 0.0787, -0.4365 -0.0321 0.0787, -1.2992 -1.0236 0.0787, -2.4803 -1.0236 0.0787, -2.2835 -2.4803 0.0787, -2.4803 -2.2835 0.0787, -2.4736 -2.3344 0.0787, -2.3344 -2.4736 0.0787, -2.3819 -2.4539 0.0787, -2.4539 -2.3819 0.0787, -2.4227 -2.4227 0.0787, -2.4803 -1.0236 0.1969, -2.4803 -2.2835 2.4409, -2.4803 1.0236 0.1969, -2.4803 2.2835 2.4409, 2.4803 1.0236 0.1969, 2.4803 2.2835 2.4409, 2.4803 -1.0236 0.1969, 2.4803 -2.2835 2.4409, 2.2835 2.4803 2.4409, -2.2835 2.4803 2.4409, 2.2835 -2.4803 2.4409, -2.2835 -2.4803 2.4409, 2.3344 2.4736 2.4409, 2.4736 2.3344 2.4409, 2.4539 2.3819 2.4409, 2.4227 2.4227 2.4409, -2.3344 2.4736 2.4409, 2.3819 -2.4539 2.4409, 2.4227 -2.4227 2.4409, 2.4539 -2.3819 2.4409, 2.3819 2.4539 2.4409, -2.3819 2.4539 2.4409, -2.4227 2.4227 2.4409, 2.3344 -2.4736 2.4409, 2.4736 -2.3344 2.4409, -2.4539 2.3819 2.4409, -2.4736 2.3344 2.4409, -2.4227 -2.4227 2.4409, -2.3819 -2.4539 2.4409, -2.4539 -2.3819 2.4409, -2.4736 -2.3344 2.4409, -2.3344 -2.4736 2.4409, 2.4409 -1.0236 0.1575, 1.2992 -1.0236 0.1575, 2.4409 1.0236 0.1575, 1.2992 1.0236 0.1575, 2.479 -1.0236 0.1867, 2.475 -1.0236 0.1772, 2.4511 -1.0236 0.1588, 2.4606 -1.0236 0.1628, 2.4688 -1.0236 0.169, 2.479 1.0236 0.1867, 2.475 1.0236 0.1772, 2.4688 1.0236 0.169, 2.4606 1.0236 0.1628, 2.4511 1.0236 0.1588, -2.479 -1.0236 0.1867, -2.475 -1.0236 0.1772, -2.4688 -1.0236 0.169, -2.4606 -1.0236 0.1628, -1.2992 -1.0236 0.1575, -2.4409 -1.0236 0.1575, -2.4511 -1.0236 0.1588, -1.2992 1.0236 0.1575, -2.479 1.0236 0.1867, -2.475 1.0236 0.1772, -2.4511 1.0236 0.1588, -2.4606 1.0236 0.1628, -2.4688 1.0236 0.169, -2.4409 1.0236 0.1575
            ]
        }
        coordIndex [
            0,1,2,-1,3,4,5,-1,5,6,7,-1,7,6,8,-1,5,4,6,-1,6,4,9,-1,6,9,10,-1,8,11,7,-1,7,11,12,-1,7,12,13,-1,13,14,7,-1,7,14,15,-1,7,15,16,-1,1,17,18,-1,18,17,19,-1,18,19,20,-1,21,22,23,-1,24,20,25,-1,25,20,26,-1,5,18,3,-1,3,18,20,-1,3,20,27,-1,27,20,24,-1,28,1,29,-1,29,1,30,-1,31,32,33,-1,33,32,17,-1,33,17,34,-1,35,36,37,-1,38,39,40,-1,40,39,41,-1,40,41,42,-1,23,34,21,-1,21,34,17,-1,21,17,43,-1,43,17,1,-1,43,1,26,-1,44,45,46,-1,46,45,47,-1,46,47,48,-1,49,50,46,-1,46,50,51,-1,52,53,54,-1,54,53,55,-1,51,56,46,-1,46,56,55,-1,46,55,57,-1,57,55,53,-1,37,58,35,-1,35,58,59,-1,35,59,30,-1,30,59,60,-1,30,60,29,-1,61,62,63,-1,48,64,46,-1,46,64,65,-1,46,65,49,-1,62,66,63,-1,63,66,1,-1,63,1,67,-1,67,1,28,-1,67,28,38,-1,38,28,10,-1,38,10,39,-1,39,10,9,-1,42,68,40,-1,40,68,69,-1,40,69,70,-1,70,69,71,-1,70,71,72,-1,71,73,72,-1,72,73,74,-1,72,74,63,-1,63,74,75,-1,63,75,61,-1,66,76,1,-1,1,76,77,-1,1,77,78,-1,78,79,1,-1,1,79,80,-1,1,80,26,-1,26,80,81,-1,26,81,25,-1,25,81,82,-1,25,82,46,-1,46,82,83,-1,46,83,44,-1,2,84,0,-1,0,84,85,-1,0,85,86,-1,87,88,18,-1,89,90,91,-1,1,92,2,-1,2,92,93,-1,2,93,94,-1,86,95,0,-1,0,95,96,-1,0,96,97,-1,97,96,98,-1,91,99,89,-1,89,99,100,-1,89,100,101,-1,102,103,18,-1,18,103,104,-1,18,104,1,-1,1,104,105,-1,106,107,92,-1,92,107,108,-1,105,109,1,-1,1,109,110,-1,1,110,92,-1,92,110,111,-1,92,111,106,-1,101,102,89,-1,89,102,18,-1,89,18,112,-1,112,18,88,-1,112,88,113,-1,113,88,114,-1,108,115,92,-1,92,115,116,-1,92,116,89,-1,89,116,117,-1,89,117,90,-1,93,87,94,-1,94,87,18,-1,94,18,118,-1,118,18,5,-1,118,5,119,-1,119,5,120,-1,119,120,121,-1,121,120,122,-1,120,123,122,-1,122,123,124,-1,122,124,125,-1,125,124,126,-1,119,121,127,-1,127,121,128,-1,127,128,129,-1,129,128,130,-1,129,130,84,-1,84,130,85,-1,29,60,131,-1,131,60,132,-1,131,132,133,-1,133,132,134,-1,133,134,8,-1,8,134,11,-1,135,30,136,-1,136,30,1,-1,136,1,0,-1,7,137,5,-1,5,137,138,-1,5,138,120,-1,139,135,132,-1,132,135,134,-1,140,141,142,-1,143,130,136,-1,136,130,138,-1,136,138,135,-1,135,138,137,-1,135,137,134,-1,144,145,146,-1,140,142,132,-1,132,142,147,-1,132,147,139,-1,143,148,149,-1,137,150,134,-1,134,150,144,-1,134,144,151,-1,151,144,146,-1,149,152,143,-1,143,152,153,-1,143,153,130,-1,154,155,156,-1,156,155,157,-1,130,128,138,-1,138,128,157,-1,138,157,158,-1,158,157,155,-1,159,160,161,-1,161,160,162,-1,133,8,163,-1,163,8,164,-1,165,166,8,-1,8,166,167,-1,8,167,164,-1,6,160,8,-1,8,160,159,-1,8,159,165,-1,29,131,168,-1,168,169,29,-1,29,169,170,-1,29,170,171,-1,162,28,161,-1,161,28,29,-1,161,29,172,-1,172,29,171,-1,28,162,10,-1,10,162,160,-1,10,160,6,-1,119,127,173,-1,173,174,119,-1,119,174,175,-1,119,175,176,-1,177,118,178,-1,178,118,119,-1,178,119,179,-1,179,119,176,-1,118,177,94,-1,94,177,180,-1,94,180,2,-1,129,84,181,-1,181,84,182,-1,183,184,84,-1,84,184,185,-1,84,185,182,-1,2,180,84,-1,84,180,186,-1,84,186,183,-1,186,180,178,-1,178,180,177,-1,128,121,122,-1,128,122,157,-1,157,122,125,-1,157,125,156,-1,156,125,126,-1,156,126,154,-1,154,126,124,-1,154,124,155,-1,155,124,123,-1,155,123,158,-1,158,123,120,-1,158,120,138,-1,136,0,97,-1,136,97,143,-1,143,97,98,-1,143,98,148,-1,148,98,96,-1,148,96,149,-1,149,96,95,-1,149,95,152,-1,152,95,86,-1,152,86,153,-1,153,86,85,-1,153,85,130,-1,137,7,16,-1,137,16,150,-1,150,16,15,-1,150,15,144,-1,144,15,14,-1,144,14,145,-1,145,14,13,-1,145,13,146,-1,146,13,12,-1,146,12,151,-1,151,12,11,-1,151,11,134,-1,132,60,59,-1,132,59,140,-1,140,59,58,-1,140,58,141,-1,141,58,37,-1,141,37,142,-1,142,37,36,-1,142,36,147,-1,147,36,35,-1,147,35,139,-1,139,35,30,-1,139,30,135,-1,186,178,179,-1,186,179,183,-1,183,179,176,-1,183,176,184,-1,184,176,175,-1,184,175,185,-1,185,175,174,-1,185,174,182,-1,182,174,173,-1,182,173,181,-1,181,173,127,-1,181,127,129,-1,159,161,172,-1,159,172,165,-1,165,172,171,-1,165,171,166,-1,166,171,170,-1,166,170,167,-1,167,170,169,-1,167,169,164,-1,164,169,168,-1,164,168,163,-1,163,168,131,-1,163,131,133,-1,
        ]
    }
}
Shape{
    appearance Appearance {
        material  Material {
            diffuseColor 0.0 0.0 0.0
            specularColor 0.0 0.0 0.0
            ambientIntensity 0.0
            transparency 0.0
            shininess 0.5
        }
    }
    geometry IndexedFaceSet {
        ccw TRUE
        solid FALSE
        coord DEF co Coordinate {
            point [
                -0.6253 0.1636 0.0791, -0.7482 -0.1514 0.0791, -0.6253 0.1636 0.0787, -0.7482 -0.1514 0.0787, -0.7021 -0.1514 0.0791, -0.7021 -0.1514 0.0787, -0.6702 -0.063 0.0791, -0.6702 -0.063 0.0787, -0.5401 -0.063 0.0791, -0.5401 -0.063 0.0787, -0.51 -0.1514 0.0791, -0.51 -0.1514 0.0787, -0.464 -0.1514 0.0791, -0.464 -0.1514 0.0787, -0.583 0.1636 0.0791, -0.583 0.1636 0.0787, -0.5507 -0.0285 0.0791, -0.6561 -0.0285 0.0791, -0.5977 0.1031 0.0791, -0.6008 0.114 0.0791, -0.6028 0.1252 0.0791, -0.6038 0.1252 0.0791, -0.6058 0.114 0.0791, -0.6086 0.1031 0.0791, -0.5507 -0.0285 0.0787, -0.6561 -0.0285 0.0787, -0.5977 0.1031 0.0787, -0.6008 0.114 0.0787, -0.6028 0.1252 0.0787, -0.6038 0.1252 0.0787, -0.6058 0.114 0.0787, -0.6086 0.1031 0.0787, -0.273 -0.1514 0.0791, -0.1874 -0.1514 0.0791, -0.273 -0.1514 0.0787, -0.1874 -0.1514 0.0787, -0.1874 0.1636 0.0791, -0.1874 0.1636 0.0787, -0.2763 0.1636 0.0791, -0.2763 0.1636 0.0787, -0.4409 0.0101 0.0791, -0.4409 0.0101 0.0787, -0.4386 0.0397 0.0787, -0.4386 0.0397 0.0791, -0.4302 0.0707 0.0787, -0.4302 0.0707 0.0791, -0.4155 0.0978 0.0787, -0.4155 0.0978 0.0791, -0.3932 0.1225 0.0787, -0.3932 0.1225 0.0791, -0.3929 0.1228 0.0787, -0.3929 0.1228 0.0791, -0.3586 0.1458 0.0787, -0.3586 0.1458 0.0791, -0.3218 0.1587 0.0787, -0.3218 0.1587 0.0791, -0.312 -0.148 0.0787, -0.312 -0.148 0.0791, -0.3483 -0.1372 0.0787, -0.3483 -0.1372 0.0791, -0.3812 -0.118 0.0787, -0.3812 -0.118 0.0791, -0.4071 -0.0932 0.0787, -0.4071 -0.0932 0.0791, -0.4252 -0.0651 0.0787, -0.4252 -0.0651 0.0791, -0.4365 -0.0321 0.0787, -0.4365 -0.0321 0.0791, -0.3777 0.0849 0.0791, -0.3624 0.1011 0.0791, -0.3394 0.116 0.0791, -0.3134 0.1251 0.0791, -0.2761 0.129 0.0791, -0.2297 0.129 0.0791, -0.2297 -0.1168 0.0791, -0.2744 -0.1168 0.0791, -0.3076 -0.1137 0.0791, -0.3341 -0.1054 0.0791, -0.3556 -0.0927 0.0791, -0.3732 -0.0752 0.0791, -0.3865 -0.0535 0.0791, -0.3958 -0.0239 0.0791, -0.3987 0.0092 0.0791, -0.396 0.0405 0.0791, -0.3886 0.0654 0.0791, -0.2761 0.129 0.0787, -0.2297 0.129 0.0787, -0.3134 0.1251 0.0787, -0.3394 0.116 0.0787, -0.3624 0.1011 0.0787, -0.3777 0.0849 0.0787, -0.3886 0.0654 0.0787, -0.396 0.0405 0.0787, -0.3987 0.0092 0.0787, -0.3958 -0.0239 0.0787, -0.3865 -0.0535 0.0787, -0.3732 -0.0752 0.0787, -0.3556 -0.0927 0.0787, -0.3341 -0.1054 0.0787, -0.3076 -0.1137 0.0787, -0.2744 -0.1168 0.0787, -0.2297 -0.1168 0.0787, -0.1259 -0.1168 0.0791, -0.1259 -0.1514 0.0791, -0.1259 -0.1168 0.0787, -0.1259 -0.1514 0.0787, 0.0431 -0.1514 0.0791, 0.0431 -0.1514 0.0787, 0.0431 0.1636 0.0791, 0.0431 0.1636 0.0787, -0.1183 0.1636 0.0791, -0.1183 0.1636 0.0787, -0.1183 0.129 0.0791, -0.1183 0.129 0.0787, 0.0008 0.129 0.0791, 0.0008 0.129 0.0787, 0.0008 0.0253 0.0791, 0.0008 0.0253 0.0787, -0.1106 0.0253 0.0791, -0.1106 0.0253 0.0787, -0.1106 -0.0093 0.0791, -0.1106 -0.0093 0.0787, 0.0008 -0.0093 0.0791, 0.0008 -0.0093 0.0787, 0.0008 -0.1168 0.0791, 0.0008 -0.1168 0.0787, 0.1045 -0.1005 0.0791, 0.1045 -0.135 0.0791, 0.1045 -0.1005 0.0787, 0.1045 -0.135 0.0787, 0.1381 -0.1488 0.0791, 0.1912 -0.1552 0.0791, 0.1912 -0.1552 0.0787, 0.1826 -0.1551 0.0787, 0.1826 -0.1551 0.0791, 0.1699 -0.1533 0.0787, 0.1381 -0.1488 0.0787, 0.2097 -0.1533 0.0787, 0.23 -0.1512 0.0791, 0.23 -0.1512 0.0787, 0.2605 -0.1407 0.0791, 0.2605 -0.1407 0.0787, 0.2859 -0.1245 0.0791, 0.2859 -0.1245 0.0787, 0.3095 -0.0996 0.0791, 0.3095 -0.0996 0.0787, 0.3263 -0.0697 0.0791, 0.3263 -0.0697 0.0787, 0.3358 -0.0363 0.0791, 0.3358 -0.0363 0.0787, 0.3388 0.0002 0.0791, 0.3388 0.0002 0.0787, 0.1786 0.1674 0.0791, 0.1786 0.1674 0.0787, 0.2103 0.1648 0.0787, 0.2103 0.1648 0.0791, 0.2454 0.1546 0.0787, 0.2454 0.1546 0.0791, 0.2753 0.1374 0.0787, 0.2753 0.1374 0.0791, 0.3037 0.1101 0.0787, 0.3037 0.1101 0.0791, 0.3222 0.0806 0.0787, 0.3222 0.0806 0.0791, 0.3343 0.0449 0.0787, 0.3343 0.0449 0.0791, 0.1045 0.1549 0.0791, 0.1045 0.1549 0.0787, 0.1409 0.1648 0.0787, 0.1409 0.1648 0.0791, 0.1045 0.1127 0.0791, 0.1045 0.1127 0.0787, 0.1783 0.1329 0.0791, 0.1783 0.1329 0.0787, 0.14 0.1279 0.0787, 0.14 0.1279 0.0791, 0.2966 0.0027 0.0791, 0.2966 0.0027 0.0787, 0.2951 0.0273 0.0787, 0.2951 0.0273 0.0791, 0.2867 0.061 0.0787, 0.2867 0.061 0.0791, 0.2737 0.0853 0.0787, 0.2737 0.0853 0.0791, 0.2547 0.1063 0.0787, 0.2547 0.1063 0.0791, 0.2329 0.1209 0.0787, 0.2329 0.1209 0.0791, 0.2093 0.1294 0.0787, 0.2093 0.1294 0.0791, 0.1854 -0.1206 0.0791, 0.1854 -0.1206 0.0787, 0.2147 -0.1174 0.0787, 0.2147 -0.1174 0.0791, 0.2377 -0.1089 0.0787, 0.2377 -0.1089 0.0791, 0.257 -0.0959 0.0787, 0.257 -0.0959 0.0791, 0.2718 -0.0803 0.0787, 0.2718 -0.0803 0.0791, 0.2848 -0.0584 0.0787, 0.2848 -0.0584 0.0791, 0.2934 -0.0314 0.0787, 0.2934 -0.0314 0.0791, 0.1102 -0.1036 0.0787, 0.1102 -0.1036 0.0791, 0.1435 -0.116 0.0787, 0.1435 -0.116 0.0791, 0.3657 -0.1168 0.0791, 0.3657 -0.1514 0.0791, 0.3657 -0.1168 0.0787, 0.3657 -0.1514 0.0787, 0.527 -0.1514 0.0791, 0.527 -0.1514 0.0787, 0.527 0.1636 0.0791, 0.527 0.1636 0.0787, 0.4848 0.1636 0.0791, 0.4848 0.1636 0.0787, 0.4848 -0.1168 0.0791, 0.4848 -0.1168 0.0787
            ]
        }
        coordIndex [
            0,1,2,-1,2,1,3,-1,1,4,3,-1,3,4,5,-1,4,6,5,-1,5,6,7,-1,6,8,7,-1,7,8,9,-1,8,10,9,-1,9,10,11,-1,10,12,11,-1,11,12,13,-1,12,14,13,-1,13,14,15,-1,14,0,15,-1,15,0,2,-1,16,8,17,-1,17,8,6,-1,18,14,16,-1,16,14,12,-1,16,12,8,-1,8,12,10,-1,18,19,14,-1,14,19,20,-1,14,20,0,-1,0,20,21,-1,0,21,22,-1,22,23,0,-1,0,23,17,-1,0,17,1,-1,1,17,6,-1,1,6,4,-1,16,17,24,-1,24,17,25,-1,18,16,26,-1,26,16,24,-1,18,26,27,-1,18,27,19,-1,19,27,28,-1,19,28,20,-1,21,20,29,-1,29,20,28,-1,21,29,30,-1,21,30,22,-1,22,30,31,-1,22,31,23,-1,17,23,25,-1,25,23,31,-1,32,33,34,-1,34,33,35,-1,33,36,35,-1,35,36,37,-1,36,38,37,-1,37,38,39,-1,40,41,42,-1,40,42,43,-1,43,42,44,-1,43,44,45,-1,45,44,46,-1,45,46,47,-1,47,46,48,-1,47,48,49,-1,49,48,50,-1,49,50,51,-1,51,50,52,-1,51,52,53,-1,53,52,54,-1,53,54,55,-1,55,54,39,-1,55,39,38,-1,32,34,56,-1,32,56,57,-1,57,56,58,-1,57,58,59,-1,59,58,60,-1,59,60,61,-1,61,60,62,-1,61,62,63,-1,63,62,64,-1,63,64,65,-1,65,64,66,-1,65,66,67,-1,67,66,41,-1,67,41,40,-1,45,47,68,-1,68,47,49,-1,68,49,69,-1,69,49,51,-1,69,51,70,-1,70,51,53,-1,70,53,71,-1,71,53,55,-1,71,55,72,-1,72,55,38,-1,72,38,73,-1,73,38,36,-1,73,36,74,-1,74,36,33,-1,74,33,75,-1,75,33,32,-1,75,32,76,-1,76,32,57,-1,76,57,77,-1,77,57,59,-1,77,59,78,-1,78,59,61,-1,78,61,79,-1,79,61,63,-1,79,63,80,-1,80,63,65,-1,80,65,81,-1,81,65,67,-1,81,67,82,-1,82,67,40,-1,82,40,83,-1,83,40,43,-1,83,43,84,-1,84,43,45,-1,84,45,68,-1,72,73,85,-1,85,73,86,-1,72,85,87,-1,72,87,71,-1,71,87,88,-1,71,88,70,-1,70,88,89,-1,70,89,69,-1,69,89,90,-1,69,90,68,-1,68,90,91,-1,68,91,84,-1,84,91,92,-1,84,92,83,-1,83,92,93,-1,83,93,82,-1,82,93,94,-1,82,94,81,-1,81,94,95,-1,81,95,80,-1,80,95,96,-1,80,96,79,-1,79,96,97,-1,79,97,78,-1,78,97,98,-1,78,98,77,-1,77,98,99,-1,77,99,76,-1,76,99,100,-1,76,100,75,-1,74,75,101,-1,101,75,100,-1,73,74,86,-1,86,74,101,-1,102,103,104,-1,104,103,105,-1,103,106,105,-1,105,106,107,-1,106,108,107,-1,107,108,109,-1,108,110,109,-1,109,110,111,-1,110,112,111,-1,111,112,113,-1,112,114,113,-1,113,114,115,-1,114,116,115,-1,115,116,117,-1,116,118,117,-1,117,118,119,-1,118,120,119,-1,119,120,121,-1,120,122,121,-1,121,122,123,-1,122,124,123,-1,123,124,125,-1,124,102,125,-1,125,102,104,-1,106,103,102,-1,102,124,106,-1,106,124,122,-1,106,122,108,-1,112,110,114,-1,114,110,108,-1,114,108,116,-1,116,108,122,-1,116,122,118,-1,118,122,120,-1,126,127,128,-1,128,127,129,-1,129,127,130,-1,131,132,133,-1,131,133,134,-1,134,133,135,-1,134,135,130,-1,130,135,136,-1,130,136,129,-1,132,131,137,-1,137,131,138,-1,137,138,139,-1,139,138,140,-1,139,140,141,-1,141,140,142,-1,141,142,143,-1,143,142,144,-1,143,144,145,-1,145,144,146,-1,145,146,147,-1,147,146,148,-1,147,148,149,-1,149,148,150,-1,149,150,151,-1,152,153,154,-1,152,154,155,-1,155,154,156,-1,155,156,157,-1,157,156,158,-1,157,158,159,-1,159,158,160,-1,159,160,161,-1,161,160,162,-1,161,162,163,-1,163,162,164,-1,163,164,165,-1,165,164,151,-1,165,151,150,-1,166,167,168,-1,166,168,169,-1,169,168,153,-1,169,153,152,-1,166,170,167,-1,167,170,171,-1,172,173,174,-1,172,174,175,-1,175,174,171,-1,175,171,170,-1,176,177,178,-1,176,178,179,-1,179,178,180,-1,179,180,181,-1,181,180,182,-1,181,182,183,-1,183,182,184,-1,183,184,185,-1,185,184,186,-1,185,186,187,-1,187,186,188,-1,187,188,189,-1,189,188,173,-1,189,173,172,-1,190,191,192,-1,190,192,193,-1,193,192,194,-1,193,194,195,-1,195,194,196,-1,195,196,197,-1,197,196,198,-1,197,198,199,-1,199,198,200,-1,199,200,201,-1,201,200,202,-1,201,202,203,-1,203,202,177,-1,203,177,176,-1,126,128,204,-1,126,204,205,-1,205,204,206,-1,205,206,207,-1,207,206,191,-1,207,191,190,-1,193,131,190,-1,190,131,134,-1,190,134,207,-1,207,134,130,-1,207,130,205,-1,205,130,127,-1,205,127,126,-1,170,166,175,-1,175,166,169,-1,175,169,172,-1,172,169,152,-1,172,152,189,-1,189,152,155,-1,189,155,187,-1,187,155,157,-1,187,157,185,-1,185,157,159,-1,185,159,183,-1,183,159,161,-1,183,161,181,-1,181,161,163,-1,181,163,179,-1,179,163,165,-1,179,165,176,-1,176,165,150,-1,176,150,203,-1,203,150,148,-1,203,148,201,-1,201,148,146,-1,201,146,199,-1,199,146,144,-1,199,144,197,-1,197,144,142,-1,197,142,195,-1,195,142,140,-1,195,140,193,-1,193,140,138,-1,193,138,131,-1,208,209,210,-1,210,209,211,-1,209,212,211,-1,211,212,213,-1,212,214,213,-1,213,214,215,-1,214,216,215,-1,215,216,217,-1,216,218,217,-1,217,218,219,-1,218,208,219,-1,219,208,210,-1,216,214,218,-1,218,214,212,-1,218,212,208,-1,208,212,209,-1,
        ]
    }
}
Shape{
    appearance Appearance {
        material  Material {
            diffuseColor 0.5019607843137255 0.5019607843137255 0.5019607843137255
            specularColor 0.25098039215686274 0.25098039215686274 0.25098039215686274
            ambientIntensity 0.502
            transparency 0.0
            shininess 0.5
        }
    }
    geometry IndexedFaceSet {
        ccw TRUE
        solid FALSE
        coord DEF co Coordinate {
            point [
                -0.5507 -0.0285 0.0787, -0.6561 -0.0285 0.0787, -0.5977 0.1031 0.0787, -0.6086 0.1031 0.0787, -0.6008 0.114 0.0787, -0.6058 0.114 0.0787, -0.6028 0.1252 0.0787, -0.6038 0.1252 0.0787, -0.2297 0.129 0.0787, -0.2297 -0.1168 0.0787, -0.2761 0.129 0.0787, -0.2744 -0.1168 0.0787, -0.3076 -0.1137 0.0787, -0.3987 0.0092 0.0787, -0.396 0.0405 0.0787, -0.3886 0.0654 0.0787, -0.3134 0.1251 0.0787, -0.3341 -0.1054 0.0787, -0.3556 -0.0927 0.0787, -0.3732 -0.0752 0.0787, -0.3865 -0.0535 0.0787, -0.3958 -0.0239 0.0787, -0.3777 0.0849 0.0787, -0.3624 0.1011 0.0787, -0.3394 0.116 0.0787
            ]
        }
        coordIndex [
            0,1,2,-1,2,1,3,-1,2,3,4,-1,4,3,5,-1,4,5,6,-1,6,5,7,-1,8,9,10,-1,10,9,11,-1,10,11,12,-1,13,14,10,-1,10,14,15,-1,10,15,16,-1,12,17,10,-1,10,17,18,-1,10,18,19,-1,19,20,10,-1,10,20,21,-1,10,21,13,-1,22,23,15,-1,15,23,24,-1,15,24,16,-1,
        ]
    }
}