%TF.GenerationSoftware,KiCad,Pcbnew,9.0.7*%
%TF.CreationDate,2026-03-27T01:08:22-07:00*%
%TF.ProjectId,Class D Potencia,436c6173-7320-4442-9050-6f74656e6369,rev?*%
%TF.SameCoordinates,Original*%
%TF.FileFunction,Legend,Top*%
%TF.FilePolarity,Positive*%
%FSLAX46Y46*%
G04 Gerber Fmt 4.6, Leading zero omitted, Abs format (unit mm)*
G04 Created by KiCad (PCBNEW 9.0.7) date 2026-03-27 01:08:22*
%MOMM*%
%LPD*%
G01*
G04 APERTURE LIST*
%ADD10C,0.250000*%
%ADD11C,1.000000*%
%ADD12C,0.000000*%
%ADD13C,0.150000*%
%ADD14C,0.120000*%
G04 APERTURE END LIST*
D10*
X114067568Y-91075865D02*
X114400901Y-91075865D01*
X114543758Y-91599675D02*
X114067568Y-91599675D01*
X114067568Y-91599675D02*
X114067568Y-90599675D01*
X114067568Y-90599675D02*
X114543758Y-90599675D01*
X114972330Y-91599675D02*
X114972330Y-90599675D01*
X114972330Y-90599675D02*
X115543758Y-91599675D01*
X115543758Y-91599675D02*
X115543758Y-90599675D01*
X116543758Y-90647294D02*
X116448520Y-90599675D01*
X116448520Y-90599675D02*
X116305663Y-90599675D01*
X116305663Y-90599675D02*
X116162806Y-90647294D01*
X116162806Y-90647294D02*
X116067568Y-90742532D01*
X116067568Y-90742532D02*
X116019949Y-90837770D01*
X116019949Y-90837770D02*
X115972330Y-91028246D01*
X115972330Y-91028246D02*
X115972330Y-91171103D01*
X115972330Y-91171103D02*
X116019949Y-91361579D01*
X116019949Y-91361579D02*
X116067568Y-91456817D01*
X116067568Y-91456817D02*
X116162806Y-91552056D01*
X116162806Y-91552056D02*
X116305663Y-91599675D01*
X116305663Y-91599675D02*
X116400901Y-91599675D01*
X116400901Y-91599675D02*
X116543758Y-91552056D01*
X116543758Y-91552056D02*
X116591377Y-91504436D01*
X116591377Y-91504436D02*
X116591377Y-91171103D01*
X116591377Y-91171103D02*
X116400901Y-91171103D01*
X117543758Y-90647294D02*
X117448520Y-90599675D01*
X117448520Y-90599675D02*
X117305663Y-90599675D01*
X117305663Y-90599675D02*
X117162806Y-90647294D01*
X117162806Y-90647294D02*
X117067568Y-90742532D01*
X117067568Y-90742532D02*
X117019949Y-90837770D01*
X117019949Y-90837770D02*
X116972330Y-91028246D01*
X116972330Y-91028246D02*
X116972330Y-91171103D01*
X116972330Y-91171103D02*
X117019949Y-91361579D01*
X117019949Y-91361579D02*
X117067568Y-91456817D01*
X117067568Y-91456817D02*
X117162806Y-91552056D01*
X117162806Y-91552056D02*
X117305663Y-91599675D01*
X117305663Y-91599675D02*
X117400901Y-91599675D01*
X117400901Y-91599675D02*
X117543758Y-91552056D01*
X117543758Y-91552056D02*
X117591377Y-91504436D01*
X117591377Y-91504436D02*
X117591377Y-91171103D01*
X117591377Y-91171103D02*
X117400901Y-91171103D01*
X118734235Y-90694913D02*
X118781854Y-90647294D01*
X118781854Y-90647294D02*
X118877092Y-90599675D01*
X118877092Y-90599675D02*
X119115187Y-90599675D01*
X119115187Y-90599675D02*
X119210425Y-90647294D01*
X119210425Y-90647294D02*
X119258044Y-90694913D01*
X119258044Y-90694913D02*
X119305663Y-90790151D01*
X119305663Y-90790151D02*
X119305663Y-90885389D01*
X119305663Y-90885389D02*
X119258044Y-91028246D01*
X119258044Y-91028246D02*
X118686616Y-91599675D01*
X118686616Y-91599675D02*
X119305663Y-91599675D01*
X119686616Y-90694913D02*
X119734235Y-90647294D01*
X119734235Y-90647294D02*
X119829473Y-90599675D01*
X119829473Y-90599675D02*
X120067568Y-90599675D01*
X120067568Y-90599675D02*
X120162806Y-90647294D01*
X120162806Y-90647294D02*
X120210425Y-90694913D01*
X120210425Y-90694913D02*
X120258044Y-90790151D01*
X120258044Y-90790151D02*
X120258044Y-90885389D01*
X120258044Y-90885389D02*
X120210425Y-91028246D01*
X120210425Y-91028246D02*
X119638997Y-91599675D01*
X119638997Y-91599675D02*
X120258044Y-91599675D01*
X120877092Y-90599675D02*
X120972330Y-90599675D01*
X120972330Y-90599675D02*
X121067568Y-90647294D01*
X121067568Y-90647294D02*
X121115187Y-90694913D01*
X121115187Y-90694913D02*
X121162806Y-90790151D01*
X121162806Y-90790151D02*
X121210425Y-90980627D01*
X121210425Y-90980627D02*
X121210425Y-91218722D01*
X121210425Y-91218722D02*
X121162806Y-91409198D01*
X121162806Y-91409198D02*
X121115187Y-91504436D01*
X121115187Y-91504436D02*
X121067568Y-91552056D01*
X121067568Y-91552056D02*
X120972330Y-91599675D01*
X120972330Y-91599675D02*
X120877092Y-91599675D01*
X120877092Y-91599675D02*
X120781854Y-91552056D01*
X120781854Y-91552056D02*
X120734235Y-91504436D01*
X120734235Y-91504436D02*
X120686616Y-91409198D01*
X120686616Y-91409198D02*
X120638997Y-91218722D01*
X120638997Y-91218722D02*
X120638997Y-90980627D01*
X120638997Y-90980627D02*
X120686616Y-90790151D01*
X120686616Y-90790151D02*
X120734235Y-90694913D01*
X120734235Y-90694913D02*
X120781854Y-90647294D01*
X120781854Y-90647294D02*
X120877092Y-90599675D01*
X114400901Y-92685809D02*
X114067568Y-92685809D01*
X114067568Y-93209619D02*
X114067568Y-92209619D01*
X114067568Y-92209619D02*
X114543758Y-92209619D01*
X114924711Y-93209619D02*
X114924711Y-92542952D01*
X114924711Y-92209619D02*
X114877092Y-92257238D01*
X114877092Y-92257238D02*
X114924711Y-92304857D01*
X114924711Y-92304857D02*
X114972330Y-92257238D01*
X114972330Y-92257238D02*
X114924711Y-92209619D01*
X114924711Y-92209619D02*
X114924711Y-92304857D01*
X115400901Y-92542952D02*
X115400901Y-93209619D01*
X115400901Y-92638190D02*
X115448520Y-92590571D01*
X115448520Y-92590571D02*
X115543758Y-92542952D01*
X115543758Y-92542952D02*
X115686615Y-92542952D01*
X115686615Y-92542952D02*
X115781853Y-92590571D01*
X115781853Y-92590571D02*
X115829472Y-92685809D01*
X115829472Y-92685809D02*
X115829472Y-93209619D01*
X116734234Y-93209619D02*
X116734234Y-92685809D01*
X116734234Y-92685809D02*
X116686615Y-92590571D01*
X116686615Y-92590571D02*
X116591377Y-92542952D01*
X116591377Y-92542952D02*
X116400901Y-92542952D01*
X116400901Y-92542952D02*
X116305663Y-92590571D01*
X116734234Y-93162000D02*
X116638996Y-93209619D01*
X116638996Y-93209619D02*
X116400901Y-93209619D01*
X116400901Y-93209619D02*
X116305663Y-93162000D01*
X116305663Y-93162000D02*
X116258044Y-93066761D01*
X116258044Y-93066761D02*
X116258044Y-92971523D01*
X116258044Y-92971523D02*
X116305663Y-92876285D01*
X116305663Y-92876285D02*
X116400901Y-92828666D01*
X116400901Y-92828666D02*
X116638996Y-92828666D01*
X116638996Y-92828666D02*
X116734234Y-92781047D01*
X117353282Y-93209619D02*
X117258044Y-93162000D01*
X117258044Y-93162000D02*
X117210425Y-93066761D01*
X117210425Y-93066761D02*
X117210425Y-92209619D01*
X118496140Y-93209619D02*
X118496140Y-92209619D01*
X118496140Y-92209619D02*
X118877092Y-92209619D01*
X118877092Y-92209619D02*
X118972330Y-92257238D01*
X118972330Y-92257238D02*
X119019949Y-92304857D01*
X119019949Y-92304857D02*
X119067568Y-92400095D01*
X119067568Y-92400095D02*
X119067568Y-92542952D01*
X119067568Y-92542952D02*
X119019949Y-92638190D01*
X119019949Y-92638190D02*
X118972330Y-92685809D01*
X118972330Y-92685809D02*
X118877092Y-92733428D01*
X118877092Y-92733428D02*
X118496140Y-92733428D01*
X119496140Y-93209619D02*
X119496140Y-92542952D01*
X119496140Y-92733428D02*
X119543759Y-92638190D01*
X119543759Y-92638190D02*
X119591378Y-92590571D01*
X119591378Y-92590571D02*
X119686616Y-92542952D01*
X119686616Y-92542952D02*
X119781854Y-92542952D01*
X120258045Y-93209619D02*
X120162807Y-93162000D01*
X120162807Y-93162000D02*
X120115188Y-93114380D01*
X120115188Y-93114380D02*
X120067569Y-93019142D01*
X120067569Y-93019142D02*
X120067569Y-92733428D01*
X120067569Y-92733428D02*
X120115188Y-92638190D01*
X120115188Y-92638190D02*
X120162807Y-92590571D01*
X120162807Y-92590571D02*
X120258045Y-92542952D01*
X120258045Y-92542952D02*
X120400902Y-92542952D01*
X120400902Y-92542952D02*
X120496140Y-92590571D01*
X120496140Y-92590571D02*
X120543759Y-92638190D01*
X120543759Y-92638190D02*
X120591378Y-92733428D01*
X120591378Y-92733428D02*
X120591378Y-93019142D01*
X120591378Y-93019142D02*
X120543759Y-93114380D01*
X120543759Y-93114380D02*
X120496140Y-93162000D01*
X120496140Y-93162000D02*
X120400902Y-93209619D01*
X120400902Y-93209619D02*
X120258045Y-93209619D01*
X121019950Y-92542952D02*
X121019950Y-93400095D01*
X121019950Y-93400095D02*
X120972331Y-93495333D01*
X120972331Y-93495333D02*
X120877093Y-93542952D01*
X120877093Y-93542952D02*
X120829474Y-93542952D01*
X121019950Y-92209619D02*
X120972331Y-92257238D01*
X120972331Y-92257238D02*
X121019950Y-92304857D01*
X121019950Y-92304857D02*
X121067569Y-92257238D01*
X121067569Y-92257238D02*
X121019950Y-92209619D01*
X121019950Y-92209619D02*
X121019950Y-92304857D01*
X121877092Y-93162000D02*
X121781854Y-93209619D01*
X121781854Y-93209619D02*
X121591378Y-93209619D01*
X121591378Y-93209619D02*
X121496140Y-93162000D01*
X121496140Y-93162000D02*
X121448521Y-93066761D01*
X121448521Y-93066761D02*
X121448521Y-92685809D01*
X121448521Y-92685809D02*
X121496140Y-92590571D01*
X121496140Y-92590571D02*
X121591378Y-92542952D01*
X121591378Y-92542952D02*
X121781854Y-92542952D01*
X121781854Y-92542952D02*
X121877092Y-92590571D01*
X121877092Y-92590571D02*
X121924711Y-92685809D01*
X121924711Y-92685809D02*
X121924711Y-92781047D01*
X121924711Y-92781047D02*
X121448521Y-92876285D01*
X122781854Y-93162000D02*
X122686616Y-93209619D01*
X122686616Y-93209619D02*
X122496140Y-93209619D01*
X122496140Y-93209619D02*
X122400902Y-93162000D01*
X122400902Y-93162000D02*
X122353283Y-93114380D01*
X122353283Y-93114380D02*
X122305664Y-93019142D01*
X122305664Y-93019142D02*
X122305664Y-92733428D01*
X122305664Y-92733428D02*
X122353283Y-92638190D01*
X122353283Y-92638190D02*
X122400902Y-92590571D01*
X122400902Y-92590571D02*
X122496140Y-92542952D01*
X122496140Y-92542952D02*
X122686616Y-92542952D01*
X122686616Y-92542952D02*
X122781854Y-92590571D01*
X123067569Y-92542952D02*
X123448521Y-92542952D01*
X123210426Y-92209619D02*
X123210426Y-93066761D01*
X123210426Y-93066761D02*
X123258045Y-93162000D01*
X123258045Y-93162000D02*
X123353283Y-93209619D01*
X123353283Y-93209619D02*
X123448521Y-93209619D01*
D11*
X83000000Y-66000000D02*
G75*
G02*
X88000000Y-61000000I5000000J0D01*
G01*
X83000000Y-90000000D02*
X83000000Y-66000000D01*
D12*
G36*
X103886000Y-91821000D02*
G01*
X104521000Y-91821000D01*
X104521000Y-92075000D01*
X103886000Y-92075000D01*
X103886000Y-92329000D01*
X103378000Y-91948000D01*
X103886000Y-91567000D01*
X103886000Y-91821000D01*
G37*
D13*
X103886000Y-91821000D02*
X104521000Y-91821000D01*
X104521000Y-91821000D02*
X104521000Y-92075000D01*
X104521000Y-92075000D02*
X103886000Y-92075000D01*
X103886000Y-92075000D02*
X103886000Y-92329000D01*
X103886000Y-92329000D02*
X103378000Y-91948000D01*
X103378000Y-91948000D02*
X103886000Y-91567000D01*
X103886000Y-91567000D02*
X103886000Y-91821000D01*
D11*
X88000000Y-61000000D02*
X172000000Y-61000000D01*
D12*
G36*
X108077000Y-91948000D02*
G01*
X107569000Y-92329000D01*
X107569000Y-92075000D01*
X106934000Y-92075000D01*
X106934000Y-91821000D01*
X107569000Y-91821000D01*
X107569000Y-91567000D01*
X108077000Y-91948000D01*
G37*
D13*
X108077000Y-91948000D02*
X107569000Y-92329000D01*
X107569000Y-92329000D02*
X107569000Y-92075000D01*
X107569000Y-92075000D02*
X106934000Y-92075000D01*
X106934000Y-92075000D02*
X106934000Y-91821000D01*
X106934000Y-91821000D02*
X107569000Y-91821000D01*
X107569000Y-91821000D02*
X107569000Y-91567000D01*
X107569000Y-91567000D02*
X108077000Y-91948000D01*
D11*
X88000000Y-95000000D02*
G75*
G02*
X83000000Y-90000000I0J5000000D01*
G01*
X177000000Y-90000000D02*
G75*
G02*
X172000000Y-95000000I-5000000J0D01*
G01*
X172000000Y-61000000D02*
G75*
G02*
X177000000Y-66000000I0J-5000000D01*
G01*
X177000000Y-90000000D02*
X177000000Y-66000000D01*
X172000000Y-95000000D02*
X88000000Y-95000000D01*
D13*
X97452380Y-83119050D02*
X98166670Y-83119050D01*
X98166670Y-83119050D02*
X98309520Y-83166670D01*
X98309520Y-83166670D02*
X98404760Y-83261900D01*
X98404760Y-83261900D02*
X98452380Y-83404760D01*
X98452380Y-83404760D02*
X98452380Y-83500000D01*
X98452380Y-82166670D02*
X98452380Y-82642860D01*
X98452380Y-82642860D02*
X97452380Y-82642860D01*
X98357140Y-81261900D02*
X98404760Y-81309520D01*
X98404760Y-81309520D02*
X98452380Y-81452380D01*
X98452380Y-81452380D02*
X98452380Y-81547620D01*
X98452380Y-81547620D02*
X98404760Y-81690480D01*
X98404760Y-81690480D02*
X98309520Y-81785710D01*
X98309520Y-81785710D02*
X98214290Y-81833330D01*
X98214290Y-81833330D02*
X98023810Y-81880950D01*
X98023810Y-81880950D02*
X97880950Y-81880950D01*
X97880950Y-81880950D02*
X97690480Y-81833330D01*
X97690480Y-81833330D02*
X97595240Y-81785710D01*
X97595240Y-81785710D02*
X97500000Y-81690480D01*
X97500000Y-81690480D02*
X97452380Y-81547620D01*
X97452380Y-81547620D02*
X97452380Y-81452380D01*
X97452380Y-81452380D02*
X97500000Y-81309520D01*
X97500000Y-81309520D02*
X97547620Y-81261900D01*
X97452380Y-80547620D02*
X98166670Y-80547620D01*
X98166670Y-80547620D02*
X98309520Y-80595240D01*
X98309520Y-80595240D02*
X98404760Y-80690480D01*
X98404760Y-80690480D02*
X98452380Y-80833330D01*
X98452380Y-80833330D02*
X98452380Y-80928570D01*
X98452380Y-79595240D02*
X98452380Y-80071430D01*
X98452380Y-80071430D02*
X97452380Y-80071430D01*
X98357140Y-78690480D02*
X98404760Y-78738100D01*
X98404760Y-78738100D02*
X98452380Y-78880950D01*
X98452380Y-78880950D02*
X98452380Y-78976190D01*
X98452380Y-78976190D02*
X98404760Y-79119050D01*
X98404760Y-79119050D02*
X98309520Y-79214290D01*
X98309520Y-79214290D02*
X98214290Y-79261900D01*
X98214290Y-79261900D02*
X98023810Y-79309520D01*
X98023810Y-79309520D02*
X97880950Y-79309520D01*
X97880950Y-79309520D02*
X97690480Y-79261900D01*
X97690480Y-79261900D02*
X97595240Y-79214290D01*
X97595240Y-79214290D02*
X97500000Y-79119050D01*
X97500000Y-79119050D02*
X97452380Y-78976190D01*
X97452380Y-78976190D02*
X97452380Y-78880950D01*
X97452380Y-78880950D02*
X97500000Y-78738100D01*
X97500000Y-78738100D02*
X97547620Y-78690480D01*
X97452380Y-77976190D02*
X98166670Y-77976190D01*
X98166670Y-77976190D02*
X98309520Y-78023810D01*
X98309520Y-78023810D02*
X98404760Y-78119050D01*
X98404760Y-78119050D02*
X98452380Y-78261900D01*
X98452380Y-78261900D02*
X98452380Y-78357140D01*
X98452380Y-77023810D02*
X98452380Y-77500000D01*
X98452380Y-77500000D02*
X97452380Y-77500000D01*
X98357140Y-76119050D02*
X98404760Y-76166670D01*
X98404760Y-76166670D02*
X98452380Y-76309520D01*
X98452380Y-76309520D02*
X98452380Y-76404760D01*
X98452380Y-76404760D02*
X98404760Y-76547620D01*
X98404760Y-76547620D02*
X98309520Y-76642860D01*
X98309520Y-76642860D02*
X98214290Y-76690480D01*
X98214290Y-76690480D02*
X98023810Y-76738100D01*
X98023810Y-76738100D02*
X97880950Y-76738100D01*
X97880950Y-76738100D02*
X97690480Y-76690480D01*
X97690480Y-76690480D02*
X97595240Y-76642860D01*
X97595240Y-76642860D02*
X97500000Y-76547620D01*
X97500000Y-76547620D02*
X97452380Y-76404760D01*
X97452380Y-76404760D02*
X97452380Y-76309520D01*
X97452380Y-76309520D02*
X97500000Y-76166670D01*
X97500000Y-76166670D02*
X97547620Y-76119050D01*
X97452380Y-75404760D02*
X98166670Y-75404760D01*
X98166670Y-75404760D02*
X98309520Y-75452380D01*
X98309520Y-75452380D02*
X98404760Y-75547620D01*
X98404760Y-75547620D02*
X98452380Y-75690480D01*
X98452380Y-75690480D02*
X98452380Y-75785710D01*
X98452380Y-74452380D02*
X98452380Y-74928570D01*
X98452380Y-74928570D02*
X97452380Y-74928570D01*
X98357140Y-73547620D02*
X98404760Y-73595240D01*
X98404760Y-73595240D02*
X98452380Y-73738100D01*
X98452380Y-73738100D02*
X98452380Y-73833330D01*
X98452380Y-73833330D02*
X98404760Y-73976190D01*
X98404760Y-73976190D02*
X98309520Y-74071430D01*
X98309520Y-74071430D02*
X98214290Y-74119050D01*
X98214290Y-74119050D02*
X98023810Y-74166670D01*
X98023810Y-74166670D02*
X97880950Y-74166670D01*
X97880950Y-74166670D02*
X97690480Y-74119050D01*
X97690480Y-74119050D02*
X97595240Y-74071430D01*
X97595240Y-74071430D02*
X97500000Y-73976190D01*
X97500000Y-73976190D02*
X97452380Y-73833330D01*
X97452380Y-73833330D02*
X97452380Y-73738100D01*
X97452380Y-73738100D02*
X97500000Y-73595240D01*
X97500000Y-73595240D02*
X97547620Y-73547620D01*
X112833330Y-77452380D02*
X112500000Y-76976190D01*
X112261900Y-77452380D02*
X112261900Y-76452380D01*
X112261900Y-76452380D02*
X112642860Y-76452380D01*
X112642860Y-76452380D02*
X112738100Y-76500000D01*
X112738100Y-76500000D02*
X112785710Y-76547620D01*
X112785710Y-76547620D02*
X112833330Y-76642860D01*
X112833330Y-76642860D02*
X112833330Y-76785710D01*
X112833330Y-76785710D02*
X112785710Y-76880950D01*
X112785710Y-76880950D02*
X112738100Y-76928570D01*
X112738100Y-76928570D02*
X112642860Y-76976190D01*
X112642860Y-76976190D02*
X112261900Y-76976190D01*
X113785710Y-77452380D02*
X113214290Y-77452380D01*
X113500000Y-77452380D02*
X113500000Y-76452380D01*
X113500000Y-76452380D02*
X113404760Y-76595240D01*
X113404760Y-76595240D02*
X113309520Y-76690480D01*
X113309520Y-76690480D02*
X113214290Y-76738100D01*
X119904760Y-63000620D02*
X119809520Y-62953000D01*
X119809520Y-62953000D02*
X119714290Y-62857760D01*
X119714290Y-62857760D02*
X119571430Y-62714900D01*
X119571430Y-62714900D02*
X119476190Y-62667290D01*
X119476190Y-62667290D02*
X119380950Y-62667290D01*
X119428570Y-62905380D02*
X119333330Y-62857760D01*
X119333330Y-62857760D02*
X119238100Y-62762520D01*
X119238100Y-62762520D02*
X119190480Y-62572050D01*
X119190480Y-62572050D02*
X119190480Y-62238710D01*
X119190480Y-62238710D02*
X119238100Y-62048240D01*
X119238100Y-62048240D02*
X119333330Y-61953000D01*
X119333330Y-61953000D02*
X119428570Y-61905380D01*
X119428570Y-61905380D02*
X119619050Y-61905380D01*
X119619050Y-61905380D02*
X119714290Y-61953000D01*
X119714290Y-61953000D02*
X119809520Y-62048240D01*
X119809520Y-62048240D02*
X119857140Y-62238710D01*
X119857140Y-62238710D02*
X119857140Y-62572050D01*
X119857140Y-62572050D02*
X119809520Y-62762520D01*
X119809520Y-62762520D02*
X119714290Y-62857760D01*
X119714290Y-62857760D02*
X119619050Y-62905380D01*
X119619050Y-62905380D02*
X119428570Y-62905380D01*
X120809520Y-62905380D02*
X120238100Y-62905380D01*
X120523810Y-62905380D02*
X120523810Y-61905380D01*
X120523810Y-61905380D02*
X120428570Y-62048240D01*
X120428570Y-62048240D02*
X120333330Y-62143480D01*
X120333330Y-62143480D02*
X120238100Y-62191100D01*
X131333330Y-76857140D02*
X131285710Y-76904760D01*
X131285710Y-76904760D02*
X131142860Y-76952380D01*
X131142860Y-76952380D02*
X131047620Y-76952380D01*
X131047620Y-76952380D02*
X130904760Y-76904760D01*
X130904760Y-76904760D02*
X130809520Y-76809520D01*
X130809520Y-76809520D02*
X130761900Y-76714290D01*
X130761900Y-76714290D02*
X130714290Y-76523810D01*
X130714290Y-76523810D02*
X130714290Y-76380950D01*
X130714290Y-76380950D02*
X130761900Y-76190480D01*
X130761900Y-76190480D02*
X130809520Y-76095240D01*
X130809520Y-76095240D02*
X130904760Y-76000000D01*
X130904760Y-76000000D02*
X131047620Y-75952380D01*
X131047620Y-75952380D02*
X131142860Y-75952380D01*
X131142860Y-75952380D02*
X131285710Y-76000000D01*
X131285710Y-76000000D02*
X131333330Y-76047620D01*
X131714290Y-76047620D02*
X131761900Y-76000000D01*
X131761900Y-76000000D02*
X131857140Y-75952380D01*
X131857140Y-75952380D02*
X132095240Y-75952380D01*
X132095240Y-75952380D02*
X132190480Y-76000000D01*
X132190480Y-76000000D02*
X132238100Y-76047620D01*
X132238100Y-76047620D02*
X132285710Y-76142860D01*
X132285710Y-76142860D02*
X132285710Y-76238100D01*
X132285710Y-76238100D02*
X132238100Y-76380950D01*
X132238100Y-76380950D02*
X131666670Y-76952380D01*
X131666670Y-76952380D02*
X132285710Y-76952380D01*
X157217380Y-86526670D02*
X157217380Y-87002860D01*
X157217380Y-87002860D02*
X156217380Y-87002860D01*
X156312620Y-86240950D02*
X156265000Y-86193330D01*
X156265000Y-86193330D02*
X156217380Y-86098100D01*
X156217380Y-86098100D02*
X156217380Y-85860000D01*
X156217380Y-85860000D02*
X156265000Y-85764760D01*
X156265000Y-85764760D02*
X156312620Y-85717140D01*
X156312620Y-85717140D02*
X156407860Y-85669520D01*
X156407860Y-85669520D02*
X156503100Y-85669520D01*
X156503100Y-85669520D02*
X156645950Y-85717140D01*
X156645950Y-85717140D02*
X157217380Y-86288570D01*
X157217380Y-86288570D02*
X157217380Y-85669520D01*
X143983330Y-77857140D02*
X143935710Y-77904760D01*
X143935710Y-77904760D02*
X143792860Y-77952380D01*
X143792860Y-77952380D02*
X143697620Y-77952380D01*
X143697620Y-77952380D02*
X143554760Y-77904760D01*
X143554760Y-77904760D02*
X143459520Y-77809520D01*
X143459520Y-77809520D02*
X143411900Y-77714290D01*
X143411900Y-77714290D02*
X143364290Y-77523810D01*
X143364290Y-77523810D02*
X143364290Y-77380950D01*
X143364290Y-77380950D02*
X143411900Y-77190480D01*
X143411900Y-77190480D02*
X143459520Y-77095240D01*
X143459520Y-77095240D02*
X143554760Y-77000000D01*
X143554760Y-77000000D02*
X143697620Y-76952380D01*
X143697620Y-76952380D02*
X143792860Y-76952380D01*
X143792860Y-76952380D02*
X143935710Y-77000000D01*
X143935710Y-77000000D02*
X143983330Y-77047620D01*
X144840480Y-76952380D02*
X144650000Y-76952380D01*
X144650000Y-76952380D02*
X144554760Y-77000000D01*
X144554760Y-77000000D02*
X144507140Y-77047620D01*
X144507140Y-77047620D02*
X144411900Y-77190480D01*
X144411900Y-77190480D02*
X144364290Y-77380950D01*
X144364290Y-77380950D02*
X144364290Y-77761900D01*
X144364290Y-77761900D02*
X144411900Y-77857140D01*
X144411900Y-77857140D02*
X144459520Y-77904760D01*
X144459520Y-77904760D02*
X144554760Y-77952380D01*
X144554760Y-77952380D02*
X144745240Y-77952380D01*
X144745240Y-77952380D02*
X144840480Y-77904760D01*
X144840480Y-77904760D02*
X144888100Y-77857140D01*
X144888100Y-77857140D02*
X144935710Y-77761900D01*
X144935710Y-77761900D02*
X144935710Y-77523810D01*
X144935710Y-77523810D02*
X144888100Y-77428570D01*
X144888100Y-77428570D02*
X144840480Y-77380950D01*
X144840480Y-77380950D02*
X144745240Y-77333330D01*
X144745240Y-77333330D02*
X144554760Y-77333330D01*
X144554760Y-77333330D02*
X144459520Y-77380950D01*
X144459520Y-77380950D02*
X144411900Y-77428570D01*
X144411900Y-77428570D02*
X144364290Y-77523810D01*
X159833330Y-76857140D02*
X159785710Y-76904760D01*
X159785710Y-76904760D02*
X159642860Y-76952380D01*
X159642860Y-76952380D02*
X159547620Y-76952380D01*
X159547620Y-76952380D02*
X159404760Y-76904760D01*
X159404760Y-76904760D02*
X159309520Y-76809520D01*
X159309520Y-76809520D02*
X159261900Y-76714290D01*
X159261900Y-76714290D02*
X159214290Y-76523810D01*
X159214290Y-76523810D02*
X159214290Y-76380950D01*
X159214290Y-76380950D02*
X159261900Y-76190480D01*
X159261900Y-76190480D02*
X159309520Y-76095240D01*
X159309520Y-76095240D02*
X159404760Y-76000000D01*
X159404760Y-76000000D02*
X159547620Y-75952380D01*
X159547620Y-75952380D02*
X159642860Y-75952380D01*
X159642860Y-75952380D02*
X159785710Y-76000000D01*
X159785710Y-76000000D02*
X159833330Y-76047620D01*
X160690480Y-76285710D02*
X160690480Y-76952380D01*
X160452380Y-75904760D02*
X160214290Y-76619050D01*
X160214290Y-76619050D02*
X160833330Y-76619050D01*
X85666670Y-63452380D02*
X85666670Y-64166670D01*
X85666670Y-64166670D02*
X85619050Y-64309520D01*
X85619050Y-64309520D02*
X85523810Y-64404760D01*
X85523810Y-64404760D02*
X85380950Y-64452380D01*
X85380950Y-64452380D02*
X85285710Y-64452380D01*
X86095240Y-63547620D02*
X86142860Y-63500000D01*
X86142860Y-63500000D02*
X86238100Y-63452380D01*
X86238100Y-63452380D02*
X86476190Y-63452380D01*
X86476190Y-63452380D02*
X86571430Y-63500000D01*
X86571430Y-63500000D02*
X86619050Y-63547620D01*
X86619050Y-63547620D02*
X86666670Y-63642860D01*
X86666670Y-63642860D02*
X86666670Y-63738100D01*
X86666670Y-63738100D02*
X86619050Y-63880950D01*
X86619050Y-63880950D02*
X86047620Y-64452380D01*
X86047620Y-64452380D02*
X86666670Y-64452380D01*
X96788450Y-62857140D02*
X96740830Y-62904760D01*
X96740830Y-62904760D02*
X96597970Y-62952380D01*
X96597970Y-62952380D02*
X96502730Y-62952380D01*
X96502730Y-62952380D02*
X96359870Y-62904760D01*
X96359870Y-62904760D02*
X96264640Y-62809520D01*
X96264640Y-62809520D02*
X96217020Y-62714290D01*
X96217020Y-62714290D02*
X96169400Y-62523810D01*
X96169400Y-62523810D02*
X96169400Y-62380950D01*
X96169400Y-62380950D02*
X96217020Y-62190480D01*
X96217020Y-62190480D02*
X96264640Y-62095240D01*
X96264640Y-62095240D02*
X96359870Y-62000000D01*
X96359870Y-62000000D02*
X96502730Y-61952380D01*
X96502730Y-61952380D02*
X96597970Y-61952380D01*
X96597970Y-61952380D02*
X96740830Y-62000000D01*
X96740830Y-62000000D02*
X96788450Y-62047620D01*
X97740830Y-62952380D02*
X97169400Y-62952380D01*
X97455110Y-62952380D02*
X97455110Y-61952380D01*
X97455110Y-61952380D02*
X97359870Y-62095240D01*
X97359870Y-62095240D02*
X97264640Y-62190480D01*
X97264640Y-62190480D02*
X97169400Y-62238100D01*
X119904760Y-89478620D02*
X119809520Y-89431000D01*
X119809520Y-89431000D02*
X119714290Y-89335760D01*
X119714290Y-89335760D02*
X119571430Y-89192900D01*
X119571430Y-89192900D02*
X119476190Y-89145290D01*
X119476190Y-89145290D02*
X119380950Y-89145290D01*
X119428570Y-89383380D02*
X119333330Y-89335760D01*
X119333330Y-89335760D02*
X119238100Y-89240520D01*
X119238100Y-89240520D02*
X119190480Y-89050050D01*
X119190480Y-89050050D02*
X119190480Y-88716710D01*
X119190480Y-88716710D02*
X119238100Y-88526240D01*
X119238100Y-88526240D02*
X119333330Y-88431000D01*
X119333330Y-88431000D02*
X119428570Y-88383380D01*
X119428570Y-88383380D02*
X119619050Y-88383380D01*
X119619050Y-88383380D02*
X119714290Y-88431000D01*
X119714290Y-88431000D02*
X119809520Y-88526240D01*
X119809520Y-88526240D02*
X119857140Y-88716710D01*
X119857140Y-88716710D02*
X119857140Y-89050050D01*
X119857140Y-89050050D02*
X119809520Y-89240520D01*
X119809520Y-89240520D02*
X119714290Y-89335760D01*
X119714290Y-89335760D02*
X119619050Y-89383380D01*
X119619050Y-89383380D02*
X119428570Y-89383380D01*
X120238100Y-88478620D02*
X120285710Y-88431000D01*
X120285710Y-88431000D02*
X120380950Y-88383380D01*
X120380950Y-88383380D02*
X120619050Y-88383380D01*
X120619050Y-88383380D02*
X120714290Y-88431000D01*
X120714290Y-88431000D02*
X120761900Y-88478620D01*
X120761900Y-88478620D02*
X120809520Y-88573860D01*
X120809520Y-88573860D02*
X120809520Y-88669100D01*
X120809520Y-88669100D02*
X120761900Y-88811950D01*
X120761900Y-88811950D02*
X120190480Y-89383380D01*
X120190480Y-89383380D02*
X120809520Y-89383380D01*
X95452380Y-79261900D02*
X96261900Y-79261900D01*
X96261900Y-79261900D02*
X96357140Y-79214290D01*
X96357140Y-79214290D02*
X96404760Y-79166670D01*
X96404760Y-79166670D02*
X96452380Y-79071430D01*
X96452380Y-79071430D02*
X96452380Y-78880950D01*
X96452380Y-78880950D02*
X96404760Y-78785710D01*
X96404760Y-78785710D02*
X96357140Y-78738100D01*
X96357140Y-78738100D02*
X96261900Y-78690480D01*
X96261900Y-78690480D02*
X95452380Y-78690480D01*
X96452380Y-77690480D02*
X96452380Y-78261900D01*
X96452380Y-77976190D02*
X95452380Y-77976190D01*
X95452380Y-77976190D02*
X95595240Y-78071430D01*
X95595240Y-78071430D02*
X95690480Y-78166670D01*
X95690480Y-78166670D02*
X95738100Y-78261900D01*
X111761900Y-68952380D02*
X111761900Y-67952380D01*
X111761900Y-67952380D02*
X112000000Y-67952380D01*
X112000000Y-67952380D02*
X112142860Y-68000000D01*
X112142860Y-68000000D02*
X112238100Y-68095240D01*
X112238100Y-68095240D02*
X112285710Y-68190480D01*
X112285710Y-68190480D02*
X112333330Y-68380950D01*
X112333330Y-68380950D02*
X112333330Y-68523810D01*
X112333330Y-68523810D02*
X112285710Y-68714290D01*
X112285710Y-68714290D02*
X112238100Y-68809520D01*
X112238100Y-68809520D02*
X112142860Y-68904760D01*
X112142860Y-68904760D02*
X112000000Y-68952380D01*
X112000000Y-68952380D02*
X111761900Y-68952380D01*
X112714290Y-68047620D02*
X112761900Y-68000000D01*
X112761900Y-68000000D02*
X112857140Y-67952380D01*
X112857140Y-67952380D02*
X113095240Y-67952380D01*
X113095240Y-67952380D02*
X113190480Y-68000000D01*
X113190480Y-68000000D02*
X113238100Y-68047620D01*
X113238100Y-68047620D02*
X113285710Y-68142860D01*
X113285710Y-68142860D02*
X113285710Y-68238100D01*
X113285710Y-68238100D02*
X113238100Y-68380950D01*
X113238100Y-68380950D02*
X112666670Y-68952380D01*
X112666670Y-68952380D02*
X113285710Y-68952380D01*
X115925280Y-68952380D02*
X115925280Y-67952380D01*
X116496710Y-68952380D02*
X116068140Y-68380950D01*
X116496710Y-67952380D02*
X115925280Y-68523810D01*
X140357140Y-69166670D02*
X140404760Y-69214290D01*
X140404760Y-69214290D02*
X140452380Y-69357140D01*
X140452380Y-69357140D02*
X140452380Y-69452380D01*
X140452380Y-69452380D02*
X140404760Y-69595240D01*
X140404760Y-69595240D02*
X140309520Y-69690480D01*
X140309520Y-69690480D02*
X140214290Y-69738100D01*
X140214290Y-69738100D02*
X140023810Y-69785710D01*
X140023810Y-69785710D02*
X139880950Y-69785710D01*
X139880950Y-69785710D02*
X139690480Y-69738100D01*
X139690480Y-69738100D02*
X139595240Y-69690480D01*
X139595240Y-69690480D02*
X139500000Y-69595240D01*
X139500000Y-69595240D02*
X139452380Y-69452380D01*
X139452380Y-69452380D02*
X139452380Y-69357140D01*
X139452380Y-69357140D02*
X139500000Y-69214290D01*
X139500000Y-69214290D02*
X139547620Y-69166670D01*
X139452380Y-68833330D02*
X139452380Y-68214290D01*
X139452380Y-68214290D02*
X139833330Y-68547620D01*
X139833330Y-68547620D02*
X139833330Y-68404760D01*
X139833330Y-68404760D02*
X139880950Y-68309520D01*
X139880950Y-68309520D02*
X139928570Y-68261900D01*
X139928570Y-68261900D02*
X140023810Y-68214290D01*
X140023810Y-68214290D02*
X140261900Y-68214290D01*
X140261900Y-68214290D02*
X140357140Y-68261900D01*
X140357140Y-68261900D02*
X140404760Y-68309520D01*
X140404760Y-68309520D02*
X140452380Y-68404760D01*
X140452380Y-68404760D02*
X140452380Y-68690480D01*
X140452380Y-68690480D02*
X140404760Y-68785710D01*
X140404760Y-68785710D02*
X140357140Y-68833330D01*
X85666670Y-84452380D02*
X85666670Y-85166670D01*
X85666670Y-85166670D02*
X85619050Y-85309520D01*
X85619050Y-85309520D02*
X85523810Y-85404760D01*
X85523810Y-85404760D02*
X85380950Y-85452380D01*
X85380950Y-85452380D02*
X85285710Y-85452380D01*
X86047620Y-84452380D02*
X86666670Y-84452380D01*
X86666670Y-84452380D02*
X86333330Y-84833330D01*
X86333330Y-84833330D02*
X86476190Y-84833330D01*
X86476190Y-84833330D02*
X86571430Y-84880950D01*
X86571430Y-84880950D02*
X86619050Y-84928570D01*
X86619050Y-84928570D02*
X86666670Y-85023810D01*
X86666670Y-85023810D02*
X86666670Y-85261900D01*
X86666670Y-85261900D02*
X86619050Y-85357140D01*
X86619050Y-85357140D02*
X86571430Y-85404760D01*
X86571430Y-85404760D02*
X86476190Y-85452380D01*
X86476190Y-85452380D02*
X86190480Y-85452380D01*
X86190480Y-85452380D02*
X86095240Y-85404760D01*
X86095240Y-85404760D02*
X86047620Y-85357140D01*
X143502140Y-84582380D02*
X143025950Y-84582380D01*
X143025950Y-84582380D02*
X143025950Y-83582380D01*
X143787860Y-84534760D02*
X143930710Y-84582380D01*
X143930710Y-84582380D02*
X144168810Y-84582380D01*
X144168810Y-84582380D02*
X144264050Y-84534760D01*
X144264050Y-84534760D02*
X144311670Y-84487140D01*
X144311670Y-84487140D02*
X144359290Y-84391900D01*
X144359290Y-84391900D02*
X144359290Y-84296670D01*
X144359290Y-84296670D02*
X144311670Y-84201430D01*
X144311670Y-84201430D02*
X144264050Y-84153810D01*
X144264050Y-84153810D02*
X144168810Y-84106190D01*
X144168810Y-84106190D02*
X143978330Y-84058570D01*
X143978330Y-84058570D02*
X143883100Y-84010950D01*
X143883100Y-84010950D02*
X143835480Y-83963330D01*
X143835480Y-83963330D02*
X143787860Y-83868100D01*
X143787860Y-83868100D02*
X143787860Y-83772860D01*
X143787860Y-83772860D02*
X143835480Y-83677620D01*
X143835480Y-83677620D02*
X143883100Y-83630000D01*
X143883100Y-83630000D02*
X143978330Y-83582380D01*
X143978330Y-83582380D02*
X144216430Y-83582380D01*
X144216430Y-83582380D02*
X144359290Y-83630000D01*
X145311670Y-84582380D02*
X144740240Y-84582380D01*
X145025950Y-84582380D02*
X145025950Y-83582380D01*
X145025950Y-83582380D02*
X144930710Y-83725240D01*
X144930710Y-83725240D02*
X144835480Y-83820480D01*
X144835480Y-83820480D02*
X144740240Y-83868100D01*
X95666670Y-91404760D02*
X95809520Y-91452380D01*
X95809520Y-91452380D02*
X96047620Y-91452380D01*
X96047620Y-91452380D02*
X96142860Y-91404760D01*
X96142860Y-91404760D02*
X96190480Y-91357140D01*
X96190480Y-91357140D02*
X96238100Y-91261900D01*
X96238100Y-91261900D02*
X96238100Y-91166670D01*
X96238100Y-91166670D02*
X96190480Y-91071430D01*
X96190480Y-91071430D02*
X96142860Y-91023810D01*
X96142860Y-91023810D02*
X96047620Y-90976190D01*
X96047620Y-90976190D02*
X95857140Y-90928570D01*
X95857140Y-90928570D02*
X95761900Y-90880950D01*
X95761900Y-90880950D02*
X95714290Y-90833330D01*
X95714290Y-90833330D02*
X95666670Y-90738100D01*
X95666670Y-90738100D02*
X95666670Y-90642860D01*
X95666670Y-90642860D02*
X95714290Y-90547620D01*
X95714290Y-90547620D02*
X95761900Y-90500000D01*
X95761900Y-90500000D02*
X95857140Y-90452380D01*
X95857140Y-90452380D02*
X96095240Y-90452380D01*
X96095240Y-90452380D02*
X96238100Y-90500000D01*
X96571430Y-90452380D02*
X96809520Y-91452380D01*
X96809520Y-91452380D02*
X97000000Y-90738100D01*
X97000000Y-90738100D02*
X97190480Y-91452380D01*
X97190480Y-91452380D02*
X97428570Y-90452380D01*
X98333330Y-91452380D02*
X97761900Y-91452380D01*
X98047620Y-91452380D02*
X98047620Y-90452380D01*
X98047620Y-90452380D02*
X97952380Y-90595240D01*
X97952380Y-90595240D02*
X97857140Y-90690480D01*
X97857140Y-90690480D02*
X97761900Y-90738100D01*
X131897380Y-86526670D02*
X131897380Y-87002860D01*
X131897380Y-87002860D02*
X130897380Y-87002860D01*
X131897380Y-85669520D02*
X131897380Y-86240950D01*
X131897380Y-85955240D02*
X130897380Y-85955240D01*
X130897380Y-85955240D02*
X131040240Y-86050480D01*
X131040240Y-86050480D02*
X131135480Y-86145710D01*
X131135480Y-86145710D02*
X131183100Y-86240950D01*
X150452380Y-69333330D02*
X151166670Y-69333330D01*
X151166670Y-69333330D02*
X151309520Y-69380950D01*
X151309520Y-69380950D02*
X151404760Y-69476190D01*
X151404760Y-69476190D02*
X151452380Y-69619050D01*
X151452380Y-69619050D02*
X151452380Y-69714290D01*
X151452380Y-68333330D02*
X151452380Y-68904760D01*
X151452380Y-68619050D02*
X150452380Y-68619050D01*
X150452380Y-68619050D02*
X150595240Y-68714290D01*
X150595240Y-68714290D02*
X150690480Y-68809520D01*
X150690480Y-68809520D02*
X150738100Y-68904760D01*
X112833330Y-80082380D02*
X112500000Y-79606190D01*
X112261900Y-80082380D02*
X112261900Y-79082380D01*
X112261900Y-79082380D02*
X112642860Y-79082380D01*
X112642860Y-79082380D02*
X112738100Y-79130000D01*
X112738100Y-79130000D02*
X112785710Y-79177620D01*
X112785710Y-79177620D02*
X112833330Y-79272860D01*
X112833330Y-79272860D02*
X112833330Y-79415710D01*
X112833330Y-79415710D02*
X112785710Y-79510950D01*
X112785710Y-79510950D02*
X112738100Y-79558570D01*
X112738100Y-79558570D02*
X112642860Y-79606190D01*
X112642860Y-79606190D02*
X112261900Y-79606190D01*
X113214290Y-79177620D02*
X113261900Y-79130000D01*
X113261900Y-79130000D02*
X113357140Y-79082380D01*
X113357140Y-79082380D02*
X113595240Y-79082380D01*
X113595240Y-79082380D02*
X113690480Y-79130000D01*
X113690480Y-79130000D02*
X113738100Y-79177620D01*
X113738100Y-79177620D02*
X113785710Y-79272860D01*
X113785710Y-79272860D02*
X113785710Y-79368100D01*
X113785710Y-79368100D02*
X113738100Y-79510950D01*
X113738100Y-79510950D02*
X113166670Y-80082380D01*
X113166670Y-80082380D02*
X113785710Y-80082380D01*
X103574720Y-78952380D02*
X103574720Y-77952380D01*
X103574720Y-77952380D02*
X103812820Y-77952380D01*
X103812820Y-77952380D02*
X103955670Y-78000000D01*
X103955670Y-78000000D02*
X104050910Y-78095240D01*
X104050910Y-78095240D02*
X104098530Y-78190480D01*
X104098530Y-78190480D02*
X104146150Y-78380950D01*
X104146150Y-78380950D02*
X104146150Y-78523810D01*
X104146150Y-78523810D02*
X104098530Y-78714290D01*
X104098530Y-78714290D02*
X104050910Y-78809520D01*
X104050910Y-78809520D02*
X103955670Y-78904760D01*
X103955670Y-78904760D02*
X103812820Y-78952380D01*
X103812820Y-78952380D02*
X103574720Y-78952380D01*
X105098530Y-78952380D02*
X104527100Y-78952380D01*
X104812820Y-78952380D02*
X104812820Y-77952380D01*
X104812820Y-77952380D02*
X104717580Y-78095240D01*
X104717580Y-78095240D02*
X104622340Y-78190480D01*
X104622340Y-78190480D02*
X104527100Y-78238100D01*
X107815100Y-79192380D02*
X107815100Y-78192380D01*
X108386520Y-79192380D02*
X107957950Y-78620950D01*
X108386520Y-78192380D02*
X107815100Y-78763810D01*
X110831330Y-90400140D02*
X110783710Y-90447760D01*
X110783710Y-90447760D02*
X110640860Y-90495380D01*
X110640860Y-90495380D02*
X110545620Y-90495380D01*
X110545620Y-90495380D02*
X110402760Y-90447760D01*
X110402760Y-90447760D02*
X110307520Y-90352520D01*
X110307520Y-90352520D02*
X110259900Y-90257290D01*
X110259900Y-90257290D02*
X110212290Y-90066810D01*
X110212290Y-90066810D02*
X110212290Y-89923950D01*
X110212290Y-89923950D02*
X110259900Y-89733480D01*
X110259900Y-89733480D02*
X110307520Y-89638240D01*
X110307520Y-89638240D02*
X110402760Y-89543000D01*
X110402760Y-89543000D02*
X110545620Y-89495380D01*
X110545620Y-89495380D02*
X110640860Y-89495380D01*
X110640860Y-89495380D02*
X110783710Y-89543000D01*
X110783710Y-89543000D02*
X110831330Y-89590620D01*
X111402760Y-89923950D02*
X111307520Y-89876330D01*
X111307520Y-89876330D02*
X111259900Y-89828710D01*
X111259900Y-89828710D02*
X111212290Y-89733480D01*
X111212290Y-89733480D02*
X111212290Y-89685860D01*
X111212290Y-89685860D02*
X111259900Y-89590620D01*
X111259900Y-89590620D02*
X111307520Y-89543000D01*
X111307520Y-89543000D02*
X111402760Y-89495380D01*
X111402760Y-89495380D02*
X111593240Y-89495380D01*
X111593240Y-89495380D02*
X111688480Y-89543000D01*
X111688480Y-89543000D02*
X111736100Y-89590620D01*
X111736100Y-89590620D02*
X111783710Y-89685860D01*
X111783710Y-89685860D02*
X111783710Y-89733480D01*
X111783710Y-89733480D02*
X111736100Y-89828710D01*
X111736100Y-89828710D02*
X111688480Y-89876330D01*
X111688480Y-89876330D02*
X111593240Y-89923950D01*
X111593240Y-89923950D02*
X111402760Y-89923950D01*
X111402760Y-89923950D02*
X111307520Y-89971570D01*
X111307520Y-89971570D02*
X111259900Y-90019190D01*
X111259900Y-90019190D02*
X111212290Y-90114430D01*
X111212290Y-90114430D02*
X111212290Y-90304900D01*
X111212290Y-90304900D02*
X111259900Y-90400140D01*
X111259900Y-90400140D02*
X111307520Y-90447760D01*
X111307520Y-90447760D02*
X111402760Y-90495380D01*
X111402760Y-90495380D02*
X111593240Y-90495380D01*
X111593240Y-90495380D02*
X111688480Y-90447760D01*
X111688480Y-90447760D02*
X111736100Y-90400140D01*
X111736100Y-90400140D02*
X111783710Y-90304900D01*
X111783710Y-90304900D02*
X111783710Y-90114430D01*
X111783710Y-90114430D02*
X111736100Y-90019190D01*
X111736100Y-90019190D02*
X111688480Y-89971570D01*
X111688480Y-89971570D02*
X111593240Y-89923950D01*
X111761900Y-88452380D02*
X111761900Y-87452380D01*
X111761900Y-87452380D02*
X112000000Y-87452380D01*
X112000000Y-87452380D02*
X112142860Y-87500000D01*
X112142860Y-87500000D02*
X112238100Y-87595240D01*
X112238100Y-87595240D02*
X112285710Y-87690480D01*
X112285710Y-87690480D02*
X112333330Y-87880950D01*
X112333330Y-87880950D02*
X112333330Y-88023810D01*
X112333330Y-88023810D02*
X112285710Y-88214290D01*
X112285710Y-88214290D02*
X112238100Y-88309520D01*
X112238100Y-88309520D02*
X112142860Y-88404760D01*
X112142860Y-88404760D02*
X112000000Y-88452380D01*
X112000000Y-88452380D02*
X111761900Y-88452380D01*
X112666670Y-87452380D02*
X113285710Y-87452380D01*
X113285710Y-87452380D02*
X112952380Y-87833330D01*
X112952380Y-87833330D02*
X113095240Y-87833330D01*
X113095240Y-87833330D02*
X113190480Y-87880950D01*
X113190480Y-87880950D02*
X113238100Y-87928570D01*
X113238100Y-87928570D02*
X113285710Y-88023810D01*
X113285710Y-88023810D02*
X113285710Y-88261900D01*
X113285710Y-88261900D02*
X113238100Y-88357140D01*
X113238100Y-88357140D02*
X113190480Y-88404760D01*
X113190480Y-88404760D02*
X113095240Y-88452380D01*
X113095240Y-88452380D02*
X112809520Y-88452380D01*
X112809520Y-88452380D02*
X112714290Y-88404760D01*
X112714290Y-88404760D02*
X112666670Y-88357140D01*
X115738100Y-88452380D02*
X115738100Y-87452380D01*
X116309520Y-88452380D02*
X115880950Y-87880950D01*
X116309520Y-87452380D02*
X115738100Y-88023810D01*
X104833330Y-71357140D02*
X104785710Y-71404760D01*
X104785710Y-71404760D02*
X104642860Y-71452380D01*
X104642860Y-71452380D02*
X104547620Y-71452380D01*
X104547620Y-71452380D02*
X104404760Y-71404760D01*
X104404760Y-71404760D02*
X104309520Y-71309520D01*
X104309520Y-71309520D02*
X104261900Y-71214290D01*
X104261900Y-71214290D02*
X104214290Y-71023810D01*
X104214290Y-71023810D02*
X104214290Y-70880950D01*
X104214290Y-70880950D02*
X104261900Y-70690480D01*
X104261900Y-70690480D02*
X104309520Y-70595240D01*
X104309520Y-70595240D02*
X104404760Y-70500000D01*
X104404760Y-70500000D02*
X104547620Y-70452380D01*
X104547620Y-70452380D02*
X104642860Y-70452380D01*
X104642860Y-70452380D02*
X104785710Y-70500000D01*
X104785710Y-70500000D02*
X104833330Y-70547620D01*
X105738100Y-70452380D02*
X105261900Y-70452380D01*
X105261900Y-70452380D02*
X105214290Y-70928570D01*
X105214290Y-70928570D02*
X105261900Y-70880950D01*
X105261900Y-70880950D02*
X105357140Y-70833330D01*
X105357140Y-70833330D02*
X105595240Y-70833330D01*
X105595240Y-70833330D02*
X105690480Y-70880950D01*
X105690480Y-70880950D02*
X105738100Y-70928570D01*
X105738100Y-70928570D02*
X105785710Y-71023810D01*
X105785710Y-71023810D02*
X105785710Y-71261900D01*
X105785710Y-71261900D02*
X105738100Y-71357140D01*
X105738100Y-71357140D02*
X105690480Y-71404760D01*
X105690480Y-71404760D02*
X105595240Y-71452380D01*
X105595240Y-71452380D02*
X105357140Y-71452380D01*
X105357140Y-71452380D02*
X105261900Y-71404760D01*
X105261900Y-71404760D02*
X105214290Y-71357140D01*
X169833330Y-71134180D02*
X169785710Y-71181800D01*
X169785710Y-71181800D02*
X169642860Y-71229420D01*
X169642860Y-71229420D02*
X169547620Y-71229420D01*
X169547620Y-71229420D02*
X169404760Y-71181800D01*
X169404760Y-71181800D02*
X169309520Y-71086560D01*
X169309520Y-71086560D02*
X169261900Y-70991330D01*
X169261900Y-70991330D02*
X169214290Y-70800850D01*
X169214290Y-70800850D02*
X169214290Y-70657990D01*
X169214290Y-70657990D02*
X169261900Y-70467520D01*
X169261900Y-70467520D02*
X169309520Y-70372280D01*
X169309520Y-70372280D02*
X169404760Y-70277040D01*
X169404760Y-70277040D02*
X169547620Y-70229420D01*
X169547620Y-70229420D02*
X169642860Y-70229420D01*
X169642860Y-70229420D02*
X169785710Y-70277040D01*
X169785710Y-70277040D02*
X169833330Y-70324660D01*
X170166670Y-70229420D02*
X170833330Y-70229420D01*
X170833330Y-70229420D02*
X170404760Y-71229420D01*
D14*
X114325000Y-74500000D02*
X114395000Y-74500000D01*
X114325000Y-74500000D02*
G75*
G02*
X111585000Y-74500000I-1370000J0D01*
G01*
X111585000Y-74500000D02*
G75*
G02*
X114325000Y-74500000I1370000J0D01*
G01*
X123270000Y-66603000D02*
X121760000Y-66603000D01*
X123270000Y-63333000D02*
X118629000Y-63333000D01*
X123270000Y-73573000D02*
X118629000Y-73573000D01*
X118629000Y-63333000D02*
X118629000Y-73573000D01*
X121760000Y-63333000D02*
X121760000Y-73573000D01*
X123270000Y-63333000D02*
X123270000Y-73573000D01*
X123270000Y-70304000D02*
X121760000Y-70304000D01*
X130060000Y-71337040D02*
X125547000Y-71337040D01*
X134839000Y-74577040D02*
X128161000Y-74577040D01*
X135457000Y-74137040D02*
X127543000Y-74137040D01*
X137724000Y-70337040D02*
X132940000Y-70337040D01*
X134094000Y-74977040D02*
X128906000Y-74977040D01*
X137571000Y-70977040D02*
X132940000Y-70977040D01*
X137809000Y-69696040D02*
X125191000Y-69696040D01*
X137508000Y-71177040D02*
X132940000Y-71177040D01*
X135407000Y-74177040D02*
X127593000Y-74177040D01*
X137202000Y-71937040D02*
X132940000Y-71937040D01*
X135782000Y-73857040D02*
X127218000Y-73857040D01*
X136796000Y-72657040D02*
X132940000Y-72657040D01*
X130060000Y-70697040D02*
X125354000Y-70697040D01*
X134004000Y-75017040D02*
X128996000Y-75017040D01*
X136105000Y-73537040D02*
X126895000Y-73537040D01*
X130060000Y-70657040D02*
X125344000Y-70657040D01*
X137559000Y-71017040D02*
X132940000Y-71017040D01*
X130060000Y-73057040D02*
X126488000Y-73057040D01*
X137802000Y-69776040D02*
X125198000Y-69776040D01*
X135083000Y-74417040D02*
X127917000Y-74417040D01*
X130060000Y-72297040D02*
X125986000Y-72297040D01*
X130060000Y-71697040D02*
X125689000Y-71697040D01*
X130060000Y-70497040D02*
X125308000Y-70497040D01*
X137311000Y-71697040D02*
X132940000Y-71697040D01*
X137775000Y-70017040D02*
X125225000Y-70017040D01*
X134496000Y-74777040D02*
X128504000Y-74777040D01*
X134181000Y-74937040D02*
X128819000Y-74937040D01*
X130060000Y-71817040D02*
X125742000Y-71817040D01*
X137626000Y-70777040D02*
X132940000Y-70777040D01*
X137822000Y-69496040D02*
X125178000Y-69496040D01*
X130060000Y-72537040D02*
X126128000Y-72537040D01*
X137790000Y-69897040D02*
X125210000Y-69897040D01*
X130060000Y-70417040D02*
X125291000Y-70417040D01*
X130060000Y-71497040D02*
X125607000Y-71497040D01*
X133812000Y-75097040D02*
X129188000Y-75097040D01*
X136945000Y-72417040D02*
X132940000Y-72417040D01*
X134569000Y-74737040D02*
X128431000Y-74737040D01*
X130060000Y-70737040D02*
X125363000Y-70737040D01*
X137675000Y-70577040D02*
X132940000Y-70577040D01*
X137824000Y-69456040D02*
X125176000Y-69456040D01*
X137656000Y-70657040D02*
X132940000Y-70657040D01*
X135825000Y-73817040D02*
X127175000Y-73817040D01*
X137345000Y-71617040D02*
X132940000Y-71617040D01*
X134264000Y-74897040D02*
X128736000Y-74897040D01*
X136716000Y-72777040D02*
X132940000Y-72777040D01*
X137812000Y-69656040D02*
X125188000Y-69656040D01*
X134421000Y-74817040D02*
X128579000Y-74817040D01*
X137769000Y-70057040D02*
X125231000Y-70057040D01*
X130060000Y-71897040D02*
X125779000Y-71897040D01*
X135196000Y-74337040D02*
X127804000Y-74337040D01*
X137361000Y-71577040D02*
X132940000Y-71577040D01*
X137122000Y-72097040D02*
X132940000Y-72097040D01*
X137780000Y-69977040D02*
X125220000Y-69977040D01*
X136968000Y-72377040D02*
X132940000Y-72377040D01*
X130060000Y-70297040D02*
X125269000Y-70297040D01*
X137182000Y-71977040D02*
X132940000Y-71977040D01*
X130060000Y-72977040D02*
X126427000Y-72977040D01*
X137467000Y-71297040D02*
X132940000Y-71297040D01*
X130060000Y-71097040D02*
X125466000Y-71097040D01*
X136543000Y-73017040D02*
X132940000Y-73017040D01*
X130060000Y-71737040D02*
X125707000Y-71737040D01*
X136660000Y-72857040D02*
X132940000Y-72857040D01*
X134708000Y-74657040D02*
X128292000Y-74657040D01*
X136385000Y-73217040D02*
X126615000Y-73217040D01*
X136822000Y-72617040D02*
X132940000Y-72617040D01*
X137424000Y-71417040D02*
X132940000Y-71417040D01*
X137605000Y-70857040D02*
X132940000Y-70857040D01*
X130060000Y-72857040D02*
X126340000Y-72857040D01*
X135555000Y-74057040D02*
X127445000Y-74057040D01*
X137738000Y-70257040D02*
X132940000Y-70257040D01*
X130060000Y-70857040D02*
X125395000Y-70857040D01*
X130060000Y-71177040D02*
X125492000Y-71177040D01*
X136688000Y-72817040D02*
X132940000Y-72817040D01*
X137646000Y-70697040D02*
X132940000Y-70697040D01*
X134964000Y-74497040D02*
X128036000Y-74497040D01*
X136991000Y-72337040D02*
X132940000Y-72337040D01*
X137701000Y-70457040D02*
X132940000Y-70457040D01*
X130060000Y-71377040D02*
X125561000Y-71377040D01*
X136512000Y-73057040D02*
X132940000Y-73057040D01*
X130060000Y-71537040D02*
X125623000Y-71537040D01*
X137764000Y-70097040D02*
X125236000Y-70097040D01*
X137830000Y-69216040D02*
X125170000Y-69216040D01*
X135694000Y-73937040D02*
X127306000Y-73937040D01*
X130060000Y-71017040D02*
X125441000Y-71017040D01*
X134344000Y-74857040D02*
X128656000Y-74857040D01*
X130060000Y-70577040D02*
X125325000Y-70577040D01*
X136631000Y-72897040D02*
X132940000Y-72897040D01*
X136214000Y-73417040D02*
X126786000Y-73417040D01*
X137293000Y-71737040D02*
X132940000Y-71737040D01*
X130060000Y-71257040D02*
X125519000Y-71257040D01*
X137709000Y-70417040D02*
X132940000Y-70417040D01*
X135738000Y-73897040D02*
X127262000Y-73897040D01*
X136418000Y-73177040D02*
X126582000Y-73177040D01*
X130060000Y-72017040D02*
X125838000Y-72017040D01*
X137239000Y-71857040D02*
X132940000Y-71857040D01*
X130060000Y-72057040D02*
X125858000Y-72057040D01*
X137794000Y-69856040D02*
X125206000Y-69856040D01*
X130060000Y-70257040D02*
X125262000Y-70257040D01*
X137758000Y-70137040D02*
X125242000Y-70137040D01*
X130060000Y-71617040D02*
X125655000Y-71617040D01*
X135250000Y-74297040D02*
X127750000Y-74297040D01*
X130060000Y-72737040D02*
X126257000Y-72737040D01*
X130060000Y-72457040D02*
X126079000Y-72457040D01*
X130060000Y-71297040D02*
X125533000Y-71297040D01*
X135648000Y-73977040D02*
X127352000Y-73977040D01*
X137036000Y-72257040D02*
X132940000Y-72257040D01*
X130060000Y-72377040D02*
X126032000Y-72377040D01*
X137752000Y-70177040D02*
X125248000Y-70177040D01*
X137221000Y-71897040D02*
X132940000Y-71897040D01*
X137815000Y-69616040D02*
X125185000Y-69616040D01*
X130060000Y-71777040D02*
X125724000Y-71777040D01*
X130060000Y-72657040D02*
X126204000Y-72657040D01*
X136450000Y-73137040D02*
X126550000Y-73137040D01*
X130060000Y-72777040D02*
X126284000Y-72777040D01*
X136872000Y-72537040D02*
X132940000Y-72537040D01*
X133083000Y-75337040D02*
X129917000Y-75337040D01*
X137080000Y-72177040D02*
X132940000Y-72177040D01*
X135075000Y-62358960D02*
X135075000Y-63608960D01*
X130060000Y-70977040D02*
X125429000Y-70977040D01*
X137058000Y-72217040D02*
X132940000Y-72217040D01*
X137408000Y-71457040D02*
X132940000Y-71457040D01*
X137830000Y-69256040D02*
X125170000Y-69256040D01*
X133484000Y-75217040D02*
X129516000Y-75217040D01*
X137684000Y-70537040D02*
X132940000Y-70537040D01*
X136250000Y-73377040D02*
X126750000Y-73377040D01*
X136178000Y-73457040D02*
X126822000Y-73457040D01*
X137453000Y-71337040D02*
X132940000Y-71337040D01*
X137616000Y-70817040D02*
X132940000Y-70817040D01*
X130060000Y-73097040D02*
X126518000Y-73097040D01*
X136573000Y-72977040D02*
X132940000Y-72977040D01*
X130060000Y-71057040D02*
X125453000Y-71057040D01*
X137716000Y-70377040D02*
X132940000Y-70377040D01*
X130060000Y-72617040D02*
X126178000Y-72617040D01*
X130060000Y-70337040D02*
X125276000Y-70337040D01*
X130060000Y-72937040D02*
X126398000Y-72937040D01*
X136482000Y-73097040D02*
X132940000Y-73097040D01*
X130060000Y-72417040D02*
X126055000Y-72417040D01*
X130060000Y-70537040D02*
X125316000Y-70537040D01*
X130060000Y-71857040D02*
X125761000Y-71857040D01*
X137547000Y-71057040D02*
X132940000Y-71057040D01*
X137258000Y-71817040D02*
X132940000Y-71817040D01*
X130060000Y-72337040D02*
X126009000Y-72337040D01*
X135949000Y-73697040D02*
X127051000Y-73697040D01*
X133361000Y-75257040D02*
X129639000Y-75257040D01*
X130060000Y-72697040D02*
X126230000Y-72697040D01*
X131817000Y-75537040D02*
X131183000Y-75537040D01*
X133600000Y-75177040D02*
X129400000Y-75177040D01*
X130060000Y-72497040D02*
X126103000Y-72497040D01*
X135140000Y-74377040D02*
X127860000Y-74377040D01*
X134902000Y-74537040D02*
X128098000Y-74537040D01*
X136847000Y-72577040D02*
X132940000Y-72577040D01*
X137142000Y-72057040D02*
X132940000Y-72057040D01*
X130060000Y-71217040D02*
X125505000Y-71217040D01*
X134775000Y-74617040D02*
X128225000Y-74617040D01*
X135356000Y-74217040D02*
X127644000Y-74217040D01*
X130060000Y-72817040D02*
X126312000Y-72817040D01*
X136602000Y-72937040D02*
X132940000Y-72937040D01*
X132741000Y-75417040D02*
X130259000Y-75417040D01*
X130060000Y-70897040D02*
X125406000Y-70897040D01*
X133228000Y-75297040D02*
X129772000Y-75297040D01*
X136352000Y-73257040D02*
X126648000Y-73257040D01*
X137806000Y-69736040D02*
X125194000Y-69736040D01*
X137692000Y-70497040D02*
X132940000Y-70497040D01*
X137101000Y-72137040D02*
X132940000Y-72137040D01*
X132922000Y-75377040D02*
X130078000Y-75377040D01*
X136897000Y-72497040D02*
X132940000Y-72497040D01*
X130060000Y-71417040D02*
X125576000Y-71417040D01*
X137827000Y-69376040D02*
X125173000Y-69376040D01*
X137666000Y-70617040D02*
X132940000Y-70617040D01*
X137495000Y-71217040D02*
X132940000Y-71217040D01*
X137481000Y-71257040D02*
X132940000Y-71257040D01*
X137731000Y-70297040D02*
X132940000Y-70297040D01*
X135024000Y-74457040D02*
X127976000Y-74457040D01*
X136770000Y-72697040D02*
X132940000Y-72697040D01*
X132528000Y-75457040D02*
X130472000Y-75457040D01*
X130060000Y-73017040D02*
X126457000Y-73017040D01*
X130060000Y-70777040D02*
X125374000Y-70777040D01*
X137828000Y-69336040D02*
X125172000Y-69336040D01*
X133910000Y-75057040D02*
X129090000Y-75057040D01*
X137276000Y-71777040D02*
X132940000Y-71777040D01*
X137637000Y-70737040D02*
X132940000Y-70737040D01*
X137439000Y-71377040D02*
X132940000Y-71377040D01*
X130060000Y-71577040D02*
X125639000Y-71577040D01*
X137534000Y-71097040D02*
X132940000Y-71097040D01*
X130060000Y-72257040D02*
X125964000Y-72257040D01*
X137798000Y-69816040D02*
X125202000Y-69816040D01*
X130060000Y-72577040D02*
X126153000Y-72577040D01*
X135700000Y-62983960D02*
X134450000Y-62983960D01*
X132257000Y-75497040D02*
X130743000Y-75497040D01*
X137583000Y-70937040D02*
X132940000Y-70937040D01*
X136743000Y-72737040D02*
X132940000Y-72737040D01*
X135304000Y-74257040D02*
X127696000Y-74257040D01*
X137377000Y-71537040D02*
X132940000Y-71537040D01*
X136285000Y-73337040D02*
X126715000Y-73337040D01*
X130060000Y-70457040D02*
X125299000Y-70457040D01*
X130060000Y-72897040D02*
X126369000Y-72897040D01*
X137745000Y-70217040D02*
X125255000Y-70217040D01*
X137014000Y-72297040D02*
X132940000Y-72297040D01*
X136028000Y-73617040D02*
X126972000Y-73617040D01*
X137521000Y-71137040D02*
X132940000Y-71137040D01*
X135989000Y-73657040D02*
X127011000Y-73657040D01*
X137818000Y-69576040D02*
X125182000Y-69576040D01*
X130060000Y-72217040D02*
X125942000Y-72217040D01*
X130060000Y-71657040D02*
X125672000Y-71657040D01*
X137829000Y-69296040D02*
X125171000Y-69296040D01*
X130060000Y-71977040D02*
X125818000Y-71977040D01*
X135867000Y-73777040D02*
X127133000Y-73777040D01*
X130060000Y-70617040D02*
X125334000Y-70617040D01*
X130060000Y-72177040D02*
X125920000Y-72177040D01*
X137830000Y-69176040D02*
X125170000Y-69176040D01*
X137162000Y-72017040D02*
X132940000Y-72017040D01*
X137393000Y-71497040D02*
X132940000Y-71497040D01*
X137785000Y-69937040D02*
X125215000Y-69937040D01*
X137594000Y-70897040D02*
X132940000Y-70897040D01*
X135908000Y-73737040D02*
X127092000Y-73737040D01*
X133709000Y-75137040D02*
X129291000Y-75137040D01*
X136067000Y-73577040D02*
X126933000Y-73577040D01*
X130060000Y-71137040D02*
X125479000Y-71137040D01*
X130060000Y-70937040D02*
X125417000Y-70937040D01*
X136921000Y-72457040D02*
X132940000Y-72457040D01*
X130060000Y-70377040D02*
X125284000Y-70377040D01*
X130060000Y-70817040D02*
X125384000Y-70817040D01*
X130060000Y-71937040D02*
X125798000Y-71937040D01*
X136319000Y-73297040D02*
X126681000Y-73297040D01*
X135507000Y-74097040D02*
X127493000Y-74097040D01*
X137328000Y-71657040D02*
X132940000Y-71657040D01*
X134640000Y-74697040D02*
X128360000Y-74697040D01*
X135602000Y-74017040D02*
X127398000Y-74017040D01*
X137826000Y-69416040D02*
X125174000Y-69416040D01*
X130060000Y-71457040D02*
X125592000Y-71457040D01*
X130060000Y-72097040D02*
X125878000Y-72097040D01*
X130060000Y-72137040D02*
X125899000Y-72137040D01*
X137820000Y-69536040D02*
X125180000Y-69536040D01*
X136142000Y-73497040D02*
X126858000Y-73497040D01*
X137870000Y-69176040D02*
G75*
G02*
X125130000Y-69176040I-6370000J0D01*
G01*
X125130000Y-69176040D02*
G75*
G02*
X137870000Y-69176040I6370000J0D01*
G01*
D12*
G36*
X108780330Y-92548880D02*
G01*
X108870370Y-92562230D01*
X108958670Y-92584350D01*
X109044380Y-92615020D01*
X109126670Y-92653940D01*
X109204750Y-92700740D01*
X109277860Y-92754960D01*
X109345310Y-92816090D01*
X109406440Y-92883540D01*
X109460670Y-92956660D01*
X109507470Y-93034740D01*
X109546390Y-93117030D01*
X109577060Y-93202730D01*
X109599170Y-93291040D01*
X109612530Y-93381080D01*
X109617000Y-93472000D01*
X109612530Y-93562920D01*
X109599170Y-93652960D01*
X109577060Y-93741270D01*
X109546390Y-93826970D01*
X109507470Y-93909260D01*
X109460670Y-93987340D01*
X109406440Y-94060460D01*
X109345310Y-94127910D01*
X109277860Y-94189040D01*
X109204750Y-94243260D01*
X109126670Y-94290060D01*
X109044380Y-94328980D01*
X108958670Y-94359650D01*
X108870370Y-94381770D01*
X108780330Y-94395130D01*
X108689410Y-94399590D01*
X102892600Y-94399590D01*
X102801680Y-94395130D01*
X102711630Y-94381770D01*
X102623330Y-94359650D01*
X102537620Y-94328980D01*
X102455330Y-94290060D01*
X102377250Y-94243270D01*
X102304140Y-94189040D01*
X102236690Y-94127910D01*
X102175560Y-94060460D01*
X102121330Y-93987340D01*
X102074530Y-93909260D01*
X102035610Y-93826970D01*
X102004950Y-93741270D01*
X101982830Y-93652960D01*
X101969470Y-93562920D01*
X101965000Y-93472000D01*
X102892730Y-93472000D01*
X102902220Y-93599610D01*
X102930710Y-93714230D01*
X102978190Y-93815870D01*
X103044660Y-93904530D01*
X103126630Y-93976430D01*
X103220610Y-94027780D01*
X103326620Y-94058590D01*
X103444630Y-94068860D01*
X103563330Y-94058590D01*
X103597480Y-94048710D01*
X103669810Y-94027780D01*
X103764090Y-93976430D01*
X103846160Y-93904530D01*
X103912630Y-93815870D01*
X103960100Y-93714230D01*
X103988590Y-93599610D01*
X103998090Y-93472000D01*
X103988200Y-93350010D01*
X103958550Y-93238290D01*
X103909140Y-93136850D01*
X103839960Y-93045670D01*
X103755950Y-92971060D01*
X103662060Y-92917770D01*
X103584062Y-92893740D01*
X104128310Y-92893740D01*
X104129860Y-92898390D01*
X104129860Y-94045610D01*
X104128310Y-94048710D01*
X104129860Y-94053360D01*
X104260090Y-94050260D01*
X104390310Y-94053360D01*
X104390310Y-93391390D01*
X104737580Y-94053360D01*
X105101900Y-94053360D01*
X105101900Y-93741750D01*
X105101900Y-93549520D01*
X105238320Y-93549520D01*
X105238320Y-93741750D01*
X105649150Y-93741750D01*
X105649150Y-93549520D01*
X105238320Y-93549520D01*
X105101900Y-93549520D01*
X105101900Y-93472000D01*
X105725110Y-93472000D01*
X105734610Y-93599610D01*
X105763100Y-93714230D01*
X105810570Y-93815870D01*
X105877040Y-93904530D01*
X105959010Y-93976430D01*
X106053000Y-94027780D01*
X106159000Y-94058590D01*
X106277020Y-94068860D01*
X106395710Y-94058590D01*
X106429870Y-94048710D01*
X106502200Y-94027780D01*
X106596470Y-93976430D01*
X106678540Y-93904530D01*
X106745010Y-93815870D01*
X106792490Y-93714230D01*
X106820980Y-93599610D01*
X106830470Y-93472000D01*
X106820590Y-93350010D01*
X106790940Y-93238290D01*
X106741520Y-93136850D01*
X106672340Y-93045670D01*
X106588340Y-92971060D01*
X106494450Y-92917770D01*
X106416445Y-92893740D01*
X106960700Y-92893740D01*
X106962250Y-92898390D01*
X106962250Y-94045610D01*
X106960700Y-94048710D01*
X106962250Y-94053360D01*
X107092470Y-94050260D01*
X107222700Y-94053360D01*
X107222700Y-94048710D01*
X107222700Y-93554170D01*
X107726540Y-93554170D01*
X107729640Y-93555720D01*
X107734290Y-93554170D01*
X107731190Y-93453400D01*
X107734290Y-93352630D01*
X107729640Y-93351080D01*
X107726540Y-93352630D01*
X107222700Y-93352630D01*
X107222700Y-93104580D01*
X107780800Y-93103030D01*
X107777700Y-92996060D01*
X107777700Y-92893740D01*
X107869170Y-92893740D01*
X107870720Y-92898390D01*
X107870720Y-94045610D01*
X107869170Y-94048710D01*
X107870720Y-94053360D01*
X108000940Y-94050260D01*
X108131170Y-94053360D01*
X108131170Y-93554170D01*
X108635010Y-93554170D01*
X108638110Y-93555720D01*
X108642760Y-93554170D01*
X108639660Y-93453400D01*
X108642760Y-93352630D01*
X108638110Y-93351080D01*
X108635010Y-93352630D01*
X108131170Y-93352630D01*
X108131170Y-93104580D01*
X108689270Y-93103030D01*
X108686170Y-92996060D01*
X108686170Y-92890640D01*
X108000940Y-92893740D01*
X107870720Y-92890640D01*
X107869170Y-92893740D01*
X107777700Y-92893740D01*
X107777700Y-92890640D01*
X107092470Y-92893740D01*
X106962250Y-92890640D01*
X106960700Y-92893740D01*
X106416445Y-92893740D01*
X106390670Y-92885800D01*
X106277020Y-92875140D01*
X106164040Y-92885800D01*
X106060750Y-92917770D01*
X105967150Y-92971060D01*
X105883240Y-93045670D01*
X105814060Y-93136850D01*
X105764650Y-93238290D01*
X105735000Y-93350010D01*
X105725110Y-93472000D01*
X105101900Y-93472000D01*
X105101900Y-92898390D01*
X105103450Y-92893740D01*
X105101900Y-92890640D01*
X104971670Y-92893740D01*
X104841450Y-92890640D01*
X104841450Y-93699890D01*
X104418220Y-92893740D01*
X104260090Y-92893740D01*
X104129860Y-92890640D01*
X104128310Y-92893740D01*
X103584062Y-92893740D01*
X103558290Y-92885800D01*
X103444630Y-92875140D01*
X103331650Y-92885800D01*
X103228370Y-92917770D01*
X103134770Y-92971060D01*
X103050860Y-93045670D01*
X102981680Y-93136850D01*
X102932260Y-93238290D01*
X102902610Y-93350010D01*
X102892730Y-93472000D01*
X101965000Y-93472000D01*
X101969470Y-93381080D01*
X101982830Y-93291040D01*
X102004950Y-93202730D01*
X102035610Y-93117030D01*
X102074530Y-93034740D01*
X102121330Y-92956660D01*
X102175560Y-92883540D01*
X102236690Y-92816090D01*
X102304140Y-92754960D01*
X102377250Y-92700740D01*
X102455330Y-92653940D01*
X102537620Y-92615020D01*
X102623330Y-92584350D01*
X102711630Y-92562230D01*
X102801680Y-92548880D01*
X102892600Y-92544410D01*
X108689410Y-92544410D01*
X108780330Y-92548880D01*
G37*
G36*
X103552380Y-93115050D02*
G01*
X103639970Y-93197600D01*
X103683890Y-93277010D01*
X103710250Y-93368480D01*
X103719030Y-93472000D01*
X103710590Y-93580180D01*
X103685270Y-93673190D01*
X103643070Y-93751050D01*
X103556250Y-93830120D01*
X103444630Y-93856470D01*
X103334170Y-93830120D01*
X103247750Y-93751050D01*
X103205540Y-93673190D01*
X103180220Y-93580180D01*
X103171780Y-93472000D01*
X103180570Y-93368480D01*
X103206920Y-93277010D01*
X103250850Y-93197600D01*
X103338050Y-93115050D01*
X103444630Y-93087530D01*
X103552380Y-93115050D01*
G37*
G36*
X106384760Y-93115050D02*
G01*
X106472350Y-93197600D01*
X106516280Y-93277010D01*
X106542630Y-93368480D01*
X106551420Y-93472000D01*
X106542980Y-93580180D01*
X106517660Y-93673190D01*
X106475450Y-93751050D01*
X106388640Y-93830120D01*
X106277020Y-93856470D01*
X106166560Y-93830120D01*
X106080130Y-93751050D01*
X106037930Y-93673190D01*
X106012610Y-93580180D01*
X106004170Y-93472000D01*
X106012950Y-93368480D01*
X106039310Y-93277010D01*
X106083230Y-93197600D01*
X106170430Y-93115050D01*
X106277020Y-93087530D01*
X106384760Y-93115050D01*
G37*
D14*
X163295000Y-79910000D02*
X158795000Y-79910000D01*
X158795000Y-92810000D02*
X163295000Y-92810000D01*
X154895000Y-92810000D02*
X150395000Y-92810000D01*
X150395000Y-92810000D02*
X150395000Y-79910000D01*
X163295000Y-92810000D02*
X163295000Y-79910000D01*
X150395000Y-79910000D02*
X154895000Y-79910000D01*
X138880000Y-73780000D02*
X138880000Y-81220000D01*
X149420000Y-73780000D02*
X149420000Y-81220000D01*
X138880000Y-73780000D02*
X149420000Y-73780000D01*
X138880000Y-81220000D02*
X149420000Y-81220000D01*
X158560000Y-72457040D02*
X154579000Y-72457040D01*
X166175000Y-70577040D02*
X161440000Y-70577040D01*
X158560000Y-70857040D02*
X153895000Y-70857040D01*
X164449000Y-73697040D02*
X155551000Y-73697040D01*
X166320000Y-69536040D02*
X153680000Y-69536040D01*
X165216000Y-72777040D02*
X161440000Y-72777040D01*
X158560000Y-70617040D02*
X153834000Y-70617040D01*
X166137000Y-70737040D02*
X161440000Y-70737040D01*
X165682000Y-71977040D02*
X161440000Y-71977040D01*
X158560000Y-71977040D02*
X154318000Y-71977040D01*
X162764000Y-74897040D02*
X157236000Y-74897040D01*
X166094000Y-70897040D02*
X161440000Y-70897040D01*
X164982000Y-73097040D02*
X161440000Y-73097040D01*
X158560000Y-70257040D02*
X153762000Y-70257040D01*
X166166000Y-70617040D02*
X161440000Y-70617040D01*
X165491000Y-72337040D02*
X161440000Y-72337040D01*
X164852000Y-73257040D02*
X155148000Y-73257040D01*
X165721000Y-71897040D02*
X161440000Y-71897040D01*
X163907000Y-74177040D02*
X156093000Y-74177040D01*
X158560000Y-73097040D02*
X155018000Y-73097040D01*
X166008000Y-71177040D02*
X161440000Y-71177040D01*
X166294000Y-69856040D02*
X153706000Y-69856040D01*
X158560000Y-71937040D02*
X154298000Y-71937040D01*
X166318000Y-69576040D02*
X153682000Y-69576040D01*
X164678000Y-73457040D02*
X155322000Y-73457040D01*
X166201000Y-70457040D02*
X161440000Y-70457040D01*
X162594000Y-74977040D02*
X157406000Y-74977040D01*
X166302000Y-69776040D02*
X153698000Y-69776040D01*
X165622000Y-72097040D02*
X161440000Y-72097040D01*
X158560000Y-70697040D02*
X153854000Y-70697040D01*
X166309000Y-69696040D02*
X153691000Y-69696040D01*
X158560000Y-71817040D02*
X154242000Y-71817040D01*
X158560000Y-72737040D02*
X154757000Y-72737040D01*
X158560000Y-70577040D02*
X153825000Y-70577040D01*
X162844000Y-74857040D02*
X157156000Y-74857040D01*
X163275000Y-74617040D02*
X156725000Y-74617040D01*
X165981000Y-71257040D02*
X161440000Y-71257040D01*
X164408000Y-73737040D02*
X155592000Y-73737040D01*
X158560000Y-72937040D02*
X154898000Y-72937040D01*
X158560000Y-70977040D02*
X153929000Y-70977040D01*
X165514000Y-72297040D02*
X161440000Y-72297040D01*
X166146000Y-70697040D02*
X161440000Y-70697040D01*
X161861000Y-75257040D02*
X158139000Y-75257040D01*
X166330000Y-69176040D02*
X153670000Y-69176040D01*
X166330000Y-69256040D02*
X153670000Y-69256040D01*
X163402000Y-74537040D02*
X156598000Y-74537040D01*
X161583000Y-75337040D02*
X158417000Y-75337040D01*
X165828000Y-71657040D02*
X161440000Y-71657040D01*
X166327000Y-69376040D02*
X153673000Y-69376040D01*
X164200000Y-62983960D02*
X162950000Y-62983960D01*
X166275000Y-70017040D02*
X153725000Y-70017040D01*
X165642000Y-72057040D02*
X161440000Y-72057040D01*
X165939000Y-71377040D02*
X161440000Y-71377040D01*
X160317000Y-75537040D02*
X159683000Y-75537040D01*
X165967000Y-71297040D02*
X161440000Y-71297040D01*
X166280000Y-69977040D02*
X153720000Y-69977040D01*
X166156000Y-70657040D02*
X161440000Y-70657040D01*
X158560000Y-71377040D02*
X154061000Y-71377040D01*
X158560000Y-71777040D02*
X154224000Y-71777040D01*
X158560000Y-71057040D02*
X153953000Y-71057040D01*
X158560000Y-72057040D02*
X154358000Y-72057040D01*
X166059000Y-71017040D02*
X161440000Y-71017040D01*
X166330000Y-69216040D02*
X153670000Y-69216040D01*
X165131000Y-72897040D02*
X161440000Y-72897040D01*
X165793000Y-71737040D02*
X161440000Y-71737040D01*
X158560000Y-70457040D02*
X153799000Y-70457040D01*
X165372000Y-72537040D02*
X161440000Y-72537040D01*
X163464000Y-74497040D02*
X156536000Y-74497040D01*
X166322000Y-69496040D02*
X153678000Y-69496040D01*
X163583000Y-74417040D02*
X156417000Y-74417040D01*
X158560000Y-72177040D02*
X154420000Y-72177040D01*
X166192000Y-70497040D02*
X161440000Y-70497040D01*
X158560000Y-70337040D02*
X153776000Y-70337040D01*
X163804000Y-74257040D02*
X156196000Y-74257040D01*
X158560000Y-70817040D02*
X153884000Y-70817040D01*
X158560000Y-71337040D02*
X154047000Y-71337040D01*
X163750000Y-74297040D02*
X156250000Y-74297040D01*
X165580000Y-72177040D02*
X161440000Y-72177040D01*
X164489000Y-73657040D02*
X155511000Y-73657040D01*
X164238000Y-73897040D02*
X155762000Y-73897040D01*
X162312000Y-75097040D02*
X157688000Y-75097040D01*
X163339000Y-74577040D02*
X156661000Y-74577040D01*
X165043000Y-73017040D02*
X161440000Y-73017040D01*
X165908000Y-71457040D02*
X161440000Y-71457040D01*
X161241000Y-75417040D02*
X158759000Y-75417040D01*
X158560000Y-71697040D02*
X154189000Y-71697040D01*
X158560000Y-71617040D02*
X154155000Y-71617040D01*
X158560000Y-72337040D02*
X154509000Y-72337040D01*
X166083000Y-70937040D02*
X161440000Y-70937040D01*
X164605000Y-73537040D02*
X155395000Y-73537040D01*
X165739000Y-71857040D02*
X161440000Y-71857040D01*
X166298000Y-69816040D02*
X153702000Y-69816040D01*
X158560000Y-72577040D02*
X154653000Y-72577040D01*
X165811000Y-71697040D02*
X161440000Y-71697040D01*
X158560000Y-71577040D02*
X154139000Y-71577040D01*
X166184000Y-70537040D02*
X161440000Y-70537040D01*
X163069000Y-74737040D02*
X156931000Y-74737040D01*
X158560000Y-70777040D02*
X153874000Y-70777040D01*
X166264000Y-70097040D02*
X153736000Y-70097040D01*
X166105000Y-70857040D02*
X161440000Y-70857040D01*
X166245000Y-70217040D02*
X153755000Y-70217040D01*
X162504000Y-75017040D02*
X157496000Y-75017040D01*
X165758000Y-71817040D02*
X161440000Y-71817040D01*
X161728000Y-75297040D02*
X158272000Y-75297040D01*
X166047000Y-71057040D02*
X161440000Y-71057040D01*
X158560000Y-71457040D02*
X154092000Y-71457040D01*
X166258000Y-70137040D02*
X153742000Y-70137040D01*
X158560000Y-71017040D02*
X153941000Y-71017040D01*
X164194000Y-73937040D02*
X155806000Y-73937040D01*
X163140000Y-74697040D02*
X156860000Y-74697040D01*
X166324000Y-69456040D02*
X153676000Y-69456040D01*
X162410000Y-75057040D02*
X157590000Y-75057040D01*
X161984000Y-75217040D02*
X158016000Y-75217040D01*
X158560000Y-71857040D02*
X154261000Y-71857040D01*
X162921000Y-74817040D02*
X157079000Y-74817040D01*
X165073000Y-72977040D02*
X161440000Y-72977040D01*
X165296000Y-72657040D02*
X161440000Y-72657040D01*
X165322000Y-72617040D02*
X161440000Y-72617040D01*
X165421000Y-72457040D02*
X161440000Y-72457040D01*
X158560000Y-70297040D02*
X153769000Y-70297040D01*
X164785000Y-73337040D02*
X155215000Y-73337040D01*
X165861000Y-71577040D02*
X161440000Y-71577040D01*
X165953000Y-71337040D02*
X161440000Y-71337040D01*
X158560000Y-72017040D02*
X154338000Y-72017040D01*
X158560000Y-72897040D02*
X154869000Y-72897040D01*
X158560000Y-72617040D02*
X154678000Y-72617040D01*
X158560000Y-72657040D02*
X154704000Y-72657040D01*
X158560000Y-72817040D02*
X154812000Y-72817040D01*
X166034000Y-71097040D02*
X161440000Y-71097040D01*
X164567000Y-73577040D02*
X155433000Y-73577040D01*
X166315000Y-69616040D02*
X153685000Y-69616040D01*
X158560000Y-73017040D02*
X154957000Y-73017040D01*
X165397000Y-72497040D02*
X161440000Y-72497040D01*
X166116000Y-70817040D02*
X161440000Y-70817040D01*
X165877000Y-71537040D02*
X161440000Y-71537040D01*
X161028000Y-75457040D02*
X158972000Y-75457040D01*
X163524000Y-74457040D02*
X156476000Y-74457040D01*
X166285000Y-69937040D02*
X153715000Y-69937040D01*
X158560000Y-71897040D02*
X154279000Y-71897040D01*
X164055000Y-74057040D02*
X155945000Y-74057040D01*
X166326000Y-69416040D02*
X153674000Y-69416040D01*
X165160000Y-72857040D02*
X161440000Y-72857040D01*
X158560000Y-72137040D02*
X154399000Y-72137040D01*
X165102000Y-72937040D02*
X161440000Y-72937040D01*
X165243000Y-72737040D02*
X161440000Y-72737040D01*
X166238000Y-70257040D02*
X161440000Y-70257040D01*
X166224000Y-70337040D02*
X161440000Y-70337040D01*
X158560000Y-72297040D02*
X154486000Y-72297040D01*
X158560000Y-70417040D02*
X153791000Y-70417040D01*
X165662000Y-72017040D02*
X161440000Y-72017040D01*
X165601000Y-72137040D02*
X161440000Y-72137040D01*
X165445000Y-72417040D02*
X161440000Y-72417040D01*
X161422000Y-75377040D02*
X158578000Y-75377040D01*
X166021000Y-71137040D02*
X161440000Y-71137040D01*
X165702000Y-71937040D02*
X161440000Y-71937040D01*
X162996000Y-74777040D02*
X157004000Y-74777040D01*
X165270000Y-72697040D02*
X161440000Y-72697040D01*
X158560000Y-72497040D02*
X154603000Y-72497040D01*
X166329000Y-69296040D02*
X153671000Y-69296040D01*
X163575000Y-62358960D02*
X163575000Y-63608960D01*
X166126000Y-70777040D02*
X161440000Y-70777040D01*
X165995000Y-71217040D02*
X161440000Y-71217040D01*
X158560000Y-71657040D02*
X154172000Y-71657040D01*
X166306000Y-69736040D02*
X153694000Y-69736040D01*
X164007000Y-74097040D02*
X155993000Y-74097040D01*
X164102000Y-74017040D02*
X155898000Y-74017040D01*
X164148000Y-73977040D02*
X155852000Y-73977040D01*
X158560000Y-72097040D02*
X154378000Y-72097040D01*
X158560000Y-72377040D02*
X154532000Y-72377040D01*
X158560000Y-71297040D02*
X154033000Y-71297040D01*
X166328000Y-69336040D02*
X153672000Y-69336040D01*
X158560000Y-70897040D02*
X153906000Y-70897040D01*
X164642000Y-73497040D02*
X155358000Y-73497040D01*
X158560000Y-72257040D02*
X154464000Y-72257040D01*
X158560000Y-72417040D02*
X154555000Y-72417040D01*
X162209000Y-75137040D02*
X157791000Y-75137040D01*
X164325000Y-73817040D02*
X155675000Y-73817040D01*
X158560000Y-70377040D02*
X153784000Y-70377040D01*
X165012000Y-73057040D02*
X161440000Y-73057040D01*
X166071000Y-70977040D02*
X161440000Y-70977040D01*
X165536000Y-72257040D02*
X161440000Y-72257040D01*
X158560000Y-71177040D02*
X153992000Y-71177040D01*
X158560000Y-73057040D02*
X154988000Y-73057040D01*
X158560000Y-72217040D02*
X154442000Y-72217040D01*
X163696000Y-74337040D02*
X156304000Y-74337040D01*
X165188000Y-72817040D02*
X161440000Y-72817040D01*
X163957000Y-74137040D02*
X156043000Y-74137040D01*
X166231000Y-70297040D02*
X161440000Y-70297040D01*
X158560000Y-71217040D02*
X154005000Y-71217040D01*
X158560000Y-71737040D02*
X154207000Y-71737040D01*
X165468000Y-72377040D02*
X161440000Y-72377040D01*
X165776000Y-71777040D02*
X161440000Y-71777040D01*
X158560000Y-71257040D02*
X154019000Y-71257040D01*
X164819000Y-73297040D02*
X155181000Y-73297040D01*
X166252000Y-70177040D02*
X153748000Y-70177040D01*
X158560000Y-70937040D02*
X153917000Y-70937040D01*
X158560000Y-72777040D02*
X154784000Y-72777040D01*
X163208000Y-74657040D02*
X156792000Y-74657040D01*
X165558000Y-72217040D02*
X161440000Y-72217040D01*
X158560000Y-71417040D02*
X154076000Y-71417040D01*
X164282000Y-73857040D02*
X155718000Y-73857040D01*
X158560000Y-70737040D02*
X153863000Y-70737040D01*
X164750000Y-73377040D02*
X155250000Y-73377040D01*
X158560000Y-72977040D02*
X154927000Y-72977040D01*
X164528000Y-73617040D02*
X155472000Y-73617040D01*
X162100000Y-75177040D02*
X157900000Y-75177040D01*
X166209000Y-70417040D02*
X161440000Y-70417040D01*
X164885000Y-73217040D02*
X155115000Y-73217040D01*
X165845000Y-71617040D02*
X161440000Y-71617040D01*
X164918000Y-73177040D02*
X155082000Y-73177040D01*
X164714000Y-73417040D02*
X155286000Y-73417040D01*
X165347000Y-72577040D02*
X161440000Y-72577040D01*
X166216000Y-70377040D02*
X161440000Y-70377040D01*
X158560000Y-72697040D02*
X154730000Y-72697040D01*
X160757000Y-75497040D02*
X159243000Y-75497040D01*
X158560000Y-70657040D02*
X153844000Y-70657040D01*
X162681000Y-74937040D02*
X157319000Y-74937040D01*
X163640000Y-74377040D02*
X156360000Y-74377040D01*
X166290000Y-69897040D02*
X153710000Y-69897040D01*
X164950000Y-73137040D02*
X155050000Y-73137040D01*
X158560000Y-71137040D02*
X153979000Y-71137040D01*
X158560000Y-70537040D02*
X153816000Y-70537040D01*
X158560000Y-72857040D02*
X154840000Y-72857040D01*
X165893000Y-71497040D02*
X161440000Y-71497040D01*
X165924000Y-71417040D02*
X161440000Y-71417040D01*
X163856000Y-74217040D02*
X156144000Y-74217040D01*
X158560000Y-71097040D02*
X153966000Y-71097040D01*
X158560000Y-71537040D02*
X154123000Y-71537040D01*
X158560000Y-71497040D02*
X154107000Y-71497040D01*
X164367000Y-73777040D02*
X155633000Y-73777040D01*
X166269000Y-70057040D02*
X153731000Y-70057040D01*
X158560000Y-70497040D02*
X153808000Y-70497040D01*
X158560000Y-72537040D02*
X154628000Y-72537040D01*
X166312000Y-69656040D02*
X153688000Y-69656040D01*
X166370000Y-69176040D02*
G75*
G02*
X153630000Y-69176040I-6370000J0D01*
G01*
X153630000Y-69176040D02*
G75*
G02*
X166370000Y-69176040I6370000J0D01*
G01*
X83540000Y-64940000D02*
X83540000Y-72560000D01*
X83550000Y-69250000D02*
X84300000Y-69250000D01*
X88750000Y-71800000D02*
X88750000Y-68750000D01*
X83550000Y-70750000D02*
X83550000Y-72550000D01*
X83250000Y-71600000D02*
X83250000Y-72850000D01*
X83550000Y-72550000D02*
X84300000Y-72550000D01*
X85800000Y-72550000D02*
X85800000Y-71800000D01*
X88750000Y-65700000D02*
X88750000Y-68750000D01*
X89510000Y-72560000D02*
X89510000Y-64940000D01*
X83550000Y-64950000D02*
X83550000Y-66750000D01*
X84300000Y-72550000D02*
X84300000Y-70750000D01*
X84300000Y-68250000D02*
X83550000Y-68250000D01*
X84300000Y-70750000D02*
X83550000Y-70750000D01*
X85800000Y-64950000D02*
X85800000Y-65700000D01*
X83550000Y-68250000D02*
X83550000Y-69250000D01*
X83250000Y-72850000D02*
X84500000Y-72850000D01*
X83540000Y-72560000D02*
X89510000Y-72560000D01*
X83550000Y-66750000D02*
X84300000Y-66750000D01*
X84300000Y-66750000D02*
X84300000Y-64950000D01*
X89510000Y-64940000D02*
X83540000Y-64940000D01*
X84300000Y-69250000D02*
X84300000Y-68250000D01*
X85800000Y-65700000D02*
X88750000Y-65700000D01*
X84300000Y-64950000D02*
X83550000Y-64950000D01*
X85800000Y-71800000D02*
X88750000Y-71800000D01*
X96074110Y-64960000D02*
X96074110Y-63572000D01*
X96515110Y-64960000D02*
X96515110Y-63457000D01*
X95154110Y-64960000D02*
X95154110Y-64136000D01*
X99509890Y-67725000D02*
X99509890Y-67225000D01*
X96395110Y-68520000D02*
X96395110Y-67040000D01*
X96675110Y-68565000D02*
X96675110Y-67040000D01*
X96595110Y-68556000D02*
X96595110Y-67040000D01*
X95074110Y-64960000D02*
X95074110Y-64215000D01*
X94634110Y-67178000D02*
X94634110Y-64822000D01*
X95234110Y-67937000D02*
X95234110Y-67040000D01*
X95194110Y-64960000D02*
X95194110Y-64099000D01*
X95114110Y-67826000D02*
X95114110Y-67040000D01*
X96315110Y-64960000D02*
X96315110Y-63499000D01*
X94794110Y-67443000D02*
X94794110Y-64557000D01*
X99759890Y-67475000D02*
X99259890Y-67475000D01*
X95714110Y-64960000D02*
X95714110Y-63732000D01*
X96915110Y-68580000D02*
X96915110Y-67040000D01*
X96515110Y-68543000D02*
X96515110Y-67040000D01*
X95434110Y-64960000D02*
X95434110Y-63905000D01*
X95514110Y-64960000D02*
X95514110Y-63851000D01*
X95274110Y-64960000D02*
X95274110Y-64029000D01*
X94394110Y-66518000D02*
X94394110Y-65482000D01*
X95274110Y-67971000D02*
X95274110Y-67040000D01*
X95514110Y-68149000D02*
X95514110Y-67040000D01*
X95594110Y-64960000D02*
X95594110Y-63800000D01*
X95674110Y-64960000D02*
X95674110Y-63753000D01*
X96034110Y-64960000D02*
X96034110Y-63586000D01*
X96395110Y-64960000D02*
X96395110Y-63480000D01*
X96475110Y-64960000D02*
X96475110Y-63464000D01*
X95634110Y-68224000D02*
X95634110Y-67040000D01*
X95354110Y-68035000D02*
X95354110Y-67040000D01*
X95114110Y-64960000D02*
X95114110Y-64174000D01*
X95914110Y-64960000D02*
X95914110Y-63635000D01*
X95794110Y-64960000D02*
X95794110Y-63690000D01*
X95234110Y-64960000D02*
X95234110Y-64063000D01*
X96875110Y-64960000D02*
X96875110Y-63421000D01*
X96595110Y-64960000D02*
X96595110Y-63444000D01*
X96635110Y-68561000D02*
X96635110Y-67040000D01*
X95594110Y-68200000D02*
X95594110Y-67040000D01*
X95474110Y-68122000D02*
X95474110Y-67040000D01*
X96034110Y-68414000D02*
X96034110Y-67040000D01*
X95714110Y-68268000D02*
X95714110Y-67040000D01*
X96194110Y-64960000D02*
X96194110Y-63532000D01*
X96154110Y-64960000D02*
X96154110Y-63545000D01*
X96955110Y-64960000D02*
X96955110Y-63420000D01*
X96234110Y-64960000D02*
X96234110Y-63520000D01*
X96475110Y-68536000D02*
X96475110Y-67040000D01*
X95154110Y-67864000D02*
X95154110Y-67040000D01*
X95834110Y-64960000D02*
X95834110Y-63671000D01*
X96915110Y-64960000D02*
X96915110Y-63420000D01*
X94834110Y-67500000D02*
X94834110Y-64500000D01*
X95394110Y-64960000D02*
X95394110Y-63935000D01*
X96755110Y-68573000D02*
X96755110Y-67040000D01*
X94954110Y-64960000D02*
X94954110Y-64347000D01*
X95994110Y-68398000D02*
X95994110Y-67040000D01*
X94914110Y-67605000D02*
X94914110Y-64395000D01*
X94714110Y-67319000D02*
X94714110Y-64681000D01*
X95034110Y-64960000D02*
X95034110Y-64257000D01*
X96114110Y-64960000D02*
X96114110Y-63558000D01*
X96555110Y-68550000D02*
X96555110Y-67040000D01*
X96114110Y-68442000D02*
X96114110Y-67040000D01*
X95554110Y-68175000D02*
X95554110Y-67040000D01*
X94754110Y-67383000D02*
X94754110Y-64617000D01*
X96234110Y-68480000D02*
X96234110Y-67040000D01*
X95554110Y-64960000D02*
X95554110Y-63825000D01*
X94514110Y-66915000D02*
X94514110Y-65085000D01*
X95634110Y-64960000D02*
X95634110Y-63776000D01*
X96555110Y-64960000D02*
X96555110Y-63450000D01*
X94474110Y-66805000D02*
X94474110Y-65195000D01*
X95994110Y-64960000D02*
X95994110Y-63602000D01*
X95754110Y-68290000D02*
X95754110Y-67040000D01*
X94674110Y-67251000D02*
X94674110Y-64749000D01*
X95674110Y-68247000D02*
X95674110Y-67040000D01*
X96435110Y-68528000D02*
X96435110Y-67040000D01*
X95794110Y-68310000D02*
X95794110Y-67040000D01*
X96755110Y-64960000D02*
X96755110Y-63427000D01*
X94994110Y-67699000D02*
X94994110Y-67040000D01*
X95074110Y-67785000D02*
X95074110Y-67040000D01*
X95754110Y-64960000D02*
X95754110Y-63710000D01*
X96275110Y-68491000D02*
X96275110Y-67040000D01*
X96275110Y-64960000D02*
X96275110Y-63509000D01*
X94554110Y-67011000D02*
X94554110Y-64989000D01*
X95954110Y-64960000D02*
X95954110Y-63618000D01*
X94594110Y-67098000D02*
X94594110Y-64902000D01*
X94434110Y-66677000D02*
X94434110Y-65323000D01*
X95434110Y-68095000D02*
X95434110Y-67040000D01*
X96355110Y-68511000D02*
X96355110Y-67040000D01*
X96194110Y-68468000D02*
X96194110Y-67040000D01*
X96715110Y-68569000D02*
X96715110Y-67040000D01*
X95394110Y-68065000D02*
X95394110Y-67040000D01*
X95194110Y-67901000D02*
X95194110Y-67040000D01*
X94954110Y-67653000D02*
X94954110Y-67040000D01*
X96795110Y-64960000D02*
X96795110Y-63424000D01*
X96835110Y-64960000D02*
X96835110Y-63422000D01*
X96715110Y-64960000D02*
X96715110Y-63431000D01*
X96835110Y-68578000D02*
X96835110Y-67040000D01*
X95834110Y-68329000D02*
X95834110Y-67040000D01*
X94354110Y-66284000D02*
X94354110Y-65716000D01*
X95874110Y-64960000D02*
X95874110Y-63652000D01*
X95034110Y-67743000D02*
X95034110Y-67040000D01*
X95474110Y-64960000D02*
X95474110Y-63878000D01*
X95314110Y-64960000D02*
X95314110Y-63996000D01*
X96154110Y-68455000D02*
X96154110Y-67040000D01*
X95954110Y-68382000D02*
X95954110Y-67040000D01*
X95314110Y-68004000D02*
X95314110Y-67040000D01*
X94994110Y-64960000D02*
X94994110Y-64301000D01*
X96635110Y-64960000D02*
X96635110Y-63439000D01*
X95354110Y-64960000D02*
X95354110Y-63965000D01*
X95874110Y-68348000D02*
X95874110Y-67040000D01*
X94874110Y-67554000D02*
X94874110Y-64446000D01*
X96955110Y-68580000D02*
X96955110Y-67040000D01*
X96795110Y-68576000D02*
X96795110Y-67040000D01*
X96675110Y-64960000D02*
X96675110Y-63435000D01*
X96074110Y-68428000D02*
X96074110Y-67040000D01*
X95914110Y-68365000D02*
X95914110Y-67040000D01*
X96435110Y-64960000D02*
X96435110Y-63472000D01*
X96315110Y-68501000D02*
X96315110Y-67040000D01*
X96355110Y-64960000D02*
X96355110Y-63489000D01*
X96875110Y-68579000D02*
X96875110Y-67040000D01*
X99575110Y-66000000D02*
G75*
G02*
X94335110Y-66000000I-2620000J0D01*
G01*
X94335110Y-66000000D02*
G75*
G02*
X99575110Y-66000000I2620000J0D01*
G01*
X123350000Y-88051000D02*
X118709000Y-88051000D01*
X121840000Y-77811000D02*
X121840000Y-88051000D01*
X123350000Y-81081000D02*
X121840000Y-81081000D01*
X123350000Y-77811000D02*
X118709000Y-77811000D01*
X118709000Y-77811000D02*
X118709000Y-88051000D01*
X123350000Y-77811000D02*
X123350000Y-88051000D01*
X123350000Y-84782000D02*
X121840000Y-84782000D01*
X99640000Y-87490000D02*
X99640000Y-69590000D01*
X97990000Y-87490000D02*
X99640000Y-87490000D01*
X94340000Y-69590000D02*
X94340000Y-87490000D01*
X94340000Y-87490000D02*
X95990000Y-87490000D01*
X99640000Y-69590000D02*
X94340000Y-69590000D01*
X95990000Y-87490000D02*
G75*
G02*
X97990000Y-87490000I1000000J0D01*
G01*
X114436550Y-71000000D02*
X113777180Y-71000000D01*
X117937820Y-71000000D02*
G75*
G02*
X114436540Y-71000000I-1750640J0D01*
G01*
X114436540Y-71000000D02*
G75*
G02*
X117937820Y-71000000I1750640J0D01*
G01*
X138630000Y-65880000D02*
X139075000Y-65880000D01*
X140925000Y-65880000D02*
X141370000Y-65880000D01*
X138630000Y-72120000D02*
X139075000Y-72120000D01*
X138630000Y-72120000D02*
X138630000Y-65880000D01*
X140925000Y-72120000D02*
X141370000Y-72120000D01*
X141370000Y-72120000D02*
X141370000Y-65880000D01*
X83540000Y-83560000D02*
X89510000Y-83560000D01*
X89510000Y-73440000D02*
X83540000Y-73440000D01*
X83540000Y-73440000D02*
X83540000Y-83560000D01*
X83550000Y-83550000D02*
X84300000Y-83550000D01*
X89510000Y-83560000D02*
X89510000Y-73440000D01*
X85800000Y-82800000D02*
X88750000Y-82800000D01*
X88750000Y-74200000D02*
X88750000Y-78500000D01*
X83250000Y-83850000D02*
X84500000Y-83850000D01*
X83550000Y-76750000D02*
X83550000Y-80250000D01*
X83550000Y-73450000D02*
X83550000Y-75250000D01*
X84300000Y-83550000D02*
X84300000Y-81750000D01*
X84300000Y-75250000D02*
X84300000Y-73450000D01*
X83550000Y-75250000D02*
X84300000Y-75250000D01*
X88750000Y-82800000D02*
X88750000Y-78500000D01*
X83250000Y-82600000D02*
X83250000Y-83850000D01*
X85800000Y-73450000D02*
X85800000Y-74200000D01*
X83550000Y-80250000D02*
X84300000Y-80250000D01*
X85800000Y-74200000D02*
X88750000Y-74200000D01*
X84300000Y-80250000D02*
X84300000Y-76750000D01*
X85800000Y-83550000D02*
X85800000Y-82800000D01*
X84300000Y-76750000D02*
X83550000Y-76750000D01*
X83550000Y-81750000D02*
X83550000Y-83550000D01*
X84300000Y-73450000D02*
X83550000Y-73450000D01*
X84300000Y-81750000D02*
X83550000Y-81750000D01*
X146240000Y-92745000D02*
X142050000Y-92745000D01*
X142165000Y-90075000D02*
X146125000Y-90075000D01*
X145325000Y-83115000D02*
X146925000Y-83115000D01*
X141365000Y-83115000D02*
X142965000Y-83115000D01*
X142165000Y-92745000D02*
X142165000Y-91745000D01*
X142165000Y-91745000D02*
X142165000Y-90075000D01*
X142050000Y-92745000D02*
X142050000Y-91740000D01*
X146925000Y-83115000D02*
X146925000Y-82515000D01*
X142965000Y-83115000D02*
X142965000Y-82515000D01*
X146240000Y-91740000D02*
X146240000Y-92745000D01*
X142050000Y-91740000D02*
X140145000Y-91740000D01*
X142165000Y-91745000D02*
X146125000Y-91745000D01*
X140145000Y-91740000D02*
X140145000Y-82515000D01*
X141365000Y-82515000D02*
X141365000Y-83115000D01*
X146125000Y-90075000D02*
X146125000Y-91745000D01*
X148145000Y-82515000D02*
X148145000Y-91740000D01*
X148145000Y-91740000D02*
X146240000Y-91740000D01*
X146125000Y-91745000D02*
X146125000Y-92745000D01*
X140145000Y-82515000D02*
X148145000Y-82515000D01*
X139855000Y-85735000D02*
X139855000Y-89735000D01*
X145325000Y-82515000D02*
X145325000Y-83115000D01*
X101692500Y-93100000D02*
X100492500Y-93100000D01*
X93692500Y-88900000D02*
X92492500Y-88900000D01*
X101692500Y-88900000D02*
X101692500Y-93100000D01*
X92492500Y-93100000D02*
X93692500Y-93100000D01*
X93392500Y-88600000D02*
X92192500Y-88600000D01*
X92492500Y-88900000D02*
X92492500Y-93100000D01*
X92192500Y-88600000D02*
X92192500Y-89800000D01*
X100492500Y-88900000D02*
X101692500Y-88900000D01*
X133395000Y-79910000D02*
X137895000Y-79910000D01*
X124995000Y-79910000D02*
X124995000Y-92810000D01*
X129495000Y-79910000D02*
X124995000Y-79910000D01*
X137895000Y-79910000D02*
X137895000Y-92810000D01*
X137895000Y-92810000D02*
X133395000Y-92810000D01*
X124995000Y-92810000D02*
X129495000Y-92810000D01*
X142385000Y-71095000D02*
X142385000Y-66905000D01*
X145055000Y-67020000D02*
X145055000Y-70980000D01*
X152015000Y-67820000D02*
X152615000Y-67820000D01*
X143385000Y-67020000D02*
X143385000Y-70980000D01*
X143390000Y-65000000D02*
X152615000Y-65000000D01*
X143385000Y-70980000D02*
X142385000Y-70980000D01*
X152015000Y-70180000D02*
X152015000Y-71780000D01*
X152615000Y-66220000D02*
X152015000Y-66220000D01*
X152615000Y-70180000D02*
X152015000Y-70180000D01*
X143390000Y-66905000D02*
X143390000Y-65000000D01*
X152015000Y-66220000D02*
X152015000Y-67820000D01*
X145055000Y-70980000D02*
X143385000Y-70980000D01*
X152615000Y-73000000D02*
X143390000Y-73000000D01*
X152015000Y-71780000D02*
X152615000Y-71780000D01*
X143385000Y-67020000D02*
X145055000Y-67020000D01*
X149395000Y-64710000D02*
X145395000Y-64710000D01*
X142385000Y-66905000D02*
X143390000Y-66905000D01*
X143390000Y-73000000D02*
X143390000Y-71095000D01*
X143390000Y-71095000D02*
X142385000Y-71095000D01*
X152615000Y-65000000D02*
X152615000Y-73000000D01*
X142385000Y-67020000D02*
X143385000Y-67020000D01*
X114370000Y-82000000D02*
X114440000Y-82000000D01*
X114370000Y-82000000D02*
G75*
G02*
X111630000Y-82000000I-1370000J0D01*
G01*
X111630000Y-82000000D02*
G75*
G02*
X114370000Y-82000000I1370000J0D01*
G01*
X106063450Y-81000000D02*
X106722820Y-81000000D01*
X106063450Y-81000000D02*
G75*
G02*
X102562170Y-81000000I-1750640J0D01*
G01*
X102562170Y-81000000D02*
G75*
G02*
X106063450Y-81000000I1750640J0D01*
G01*
X108954000Y-90531000D02*
X104046000Y-90531000D01*
X110502000Y-88051000D02*
X107540000Y-88051000D01*
X105460000Y-90011000D02*
X103481000Y-90011000D01*
X105460000Y-89411000D02*
X103031000Y-89411000D01*
X108845000Y-90611000D02*
X104155000Y-90611000D01*
X109838000Y-89611000D02*
X107540000Y-89611000D01*
X109197000Y-90331000D02*
X103803000Y-90331000D01*
X105460000Y-88171000D02*
X102524000Y-88171000D01*
X108052000Y-91051000D02*
X104948000Y-91051000D01*
X110524000Y-87930000D02*
X102476000Y-87930000D01*
X109750000Y-89731000D02*
X107540000Y-89731000D01*
X105460000Y-89531000D02*
X103108000Y-89531000D01*
X110290000Y-88771000D02*
X107540000Y-88771000D01*
X105460000Y-89451000D02*
X103056000Y-89451000D01*
X110447000Y-88291000D02*
X107540000Y-88291000D01*
X110542000Y-87810000D02*
X102458000Y-87810000D01*
X105460000Y-88811000D02*
X102726000Y-88811000D01*
X110580000Y-87250000D02*
X102420000Y-87250000D01*
X110580000Y-87290000D02*
X102420000Y-87290000D01*
X109056000Y-90451000D02*
X103944000Y-90451000D01*
X109284000Y-90251000D02*
X103716000Y-90251000D01*
X105460000Y-88851000D02*
X102743000Y-88851000D01*
X105460000Y-88971000D02*
X102796000Y-88971000D01*
X109367000Y-90171000D02*
X103633000Y-90171000D01*
X105460000Y-89971000D02*
X103445000Y-89971000D01*
X110363000Y-88571000D02*
X107540000Y-88571000D01*
X107448000Y-91251000D02*
X105552000Y-91251000D01*
X105460000Y-89811000D02*
X103311000Y-89811000D01*
X105460000Y-89851000D02*
X103344000Y-89851000D01*
X110577000Y-87410000D02*
X102423000Y-87410000D01*
X109407000Y-90131000D02*
X103593000Y-90131000D01*
X109483000Y-90051000D02*
X103517000Y-90051000D01*
X105460000Y-88771000D02*
X102710000Y-88771000D01*
X105460000Y-87971000D02*
X102483000Y-87971000D01*
X109993000Y-89371000D02*
X107540000Y-89371000D01*
X105460000Y-88931000D02*
X102778000Y-88931000D01*
X110436000Y-88331000D02*
X107540000Y-88331000D01*
X105460000Y-88491000D02*
X102611000Y-88491000D01*
X105460000Y-89691000D02*
X103220000Y-89691000D01*
X105460000Y-89211000D02*
X102916000Y-89211000D01*
X110166000Y-89051000D02*
X107540000Y-89051000D01*
X105460000Y-89251000D02*
X102938000Y-89251000D01*
X109241000Y-90291000D02*
X103759000Y-90291000D01*
X109151000Y-90371000D02*
X103849000Y-90371000D01*
X110414000Y-88411000D02*
X107540000Y-88411000D01*
X105460000Y-89371000D02*
X103007000Y-89371000D01*
X105460000Y-88451000D02*
X102598000Y-88451000D01*
X105460000Y-88291000D02*
X102553000Y-88291000D01*
X108534000Y-90811000D02*
X104466000Y-90811000D01*
X105460000Y-89771000D02*
X103280000Y-89771000D01*
X107729000Y-91171000D02*
X105271000Y-91171000D01*
X108313000Y-90931000D02*
X104687000Y-90931000D01*
X105460000Y-88731000D02*
X102695000Y-88731000D01*
X109865000Y-89571000D02*
X107540000Y-89571000D01*
X110127000Y-89131000D02*
X107540000Y-89131000D01*
X105460000Y-88251000D02*
X102543000Y-88251000D01*
X107268000Y-91291000D02*
X105732000Y-91291000D01*
X110467000Y-88211000D02*
X107540000Y-88211000D01*
X109104000Y-90411000D02*
X103896000Y-90411000D01*
X107953000Y-91091000D02*
X105047000Y-91091000D01*
X105460000Y-89571000D02*
X103135000Y-89571000D01*
X109689000Y-89811000D02*
X107540000Y-89811000D01*
X110222000Y-88931000D02*
X107540000Y-88931000D01*
X110257000Y-88851000D02*
X107540000Y-88851000D01*
X109918000Y-89491000D02*
X107540000Y-89491000D01*
X110204000Y-88971000D02*
X107540000Y-88971000D01*
X105460000Y-88371000D02*
X102575000Y-88371000D01*
X105460000Y-88051000D02*
X102498000Y-88051000D01*
X110040000Y-89291000D02*
X107540000Y-89291000D01*
X105460000Y-89731000D02*
X103250000Y-89731000D01*
X108815000Y-82840300D02*
X108815000Y-83640300D01*
X110335000Y-88651000D02*
X107540000Y-88651000D01*
X110580000Y-87330000D02*
X102420000Y-87330000D01*
X110571000Y-87530000D02*
X102429000Y-87530000D01*
X105460000Y-89011000D02*
X102814000Y-89011000D01*
X110557000Y-87690000D02*
X102443000Y-87690000D01*
X105460000Y-88691000D02*
X102679000Y-88691000D01*
X105460000Y-88211000D02*
X102533000Y-88211000D01*
X108390000Y-90891000D02*
X104610000Y-90891000D01*
X109445000Y-90091000D02*
X103555000Y-90091000D01*
X105460000Y-88531000D02*
X102623000Y-88531000D01*
X110389000Y-88491000D02*
X107540000Y-88491000D01*
X110305000Y-88731000D02*
X107540000Y-88731000D01*
X110548000Y-87770000D02*
X102452000Y-87770000D01*
X108900000Y-90571000D02*
X104100000Y-90571000D01*
X110350000Y-88611000D02*
X107540000Y-88611000D01*
X107598000Y-91211000D02*
X105402000Y-91211000D01*
X108602000Y-90771000D02*
X104398000Y-90771000D01*
X109944000Y-89451000D02*
X107540000Y-89451000D01*
X108145000Y-91011000D02*
X104855000Y-91011000D01*
X108666000Y-90731000D02*
X104334000Y-90731000D01*
X105460000Y-88651000D02*
X102665000Y-88651000D01*
X110274000Y-88811000D02*
X107540000Y-88811000D01*
X109656000Y-89851000D02*
X107540000Y-89851000D01*
X109555000Y-89971000D02*
X107540000Y-89971000D01*
X110494000Y-88091000D02*
X107540000Y-88091000D01*
X110574000Y-87490000D02*
X102426000Y-87490000D01*
X109809000Y-89651000D02*
X107540000Y-89651000D01*
X105460000Y-88011000D02*
X102490000Y-88011000D01*
X109005000Y-90491000D02*
X103995000Y-90491000D01*
X108728000Y-90691000D02*
X104272000Y-90691000D01*
X105460000Y-89171000D02*
X102894000Y-89171000D01*
X109590000Y-89931000D02*
X107540000Y-89931000D01*
X110457000Y-88251000D02*
X107540000Y-88251000D01*
X105460000Y-88611000D02*
X102650000Y-88611000D01*
X107846000Y-91131000D02*
X105154000Y-91131000D01*
X110530000Y-87890000D02*
X102470000Y-87890000D01*
X110402000Y-88451000D02*
X107540000Y-88451000D01*
X105460000Y-89651000D02*
X103191000Y-89651000D01*
X110017000Y-89331000D02*
X107540000Y-89331000D01*
X110576000Y-87450000D02*
X102424000Y-87450000D01*
X110425000Y-88371000D02*
X107540000Y-88371000D01*
X109519000Y-90011000D02*
X107540000Y-90011000D01*
X109720000Y-89771000D02*
X107540000Y-89771000D01*
X105460000Y-89891000D02*
X103376000Y-89891000D01*
X109780000Y-89691000D02*
X107540000Y-89691000D01*
X110565000Y-87610000D02*
X102435000Y-87610000D01*
X110062000Y-89251000D02*
X107540000Y-89251000D01*
X105460000Y-89331000D02*
X102983000Y-89331000D01*
X109969000Y-89411000D02*
X107540000Y-89411000D01*
X105460000Y-88571000D02*
X102637000Y-88571000D01*
X105460000Y-88331000D02*
X102564000Y-88331000D01*
X105460000Y-89051000D02*
X102834000Y-89051000D01*
X110579000Y-87370000D02*
X102421000Y-87370000D01*
X110517000Y-87971000D02*
X107540000Y-87971000D01*
X105460000Y-88131000D02*
X102515000Y-88131000D01*
X109326000Y-90211000D02*
X103674000Y-90211000D01*
X110321000Y-88691000D02*
X107540000Y-88691000D01*
X110537000Y-87850000D02*
X102463000Y-87850000D01*
X105460000Y-88411000D02*
X102586000Y-88411000D01*
X105460000Y-89491000D02*
X103082000Y-89491000D01*
X110561000Y-87650000D02*
X102439000Y-87650000D01*
X108231000Y-90971000D02*
X104769000Y-90971000D01*
X110147000Y-89091000D02*
X107540000Y-89091000D01*
X105460000Y-89291000D02*
X102960000Y-89291000D01*
X105460000Y-89931000D02*
X103410000Y-89931000D01*
X109624000Y-89891000D02*
X107540000Y-89891000D01*
X110485000Y-88131000D02*
X107540000Y-88131000D01*
X110568000Y-87570000D02*
X102432000Y-87570000D01*
X109215000Y-83240300D02*
X108415000Y-83240300D01*
X105460000Y-89611000D02*
X103162000Y-89611000D01*
X105460000Y-89091000D02*
X102853000Y-89091000D01*
X109892000Y-89531000D02*
X107540000Y-89531000D01*
X108464000Y-90851000D02*
X104536000Y-90851000D01*
X105460000Y-88891000D02*
X102760000Y-88891000D01*
X110510000Y-88011000D02*
X107540000Y-88011000D01*
X107033000Y-91331000D02*
X105967000Y-91331000D01*
X108787000Y-90651000D02*
X104213000Y-90651000D01*
X110552000Y-87730000D02*
X102448000Y-87730000D01*
X110084000Y-89211000D02*
X107540000Y-89211000D01*
X110377000Y-88531000D02*
X107540000Y-88531000D01*
X110186000Y-89011000D02*
X107540000Y-89011000D01*
X110476000Y-88171000D02*
X107540000Y-88171000D01*
X110106000Y-89171000D02*
X107540000Y-89171000D01*
X105460000Y-88091000D02*
X102506000Y-88091000D01*
X110240000Y-88891000D02*
X107540000Y-88891000D01*
X105460000Y-89131000D02*
X102873000Y-89131000D01*
X110620000Y-87250000D02*
G75*
G02*
X102380000Y-87250000I-4120000J0D01*
G01*
X102380000Y-87250000D02*
G75*
G02*
X110620000Y-87250000I4120000J0D01*
G01*
X114436550Y-85500000D02*
X113777180Y-85500000D01*
X117937820Y-85500000D02*
G75*
G02*
X114436540Y-85500000I-1750640J0D01*
G01*
X114436540Y-85500000D02*
G75*
G02*
X117937820Y-85500000I1750640J0D01*
G01*
X103960000Y-76501000D02*
X103347000Y-76501000D01*
X103960000Y-74540000D02*
X102420000Y-74540000D01*
X106653000Y-76501000D02*
X106040000Y-76501000D01*
X103960000Y-74620000D02*
X102422000Y-74620000D01*
X106319000Y-76741000D02*
X103681000Y-76741000D01*
X107536000Y-74980000D02*
X106040000Y-74980000D01*
X107329000Y-75621000D02*
X106040000Y-75621000D01*
X103960000Y-74580000D02*
X102421000Y-74580000D01*
X106178000Y-76821000D02*
X103822000Y-76821000D01*
X106554000Y-76581000D02*
X103446000Y-76581000D01*
X103960000Y-75701000D02*
X102710000Y-75701000D01*
X107122000Y-75981000D02*
X106040000Y-75981000D01*
X103960000Y-75901000D02*
X102825000Y-75901000D01*
X107175000Y-75901000D02*
X106040000Y-75901000D01*
X103960000Y-76021000D02*
X102905000Y-76021000D01*
X107491000Y-75180000D02*
X106040000Y-75180000D01*
X103960000Y-74660000D02*
X102424000Y-74660000D01*
X103960000Y-75060000D02*
X102480000Y-75060000D01*
X103960000Y-75821000D02*
X102776000Y-75821000D01*
X107556000Y-74860000D02*
X106040000Y-74860000D01*
X103960000Y-75741000D02*
X102732000Y-75741000D01*
X103960000Y-76461000D02*
X103301000Y-76461000D01*
X106500000Y-76621000D02*
X103500000Y-76621000D01*
X106901000Y-76261000D02*
X106040000Y-76261000D01*
X103960000Y-76381000D02*
X103215000Y-76381000D01*
X107382000Y-75501000D02*
X106040000Y-75501000D01*
X105284000Y-77101000D02*
X104716000Y-77101000D01*
X106937000Y-76221000D02*
X106040000Y-76221000D01*
X107501000Y-75140000D02*
X106040000Y-75140000D01*
X107543000Y-74940000D02*
X106040000Y-74940000D01*
X103960000Y-75180000D02*
X102509000Y-75180000D01*
X103960000Y-74740000D02*
X102431000Y-74740000D01*
X103960000Y-76221000D02*
X103063000Y-76221000D01*
X103960000Y-75421000D02*
X102586000Y-75421000D01*
X105677000Y-77021000D02*
X104323000Y-77021000D01*
X107573000Y-74700000D02*
X106040000Y-74700000D01*
X107520000Y-75060000D02*
X106040000Y-75060000D01*
X105518000Y-77061000D02*
X104482000Y-77061000D01*
X107200000Y-75861000D02*
X106040000Y-75861000D01*
X103960000Y-74980000D02*
X102464000Y-74980000D01*
X103960000Y-75261000D02*
X102532000Y-75261000D01*
X107480000Y-75221000D02*
X106040000Y-75221000D01*
X103960000Y-76061000D02*
X102935000Y-76061000D01*
X103960000Y-74940000D02*
X102457000Y-74940000D01*
X103960000Y-75221000D02*
X102520000Y-75221000D01*
X107365000Y-75541000D02*
X106040000Y-75541000D01*
X103960000Y-75341000D02*
X102558000Y-75341000D01*
X107579000Y-74580000D02*
X106040000Y-74580000D01*
X107580000Y-74540000D02*
X106040000Y-74540000D01*
X103960000Y-75100000D02*
X102489000Y-75100000D01*
X103960000Y-75861000D02*
X102800000Y-75861000D01*
X106383000Y-76701000D02*
X103617000Y-76701000D01*
X103960000Y-74900000D02*
X102450000Y-74900000D01*
X103960000Y-74700000D02*
X102427000Y-74700000D01*
X103960000Y-76341000D02*
X103174000Y-76341000D01*
X107414000Y-75421000D02*
X106040000Y-75421000D01*
X107149000Y-75941000D02*
X106040000Y-75941000D01*
X106826000Y-76341000D02*
X106040000Y-76341000D01*
X107035000Y-76101000D02*
X106040000Y-76101000D01*
X107348000Y-75581000D02*
X106040000Y-75581000D01*
X106743000Y-76421000D02*
X106040000Y-76421000D01*
X107578000Y-74620000D02*
X106040000Y-74620000D01*
X103960000Y-75981000D02*
X102878000Y-75981000D01*
X107455000Y-75301000D02*
X106040000Y-75301000D01*
X106699000Y-76461000D02*
X106040000Y-76461000D01*
X103960000Y-76261000D02*
X103099000Y-76261000D01*
X107528000Y-75020000D02*
X106040000Y-75020000D01*
X103960000Y-75781000D02*
X102753000Y-75781000D01*
X107065000Y-76061000D02*
X106040000Y-76061000D01*
X107580000Y-74500000D02*
X106040000Y-74500000D01*
X107511000Y-75100000D02*
X106040000Y-75100000D01*
X107310000Y-75661000D02*
X106040000Y-75661000D01*
X106725000Y-71945230D02*
X106225000Y-71945230D01*
X103960000Y-75140000D02*
X102499000Y-75140000D01*
X107290000Y-75701000D02*
X106040000Y-75701000D01*
X103960000Y-76141000D02*
X102996000Y-76141000D01*
X103960000Y-75020000D02*
X102472000Y-75020000D01*
X107095000Y-76021000D02*
X106040000Y-76021000D01*
X107468000Y-75261000D02*
X106040000Y-75261000D01*
X103960000Y-74780000D02*
X102435000Y-74780000D01*
X106251000Y-76781000D02*
X103749000Y-76781000D01*
X107565000Y-74780000D02*
X106040000Y-74780000D01*
X106785000Y-76381000D02*
X106040000Y-76381000D01*
X107224000Y-75821000D02*
X106040000Y-75821000D01*
X103960000Y-76181000D02*
X103029000Y-76181000D01*
X103960000Y-75581000D02*
X102652000Y-75581000D01*
X103960000Y-75301000D02*
X102545000Y-75301000D01*
X107428000Y-75381000D02*
X106040000Y-75381000D01*
X106098000Y-76861000D02*
X103902000Y-76861000D01*
X107576000Y-74660000D02*
X106040000Y-74660000D01*
X107247000Y-75781000D02*
X106040000Y-75781000D01*
X105915000Y-76941000D02*
X104085000Y-76941000D01*
X107004000Y-76141000D02*
X106040000Y-76141000D01*
X103960000Y-76421000D02*
X103257000Y-76421000D01*
X103960000Y-74820000D02*
X102439000Y-74820000D01*
X103960000Y-74860000D02*
X102444000Y-74860000D01*
X106864000Y-76301000D02*
X106040000Y-76301000D01*
X106443000Y-76661000D02*
X103557000Y-76661000D01*
X107550000Y-74900000D02*
X106040000Y-74900000D01*
X103960000Y-74500000D02*
X102420000Y-74500000D01*
X106475000Y-71695230D02*
X106475000Y-72195230D01*
X107561000Y-74820000D02*
X106040000Y-74820000D01*
X106011000Y-76901000D02*
X103989000Y-76901000D01*
X103960000Y-75541000D02*
X102635000Y-75541000D01*
X103960000Y-75501000D02*
X102618000Y-75501000D01*
X103960000Y-75621000D02*
X102671000Y-75621000D01*
X103960000Y-75461000D02*
X102602000Y-75461000D01*
X105805000Y-76981000D02*
X104195000Y-76981000D01*
X103960000Y-75381000D02*
X102572000Y-75381000D01*
X107569000Y-74740000D02*
X106040000Y-74740000D01*
X106605000Y-76541000D02*
X103395000Y-76541000D01*
X103960000Y-76101000D02*
X102965000Y-76101000D01*
X103960000Y-75661000D02*
X102690000Y-75661000D01*
X107398000Y-75461000D02*
X106040000Y-75461000D01*
X106971000Y-76181000D02*
X106040000Y-76181000D01*
X103960000Y-75941000D02*
X102851000Y-75941000D01*
X107442000Y-75341000D02*
X106040000Y-75341000D01*
X103960000Y-76301000D02*
X103136000Y-76301000D01*
X107268000Y-75741000D02*
X106040000Y-75741000D01*
X107620000Y-74500000D02*
G75*
G02*
X102380000Y-74500000I-2620000J0D01*
G01*
X102380000Y-74500000D02*
G75*
G02*
X107620000Y-74500000I2620000J0D01*
G01*
X174367000Y-82777040D02*
X165633000Y-82777040D01*
X175939000Y-80377040D02*
X171440000Y-80377040D01*
X176021000Y-80137040D02*
X171440000Y-80137040D01*
X168560000Y-79697040D02*
X163854000Y-79697040D01*
X176209000Y-79417040D02*
X171440000Y-79417040D01*
X168560000Y-79657040D02*
X163844000Y-79657040D01*
X176216000Y-79377040D02*
X171440000Y-79377040D01*
X173957000Y-83137040D02*
X166043000Y-83137040D01*
X168560000Y-81537040D02*
X164628000Y-81537040D01*
X174785000Y-82337040D02*
X165215000Y-82337040D01*
X175828000Y-80657040D02*
X171440000Y-80657040D01*
X176285000Y-78937040D02*
X163715000Y-78937040D01*
X176083000Y-79937040D02*
X171440000Y-79937040D01*
X176105000Y-79857040D02*
X171440000Y-79857040D01*
X176280000Y-78977040D02*
X163720000Y-78977040D01*
X176329000Y-78296040D02*
X163671000Y-78296040D01*
X168560000Y-80137040D02*
X163979000Y-80137040D01*
X176312000Y-78656040D02*
X163688000Y-78656040D01*
X176298000Y-78816040D02*
X163702000Y-78816040D01*
X176315000Y-78616040D02*
X163685000Y-78616040D01*
X168560000Y-80777040D02*
X164224000Y-80777040D01*
X174885000Y-82217040D02*
X165115000Y-82217040D01*
X173804000Y-83257040D02*
X166196000Y-83257040D01*
X174714000Y-82417040D02*
X165286000Y-82417040D01*
X168560000Y-79297040D02*
X163769000Y-79297040D01*
X168560000Y-79337040D02*
X163776000Y-79337040D01*
X176184000Y-79537040D02*
X171440000Y-79537040D01*
X168560000Y-81577040D02*
X164653000Y-81577040D01*
X175514000Y-81297040D02*
X171440000Y-81297040D01*
X168560000Y-80817040D02*
X164242000Y-80817040D01*
X176126000Y-79777040D02*
X171440000Y-79777040D01*
X175322000Y-81617040D02*
X171440000Y-81617040D01*
X175558000Y-81217040D02*
X171440000Y-81217040D01*
X176156000Y-79657040D02*
X171440000Y-79657040D01*
X173339000Y-83577040D02*
X166661000Y-83577040D01*
X168560000Y-80617040D02*
X164155000Y-80617040D01*
X176290000Y-78897040D02*
X163710000Y-78897040D01*
X172921000Y-83817040D02*
X167079000Y-83817040D01*
X176309000Y-78696040D02*
X163691000Y-78696040D01*
X175043000Y-82017040D02*
X171440000Y-82017040D01*
X175758000Y-80817040D02*
X171440000Y-80817040D01*
X176324000Y-78456040D02*
X163676000Y-78456040D01*
X175967000Y-80297040D02*
X171440000Y-80297040D01*
X176322000Y-78496040D02*
X163678000Y-78496040D01*
X176008000Y-80177040D02*
X171440000Y-80177040D01*
X175793000Y-80737040D02*
X171440000Y-80737040D01*
X172410000Y-84057040D02*
X167590000Y-84057040D01*
X176059000Y-80017040D02*
X171440000Y-80017040D01*
X176326000Y-78416040D02*
X163674000Y-78416040D01*
X172504000Y-84017040D02*
X167496000Y-84017040D01*
X176192000Y-79497040D02*
X171440000Y-79497040D01*
X168560000Y-79577040D02*
X163825000Y-79577040D01*
X176294000Y-78856040D02*
X163706000Y-78856040D01*
X173575000Y-71358960D02*
X173575000Y-72608960D01*
X176252000Y-79177040D02*
X163748000Y-79177040D01*
X176224000Y-79337040D02*
X171440000Y-79337040D01*
X168560000Y-79897040D02*
X163906000Y-79897040D01*
X168560000Y-81377040D02*
X164532000Y-81377040D01*
X171984000Y-84217040D02*
X168016000Y-84217040D01*
X168560000Y-80497040D02*
X164107000Y-80497040D01*
X168560000Y-81657040D02*
X164704000Y-81657040D01*
X176137000Y-79737040D02*
X171440000Y-79737040D01*
X174489000Y-82657040D02*
X165511000Y-82657040D01*
X175662000Y-81017040D02*
X171440000Y-81017040D01*
X176146000Y-79697040D02*
X171440000Y-79697040D01*
X172100000Y-84177040D02*
X167900000Y-84177040D01*
X174102000Y-83017040D02*
X165898000Y-83017040D01*
X168560000Y-81937040D02*
X164898000Y-81937040D01*
X176258000Y-79137040D02*
X163742000Y-79137040D01*
X168560000Y-81737040D02*
X164757000Y-81737040D01*
X168560000Y-79777040D02*
X163874000Y-79777040D01*
X176275000Y-79017040D02*
X163725000Y-79017040D01*
X173208000Y-83657040D02*
X166792000Y-83657040D01*
X168560000Y-81617040D02*
X164678000Y-81617040D01*
X174194000Y-82937040D02*
X165806000Y-82937040D01*
X175491000Y-81337040D02*
X171440000Y-81337040D01*
X176231000Y-79297040D02*
X171440000Y-79297040D01*
X171861000Y-84257040D02*
X168139000Y-84257040D01*
X168560000Y-80097040D02*
X163966000Y-80097040D01*
X175893000Y-80497040D02*
X171440000Y-80497040D01*
X168560000Y-79537040D02*
X163816000Y-79537040D01*
X176330000Y-78256040D02*
X163670000Y-78256040D01*
X168560000Y-80457040D02*
X164092000Y-80457040D01*
X168560000Y-80217040D02*
X164005000Y-80217040D01*
X176166000Y-79617040D02*
X171440000Y-79617040D01*
X176318000Y-78576040D02*
X163682000Y-78576040D01*
X175739000Y-80857040D02*
X171440000Y-80857040D01*
X168560000Y-82057040D02*
X164988000Y-82057040D01*
X171028000Y-84457040D02*
X168972000Y-84457040D01*
X175908000Y-80457040D02*
X171440000Y-80457040D01*
X168560000Y-79617040D02*
X163834000Y-79617040D01*
X176238000Y-79257040D02*
X171440000Y-79257040D01*
X168560000Y-80297040D02*
X164033000Y-80297040D01*
X175131000Y-81897040D02*
X171440000Y-81897040D01*
X174007000Y-83097040D02*
X165993000Y-83097040D01*
X173464000Y-83497040D02*
X166536000Y-83497040D01*
X168560000Y-81897040D02*
X164869000Y-81897040D01*
X176330000Y-78216040D02*
X163670000Y-78216040D01*
X175160000Y-81857040D02*
X171440000Y-81857040D01*
X173907000Y-83177040D02*
X166093000Y-83177040D01*
X168560000Y-79737040D02*
X163863000Y-79737040D01*
X174238000Y-82897040D02*
X165762000Y-82897040D01*
X168560000Y-81097040D02*
X164378000Y-81097040D01*
X176201000Y-79457040D02*
X171440000Y-79457040D01*
X176306000Y-78736040D02*
X163694000Y-78736040D01*
X173583000Y-83417040D02*
X166417000Y-83417040D01*
X174950000Y-82137040D02*
X165050000Y-82137040D01*
X172594000Y-83977040D02*
X167406000Y-83977040D01*
X175702000Y-80937040D02*
X171440000Y-80937040D01*
X175995000Y-80217040D02*
X171440000Y-80217040D01*
X174982000Y-82097040D02*
X171440000Y-82097040D01*
X176327000Y-78376040D02*
X163673000Y-78376040D01*
X172681000Y-83937040D02*
X167319000Y-83937040D01*
X168560000Y-80577040D02*
X164139000Y-80577040D01*
X173750000Y-83297040D02*
X166250000Y-83297040D01*
X176245000Y-79217040D02*
X163755000Y-79217040D01*
X168560000Y-81177040D02*
X164420000Y-81177040D01*
X176320000Y-78536040D02*
X163680000Y-78536040D01*
X175776000Y-80777040D02*
X171440000Y-80777040D01*
X175012000Y-82057040D02*
X171440000Y-82057040D01*
X175102000Y-81937040D02*
X171440000Y-81937040D01*
X171583000Y-84337040D02*
X168417000Y-84337040D01*
X176047000Y-80057040D02*
X171440000Y-80057040D01*
X170317000Y-84537040D02*
X169683000Y-84537040D01*
X175073000Y-81977040D02*
X171440000Y-81977040D01*
X175347000Y-81577040D02*
X171440000Y-81577040D01*
X174750000Y-82377040D02*
X165250000Y-82377040D01*
X168560000Y-81297040D02*
X164486000Y-81297040D01*
X175536000Y-81257040D02*
X171440000Y-81257040D01*
X168560000Y-79857040D02*
X163895000Y-79857040D01*
X168560000Y-81137040D02*
X164399000Y-81137040D01*
X174055000Y-83057040D02*
X165945000Y-83057040D01*
X175811000Y-80697040D02*
X171440000Y-80697040D01*
X175243000Y-81737040D02*
X171440000Y-81737040D01*
X168560000Y-80937040D02*
X164298000Y-80937040D01*
X168560000Y-80737040D02*
X164207000Y-80737040D01*
X168560000Y-81337040D02*
X164509000Y-81337040D01*
X175296000Y-81657040D02*
X171440000Y-81657040D01*
X168560000Y-80177040D02*
X163992000Y-80177040D01*
X176264000Y-79097040D02*
X163736000Y-79097040D01*
X176034000Y-80097040D02*
X171440000Y-80097040D01*
X168560000Y-80977040D02*
X164318000Y-80977040D01*
X168560000Y-81817040D02*
X164812000Y-81817040D01*
X168560000Y-81057040D02*
X164358000Y-81057040D01*
X175622000Y-81097040D02*
X171440000Y-81097040D01*
X168560000Y-79417040D02*
X163791000Y-79417040D01*
X175270000Y-81697040D02*
X171440000Y-81697040D01*
X168560000Y-80857040D02*
X164261000Y-80857040D01*
X168560000Y-81457040D02*
X164579000Y-81457040D01*
X172764000Y-83897040D02*
X167236000Y-83897040D01*
X168560000Y-80337040D02*
X164047000Y-80337040D01*
X173069000Y-83737040D02*
X166931000Y-83737040D01*
X174528000Y-82617040D02*
X165472000Y-82617040D01*
X174642000Y-82497040D02*
X165358000Y-82497040D01*
X175445000Y-81417040D02*
X171440000Y-81417040D01*
X174282000Y-82857040D02*
X165718000Y-82857040D01*
X173640000Y-83377040D02*
X166360000Y-83377040D01*
X175981000Y-80257040D02*
X171440000Y-80257040D01*
X168560000Y-79937040D02*
X163917000Y-79937040D01*
X174200000Y-71983960D02*
X172950000Y-71983960D01*
X174325000Y-82817040D02*
X165675000Y-82817040D01*
X172996000Y-83777040D02*
X167004000Y-83777040D01*
X174408000Y-82737040D02*
X165592000Y-82737040D01*
X176071000Y-79977040D02*
X171440000Y-79977040D01*
X168560000Y-81497040D02*
X164603000Y-81497040D01*
X168560000Y-82097040D02*
X165018000Y-82097040D01*
X175372000Y-81537040D02*
X171440000Y-81537040D01*
X176330000Y-78176040D02*
X163670000Y-78176040D01*
X168560000Y-80377040D02*
X164061000Y-80377040D01*
X173524000Y-83457040D02*
X166476000Y-83457040D01*
X171728000Y-84297040D02*
X168272000Y-84297040D01*
X176269000Y-79057040D02*
X163731000Y-79057040D01*
X174852000Y-82257040D02*
X165148000Y-82257040D01*
X175216000Y-81777040D02*
X171440000Y-81777040D01*
X168560000Y-80017040D02*
X163941000Y-80017040D01*
X175188000Y-81817040D02*
X171440000Y-81817040D01*
X172209000Y-84137040D02*
X167791000Y-84137040D01*
X172312000Y-84097040D02*
X167688000Y-84097040D01*
X171422000Y-84377040D02*
X168578000Y-84377040D01*
X174819000Y-82297040D02*
X165181000Y-82297040D01*
X175580000Y-81177040D02*
X171440000Y-81177040D01*
X173696000Y-83337040D02*
X166304000Y-83337040D01*
X176116000Y-79817040D02*
X171440000Y-79817040D01*
X175397000Y-81497040D02*
X171440000Y-81497040D01*
X168560000Y-79457040D02*
X163799000Y-79457040D01*
X176328000Y-78336040D02*
X163672000Y-78336040D01*
X175953000Y-80337040D02*
X171440000Y-80337040D01*
X176094000Y-79897040D02*
X171440000Y-79897040D01*
X168560000Y-79977040D02*
X163929000Y-79977040D01*
X168560000Y-82017040D02*
X164957000Y-82017040D01*
X168560000Y-79497040D02*
X163808000Y-79497040D01*
X168560000Y-81017040D02*
X164338000Y-81017040D01*
X175642000Y-81057040D02*
X171440000Y-81057040D01*
X173275000Y-83617040D02*
X166725000Y-83617040D01*
X174605000Y-82537040D02*
X165395000Y-82537040D01*
X168560000Y-79257040D02*
X163762000Y-79257040D01*
X172844000Y-83857040D02*
X167156000Y-83857040D01*
X168560000Y-79377040D02*
X163784000Y-79377040D01*
X173140000Y-83697040D02*
X166860000Y-83697040D01*
X168560000Y-81217040D02*
X164442000Y-81217040D01*
X168560000Y-81857040D02*
X164840000Y-81857040D01*
X171241000Y-84417040D02*
X168759000Y-84417040D01*
X168560000Y-80537040D02*
X164123000Y-80537040D01*
X176175000Y-79577040D02*
X171440000Y-79577040D01*
X174918000Y-82177040D02*
X165082000Y-82177040D01*
X175877000Y-80537040D02*
X171440000Y-80537040D01*
X168560000Y-79817040D02*
X163884000Y-79817040D01*
X168560000Y-81417040D02*
X164555000Y-81417040D01*
X175721000Y-80897040D02*
X171440000Y-80897040D01*
X174678000Y-82457040D02*
X165322000Y-82457040D01*
X168560000Y-81977040D02*
X164927000Y-81977040D01*
X168560000Y-81697040D02*
X164730000Y-81697040D01*
X168560000Y-80257040D02*
X164019000Y-80257040D01*
X176302000Y-78776040D02*
X163698000Y-78776040D01*
X168560000Y-80897040D02*
X164279000Y-80897040D01*
X175601000Y-81137040D02*
X171440000Y-81137040D01*
X174567000Y-82577040D02*
X165433000Y-82577040D01*
X168560000Y-80657040D02*
X164172000Y-80657040D01*
X168560000Y-81257040D02*
X164464000Y-81257040D01*
X168560000Y-80417040D02*
X164076000Y-80417040D01*
X168560000Y-80057040D02*
X163953000Y-80057040D01*
X173402000Y-83537040D02*
X166598000Y-83537040D01*
X170757000Y-84497040D02*
X169243000Y-84497040D01*
X175421000Y-81457040D02*
X171440000Y-81457040D01*
X175682000Y-80977040D02*
X171440000Y-80977040D01*
X174148000Y-82977040D02*
X165852000Y-82977040D01*
X173856000Y-83217040D02*
X166144000Y-83217040D01*
X168560000Y-81777040D02*
X164784000Y-81777040D01*
X175468000Y-81377040D02*
X171440000Y-81377040D01*
X175861000Y-80577040D02*
X171440000Y-80577040D01*
X174449000Y-82697040D02*
X165551000Y-82697040D01*
X175845000Y-80617040D02*
X171440000Y-80617040D01*
X168560000Y-80697040D02*
X164189000Y-80697040D01*
X175924000Y-80417040D02*
X171440000Y-80417040D01*
X176370000Y-78176040D02*
G75*
G02*
X163630000Y-78176040I-6370000J0D01*
G01*
X163630000Y-78176040D02*
G75*
G02*
X176370000Y-78176040I6370000J0D01*
G01*
M02*
