M48
; DRILL file {KiCad 9.0.7} date 2026-03-27T01:08:36-0700
; FORMAT={-:-/ absolute / metric / decimal}
; #@! TF.CreationDate,2026-03-27T01:08:36-07:00
; #@! TF.GenerationSoftware,Kicad,Pcbnew,9.0.7
; #@! TF.FileFunction,Plated,1,2,PTH
FMAT,2
METRIC
; #@! TA.AperFunction,Plated,PTH,ViaDrill
T1C0.500
; #@! TA.AperFunction,Plated,PTH,ViaDrill
T2C0.800
; #@! TA.AperFunction,Plated,PTH,ViaDrill
T3C0.899
; #@! TA.AperFunction,Plated,PTH,ViaDrill
T4C0.950
; #@! TA.AperFunction,Plated,PTH,ViaDrill
T5C1.001
; #@! TA.AperFunction,Plated,PTH,ViaDrill
T6C1.100
; #@! TA.AperFunction,Plated,PTH,ViaDrill
T7C1.199
; #@! TA.AperFunction,Plated,PTH,ViaDrill
T8C1.699
; #@! TA.AperFunction,Plated,PTH,ViaDrill
T9C3.200
%
G90
G05
T1
X85.601Y-90.0
X86.304Y-88.303
X86.304Y-91.697
X88.001Y-87.6
X88.001Y-92.4
X89.698Y-88.303
X89.698Y-91.697
X90.401Y-90.0
X105.6Y-65.999
X106.304Y-64.303
X106.304Y-67.696
X108.001Y-63.599
X108.001Y-68.4
X109.698Y-64.303
X109.698Y-67.696
X110.401Y-65.999
X169.601Y-65.999
X169.601Y-90.0
X170.302Y-64.303
X170.302Y-67.696
X170.302Y-88.303
X170.302Y-91.697
X172.001Y-63.599
X172.001Y-68.4
X172.001Y-87.6
X172.001Y-92.4
X173.698Y-64.303
X173.698Y-67.696
X173.698Y-88.303
X173.698Y-91.697
X174.399Y-65.999
X174.399Y-90.0
T2
X93.18Y-70.919
X93.18Y-73.459
X93.18Y-75.999
X93.18Y-78.539
X93.18Y-81.079
X93.18Y-83.619
X93.18Y-86.159
X95.956Y-65.999
X97.955Y-65.999
X100.8Y-70.919
X100.8Y-73.459
X100.8Y-75.999
X100.8Y-78.539
X100.8Y-81.079
X100.8Y-83.619
X100.8Y-86.159
X105.001Y-73.5
X105.001Y-75.499
X106.5Y-85.499
X106.5Y-88.999
X112.954Y-74.501
X113.0Y-81.999
X115.494Y-74.501
X115.54Y-81.999
X140.0Y-66.5
X140.0Y-71.501
T3
X94.592Y-89.35
X94.592Y-92.649
X97.091Y-89.35
X97.091Y-92.649
X99.593Y-89.35
X99.593Y-92.649
T4
X85.999Y-75.999
X85.999Y-78.501
X85.999Y-81.001
T5
X85.999Y-67.501
X85.999Y-70.0
X140.401Y-77.5
X147.899Y-77.5
T6
X104.313Y-81.001
X108.123Y-81.001
X112.377Y-71.001
X112.377Y-85.499
X116.187Y-71.001
X116.187Y-85.499
X120.0Y-65.913
X120.0Y-68.453
X120.0Y-70.993
X120.081Y-80.391
X120.081Y-82.931
X120.081Y-85.471
T7
X131.501Y-66.675
X131.501Y-71.676
X160.0Y-66.675
X160.0Y-71.676
X170.0Y-75.677
X170.0Y-80.675
T8
X142.164Y-87.734
X146.126Y-87.734
X147.396Y-67.02
X147.396Y-70.98
T9
X88.001Y-90.0
X108.001Y-65.999
X172.001Y-65.999
X172.001Y-90.0
M30
