%TF.GenerationSoftware,KiCad,Pcbnew,9.0.7*%
%TF.CreationDate,2026-03-27T01:08:22-07:00*%
%TF.ProjectId,Class D Potencia,436c6173-7320-4442-9050-6f74656e6369,rev?*%
%TF.SameCoordinates,Original*%
%TF.FileFunction,Copper,L1,Top*%
%TF.FilePolarity,Positive*%
%FSLAX46Y46*%
G04 Gerber Fmt 4.6, Leading zero omitted, Abs format (unit mm)*
G04 Created by KiCad (PCBNEW 9.0.7) date 2026-03-27 01:08:22*
%MOMM*%
%LPD*%
G01*
G04 APERTURE LIST*
%TA.AperFunction,NonConductor*%
%ADD10C,0.400000*%
%TD*%
%TA.AperFunction,NonConductor*%
%ADD11C,3.200000*%
%TD*%
%TA.AperFunction,NonConductor*%
%ADD12C,0.800000*%
%TD*%
%TA.AperFunction,NonConductor*%
%ADD13C,0.000000*%
%TD*%
%TA.AperFunction,NonConductor*%
%ADD14C,1.200000*%
%TD*%
%TA.AperFunction,NonConductor*%
%ADD15C,1.000000*%
%TD*%
%TA.AperFunction,NonConductor*%
%ADD16C,1.100000*%
%TD*%
%TA.AperFunction,NonConductor*%
%ADD17C,0.700000*%
%TD*%
%TA.AperFunction,ViaPad*%
%ADD18C,0.500390*%
%TD*%
%TA.AperFunction,ViaPad*%
%ADD19C,0.800110*%
%TD*%
%TA.AperFunction,ViaPad*%
%ADD20C,0.899170*%
%TD*%
%TA.AperFunction,ViaPad*%
%ADD21C,0.949970*%
%TD*%
%TA.AperFunction,ViaPad*%
%ADD22C,1.000770*%
%TD*%
%TA.AperFunction,ViaPad*%
%ADD23C,1.099830*%
%TD*%
%TA.AperFunction,ViaPad*%
%ADD24C,1.198890*%
%TD*%
%TA.AperFunction,ViaPad*%
%ADD25C,1.699270*%
%TD*%
%TA.AperFunction,ViaPad*%
%ADD26C,3.200410*%
%TD*%
%TA.AperFunction,Conductor*%
%ADD27C,1.000000*%
%TD*%
G04 APERTURE END LIST*
D10*
X172200000Y-63600000D02*
G75*
G02*
X171800000Y-63600000I-200000J0D01*
G01*
X171800000Y-63600000D02*
G75*
G02*
X172200000Y-63600000I200000J0D01*
G01*
X173897060Y-67697060D02*
G75*
G02*
X173497060Y-67697060I-200000J0D01*
G01*
X173497060Y-67697060D02*
G75*
G02*
X173897060Y-67697060I200000J0D01*
G01*
X170502940Y-64302940D02*
G75*
G02*
X170102940Y-64302940I-200000J0D01*
G01*
X170102940Y-64302940D02*
G75*
G02*
X170502940Y-64302940I200000J0D01*
G01*
X170502940Y-67697060D02*
G75*
G02*
X170102940Y-67697060I-200000J0D01*
G01*
X170102940Y-67697060D02*
G75*
G02*
X170502940Y-67697060I200000J0D01*
G01*
X173897060Y-64302940D02*
G75*
G02*
X173497060Y-64302940I-200000J0D01*
G01*
X173497060Y-64302940D02*
G75*
G02*
X173897060Y-64302940I200000J0D01*
G01*
D11*
X173600000Y-66000000D02*
G75*
G02*
X170400000Y-66000000I-1600000J0D01*
G01*
X170400000Y-66000000D02*
G75*
G02*
X173600000Y-66000000I1600000J0D01*
G01*
D10*
X174600000Y-66000000D02*
G75*
G02*
X174200000Y-66000000I-200000J0D01*
G01*
X174200000Y-66000000D02*
G75*
G02*
X174600000Y-66000000I200000J0D01*
G01*
X172200000Y-68400000D02*
G75*
G02*
X171800000Y-68400000I-200000J0D01*
G01*
X171800000Y-68400000D02*
G75*
G02*
X172200000Y-68400000I200000J0D01*
G01*
X169800000Y-66000000D02*
G75*
G02*
X169400000Y-66000000I-200000J0D01*
G01*
X169400000Y-66000000D02*
G75*
G02*
X169800000Y-66000000I200000J0D01*
G01*
D12*
X113355000Y-74500000D02*
G75*
G02*
X112555000Y-74500000I-400000J0D01*
G01*
X112555000Y-74500000D02*
G75*
G02*
X113355000Y-74500000I400000J0D01*
G01*
X115895000Y-74500000D02*
G75*
G02*
X115095000Y-74500000I-400000J0D01*
G01*
X115095000Y-74500000D02*
G75*
G02*
X115895000Y-74500000I400000J0D01*
G01*
D13*
%TA.AperFunction,NonConductor*%
G36*
X121000000Y-66865500D02*
G01*
X119000000Y-66865500D01*
X119000000Y-64960500D01*
X121000000Y-64960500D01*
X121000000Y-66865500D01*
G37*
%TD.AperFunction*%
%TA.AperFunction,NonConductor*%
G36*
X120140860Y-67505090D02*
G01*
X120233320Y-67518800D01*
X120324000Y-67541510D01*
X120412010Y-67573000D01*
X120496510Y-67612970D01*
X120576680Y-67661030D01*
X120651760Y-67716710D01*
X120721020Y-67779480D01*
X120783790Y-67848740D01*
X120839470Y-67923820D01*
X120887530Y-68003990D01*
X120927500Y-68088490D01*
X120958990Y-68176500D01*
X120981700Y-68267180D01*
X120995410Y-68359640D01*
X121000000Y-68453000D01*
X120995410Y-68546360D01*
X120981700Y-68638820D01*
X120958990Y-68729500D01*
X120927500Y-68817510D01*
X120887530Y-68902010D01*
X120839470Y-68982180D01*
X120783790Y-69057260D01*
X120721020Y-69126520D01*
X120651760Y-69189290D01*
X120576680Y-69244970D01*
X120496510Y-69293030D01*
X120412010Y-69333000D01*
X120324000Y-69364490D01*
X120233320Y-69387200D01*
X120140860Y-69400910D01*
X120047500Y-69405500D01*
X119952500Y-69405500D01*
X119859140Y-69400910D01*
X119766680Y-69387200D01*
X119676000Y-69364490D01*
X119587990Y-69333000D01*
X119503490Y-69293030D01*
X119423320Y-69244970D01*
X119348240Y-69189290D01*
X119278980Y-69126520D01*
X119216210Y-69057260D01*
X119160530Y-68982180D01*
X119112470Y-68902010D01*
X119072500Y-68817510D01*
X119041010Y-68729500D01*
X119018300Y-68638820D01*
X119004590Y-68546360D01*
X119000000Y-68453000D01*
X119004590Y-68359640D01*
X119018300Y-68267180D01*
X119041010Y-68176500D01*
X119072500Y-68088490D01*
X119112470Y-68003990D01*
X119160530Y-67923820D01*
X119216210Y-67848740D01*
X119278980Y-67779480D01*
X119348240Y-67716710D01*
X119423320Y-67661030D01*
X119503490Y-67612970D01*
X119587990Y-67573000D01*
X119676000Y-67541510D01*
X119766680Y-67518800D01*
X119859140Y-67505090D01*
X119952500Y-67500500D01*
X120000000Y-67500500D01*
X120047500Y-67500500D01*
X120140860Y-67505090D01*
G37*
%TD.AperFunction*%
%TA.AperFunction,NonConductor*%
G36*
X120140860Y-70045090D02*
G01*
X120233320Y-70058800D01*
X120324000Y-70081510D01*
X120412010Y-70113000D01*
X120496510Y-70152970D01*
X120576680Y-70201030D01*
X120651760Y-70256710D01*
X120721020Y-70319480D01*
X120783790Y-70388740D01*
X120839470Y-70463820D01*
X120887530Y-70543990D01*
X120927500Y-70628490D01*
X120958990Y-70716500D01*
X120981700Y-70807180D01*
X120995410Y-70899640D01*
X121000000Y-70993000D01*
X120995410Y-71086360D01*
X120981700Y-71178820D01*
X120958990Y-71269500D01*
X120927500Y-71357510D01*
X120887530Y-71442010D01*
X120839470Y-71522180D01*
X120783790Y-71597260D01*
X120721020Y-71666520D01*
X120651760Y-71729290D01*
X120576680Y-71784970D01*
X120496510Y-71833030D01*
X120412010Y-71873000D01*
X120324000Y-71904490D01*
X120233320Y-71927200D01*
X120140860Y-71940910D01*
X120047500Y-71945500D01*
X119952500Y-71945500D01*
X119859140Y-71940910D01*
X119766680Y-71927200D01*
X119676000Y-71904490D01*
X119587990Y-71873000D01*
X119503490Y-71833030D01*
X119423320Y-71784970D01*
X119348240Y-71729290D01*
X119278980Y-71666520D01*
X119216210Y-71597260D01*
X119160530Y-71522180D01*
X119112470Y-71442010D01*
X119072500Y-71357510D01*
X119041010Y-71269500D01*
X119018300Y-71178820D01*
X119004590Y-71086360D01*
X119000000Y-70993000D01*
X119004590Y-70899640D01*
X119018300Y-70807180D01*
X119041010Y-70716500D01*
X119072500Y-70628490D01*
X119112470Y-70543990D01*
X119160530Y-70463820D01*
X119216210Y-70388740D01*
X119278980Y-70319480D01*
X119348240Y-70256710D01*
X119423320Y-70201030D01*
X119503490Y-70152970D01*
X119587990Y-70113000D01*
X119676000Y-70081510D01*
X119766680Y-70058800D01*
X119859140Y-70045090D01*
X119952500Y-70040500D01*
X120000000Y-70040500D01*
X120047500Y-70040500D01*
X120140860Y-70045090D01*
G37*
%TD.AperFunction*%
%TA.AperFunction,NonConductor*%
G36*
X132700000Y-67876040D02*
G01*
X130300000Y-67876040D01*
X130300000Y-65476040D01*
X132700000Y-65476040D01*
X132700000Y-67876040D01*
G37*
%TD.AperFunction*%
D14*
X132100000Y-71676040D02*
G75*
G02*
X130900000Y-71676040I-600000J0D01*
G01*
X130900000Y-71676040D02*
G75*
G02*
X132100000Y-71676040I600000J0D01*
G01*
D10*
X88200000Y-87600000D02*
G75*
G02*
X87800000Y-87600000I-200000J0D01*
G01*
X87800000Y-87600000D02*
G75*
G02*
X88200000Y-87600000I200000J0D01*
G01*
D11*
X89600000Y-90000000D02*
G75*
G02*
X86400000Y-90000000I-1600000J0D01*
G01*
X86400000Y-90000000D02*
G75*
G02*
X89600000Y-90000000I1600000J0D01*
G01*
D10*
X90600000Y-90000000D02*
G75*
G02*
X90200000Y-90000000I-200000J0D01*
G01*
X90200000Y-90000000D02*
G75*
G02*
X90600000Y-90000000I200000J0D01*
G01*
X86502940Y-91697060D02*
G75*
G02*
X86102940Y-91697060I-200000J0D01*
G01*
X86102940Y-91697060D02*
G75*
G02*
X86502940Y-91697060I200000J0D01*
G01*
X89897060Y-88302940D02*
G75*
G02*
X89497060Y-88302940I-200000J0D01*
G01*
X89497060Y-88302940D02*
G75*
G02*
X89897060Y-88302940I200000J0D01*
G01*
X86502940Y-88302940D02*
G75*
G02*
X86102940Y-88302940I-200000J0D01*
G01*
X86102940Y-88302940D02*
G75*
G02*
X86502940Y-88302940I200000J0D01*
G01*
X88200000Y-92400000D02*
G75*
G02*
X87800000Y-92400000I-200000J0D01*
G01*
X87800000Y-92400000D02*
G75*
G02*
X88200000Y-92400000I200000J0D01*
G01*
X89897060Y-91697060D02*
G75*
G02*
X89497060Y-91697060I-200000J0D01*
G01*
X89497060Y-91697060D02*
G75*
G02*
X89897060Y-91697060I200000J0D01*
G01*
X85800000Y-90000000D02*
G75*
G02*
X85400000Y-90000000I-200000J0D01*
G01*
X85400000Y-90000000D02*
G75*
G02*
X85800000Y-90000000I200000J0D01*
G01*
D13*
%TA.AperFunction,NonConductor*%
G36*
X158495000Y-93662500D02*
G01*
X155195000Y-93662500D01*
X155195000Y-90487500D01*
X158495000Y-90487500D01*
X158495000Y-93662500D01*
G37*
%TD.AperFunction*%
%TA.AperFunction,NonConductor*%
G36*
X158495000Y-82232500D02*
G01*
X155195000Y-82232500D01*
X155195000Y-79057500D01*
X158495000Y-79057500D01*
X158495000Y-82232500D01*
G37*
%TD.AperFunction*%
D15*
X140900000Y-77500000D02*
G75*
G02*
X139900000Y-77500000I-500000J0D01*
G01*
X139900000Y-77500000D02*
G75*
G02*
X140900000Y-77500000I500000J0D01*
G01*
X148400000Y-77500000D02*
G75*
G02*
X147400000Y-77500000I-500000J0D01*
G01*
X147400000Y-77500000D02*
G75*
G02*
X148400000Y-77500000I500000J0D01*
G01*
D13*
%TA.AperFunction,NonConductor*%
G36*
X161200000Y-67876040D02*
G01*
X158800000Y-67876040D01*
X158800000Y-65476040D01*
X161200000Y-65476040D01*
X161200000Y-67876040D01*
G37*
%TD.AperFunction*%
D14*
X160600000Y-71676040D02*
G75*
G02*
X159400000Y-71676040I-600000J0D01*
G01*
X159400000Y-71676040D02*
G75*
G02*
X160600000Y-71676040I600000J0D01*
G01*
D10*
X173897060Y-91697060D02*
G75*
G02*
X173497060Y-91697060I-200000J0D01*
G01*
X173497060Y-91697060D02*
G75*
G02*
X173897060Y-91697060I200000J0D01*
G01*
D11*
X173600000Y-90000000D02*
G75*
G02*
X170400000Y-90000000I-1600000J0D01*
G01*
X170400000Y-90000000D02*
G75*
G02*
X173600000Y-90000000I1600000J0D01*
G01*
D10*
X174600000Y-90000000D02*
G75*
G02*
X174200000Y-90000000I-200000J0D01*
G01*
X174200000Y-90000000D02*
G75*
G02*
X174600000Y-90000000I200000J0D01*
G01*
X170502940Y-88302940D02*
G75*
G02*
X170102940Y-88302940I-200000J0D01*
G01*
X170102940Y-88302940D02*
G75*
G02*
X170502940Y-88302940I200000J0D01*
G01*
X170502940Y-91697060D02*
G75*
G02*
X170102940Y-91697060I-200000J0D01*
G01*
X170102940Y-91697060D02*
G75*
G02*
X170502940Y-91697060I200000J0D01*
G01*
X169800000Y-90000000D02*
G75*
G02*
X169400000Y-90000000I-200000J0D01*
G01*
X169400000Y-90000000D02*
G75*
G02*
X169800000Y-90000000I200000J0D01*
G01*
X172200000Y-87600000D02*
G75*
G02*
X171800000Y-87600000I-200000J0D01*
G01*
X171800000Y-87600000D02*
G75*
G02*
X172200000Y-87600000I200000J0D01*
G01*
X173897060Y-88302940D02*
G75*
G02*
X173497060Y-88302940I-200000J0D01*
G01*
X173497060Y-88302940D02*
G75*
G02*
X173897060Y-88302940I200000J0D01*
G01*
X172200000Y-92400000D02*
G75*
G02*
X171800000Y-92400000I-200000J0D01*
G01*
X171800000Y-92400000D02*
G75*
G02*
X172200000Y-92400000I200000J0D01*
G01*
D13*
%TA.AperFunction,NonConductor*%
G36*
X86774500Y-69151200D02*
G01*
X86798770Y-69154800D01*
X86822570Y-69160760D01*
X86845670Y-69169030D01*
X86867850Y-69179520D01*
X86888890Y-69192130D01*
X86908600Y-69206750D01*
X86926780Y-69223220D01*
X86943250Y-69241400D01*
X86957870Y-69261110D01*
X86970480Y-69282150D01*
X86980970Y-69304330D01*
X86989240Y-69327430D01*
X86995200Y-69351230D01*
X86998800Y-69375500D01*
X87000000Y-69400000D01*
X87000000Y-70600000D01*
X86998800Y-70624500D01*
X86995200Y-70648770D01*
X86989240Y-70672570D01*
X86980970Y-70695670D01*
X86970480Y-70717850D01*
X86957870Y-70738890D01*
X86943250Y-70758600D01*
X86926780Y-70776780D01*
X86908600Y-70793250D01*
X86888890Y-70807870D01*
X86867850Y-70820480D01*
X86845670Y-70830970D01*
X86822570Y-70839240D01*
X86798770Y-70845200D01*
X86774500Y-70848800D01*
X86750000Y-70850000D01*
X85250000Y-70850000D01*
X85225500Y-70848800D01*
X85201230Y-70845200D01*
X85177430Y-70839240D01*
X85154330Y-70830970D01*
X85132150Y-70820480D01*
X85111110Y-70807870D01*
X85091400Y-70793250D01*
X85073220Y-70776780D01*
X85056750Y-70758600D01*
X85042130Y-70738890D01*
X85029520Y-70717850D01*
X85019030Y-70695670D01*
X85010760Y-70672570D01*
X85004800Y-70648770D01*
X85001200Y-70624500D01*
X85000000Y-70600000D01*
X85000000Y-69400000D01*
X85001200Y-69375500D01*
X85004800Y-69351230D01*
X85010760Y-69327430D01*
X85019030Y-69304330D01*
X85029520Y-69282150D01*
X85042130Y-69261110D01*
X85056750Y-69241400D01*
X85073220Y-69223220D01*
X85091400Y-69206750D01*
X85111110Y-69192130D01*
X85132150Y-69179520D01*
X85154330Y-69169030D01*
X85177430Y-69160760D01*
X85201230Y-69154800D01*
X85225500Y-69151200D01*
X85250000Y-69150000D01*
X86750000Y-69150000D01*
X86774500Y-69151200D01*
G37*
%TD.AperFunction*%
%TA.AperFunction,NonConductor*%
G36*
X86233310Y-66654090D02*
G01*
X86315830Y-66666330D01*
X86396740Y-66686600D01*
X86475280Y-66714700D01*
X86550690Y-66750370D01*
X86622230Y-66793250D01*
X86689230Y-66842940D01*
X86751040Y-66898960D01*
X86807060Y-66960770D01*
X86856750Y-67027770D01*
X86899630Y-67099310D01*
X86935300Y-67174720D01*
X86963400Y-67253260D01*
X86983670Y-67334170D01*
X86995910Y-67416690D01*
X87000000Y-67500000D01*
X86995910Y-67583310D01*
X86983670Y-67665830D01*
X86963400Y-67746740D01*
X86935300Y-67825280D01*
X86899630Y-67900690D01*
X86856750Y-67972230D01*
X86807060Y-68039230D01*
X86751040Y-68101040D01*
X86689230Y-68157060D01*
X86622230Y-68206750D01*
X86550690Y-68249630D01*
X86475280Y-68285300D01*
X86396740Y-68313400D01*
X86315830Y-68333670D01*
X86233310Y-68345910D01*
X86150000Y-68350000D01*
X85850000Y-68350000D01*
X85766690Y-68345910D01*
X85684170Y-68333670D01*
X85603260Y-68313400D01*
X85524720Y-68285300D01*
X85449310Y-68249630D01*
X85377770Y-68206750D01*
X85310770Y-68157060D01*
X85248960Y-68101040D01*
X85192940Y-68039230D01*
X85143250Y-67972230D01*
X85100370Y-67900690D01*
X85064700Y-67825280D01*
X85036600Y-67746740D01*
X85016330Y-67665830D01*
X85004090Y-67583310D01*
X85000000Y-67500000D01*
X85004090Y-67416690D01*
X85016330Y-67334170D01*
X85036600Y-67253260D01*
X85064700Y-67174720D01*
X85100370Y-67099310D01*
X85143250Y-67027770D01*
X85192940Y-66960770D01*
X85248960Y-66898960D01*
X85310770Y-66842940D01*
X85377770Y-66793250D01*
X85449310Y-66750370D01*
X85524720Y-66714700D01*
X85603260Y-66686600D01*
X85684170Y-66666330D01*
X85766690Y-66654090D01*
X85850000Y-66650000D01*
X86000000Y-66650000D01*
X86150000Y-66650000D01*
X86233310Y-66654090D01*
G37*
%TD.AperFunction*%
%TA.AperFunction,NonConductor*%
G36*
X98755110Y-66800000D02*
G01*
X97155110Y-66800000D01*
X97155110Y-65200000D01*
X98755110Y-65200000D01*
X98755110Y-66800000D01*
G37*
%TD.AperFunction*%
D12*
X96355110Y-66000000D02*
G75*
G02*
X95555110Y-66000000I-400000J0D01*
G01*
X95555110Y-66000000D02*
G75*
G02*
X96355110Y-66000000I400000J0D01*
G01*
D13*
%TA.AperFunction,NonConductor*%
G36*
X121080000Y-81343500D02*
G01*
X119080000Y-81343500D01*
X119080000Y-79438500D01*
X121080000Y-79438500D01*
X121080000Y-81343500D01*
G37*
%TD.AperFunction*%
%TA.AperFunction,NonConductor*%
G36*
X120220860Y-81983090D02*
G01*
X120313320Y-81996800D01*
X120404000Y-82019510D01*
X120492010Y-82051000D01*
X120576510Y-82090970D01*
X120656680Y-82139030D01*
X120731760Y-82194710D01*
X120801020Y-82257480D01*
X120863790Y-82326740D01*
X120919470Y-82401820D01*
X120967530Y-82481990D01*
X121007500Y-82566490D01*
X121038990Y-82654500D01*
X121061700Y-82745180D01*
X121075410Y-82837640D01*
X121080000Y-82931000D01*
X121075410Y-83024360D01*
X121061700Y-83116820D01*
X121038990Y-83207500D01*
X121007500Y-83295510D01*
X120967530Y-83380010D01*
X120919470Y-83460180D01*
X120863790Y-83535260D01*
X120801020Y-83604520D01*
X120731760Y-83667290D01*
X120656680Y-83722970D01*
X120576510Y-83771030D01*
X120492010Y-83811000D01*
X120404000Y-83842490D01*
X120313320Y-83865200D01*
X120220860Y-83878910D01*
X120127500Y-83883500D01*
X120032500Y-83883500D01*
X119939140Y-83878910D01*
X119846680Y-83865200D01*
X119756000Y-83842490D01*
X119667990Y-83811000D01*
X119583490Y-83771030D01*
X119503320Y-83722970D01*
X119428240Y-83667290D01*
X119358980Y-83604520D01*
X119296210Y-83535260D01*
X119240530Y-83460180D01*
X119192470Y-83380010D01*
X119152500Y-83295510D01*
X119121010Y-83207500D01*
X119098300Y-83116820D01*
X119084590Y-83024360D01*
X119080000Y-82931000D01*
X119084590Y-82837640D01*
X119098300Y-82745180D01*
X119121010Y-82654500D01*
X119152500Y-82566490D01*
X119192470Y-82481990D01*
X119240530Y-82401820D01*
X119296210Y-82326740D01*
X119358980Y-82257480D01*
X119428240Y-82194710D01*
X119503320Y-82139030D01*
X119583490Y-82090970D01*
X119667990Y-82051000D01*
X119756000Y-82019510D01*
X119846680Y-81996800D01*
X119939140Y-81983090D01*
X120032500Y-81978500D01*
X120080000Y-81978500D01*
X120127500Y-81978500D01*
X120220860Y-81983090D01*
G37*
%TD.AperFunction*%
%TA.AperFunction,NonConductor*%
G36*
X120220860Y-84523090D02*
G01*
X120313320Y-84536800D01*
X120404000Y-84559510D01*
X120492010Y-84591000D01*
X120576510Y-84630970D01*
X120656680Y-84679030D01*
X120731760Y-84734710D01*
X120801020Y-84797480D01*
X120863790Y-84866740D01*
X120919470Y-84941820D01*
X120967530Y-85021990D01*
X121007500Y-85106490D01*
X121038990Y-85194500D01*
X121061700Y-85285180D01*
X121075410Y-85377640D01*
X121080000Y-85471000D01*
X121075410Y-85564360D01*
X121061700Y-85656820D01*
X121038990Y-85747500D01*
X121007500Y-85835510D01*
X120967530Y-85920010D01*
X120919470Y-86000180D01*
X120863790Y-86075260D01*
X120801020Y-86144520D01*
X120731760Y-86207290D01*
X120656680Y-86262970D01*
X120576510Y-86311030D01*
X120492010Y-86351000D01*
X120404000Y-86382490D01*
X120313320Y-86405200D01*
X120220860Y-86418910D01*
X120127500Y-86423500D01*
X120032500Y-86423500D01*
X119939140Y-86418910D01*
X119846680Y-86405200D01*
X119756000Y-86382490D01*
X119667990Y-86351000D01*
X119583490Y-86311030D01*
X119503320Y-86262970D01*
X119428240Y-86207290D01*
X119358980Y-86144520D01*
X119296210Y-86075260D01*
X119240530Y-86000180D01*
X119192470Y-85920010D01*
X119152500Y-85835510D01*
X119121010Y-85747500D01*
X119098300Y-85656820D01*
X119084590Y-85564360D01*
X119080000Y-85471000D01*
X119084590Y-85377640D01*
X119098300Y-85285180D01*
X119121010Y-85194500D01*
X119152500Y-85106490D01*
X119192470Y-85021990D01*
X119240530Y-84941820D01*
X119296210Y-84866740D01*
X119358980Y-84797480D01*
X119428240Y-84734710D01*
X119503320Y-84679030D01*
X119583490Y-84630970D01*
X119667990Y-84591000D01*
X119756000Y-84559510D01*
X119846680Y-84536800D01*
X119939140Y-84523090D01*
X120032500Y-84518500D01*
X120080000Y-84518500D01*
X120127500Y-84518500D01*
X120220860Y-84523090D01*
G37*
%TD.AperFunction*%
%TA.AperFunction,NonConductor*%
G36*
X101600000Y-86960000D02*
G01*
X100000000Y-86960000D01*
X100000000Y-85360000D01*
X101600000Y-85360000D01*
X101600000Y-86960000D01*
G37*
%TD.AperFunction*%
D12*
X101200000Y-83620000D02*
G75*
G02*
X100400000Y-83620000I-400000J0D01*
G01*
X100400000Y-83620000D02*
G75*
G02*
X101200000Y-83620000I400000J0D01*
G01*
X101200000Y-81080000D02*
G75*
G02*
X100400000Y-81080000I-400000J0D01*
G01*
X100400000Y-81080000D02*
G75*
G02*
X101200000Y-81080000I400000J0D01*
G01*
X101200000Y-78540000D02*
G75*
G02*
X100400000Y-78540000I-400000J0D01*
G01*
X100400000Y-78540000D02*
G75*
G02*
X101200000Y-78540000I400000J0D01*
G01*
X101200000Y-76000000D02*
G75*
G02*
X100400000Y-76000000I-400000J0D01*
G01*
X100400000Y-76000000D02*
G75*
G02*
X101200000Y-76000000I400000J0D01*
G01*
X101200000Y-73460000D02*
G75*
G02*
X100400000Y-73460000I-400000J0D01*
G01*
X100400000Y-73460000D02*
G75*
G02*
X101200000Y-73460000I400000J0D01*
G01*
X101200000Y-70920000D02*
G75*
G02*
X100400000Y-70920000I-400000J0D01*
G01*
X100400000Y-70920000D02*
G75*
G02*
X101200000Y-70920000I400000J0D01*
G01*
X93580000Y-70920000D02*
G75*
G02*
X92780000Y-70920000I-400000J0D01*
G01*
X92780000Y-70920000D02*
G75*
G02*
X93580000Y-70920000I400000J0D01*
G01*
X93580000Y-73460000D02*
G75*
G02*
X92780000Y-73460000I-400000J0D01*
G01*
X92780000Y-73460000D02*
G75*
G02*
X93580000Y-73460000I400000J0D01*
G01*
X93580000Y-76000000D02*
G75*
G02*
X92780000Y-76000000I-400000J0D01*
G01*
X92780000Y-76000000D02*
G75*
G02*
X93580000Y-76000000I400000J0D01*
G01*
X93580000Y-78540000D02*
G75*
G02*
X92780000Y-78540000I-400000J0D01*
G01*
X92780000Y-78540000D02*
G75*
G02*
X93580000Y-78540000I400000J0D01*
G01*
X93580000Y-81080000D02*
G75*
G02*
X92780000Y-81080000I-400000J0D01*
G01*
X92780000Y-81080000D02*
G75*
G02*
X93580000Y-81080000I400000J0D01*
G01*
X93580000Y-83620000D02*
G75*
G02*
X92780000Y-83620000I-400000J0D01*
G01*
X92780000Y-83620000D02*
G75*
G02*
X93580000Y-83620000I400000J0D01*
G01*
X93580000Y-86160000D02*
G75*
G02*
X92780000Y-86160000I-400000J0D01*
G01*
X92780000Y-86160000D02*
G75*
G02*
X93580000Y-86160000I400000J0D01*
G01*
D13*
%TA.AperFunction,NonConductor*%
G36*
X113477180Y-72100000D02*
G01*
X111277180Y-72100000D01*
X111277180Y-69900000D01*
X113477180Y-69900000D01*
X113477180Y-72100000D01*
G37*
%TD.AperFunction*%
D16*
X116737180Y-71000000D02*
G75*
G02*
X115637180Y-71000000I-550000J0D01*
G01*
X115637180Y-71000000D02*
G75*
G02*
X116737180Y-71000000I550000J0D01*
G01*
D12*
X140400000Y-71500000D02*
G75*
G02*
X139600000Y-71500000I-400000J0D01*
G01*
X139600000Y-71500000D02*
G75*
G02*
X140400000Y-71500000I400000J0D01*
G01*
X140400000Y-66500000D02*
G75*
G02*
X139600000Y-66500000I-400000J0D01*
G01*
X139600000Y-66500000D02*
G75*
G02*
X140400000Y-66500000I400000J0D01*
G01*
D13*
%TA.AperFunction,NonConductor*%
G36*
X86749500Y-80151200D02*
G01*
X86773770Y-80154800D01*
X86797570Y-80160760D01*
X86820670Y-80169030D01*
X86842850Y-80179520D01*
X86863890Y-80192130D01*
X86883600Y-80206750D01*
X86901780Y-80223220D01*
X86918250Y-80241400D01*
X86932870Y-80261110D01*
X86945480Y-80282150D01*
X86955970Y-80304330D01*
X86964240Y-80327430D01*
X86970200Y-80351230D01*
X86973800Y-80375500D01*
X86975000Y-80400000D01*
X86975000Y-81600000D01*
X86973800Y-81624500D01*
X86970200Y-81648770D01*
X86964240Y-81672570D01*
X86955970Y-81695670D01*
X86945480Y-81717850D01*
X86932870Y-81738890D01*
X86918250Y-81758600D01*
X86901780Y-81776780D01*
X86883600Y-81793250D01*
X86863890Y-81807870D01*
X86842850Y-81820480D01*
X86820670Y-81830970D01*
X86797570Y-81839240D01*
X86773770Y-81845200D01*
X86749500Y-81848800D01*
X86725000Y-81850000D01*
X85275000Y-81850000D01*
X85250500Y-81848800D01*
X85226230Y-81845200D01*
X85202430Y-81839240D01*
X85179330Y-81830970D01*
X85157150Y-81820480D01*
X85136110Y-81807870D01*
X85116400Y-81793250D01*
X85098220Y-81776780D01*
X85081750Y-81758600D01*
X85067130Y-81738890D01*
X85054520Y-81717850D01*
X85044030Y-81695670D01*
X85035760Y-81672570D01*
X85029800Y-81648770D01*
X85026200Y-81624500D01*
X85025000Y-81600000D01*
X85025000Y-80400000D01*
X85026200Y-80375500D01*
X85029800Y-80351230D01*
X85035760Y-80327430D01*
X85044030Y-80304330D01*
X85054520Y-80282150D01*
X85067130Y-80261110D01*
X85081750Y-80241400D01*
X85098220Y-80223220D01*
X85116400Y-80206750D01*
X85136110Y-80192130D01*
X85157150Y-80179520D01*
X85179330Y-80169030D01*
X85202430Y-80160760D01*
X85226230Y-80154800D01*
X85250500Y-80151200D01*
X85275000Y-80150000D01*
X86725000Y-80150000D01*
X86749500Y-80151200D01*
G37*
%TD.AperFunction*%
%TA.AperFunction,NonConductor*%
G36*
X86208310Y-77654090D02*
G01*
X86290830Y-77666330D01*
X86371740Y-77686600D01*
X86450280Y-77714700D01*
X86525690Y-77750370D01*
X86597230Y-77793250D01*
X86664230Y-77842940D01*
X86726040Y-77898960D01*
X86782060Y-77960770D01*
X86831750Y-78027770D01*
X86874630Y-78099310D01*
X86910300Y-78174720D01*
X86938400Y-78253260D01*
X86958670Y-78334170D01*
X86970910Y-78416690D01*
X86975000Y-78500000D01*
X86970910Y-78583310D01*
X86958670Y-78665830D01*
X86938400Y-78746740D01*
X86910300Y-78825280D01*
X86874630Y-78900690D01*
X86831750Y-78972230D01*
X86782060Y-79039230D01*
X86726040Y-79101040D01*
X86664230Y-79157060D01*
X86597230Y-79206750D01*
X86525690Y-79249630D01*
X86450280Y-79285300D01*
X86371740Y-79313400D01*
X86290830Y-79333670D01*
X86208310Y-79345910D01*
X86125000Y-79350000D01*
X85875000Y-79350000D01*
X85791690Y-79345910D01*
X85709170Y-79333670D01*
X85628260Y-79313400D01*
X85549720Y-79285300D01*
X85474310Y-79249630D01*
X85402770Y-79206750D01*
X85335770Y-79157060D01*
X85273960Y-79101040D01*
X85217940Y-79039230D01*
X85168250Y-78972230D01*
X85125370Y-78900690D01*
X85089700Y-78825280D01*
X85061600Y-78746740D01*
X85041330Y-78665830D01*
X85029090Y-78583310D01*
X85025000Y-78500000D01*
X85029090Y-78416690D01*
X85041330Y-78334170D01*
X85061600Y-78253260D01*
X85089700Y-78174720D01*
X85125370Y-78099310D01*
X85168250Y-78027770D01*
X85217940Y-77960770D01*
X85273960Y-77898960D01*
X85335770Y-77842940D01*
X85402770Y-77793250D01*
X85474310Y-77750370D01*
X85549720Y-77714700D01*
X85628260Y-77686600D01*
X85709170Y-77666330D01*
X85791690Y-77654090D01*
X85875000Y-77650000D01*
X86000000Y-77650000D01*
X86125000Y-77650000D01*
X86208310Y-77654090D01*
G37*
%TD.AperFunction*%
%TA.AperFunction,NonConductor*%
G36*
X86208310Y-75154090D02*
G01*
X86290830Y-75166330D01*
X86371740Y-75186600D01*
X86450280Y-75214700D01*
X86525690Y-75250370D01*
X86597230Y-75293250D01*
X86664230Y-75342940D01*
X86726040Y-75398960D01*
X86782060Y-75460770D01*
X86831750Y-75527770D01*
X86874630Y-75599310D01*
X86910300Y-75674720D01*
X86938400Y-75753260D01*
X86958670Y-75834170D01*
X86970910Y-75916690D01*
X86975000Y-76000000D01*
X86970910Y-76083310D01*
X86958670Y-76165830D01*
X86938400Y-76246740D01*
X86910300Y-76325280D01*
X86874630Y-76400690D01*
X86831750Y-76472230D01*
X86782060Y-76539230D01*
X86726040Y-76601040D01*
X86664230Y-76657060D01*
X86597230Y-76706750D01*
X86525690Y-76749630D01*
X86450280Y-76785300D01*
X86371740Y-76813400D01*
X86290830Y-76833670D01*
X86208310Y-76845910D01*
X86125000Y-76850000D01*
X85875000Y-76850000D01*
X85791690Y-76845910D01*
X85709170Y-76833670D01*
X85628260Y-76813400D01*
X85549720Y-76785300D01*
X85474310Y-76749630D01*
X85402770Y-76706750D01*
X85335770Y-76657060D01*
X85273960Y-76601040D01*
X85217940Y-76539230D01*
X85168250Y-76472230D01*
X85125370Y-76400690D01*
X85089700Y-76325280D01*
X85061600Y-76246740D01*
X85041330Y-76165830D01*
X85029090Y-76083310D01*
X85025000Y-76000000D01*
X85029090Y-75916690D01*
X85041330Y-75834170D01*
X85061600Y-75753260D01*
X85089700Y-75674720D01*
X85125370Y-75599310D01*
X85168250Y-75527770D01*
X85217940Y-75460770D01*
X85273960Y-75398960D01*
X85335770Y-75342940D01*
X85402770Y-75293250D01*
X85474310Y-75250370D01*
X85549720Y-75214700D01*
X85628260Y-75186600D01*
X85709170Y-75166330D01*
X85791690Y-75154090D01*
X85875000Y-75150000D01*
X86000000Y-75150000D01*
X86125000Y-75150000D01*
X86208310Y-75154090D01*
G37*
%TD.AperFunction*%
%TA.AperFunction,NonConductor*%
G36*
X143519500Y-85686200D02*
G01*
X143543770Y-85689800D01*
X143567570Y-85695760D01*
X143590670Y-85704030D01*
X143612850Y-85714520D01*
X143633890Y-85727130D01*
X143653600Y-85741750D01*
X143671780Y-85758220D01*
X143688250Y-85776400D01*
X143702870Y-85796110D01*
X143715480Y-85817150D01*
X143725970Y-85839330D01*
X143734240Y-85862430D01*
X143740200Y-85886230D01*
X143743800Y-85910500D01*
X143745000Y-85935000D01*
X143745000Y-89535000D01*
X143743800Y-89559500D01*
X143740200Y-89583770D01*
X143734240Y-89607570D01*
X143725970Y-89630670D01*
X143715480Y-89652850D01*
X143702870Y-89673890D01*
X143688250Y-89693600D01*
X143671780Y-89711780D01*
X143653600Y-89728250D01*
X143633890Y-89742870D01*
X143612850Y-89755480D01*
X143590670Y-89765970D01*
X143567570Y-89774240D01*
X143543770Y-89780200D01*
X143519500Y-89783800D01*
X143495000Y-89785000D01*
X140835000Y-89785000D01*
X140810500Y-89783800D01*
X140786230Y-89780200D01*
X140762430Y-89774240D01*
X140739330Y-89765970D01*
X140717150Y-89755480D01*
X140696110Y-89742870D01*
X140676400Y-89728250D01*
X140658220Y-89711780D01*
X140641750Y-89693600D01*
X140627130Y-89673890D01*
X140614520Y-89652850D01*
X140604030Y-89630670D01*
X140595760Y-89607570D01*
X140589800Y-89583770D01*
X140586200Y-89559500D01*
X140585000Y-89535000D01*
X140585000Y-85935000D01*
X140586200Y-85910500D01*
X140589800Y-85886230D01*
X140595760Y-85862430D01*
X140604030Y-85839330D01*
X140614520Y-85817150D01*
X140627130Y-85796110D01*
X140641750Y-85776400D01*
X140658220Y-85758220D01*
X140676400Y-85741750D01*
X140696110Y-85727130D01*
X140717150Y-85714520D01*
X140739330Y-85704030D01*
X140762430Y-85695760D01*
X140786230Y-85689800D01*
X140810500Y-85686200D01*
X140835000Y-85685000D01*
X143495000Y-85685000D01*
X143519500Y-85686200D01*
G37*
%TD.AperFunction*%
%TA.AperFunction,NonConductor*%
G36*
X146279870Y-85692610D02*
G01*
X146433240Y-85715360D01*
X146583650Y-85753030D01*
X146729640Y-85805270D01*
X146869810Y-85871560D01*
X147002800Y-85951280D01*
X147127340Y-86043640D01*
X147242230Y-86147770D01*
X147346360Y-86262660D01*
X147438720Y-86387200D01*
X147518440Y-86520190D01*
X147584730Y-86660360D01*
X147636970Y-86806350D01*
X147674640Y-86956760D01*
X147697390Y-87110130D01*
X147705000Y-87265000D01*
X147705000Y-87735000D01*
X147705000Y-88205000D01*
X147697390Y-88359870D01*
X147674640Y-88513240D01*
X147636970Y-88663650D01*
X147584730Y-88809640D01*
X147518440Y-88949810D01*
X147438720Y-89082800D01*
X147346360Y-89207340D01*
X147242230Y-89322230D01*
X147127340Y-89426360D01*
X147002800Y-89518720D01*
X146869810Y-89598440D01*
X146729640Y-89664730D01*
X146583650Y-89716970D01*
X146433240Y-89754640D01*
X146279870Y-89777390D01*
X146125000Y-89785000D01*
X145970130Y-89777390D01*
X145816760Y-89754640D01*
X145666350Y-89716970D01*
X145520360Y-89664730D01*
X145380190Y-89598440D01*
X145247200Y-89518720D01*
X145122660Y-89426360D01*
X145007770Y-89322230D01*
X144903640Y-89207340D01*
X144811280Y-89082800D01*
X144731560Y-88949810D01*
X144665270Y-88809640D01*
X144613030Y-88663650D01*
X144575360Y-88513240D01*
X144552610Y-88359870D01*
X144545000Y-88205000D01*
X144545000Y-87265000D01*
X144552610Y-87110130D01*
X144575360Y-86956760D01*
X144613030Y-86806350D01*
X144665270Y-86660360D01*
X144731560Y-86520190D01*
X144811280Y-86387200D01*
X144903640Y-86262660D01*
X145007770Y-86147770D01*
X145122660Y-86043640D01*
X145247200Y-85951280D01*
X145380190Y-85871560D01*
X145520360Y-85805270D01*
X145666350Y-85753030D01*
X145816760Y-85715360D01*
X145970130Y-85692610D01*
X146125000Y-85685000D01*
X146279870Y-85692610D01*
G37*
%TD.AperFunction*%
%TA.AperFunction,NonConductor*%
G36*
X95292500Y-90050000D02*
G01*
X93892500Y-90050000D01*
X93892500Y-88650000D01*
X95292500Y-88650000D01*
X95292500Y-90050000D01*
G37*
%TD.AperFunction*%
D17*
X97442500Y-89350000D02*
G75*
G02*
X96742500Y-89350000I-350000J0D01*
G01*
X96742500Y-89350000D02*
G75*
G02*
X97442500Y-89350000I350000J0D01*
G01*
X99942500Y-89350000D02*
G75*
G02*
X99242500Y-89350000I-350000J0D01*
G01*
X99242500Y-89350000D02*
G75*
G02*
X99942500Y-89350000I350000J0D01*
G01*
X94942500Y-92650000D02*
G75*
G02*
X94242500Y-92650000I-350000J0D01*
G01*
X94242500Y-92650000D02*
G75*
G02*
X94942500Y-92650000I350000J0D01*
G01*
X97442500Y-92650000D02*
G75*
G02*
X96742500Y-92650000I-350000J0D01*
G01*
X96742500Y-92650000D02*
G75*
G02*
X97442500Y-92650000I350000J0D01*
G01*
X99942500Y-92650000D02*
G75*
G02*
X99242500Y-92650000I-350000J0D01*
G01*
X99242500Y-92650000D02*
G75*
G02*
X99942500Y-92650000I350000J0D01*
G01*
D13*
%TA.AperFunction,NonConductor*%
G36*
X133095000Y-82232500D02*
G01*
X129795000Y-82232500D01*
X129795000Y-79057500D01*
X133095000Y-79057500D01*
X133095000Y-82232500D01*
G37*
%TD.AperFunction*%
%TA.AperFunction,NonConductor*%
G36*
X133095000Y-93662500D02*
G01*
X129795000Y-93662500D01*
X129795000Y-90487500D01*
X133095000Y-90487500D01*
X133095000Y-93662500D01*
G37*
%TD.AperFunction*%
%TA.AperFunction,NonConductor*%
G36*
X149219500Y-65441200D02*
G01*
X149243770Y-65444800D01*
X149267570Y-65450760D01*
X149290670Y-65459030D01*
X149312850Y-65469520D01*
X149333890Y-65482130D01*
X149353600Y-65496750D01*
X149371780Y-65513220D01*
X149388250Y-65531400D01*
X149402870Y-65551110D01*
X149415480Y-65572150D01*
X149425970Y-65594330D01*
X149434240Y-65617430D01*
X149440200Y-65641230D01*
X149443800Y-65665500D01*
X149445000Y-65690000D01*
X149445000Y-68350000D01*
X149443800Y-68374500D01*
X149440200Y-68398770D01*
X149434240Y-68422570D01*
X149425970Y-68445670D01*
X149415480Y-68467850D01*
X149402870Y-68488890D01*
X149388250Y-68508600D01*
X149371780Y-68526780D01*
X149353600Y-68543250D01*
X149333890Y-68557870D01*
X149312850Y-68570480D01*
X149290670Y-68580970D01*
X149267570Y-68589240D01*
X149243770Y-68595200D01*
X149219500Y-68598800D01*
X149195000Y-68600000D01*
X145595000Y-68600000D01*
X145570500Y-68598800D01*
X145546230Y-68595200D01*
X145522430Y-68589240D01*
X145499330Y-68580970D01*
X145477150Y-68570480D01*
X145456110Y-68557870D01*
X145436400Y-68543250D01*
X145418220Y-68526780D01*
X145401750Y-68508600D01*
X145387130Y-68488890D01*
X145374520Y-68467850D01*
X145364030Y-68445670D01*
X145355760Y-68422570D01*
X145349800Y-68398770D01*
X145346200Y-68374500D01*
X145345000Y-68350000D01*
X145345000Y-65690000D01*
X145346200Y-65665500D01*
X145349800Y-65641230D01*
X145355760Y-65617430D01*
X145364030Y-65594330D01*
X145374520Y-65572150D01*
X145387130Y-65551110D01*
X145401750Y-65531400D01*
X145418220Y-65513220D01*
X145436400Y-65496750D01*
X145456110Y-65482130D01*
X145477150Y-65469520D01*
X145499330Y-65459030D01*
X145522430Y-65450760D01*
X145546230Y-65444800D01*
X145570500Y-65441200D01*
X145595000Y-65440000D01*
X149195000Y-65440000D01*
X149219500Y-65441200D01*
G37*
%TD.AperFunction*%
%TA.AperFunction,NonConductor*%
G36*
X148019870Y-69407610D02*
G01*
X148173240Y-69430360D01*
X148323650Y-69468030D01*
X148469640Y-69520270D01*
X148609810Y-69586560D01*
X148742800Y-69666280D01*
X148867340Y-69758640D01*
X148982230Y-69862770D01*
X149086360Y-69977660D01*
X149178720Y-70102200D01*
X149258440Y-70235190D01*
X149324730Y-70375360D01*
X149376970Y-70521350D01*
X149414640Y-70671760D01*
X149437390Y-70825130D01*
X149445000Y-70980000D01*
X149437390Y-71134870D01*
X149414640Y-71288240D01*
X149376970Y-71438650D01*
X149324730Y-71584640D01*
X149258440Y-71724810D01*
X149178720Y-71857800D01*
X149086360Y-71982340D01*
X148982230Y-72097230D01*
X148867340Y-72201360D01*
X148742800Y-72293720D01*
X148609810Y-72373440D01*
X148469640Y-72439730D01*
X148323650Y-72491970D01*
X148173240Y-72529640D01*
X148019870Y-72552390D01*
X147865000Y-72560000D01*
X146925000Y-72560000D01*
X146770130Y-72552390D01*
X146616760Y-72529640D01*
X146466350Y-72491970D01*
X146320360Y-72439730D01*
X146180190Y-72373440D01*
X146047200Y-72293720D01*
X145922660Y-72201360D01*
X145807770Y-72097230D01*
X145703640Y-71982340D01*
X145611280Y-71857800D01*
X145531560Y-71724810D01*
X145465270Y-71584640D01*
X145413030Y-71438650D01*
X145375360Y-71288240D01*
X145352610Y-71134870D01*
X145345000Y-70980000D01*
X145352610Y-70825130D01*
X145375360Y-70671760D01*
X145413030Y-70521350D01*
X145465270Y-70375360D01*
X145531560Y-70235190D01*
X145611280Y-70102200D01*
X145703640Y-69977660D01*
X145807770Y-69862770D01*
X145922660Y-69758640D01*
X146047200Y-69666280D01*
X146180190Y-69586560D01*
X146320360Y-69520270D01*
X146466350Y-69468030D01*
X146616760Y-69430360D01*
X146770130Y-69407610D01*
X146925000Y-69400000D01*
X147395000Y-69400000D01*
X147865000Y-69400000D01*
X148019870Y-69407610D01*
G37*
%TD.AperFunction*%
D12*
X113400000Y-82000000D02*
G75*
G02*
X112600000Y-82000000I-400000J0D01*
G01*
X112600000Y-82000000D02*
G75*
G02*
X113400000Y-82000000I400000J0D01*
G01*
X115940000Y-82000000D02*
G75*
G02*
X115140000Y-82000000I-400000J0D01*
G01*
X115140000Y-82000000D02*
G75*
G02*
X115940000Y-82000000I400000J0D01*
G01*
D13*
%TA.AperFunction,NonConductor*%
G36*
X109222820Y-82100000D02*
G01*
X107022820Y-82100000D01*
X107022820Y-79900000D01*
X109222820Y-79900000D01*
X109222820Y-82100000D01*
G37*
%TD.AperFunction*%
D16*
X104862820Y-81000000D02*
G75*
G02*
X103762820Y-81000000I-550000J0D01*
G01*
X103762820Y-81000000D02*
G75*
G02*
X104862820Y-81000000I550000J0D01*
G01*
D13*
%TA.AperFunction,NonConductor*%
G36*
X107300000Y-86300000D02*
G01*
X105700000Y-86300000D01*
X105700000Y-84700000D01*
X107300000Y-84700000D01*
X107300000Y-86300000D01*
G37*
%TD.AperFunction*%
D12*
X106900000Y-89000000D02*
G75*
G02*
X106100000Y-89000000I-400000J0D01*
G01*
X106100000Y-89000000D02*
G75*
G02*
X106900000Y-89000000I400000J0D01*
G01*
D13*
%TA.AperFunction,NonConductor*%
G36*
X113477180Y-86600000D02*
G01*
X111277180Y-86600000D01*
X111277180Y-84400000D01*
X113477180Y-84400000D01*
X113477180Y-86600000D01*
G37*
%TD.AperFunction*%
D16*
X116737180Y-85500000D02*
G75*
G02*
X115637180Y-85500000I-550000J0D01*
G01*
X115637180Y-85500000D02*
G75*
G02*
X116737180Y-85500000I550000J0D01*
G01*
D10*
X106502940Y-64302940D02*
G75*
G02*
X106102940Y-64302940I-200000J0D01*
G01*
X106102940Y-64302940D02*
G75*
G02*
X106502940Y-64302940I200000J0D01*
G01*
X110600000Y-66000000D02*
G75*
G02*
X110200000Y-66000000I-200000J0D01*
G01*
X110200000Y-66000000D02*
G75*
G02*
X110600000Y-66000000I200000J0D01*
G01*
X108200000Y-68400000D02*
G75*
G02*
X107800000Y-68400000I-200000J0D01*
G01*
X107800000Y-68400000D02*
G75*
G02*
X108200000Y-68400000I200000J0D01*
G01*
X109897060Y-67697060D02*
G75*
G02*
X109497060Y-67697060I-200000J0D01*
G01*
X109497060Y-67697060D02*
G75*
G02*
X109897060Y-67697060I200000J0D01*
G01*
X109897060Y-64302940D02*
G75*
G02*
X109497060Y-64302940I-200000J0D01*
G01*
X109497060Y-64302940D02*
G75*
G02*
X109897060Y-64302940I200000J0D01*
G01*
X108200000Y-63600000D02*
G75*
G02*
X107800000Y-63600000I-200000J0D01*
G01*
X107800000Y-63600000D02*
G75*
G02*
X108200000Y-63600000I200000J0D01*
G01*
X106502940Y-67697060D02*
G75*
G02*
X106102940Y-67697060I-200000J0D01*
G01*
X106102940Y-67697060D02*
G75*
G02*
X106502940Y-67697060I200000J0D01*
G01*
D11*
X109600000Y-66000000D02*
G75*
G02*
X106400000Y-66000000I-1600000J0D01*
G01*
X106400000Y-66000000D02*
G75*
G02*
X109600000Y-66000000I1600000J0D01*
G01*
D10*
X105800000Y-66000000D02*
G75*
G02*
X105400000Y-66000000I-200000J0D01*
G01*
X105400000Y-66000000D02*
G75*
G02*
X105800000Y-66000000I200000J0D01*
G01*
D13*
%TA.AperFunction,NonConductor*%
G36*
X105800000Y-74300000D02*
G01*
X104200000Y-74300000D01*
X104200000Y-72700000D01*
X105800000Y-72700000D01*
X105800000Y-74300000D01*
G37*
%TD.AperFunction*%
D12*
X105400000Y-75500000D02*
G75*
G02*
X104600000Y-75500000I-400000J0D01*
G01*
X104600000Y-75500000D02*
G75*
G02*
X105400000Y-75500000I400000J0D01*
G01*
D13*
%TA.AperFunction,NonConductor*%
G36*
X171200000Y-76876040D02*
G01*
X168800000Y-76876040D01*
X168800000Y-74476040D01*
X171200000Y-74476040D01*
X171200000Y-76876040D01*
G37*
%TD.AperFunction*%
D14*
X170600000Y-80676040D02*
G75*
G02*
X169400000Y-80676040I-600000J0D01*
G01*
X169400000Y-80676040D02*
G75*
G02*
X170600000Y-80676040I600000J0D01*
G01*
D13*
%TA.AperFunction,NonConductor*%
G36*
X164015930Y-69520000D02*
G01*
X164036910Y-69536910D01*
X164463100Y-69963100D01*
X164497120Y-70025410D01*
X164500000Y-70052190D01*
X164500000Y-72500000D01*
X165500000Y-73500000D01*
X171447810Y-73500000D01*
X171515930Y-73520000D01*
X171536910Y-73536910D01*
X171963100Y-73963100D01*
X171997120Y-74025410D01*
X172000000Y-74052190D01*
X172000000Y-76947810D01*
X171980000Y-77015930D01*
X171963100Y-77036910D01*
X171536910Y-77463100D01*
X171474590Y-77497120D01*
X171447810Y-77500000D01*
X161000000Y-77500000D01*
X160000000Y-78500000D01*
X160000000Y-81447810D01*
X159980000Y-81515930D01*
X159963100Y-81536910D01*
X159036910Y-82463100D01*
X158974590Y-82497120D01*
X158947810Y-82500000D01*
X155126000Y-82500000D01*
X155057880Y-82480000D01*
X155011390Y-82426340D01*
X155000000Y-82374000D01*
X155000000Y-70052190D01*
X155020000Y-69984070D01*
X155036910Y-69963100D01*
X155463100Y-69536910D01*
X155525410Y-69502880D01*
X155552190Y-69500000D01*
X163947810Y-69500000D01*
X164015930Y-69520000D01*
G37*
%TD.AperFunction*%
%TA.AperFunction,NonConductor*%
G36*
X112192120Y-61420500D02*
G01*
X112238610Y-61474160D01*
X112250000Y-61526500D01*
X112250000Y-69373500D01*
X112230000Y-69441620D01*
X112176340Y-69488120D01*
X112124000Y-69499500D01*
X111245670Y-69499500D01*
X111240770Y-69500280D01*
X111161680Y-69512800D01*
X111151880Y-69514350D01*
X111038840Y-69571950D01*
X110949130Y-69661660D01*
X110891540Y-69774700D01*
X110876680Y-69868480D01*
X110876680Y-72131520D01*
X110877460Y-72136410D01*
X110882050Y-72165370D01*
X110891540Y-72225300D01*
X110949130Y-72338340D01*
X111038840Y-72428050D01*
X111151880Y-72485650D01*
X111161670Y-72487200D01*
X111189030Y-72491530D01*
X111245660Y-72500500D01*
X112124000Y-72500500D01*
X112192120Y-72520500D01*
X112238610Y-72574160D01*
X112250000Y-72626500D01*
X112250000Y-73464320D01*
X112230000Y-73532440D01*
X112207080Y-73559050D01*
X112080460Y-73670090D01*
X111943860Y-73843360D01*
X111841130Y-74038620D01*
X111775700Y-74249330D01*
X111749770Y-74468440D01*
X111764200Y-74688600D01*
X111765620Y-74694200D01*
X111765620Y-74694210D01*
X111810280Y-74870050D01*
X111818510Y-74902450D01*
X111820930Y-74907690D01*
X111820930Y-74907700D01*
X111826270Y-74919290D01*
X111910880Y-75102820D01*
X112038220Y-75283000D01*
X112196260Y-75436960D01*
X112201070Y-75440170D01*
X112203290Y-75441970D01*
X112243650Y-75500390D01*
X112250000Y-75539890D01*
X112250000Y-81003780D01*
X112230000Y-81071900D01*
X112207080Y-81098510D01*
X112125460Y-81170090D01*
X111988860Y-81343360D01*
X111886130Y-81538620D01*
X111820700Y-81749330D01*
X111794770Y-81968440D01*
X111809200Y-82188600D01*
X111810620Y-82194200D01*
X111810620Y-82194210D01*
X111851240Y-82354130D01*
X111863510Y-82402450D01*
X111865930Y-82407690D01*
X111865930Y-82407700D01*
X111894350Y-82469340D01*
X111955880Y-82602820D01*
X112083220Y-82783000D01*
X112154580Y-82852520D01*
X112211920Y-82908380D01*
X112246760Y-82970240D01*
X112250000Y-82998630D01*
X112250000Y-83873500D01*
X112230000Y-83941620D01*
X112176340Y-83988120D01*
X112124000Y-83999500D01*
X111245670Y-83999500D01*
X111240770Y-84000280D01*
X111161680Y-84012800D01*
X111151880Y-84014350D01*
X111038840Y-84071950D01*
X110949130Y-84161660D01*
X110891540Y-84274700D01*
X110889990Y-84284490D01*
X110887070Y-84302880D01*
X110876680Y-84368480D01*
X110876680Y-86631520D01*
X110891540Y-86725300D01*
X110949130Y-86838340D01*
X111038840Y-86928050D01*
X111151880Y-86985650D01*
X111161670Y-86987200D01*
X111188950Y-86991520D01*
X111245660Y-87000500D01*
X112124000Y-87000500D01*
X112192120Y-87020500D01*
X112238610Y-87074160D01*
X112250000Y-87126500D01*
X112250000Y-94473500D01*
X112230000Y-94541620D01*
X112176340Y-94588110D01*
X112124000Y-94599500D01*
X88041440Y-94599500D01*
X88021730Y-94597950D01*
X88009790Y-94596060D01*
X88000000Y-94594510D01*
X87990210Y-94596060D01*
X87987830Y-94596440D01*
X87962620Y-94597870D01*
X87604620Y-94582240D01*
X87593670Y-94581280D01*
X87206750Y-94530340D01*
X87195930Y-94528430D01*
X86814930Y-94443970D01*
X86804320Y-94441120D01*
X86432120Y-94323770D01*
X86421810Y-94320020D01*
X86061230Y-94170660D01*
X86051300Y-94166030D01*
X85705120Y-93985820D01*
X85695610Y-93980330D01*
X85366470Y-93770640D01*
X85357470Y-93764340D01*
X85047860Y-93526770D01*
X85039440Y-93519710D01*
X84937470Y-93426270D01*
X84751710Y-93256050D01*
X84743950Y-93248280D01*
X84697290Y-93197360D01*
X84533780Y-93018930D01*
X84480290Y-92960560D01*
X84473230Y-92952140D01*
X84235660Y-92642530D01*
X84229360Y-92633530D01*
X84019670Y-92304390D01*
X84014180Y-92294880D01*
X83833970Y-91948700D01*
X83829330Y-91938760D01*
X83819530Y-91915090D01*
X83679980Y-91578190D01*
X83676230Y-91567870D01*
X83671210Y-91551970D01*
X83558880Y-91195680D01*
X83556030Y-91185070D01*
X83471570Y-90804070D01*
X83469660Y-90793250D01*
X83418720Y-90406330D01*
X83417760Y-90395380D01*
X83408540Y-90184140D01*
X83402130Y-90037380D01*
X83403560Y-90012170D01*
X83403940Y-90009790D01*
X83405490Y-90000000D01*
X84394560Y-90000000D01*
X84414310Y-90376870D01*
X84414820Y-90380110D01*
X84414820Y-90380120D01*
X84441990Y-90551650D01*
X84473350Y-90749610D01*
X84571020Y-91114140D01*
X84706270Y-91466470D01*
X84707760Y-91469410D01*
X84864540Y-91777090D01*
X84877600Y-91802720D01*
X84879390Y-91805490D01*
X84879400Y-91805490D01*
X84972410Y-91948720D01*
X85083140Y-92119230D01*
X85320640Y-92412510D01*
X85587490Y-92679370D01*
X85880780Y-92916860D01*
X86197280Y-93122400D01*
X86200210Y-93123900D01*
X86200220Y-93123900D01*
X86444330Y-93248280D01*
X86533540Y-93293730D01*
X86885860Y-93428980D01*
X87250390Y-93526650D01*
X87442910Y-93557150D01*
X87619880Y-93585180D01*
X87619890Y-93585180D01*
X87623130Y-93585690D01*
X88000000Y-93605440D01*
X88376870Y-93585690D01*
X88380110Y-93585180D01*
X88380120Y-93585180D01*
X88557090Y-93557150D01*
X88749610Y-93526650D01*
X89114140Y-93428980D01*
X89466470Y-93293730D01*
X89555670Y-93248280D01*
X89799780Y-93123900D01*
X89799790Y-93123900D01*
X89802720Y-93122400D01*
X90119230Y-92916860D01*
X90412510Y-92679370D01*
X90470810Y-92621070D01*
X93487660Y-92621070D01*
X93500890Y-92822890D01*
X93550680Y-93018930D01*
X93635360Y-93202610D01*
X93638690Y-93207320D01*
X93700600Y-93294920D01*
X93752090Y-93367780D01*
X93896970Y-93508910D01*
X94065140Y-93621280D01*
X94070440Y-93623560D01*
X94157090Y-93660790D01*
X94250970Y-93701120D01*
X94448240Y-93745760D01*
X94454010Y-93745990D01*
X94530180Y-93748980D01*
X94650340Y-93753700D01*
X94736630Y-93741190D01*
X94844790Y-93725510D01*
X94850510Y-93724680D01*
X94855980Y-93722820D01*
X95036570Y-93661520D01*
X95042030Y-93659660D01*
X95218500Y-93560840D01*
X95280930Y-93508910D01*
X95369570Y-93435190D01*
X95374010Y-93431510D01*
X95503340Y-93276000D01*
X95602160Y-93099530D01*
X95667180Y-92908010D01*
X95668010Y-92902290D01*
X95695670Y-92711520D01*
X95696200Y-92707840D01*
X95697720Y-92650000D01*
X95695060Y-92621070D01*
X95987660Y-92621070D01*
X96000890Y-92822890D01*
X96050680Y-93018930D01*
X96135360Y-93202610D01*
X96138690Y-93207320D01*
X96200600Y-93294920D01*
X96252090Y-93367780D01*
X96396970Y-93508910D01*
X96565140Y-93621280D01*
X96570440Y-93623560D01*
X96657090Y-93660790D01*
X96750970Y-93701120D01*
X96948240Y-93745760D01*
X96954010Y-93745990D01*
X97030180Y-93748980D01*
X97150340Y-93753700D01*
X97236630Y-93741190D01*
X97344790Y-93725510D01*
X97350510Y-93724680D01*
X97355980Y-93722820D01*
X97536570Y-93661520D01*
X97542030Y-93659660D01*
X97718500Y-93560840D01*
X97780930Y-93508910D01*
X97869570Y-93435190D01*
X97874010Y-93431510D01*
X98003340Y-93276000D01*
X98102160Y-93099530D01*
X98167180Y-92908010D01*
X98168010Y-92902290D01*
X98195670Y-92711520D01*
X98196200Y-92707840D01*
X98197720Y-92650000D01*
X98195060Y-92621070D01*
X98487660Y-92621070D01*
X98500890Y-92822890D01*
X98550680Y-93018930D01*
X98635360Y-93202610D01*
X98638690Y-93207320D01*
X98700600Y-93294920D01*
X98752090Y-93367780D01*
X98896970Y-93508910D01*
X99065140Y-93621280D01*
X99070440Y-93623560D01*
X99157090Y-93660790D01*
X99250970Y-93701120D01*
X99448240Y-93745760D01*
X99454010Y-93745990D01*
X99530180Y-93748980D01*
X99650340Y-93753700D01*
X99736630Y-93741190D01*
X99844790Y-93725510D01*
X99850510Y-93724680D01*
X99855980Y-93722820D01*
X100036570Y-93661520D01*
X100042030Y-93659660D01*
X100218500Y-93560840D01*
X100280930Y-93508910D01*
X100369570Y-93435190D01*
X100374010Y-93431510D01*
X100503340Y-93276000D01*
X100602160Y-93099530D01*
X100667180Y-92908010D01*
X100668010Y-92902290D01*
X100695670Y-92711520D01*
X100696200Y-92707840D01*
X100697720Y-92650000D01*
X100679210Y-92448590D01*
X100669030Y-92412510D01*
X100625880Y-92259490D01*
X100624310Y-92253930D01*
X100534850Y-92072530D01*
X100516580Y-92048060D01*
X100417290Y-91915090D01*
X100413840Y-91910470D01*
X100390850Y-91889220D01*
X100269550Y-91777090D01*
X100265310Y-91773170D01*
X100236570Y-91755040D01*
X100099140Y-91668330D01*
X100094260Y-91665250D01*
X99906400Y-91590300D01*
X99708030Y-91550840D01*
X99702250Y-91550760D01*
X99599760Y-91549420D01*
X99505790Y-91548190D01*
X99500090Y-91549170D01*
X99312150Y-91581470D01*
X99306450Y-91582440D01*
X99116690Y-91652450D01*
X98942870Y-91755860D01*
X98790810Y-91889220D01*
X98665590Y-92048060D01*
X98571410Y-92227050D01*
X98520240Y-92391870D01*
X98513830Y-92412510D01*
X98511440Y-92420210D01*
X98487660Y-92621070D01*
X98195060Y-92621070D01*
X98179210Y-92448590D01*
X98169030Y-92412510D01*
X98125880Y-92259490D01*
X98124310Y-92253930D01*
X98034850Y-92072530D01*
X98016580Y-92048060D01*
X97917290Y-91915090D01*
X97913840Y-91910470D01*
X97890850Y-91889220D01*
X97769550Y-91777090D01*
X97765310Y-91773170D01*
X97736570Y-91755040D01*
X97599140Y-91668330D01*
X97594260Y-91665250D01*
X97406400Y-91590300D01*
X97208030Y-91550840D01*
X97202250Y-91550760D01*
X97099760Y-91549420D01*
X97005790Y-91548190D01*
X97000090Y-91549170D01*
X96812150Y-91581470D01*
X96806450Y-91582440D01*
X96616690Y-91652450D01*
X96442870Y-91755860D01*
X96290810Y-91889220D01*
X96165590Y-92048060D01*
X96071410Y-92227050D01*
X96020240Y-92391870D01*
X96013830Y-92412510D01*
X96011440Y-92420210D01*
X95987660Y-92621070D01*
X95695060Y-92621070D01*
X95679210Y-92448590D01*
X95669030Y-92412510D01*
X95625880Y-92259490D01*
X95624310Y-92253930D01*
X95534850Y-92072530D01*
X95516580Y-92048060D01*
X95417290Y-91915090D01*
X95413840Y-91910470D01*
X95390850Y-91889220D01*
X95269550Y-91777090D01*
X95265310Y-91773170D01*
X95236570Y-91755040D01*
X95099140Y-91668330D01*
X95094260Y-91665250D01*
X94906400Y-91590300D01*
X94708030Y-91550840D01*
X94702250Y-91550760D01*
X94599760Y-91549420D01*
X94505790Y-91548190D01*
X94500090Y-91549170D01*
X94312150Y-91581470D01*
X94306450Y-91582440D01*
X94116690Y-91652450D01*
X93942870Y-91755860D01*
X93790810Y-91889220D01*
X93665590Y-92048060D01*
X93571410Y-92227050D01*
X93520240Y-92391870D01*
X93513830Y-92412510D01*
X93511440Y-92420210D01*
X93487660Y-92621070D01*
X90470810Y-92621070D01*
X90679370Y-92412510D01*
X90916860Y-92119230D01*
X91027590Y-91948720D01*
X91120610Y-91805490D01*
X91122400Y-91802720D01*
X91135460Y-91777090D01*
X91292240Y-91469410D01*
X91293730Y-91466470D01*
X91428980Y-91114140D01*
X91526650Y-90749610D01*
X91558010Y-90551650D01*
X91585180Y-90380120D01*
X91585180Y-90380110D01*
X91585690Y-90376870D01*
X91601168Y-90081520D01*
X93492000Y-90081520D01*
X93492780Y-90086410D01*
X93502520Y-90147910D01*
X93506850Y-90175300D01*
X93564450Y-90288340D01*
X93654160Y-90378050D01*
X93767200Y-90435650D01*
X93776990Y-90437200D01*
X93804350Y-90441530D01*
X93860980Y-90450500D01*
X94592350Y-90450500D01*
X95324020Y-90450500D01*
X95350210Y-90446350D01*
X95408010Y-90437200D01*
X95417800Y-90435650D01*
X95530840Y-90378050D01*
X95620550Y-90288340D01*
X95678150Y-90175300D01*
X95693000Y-90081520D01*
X95693000Y-88618480D01*
X95684170Y-88562750D01*
X95679700Y-88534490D01*
X95678150Y-88524700D01*
X95620550Y-88411660D01*
X95530840Y-88321950D01*
X95417800Y-88264350D01*
X95408020Y-88262800D01*
X95408010Y-88262800D01*
X95380650Y-88258470D01*
X95324020Y-88249500D01*
X94592650Y-88249500D01*
X93860980Y-88249500D01*
X93856090Y-88250280D01*
X93776990Y-88262800D01*
X93767200Y-88264350D01*
X93654160Y-88321950D01*
X93564450Y-88411660D01*
X93506850Y-88524700D01*
X93492000Y-88618480D01*
X93492000Y-90081520D01*
X91601168Y-90081520D01*
X91605440Y-90000000D01*
X91585690Y-89623130D01*
X91570700Y-89528500D01*
X91558010Y-89448350D01*
X91526650Y-89250390D01*
X91428980Y-88885860D01*
X91326340Y-88618480D01*
X91293730Y-88533540D01*
X91236140Y-88420490D01*
X91123900Y-88200220D01*
X91123900Y-88200210D01*
X91122400Y-88197280D01*
X91072270Y-88120070D01*
X90918670Y-87883550D01*
X90916860Y-87880780D01*
X90679370Y-87587490D01*
X90412510Y-87320640D01*
X90119230Y-87083140D01*
X89903440Y-86943000D01*
X89805490Y-86879400D01*
X89805490Y-86879390D01*
X89802720Y-86877600D01*
X89799790Y-86876100D01*
X89799780Y-86876100D01*
X89469410Y-86707760D01*
X89466470Y-86706270D01*
X89114140Y-86571020D01*
X88749610Y-86473350D01*
X88551650Y-86441990D01*
X88380120Y-86414820D01*
X88380110Y-86414820D01*
X88376870Y-86414310D01*
X88000000Y-86394560D01*
X87623130Y-86414310D01*
X87619890Y-86414820D01*
X87619880Y-86414820D01*
X87448350Y-86441990D01*
X87250390Y-86473350D01*
X86885860Y-86571020D01*
X86533540Y-86706270D01*
X86530600Y-86707760D01*
X86200220Y-86876100D01*
X86200210Y-86876100D01*
X86197280Y-86877600D01*
X86194510Y-86879390D01*
X86194510Y-86879400D01*
X86029490Y-86986560D01*
X85880780Y-87083140D01*
X85587490Y-87320640D01*
X85320640Y-87587490D01*
X85083140Y-87880780D01*
X85081340Y-87883550D01*
X84927740Y-88120070D01*
X84877600Y-88197280D01*
X84876100Y-88200210D01*
X84876100Y-88200220D01*
X84763870Y-88420490D01*
X84706270Y-88533540D01*
X84571020Y-88885860D01*
X84473350Y-89250390D01*
X84441990Y-89448350D01*
X84429300Y-89528500D01*
X84414310Y-89623130D01*
X84394560Y-90000000D01*
X83405490Y-90000000D01*
X83402050Y-89978270D01*
X83400500Y-89958560D01*
X83400500Y-86128440D01*
X83400500Y-78539440D01*
X83400500Y-76039440D01*
X84620070Y-76039440D01*
X84646880Y-76261040D01*
X84712520Y-76474400D01*
X84814900Y-76672760D01*
X84818310Y-76677200D01*
X84818310Y-76677210D01*
X84902580Y-76787030D01*
X84950790Y-76849850D01*
X85115890Y-77000090D01*
X85304990Y-77118710D01*
X85310200Y-77120800D01*
X85310210Y-77120810D01*
X85343130Y-77134040D01*
X85398880Y-77178010D01*
X85422000Y-77245130D01*
X85405170Y-77314100D01*
X85350380Y-77364670D01*
X85235870Y-77419290D01*
X85054600Y-77549550D01*
X85040000Y-77564610D01*
X84903500Y-77705470D01*
X84899250Y-77709850D01*
X84774750Y-77895130D01*
X84772490Y-77900280D01*
X84755290Y-77939460D01*
X84685030Y-78099530D01*
X84683720Y-78104980D01*
X84640780Y-78283820D01*
X84632920Y-78316590D01*
X84620070Y-78539440D01*
X84646880Y-78761040D01*
X84712520Y-78974400D01*
X84814900Y-79172760D01*
X84818310Y-79177200D01*
X84818310Y-79177210D01*
X84904980Y-79290150D01*
X84950790Y-79349850D01*
X85115890Y-79500090D01*
X85163430Y-79529910D01*
X85170640Y-79534430D01*
X85217720Y-79587570D01*
X85228590Y-79657730D01*
X85199810Y-79722630D01*
X85138840Y-79762160D01*
X85022220Y-79796040D01*
X85022210Y-79796050D01*
X85014600Y-79798260D01*
X85007780Y-79802290D01*
X84895860Y-79868480D01*
X84873140Y-79881920D01*
X84756920Y-79998140D01*
X84752890Y-80004960D01*
X84680460Y-80127420D01*
X84673260Y-80139600D01*
X84671050Y-80147210D01*
X84671040Y-80147220D01*
X84664540Y-80169610D01*
X84627400Y-80297430D01*
X84626900Y-80303850D01*
X84624690Y-80331850D01*
X84624690Y-80331860D01*
X84624500Y-80334310D01*
X84624500Y-81665690D01*
X84624690Y-81668140D01*
X84624690Y-81668150D01*
X84625440Y-81677580D01*
X84627400Y-81702570D01*
X84673260Y-81860400D01*
X84677290Y-81867220D01*
X84752890Y-81995040D01*
X84756920Y-82001870D01*
X84873140Y-82118080D01*
X84879960Y-82122120D01*
X84913280Y-82141820D01*
X85014600Y-82201740D01*
X85022210Y-82203960D01*
X85022220Y-82203960D01*
X85106920Y-82228560D01*
X85172430Y-82247600D01*
X85185580Y-82248630D01*
X85206850Y-82250310D01*
X85206860Y-82250310D01*
X85209310Y-82250500D01*
X86790690Y-82250500D01*
X86793140Y-82250310D01*
X86793150Y-82250310D01*
X86814420Y-82248630D01*
X86827570Y-82247600D01*
X86893080Y-82228560D01*
X86977790Y-82203960D01*
X86985400Y-82201740D01*
X87086730Y-82141820D01*
X87120040Y-82122120D01*
X87126870Y-82118080D01*
X87243080Y-82001870D01*
X87247120Y-81995040D01*
X87322710Y-81867220D01*
X87326740Y-81860400D01*
X87372600Y-81702570D01*
X87374570Y-81677580D01*
X87375310Y-81668150D01*
X87375310Y-81668140D01*
X87375500Y-81665690D01*
X87375500Y-80334310D01*
X87375310Y-80331860D01*
X87375310Y-80331850D01*
X87373100Y-80303850D01*
X87372600Y-80297430D01*
X87335460Y-80169610D01*
X87328960Y-80147220D01*
X87328960Y-80147210D01*
X87326740Y-80139600D01*
X87319540Y-80127420D01*
X87247120Y-80004960D01*
X87243080Y-79998140D01*
X87126870Y-79881920D01*
X87104140Y-79868480D01*
X86992220Y-79802290D01*
X86985400Y-79798260D01*
X86977790Y-79796050D01*
X86977790Y-79796040D01*
X86938010Y-79784490D01*
X86860880Y-79762080D01*
X86801040Y-79723870D01*
X86771370Y-79659370D01*
X86781270Y-79589070D01*
X86822510Y-79538760D01*
X86940840Y-79453730D01*
X86940850Y-79453720D01*
X86945410Y-79450450D01*
X87068910Y-79323000D01*
X87096850Y-79294170D01*
X87100750Y-79290150D01*
X87225250Y-79104870D01*
X87314970Y-78900470D01*
X87316280Y-78895020D01*
X87365780Y-78688870D01*
X87367090Y-78683420D01*
X87379930Y-78460560D01*
X87353120Y-78238960D01*
X87287480Y-78025600D01*
X87185100Y-77827240D01*
X87181690Y-77822800D01*
X87052620Y-77654590D01*
X87049210Y-77650150D01*
X86884110Y-77499910D01*
X86695010Y-77381290D01*
X86689800Y-77379200D01*
X86689790Y-77379200D01*
X86656870Y-77365960D01*
X86601120Y-77321990D01*
X86578000Y-77254870D01*
X86594840Y-77185900D01*
X86649620Y-77135330D01*
X86684460Y-77118710D01*
X86764130Y-77080710D01*
X86945410Y-76950450D01*
X87100750Y-76790150D01*
X87225250Y-76604870D01*
X87314970Y-76400470D01*
X87316280Y-76395020D01*
X87365780Y-76188870D01*
X87367090Y-76183420D01*
X87378220Y-75990380D01*
X87379480Y-75968440D01*
X91974770Y-75968440D01*
X91989200Y-76188600D01*
X91990620Y-76194200D01*
X91990620Y-76194210D01*
X92014200Y-76287030D01*
X92043510Y-76402450D01*
X92045930Y-76407690D01*
X92045930Y-76407700D01*
X92083830Y-76489910D01*
X92135880Y-76602820D01*
X92263220Y-76783000D01*
X92421260Y-76936960D01*
X92426060Y-76940170D01*
X92520200Y-77003070D01*
X92604720Y-77059540D01*
X92610020Y-77061820D01*
X92802130Y-77144360D01*
X92807440Y-77146640D01*
X92813070Y-77147910D01*
X92814480Y-77148230D01*
X92815080Y-77148560D01*
X92818560Y-77149690D01*
X92818340Y-77150380D01*
X92876510Y-77182770D01*
X92910020Y-77245370D01*
X92904360Y-77316140D01*
X92861340Y-77372620D01*
X92830290Y-77389340D01*
X92666380Y-77449800D01*
X92666370Y-77449810D01*
X92660960Y-77451800D01*
X92656000Y-77454760D01*
X92580090Y-77499910D01*
X92471340Y-77564610D01*
X92305460Y-77710090D01*
X92168860Y-77883360D01*
X92066130Y-78078620D01*
X92000700Y-78289330D01*
X91974770Y-78508440D01*
X91989200Y-78728600D01*
X91990620Y-78734200D01*
X91990620Y-78734210D01*
X92031460Y-78895020D01*
X92043510Y-78942450D01*
X92045930Y-78947690D01*
X92045930Y-78947700D01*
X92084050Y-79030380D01*
X92135880Y-79142820D01*
X92263220Y-79323000D01*
X92421260Y-79476960D01*
X92426060Y-79480170D01*
X92572230Y-79577830D01*
X92604720Y-79599540D01*
X92610020Y-79601820D01*
X92743980Y-79659370D01*
X92807440Y-79686640D01*
X92813070Y-79687910D01*
X92814480Y-79688230D01*
X92815080Y-79688560D01*
X92818560Y-79689690D01*
X92818340Y-79690380D01*
X92876510Y-79722770D01*
X92910020Y-79785370D01*
X92904360Y-79856140D01*
X92861340Y-79912620D01*
X92830290Y-79929340D01*
X92666380Y-79989800D01*
X92666370Y-79989810D01*
X92660960Y-79991800D01*
X92656000Y-79994760D01*
X92638850Y-80004960D01*
X92471340Y-80104610D01*
X92305460Y-80250090D01*
X92168860Y-80423360D01*
X92066130Y-80618620D01*
X92000700Y-80829330D01*
X91974770Y-81048440D01*
X91989200Y-81268600D01*
X91990620Y-81274200D01*
X91990620Y-81274210D01*
X92014970Y-81370050D01*
X92043510Y-81482450D01*
X92045930Y-81487690D01*
X92045930Y-81487700D01*
X92082920Y-81567940D01*
X92135880Y-81682820D01*
X92263220Y-81863000D01*
X92421260Y-82016960D01*
X92426060Y-82020170D01*
X92510260Y-82076430D01*
X92604720Y-82139540D01*
X92610020Y-82141820D01*
X92781550Y-82215510D01*
X92807440Y-82226640D01*
X92813070Y-82227910D01*
X92814480Y-82228230D01*
X92815080Y-82228560D01*
X92818560Y-82229690D01*
X92818340Y-82230380D01*
X92876510Y-82262770D01*
X92910020Y-82325370D01*
X92904360Y-82396140D01*
X92861340Y-82452620D01*
X92830290Y-82469340D01*
X92666380Y-82529800D01*
X92666370Y-82529810D01*
X92660960Y-82531800D01*
X92656000Y-82534760D01*
X92533660Y-82607540D01*
X92471340Y-82644610D01*
X92305460Y-82790090D01*
X92168860Y-82963360D01*
X92066130Y-83158620D01*
X92000700Y-83369330D01*
X91974770Y-83588440D01*
X91989200Y-83808600D01*
X91990620Y-83814200D01*
X91990620Y-83814210D01*
X92034790Y-83988120D01*
X92043510Y-84022450D01*
X92045930Y-84027690D01*
X92045930Y-84027700D01*
X92084050Y-84110380D01*
X92135880Y-84222820D01*
X92263220Y-84403000D01*
X92421260Y-84556960D01*
X92426060Y-84560170D01*
X92510260Y-84616430D01*
X92604720Y-84679540D01*
X92610020Y-84681820D01*
X92798980Y-84763000D01*
X92807440Y-84766640D01*
X92813070Y-84767910D01*
X92814480Y-84768230D01*
X92815080Y-84768560D01*
X92818560Y-84769690D01*
X92818340Y-84770380D01*
X92876510Y-84802770D01*
X92910020Y-84865370D01*
X92904360Y-84936140D01*
X92861340Y-84992620D01*
X92830290Y-85009340D01*
X92666380Y-85069800D01*
X92666370Y-85069810D01*
X92660960Y-85071800D01*
X92656000Y-85074760D01*
X92588950Y-85114650D01*
X92471340Y-85184610D01*
X92305460Y-85330090D01*
X92168860Y-85503360D01*
X92066130Y-85698620D01*
X92000700Y-85909330D01*
X91974770Y-86128440D01*
X91989200Y-86348600D01*
X91990620Y-86354200D01*
X91990620Y-86354210D01*
X92020750Y-86472830D01*
X92043510Y-86562450D01*
X92045930Y-86567690D01*
X92045930Y-86567700D01*
X92084050Y-86650380D01*
X92135880Y-86762820D01*
X92263220Y-86943000D01*
X92421260Y-87096960D01*
X92426060Y-87100170D01*
X92559770Y-87189510D01*
X92604720Y-87219540D01*
X92610020Y-87221820D01*
X92764180Y-87288050D01*
X92807440Y-87306640D01*
X92860090Y-87318550D01*
X93017000Y-87354050D01*
X93017000Y-87354060D01*
X93022630Y-87355330D01*
X93028400Y-87355560D01*
X93028410Y-87355560D01*
X93096210Y-87358220D01*
X93243100Y-87363990D01*
X93369620Y-87345650D01*
X93455740Y-87333160D01*
X93461450Y-87332330D01*
X93466920Y-87330480D01*
X93664910Y-87263270D01*
X93670380Y-87261410D01*
X93862880Y-87153600D01*
X93895470Y-87126500D01*
X94028090Y-87016200D01*
X94032520Y-87012520D01*
X94143240Y-86879400D01*
X94169910Y-86847330D01*
X94169910Y-86847320D01*
X94173600Y-86842880D01*
X94281410Y-86650380D01*
X94283270Y-86644910D01*
X94350480Y-86446920D01*
X94352330Y-86441450D01*
X94353160Y-86435740D01*
X94383460Y-86226770D01*
X94383990Y-86223100D01*
X94385640Y-86160000D01*
X94365450Y-85940290D01*
X94305570Y-85727940D01*
X94207980Y-85530050D01*
X94129680Y-85425190D01*
X94079420Y-85357890D01*
X94075970Y-85353270D01*
X93947700Y-85234700D01*
X93918190Y-85207420D01*
X93913950Y-85203500D01*
X93727350Y-85085760D01*
X93524960Y-85005020D01*
X93469100Y-84961200D01*
X93445800Y-84894130D01*
X93462450Y-84825120D01*
X93513780Y-84776060D01*
X93531140Y-84768670D01*
X93664910Y-84723270D01*
X93670380Y-84721410D01*
X93862880Y-84613600D01*
X93911670Y-84573030D01*
X94028090Y-84476200D01*
X94032520Y-84472520D01*
X94078340Y-84417420D01*
X94169910Y-84307330D01*
X94169910Y-84307320D01*
X94173600Y-84302880D01*
X94281410Y-84110380D01*
X94283270Y-84104910D01*
X94350480Y-83906920D01*
X94352330Y-83901450D01*
X94353160Y-83895740D01*
X94383460Y-83686770D01*
X94383990Y-83683100D01*
X94385640Y-83620000D01*
X94365450Y-83400290D01*
X94305570Y-83187940D01*
X94207980Y-82990050D01*
X94179730Y-82952220D01*
X94079420Y-82817890D01*
X94075970Y-82813270D01*
X93974900Y-82719840D01*
X93918190Y-82667420D01*
X93913950Y-82663500D01*
X93727350Y-82545760D01*
X93524960Y-82465020D01*
X93469100Y-82421200D01*
X93445800Y-82354130D01*
X93462450Y-82285120D01*
X93513780Y-82236060D01*
X93531140Y-82228670D01*
X93664910Y-82183270D01*
X93670380Y-82181410D01*
X93862880Y-82073600D01*
X93942400Y-82007470D01*
X94028090Y-81936200D01*
X94032520Y-81932520D01*
X94098830Y-81852790D01*
X94169910Y-81767330D01*
X94169910Y-81767320D01*
X94173600Y-81762880D01*
X94281410Y-81570380D01*
X94283270Y-81564910D01*
X94350480Y-81366920D01*
X94352330Y-81361450D01*
X94353160Y-81355740D01*
X94383460Y-81146770D01*
X94383990Y-81143100D01*
X94385640Y-81080000D01*
X94365450Y-80860290D01*
X94358450Y-80835440D01*
X94322350Y-80707450D01*
X94305570Y-80647940D01*
X94207980Y-80450050D01*
X94123390Y-80336780D01*
X94079420Y-80277890D01*
X94075970Y-80273270D01*
X93948720Y-80155640D01*
X93918190Y-80127420D01*
X93913950Y-80123500D01*
X93727350Y-80005760D01*
X93524960Y-79925020D01*
X93469100Y-79881200D01*
X93445800Y-79814130D01*
X93462450Y-79745120D01*
X93513780Y-79696060D01*
X93531140Y-79688670D01*
X93664910Y-79643270D01*
X93670380Y-79641410D01*
X93862880Y-79533600D01*
X93880620Y-79518860D01*
X93939810Y-79469630D01*
X94004970Y-79441450D01*
X94020380Y-79440500D01*
X94364810Y-79440500D01*
X94432930Y-79460500D01*
X94453910Y-79477410D01*
X96155100Y-81178600D01*
X96189120Y-81240910D01*
X96192000Y-81267690D01*
X96192000Y-88671040D01*
X96171670Y-88739660D01*
X96169170Y-88743520D01*
X96165590Y-88748060D01*
X96162900Y-88753170D01*
X96148630Y-88780290D01*
X96071410Y-88927050D01*
X96011440Y-89120210D01*
X95987660Y-89321070D01*
X96000890Y-89522890D01*
X96050680Y-89718930D01*
X96135360Y-89902610D01*
X96138690Y-89907320D01*
X96246270Y-90059540D01*
X96252090Y-90067780D01*
X96256230Y-90071820D01*
X96266190Y-90081520D01*
X96396970Y-90208910D01*
X96565140Y-90321280D01*
X96570440Y-90323560D01*
X96686870Y-90373580D01*
X96750970Y-90401120D01*
X96948240Y-90445760D01*
X96954010Y-90445990D01*
X97030180Y-90448980D01*
X97150340Y-90453700D01*
X97236630Y-90441190D01*
X97344790Y-90425510D01*
X97350510Y-90424680D01*
X97355980Y-90422820D01*
X97536570Y-90361520D01*
X97542030Y-90359660D01*
X97669390Y-90288340D01*
X97713460Y-90263660D01*
X97713470Y-90263660D01*
X97718500Y-90260840D01*
X97780930Y-90208910D01*
X97869570Y-90135190D01*
X97874010Y-90131510D01*
X98003340Y-89976000D01*
X98007550Y-89968480D01*
X98052530Y-89888160D01*
X98102160Y-89799530D01*
X98115790Y-89759380D01*
X98165320Y-89613480D01*
X98167180Y-89608010D01*
X98168010Y-89602290D01*
X98195670Y-89411520D01*
X98196200Y-89407840D01*
X98197720Y-89350000D01*
X98179210Y-89148590D01*
X98124310Y-88953930D01*
X98034850Y-88772530D01*
X98018040Y-88750020D01*
X97993310Y-88683470D01*
X97993000Y-88674630D01*
X97993000Y-83588440D01*
X99594770Y-83588440D01*
X99609200Y-83808600D01*
X99610620Y-83814200D01*
X99610620Y-83814210D01*
X99654790Y-83988120D01*
X99663510Y-84022450D01*
X99665930Y-84027690D01*
X99665930Y-84027700D01*
X99704050Y-84110380D01*
X99755880Y-84222820D01*
X99883220Y-84403000D01*
X100041260Y-84556960D01*
X100046060Y-84560170D01*
X100130260Y-84616430D01*
X100224720Y-84679540D01*
X100230020Y-84681820D01*
X100313610Y-84717730D01*
X100368310Y-84763000D01*
X100389840Y-84830650D01*
X100371390Y-84899210D01*
X100318800Y-84946900D01*
X100263880Y-84959500D01*
X99968480Y-84959500D01*
X99963590Y-84960280D01*
X99884490Y-84972800D01*
X99874700Y-84974350D01*
X99865860Y-84978860D01*
X99843110Y-84990450D01*
X99761660Y-85031950D01*
X99671950Y-85121660D01*
X99614350Y-85234700D01*
X99599500Y-85328480D01*
X99599500Y-86991520D01*
X99600280Y-86996410D01*
X99603410Y-87016200D01*
X99614350Y-87085300D01*
X99618860Y-87094140D01*
X99622650Y-87101590D01*
X99671950Y-87198340D01*
X99761660Y-87288050D01*
X99874700Y-87345650D01*
X99884490Y-87347200D01*
X99911850Y-87351530D01*
X99968480Y-87360500D01*
X100799830Y-87360500D01*
X101631520Y-87360500D01*
X101636410Y-87359720D01*
X101715510Y-87347200D01*
X101725300Y-87345650D01*
X101838340Y-87288050D01*
X101928050Y-87198340D01*
X101985650Y-87085300D01*
X101987410Y-87074160D01*
X101991530Y-87048150D01*
X102000500Y-86991520D01*
X102000500Y-85328480D01*
X101985650Y-85234700D01*
X101928050Y-85121660D01*
X101838340Y-85031950D01*
X101725300Y-84974350D01*
X101715520Y-84972800D01*
X101715510Y-84972800D01*
X101688150Y-84968470D01*
X101631520Y-84959500D01*
X101347100Y-84959500D01*
X101278980Y-84939500D01*
X101232490Y-84885840D01*
X101222380Y-84815570D01*
X101251880Y-84750990D01*
X101290790Y-84722150D01*
X101290380Y-84721410D01*
X101370880Y-84676330D01*
X101482880Y-84613600D01*
X101535100Y-84570170D01*
X101559810Y-84549630D01*
X101624970Y-84521450D01*
X101640380Y-84520500D01*
X102194810Y-84520500D01*
X102262930Y-84540500D01*
X102283910Y-84557410D01*
X103062600Y-85336100D01*
X103096620Y-85398410D01*
X103099500Y-85425190D01*
X103099500Y-87419210D01*
X103097950Y-87438920D01*
X103095780Y-87452610D01*
X103096130Y-87459200D01*
X103099330Y-87520280D01*
X103099500Y-87526870D01*
X103099500Y-87547190D01*
X103099840Y-87550460D01*
X103099840Y-87550470D01*
X103101620Y-87567400D01*
X103102140Y-87573970D01*
X103105690Y-87641650D01*
X103109270Y-87655030D01*
X103112880Y-87674480D01*
X103114330Y-87688260D01*
X103116370Y-87694530D01*
X103116370Y-87694540D01*
X103135270Y-87752700D01*
X103137140Y-87759030D01*
X103152970Y-87818110D01*
X103152970Y-87818120D01*
X103154680Y-87824490D01*
X103157680Y-87830370D01*
X103160970Y-87836840D01*
X103168540Y-87855100D01*
X103172820Y-87868280D01*
X103176120Y-87874000D01*
X103206700Y-87926970D01*
X103209850Y-87932770D01*
X103229830Y-87971980D01*
X103240620Y-87993150D01*
X103244770Y-87998280D01*
X103249340Y-88003920D01*
X103260530Y-88020210D01*
X103267470Y-88032220D01*
X103271890Y-88037130D01*
X103312820Y-88082580D01*
X103317100Y-88087600D01*
X103329880Y-88103380D01*
X103344230Y-88117730D01*
X103348770Y-88122510D01*
X103394130Y-88172890D01*
X103405350Y-88181040D01*
X103420380Y-88193880D01*
X104806120Y-89579620D01*
X104818960Y-89594650D01*
X104827110Y-89605870D01*
X104832010Y-89610280D01*
X104832020Y-89610290D01*
X104877490Y-89651230D01*
X104882270Y-89655770D01*
X104896620Y-89670120D01*
X104899180Y-89672200D01*
X104912400Y-89682900D01*
X104917420Y-89687190D01*
X104952670Y-89718930D01*
X104967780Y-89732530D01*
X104979790Y-89739470D01*
X104996080Y-89750660D01*
X105006850Y-89759380D01*
X105012730Y-89762380D01*
X105067230Y-89790150D01*
X105073030Y-89793300D01*
X105092550Y-89804560D01*
X105131720Y-89827180D01*
X105143550Y-89831020D01*
X105144900Y-89831460D01*
X105163160Y-89839030D01*
X105169630Y-89842320D01*
X105175510Y-89845320D01*
X105240980Y-89862860D01*
X105247280Y-89864730D01*
X105311740Y-89885670D01*
X105325090Y-89887080D01*
X105325530Y-89887120D01*
X105344970Y-89890730D01*
X105346540Y-89891150D01*
X105358350Y-89894310D01*
X105364950Y-89894660D01*
X105364960Y-89894660D01*
X105426010Y-89897860D01*
X105432590Y-89898380D01*
X105449530Y-89900160D01*
X105449540Y-89900160D01*
X105452810Y-89900500D01*
X105473130Y-89900500D01*
X105479730Y-89900670D01*
X105540800Y-89903870D01*
X105547390Y-89904220D01*
X105561080Y-89902050D01*
X105580790Y-89900500D01*
X105652610Y-89900500D01*
X105720730Y-89920500D01*
X105732300Y-89929700D01*
X105732640Y-89929290D01*
X105737130Y-89932940D01*
X105741260Y-89936960D01*
X105746060Y-89940170D01*
X105872590Y-90024710D01*
X105924720Y-90059540D01*
X105930020Y-90061820D01*
X106081900Y-90127070D01*
X106127440Y-90146640D01*
X106207090Y-90164660D01*
X106337000Y-90194050D01*
X106337000Y-90194060D01*
X106342630Y-90195330D01*
X106348400Y-90195560D01*
X106348410Y-90195560D01*
X106416210Y-90198220D01*
X106563100Y-90203990D01*
X106672280Y-90188160D01*
X106775740Y-90173160D01*
X106781450Y-90172330D01*
X106786920Y-90170480D01*
X106984910Y-90103270D01*
X106990380Y-90101410D01*
X107182880Y-89993600D01*
X107225010Y-89958560D01*
X107348090Y-89856200D01*
X107352520Y-89852520D01*
X107396590Y-89799530D01*
X107489910Y-89687330D01*
X107489910Y-89687320D01*
X107493600Y-89682880D01*
X107558610Y-89566810D01*
X107598590Y-89495420D01*
X107601410Y-89490380D01*
X107603270Y-89484910D01*
X107670480Y-89286920D01*
X107672330Y-89281450D01*
X107673160Y-89275740D01*
X107695710Y-89120210D01*
X107703990Y-89063100D01*
X107705640Y-89000000D01*
X107685450Y-88780290D01*
X107625570Y-88567940D01*
X107527980Y-88370050D01*
X107449050Y-88264350D01*
X107399420Y-88197890D01*
X107395970Y-88193270D01*
X107233950Y-88043500D01*
X107047350Y-87925760D01*
X106842420Y-87844010D01*
X106836760Y-87842880D01*
X106631690Y-87802090D01*
X106626020Y-87800960D01*
X106620250Y-87800890D01*
X106509500Y-87799440D01*
X106405410Y-87798070D01*
X106399710Y-87799050D01*
X106193650Y-87834460D01*
X106187960Y-87835440D01*
X105980960Y-87911800D01*
X105976000Y-87914760D01*
X105879810Y-87971980D01*
X105811040Y-87989620D01*
X105743650Y-87967280D01*
X105726290Y-87952790D01*
X104937410Y-87163910D01*
X104903380Y-87101590D01*
X104900500Y-87074810D01*
X104900500Y-85080790D01*
X104902050Y-85061080D01*
X104903190Y-85053900D01*
X104904220Y-85047390D01*
X104903780Y-85038960D01*
X104900670Y-84979720D01*
X104900500Y-84973130D01*
X104900500Y-84952810D01*
X104898750Y-84936140D01*
X104898380Y-84932600D01*
X104897860Y-84926020D01*
X104894680Y-84865370D01*
X104894310Y-84858360D01*
X104890730Y-84844960D01*
X104887120Y-84825520D01*
X104887080Y-84825120D01*
X104885670Y-84811740D01*
X104864730Y-84747300D01*
X104862860Y-84740970D01*
X104847030Y-84681890D01*
X104847030Y-84681880D01*
X104845320Y-84675510D01*
X104839030Y-84663160D01*
X104831460Y-84644900D01*
X104831020Y-84643550D01*
X104827180Y-84631720D01*
X104816720Y-84613600D01*
X104793300Y-84573030D01*
X104790150Y-84567230D01*
X104762380Y-84512740D01*
X104759380Y-84506850D01*
X104750660Y-84496080D01*
X104739460Y-84479790D01*
X104735830Y-84473500D01*
X104732530Y-84467780D01*
X104728120Y-84462880D01*
X104728110Y-84462870D01*
X104687190Y-84417420D01*
X104682910Y-84412410D01*
X104672190Y-84399180D01*
X104670120Y-84396620D01*
X104655760Y-84382260D01*
X104651220Y-84377480D01*
X104610290Y-84332020D01*
X104605870Y-84327110D01*
X104594660Y-84318970D01*
X104579620Y-84306130D01*
X103313880Y-83040380D01*
X103301040Y-83025350D01*
X103292890Y-83014130D01*
X103242510Y-82968770D01*
X103237730Y-82964230D01*
X103223380Y-82949880D01*
X103215920Y-82943840D01*
X103207600Y-82937100D01*
X103202580Y-82932820D01*
X103157130Y-82891890D01*
X103152220Y-82887470D01*
X103140210Y-82880530D01*
X103123920Y-82869340D01*
X103118280Y-82864770D01*
X103113150Y-82860620D01*
X103107270Y-82857620D01*
X103052770Y-82829850D01*
X103046970Y-82826700D01*
X102994000Y-82796120D01*
X102988280Y-82792820D01*
X102975100Y-82788540D01*
X102956840Y-82780970D01*
X102950370Y-82777680D01*
X102944490Y-82774680D01*
X102938120Y-82772970D01*
X102938110Y-82772970D01*
X102879030Y-82757140D01*
X102872700Y-82755270D01*
X102814540Y-82736370D01*
X102814530Y-82736370D01*
X102808260Y-82734330D01*
X102801700Y-82733640D01*
X102801690Y-82733640D01*
X102794480Y-82732880D01*
X102775040Y-82729280D01*
X102761650Y-82725690D01*
X102755060Y-82725340D01*
X102755050Y-82725340D01*
X102723630Y-82723700D01*
X102693970Y-82722140D01*
X102687400Y-82721620D01*
X102670470Y-82719840D01*
X102670460Y-82719840D01*
X102667190Y-82719500D01*
X102646870Y-82719500D01*
X102640280Y-82719330D01*
X102579200Y-82716130D01*
X102572610Y-82715780D01*
X102566100Y-82716810D01*
X102558920Y-82717950D01*
X102539210Y-82719500D01*
X101643850Y-82719500D01*
X101575720Y-82699500D01*
X101558320Y-82686030D01*
X101533950Y-82663500D01*
X101529070Y-82660420D01*
X101529060Y-82660420D01*
X101352230Y-82548850D01*
X101347350Y-82545760D01*
X101142420Y-82464010D01*
X101136760Y-82462880D01*
X100931690Y-82422090D01*
X100926020Y-82420960D01*
X100920250Y-82420890D01*
X100809500Y-82419440D01*
X100705410Y-82418070D01*
X100699710Y-82419050D01*
X100493650Y-82454460D01*
X100487960Y-82455440D01*
X100280960Y-82531800D01*
X100276000Y-82534760D01*
X100153660Y-82607540D01*
X100091340Y-82644610D01*
X99925460Y-82790090D01*
X99788860Y-82963360D01*
X99686130Y-83158620D01*
X99620700Y-83369330D01*
X99594770Y-83588440D01*
X97993000Y-83588440D01*
X97993000Y-80923290D01*
X97994550Y-80903580D01*
X97995690Y-80896400D01*
X97996720Y-80889890D01*
X97994880Y-80854730D01*
X97993170Y-80822220D01*
X97993000Y-80815630D01*
X97993000Y-80795310D01*
X97992660Y-80792030D01*
X97990880Y-80775100D01*
X97990360Y-80768520D01*
X97989100Y-80744580D01*
X97986810Y-80700860D01*
X97983230Y-80687460D01*
X97979620Y-80668020D01*
X97978870Y-80660820D01*
X97978860Y-80660810D01*
X97978170Y-80654240D01*
X97957230Y-80589800D01*
X97955360Y-80583470D01*
X97939530Y-80524390D01*
X97939530Y-80524380D01*
X97937820Y-80518010D01*
X97931530Y-80505660D01*
X97923960Y-80487400D01*
X97923520Y-80486050D01*
X97919680Y-80474220D01*
X97905730Y-80450050D01*
X97885800Y-80415530D01*
X97882650Y-80409730D01*
X97854880Y-80355240D01*
X97851880Y-80349350D01*
X97843160Y-80338580D01*
X97831960Y-80322290D01*
X97828330Y-80316000D01*
X97825030Y-80310280D01*
X97820620Y-80305380D01*
X97820610Y-80305370D01*
X97779690Y-80259920D01*
X97775410Y-80254910D01*
X97764690Y-80241680D01*
X97762620Y-80239120D01*
X97748260Y-80224760D01*
X97743720Y-80219980D01*
X97702790Y-80174520D01*
X97698370Y-80169610D01*
X97687160Y-80161460D01*
X97672130Y-80148630D01*
X96031940Y-78508440D01*
X95483880Y-77960380D01*
X95471040Y-77945350D01*
X95462890Y-77934130D01*
X95412510Y-77888770D01*
X95407730Y-77884230D01*
X95393380Y-77869880D01*
X95385920Y-77863840D01*
X95377600Y-77857100D01*
X95372580Y-77852820D01*
X95327130Y-77811890D01*
X95322220Y-77807470D01*
X95310210Y-77800530D01*
X95293920Y-77789340D01*
X95288280Y-77784770D01*
X95283150Y-77780620D01*
X95277270Y-77777620D01*
X95222770Y-77749850D01*
X95216970Y-77746700D01*
X95164000Y-77716120D01*
X95158280Y-77712820D01*
X95145100Y-77708540D01*
X95126840Y-77700970D01*
X95120370Y-77697680D01*
X95114490Y-77694680D01*
X95108120Y-77692970D01*
X95108110Y-77692970D01*
X95049030Y-77677140D01*
X95042700Y-77675270D01*
X94984540Y-77656370D01*
X94984530Y-77656370D01*
X94978260Y-77654330D01*
X94971700Y-77653640D01*
X94971690Y-77653640D01*
X94964480Y-77652880D01*
X94945040Y-77649280D01*
X94931650Y-77645690D01*
X94925060Y-77645340D01*
X94925050Y-77645340D01*
X94893630Y-77643700D01*
X94863970Y-77642140D01*
X94857400Y-77641620D01*
X94840470Y-77639840D01*
X94840460Y-77639840D01*
X94837190Y-77639500D01*
X94816870Y-77639500D01*
X94810280Y-77639330D01*
X94749200Y-77636130D01*
X94742610Y-77635780D01*
X94736100Y-77636810D01*
X94728920Y-77637950D01*
X94709210Y-77639500D01*
X94023850Y-77639500D01*
X93955720Y-77619500D01*
X93938320Y-77606030D01*
X93913950Y-77583500D01*
X93909070Y-77580420D01*
X93909060Y-77580420D01*
X93732230Y-77468850D01*
X93727350Y-77465760D01*
X93524960Y-77385020D01*
X93469100Y-77341200D01*
X93445800Y-77274130D01*
X93462450Y-77205120D01*
X93513780Y-77156060D01*
X93531140Y-77148670D01*
X93664910Y-77103270D01*
X93670380Y-77101410D01*
X93862880Y-76993600D01*
X94032520Y-76852520D01*
X94058400Y-76821400D01*
X94169910Y-76687330D01*
X94169910Y-76687320D01*
X94173600Y-76682880D01*
X94281410Y-76490380D01*
X94283270Y-76484910D01*
X94350480Y-76286920D01*
X94352330Y-76281450D01*
X94353160Y-76275740D01*
X94372350Y-76143410D01*
X94383990Y-76063100D01*
X94385640Y-76000000D01*
X94365450Y-75780290D01*
X94355370Y-75744530D01*
X94316010Y-75604980D01*
X94305570Y-75567940D01*
X94207980Y-75370050D01*
X94091830Y-75214510D01*
X94079420Y-75197890D01*
X94075970Y-75193270D01*
X93924860Y-75053580D01*
X93918190Y-75047420D01*
X93913950Y-75043500D01*
X93727350Y-74925760D01*
X93522420Y-74844010D01*
X93516760Y-74842880D01*
X93311690Y-74802090D01*
X93306020Y-74800960D01*
X93300250Y-74800890D01*
X93189500Y-74799440D01*
X93085410Y-74798070D01*
X93079710Y-74799050D01*
X92873650Y-74834460D01*
X92867960Y-74835440D01*
X92660960Y-74911800D01*
X92656000Y-74914760D01*
X92528890Y-74990380D01*
X92471340Y-75024610D01*
X92305460Y-75170090D01*
X92168860Y-75343360D01*
X92066130Y-75538620D01*
X92000700Y-75749330D01*
X91974770Y-75968440D01*
X87379480Y-75968440D01*
X87379610Y-75966170D01*
X87379930Y-75960560D01*
X87353120Y-75738960D01*
X87287480Y-75525600D01*
X87276180Y-75503700D01*
X87187670Y-75332230D01*
X87185100Y-75327240D01*
X87181690Y-75322800D01*
X87052620Y-75154590D01*
X87049210Y-75150150D01*
X86884110Y-74999910D01*
X86695010Y-74881290D01*
X86538010Y-74818180D01*
X86493100Y-74800130D01*
X86493100Y-74800120D01*
X86487900Y-74798030D01*
X86482410Y-74796900D01*
X86482400Y-74796900D01*
X86317850Y-74762820D01*
X86269310Y-74752770D01*
X86264700Y-74752500D01*
X86214470Y-74749610D01*
X86212650Y-74749500D01*
X85818370Y-74749500D01*
X85815580Y-74749750D01*
X85746000Y-74755960D01*
X85652660Y-74764290D01*
X85647250Y-74765770D01*
X85647240Y-74765770D01*
X85533470Y-74796900D01*
X85437350Y-74823190D01*
X85432290Y-74825600D01*
X85432290Y-74825610D01*
X85339100Y-74870050D01*
X85235870Y-74919290D01*
X85054600Y-75049550D01*
X85036780Y-75067940D01*
X84933380Y-75174630D01*
X84899250Y-75209850D01*
X84774750Y-75395130D01*
X84772490Y-75400280D01*
X84742570Y-75468440D01*
X84685030Y-75599530D01*
X84683720Y-75604980D01*
X84641630Y-75780290D01*
X84632920Y-75816590D01*
X84632590Y-75822190D01*
X84622900Y-75990380D01*
X84620070Y-76039440D01*
X83400500Y-76039440D01*
X83400500Y-70665690D01*
X83400500Y-69334310D01*
X84599500Y-69334310D01*
X84599500Y-70665690D01*
X84599690Y-70668140D01*
X84599690Y-70668150D01*
X84599790Y-70669330D01*
X84602400Y-70702570D01*
X84648260Y-70860400D01*
X84731920Y-71001870D01*
X84848140Y-71118080D01*
X84989600Y-71201740D01*
X84997210Y-71203960D01*
X84997220Y-71203960D01*
X85007420Y-71206920D01*
X85147430Y-71247600D01*
X85160580Y-71248630D01*
X85181850Y-71250310D01*
X85181860Y-71250310D01*
X85184310Y-71250500D01*
X86815690Y-71250500D01*
X86818140Y-71250310D01*
X86818150Y-71250310D01*
X86839420Y-71248630D01*
X86852570Y-71247600D01*
X86992580Y-71206920D01*
X87002790Y-71203960D01*
X87010400Y-71201740D01*
X87151870Y-71118080D01*
X87268080Y-71001870D01*
X87335160Y-70888440D01*
X91974770Y-70888440D01*
X91989200Y-71108600D01*
X91990620Y-71114200D01*
X91990620Y-71114210D01*
X92025190Y-71250310D01*
X92043510Y-71322450D01*
X92045930Y-71327690D01*
X92045930Y-71327700D01*
X92084050Y-71410380D01*
X92135880Y-71522820D01*
X92263220Y-71703000D01*
X92421260Y-71856960D01*
X92426060Y-71860170D01*
X92510260Y-71916430D01*
X92604720Y-71979540D01*
X92610020Y-71981820D01*
X92802130Y-72064360D01*
X92807440Y-72066640D01*
X92849100Y-72076060D01*
X93017000Y-72114050D01*
X93017000Y-72114060D01*
X93022630Y-72115330D01*
X93028400Y-72115560D01*
X93028410Y-72115560D01*
X93096210Y-72118220D01*
X93243100Y-72123990D01*
X93352280Y-72108160D01*
X93455740Y-72093160D01*
X93461450Y-72092330D01*
X93466920Y-72090480D01*
X93664910Y-72023270D01*
X93670380Y-72021410D01*
X93862880Y-71913600D01*
X94032520Y-71772520D01*
X94173600Y-71602880D01*
X94281410Y-71410380D01*
X94283270Y-71404910D01*
X94350480Y-71206920D01*
X94352330Y-71201450D01*
X94353160Y-71195740D01*
X94383460Y-70986770D01*
X94383990Y-70983100D01*
X94385640Y-70920000D01*
X94382740Y-70888440D01*
X99594770Y-70888440D01*
X99609200Y-71108600D01*
X99610620Y-71114200D01*
X99610620Y-71114210D01*
X99645190Y-71250310D01*
X99663510Y-71322450D01*
X99665930Y-71327690D01*
X99665930Y-71327700D01*
X99704050Y-71410380D01*
X99755880Y-71522820D01*
X99883220Y-71703000D01*
X100041260Y-71856960D01*
X100046060Y-71860170D01*
X100130260Y-71916430D01*
X100224720Y-71979540D01*
X100230020Y-71981820D01*
X100422130Y-72064360D01*
X100427440Y-72066640D01*
X100433070Y-72067910D01*
X100434480Y-72068230D01*
X100435080Y-72068560D01*
X100438560Y-72069690D01*
X100438340Y-72070380D01*
X100496510Y-72102770D01*
X100530020Y-72165370D01*
X100524360Y-72236140D01*
X100481340Y-72292620D01*
X100450290Y-72309340D01*
X100286380Y-72369800D01*
X100286370Y-72369810D01*
X100280960Y-72371800D01*
X100276000Y-72374760D01*
X100115080Y-72470490D01*
X100091340Y-72484610D01*
X99925460Y-72630090D01*
X99788860Y-72803360D01*
X99686130Y-72998620D01*
X99620700Y-73209330D01*
X99594770Y-73428440D01*
X99609200Y-73648600D01*
X99610620Y-73654200D01*
X99610620Y-73654210D01*
X99657510Y-73838820D01*
X99663510Y-73862450D01*
X99665930Y-73867690D01*
X99665930Y-73867700D01*
X99702050Y-73946050D01*
X99755880Y-74062820D01*
X99883220Y-74243000D01*
X100041260Y-74396960D01*
X100046060Y-74400170D01*
X100177160Y-74487770D01*
X100224720Y-74519540D01*
X100230020Y-74521820D01*
X100422130Y-74604360D01*
X100427440Y-74606640D01*
X100433070Y-74607910D01*
X100434480Y-74608230D01*
X100435080Y-74608560D01*
X100438560Y-74609690D01*
X100438340Y-74610380D01*
X100496510Y-74642770D01*
X100530020Y-74705370D01*
X100524360Y-74776140D01*
X100481340Y-74832620D01*
X100450290Y-74849340D01*
X100286380Y-74909800D01*
X100286370Y-74909810D01*
X100280960Y-74911800D01*
X100276000Y-74914760D01*
X100148890Y-74990380D01*
X100091340Y-75024610D01*
X99925460Y-75170090D01*
X99788860Y-75343360D01*
X99686130Y-75538620D01*
X99620700Y-75749330D01*
X99594770Y-75968440D01*
X99609200Y-76188600D01*
X99610620Y-76194200D01*
X99610620Y-76194210D01*
X99634200Y-76287030D01*
X99663510Y-76402450D01*
X99665930Y-76407690D01*
X99665930Y-76407700D01*
X99703830Y-76489910D01*
X99755880Y-76602820D01*
X99883220Y-76783000D01*
X100041260Y-76936960D01*
X100046060Y-76940170D01*
X100140200Y-77003070D01*
X100224720Y-77059540D01*
X100230020Y-77061820D01*
X100422130Y-77144360D01*
X100427440Y-77146640D01*
X100433070Y-77147910D01*
X100434480Y-77148230D01*
X100435080Y-77148560D01*
X100438560Y-77149690D01*
X100438340Y-77150380D01*
X100496510Y-77182770D01*
X100530020Y-77245370D01*
X100524360Y-77316140D01*
X100481340Y-77372620D01*
X100450290Y-77389340D01*
X100286380Y-77449800D01*
X100286370Y-77449810D01*
X100280960Y-77451800D01*
X100276000Y-77454760D01*
X100200090Y-77499910D01*
X100091340Y-77564610D01*
X99925460Y-77710090D01*
X99788860Y-77883360D01*
X99686130Y-78078620D01*
X99620700Y-78289330D01*
X99594770Y-78508440D01*
X99609200Y-78728600D01*
X99610620Y-78734200D01*
X99610620Y-78734210D01*
X99651460Y-78895020D01*
X99663510Y-78942450D01*
X99665930Y-78947690D01*
X99665930Y-78947700D01*
X99704050Y-79030380D01*
X99755880Y-79142820D01*
X99883220Y-79323000D01*
X100041260Y-79476960D01*
X100046060Y-79480170D01*
X100192230Y-79577830D01*
X100224720Y-79599540D01*
X100230020Y-79601820D01*
X100363980Y-79659370D01*
X100427440Y-79686640D01*
X100469100Y-79696060D01*
X100637000Y-79734050D01*
X100637000Y-79734060D01*
X100642630Y-79735330D01*
X100648400Y-79735560D01*
X100648410Y-79735560D01*
X100716210Y-79738220D01*
X100863100Y-79743990D01*
X100972280Y-79728160D01*
X101075740Y-79713160D01*
X101081450Y-79712330D01*
X101086920Y-79710480D01*
X101284910Y-79643270D01*
X101290380Y-79641410D01*
X101482880Y-79533600D01*
X101500620Y-79518860D01*
X101648090Y-79396200D01*
X101652520Y-79392520D01*
X101684870Y-79353620D01*
X101789910Y-79227330D01*
X101789910Y-79227320D01*
X101793600Y-79222880D01*
X101901410Y-79030380D01*
X101903270Y-79024910D01*
X101970480Y-78826920D01*
X101972330Y-78821450D01*
X101973160Y-78815740D01*
X102003460Y-78606770D01*
X102003990Y-78603100D01*
X102005640Y-78540000D01*
X101985450Y-78320290D01*
X101982870Y-78311130D01*
X101927130Y-78113500D01*
X101925570Y-78107940D01*
X101827980Y-77910050D01*
X101813360Y-77890470D01*
X101699420Y-77737890D01*
X101695970Y-77733270D01*
X101594900Y-77639840D01*
X101538190Y-77587420D01*
X101533950Y-77583500D01*
X101347350Y-77465760D01*
X101144960Y-77385020D01*
X101089100Y-77341200D01*
X101065800Y-77274130D01*
X101082450Y-77205120D01*
X101133780Y-77156060D01*
X101151140Y-77148670D01*
X101284910Y-77103270D01*
X101290380Y-77101410D01*
X101482880Y-76993600D01*
X101652520Y-76852520D01*
X101678400Y-76821400D01*
X101789910Y-76687330D01*
X101789910Y-76687320D01*
X101793600Y-76682880D01*
X101901410Y-76490380D01*
X101903270Y-76484910D01*
X101970480Y-76286920D01*
X101972330Y-76281450D01*
X101973160Y-76275740D01*
X101992350Y-76143410D01*
X102003990Y-76063100D01*
X102005640Y-76000000D01*
X101985450Y-75780290D01*
X101975370Y-75744530D01*
X101936010Y-75604980D01*
X101925570Y-75567940D01*
X101876500Y-75468440D01*
X103794770Y-75468440D01*
X103809200Y-75688600D01*
X103810620Y-75694200D01*
X103810620Y-75694210D01*
X103840320Y-75811130D01*
X103863510Y-75902450D01*
X103865930Y-75907690D01*
X103865930Y-75907700D01*
X103904050Y-75990380D01*
X103955880Y-76102820D01*
X104083220Y-76283000D01*
X104241260Y-76436960D01*
X104246060Y-76440170D01*
X104328760Y-76495420D01*
X104424720Y-76559540D01*
X104430020Y-76561820D01*
X104536430Y-76607540D01*
X104627440Y-76646640D01*
X104707090Y-76664660D01*
X104837000Y-76694050D01*
X104837000Y-76694060D01*
X104842630Y-76695330D01*
X104848400Y-76695560D01*
X104848410Y-76695560D01*
X104916210Y-76698220D01*
X105063100Y-76703990D01*
X105178030Y-76687330D01*
X105275740Y-76673160D01*
X105281450Y-76672330D01*
X105286920Y-76670480D01*
X105484910Y-76603270D01*
X105490380Y-76601410D01*
X105682880Y-76493600D01*
X105712420Y-76469040D01*
X105848090Y-76356200D01*
X105852520Y-76352520D01*
X105933230Y-76255470D01*
X105989910Y-76187330D01*
X105989910Y-76187320D01*
X105993600Y-76182880D01*
X106101410Y-75990380D01*
X106103270Y-75984910D01*
X106170480Y-75786920D01*
X106172330Y-75781450D01*
X106173160Y-75775740D01*
X106202480Y-75573500D01*
X106203990Y-75563100D01*
X106205640Y-75500000D01*
X106185450Y-75280290D01*
X106125570Y-75067940D01*
X106027980Y-74870050D01*
X106001400Y-74834460D01*
X105989380Y-74818360D01*
X105964650Y-74751810D01*
X105979820Y-74682450D01*
X106023030Y-74640510D01*
X106021480Y-74638380D01*
X106029510Y-74632550D01*
X106038340Y-74628050D01*
X106128050Y-74538340D01*
X106163230Y-74469300D01*
X106211980Y-74417680D01*
X106275500Y-74400500D01*
X106574810Y-74400500D01*
X106642930Y-74420500D01*
X106663910Y-74437410D01*
X107185410Y-74958910D01*
X107219440Y-75021220D01*
X107222320Y-75048010D01*
X107222320Y-79373500D01*
X107202320Y-79441620D01*
X107148660Y-79488120D01*
X107096320Y-79499500D01*
X106991300Y-79499500D01*
X106986410Y-79500280D01*
X106907310Y-79512800D01*
X106897510Y-79514350D01*
X106784480Y-79571950D01*
X106694770Y-79661660D01*
X106637170Y-79774700D01*
X106622320Y-79868480D01*
X106622320Y-82131520D01*
X106623090Y-82136410D01*
X106623950Y-82141820D01*
X106637170Y-82225300D01*
X106694770Y-82338340D01*
X106784480Y-82428050D01*
X106897510Y-82485650D01*
X106907300Y-82487200D01*
X106927400Y-82490380D01*
X106991300Y-82500500D01*
X108122590Y-82500500D01*
X109254340Y-82500500D01*
X109259230Y-82499720D01*
X109338320Y-82487200D01*
X109338330Y-82487200D01*
X109348120Y-82485650D01*
X109461160Y-82428050D01*
X109550870Y-82338340D01*
X109608460Y-82225300D01*
X109623320Y-82131520D01*
X109623320Y-79868480D01*
X109608460Y-79774700D01*
X109550870Y-79661660D01*
X109461160Y-79571950D01*
X109348120Y-79514350D01*
X109338330Y-79512800D01*
X109310970Y-79508470D01*
X109254340Y-79499500D01*
X109149320Y-79499500D01*
X109081200Y-79479500D01*
X109034700Y-79425840D01*
X109023320Y-79373500D01*
X109023320Y-74703600D01*
X109024870Y-74683890D01*
X109026000Y-74676720D01*
X109027040Y-74670210D01*
X109026260Y-74655330D01*
X109023490Y-74602540D01*
X109023320Y-74595940D01*
X109023320Y-74575630D01*
X109022970Y-74572360D01*
X109022970Y-74572350D01*
X109021190Y-74555420D01*
X109020680Y-74548830D01*
X109020130Y-74538340D01*
X109017130Y-74481170D01*
X109013540Y-74467780D01*
X109009940Y-74448340D01*
X109009180Y-74441120D01*
X109008490Y-74434560D01*
X108996270Y-74396960D01*
X108987550Y-74370120D01*
X108985680Y-74363790D01*
X108969850Y-74304710D01*
X108969850Y-74304700D01*
X108968140Y-74298330D01*
X108961840Y-74285980D01*
X108954280Y-74267720D01*
X108953840Y-74266360D01*
X108950000Y-74254530D01*
X108943340Y-74243000D01*
X108916110Y-74195850D01*
X108912970Y-74190050D01*
X108885200Y-74135550D01*
X108882200Y-74129670D01*
X108873480Y-74118900D01*
X108862280Y-74102610D01*
X108855350Y-74090600D01*
X108810000Y-74040240D01*
X108805720Y-74035220D01*
X108795010Y-74022000D01*
X108792940Y-74019440D01*
X108778590Y-74005090D01*
X108774050Y-74000300D01*
X108733100Y-73954830D01*
X108728690Y-73949930D01*
X108717470Y-73941780D01*
X108702440Y-73928940D01*
X107693880Y-72920380D01*
X107681040Y-72905350D01*
X107672890Y-72894130D01*
X107622510Y-72848770D01*
X107617730Y-72844230D01*
X107603380Y-72829880D01*
X107595920Y-72823840D01*
X107587600Y-72817100D01*
X107582580Y-72812820D01*
X107537130Y-72771890D01*
X107532220Y-72767470D01*
X107520210Y-72760530D01*
X107503920Y-72749340D01*
X107498280Y-72744770D01*
X107493150Y-72740620D01*
X107487270Y-72737620D01*
X107432770Y-72709850D01*
X107426970Y-72706700D01*
X107374000Y-72676120D01*
X107368280Y-72672820D01*
X107355100Y-72668540D01*
X107336840Y-72660970D01*
X107330370Y-72657680D01*
X107324490Y-72654680D01*
X107318120Y-72652970D01*
X107318110Y-72652970D01*
X107259030Y-72637140D01*
X107252700Y-72635270D01*
X107194540Y-72616370D01*
X107194530Y-72616370D01*
X107188260Y-72614330D01*
X107181700Y-72613640D01*
X107181690Y-72613640D01*
X107174480Y-72612880D01*
X107155040Y-72609280D01*
X107141650Y-72605690D01*
X107135060Y-72605340D01*
X107135050Y-72605340D01*
X107103630Y-72603700D01*
X107073970Y-72602140D01*
X107067400Y-72601620D01*
X107050470Y-72599840D01*
X107050460Y-72599840D01*
X107047190Y-72599500D01*
X107026870Y-72599500D01*
X107020280Y-72599330D01*
X106959200Y-72596130D01*
X106952610Y-72595780D01*
X106946100Y-72596810D01*
X106938920Y-72597950D01*
X106919210Y-72599500D01*
X106275500Y-72599500D01*
X106207380Y-72579500D01*
X106163230Y-72530700D01*
X106158030Y-72520500D01*
X106128050Y-72461660D01*
X106038340Y-72371950D01*
X105925300Y-72314350D01*
X105915520Y-72312800D01*
X105915510Y-72312800D01*
X105888150Y-72308470D01*
X105831520Y-72299500D01*
X105000170Y-72299500D01*
X104168480Y-72299500D01*
X104163590Y-72300280D01*
X104084490Y-72312800D01*
X104074700Y-72314350D01*
X103961660Y-72371950D01*
X103871950Y-72461660D01*
X103814350Y-72574700D01*
X103812800Y-72584490D01*
X103809180Y-72607400D01*
X103799500Y-72668480D01*
X103799500Y-74331520D01*
X103800280Y-74336410D01*
X103809230Y-74392930D01*
X103814350Y-74425300D01*
X103818860Y-74434140D01*
X103820520Y-74437410D01*
X103871950Y-74538340D01*
X103961660Y-74628050D01*
X103970490Y-74632550D01*
X103978520Y-74638380D01*
X103976800Y-74640740D01*
X104016980Y-74678690D01*
X104034050Y-74747610D01*
X104007110Y-74820210D01*
X103993530Y-74837440D01*
X103988860Y-74843360D01*
X103986170Y-74848470D01*
X103951300Y-74914760D01*
X103886130Y-75038620D01*
X103820700Y-75249330D01*
X103794770Y-75468440D01*
X101876500Y-75468440D01*
X101827980Y-75370050D01*
X101711830Y-75214510D01*
X101699420Y-75197890D01*
X101695970Y-75193270D01*
X101544860Y-75053580D01*
X101538190Y-75047420D01*
X101533950Y-75043500D01*
X101347350Y-74925760D01*
X101144960Y-74845020D01*
X101089100Y-74801200D01*
X101065800Y-74734130D01*
X101082450Y-74665120D01*
X101133780Y-74616060D01*
X101151140Y-74608670D01*
X101284910Y-74563270D01*
X101290380Y-74561410D01*
X101301080Y-74555420D01*
X101400030Y-74500000D01*
X101482880Y-74453600D01*
X101489210Y-74448340D01*
X101648090Y-74316200D01*
X101652520Y-74312520D01*
X101751930Y-74192990D01*
X101789910Y-74147330D01*
X101789910Y-74147320D01*
X101793600Y-74142880D01*
X101864040Y-74017100D01*
X101898590Y-73955420D01*
X101901410Y-73950380D01*
X101903270Y-73944910D01*
X101970480Y-73746920D01*
X101972330Y-73741450D01*
X101973160Y-73735740D01*
X102003460Y-73526770D01*
X102003990Y-73523100D01*
X102005640Y-73460000D01*
X101985450Y-73240290D01*
X101925570Y-73027940D01*
X101827980Y-72830050D01*
X101776070Y-72760540D01*
X101699420Y-72657890D01*
X101695970Y-72653270D01*
X101533950Y-72503500D01*
X101347350Y-72385760D01*
X101144960Y-72305020D01*
X101089100Y-72261200D01*
X101065800Y-72194130D01*
X101082450Y-72125120D01*
X101133780Y-72076060D01*
X101151140Y-72068670D01*
X101284910Y-72023270D01*
X101290380Y-72021410D01*
X101482880Y-71913600D01*
X101652520Y-71772520D01*
X101793600Y-71602880D01*
X101901410Y-71410380D01*
X101903270Y-71404910D01*
X101970480Y-71206920D01*
X101972330Y-71201450D01*
X101973160Y-71195740D01*
X102003460Y-70986770D01*
X102003990Y-70983100D01*
X102005640Y-70920000D01*
X101985450Y-70700290D01*
X101975000Y-70663220D01*
X101927130Y-70493500D01*
X101925570Y-70487940D01*
X101827980Y-70290050D01*
X101695970Y-70113270D01*
X101533950Y-69963500D01*
X101347350Y-69845760D01*
X101142420Y-69764010D01*
X101136760Y-69762880D01*
X100931690Y-69722090D01*
X100926020Y-69720960D01*
X100920250Y-69720890D01*
X100809500Y-69719440D01*
X100705410Y-69718070D01*
X100699710Y-69719050D01*
X100493650Y-69754460D01*
X100487960Y-69755440D01*
X100280960Y-69831800D01*
X100091340Y-69944610D01*
X99925460Y-70090090D01*
X99788860Y-70263360D01*
X99686130Y-70458620D01*
X99620700Y-70669330D01*
X99594770Y-70888440D01*
X94382740Y-70888440D01*
X94365450Y-70700290D01*
X94355000Y-70663220D01*
X94307130Y-70493500D01*
X94305570Y-70487940D01*
X94207980Y-70290050D01*
X94075970Y-70113270D01*
X93913950Y-69963500D01*
X93727350Y-69845760D01*
X93522420Y-69764010D01*
X93516760Y-69762880D01*
X93311690Y-69722090D01*
X93306020Y-69720960D01*
X93300250Y-69720890D01*
X93189500Y-69719440D01*
X93085410Y-69718070D01*
X93079710Y-69719050D01*
X92873650Y-69754460D01*
X92867960Y-69755440D01*
X92660960Y-69831800D01*
X92471340Y-69944610D01*
X92305460Y-70090090D01*
X92168860Y-70263360D01*
X92066130Y-70458620D01*
X92000700Y-70669330D01*
X91974770Y-70888440D01*
X87335160Y-70888440D01*
X87351740Y-70860400D01*
X87397600Y-70702570D01*
X87400210Y-70669330D01*
X87400310Y-70668150D01*
X87400310Y-70668140D01*
X87400500Y-70665690D01*
X87400500Y-69334310D01*
X87400310Y-69331860D01*
X87400310Y-69331850D01*
X87398100Y-69303850D01*
X87397600Y-69297430D01*
X87351740Y-69139600D01*
X87268080Y-68998140D01*
X87151870Y-68881920D01*
X87010400Y-68798260D01*
X87002790Y-68796050D01*
X87002790Y-68796040D01*
X86858750Y-68754200D01*
X86858760Y-68754200D01*
X86852570Y-68752400D01*
X86839420Y-68751370D01*
X86818150Y-68749690D01*
X86818140Y-68749690D01*
X86815690Y-68749500D01*
X85184310Y-68749500D01*
X85181860Y-68749690D01*
X85181850Y-68749690D01*
X85160580Y-68751370D01*
X85147430Y-68752400D01*
X85141250Y-68754200D01*
X84997220Y-68796040D01*
X84997210Y-68796050D01*
X84989600Y-68798260D01*
X84848140Y-68881920D01*
X84731920Y-68998140D01*
X84648260Y-69139600D01*
X84602400Y-69297430D01*
X84601900Y-69303850D01*
X84599690Y-69331850D01*
X84599690Y-69331860D01*
X84599500Y-69334310D01*
X83400500Y-69334310D01*
X83400500Y-66831520D01*
X96754610Y-66831520D01*
X96769470Y-66925300D01*
X96827060Y-67038340D01*
X96916770Y-67128050D01*
X97029810Y-67185650D01*
X97039600Y-67187200D01*
X97066960Y-67191530D01*
X97123590Y-67200500D01*
X97954940Y-67200500D01*
X98786630Y-67200500D01*
X98791520Y-67199720D01*
X98870620Y-67187200D01*
X98880420Y-67185650D01*
X98993450Y-67128050D01*
X99083160Y-67038340D01*
X99140760Y-66925300D01*
X99155610Y-66831520D01*
X99155610Y-66000000D01*
X104394560Y-66000000D01*
X104414310Y-66376870D01*
X104473350Y-66749610D01*
X104571020Y-67114140D01*
X104572210Y-67117230D01*
X104603870Y-67199730D01*
X104706270Y-67466470D01*
X104877600Y-67802720D01*
X105083140Y-68119230D01*
X105320640Y-68412510D01*
X105587490Y-68679370D01*
X105880780Y-68916860D01*
X106197280Y-69122400D01*
X106200210Y-69123900D01*
X106200220Y-69123900D01*
X106528650Y-69291250D01*
X106533540Y-69293730D01*
X106885860Y-69428980D01*
X107250390Y-69526650D01*
X107448350Y-69558010D01*
X107619880Y-69585180D01*
X107619890Y-69585180D01*
X107623130Y-69585690D01*
X108000000Y-69605440D01*
X108376870Y-69585690D01*
X108380110Y-69585180D01*
X108380120Y-69585180D01*
X108551650Y-69558010D01*
X108749610Y-69526650D01*
X109114140Y-69428980D01*
X109466470Y-69293730D01*
X109471350Y-69291250D01*
X109799780Y-69123900D01*
X109799790Y-69123900D01*
X109802720Y-69122400D01*
X110119230Y-68916860D01*
X110412510Y-68679370D01*
X110679370Y-68412510D01*
X110916860Y-68119230D01*
X111122400Y-67802720D01*
X111293730Y-67466470D01*
X111396130Y-67199730D01*
X111427790Y-67117230D01*
X111428980Y-67114140D01*
X111526650Y-66749610D01*
X111585690Y-66376870D01*
X111605440Y-66000000D01*
X111585690Y-65623130D01*
X111581890Y-65599130D01*
X111527170Y-65253650D01*
X111526650Y-65250390D01*
X111428980Y-64885860D01*
X111396130Y-64800280D01*
X111376040Y-64747960D01*
X111293730Y-64533540D01*
X111242070Y-64432130D01*
X111123900Y-64200220D01*
X111123900Y-64200210D01*
X111122400Y-64197280D01*
X111030760Y-64056170D01*
X110918670Y-63883550D01*
X110916860Y-63880780D01*
X110679370Y-63587490D01*
X110412510Y-63320640D01*
X110119230Y-63083140D01*
X109802720Y-62877600D01*
X109799790Y-62876100D01*
X109799780Y-62876100D01*
X109469410Y-62707760D01*
X109466470Y-62706270D01*
X109114140Y-62571020D01*
X108749610Y-62473350D01*
X108551650Y-62441990D01*
X108380120Y-62414820D01*
X108380110Y-62414820D01*
X108376870Y-62414310D01*
X108000000Y-62394560D01*
X107623130Y-62414310D01*
X107619890Y-62414820D01*
X107619880Y-62414820D01*
X107448350Y-62441990D01*
X107250390Y-62473350D01*
X106885860Y-62571020D01*
X106533540Y-62706270D01*
X106530600Y-62707760D01*
X106200220Y-62876100D01*
X106200210Y-62876100D01*
X106197280Y-62877600D01*
X105880780Y-63083140D01*
X105587490Y-63320640D01*
X105320640Y-63587490D01*
X105083140Y-63880780D01*
X105081340Y-63883550D01*
X104969240Y-64056170D01*
X104877600Y-64197280D01*
X104876100Y-64200210D01*
X104876100Y-64200220D01*
X104757940Y-64432130D01*
X104706270Y-64533540D01*
X104623960Y-64747960D01*
X104603870Y-64800280D01*
X104571020Y-64885860D01*
X104473350Y-65250390D01*
X104472830Y-65253650D01*
X104418110Y-65599130D01*
X104414310Y-65623130D01*
X104394560Y-66000000D01*
X99155610Y-66000000D01*
X99155610Y-65168480D01*
X99140760Y-65074700D01*
X99083160Y-64961660D01*
X98993450Y-64871950D01*
X98880420Y-64814350D01*
X98870630Y-64812800D01*
X98843260Y-64808470D01*
X98786630Y-64799500D01*
X97955280Y-64799500D01*
X97123590Y-64799500D01*
X97118700Y-64800280D01*
X97039610Y-64812800D01*
X97039600Y-64812800D01*
X97029810Y-64814350D01*
X96916770Y-64871950D01*
X96827060Y-64961660D01*
X96769470Y-65074700D01*
X96754610Y-65168480D01*
X96754610Y-66831520D01*
X83400500Y-66831520D01*
X83400500Y-66041440D01*
X83402050Y-66021730D01*
X83403940Y-66009790D01*
X83405490Y-66000000D01*
X83403560Y-65987830D01*
X83402130Y-65962620D01*
X83417760Y-65604620D01*
X83418720Y-65593670D01*
X83469660Y-65206750D01*
X83471570Y-65195930D01*
X83477650Y-65168480D01*
X83556030Y-64814930D01*
X83558880Y-64804320D01*
X83560400Y-64799500D01*
X83676230Y-64432120D01*
X83679990Y-64421800D01*
X83829330Y-64061240D01*
X83833970Y-64051300D01*
X84014180Y-63705120D01*
X84019670Y-63695610D01*
X84229360Y-63366470D01*
X84235660Y-63357470D01*
X84473230Y-63047860D01*
X84480290Y-63039440D01*
X84743950Y-62751720D01*
X84751720Y-62743950D01*
X85039440Y-62480290D01*
X85047860Y-62473230D01*
X85357470Y-62235660D01*
X85366470Y-62229360D01*
X85695610Y-62019670D01*
X85705120Y-62014180D01*
X86051300Y-61833970D01*
X86061230Y-61829340D01*
X86421810Y-61679980D01*
X86432120Y-61676230D01*
X86804320Y-61558880D01*
X86814930Y-61556030D01*
X87195930Y-61471570D01*
X87206750Y-61469660D01*
X87593670Y-61418720D01*
X87604620Y-61417760D01*
X87962620Y-61402130D01*
X87987830Y-61403560D01*
X88000000Y-61405490D01*
X88021730Y-61402050D01*
X88041440Y-61400500D01*
X112124000Y-61400500D01*
X112192120Y-61420500D01*
G37*
%TD.AperFunction*%
%TA.AperFunction,NonConductor*%
G36*
X125015340Y-69997000D02*
G01*
X125037020Y-70014610D01*
X125963800Y-70956220D01*
X125997330Y-71018800D01*
X126000000Y-71044610D01*
X126000000Y-77000000D01*
X127000000Y-78000000D01*
X133447810Y-78000000D01*
X133515930Y-78020000D01*
X133536910Y-78036910D01*
X133963100Y-78463100D01*
X133997120Y-78525410D01*
X134000000Y-78552190D01*
X134000000Y-83512730D01*
X133980000Y-83580850D01*
X133961790Y-83603110D01*
X133513670Y-84038380D01*
X133450870Y-84071500D01*
X133425880Y-84074000D01*
X119051190Y-84074000D01*
X118983070Y-84054000D01*
X118962100Y-84037100D01*
X118527910Y-83602910D01*
X118493880Y-83540590D01*
X118491000Y-83513810D01*
X118491000Y-82348260D01*
X118511000Y-82280140D01*
X118527990Y-82259080D01*
X118963110Y-81824820D01*
X119025460Y-81790850D01*
X119052120Y-81788000D01*
X121500000Y-81788000D01*
X121613760Y-81682350D01*
X122033730Y-81292330D01*
X122047000Y-81280000D01*
X122000000Y-78500000D01*
X121500000Y-78000000D01*
X119052190Y-78000000D01*
X118984070Y-77980000D01*
X118963100Y-77963100D01*
X118536910Y-77536910D01*
X118502880Y-77474590D01*
X118500000Y-77447810D01*
X118500000Y-70536610D01*
X118520000Y-70468490D01*
X118536200Y-70448220D01*
X118962980Y-70014610D01*
X119025020Y-69980100D01*
X119052780Y-69977000D01*
X124947220Y-69977000D01*
X125015340Y-69997000D01*
G37*
%TD.AperFunction*%
%TA.AperFunction,NonConductor*%
G36*
X148605930Y-75585000D02*
G01*
X148626910Y-75601910D01*
X149188100Y-76163100D01*
X149222120Y-76225410D01*
X149225000Y-76252190D01*
X149225000Y-88900000D01*
X150495000Y-90170000D01*
X158624000Y-90170000D01*
X158692120Y-90190000D01*
X158738610Y-90243660D01*
X158750000Y-90296000D01*
X158750000Y-93854000D01*
X158730000Y-93922120D01*
X158676340Y-93968610D01*
X158624000Y-93980000D01*
X146356190Y-93980000D01*
X146288070Y-93960000D01*
X146267100Y-93943100D01*
X144435910Y-92111910D01*
X144401880Y-92049590D01*
X144399000Y-92022810D01*
X144399000Y-76252190D01*
X144419000Y-76184070D01*
X144435910Y-76163100D01*
X144997100Y-75601910D01*
X145059410Y-75567880D01*
X145086190Y-75565000D01*
X148537810Y-75565000D01*
X148605930Y-75585000D01*
G37*
%TD.AperFunction*%
%TA.AperFunction,NonConductor*%
G36*
X143271930Y-75585000D02*
G01*
X143292910Y-75601910D01*
X143854100Y-76163100D01*
X143888120Y-76225410D01*
X143891000Y-76252190D01*
X143891000Y-92022810D01*
X143871000Y-92090930D01*
X143854100Y-92111910D01*
X142022910Y-93943100D01*
X141960590Y-93977120D01*
X141933810Y-93980000D01*
X129666000Y-93980000D01*
X129597880Y-93960000D01*
X129551390Y-93906340D01*
X129540000Y-93854000D01*
X129540000Y-90296000D01*
X129560000Y-90227880D01*
X129613660Y-90181390D01*
X129666000Y-90170000D01*
X137795000Y-90170000D01*
X139065000Y-88900000D01*
X139065000Y-76252190D01*
X139085000Y-76184070D01*
X139101910Y-76163100D01*
X139663100Y-75601910D01*
X139725410Y-75567880D01*
X139752190Y-75565000D01*
X143203810Y-75565000D01*
X143271930Y-75585000D01*
G37*
%TD.AperFunction*%
%TA.AperFunction,NonConductor*%
G36*
X161515930Y-64520000D02*
G01*
X161536910Y-64536910D01*
X161963100Y-64963100D01*
X161997120Y-65025410D01*
X162000000Y-65052190D01*
X162000000Y-67947810D01*
X161980000Y-68015930D01*
X161963100Y-68036910D01*
X161536910Y-68463100D01*
X161474590Y-68497120D01*
X161447810Y-68500000D01*
X130000000Y-68500000D01*
X129196050Y-69426310D01*
X129136300Y-69464640D01*
X129102470Y-69469710D01*
X119053040Y-69595340D01*
X118984670Y-69576190D01*
X118962460Y-69558530D01*
X118528360Y-69125290D01*
X118494280Y-69063010D01*
X118491370Y-69035210D01*
X118499640Y-67869090D01*
X118520120Y-67801110D01*
X118535840Y-67781590D01*
X118962980Y-67347620D01*
X119025020Y-67313100D01*
X119052780Y-67310000D01*
X121539000Y-67310000D01*
X122250000Y-66548000D01*
X122250000Y-65802190D01*
X122270000Y-65734070D01*
X122286910Y-65713100D01*
X123463100Y-64536910D01*
X123525410Y-64502880D01*
X123552190Y-64500000D01*
X161447810Y-64500000D01*
X161515930Y-64520000D01*
G37*
%TD.AperFunction*%
D18*
%TO.N,*%
X85600540Y-89999820D03*
X86304120Y-88303100D03*
X86304120Y-91696540D03*
X88000840Y-87599520D03*
X88000840Y-92400120D03*
X89697560Y-88303100D03*
X89697560Y-91696540D03*
X90401140Y-89999820D03*
X105600500Y-65999360D03*
X106304080Y-64302640D03*
X106304080Y-67696080D03*
X108000800Y-63599060D03*
X108000800Y-68399660D03*
X109697520Y-64302640D03*
X109697520Y-67696080D03*
X110401100Y-65999360D03*
X169600880Y-65999360D03*
X169600880Y-89999820D03*
X170301920Y-64302640D03*
X170301920Y-67696080D03*
X170301920Y-88303100D03*
X170301920Y-91696540D03*
X172001180Y-63599060D03*
X172001180Y-68399660D03*
X172001180Y-87599520D03*
X172001180Y-92400120D03*
X173697900Y-64302640D03*
X173697900Y-67696080D03*
X173697900Y-88303100D03*
X173697900Y-91696540D03*
X174398940Y-65999360D03*
X174398940Y-89999820D03*
D19*
X93179900Y-70919340D03*
X93179900Y-73459340D03*
X93179900Y-75999340D03*
X93179900Y-78539340D03*
X93179900Y-81079340D03*
X93179900Y-83619340D03*
X93179900Y-86159340D03*
X95956120Y-65999360D03*
X97955100Y-65999360D03*
X100799900Y-70919340D03*
X100799900Y-73459340D03*
X100799900Y-75999340D03*
X100799900Y-78539340D03*
X100799900Y-81079340D03*
X100799900Y-83619340D03*
X100799900Y-86159340D03*
X105001060Y-73499980D03*
X105001060Y-75498960D03*
X106499660Y-85498940D03*
X106499660Y-88999060D03*
X112953800Y-74500740D03*
X112999520Y-81998820D03*
X115493800Y-74500740D03*
X115539520Y-81998820D03*
X139999720Y-66499740D03*
X139999720Y-71501000D03*
D20*
X94592140Y-89349580D03*
X94592140Y-92649040D03*
X97091500Y-89349580D03*
X97091500Y-92649040D03*
X99593400Y-89349580D03*
X99593400Y-92649040D03*
D21*
X85999320Y-75999340D03*
X85999320Y-78501240D03*
X85999320Y-81000600D03*
D22*
X85999320Y-67500500D03*
X85999320Y-69999860D03*
X140401040Y-77500480D03*
X147899120Y-77500480D03*
D23*
X104312720Y-81000600D03*
X108122720Y-81000600D03*
X112377220Y-71000620D03*
X112377220Y-85498940D03*
X116187220Y-71000620D03*
X116187220Y-85498940D03*
X119999760Y-65913000D03*
X119999760Y-68453000D03*
X119999760Y-70993000D03*
X120081040Y-80391000D03*
X120081040Y-82931000D03*
X120081040Y-85471000D03*
D24*
X131500880Y-66675000D03*
X131500880Y-71676260D03*
X159999680Y-66675000D03*
X159999680Y-71676260D03*
X169999660Y-75676760D03*
X169999660Y-80675480D03*
D25*
X142163800Y-87734140D03*
X146126200Y-87734140D03*
X147396200Y-67020440D03*
X147396200Y-70980300D03*
D26*
X88000840Y-89999820D03*
X108000800Y-65999360D03*
X172001180Y-65999360D03*
X172001180Y-89999820D03*
%TD*%
D27*
%TO.N,*%
X104000000Y-87500000D02*
X105500000Y-89000000D01*
X102620000Y-83620000D02*
X104000000Y-85000000D01*
X104000000Y-85000000D02*
X104000000Y-87500000D01*
X100800000Y-83620000D02*
X102620000Y-83620000D01*
X105500000Y-89000000D02*
X106500000Y-89000000D01*
X108122820Y-81000000D02*
X108122820Y-74622820D01*
X108122820Y-74622820D02*
X107000000Y-73500000D01*
X107000000Y-73500000D02*
X105000000Y-73500000D01*
X93180000Y-78540000D02*
X94790000Y-78540000D01*
X94790000Y-78540000D02*
X97092500Y-80842500D01*
X97092500Y-80842500D02*
X97092500Y-89350000D01*
%TD*%
M02*
