%TF.GenerationSoftware,KiCad,Pcbnew,9.0.7*%
%TF.CreationDate,2026-03-27T01:08:22-07:00*%
%TF.ProjectId,Class D Potencia,436c6173-7320-4442-9050-6f74656e6369,rev?*%
%TF.SameCoordinates,Original*%
%TF.FileFunction,Copper,L2,Bot*%
%TF.FilePolarity,Positive*%
%FSLAX46Y46*%
G04 Gerber Fmt 4.6, Leading zero omitted, Abs format (unit mm)*
G04 Created by KiCad (PCBNEW 9.0.7) date 2026-03-27 01:08:22*
%MOMM*%
%LPD*%
G01*
G04 APERTURE LIST*
%TA.AperFunction,NonConductor*%
%ADD10C,0.400000*%
%TD*%
%TA.AperFunction,NonConductor*%
%ADD11C,3.200000*%
%TD*%
%TA.AperFunction,NonConductor*%
%ADD12C,0.800000*%
%TD*%
%TA.AperFunction,NonConductor*%
%ADD13C,0.000000*%
%TD*%
%TA.AperFunction,NonConductor*%
%ADD14C,1.200000*%
%TD*%
%TA.AperFunction,NonConductor*%
%ADD15C,1.000000*%
%TD*%
%TA.AperFunction,NonConductor*%
%ADD16C,1.100000*%
%TD*%
%TA.AperFunction,NonConductor*%
%ADD17C,0.700000*%
%TD*%
%TA.AperFunction,ViaPad*%
%ADD18C,0.500390*%
%TD*%
%TA.AperFunction,ViaPad*%
%ADD19C,0.800110*%
%TD*%
%TA.AperFunction,ViaPad*%
%ADD20C,0.899170*%
%TD*%
%TA.AperFunction,ViaPad*%
%ADD21C,0.949970*%
%TD*%
%TA.AperFunction,ViaPad*%
%ADD22C,1.000770*%
%TD*%
%TA.AperFunction,ViaPad*%
%ADD23C,1.099830*%
%TD*%
%TA.AperFunction,ViaPad*%
%ADD24C,1.198890*%
%TD*%
%TA.AperFunction,ViaPad*%
%ADD25C,1.699270*%
%TD*%
%TA.AperFunction,ViaPad*%
%ADD26C,3.200410*%
%TD*%
%TA.AperFunction,Conductor*%
%ADD27C,0.600000*%
%TD*%
%TA.AperFunction,Conductor*%
%ADD28C,1.000000*%
%TD*%
G04 APERTURE END LIST*
D10*
X172200000Y-63600000D02*
G75*
G02*
X171800000Y-63600000I-200000J0D01*
G01*
X171800000Y-63600000D02*
G75*
G02*
X172200000Y-63600000I200000J0D01*
G01*
X173897060Y-67697060D02*
G75*
G02*
X173497060Y-67697060I-200000J0D01*
G01*
X173497060Y-67697060D02*
G75*
G02*
X173897060Y-67697060I200000J0D01*
G01*
X170502940Y-64302940D02*
G75*
G02*
X170102940Y-64302940I-200000J0D01*
G01*
X170102940Y-64302940D02*
G75*
G02*
X170502940Y-64302940I200000J0D01*
G01*
X170502940Y-67697060D02*
G75*
G02*
X170102940Y-67697060I-200000J0D01*
G01*
X170102940Y-67697060D02*
G75*
G02*
X170502940Y-67697060I200000J0D01*
G01*
X173897060Y-64302940D02*
G75*
G02*
X173497060Y-64302940I-200000J0D01*
G01*
X173497060Y-64302940D02*
G75*
G02*
X173897060Y-64302940I200000J0D01*
G01*
D11*
X173600000Y-66000000D02*
G75*
G02*
X170400000Y-66000000I-1600000J0D01*
G01*
X170400000Y-66000000D02*
G75*
G02*
X173600000Y-66000000I1600000J0D01*
G01*
D10*
X174600000Y-66000000D02*
G75*
G02*
X174200000Y-66000000I-200000J0D01*
G01*
X174200000Y-66000000D02*
G75*
G02*
X174600000Y-66000000I200000J0D01*
G01*
X172200000Y-68400000D02*
G75*
G02*
X171800000Y-68400000I-200000J0D01*
G01*
X171800000Y-68400000D02*
G75*
G02*
X172200000Y-68400000I200000J0D01*
G01*
X169800000Y-66000000D02*
G75*
G02*
X169400000Y-66000000I-200000J0D01*
G01*
X169400000Y-66000000D02*
G75*
G02*
X169800000Y-66000000I200000J0D01*
G01*
D12*
X113355000Y-74500000D02*
G75*
G02*
X112555000Y-74500000I-400000J0D01*
G01*
X112555000Y-74500000D02*
G75*
G02*
X113355000Y-74500000I400000J0D01*
G01*
X115895000Y-74500000D02*
G75*
G02*
X115095000Y-74500000I-400000J0D01*
G01*
X115095000Y-74500000D02*
G75*
G02*
X115895000Y-74500000I400000J0D01*
G01*
D13*
%TA.AperFunction,NonConductor*%
G36*
X121000000Y-66865500D02*
G01*
X119000000Y-66865500D01*
X119000000Y-64960500D01*
X121000000Y-64960500D01*
X121000000Y-66865500D01*
G37*
%TD.AperFunction*%
%TA.AperFunction,NonConductor*%
G36*
X120140860Y-67505090D02*
G01*
X120233320Y-67518800D01*
X120324000Y-67541510D01*
X120412010Y-67573000D01*
X120496510Y-67612970D01*
X120576680Y-67661030D01*
X120651760Y-67716710D01*
X120721020Y-67779480D01*
X120783790Y-67848740D01*
X120839470Y-67923820D01*
X120887530Y-68003990D01*
X120927500Y-68088490D01*
X120958990Y-68176500D01*
X120981700Y-68267180D01*
X120995410Y-68359640D01*
X121000000Y-68453000D01*
X120995410Y-68546360D01*
X120981700Y-68638820D01*
X120958990Y-68729500D01*
X120927500Y-68817510D01*
X120887530Y-68902010D01*
X120839470Y-68982180D01*
X120783790Y-69057260D01*
X120721020Y-69126520D01*
X120651760Y-69189290D01*
X120576680Y-69244970D01*
X120496510Y-69293030D01*
X120412010Y-69333000D01*
X120324000Y-69364490D01*
X120233320Y-69387200D01*
X120140860Y-69400910D01*
X120047500Y-69405500D01*
X119952500Y-69405500D01*
X119859140Y-69400910D01*
X119766680Y-69387200D01*
X119676000Y-69364490D01*
X119587990Y-69333000D01*
X119503490Y-69293030D01*
X119423320Y-69244970D01*
X119348240Y-69189290D01*
X119278980Y-69126520D01*
X119216210Y-69057260D01*
X119160530Y-68982180D01*
X119112470Y-68902010D01*
X119072500Y-68817510D01*
X119041010Y-68729500D01*
X119018300Y-68638820D01*
X119004590Y-68546360D01*
X119000000Y-68453000D01*
X119004590Y-68359640D01*
X119018300Y-68267180D01*
X119041010Y-68176500D01*
X119072500Y-68088490D01*
X119112470Y-68003990D01*
X119160530Y-67923820D01*
X119216210Y-67848740D01*
X119278980Y-67779480D01*
X119348240Y-67716710D01*
X119423320Y-67661030D01*
X119503490Y-67612970D01*
X119587990Y-67573000D01*
X119676000Y-67541510D01*
X119766680Y-67518800D01*
X119859140Y-67505090D01*
X119952500Y-67500500D01*
X120000000Y-67500500D01*
X120047500Y-67500500D01*
X120140860Y-67505090D01*
G37*
%TD.AperFunction*%
%TA.AperFunction,NonConductor*%
G36*
X120140860Y-70045090D02*
G01*
X120233320Y-70058800D01*
X120324000Y-70081510D01*
X120412010Y-70113000D01*
X120496510Y-70152970D01*
X120576680Y-70201030D01*
X120651760Y-70256710D01*
X120721020Y-70319480D01*
X120783790Y-70388740D01*
X120839470Y-70463820D01*
X120887530Y-70543990D01*
X120927500Y-70628490D01*
X120958990Y-70716500D01*
X120981700Y-70807180D01*
X120995410Y-70899640D01*
X121000000Y-70993000D01*
X120995410Y-71086360D01*
X120981700Y-71178820D01*
X120958990Y-71269500D01*
X120927500Y-71357510D01*
X120887530Y-71442010D01*
X120839470Y-71522180D01*
X120783790Y-71597260D01*
X120721020Y-71666520D01*
X120651760Y-71729290D01*
X120576680Y-71784970D01*
X120496510Y-71833030D01*
X120412010Y-71873000D01*
X120324000Y-71904490D01*
X120233320Y-71927200D01*
X120140860Y-71940910D01*
X120047500Y-71945500D01*
X119952500Y-71945500D01*
X119859140Y-71940910D01*
X119766680Y-71927200D01*
X119676000Y-71904490D01*
X119587990Y-71873000D01*
X119503490Y-71833030D01*
X119423320Y-71784970D01*
X119348240Y-71729290D01*
X119278980Y-71666520D01*
X119216210Y-71597260D01*
X119160530Y-71522180D01*
X119112470Y-71442010D01*
X119072500Y-71357510D01*
X119041010Y-71269500D01*
X119018300Y-71178820D01*
X119004590Y-71086360D01*
X119000000Y-70993000D01*
X119004590Y-70899640D01*
X119018300Y-70807180D01*
X119041010Y-70716500D01*
X119072500Y-70628490D01*
X119112470Y-70543990D01*
X119160530Y-70463820D01*
X119216210Y-70388740D01*
X119278980Y-70319480D01*
X119348240Y-70256710D01*
X119423320Y-70201030D01*
X119503490Y-70152970D01*
X119587990Y-70113000D01*
X119676000Y-70081510D01*
X119766680Y-70058800D01*
X119859140Y-70045090D01*
X119952500Y-70040500D01*
X120000000Y-70040500D01*
X120047500Y-70040500D01*
X120140860Y-70045090D01*
G37*
%TD.AperFunction*%
%TA.AperFunction,NonConductor*%
G36*
X132700000Y-67876040D02*
G01*
X130300000Y-67876040D01*
X130300000Y-65476040D01*
X132700000Y-65476040D01*
X132700000Y-67876040D01*
G37*
%TD.AperFunction*%
D14*
X132100000Y-71676040D02*
G75*
G02*
X130900000Y-71676040I-600000J0D01*
G01*
X130900000Y-71676040D02*
G75*
G02*
X132100000Y-71676040I600000J0D01*
G01*
D10*
X88200000Y-87600000D02*
G75*
G02*
X87800000Y-87600000I-200000J0D01*
G01*
X87800000Y-87600000D02*
G75*
G02*
X88200000Y-87600000I200000J0D01*
G01*
D11*
X89600000Y-90000000D02*
G75*
G02*
X86400000Y-90000000I-1600000J0D01*
G01*
X86400000Y-90000000D02*
G75*
G02*
X89600000Y-90000000I1600000J0D01*
G01*
D10*
X90600000Y-90000000D02*
G75*
G02*
X90200000Y-90000000I-200000J0D01*
G01*
X90200000Y-90000000D02*
G75*
G02*
X90600000Y-90000000I200000J0D01*
G01*
X86502940Y-91697060D02*
G75*
G02*
X86102940Y-91697060I-200000J0D01*
G01*
X86102940Y-91697060D02*
G75*
G02*
X86502940Y-91697060I200000J0D01*
G01*
X89897060Y-88302940D02*
G75*
G02*
X89497060Y-88302940I-200000J0D01*
G01*
X89497060Y-88302940D02*
G75*
G02*
X89897060Y-88302940I200000J0D01*
G01*
X86502940Y-88302940D02*
G75*
G02*
X86102940Y-88302940I-200000J0D01*
G01*
X86102940Y-88302940D02*
G75*
G02*
X86502940Y-88302940I200000J0D01*
G01*
X88200000Y-92400000D02*
G75*
G02*
X87800000Y-92400000I-200000J0D01*
G01*
X87800000Y-92400000D02*
G75*
G02*
X88200000Y-92400000I200000J0D01*
G01*
X89897060Y-91697060D02*
G75*
G02*
X89497060Y-91697060I-200000J0D01*
G01*
X89497060Y-91697060D02*
G75*
G02*
X89897060Y-91697060I200000J0D01*
G01*
X85800000Y-90000000D02*
G75*
G02*
X85400000Y-90000000I-200000J0D01*
G01*
X85400000Y-90000000D02*
G75*
G02*
X85800000Y-90000000I200000J0D01*
G01*
D15*
X140900000Y-77500000D02*
G75*
G02*
X139900000Y-77500000I-500000J0D01*
G01*
X139900000Y-77500000D02*
G75*
G02*
X140900000Y-77500000I500000J0D01*
G01*
X148400000Y-77500000D02*
G75*
G02*
X147400000Y-77500000I-500000J0D01*
G01*
X147400000Y-77500000D02*
G75*
G02*
X148400000Y-77500000I500000J0D01*
G01*
D13*
%TA.AperFunction,NonConductor*%
G36*
X161200000Y-67876040D02*
G01*
X158800000Y-67876040D01*
X158800000Y-65476040D01*
X161200000Y-65476040D01*
X161200000Y-67876040D01*
G37*
%TD.AperFunction*%
D14*
X160600000Y-71676040D02*
G75*
G02*
X159400000Y-71676040I-600000J0D01*
G01*
X159400000Y-71676040D02*
G75*
G02*
X160600000Y-71676040I600000J0D01*
G01*
D10*
X173897060Y-91697060D02*
G75*
G02*
X173497060Y-91697060I-200000J0D01*
G01*
X173497060Y-91697060D02*
G75*
G02*
X173897060Y-91697060I200000J0D01*
G01*
D11*
X173600000Y-90000000D02*
G75*
G02*
X170400000Y-90000000I-1600000J0D01*
G01*
X170400000Y-90000000D02*
G75*
G02*
X173600000Y-90000000I1600000J0D01*
G01*
D10*
X174600000Y-90000000D02*
G75*
G02*
X174200000Y-90000000I-200000J0D01*
G01*
X174200000Y-90000000D02*
G75*
G02*
X174600000Y-90000000I200000J0D01*
G01*
X170502940Y-88302940D02*
G75*
G02*
X170102940Y-88302940I-200000J0D01*
G01*
X170102940Y-88302940D02*
G75*
G02*
X170502940Y-88302940I200000J0D01*
G01*
X170502940Y-91697060D02*
G75*
G02*
X170102940Y-91697060I-200000J0D01*
G01*
X170102940Y-91697060D02*
G75*
G02*
X170502940Y-91697060I200000J0D01*
G01*
X169800000Y-90000000D02*
G75*
G02*
X169400000Y-90000000I-200000J0D01*
G01*
X169400000Y-90000000D02*
G75*
G02*
X169800000Y-90000000I200000J0D01*
G01*
X172200000Y-87600000D02*
G75*
G02*
X171800000Y-87600000I-200000J0D01*
G01*
X171800000Y-87600000D02*
G75*
G02*
X172200000Y-87600000I200000J0D01*
G01*
X173897060Y-88302940D02*
G75*
G02*
X173497060Y-88302940I-200000J0D01*
G01*
X173497060Y-88302940D02*
G75*
G02*
X173897060Y-88302940I200000J0D01*
G01*
X172200000Y-92400000D02*
G75*
G02*
X171800000Y-92400000I-200000J0D01*
G01*
X171800000Y-92400000D02*
G75*
G02*
X172200000Y-92400000I200000J0D01*
G01*
D13*
%TA.AperFunction,NonConductor*%
G36*
X86774500Y-69151200D02*
G01*
X86798770Y-69154800D01*
X86822570Y-69160760D01*
X86845670Y-69169030D01*
X86867850Y-69179520D01*
X86888890Y-69192130D01*
X86908600Y-69206750D01*
X86926780Y-69223220D01*
X86943250Y-69241400D01*
X86957870Y-69261110D01*
X86970480Y-69282150D01*
X86980970Y-69304330D01*
X86989240Y-69327430D01*
X86995200Y-69351230D01*
X86998800Y-69375500D01*
X87000000Y-69400000D01*
X87000000Y-70600000D01*
X86998800Y-70624500D01*
X86995200Y-70648770D01*
X86989240Y-70672570D01*
X86980970Y-70695670D01*
X86970480Y-70717850D01*
X86957870Y-70738890D01*
X86943250Y-70758600D01*
X86926780Y-70776780D01*
X86908600Y-70793250D01*
X86888890Y-70807870D01*
X86867850Y-70820480D01*
X86845670Y-70830970D01*
X86822570Y-70839240D01*
X86798770Y-70845200D01*
X86774500Y-70848800D01*
X86750000Y-70850000D01*
X85250000Y-70850000D01*
X85225500Y-70848800D01*
X85201230Y-70845200D01*
X85177430Y-70839240D01*
X85154330Y-70830970D01*
X85132150Y-70820480D01*
X85111110Y-70807870D01*
X85091400Y-70793250D01*
X85073220Y-70776780D01*
X85056750Y-70758600D01*
X85042130Y-70738890D01*
X85029520Y-70717850D01*
X85019030Y-70695670D01*
X85010760Y-70672570D01*
X85004800Y-70648770D01*
X85001200Y-70624500D01*
X85000000Y-70600000D01*
X85000000Y-69400000D01*
X85001200Y-69375500D01*
X85004800Y-69351230D01*
X85010760Y-69327430D01*
X85019030Y-69304330D01*
X85029520Y-69282150D01*
X85042130Y-69261110D01*
X85056750Y-69241400D01*
X85073220Y-69223220D01*
X85091400Y-69206750D01*
X85111110Y-69192130D01*
X85132150Y-69179520D01*
X85154330Y-69169030D01*
X85177430Y-69160760D01*
X85201230Y-69154800D01*
X85225500Y-69151200D01*
X85250000Y-69150000D01*
X86750000Y-69150000D01*
X86774500Y-69151200D01*
G37*
%TD.AperFunction*%
%TA.AperFunction,NonConductor*%
G36*
X86233310Y-66654090D02*
G01*
X86315830Y-66666330D01*
X86396740Y-66686600D01*
X86475280Y-66714700D01*
X86550690Y-66750370D01*
X86622230Y-66793250D01*
X86689230Y-66842940D01*
X86751040Y-66898960D01*
X86807060Y-66960770D01*
X86856750Y-67027770D01*
X86899630Y-67099310D01*
X86935300Y-67174720D01*
X86963400Y-67253260D01*
X86983670Y-67334170D01*
X86995910Y-67416690D01*
X87000000Y-67500000D01*
X86995910Y-67583310D01*
X86983670Y-67665830D01*
X86963400Y-67746740D01*
X86935300Y-67825280D01*
X86899630Y-67900690D01*
X86856750Y-67972230D01*
X86807060Y-68039230D01*
X86751040Y-68101040D01*
X86689230Y-68157060D01*
X86622230Y-68206750D01*
X86550690Y-68249630D01*
X86475280Y-68285300D01*
X86396740Y-68313400D01*
X86315830Y-68333670D01*
X86233310Y-68345910D01*
X86150000Y-68350000D01*
X85850000Y-68350000D01*
X85766690Y-68345910D01*
X85684170Y-68333670D01*
X85603260Y-68313400D01*
X85524720Y-68285300D01*
X85449310Y-68249630D01*
X85377770Y-68206750D01*
X85310770Y-68157060D01*
X85248960Y-68101040D01*
X85192940Y-68039230D01*
X85143250Y-67972230D01*
X85100370Y-67900690D01*
X85064700Y-67825280D01*
X85036600Y-67746740D01*
X85016330Y-67665830D01*
X85004090Y-67583310D01*
X85000000Y-67500000D01*
X85004090Y-67416690D01*
X85016330Y-67334170D01*
X85036600Y-67253260D01*
X85064700Y-67174720D01*
X85100370Y-67099310D01*
X85143250Y-67027770D01*
X85192940Y-66960770D01*
X85248960Y-66898960D01*
X85310770Y-66842940D01*
X85377770Y-66793250D01*
X85449310Y-66750370D01*
X85524720Y-66714700D01*
X85603260Y-66686600D01*
X85684170Y-66666330D01*
X85766690Y-66654090D01*
X85850000Y-66650000D01*
X86000000Y-66650000D01*
X86150000Y-66650000D01*
X86233310Y-66654090D01*
G37*
%TD.AperFunction*%
%TA.AperFunction,NonConductor*%
G36*
X98755110Y-66800000D02*
G01*
X97155110Y-66800000D01*
X97155110Y-65200000D01*
X98755110Y-65200000D01*
X98755110Y-66800000D01*
G37*
%TD.AperFunction*%
D12*
X96355110Y-66000000D02*
G75*
G02*
X95555110Y-66000000I-400000J0D01*
G01*
X95555110Y-66000000D02*
G75*
G02*
X96355110Y-66000000I400000J0D01*
G01*
D13*
%TA.AperFunction,NonConductor*%
G36*
X121080000Y-81343500D02*
G01*
X119080000Y-81343500D01*
X119080000Y-79438500D01*
X121080000Y-79438500D01*
X121080000Y-81343500D01*
G37*
%TD.AperFunction*%
%TA.AperFunction,NonConductor*%
G36*
X120220860Y-81983090D02*
G01*
X120313320Y-81996800D01*
X120404000Y-82019510D01*
X120492010Y-82051000D01*
X120576510Y-82090970D01*
X120656680Y-82139030D01*
X120731760Y-82194710D01*
X120801020Y-82257480D01*
X120863790Y-82326740D01*
X120919470Y-82401820D01*
X120967530Y-82481990D01*
X121007500Y-82566490D01*
X121038990Y-82654500D01*
X121061700Y-82745180D01*
X121075410Y-82837640D01*
X121080000Y-82931000D01*
X121075410Y-83024360D01*
X121061700Y-83116820D01*
X121038990Y-83207500D01*
X121007500Y-83295510D01*
X120967530Y-83380010D01*
X120919470Y-83460180D01*
X120863790Y-83535260D01*
X120801020Y-83604520D01*
X120731760Y-83667290D01*
X120656680Y-83722970D01*
X120576510Y-83771030D01*
X120492010Y-83811000D01*
X120404000Y-83842490D01*
X120313320Y-83865200D01*
X120220860Y-83878910D01*
X120127500Y-83883500D01*
X120032500Y-83883500D01*
X119939140Y-83878910D01*
X119846680Y-83865200D01*
X119756000Y-83842490D01*
X119667990Y-83811000D01*
X119583490Y-83771030D01*
X119503320Y-83722970D01*
X119428240Y-83667290D01*
X119358980Y-83604520D01*
X119296210Y-83535260D01*
X119240530Y-83460180D01*
X119192470Y-83380010D01*
X119152500Y-83295510D01*
X119121010Y-83207500D01*
X119098300Y-83116820D01*
X119084590Y-83024360D01*
X119080000Y-82931000D01*
X119084590Y-82837640D01*
X119098300Y-82745180D01*
X119121010Y-82654500D01*
X119152500Y-82566490D01*
X119192470Y-82481990D01*
X119240530Y-82401820D01*
X119296210Y-82326740D01*
X119358980Y-82257480D01*
X119428240Y-82194710D01*
X119503320Y-82139030D01*
X119583490Y-82090970D01*
X119667990Y-82051000D01*
X119756000Y-82019510D01*
X119846680Y-81996800D01*
X119939140Y-81983090D01*
X120032500Y-81978500D01*
X120080000Y-81978500D01*
X120127500Y-81978500D01*
X120220860Y-81983090D01*
G37*
%TD.AperFunction*%
%TA.AperFunction,NonConductor*%
G36*
X120220860Y-84523090D02*
G01*
X120313320Y-84536800D01*
X120404000Y-84559510D01*
X120492010Y-84591000D01*
X120576510Y-84630970D01*
X120656680Y-84679030D01*
X120731760Y-84734710D01*
X120801020Y-84797480D01*
X120863790Y-84866740D01*
X120919470Y-84941820D01*
X120967530Y-85021990D01*
X121007500Y-85106490D01*
X121038990Y-85194500D01*
X121061700Y-85285180D01*
X121075410Y-85377640D01*
X121080000Y-85471000D01*
X121075410Y-85564360D01*
X121061700Y-85656820D01*
X121038990Y-85747500D01*
X121007500Y-85835510D01*
X120967530Y-85920010D01*
X120919470Y-86000180D01*
X120863790Y-86075260D01*
X120801020Y-86144520D01*
X120731760Y-86207290D01*
X120656680Y-86262970D01*
X120576510Y-86311030D01*
X120492010Y-86351000D01*
X120404000Y-86382490D01*
X120313320Y-86405200D01*
X120220860Y-86418910D01*
X120127500Y-86423500D01*
X120032500Y-86423500D01*
X119939140Y-86418910D01*
X119846680Y-86405200D01*
X119756000Y-86382490D01*
X119667990Y-86351000D01*
X119583490Y-86311030D01*
X119503320Y-86262970D01*
X119428240Y-86207290D01*
X119358980Y-86144520D01*
X119296210Y-86075260D01*
X119240530Y-86000180D01*
X119192470Y-85920010D01*
X119152500Y-85835510D01*
X119121010Y-85747500D01*
X119098300Y-85656820D01*
X119084590Y-85564360D01*
X119080000Y-85471000D01*
X119084590Y-85377640D01*
X119098300Y-85285180D01*
X119121010Y-85194500D01*
X119152500Y-85106490D01*
X119192470Y-85021990D01*
X119240530Y-84941820D01*
X119296210Y-84866740D01*
X119358980Y-84797480D01*
X119428240Y-84734710D01*
X119503320Y-84679030D01*
X119583490Y-84630970D01*
X119667990Y-84591000D01*
X119756000Y-84559510D01*
X119846680Y-84536800D01*
X119939140Y-84523090D01*
X120032500Y-84518500D01*
X120080000Y-84518500D01*
X120127500Y-84518500D01*
X120220860Y-84523090D01*
G37*
%TD.AperFunction*%
%TA.AperFunction,NonConductor*%
G36*
X101600000Y-86960000D02*
G01*
X100000000Y-86960000D01*
X100000000Y-85360000D01*
X101600000Y-85360000D01*
X101600000Y-86960000D01*
G37*
%TD.AperFunction*%
D12*
X101200000Y-83620000D02*
G75*
G02*
X100400000Y-83620000I-400000J0D01*
G01*
X100400000Y-83620000D02*
G75*
G02*
X101200000Y-83620000I400000J0D01*
G01*
X101200000Y-81080000D02*
G75*
G02*
X100400000Y-81080000I-400000J0D01*
G01*
X100400000Y-81080000D02*
G75*
G02*
X101200000Y-81080000I400000J0D01*
G01*
X101200000Y-78540000D02*
G75*
G02*
X100400000Y-78540000I-400000J0D01*
G01*
X100400000Y-78540000D02*
G75*
G02*
X101200000Y-78540000I400000J0D01*
G01*
X101200000Y-76000000D02*
G75*
G02*
X100400000Y-76000000I-400000J0D01*
G01*
X100400000Y-76000000D02*
G75*
G02*
X101200000Y-76000000I400000J0D01*
G01*
X101200000Y-73460000D02*
G75*
G02*
X100400000Y-73460000I-400000J0D01*
G01*
X100400000Y-73460000D02*
G75*
G02*
X101200000Y-73460000I400000J0D01*
G01*
X101200000Y-70920000D02*
G75*
G02*
X100400000Y-70920000I-400000J0D01*
G01*
X100400000Y-70920000D02*
G75*
G02*
X101200000Y-70920000I400000J0D01*
G01*
X93580000Y-70920000D02*
G75*
G02*
X92780000Y-70920000I-400000J0D01*
G01*
X92780000Y-70920000D02*
G75*
G02*
X93580000Y-70920000I400000J0D01*
G01*
X93580000Y-73460000D02*
G75*
G02*
X92780000Y-73460000I-400000J0D01*
G01*
X92780000Y-73460000D02*
G75*
G02*
X93580000Y-73460000I400000J0D01*
G01*
X93580000Y-76000000D02*
G75*
G02*
X92780000Y-76000000I-400000J0D01*
G01*
X92780000Y-76000000D02*
G75*
G02*
X93580000Y-76000000I400000J0D01*
G01*
X93580000Y-78540000D02*
G75*
G02*
X92780000Y-78540000I-400000J0D01*
G01*
X92780000Y-78540000D02*
G75*
G02*
X93580000Y-78540000I400000J0D01*
G01*
X93580000Y-81080000D02*
G75*
G02*
X92780000Y-81080000I-400000J0D01*
G01*
X92780000Y-81080000D02*
G75*
G02*
X93580000Y-81080000I400000J0D01*
G01*
X93580000Y-83620000D02*
G75*
G02*
X92780000Y-83620000I-400000J0D01*
G01*
X92780000Y-83620000D02*
G75*
G02*
X93580000Y-83620000I400000J0D01*
G01*
X93580000Y-86160000D02*
G75*
G02*
X92780000Y-86160000I-400000J0D01*
G01*
X92780000Y-86160000D02*
G75*
G02*
X93580000Y-86160000I400000J0D01*
G01*
D13*
%TA.AperFunction,NonConductor*%
G36*
X113477180Y-72100000D02*
G01*
X111277180Y-72100000D01*
X111277180Y-69900000D01*
X113477180Y-69900000D01*
X113477180Y-72100000D01*
G37*
%TD.AperFunction*%
D16*
X116737180Y-71000000D02*
G75*
G02*
X115637180Y-71000000I-550000J0D01*
G01*
X115637180Y-71000000D02*
G75*
G02*
X116737180Y-71000000I550000J0D01*
G01*
D12*
X140400000Y-71500000D02*
G75*
G02*
X139600000Y-71500000I-400000J0D01*
G01*
X139600000Y-71500000D02*
G75*
G02*
X140400000Y-71500000I400000J0D01*
G01*
X140400000Y-66500000D02*
G75*
G02*
X139600000Y-66500000I-400000J0D01*
G01*
X139600000Y-66500000D02*
G75*
G02*
X140400000Y-66500000I400000J0D01*
G01*
D13*
%TA.AperFunction,NonConductor*%
G36*
X86749500Y-80151200D02*
G01*
X86773770Y-80154800D01*
X86797570Y-80160760D01*
X86820670Y-80169030D01*
X86842850Y-80179520D01*
X86863890Y-80192130D01*
X86883600Y-80206750D01*
X86901780Y-80223220D01*
X86918250Y-80241400D01*
X86932870Y-80261110D01*
X86945480Y-80282150D01*
X86955970Y-80304330D01*
X86964240Y-80327430D01*
X86970200Y-80351230D01*
X86973800Y-80375500D01*
X86975000Y-80400000D01*
X86975000Y-81600000D01*
X86973800Y-81624500D01*
X86970200Y-81648770D01*
X86964240Y-81672570D01*
X86955970Y-81695670D01*
X86945480Y-81717850D01*
X86932870Y-81738890D01*
X86918250Y-81758600D01*
X86901780Y-81776780D01*
X86883600Y-81793250D01*
X86863890Y-81807870D01*
X86842850Y-81820480D01*
X86820670Y-81830970D01*
X86797570Y-81839240D01*
X86773770Y-81845200D01*
X86749500Y-81848800D01*
X86725000Y-81850000D01*
X85275000Y-81850000D01*
X85250500Y-81848800D01*
X85226230Y-81845200D01*
X85202430Y-81839240D01*
X85179330Y-81830970D01*
X85157150Y-81820480D01*
X85136110Y-81807870D01*
X85116400Y-81793250D01*
X85098220Y-81776780D01*
X85081750Y-81758600D01*
X85067130Y-81738890D01*
X85054520Y-81717850D01*
X85044030Y-81695670D01*
X85035760Y-81672570D01*
X85029800Y-81648770D01*
X85026200Y-81624500D01*
X85025000Y-81600000D01*
X85025000Y-80400000D01*
X85026200Y-80375500D01*
X85029800Y-80351230D01*
X85035760Y-80327430D01*
X85044030Y-80304330D01*
X85054520Y-80282150D01*
X85067130Y-80261110D01*
X85081750Y-80241400D01*
X85098220Y-80223220D01*
X85116400Y-80206750D01*
X85136110Y-80192130D01*
X85157150Y-80179520D01*
X85179330Y-80169030D01*
X85202430Y-80160760D01*
X85226230Y-80154800D01*
X85250500Y-80151200D01*
X85275000Y-80150000D01*
X86725000Y-80150000D01*
X86749500Y-80151200D01*
G37*
%TD.AperFunction*%
%TA.AperFunction,NonConductor*%
G36*
X86208310Y-77654090D02*
G01*
X86290830Y-77666330D01*
X86371740Y-77686600D01*
X86450280Y-77714700D01*
X86525690Y-77750370D01*
X86597230Y-77793250D01*
X86664230Y-77842940D01*
X86726040Y-77898960D01*
X86782060Y-77960770D01*
X86831750Y-78027770D01*
X86874630Y-78099310D01*
X86910300Y-78174720D01*
X86938400Y-78253260D01*
X86958670Y-78334170D01*
X86970910Y-78416690D01*
X86975000Y-78500000D01*
X86970910Y-78583310D01*
X86958670Y-78665830D01*
X86938400Y-78746740D01*
X86910300Y-78825280D01*
X86874630Y-78900690D01*
X86831750Y-78972230D01*
X86782060Y-79039230D01*
X86726040Y-79101040D01*
X86664230Y-79157060D01*
X86597230Y-79206750D01*
X86525690Y-79249630D01*
X86450280Y-79285300D01*
X86371740Y-79313400D01*
X86290830Y-79333670D01*
X86208310Y-79345910D01*
X86125000Y-79350000D01*
X85875000Y-79350000D01*
X85791690Y-79345910D01*
X85709170Y-79333670D01*
X85628260Y-79313400D01*
X85549720Y-79285300D01*
X85474310Y-79249630D01*
X85402770Y-79206750D01*
X85335770Y-79157060D01*
X85273960Y-79101040D01*
X85217940Y-79039230D01*
X85168250Y-78972230D01*
X85125370Y-78900690D01*
X85089700Y-78825280D01*
X85061600Y-78746740D01*
X85041330Y-78665830D01*
X85029090Y-78583310D01*
X85025000Y-78500000D01*
X85029090Y-78416690D01*
X85041330Y-78334170D01*
X85061600Y-78253260D01*
X85089700Y-78174720D01*
X85125370Y-78099310D01*
X85168250Y-78027770D01*
X85217940Y-77960770D01*
X85273960Y-77898960D01*
X85335770Y-77842940D01*
X85402770Y-77793250D01*
X85474310Y-77750370D01*
X85549720Y-77714700D01*
X85628260Y-77686600D01*
X85709170Y-77666330D01*
X85791690Y-77654090D01*
X85875000Y-77650000D01*
X86000000Y-77650000D01*
X86125000Y-77650000D01*
X86208310Y-77654090D01*
G37*
%TD.AperFunction*%
%TA.AperFunction,NonConductor*%
G36*
X86208310Y-75154090D02*
G01*
X86290830Y-75166330D01*
X86371740Y-75186600D01*
X86450280Y-75214700D01*
X86525690Y-75250370D01*
X86597230Y-75293250D01*
X86664230Y-75342940D01*
X86726040Y-75398960D01*
X86782060Y-75460770D01*
X86831750Y-75527770D01*
X86874630Y-75599310D01*
X86910300Y-75674720D01*
X86938400Y-75753260D01*
X86958670Y-75834170D01*
X86970910Y-75916690D01*
X86975000Y-76000000D01*
X86970910Y-76083310D01*
X86958670Y-76165830D01*
X86938400Y-76246740D01*
X86910300Y-76325280D01*
X86874630Y-76400690D01*
X86831750Y-76472230D01*
X86782060Y-76539230D01*
X86726040Y-76601040D01*
X86664230Y-76657060D01*
X86597230Y-76706750D01*
X86525690Y-76749630D01*
X86450280Y-76785300D01*
X86371740Y-76813400D01*
X86290830Y-76833670D01*
X86208310Y-76845910D01*
X86125000Y-76850000D01*
X85875000Y-76850000D01*
X85791690Y-76845910D01*
X85709170Y-76833670D01*
X85628260Y-76813400D01*
X85549720Y-76785300D01*
X85474310Y-76749630D01*
X85402770Y-76706750D01*
X85335770Y-76657060D01*
X85273960Y-76601040D01*
X85217940Y-76539230D01*
X85168250Y-76472230D01*
X85125370Y-76400690D01*
X85089700Y-76325280D01*
X85061600Y-76246740D01*
X85041330Y-76165830D01*
X85029090Y-76083310D01*
X85025000Y-76000000D01*
X85029090Y-75916690D01*
X85041330Y-75834170D01*
X85061600Y-75753260D01*
X85089700Y-75674720D01*
X85125370Y-75599310D01*
X85168250Y-75527770D01*
X85217940Y-75460770D01*
X85273960Y-75398960D01*
X85335770Y-75342940D01*
X85402770Y-75293250D01*
X85474310Y-75250370D01*
X85549720Y-75214700D01*
X85628260Y-75186600D01*
X85709170Y-75166330D01*
X85791690Y-75154090D01*
X85875000Y-75150000D01*
X86000000Y-75150000D01*
X86125000Y-75150000D01*
X86208310Y-75154090D01*
G37*
%TD.AperFunction*%
%TA.AperFunction,NonConductor*%
G36*
X143519500Y-85686200D02*
G01*
X143543770Y-85689800D01*
X143567570Y-85695760D01*
X143590670Y-85704030D01*
X143612850Y-85714520D01*
X143633890Y-85727130D01*
X143653600Y-85741750D01*
X143671780Y-85758220D01*
X143688250Y-85776400D01*
X143702870Y-85796110D01*
X143715480Y-85817150D01*
X143725970Y-85839330D01*
X143734240Y-85862430D01*
X143740200Y-85886230D01*
X143743800Y-85910500D01*
X143745000Y-85935000D01*
X143745000Y-89535000D01*
X143743800Y-89559500D01*
X143740200Y-89583770D01*
X143734240Y-89607570D01*
X143725970Y-89630670D01*
X143715480Y-89652850D01*
X143702870Y-89673890D01*
X143688250Y-89693600D01*
X143671780Y-89711780D01*
X143653600Y-89728250D01*
X143633890Y-89742870D01*
X143612850Y-89755480D01*
X143590670Y-89765970D01*
X143567570Y-89774240D01*
X143543770Y-89780200D01*
X143519500Y-89783800D01*
X143495000Y-89785000D01*
X140835000Y-89785000D01*
X140810500Y-89783800D01*
X140786230Y-89780200D01*
X140762430Y-89774240D01*
X140739330Y-89765970D01*
X140717150Y-89755480D01*
X140696110Y-89742870D01*
X140676400Y-89728250D01*
X140658220Y-89711780D01*
X140641750Y-89693600D01*
X140627130Y-89673890D01*
X140614520Y-89652850D01*
X140604030Y-89630670D01*
X140595760Y-89607570D01*
X140589800Y-89583770D01*
X140586200Y-89559500D01*
X140585000Y-89535000D01*
X140585000Y-85935000D01*
X140586200Y-85910500D01*
X140589800Y-85886230D01*
X140595760Y-85862430D01*
X140604030Y-85839330D01*
X140614520Y-85817150D01*
X140627130Y-85796110D01*
X140641750Y-85776400D01*
X140658220Y-85758220D01*
X140676400Y-85741750D01*
X140696110Y-85727130D01*
X140717150Y-85714520D01*
X140739330Y-85704030D01*
X140762430Y-85695760D01*
X140786230Y-85689800D01*
X140810500Y-85686200D01*
X140835000Y-85685000D01*
X143495000Y-85685000D01*
X143519500Y-85686200D01*
G37*
%TD.AperFunction*%
%TA.AperFunction,NonConductor*%
G36*
X146279870Y-85692610D02*
G01*
X146433240Y-85715360D01*
X146583650Y-85753030D01*
X146729640Y-85805270D01*
X146869810Y-85871560D01*
X147002800Y-85951280D01*
X147127340Y-86043640D01*
X147242230Y-86147770D01*
X147346360Y-86262660D01*
X147438720Y-86387200D01*
X147518440Y-86520190D01*
X147584730Y-86660360D01*
X147636970Y-86806350D01*
X147674640Y-86956760D01*
X147697390Y-87110130D01*
X147705000Y-87265000D01*
X147705000Y-87735000D01*
X147705000Y-88205000D01*
X147697390Y-88359870D01*
X147674640Y-88513240D01*
X147636970Y-88663650D01*
X147584730Y-88809640D01*
X147518440Y-88949810D01*
X147438720Y-89082800D01*
X147346360Y-89207340D01*
X147242230Y-89322230D01*
X147127340Y-89426360D01*
X147002800Y-89518720D01*
X146869810Y-89598440D01*
X146729640Y-89664730D01*
X146583650Y-89716970D01*
X146433240Y-89754640D01*
X146279870Y-89777390D01*
X146125000Y-89785000D01*
X145970130Y-89777390D01*
X145816760Y-89754640D01*
X145666350Y-89716970D01*
X145520360Y-89664730D01*
X145380190Y-89598440D01*
X145247200Y-89518720D01*
X145122660Y-89426360D01*
X145007770Y-89322230D01*
X144903640Y-89207340D01*
X144811280Y-89082800D01*
X144731560Y-88949810D01*
X144665270Y-88809640D01*
X144613030Y-88663650D01*
X144575360Y-88513240D01*
X144552610Y-88359870D01*
X144545000Y-88205000D01*
X144545000Y-87265000D01*
X144552610Y-87110130D01*
X144575360Y-86956760D01*
X144613030Y-86806350D01*
X144665270Y-86660360D01*
X144731560Y-86520190D01*
X144811280Y-86387200D01*
X144903640Y-86262660D01*
X145007770Y-86147770D01*
X145122660Y-86043640D01*
X145247200Y-85951280D01*
X145380190Y-85871560D01*
X145520360Y-85805270D01*
X145666350Y-85753030D01*
X145816760Y-85715360D01*
X145970130Y-85692610D01*
X146125000Y-85685000D01*
X146279870Y-85692610D01*
G37*
%TD.AperFunction*%
%TA.AperFunction,NonConductor*%
G36*
X95292500Y-90050000D02*
G01*
X93892500Y-90050000D01*
X93892500Y-88650000D01*
X95292500Y-88650000D01*
X95292500Y-90050000D01*
G37*
%TD.AperFunction*%
D17*
X97442500Y-89350000D02*
G75*
G02*
X96742500Y-89350000I-350000J0D01*
G01*
X96742500Y-89350000D02*
G75*
G02*
X97442500Y-89350000I350000J0D01*
G01*
X99942500Y-89350000D02*
G75*
G02*
X99242500Y-89350000I-350000J0D01*
G01*
X99242500Y-89350000D02*
G75*
G02*
X99942500Y-89350000I350000J0D01*
G01*
X94942500Y-92650000D02*
G75*
G02*
X94242500Y-92650000I-350000J0D01*
G01*
X94242500Y-92650000D02*
G75*
G02*
X94942500Y-92650000I350000J0D01*
G01*
X97442500Y-92650000D02*
G75*
G02*
X96742500Y-92650000I-350000J0D01*
G01*
X96742500Y-92650000D02*
G75*
G02*
X97442500Y-92650000I350000J0D01*
G01*
X99942500Y-92650000D02*
G75*
G02*
X99242500Y-92650000I-350000J0D01*
G01*
X99242500Y-92650000D02*
G75*
G02*
X99942500Y-92650000I350000J0D01*
G01*
D13*
%TA.AperFunction,NonConductor*%
G36*
X149219500Y-65441200D02*
G01*
X149243770Y-65444800D01*
X149267570Y-65450760D01*
X149290670Y-65459030D01*
X149312850Y-65469520D01*
X149333890Y-65482130D01*
X149353600Y-65496750D01*
X149371780Y-65513220D01*
X149388250Y-65531400D01*
X149402870Y-65551110D01*
X149415480Y-65572150D01*
X149425970Y-65594330D01*
X149434240Y-65617430D01*
X149440200Y-65641230D01*
X149443800Y-65665500D01*
X149445000Y-65690000D01*
X149445000Y-68350000D01*
X149443800Y-68374500D01*
X149440200Y-68398770D01*
X149434240Y-68422570D01*
X149425970Y-68445670D01*
X149415480Y-68467850D01*
X149402870Y-68488890D01*
X149388250Y-68508600D01*
X149371780Y-68526780D01*
X149353600Y-68543250D01*
X149333890Y-68557870D01*
X149312850Y-68570480D01*
X149290670Y-68580970D01*
X149267570Y-68589240D01*
X149243770Y-68595200D01*
X149219500Y-68598800D01*
X149195000Y-68600000D01*
X145595000Y-68600000D01*
X145570500Y-68598800D01*
X145546230Y-68595200D01*
X145522430Y-68589240D01*
X145499330Y-68580970D01*
X145477150Y-68570480D01*
X145456110Y-68557870D01*
X145436400Y-68543250D01*
X145418220Y-68526780D01*
X145401750Y-68508600D01*
X145387130Y-68488890D01*
X145374520Y-68467850D01*
X145364030Y-68445670D01*
X145355760Y-68422570D01*
X145349800Y-68398770D01*
X145346200Y-68374500D01*
X145345000Y-68350000D01*
X145345000Y-65690000D01*
X145346200Y-65665500D01*
X145349800Y-65641230D01*
X145355760Y-65617430D01*
X145364030Y-65594330D01*
X145374520Y-65572150D01*
X145387130Y-65551110D01*
X145401750Y-65531400D01*
X145418220Y-65513220D01*
X145436400Y-65496750D01*
X145456110Y-65482130D01*
X145477150Y-65469520D01*
X145499330Y-65459030D01*
X145522430Y-65450760D01*
X145546230Y-65444800D01*
X145570500Y-65441200D01*
X145595000Y-65440000D01*
X149195000Y-65440000D01*
X149219500Y-65441200D01*
G37*
%TD.AperFunction*%
%TA.AperFunction,NonConductor*%
G36*
X148019870Y-69407610D02*
G01*
X148173240Y-69430360D01*
X148323650Y-69468030D01*
X148469640Y-69520270D01*
X148609810Y-69586560D01*
X148742800Y-69666280D01*
X148867340Y-69758640D01*
X148982230Y-69862770D01*
X149086360Y-69977660D01*
X149178720Y-70102200D01*
X149258440Y-70235190D01*
X149324730Y-70375360D01*
X149376970Y-70521350D01*
X149414640Y-70671760D01*
X149437390Y-70825130D01*
X149445000Y-70980000D01*
X149437390Y-71134870D01*
X149414640Y-71288240D01*
X149376970Y-71438650D01*
X149324730Y-71584640D01*
X149258440Y-71724810D01*
X149178720Y-71857800D01*
X149086360Y-71982340D01*
X148982230Y-72097230D01*
X148867340Y-72201360D01*
X148742800Y-72293720D01*
X148609810Y-72373440D01*
X148469640Y-72439730D01*
X148323650Y-72491970D01*
X148173240Y-72529640D01*
X148019870Y-72552390D01*
X147865000Y-72560000D01*
X146925000Y-72560000D01*
X146770130Y-72552390D01*
X146616760Y-72529640D01*
X146466350Y-72491970D01*
X146320360Y-72439730D01*
X146180190Y-72373440D01*
X146047200Y-72293720D01*
X145922660Y-72201360D01*
X145807770Y-72097230D01*
X145703640Y-71982340D01*
X145611280Y-71857800D01*
X145531560Y-71724810D01*
X145465270Y-71584640D01*
X145413030Y-71438650D01*
X145375360Y-71288240D01*
X145352610Y-71134870D01*
X145345000Y-70980000D01*
X145352610Y-70825130D01*
X145375360Y-70671760D01*
X145413030Y-70521350D01*
X145465270Y-70375360D01*
X145531560Y-70235190D01*
X145611280Y-70102200D01*
X145703640Y-69977660D01*
X145807770Y-69862770D01*
X145922660Y-69758640D01*
X146047200Y-69666280D01*
X146180190Y-69586560D01*
X146320360Y-69520270D01*
X146466350Y-69468030D01*
X146616760Y-69430360D01*
X146770130Y-69407610D01*
X146925000Y-69400000D01*
X147395000Y-69400000D01*
X147865000Y-69400000D01*
X148019870Y-69407610D01*
G37*
%TD.AperFunction*%
D12*
X113400000Y-82000000D02*
G75*
G02*
X112600000Y-82000000I-400000J0D01*
G01*
X112600000Y-82000000D02*
G75*
G02*
X113400000Y-82000000I400000J0D01*
G01*
X115940000Y-82000000D02*
G75*
G02*
X115140000Y-82000000I-400000J0D01*
G01*
X115140000Y-82000000D02*
G75*
G02*
X115940000Y-82000000I400000J0D01*
G01*
D13*
%TA.AperFunction,NonConductor*%
G36*
X109222820Y-82100000D02*
G01*
X107022820Y-82100000D01*
X107022820Y-79900000D01*
X109222820Y-79900000D01*
X109222820Y-82100000D01*
G37*
%TD.AperFunction*%
D16*
X104862820Y-81000000D02*
G75*
G02*
X103762820Y-81000000I-550000J0D01*
G01*
X103762820Y-81000000D02*
G75*
G02*
X104862820Y-81000000I550000J0D01*
G01*
D13*
%TA.AperFunction,NonConductor*%
G36*
X107300000Y-86300000D02*
G01*
X105700000Y-86300000D01*
X105700000Y-84700000D01*
X107300000Y-84700000D01*
X107300000Y-86300000D01*
G37*
%TD.AperFunction*%
D12*
X106900000Y-89000000D02*
G75*
G02*
X106100000Y-89000000I-400000J0D01*
G01*
X106100000Y-89000000D02*
G75*
G02*
X106900000Y-89000000I400000J0D01*
G01*
D13*
%TA.AperFunction,NonConductor*%
G36*
X113477180Y-86600000D02*
G01*
X111277180Y-86600000D01*
X111277180Y-84400000D01*
X113477180Y-84400000D01*
X113477180Y-86600000D01*
G37*
%TD.AperFunction*%
D16*
X116737180Y-85500000D02*
G75*
G02*
X115637180Y-85500000I-550000J0D01*
G01*
X115637180Y-85500000D02*
G75*
G02*
X116737180Y-85500000I550000J0D01*
G01*
D10*
X106502940Y-64302940D02*
G75*
G02*
X106102940Y-64302940I-200000J0D01*
G01*
X106102940Y-64302940D02*
G75*
G02*
X106502940Y-64302940I200000J0D01*
G01*
X110600000Y-66000000D02*
G75*
G02*
X110200000Y-66000000I-200000J0D01*
G01*
X110200000Y-66000000D02*
G75*
G02*
X110600000Y-66000000I200000J0D01*
G01*
X108200000Y-68400000D02*
G75*
G02*
X107800000Y-68400000I-200000J0D01*
G01*
X107800000Y-68400000D02*
G75*
G02*
X108200000Y-68400000I200000J0D01*
G01*
X109897060Y-67697060D02*
G75*
G02*
X109497060Y-67697060I-200000J0D01*
G01*
X109497060Y-67697060D02*
G75*
G02*
X109897060Y-67697060I200000J0D01*
G01*
X109897060Y-64302940D02*
G75*
G02*
X109497060Y-64302940I-200000J0D01*
G01*
X109497060Y-64302940D02*
G75*
G02*
X109897060Y-64302940I200000J0D01*
G01*
X108200000Y-63600000D02*
G75*
G02*
X107800000Y-63600000I-200000J0D01*
G01*
X107800000Y-63600000D02*
G75*
G02*
X108200000Y-63600000I200000J0D01*
G01*
X106502940Y-67697060D02*
G75*
G02*
X106102940Y-67697060I-200000J0D01*
G01*
X106102940Y-67697060D02*
G75*
G02*
X106502940Y-67697060I200000J0D01*
G01*
D11*
X109600000Y-66000000D02*
G75*
G02*
X106400000Y-66000000I-1600000J0D01*
G01*
X106400000Y-66000000D02*
G75*
G02*
X109600000Y-66000000I1600000J0D01*
G01*
D10*
X105800000Y-66000000D02*
G75*
G02*
X105400000Y-66000000I-200000J0D01*
G01*
X105400000Y-66000000D02*
G75*
G02*
X105800000Y-66000000I200000J0D01*
G01*
D13*
%TA.AperFunction,NonConductor*%
G36*
X105800000Y-74300000D02*
G01*
X104200000Y-74300000D01*
X104200000Y-72700000D01*
X105800000Y-72700000D01*
X105800000Y-74300000D01*
G37*
%TD.AperFunction*%
D12*
X105400000Y-75500000D02*
G75*
G02*
X104600000Y-75500000I-400000J0D01*
G01*
X104600000Y-75500000D02*
G75*
G02*
X105400000Y-75500000I400000J0D01*
G01*
D13*
%TA.AperFunction,NonConductor*%
G36*
X171200000Y-76876040D02*
G01*
X168800000Y-76876040D01*
X168800000Y-74476040D01*
X171200000Y-74476040D01*
X171200000Y-76876040D01*
G37*
%TD.AperFunction*%
D14*
X170600000Y-80676040D02*
G75*
G02*
X169400000Y-80676040I-600000J0D01*
G01*
X169400000Y-80676040D02*
G75*
G02*
X170600000Y-80676040I600000J0D01*
G01*
D13*
%TA.AperFunction,NonConductor*%
G36*
X171978270Y-61402050D02*
G01*
X172000000Y-61405490D01*
X172012170Y-61403560D01*
X172037380Y-61402130D01*
X172395380Y-61417760D01*
X172406330Y-61418720D01*
X172793250Y-61469660D01*
X172804070Y-61471570D01*
X173185070Y-61556030D01*
X173195680Y-61558880D01*
X173567880Y-61676230D01*
X173578190Y-61679980D01*
X173938770Y-61829340D01*
X173948700Y-61833970D01*
X174294880Y-62014180D01*
X174304390Y-62019670D01*
X174633530Y-62229360D01*
X174642530Y-62235660D01*
X174952140Y-62473230D01*
X174960560Y-62480290D01*
X175248280Y-62743950D01*
X175256060Y-62751720D01*
X175519710Y-63039440D01*
X175526770Y-63047860D01*
X175764340Y-63357470D01*
X175770640Y-63366470D01*
X175980330Y-63695610D01*
X175985820Y-63705120D01*
X176166030Y-64051300D01*
X176170670Y-64061240D01*
X176320010Y-64421800D01*
X176323770Y-64432120D01*
X176368280Y-64573300D01*
X176441120Y-64804320D01*
X176443970Y-64814930D01*
X176528430Y-65195930D01*
X176530340Y-65206750D01*
X176581280Y-65593670D01*
X176582240Y-65604620D01*
X176593830Y-65870050D01*
X176597870Y-65962620D01*
X176596440Y-65987830D01*
X176594510Y-66000000D01*
X176596060Y-66009790D01*
X176597950Y-66021730D01*
X176599500Y-66041440D01*
X176599500Y-89958560D01*
X176597950Y-89978270D01*
X176594510Y-90000000D01*
X176596060Y-90009790D01*
X176596440Y-90012170D01*
X176597870Y-90037380D01*
X176591190Y-90190310D01*
X176582240Y-90395380D01*
X176581280Y-90406330D01*
X176530340Y-90793250D01*
X176528430Y-90804070D01*
X176443970Y-91185070D01*
X176441120Y-91195680D01*
X176323770Y-91567870D01*
X176320010Y-91578200D01*
X176170670Y-91938760D01*
X176166030Y-91948700D01*
X175985820Y-92294880D01*
X175980330Y-92304390D01*
X175770640Y-92633530D01*
X175764340Y-92642530D01*
X175526770Y-92952140D01*
X175519710Y-92960560D01*
X175256060Y-93248280D01*
X175248280Y-93256060D01*
X174960560Y-93519710D01*
X174952140Y-93526770D01*
X174642530Y-93764340D01*
X174633530Y-93770640D01*
X174304390Y-93980330D01*
X174294880Y-93985820D01*
X173948700Y-94166030D01*
X173938770Y-94170660D01*
X173578190Y-94320020D01*
X173567880Y-94323770D01*
X173195680Y-94441120D01*
X173185070Y-94443970D01*
X172804070Y-94528430D01*
X172793250Y-94530340D01*
X172406330Y-94581280D01*
X172395380Y-94582240D01*
X172037380Y-94597870D01*
X172012170Y-94596440D01*
X172009790Y-94596060D01*
X172000000Y-94594510D01*
X171990210Y-94596060D01*
X171978270Y-94597950D01*
X171958560Y-94599500D01*
X104626000Y-94599500D01*
X104557880Y-94579500D01*
X104511390Y-94525840D01*
X104500000Y-94473500D01*
X104500000Y-89600690D01*
X104500000Y-85075690D01*
X104520000Y-85007570D01*
X104536910Y-84986590D01*
X105086090Y-84437410D01*
X105148410Y-84403380D01*
X105175190Y-84400500D01*
X105199160Y-84400500D01*
X105267280Y-84420500D01*
X105313770Y-84474160D01*
X105323880Y-84544430D01*
X105318990Y-84565440D01*
X105318860Y-84565860D01*
X105314350Y-84574700D01*
X105299500Y-84668480D01*
X105299500Y-86331520D01*
X105300280Y-86336410D01*
X105312590Y-86414140D01*
X105314350Y-86425300D01*
X105371950Y-86538340D01*
X105461660Y-86628050D01*
X105574700Y-86685650D01*
X105584490Y-86687200D01*
X105611850Y-86691530D01*
X105668480Y-86700500D01*
X106499830Y-86700500D01*
X107331520Y-86700500D01*
X107336410Y-86699720D01*
X107415510Y-86687200D01*
X107425300Y-86685650D01*
X107538340Y-86628050D01*
X107628050Y-86538340D01*
X107685650Y-86425300D01*
X107687390Y-86414310D01*
X107699730Y-86336410D01*
X107700500Y-86331520D01*
X107700500Y-84668480D01*
X107685650Y-84574700D01*
X107681140Y-84565860D01*
X107681010Y-84565440D01*
X107678980Y-84494470D01*
X107715640Y-84433670D01*
X107779350Y-84402350D01*
X107800840Y-84400500D01*
X109669210Y-84400500D01*
X109688920Y-84402050D01*
X109702610Y-84404220D01*
X109709200Y-84403870D01*
X109770280Y-84400670D01*
X109776870Y-84400500D01*
X109797190Y-84400500D01*
X109800460Y-84400160D01*
X109800470Y-84400160D01*
X109817400Y-84398380D01*
X109823970Y-84397860D01*
X109853630Y-84396310D01*
X109885050Y-84394660D01*
X109885060Y-84394660D01*
X109891650Y-84394310D01*
X109905040Y-84390730D01*
X109924480Y-84387120D01*
X109931690Y-84386360D01*
X109931700Y-84386360D01*
X109938260Y-84385670D01*
X109944530Y-84383630D01*
X109944540Y-84383630D01*
X110002700Y-84364740D01*
X110009030Y-84362860D01*
X110068110Y-84347030D01*
X110068120Y-84347030D01*
X110074490Y-84345320D01*
X110080370Y-84342320D01*
X110086840Y-84339030D01*
X110105100Y-84331460D01*
X110106450Y-84331020D01*
X110118280Y-84327180D01*
X110124000Y-84323880D01*
X110176970Y-84293300D01*
X110182770Y-84290150D01*
X110237270Y-84262380D01*
X110243150Y-84259380D01*
X110253920Y-84250660D01*
X110270210Y-84239470D01*
X110282220Y-84232530D01*
X110332580Y-84187190D01*
X110337600Y-84182900D01*
X110350820Y-84172200D01*
X110353380Y-84170120D01*
X110367730Y-84155770D01*
X110372510Y-84151230D01*
X110417990Y-84110290D01*
X110417990Y-84110280D01*
X110422890Y-84105870D01*
X110431040Y-84094650D01*
X110443880Y-84079620D01*
X111261590Y-83261910D01*
X111323900Y-83227890D01*
X111394720Y-83232950D01*
X111451550Y-83275500D01*
X111476360Y-83342020D01*
X111476680Y-83351010D01*
X111476680Y-83873500D01*
X111456680Y-83941620D01*
X111403030Y-83988120D01*
X111350680Y-83999500D01*
X111245670Y-83999500D01*
X111240770Y-84000280D01*
X111161680Y-84012800D01*
X111151880Y-84014350D01*
X111038840Y-84071950D01*
X110949130Y-84161660D01*
X110891540Y-84274700D01*
X110876680Y-84368480D01*
X110876680Y-86631520D01*
X110877460Y-86636410D01*
X110889970Y-86715390D01*
X110891540Y-86725300D01*
X110949130Y-86838340D01*
X111038840Y-86928050D01*
X111151880Y-86985650D01*
X111161670Y-86987200D01*
X111189030Y-86991530D01*
X111245660Y-87000500D01*
X112376950Y-87000500D01*
X113508700Y-87000500D01*
X113513600Y-86999720D01*
X113592690Y-86987200D01*
X113602490Y-86985650D01*
X113715530Y-86928050D01*
X113805230Y-86838340D01*
X113862830Y-86725300D01*
X113866880Y-86699720D01*
X113874280Y-86653010D01*
X113877680Y-86631520D01*
X113877680Y-84368480D01*
X113872300Y-84334530D01*
X113864380Y-84284490D01*
X113862830Y-84274700D01*
X113805230Y-84161660D01*
X113715530Y-84071950D01*
X113602490Y-84014350D01*
X113592700Y-84012800D01*
X113565330Y-84008470D01*
X113508700Y-83999500D01*
X113403680Y-83999500D01*
X113335560Y-83979500D01*
X113289070Y-83925840D01*
X113277680Y-83873500D01*
X113277680Y-83263900D01*
X113297690Y-83195780D01*
X113351340Y-83149290D01*
X113363170Y-83144590D01*
X113490380Y-83101410D01*
X113499170Y-83096490D01*
X113570880Y-83056330D01*
X113682880Y-82993600D01*
X113852520Y-82852520D01*
X113914260Y-82778290D01*
X113989910Y-82687330D01*
X113989910Y-82687320D01*
X113993600Y-82682880D01*
X114101410Y-82490380D01*
X114103270Y-82484910D01*
X114150260Y-82346460D01*
X114191100Y-82288380D01*
X114256850Y-82261610D01*
X114326650Y-82274630D01*
X114378320Y-82323310D01*
X114391700Y-82355950D01*
X114402090Y-82396860D01*
X114403510Y-82402450D01*
X114405930Y-82407690D01*
X114405930Y-82407700D01*
X114456560Y-82517530D01*
X114495880Y-82602820D01*
X114623220Y-82783000D01*
X114781260Y-82936960D01*
X114786060Y-82940170D01*
X114868070Y-82994970D01*
X114964720Y-83059540D01*
X114970020Y-83061820D01*
X115066490Y-83103270D01*
X115167440Y-83146640D01*
X115173070Y-83147910D01*
X115173080Y-83147910D01*
X115188490Y-83151400D01*
X115250520Y-83185940D01*
X115284020Y-83248530D01*
X115286680Y-83274290D01*
X115286680Y-84236690D01*
X115266680Y-84304810D01*
X115236340Y-84337450D01*
X115191680Y-84370980D01*
X115187550Y-84374080D01*
X115017080Y-84552470D01*
X115014170Y-84556740D01*
X115014160Y-84556740D01*
X114995240Y-84584490D01*
X114878030Y-84756300D01*
X114774150Y-84980100D01*
X114708210Y-85217870D01*
X114681990Y-85463210D01*
X114682290Y-85468370D01*
X114690190Y-85605460D01*
X114696190Y-85709550D01*
X114697330Y-85714590D01*
X114697330Y-85714600D01*
X114724580Y-85835510D01*
X114750440Y-85950250D01*
X114843270Y-86178860D01*
X114972190Y-86389240D01*
X115133740Y-86575740D01*
X115323580Y-86733350D01*
X115536620Y-86857840D01*
X115541440Y-86859680D01*
X115655730Y-86903320D01*
X115767120Y-86945860D01*
X115772190Y-86946890D01*
X115869910Y-86966770D01*
X116008910Y-86995050D01*
X116014080Y-86995240D01*
X116014090Y-86995240D01*
X116250320Y-87003900D01*
X116255480Y-87004090D01*
X116260600Y-87003440D01*
X116260610Y-87003440D01*
X116387370Y-86987200D01*
X116500220Y-86972740D01*
X116505170Y-86971260D01*
X116505180Y-86971260D01*
X116731610Y-86903320D01*
X116736560Y-86901840D01*
X116851860Y-86845350D01*
X116953490Y-86795570D01*
X116953490Y-86795560D01*
X116958140Y-86793290D01*
X116962350Y-86790280D01*
X117154800Y-86653010D01*
X117154810Y-86653010D01*
X117159010Y-86650000D01*
X117333790Y-86475840D01*
X117363750Y-86434140D01*
X117474750Y-86279660D01*
X117477770Y-86275460D01*
X117587090Y-86054260D01*
X117643285Y-85869310D01*
X140184500Y-85869310D01*
X140184500Y-89600690D01*
X140184690Y-89603140D01*
X140184690Y-89603150D01*
X140186010Y-89619880D01*
X140187400Y-89637570D01*
X140189200Y-89643750D01*
X140215680Y-89734900D01*
X140233260Y-89795400D01*
X140237290Y-89802220D01*
X140292380Y-89895380D01*
X140316920Y-89936870D01*
X140433140Y-90053080D01*
X140439960Y-90057120D01*
X140518880Y-90103790D01*
X140574600Y-90136740D01*
X140582210Y-90138960D01*
X140582220Y-90138960D01*
X140686950Y-90169390D01*
X140732430Y-90182600D01*
X140745580Y-90183630D01*
X140766850Y-90185310D01*
X140766860Y-90185310D01*
X140769310Y-90185500D01*
X143560690Y-90185500D01*
X143563140Y-90185310D01*
X143563150Y-90185310D01*
X143584420Y-90183630D01*
X143597570Y-90182600D01*
X143643050Y-90169390D01*
X143747790Y-90138960D01*
X143755400Y-90136740D01*
X143811130Y-90103790D01*
X143890040Y-90057120D01*
X143896870Y-90053080D01*
X144013080Y-89936870D01*
X144037620Y-89895380D01*
X144092710Y-89802220D01*
X144096740Y-89795400D01*
X144114320Y-89734900D01*
X144140800Y-89643750D01*
X144142600Y-89637570D01*
X144143990Y-89619880D01*
X144145310Y-89603150D01*
X144145310Y-89603140D01*
X144145500Y-89600690D01*
X144145500Y-89206150D01*
X144165500Y-89138030D01*
X144219160Y-89091540D01*
X144289430Y-89081430D01*
X144354010Y-89110930D01*
X144382390Y-89146320D01*
X144448540Y-89268920D01*
X144615170Y-89494520D01*
X144811930Y-89694390D01*
X144815460Y-89697090D01*
X144815470Y-89697090D01*
X145031340Y-89861840D01*
X145031350Y-89861850D01*
X145034880Y-89864550D01*
X145279590Y-90001590D01*
X145541170Y-90102780D01*
X145545490Y-90103790D01*
X145545500Y-90103790D01*
X145670280Y-90132710D01*
X145814390Y-90166110D01*
X146093810Y-90190310D01*
X146098250Y-90190070D01*
X146369410Y-90175150D01*
X146369420Y-90175150D01*
X146373860Y-90174900D01*
X146648940Y-90120190D01*
X146695630Y-90103790D01*
X146855990Y-90047480D01*
X146913560Y-90027260D01*
X146917510Y-90025200D01*
X146917520Y-90025200D01*
X146966030Y-90000000D01*
X168394560Y-90000000D01*
X168414310Y-90376870D01*
X168414820Y-90380110D01*
X168414820Y-90380120D01*
X168441990Y-90551650D01*
X168473350Y-90749610D01*
X168571020Y-91114140D01*
X168706270Y-91466470D01*
X168707760Y-91469410D01*
X168760610Y-91573120D01*
X168877600Y-91802720D01*
X168879390Y-91805490D01*
X168879400Y-91805490D01*
X168972410Y-91948720D01*
X169083140Y-92119230D01*
X169320640Y-92412510D01*
X169587490Y-92679370D01*
X169880780Y-92916860D01*
X170197280Y-93122400D01*
X170200210Y-93123900D01*
X170200220Y-93123900D01*
X170444330Y-93248280D01*
X170533540Y-93293730D01*
X170885860Y-93428980D01*
X171250390Y-93526650D01*
X171448350Y-93558010D01*
X171619880Y-93585180D01*
X171619890Y-93585180D01*
X171623130Y-93585690D01*
X172000000Y-93605440D01*
X172376870Y-93585690D01*
X172380110Y-93585180D01*
X172380120Y-93585180D01*
X172551650Y-93558010D01*
X172749610Y-93526650D01*
X173114140Y-93428980D01*
X173466470Y-93293730D01*
X173555670Y-93248280D01*
X173799780Y-93123900D01*
X173799790Y-93123900D01*
X173802720Y-93122400D01*
X174119230Y-92916860D01*
X174412510Y-92679370D01*
X174679370Y-92412510D01*
X174916860Y-92119230D01*
X175027590Y-91948720D01*
X175120610Y-91805490D01*
X175122400Y-91802720D01*
X175239390Y-91573120D01*
X175292240Y-91469410D01*
X175293730Y-91466470D01*
X175428980Y-91114140D01*
X175526650Y-90749610D01*
X175558010Y-90551650D01*
X175585180Y-90380120D01*
X175585180Y-90380110D01*
X175585690Y-90376870D01*
X175605440Y-90000000D01*
X175585690Y-89623130D01*
X175581750Y-89598220D01*
X175558010Y-89448350D01*
X175526650Y-89250390D01*
X175428980Y-88885860D01*
X175293730Y-88533540D01*
X175176760Y-88303960D01*
X175123900Y-88200220D01*
X175123900Y-88200210D01*
X175122400Y-88197280D01*
X174916860Y-87880780D01*
X174679370Y-87587490D01*
X174412510Y-87320640D01*
X174119230Y-87083140D01*
X173969100Y-86985650D01*
X173805490Y-86879400D01*
X173805490Y-86879390D01*
X173802720Y-86877600D01*
X173799790Y-86876100D01*
X173799780Y-86876100D01*
X173469410Y-86707760D01*
X173466470Y-86706270D01*
X173252040Y-86623960D01*
X173117230Y-86572210D01*
X173114140Y-86571020D01*
X172749610Y-86473350D01*
X172551650Y-86441990D01*
X172380120Y-86414820D01*
X172380110Y-86414820D01*
X172376870Y-86414310D01*
X172000000Y-86394560D01*
X171623130Y-86414310D01*
X171619890Y-86414820D01*
X171619880Y-86414820D01*
X171448350Y-86441990D01*
X171250390Y-86473350D01*
X170885860Y-86571020D01*
X170882770Y-86572210D01*
X170747960Y-86623960D01*
X170533540Y-86706270D01*
X170530600Y-86707760D01*
X170200220Y-86876100D01*
X170200210Y-86876100D01*
X170197280Y-86877600D01*
X170194510Y-86879390D01*
X170194510Y-86879400D01*
X170016120Y-86995240D01*
X169880780Y-87083140D01*
X169587490Y-87320640D01*
X169320640Y-87587490D01*
X169083140Y-87880780D01*
X168877600Y-88197280D01*
X168876100Y-88200210D01*
X168876100Y-88200220D01*
X168823240Y-88303960D01*
X168706270Y-88533540D01*
X168571020Y-88885860D01*
X168473350Y-89250390D01*
X168441990Y-89448350D01*
X168418260Y-89598220D01*
X168414310Y-89623130D01*
X168394560Y-90000000D01*
X146966030Y-90000000D01*
X147100700Y-89930040D01*
X147162450Y-89897970D01*
X147305980Y-89795400D01*
X147387020Y-89737490D01*
X147387030Y-89737490D01*
X147390640Y-89734900D01*
X147593580Y-89541310D01*
X147630470Y-89494520D01*
X147764460Y-89324550D01*
X147764460Y-89324540D01*
X147767220Y-89321050D01*
X147833960Y-89206150D01*
X147905850Y-89082380D01*
X147905850Y-89082370D01*
X147908090Y-89078530D01*
X148013380Y-88818570D01*
X148028190Y-88758950D01*
X148079920Y-88550700D01*
X148079920Y-88550690D01*
X148080990Y-88546380D01*
X148081990Y-88536620D01*
X148105170Y-88310380D01*
X148105500Y-88307180D01*
X148105500Y-87193550D01*
X148090750Y-86985230D01*
X148086780Y-86966770D01*
X148032660Y-86715390D01*
X148031720Y-86711050D01*
X147934650Y-86447910D01*
X147916510Y-86414310D01*
X147803580Y-86205000D01*
X147801460Y-86201080D01*
X147634830Y-85975480D01*
X147438070Y-85775610D01*
X147434530Y-85772910D01*
X147218660Y-85608160D01*
X147218650Y-85608160D01*
X147215120Y-85605460D01*
X146970410Y-85468410D01*
X146708830Y-85367220D01*
X146704510Y-85366210D01*
X146704500Y-85366210D01*
X146552770Y-85331040D01*
X146435610Y-85303890D01*
X146156190Y-85279690D01*
X146151750Y-85279930D01*
X145880590Y-85294850D01*
X145880580Y-85294850D01*
X145876140Y-85295100D01*
X145601060Y-85349810D01*
X145596850Y-85351290D01*
X145546940Y-85368820D01*
X145336440Y-85442740D01*
X145332490Y-85444800D01*
X145332480Y-85444800D01*
X145226220Y-85500000D01*
X145087550Y-85572030D01*
X144973450Y-85653570D01*
X144862980Y-85732510D01*
X144862970Y-85732520D01*
X144859360Y-85735100D01*
X144656420Y-85928690D01*
X144653660Y-85932190D01*
X144585740Y-86018350D01*
X144482780Y-86148950D01*
X144411990Y-86270820D01*
X144380450Y-86325120D01*
X144328940Y-86373980D01*
X144259200Y-86387230D01*
X144193350Y-86360670D01*
X144152320Y-86302740D01*
X144145500Y-86261840D01*
X144145500Y-85869310D01*
X144145310Y-85866860D01*
X144145310Y-85866850D01*
X144143100Y-85838850D01*
X144142600Y-85832430D01*
X144115210Y-85738170D01*
X144098960Y-85682220D01*
X144098960Y-85682210D01*
X144096740Y-85674600D01*
X144054570Y-85603280D01*
X144017120Y-85539960D01*
X144013080Y-85533140D01*
X143896870Y-85416920D01*
X143812820Y-85367220D01*
X143762220Y-85337290D01*
X143755400Y-85333260D01*
X143747790Y-85331050D01*
X143747790Y-85331040D01*
X143627050Y-85295970D01*
X143597570Y-85287400D01*
X143584420Y-85286370D01*
X143563150Y-85284690D01*
X143563140Y-85284690D01*
X143560690Y-85284500D01*
X140769310Y-85284500D01*
X140766860Y-85284690D01*
X140766850Y-85284690D01*
X140745580Y-85286370D01*
X140732430Y-85287400D01*
X140702950Y-85295970D01*
X140582220Y-85331040D01*
X140582210Y-85331050D01*
X140574600Y-85333260D01*
X140567780Y-85337290D01*
X140517180Y-85367220D01*
X140433140Y-85416920D01*
X140316920Y-85533140D01*
X140312890Y-85539960D01*
X140275440Y-85603280D01*
X140233260Y-85674600D01*
X140231050Y-85682210D01*
X140231040Y-85682220D01*
X140214790Y-85738170D01*
X140187400Y-85832430D01*
X140186900Y-85838850D01*
X140184690Y-85866850D01*
X140184690Y-85866860D01*
X140184500Y-85869310D01*
X117643285Y-85869310D01*
X117652540Y-85838850D01*
X117657320Y-85823130D01*
X117658820Y-85818180D01*
X117691030Y-85573550D01*
X117692830Y-85500000D01*
X117681910Y-85367220D01*
X117673030Y-85259240D01*
X117673030Y-85259230D01*
X117672610Y-85254090D01*
X117612500Y-85014780D01*
X117514110Y-84788510D01*
X117380090Y-84581340D01*
X117374040Y-84574700D01*
X117327430Y-84523460D01*
X117214030Y-84398840D01*
X117169550Y-84363710D01*
X117135590Y-84336900D01*
X117094530Y-84278980D01*
X117087680Y-84238010D01*
X117087680Y-82727970D01*
X117089230Y-82708260D01*
X117090370Y-82701090D01*
X117091400Y-82694570D01*
X117091020Y-82687330D01*
X117087860Y-82626900D01*
X117087680Y-82620310D01*
X117087680Y-82599990D01*
X117087340Y-82596720D01*
X117085560Y-82579780D01*
X117085040Y-82573200D01*
X117082120Y-82517530D01*
X117081500Y-82505540D01*
X117077910Y-82492150D01*
X117074310Y-82472710D01*
X117073550Y-82465500D01*
X117073550Y-82465490D01*
X117072860Y-82458930D01*
X117051920Y-82394480D01*
X117050040Y-82388160D01*
X117034210Y-82329070D01*
X117032500Y-82322700D01*
X117026210Y-82310340D01*
X117018650Y-82292090D01*
X117018060Y-82290280D01*
X117014360Y-82278900D01*
X117011060Y-82273180D01*
X116980480Y-82220210D01*
X116977330Y-82214420D01*
X116949560Y-82159920D01*
X116949560Y-82159910D01*
X116946570Y-82154030D01*
X116937840Y-82143260D01*
X116926650Y-82126970D01*
X116919720Y-82114970D01*
X116915300Y-82110060D01*
X116874370Y-82064600D01*
X116870080Y-82059590D01*
X116863340Y-82051260D01*
X116857300Y-82043800D01*
X116842950Y-82029450D01*
X116838410Y-82024670D01*
X116797470Y-81979200D01*
X116793050Y-81974300D01*
X116787720Y-81970420D01*
X116787710Y-81970410D01*
X116785900Y-81969100D01*
X116785110Y-81968070D01*
X116782810Y-81966000D01*
X116783190Y-81965580D01*
X116742550Y-81912880D01*
X116734500Y-81878700D01*
X116725980Y-81786050D01*
X116725450Y-81780290D01*
X116665570Y-81567940D01*
X116618860Y-81473230D01*
X116606670Y-81403290D01*
X116634230Y-81337860D01*
X116692790Y-81297710D01*
X116731870Y-81291500D01*
X118558660Y-81291500D01*
X118626780Y-81311500D01*
X118673270Y-81365160D01*
X118683110Y-81397790D01*
X118694350Y-81468800D01*
X118751950Y-81581840D01*
X118841660Y-81671550D01*
X118954700Y-81729150D01*
X118964490Y-81730700D01*
X119026890Y-81740580D01*
X119091050Y-81770990D01*
X119128570Y-81831260D01*
X119127560Y-81902250D01*
X119094160Y-81956200D01*
X119015500Y-82031230D01*
X118878440Y-82215450D01*
X118876020Y-82220200D01*
X118876020Y-82220210D01*
X118846180Y-82278900D01*
X118774370Y-82420130D01*
X118706290Y-82639410D01*
X118705580Y-82644700D01*
X118677550Y-82856200D01*
X118676120Y-82867040D01*
X118684730Y-83096490D01*
X118685830Y-83101700D01*
X118685830Y-83101710D01*
X118711190Y-83222590D01*
X118731880Y-83321210D01*
X118733840Y-83326160D01*
X118733840Y-83326170D01*
X118814260Y-83529800D01*
X118816220Y-83534770D01*
X118818990Y-83539330D01*
X118886650Y-83650830D01*
X118935340Y-83731070D01*
X119085830Y-83904490D01*
X119089950Y-83907870D01*
X119089960Y-83907880D01*
X119225310Y-84018860D01*
X119263380Y-84050070D01*
X119268010Y-84052710D01*
X119268020Y-84052710D01*
X119449060Y-84155770D01*
X119462930Y-84163660D01*
X119678760Y-84242010D01*
X119684010Y-84242960D01*
X119684020Y-84242960D01*
X119751880Y-84255230D01*
X119904710Y-84282870D01*
X119908850Y-84283060D01*
X119908860Y-84283060D01*
X119927270Y-84283930D01*
X119927280Y-84283930D01*
X119928760Y-84284000D01*
X120185150Y-84284000D01*
X120251710Y-84278350D01*
X120350980Y-84269930D01*
X120356290Y-84269480D01*
X120361450Y-84268140D01*
X120573370Y-84213140D01*
X120578540Y-84211800D01*
X120583410Y-84209600D01*
X120783030Y-84119680D01*
X120787890Y-84117490D01*
X120978360Y-83989260D01*
X121144500Y-83830770D01*
X121281560Y-83646550D01*
X121385630Y-83441870D01*
X121453720Y-83222590D01*
X121463780Y-83146640D01*
X121483190Y-83000250D01*
X121483890Y-82994970D01*
X121475270Y-82765520D01*
X121467390Y-82727970D01*
X121429220Y-82546010D01*
X121428120Y-82540800D01*
X121426160Y-82535840D01*
X121426160Y-82535830D01*
X121345740Y-82332200D01*
X121343780Y-82327230D01*
X121341010Y-82322670D01*
X121227430Y-82135500D01*
X121227430Y-82135490D01*
X121224660Y-82130940D01*
X121074180Y-81957510D01*
X121070360Y-81954390D01*
X121035530Y-81892660D01*
X121039610Y-81821780D01*
X121081360Y-81764360D01*
X121138560Y-81739720D01*
X121169260Y-81734860D01*
X121195510Y-81730700D01*
X121205300Y-81729150D01*
X121318340Y-81671550D01*
X121408050Y-81581840D01*
X121465650Y-81468800D01*
X121480500Y-81375020D01*
X121480500Y-79406980D01*
X121465650Y-79313200D01*
X121408050Y-79200160D01*
X121318340Y-79110450D01*
X121205300Y-79052850D01*
X121195520Y-79051300D01*
X121195510Y-79051300D01*
X121168150Y-79046970D01*
X121111520Y-79038000D01*
X120080210Y-79038000D01*
X119048480Y-79038000D01*
X119043590Y-79038780D01*
X118964490Y-79051300D01*
X118954700Y-79052850D01*
X118841660Y-79110450D01*
X118751950Y-79200160D01*
X118694350Y-79313200D01*
X118692800Y-79322990D01*
X118683110Y-79384210D01*
X118652690Y-79448360D01*
X118592430Y-79485890D01*
X118558660Y-79490500D01*
X116158790Y-79490500D01*
X116139080Y-79488950D01*
X116131900Y-79487810D01*
X116125390Y-79486780D01*
X116118800Y-79487130D01*
X116057720Y-79490330D01*
X116051130Y-79490500D01*
X116030810Y-79490500D01*
X116027540Y-79490840D01*
X116027530Y-79490840D01*
X116010600Y-79492620D01*
X116004020Y-79493140D01*
X115980080Y-79494400D01*
X115936360Y-79496690D01*
X115922960Y-79500280D01*
X115903520Y-79503880D01*
X115902320Y-79504000D01*
X115896320Y-79504640D01*
X115896310Y-79504640D01*
X115889740Y-79505330D01*
X115851960Y-79517600D01*
X115825300Y-79526270D01*
X115818970Y-79528140D01*
X115759890Y-79543970D01*
X115759880Y-79543970D01*
X115753510Y-79545680D01*
X115747630Y-79548680D01*
X115741160Y-79551970D01*
X115722900Y-79559540D01*
X115709720Y-79563820D01*
X115704000Y-79567120D01*
X115651030Y-79597700D01*
X115645230Y-79600850D01*
X115597940Y-79624950D01*
X115584850Y-79631620D01*
X115579720Y-79635770D01*
X115574080Y-79640340D01*
X115557790Y-79651540D01*
X115545780Y-79658470D01*
X115540880Y-79662880D01*
X115540870Y-79662890D01*
X115495420Y-79703810D01*
X115490410Y-79708090D01*
X115474620Y-79720880D01*
X115460260Y-79735240D01*
X115455480Y-79739780D01*
X115426520Y-79765860D01*
X115405110Y-79785130D01*
X115401230Y-79790470D01*
X115396970Y-79796340D01*
X115384130Y-79811380D01*
X114960370Y-80235130D01*
X114945350Y-80247960D01*
X114934130Y-80256110D01*
X114888770Y-80306480D01*
X114884250Y-80311250D01*
X114869880Y-80325620D01*
X114867810Y-80328180D01*
X114867800Y-80328190D01*
X114857100Y-80341400D01*
X114852820Y-80346420D01*
X114807470Y-80396780D01*
X114800530Y-80408790D01*
X114789340Y-80425080D01*
X114780620Y-80435850D01*
X114777620Y-80441730D01*
X114749850Y-80496230D01*
X114746700Y-80502030D01*
X114716120Y-80555000D01*
X114712820Y-80560720D01*
X114708980Y-80572550D01*
X114708540Y-80573900D01*
X114700970Y-80592160D01*
X114694680Y-80604510D01*
X114692970Y-80610890D01*
X114677140Y-80669980D01*
X114675270Y-80676300D01*
X114661760Y-80717870D01*
X114654330Y-80740740D01*
X114653640Y-80747310D01*
X114652880Y-80754520D01*
X114649280Y-80773960D01*
X114645690Y-80787350D01*
X114642610Y-80846150D01*
X114642140Y-80855020D01*
X114641620Y-80861600D01*
X114639840Y-80878530D01*
X114639840Y-80878540D01*
X114639500Y-80881810D01*
X114639500Y-80902130D01*
X114639330Y-80908720D01*
X114635780Y-80976390D01*
X114636810Y-80982900D01*
X114637950Y-80990080D01*
X114639500Y-81009790D01*
X114639500Y-81159320D01*
X114619500Y-81227450D01*
X114612450Y-81237330D01*
X114528860Y-81343360D01*
X114526170Y-81348470D01*
X114504480Y-81389710D01*
X114426130Y-81538620D01*
X114391410Y-81650430D01*
X114390430Y-81653590D01*
X114351130Y-81712720D01*
X114286100Y-81741210D01*
X114215990Y-81730020D01*
X114163060Y-81682700D01*
X114148830Y-81650430D01*
X114127130Y-81573500D01*
X114125570Y-81567940D01*
X114027980Y-81370050D01*
X113999730Y-81332220D01*
X113899420Y-81197890D01*
X113895970Y-81193270D01*
X113794900Y-81099840D01*
X113738190Y-81047420D01*
X113733950Y-81043500D01*
X113547350Y-80925760D01*
X113342420Y-80844010D01*
X113336760Y-80842880D01*
X113131690Y-80802090D01*
X113126020Y-80800960D01*
X113120250Y-80800890D01*
X113009500Y-80799440D01*
X112905410Y-80798070D01*
X112899710Y-80799050D01*
X112693650Y-80834460D01*
X112687960Y-80835440D01*
X112480960Y-80911800D01*
X112476000Y-80914760D01*
X112296310Y-81021660D01*
X112291340Y-81024610D01*
X112287000Y-81028420D01*
X112286990Y-81028430D01*
X112241600Y-81068230D01*
X112177200Y-81098110D01*
X112158530Y-81099500D01*
X111330790Y-81099500D01*
X111311080Y-81097950D01*
X111303900Y-81096810D01*
X111297390Y-81095780D01*
X111290800Y-81096130D01*
X111229730Y-81099330D01*
X111223130Y-81099500D01*
X111202810Y-81099500D01*
X111199540Y-81099840D01*
X111199530Y-81099840D01*
X111182590Y-81101630D01*
X111176010Y-81102140D01*
X111114960Y-81105340D01*
X111114950Y-81105340D01*
X111108350Y-81105690D01*
X111096540Y-81108850D01*
X111094970Y-81109270D01*
X111075530Y-81112880D01*
X111061740Y-81114330D01*
X110997280Y-81135270D01*
X110990980Y-81137140D01*
X110925510Y-81154680D01*
X110919630Y-81157680D01*
X110913160Y-81160970D01*
X110894900Y-81168540D01*
X110881720Y-81172820D01*
X110876000Y-81176120D01*
X110823030Y-81206700D01*
X110817230Y-81209850D01*
X110762730Y-81237620D01*
X110756850Y-81240620D01*
X110751720Y-81244770D01*
X110746080Y-81249340D01*
X110729790Y-81260530D01*
X110717780Y-81267470D01*
X110712870Y-81271890D01*
X110667420Y-81312820D01*
X110662400Y-81317100D01*
X110654950Y-81323130D01*
X110646620Y-81329880D01*
X110632270Y-81344230D01*
X110627490Y-81348770D01*
X110603840Y-81370070D01*
X110577110Y-81394130D01*
X110568960Y-81405350D01*
X110556120Y-81420380D01*
X109838410Y-82138090D01*
X109776100Y-82172120D01*
X109705290Y-82167050D01*
X109648450Y-82124500D01*
X109623640Y-82057980D01*
X109623320Y-82048990D01*
X109623320Y-79873440D01*
X109623320Y-79868480D01*
X109610960Y-79790470D01*
X109610020Y-79784490D01*
X109610010Y-79784490D01*
X109608460Y-79774700D01*
X109550870Y-79661660D01*
X109461160Y-79571950D01*
X109348120Y-79514350D01*
X109338330Y-79512800D01*
X109310970Y-79508470D01*
X109254340Y-79499500D01*
X108123050Y-79499500D01*
X106991300Y-79499500D01*
X106986410Y-79500280D01*
X106907310Y-79512800D01*
X106897510Y-79514350D01*
X106888680Y-79518860D01*
X106865920Y-79530450D01*
X106784480Y-79571950D01*
X106694770Y-79661660D01*
X106637170Y-79774700D01*
X106635620Y-79784490D01*
X106631360Y-79811380D01*
X106622320Y-79868480D01*
X106622320Y-82131520D01*
X106623090Y-82136410D01*
X106635610Y-82215450D01*
X106637170Y-82225300D01*
X106694770Y-82338340D01*
X106740830Y-82384410D01*
X106774860Y-82446720D01*
X106769790Y-82517530D01*
X106727240Y-82574370D01*
X106660720Y-82599180D01*
X106651740Y-82599500D01*
X105002310Y-82599500D01*
X104934190Y-82579500D01*
X104887700Y-82525840D01*
X104877600Y-82455570D01*
X104907090Y-82390990D01*
X104946880Y-82360350D01*
X105083770Y-82293290D01*
X105087980Y-82290280D01*
X105087990Y-82290280D01*
X105280430Y-82153010D01*
X105280440Y-82153010D01*
X105284650Y-82150000D01*
X105459420Y-81975840D01*
X105466490Y-81966000D01*
X105600390Y-81779660D01*
X105603410Y-81775460D01*
X105608890Y-81764360D01*
X105703220Y-81573500D01*
X105712730Y-81554260D01*
X105744330Y-81450250D01*
X105782950Y-81323130D01*
X105784460Y-81318180D01*
X105808290Y-81137140D01*
X105816230Y-81076870D01*
X105816660Y-81073550D01*
X105818460Y-81000000D01*
X105804850Y-80834460D01*
X105798670Y-80759240D01*
X105798670Y-80759230D01*
X105798240Y-80754090D01*
X105738130Y-80514780D01*
X105649630Y-80311250D01*
X105641810Y-80293260D01*
X105639750Y-80288510D01*
X105505720Y-80081340D01*
X105479450Y-80052470D01*
X105453060Y-80023460D01*
X105339660Y-79898840D01*
X105335610Y-79895640D01*
X105150080Y-79749120D01*
X105146030Y-79745920D01*
X105141510Y-79743430D01*
X105141510Y-79743420D01*
X104934540Y-79629170D01*
X104930020Y-79626670D01*
X104925150Y-79624950D01*
X104925140Y-79624950D01*
X104702300Y-79546040D01*
X104702300Y-79546030D01*
X104697430Y-79544310D01*
X104692330Y-79543400D01*
X104603900Y-79527650D01*
X104540350Y-79496010D01*
X104503980Y-79435040D01*
X104500000Y-79403600D01*
X104500000Y-77021310D01*
X104520000Y-76953180D01*
X104573660Y-76906690D01*
X104619410Y-76895480D01*
X104641650Y-76894310D01*
X104655040Y-76890730D01*
X104674480Y-76887120D01*
X104681690Y-76886360D01*
X104681700Y-76886360D01*
X104688260Y-76885670D01*
X104694530Y-76883630D01*
X104694540Y-76883630D01*
X104752700Y-76864740D01*
X104759030Y-76862860D01*
X104818110Y-76847030D01*
X104818120Y-76847030D01*
X104824490Y-76845320D01*
X104830370Y-76842320D01*
X104836840Y-76839030D01*
X104855100Y-76831460D01*
X104856450Y-76831020D01*
X104868280Y-76827180D01*
X104905210Y-76805860D01*
X104926970Y-76793300D01*
X104932770Y-76790150D01*
X104987270Y-76762380D01*
X104993150Y-76759380D01*
X105003920Y-76750660D01*
X105020210Y-76739470D01*
X105032220Y-76732530D01*
X105037120Y-76728120D01*
X105042470Y-76724230D01*
X105043550Y-76725730D01*
X105101900Y-76698370D01*
X105163880Y-76689380D01*
X105275740Y-76673160D01*
X105281450Y-76672330D01*
X105286920Y-76670480D01*
X105484910Y-76603270D01*
X105490380Y-76601410D01*
X105682880Y-76493600D01*
X105740100Y-76446020D01*
X105759810Y-76429630D01*
X105824970Y-76401450D01*
X105840380Y-76400500D01*
X106074810Y-76400500D01*
X106142930Y-76420500D01*
X106163910Y-76437410D01*
X107306120Y-77579620D01*
X107318960Y-77594650D01*
X107327110Y-77605870D01*
X107332010Y-77610280D01*
X107332020Y-77610290D01*
X107377490Y-77651230D01*
X107382270Y-77655770D01*
X107396620Y-77670120D01*
X107399180Y-77672200D01*
X107412400Y-77682900D01*
X107417420Y-77687190D01*
X107462870Y-77728110D01*
X107467780Y-77732530D01*
X107479790Y-77739470D01*
X107496080Y-77750660D01*
X107506850Y-77759380D01*
X107512730Y-77762380D01*
X107567230Y-77790150D01*
X107573030Y-77793300D01*
X107626000Y-77823880D01*
X107631720Y-77827180D01*
X107643550Y-77831020D01*
X107644900Y-77831460D01*
X107663160Y-77839030D01*
X107669630Y-77842320D01*
X107675510Y-77845320D01*
X107740980Y-77862860D01*
X107747280Y-77864730D01*
X107811740Y-77885670D01*
X107825090Y-77887080D01*
X107825530Y-77887120D01*
X107844970Y-77890730D01*
X107846540Y-77891150D01*
X107858350Y-77894310D01*
X107864950Y-77894660D01*
X107864960Y-77894660D01*
X107926010Y-77897860D01*
X107932590Y-77898380D01*
X107949530Y-77900160D01*
X107949540Y-77900160D01*
X107952810Y-77900500D01*
X107973130Y-77900500D01*
X107979730Y-77900670D01*
X108040800Y-77903870D01*
X108047390Y-77904220D01*
X108061080Y-77902050D01*
X108080790Y-77900500D01*
X118419210Y-77900500D01*
X118438920Y-77902050D01*
X118452610Y-77904220D01*
X118459200Y-77903870D01*
X118520280Y-77900670D01*
X118526870Y-77900500D01*
X118547190Y-77900500D01*
X118550460Y-77900160D01*
X118550470Y-77900160D01*
X118567400Y-77898380D01*
X118573970Y-77897860D01*
X118603630Y-77896310D01*
X118635050Y-77894660D01*
X118635060Y-77894660D01*
X118641650Y-77894310D01*
X118655040Y-77890730D01*
X118674480Y-77887120D01*
X118681690Y-77886360D01*
X118681700Y-77886360D01*
X118688260Y-77885670D01*
X118694530Y-77883630D01*
X118694540Y-77883630D01*
X118752700Y-77864740D01*
X118759030Y-77862860D01*
X118818110Y-77847030D01*
X118818120Y-77847030D01*
X118824490Y-77845320D01*
X118830370Y-77842320D01*
X118836840Y-77839030D01*
X118855100Y-77831460D01*
X118856450Y-77831020D01*
X118868280Y-77827180D01*
X118874000Y-77823880D01*
X118926970Y-77793300D01*
X118932770Y-77790150D01*
X118987270Y-77762380D01*
X118993150Y-77759380D01*
X119003920Y-77750660D01*
X119020210Y-77739470D01*
X119032220Y-77732530D01*
X119037130Y-77728110D01*
X119082580Y-77687190D01*
X119087600Y-77682900D01*
X119100820Y-77672200D01*
X119103380Y-77670120D01*
X119117730Y-77655770D01*
X119122510Y-77651230D01*
X119167990Y-77610290D01*
X119167990Y-77610280D01*
X119172890Y-77605870D01*
X119181040Y-77594650D01*
X119193880Y-77579620D01*
X119307830Y-77465670D01*
X138995120Y-77465670D01*
X138995420Y-77470820D01*
X139002900Y-77600540D01*
X139008380Y-77695580D01*
X139009510Y-77700630D01*
X139038030Y-77827180D01*
X139059010Y-77920240D01*
X139060950Y-77925020D01*
X139060950Y-77925030D01*
X139098430Y-78017330D01*
X139145650Y-78133620D01*
X139265980Y-78329980D01*
X139416760Y-78504050D01*
X139593950Y-78651150D01*
X139792790Y-78767350D01*
X140007930Y-78849500D01*
X140013000Y-78850530D01*
X140113700Y-78871020D01*
X140233610Y-78895410D01*
X140363350Y-78900170D01*
X140458590Y-78903660D01*
X140463750Y-78903850D01*
X140468870Y-78903200D01*
X140538270Y-78894310D01*
X140692180Y-78874590D01*
X140697130Y-78873110D01*
X140907810Y-78809900D01*
X140912760Y-78808410D01*
X141119570Y-78707100D01*
X141307060Y-78573360D01*
X141470190Y-78410800D01*
X141528270Y-78329980D01*
X141601560Y-78227980D01*
X141604580Y-78223780D01*
X141706620Y-78017330D01*
X141740980Y-77904220D01*
X141772060Y-77801930D01*
X141772060Y-77801920D01*
X141773560Y-77796980D01*
X141792460Y-77653430D01*
X141803190Y-77571970D01*
X141803620Y-77568650D01*
X141805300Y-77500000D01*
X141802480Y-77465670D01*
X146495120Y-77465670D01*
X146495420Y-77470820D01*
X146502900Y-77600540D01*
X146508380Y-77695580D01*
X146509510Y-77700630D01*
X146538030Y-77827180D01*
X146559010Y-77920240D01*
X146560950Y-77925020D01*
X146560950Y-77925030D01*
X146598430Y-78017330D01*
X146645650Y-78133620D01*
X146765980Y-78329980D01*
X146916760Y-78504050D01*
X147093950Y-78651150D01*
X147292790Y-78767350D01*
X147507930Y-78849500D01*
X147513000Y-78850530D01*
X147613700Y-78871020D01*
X147733610Y-78895410D01*
X147863350Y-78900170D01*
X147958590Y-78903660D01*
X147963750Y-78903850D01*
X147968870Y-78903200D01*
X148038270Y-78894310D01*
X148192180Y-78874590D01*
X148197130Y-78873110D01*
X148407810Y-78809900D01*
X148412760Y-78808410D01*
X148619570Y-78707100D01*
X148807060Y-78573360D01*
X148970190Y-78410800D01*
X149028270Y-78329980D01*
X149101560Y-78227980D01*
X149104580Y-78223780D01*
X149206620Y-78017330D01*
X149240980Y-77904220D01*
X149272060Y-77801930D01*
X149272060Y-77801920D01*
X149273560Y-77796980D01*
X149292460Y-77653430D01*
X149303190Y-77571970D01*
X149303620Y-77568650D01*
X149305300Y-77500000D01*
X149286430Y-77270480D01*
X149230330Y-77047120D01*
X149169642Y-76907560D01*
X168399500Y-76907560D01*
X168414350Y-77001350D01*
X168471950Y-77114380D01*
X168561660Y-77204090D01*
X168674700Y-77261690D01*
X168684490Y-77263240D01*
X168711850Y-77267570D01*
X168768480Y-77276540D01*
X169999750Y-77276540D01*
X171231520Y-77276540D01*
X171236410Y-77275770D01*
X171315510Y-77263240D01*
X171325300Y-77261690D01*
X171438340Y-77204090D01*
X171528050Y-77114380D01*
X171585650Y-77001350D01*
X171600500Y-76907560D01*
X171600500Y-74444520D01*
X171597460Y-74425300D01*
X171587200Y-74360540D01*
X171587200Y-74360530D01*
X171585650Y-74350740D01*
X171578350Y-74336410D01*
X171551740Y-74284190D01*
X171528050Y-74237700D01*
X171438340Y-74147990D01*
X171325300Y-74090400D01*
X171315520Y-74088850D01*
X171315510Y-74088840D01*
X171288150Y-74084510D01*
X171231520Y-74075540D01*
X170000250Y-74075540D01*
X168768480Y-74075540D01*
X168763590Y-74076320D01*
X168684490Y-74088840D01*
X168674700Y-74090400D01*
X168561660Y-74147990D01*
X168471950Y-74237700D01*
X168414350Y-74350740D01*
X168399500Y-74444520D01*
X168399500Y-76907560D01*
X149169642Y-76907560D01*
X149163880Y-76894310D01*
X149140560Y-76840660D01*
X149140550Y-76840660D01*
X149138500Y-76835920D01*
X149013410Y-76642560D01*
X148992770Y-76619890D01*
X148861890Y-76476050D01*
X148858410Y-76472230D01*
X148854360Y-76469030D01*
X148681740Y-76332700D01*
X148681730Y-76332690D01*
X148677680Y-76329500D01*
X148673170Y-76327000D01*
X148673160Y-76327000D01*
X148480590Y-76220700D01*
X148480590Y-76220690D01*
X148476070Y-76218200D01*
X148471200Y-76216470D01*
X148471190Y-76216470D01*
X148263850Y-76143050D01*
X148258980Y-76141320D01*
X148253890Y-76140420D01*
X148253880Y-76140420D01*
X148139680Y-76120070D01*
X148032250Y-76100940D01*
X147945800Y-76099880D01*
X147807140Y-76098190D01*
X147801970Y-76098120D01*
X147574330Y-76132960D01*
X147355420Y-76204510D01*
X147151150Y-76310850D01*
X146966980Y-76449120D01*
X146807880Y-76615620D01*
X146804960Y-76619890D01*
X146768620Y-76673160D01*
X146678100Y-76805860D01*
X146675920Y-76810550D01*
X146675920Y-76810560D01*
X146591910Y-76991550D01*
X146581140Y-77014750D01*
X146519590Y-77236670D01*
X146495120Y-77465670D01*
X141802480Y-77465670D01*
X141786430Y-77270480D01*
X141730330Y-77047120D01*
X141663880Y-76894310D01*
X141640560Y-76840660D01*
X141640550Y-76840660D01*
X141638500Y-76835920D01*
X141513410Y-76642560D01*
X141492770Y-76619890D01*
X141361890Y-76476050D01*
X141358410Y-76472230D01*
X141354360Y-76469030D01*
X141181740Y-76332700D01*
X141181730Y-76332690D01*
X141177680Y-76329500D01*
X141173170Y-76327000D01*
X141173160Y-76327000D01*
X140980590Y-76220700D01*
X140980590Y-76220690D01*
X140976070Y-76218200D01*
X140971200Y-76216470D01*
X140971190Y-76216470D01*
X140763850Y-76143050D01*
X140758980Y-76141320D01*
X140753890Y-76140420D01*
X140753880Y-76140420D01*
X140639680Y-76120070D01*
X140532250Y-76100940D01*
X140445800Y-76099880D01*
X140307140Y-76098190D01*
X140301970Y-76098120D01*
X140074330Y-76132960D01*
X139855420Y-76204510D01*
X139651150Y-76310850D01*
X139466980Y-76449120D01*
X139307880Y-76615620D01*
X139304960Y-76619890D01*
X139268620Y-76673160D01*
X139178100Y-76805860D01*
X139175920Y-76810550D01*
X139175920Y-76810560D01*
X139091910Y-76991550D01*
X139081140Y-77014750D01*
X139019590Y-77236670D01*
X138995120Y-77465670D01*
X119307830Y-77465670D01*
X120579620Y-76193880D01*
X120594650Y-76181040D01*
X120605870Y-76172890D01*
X120651230Y-76122510D01*
X120655770Y-76117730D01*
X120670120Y-76103380D01*
X120682900Y-76087600D01*
X120687190Y-76082580D01*
X120728110Y-76037130D01*
X120732530Y-76032220D01*
X120739470Y-76020210D01*
X120750660Y-76003920D01*
X120755230Y-75998280D01*
X120759380Y-75993150D01*
X120762380Y-75987270D01*
X120790150Y-75932770D01*
X120793300Y-75926970D01*
X120823880Y-75874000D01*
X120827180Y-75868280D01*
X120831460Y-75855100D01*
X120839030Y-75836840D01*
X120842320Y-75830370D01*
X120845320Y-75824490D01*
X120862860Y-75759020D01*
X120864730Y-75752720D01*
X120885670Y-75688260D01*
X120887120Y-75674470D01*
X120890730Y-75655030D01*
X120891150Y-75653460D01*
X120894310Y-75641650D01*
X120897860Y-75573990D01*
X120898380Y-75567420D01*
X120900160Y-75550470D01*
X120900160Y-75550460D01*
X120900500Y-75547190D01*
X120900500Y-75526870D01*
X120900670Y-75520270D01*
X120903870Y-75459200D01*
X120904220Y-75452610D01*
X120902050Y-75438920D01*
X120900500Y-75419210D01*
X120900500Y-74444520D01*
X120900500Y-72103160D01*
X120920500Y-72035030D01*
X120939530Y-72011990D01*
X120954200Y-71997990D01*
X121064500Y-71892770D01*
X121201560Y-71708550D01*
X121215580Y-71680970D01*
X121218090Y-71676040D01*
X158394550Y-71676040D01*
X158414320Y-71927190D01*
X158415470Y-71932000D01*
X158440210Y-72035030D01*
X158473130Y-72172150D01*
X158475020Y-72176720D01*
X158475020Y-72176730D01*
X158558790Y-72378960D01*
X158569530Y-72404900D01*
X158701160Y-72619700D01*
X158704380Y-72623460D01*
X158704380Y-72623470D01*
X158849260Y-72793090D01*
X158864780Y-72811270D01*
X158868540Y-72814480D01*
X159052580Y-72971660D01*
X159052580Y-72971670D01*
X159056340Y-72974880D01*
X159271140Y-73106510D01*
X159275710Y-73108400D01*
X159275720Y-73108400D01*
X159449050Y-73180200D01*
X159503890Y-73202910D01*
X159588290Y-73223180D01*
X159744040Y-73260570D01*
X159744050Y-73260570D01*
X159748850Y-73261720D01*
X160000000Y-73281490D01*
X160251150Y-73261720D01*
X160255960Y-73260570D01*
X160411710Y-73223180D01*
X160496110Y-73202910D01*
X160550960Y-73180200D01*
X160724290Y-73108400D01*
X160728860Y-73106510D01*
X160943660Y-72974880D01*
X160947420Y-72971670D01*
X160947420Y-72971660D01*
X161131460Y-72814480D01*
X161135220Y-72811270D01*
X161150740Y-72793090D01*
X161295620Y-72623470D01*
X161295620Y-72623460D01*
X161298840Y-72619700D01*
X161430470Y-72404900D01*
X161441210Y-72378960D01*
X161524980Y-72176730D01*
X161524980Y-72176720D01*
X161526870Y-72172150D01*
X161559790Y-72035030D01*
X161584530Y-71932000D01*
X161585680Y-71927190D01*
X161605450Y-71676040D01*
X161585680Y-71424890D01*
X161526870Y-71179930D01*
X161524980Y-71175360D01*
X161432360Y-70951760D01*
X161432360Y-70951750D01*
X161430470Y-70947180D01*
X161298840Y-70732380D01*
X161295620Y-70728620D01*
X161138440Y-70544580D01*
X161135220Y-70540820D01*
X161049110Y-70467270D01*
X160947420Y-70380420D01*
X160943660Y-70377210D01*
X160728860Y-70245580D01*
X160724290Y-70243680D01*
X160500680Y-70151060D01*
X160496110Y-70149170D01*
X160411710Y-70128910D01*
X160255960Y-70091510D01*
X160251150Y-70090360D01*
X160000000Y-70070590D01*
X159748850Y-70090360D01*
X159744050Y-70091510D01*
X159744040Y-70091510D01*
X159588290Y-70128910D01*
X159503890Y-70149170D01*
X159499320Y-70151060D01*
X159275720Y-70243680D01*
X159275710Y-70243680D01*
X159271140Y-70245580D01*
X159056340Y-70377210D01*
X159052580Y-70380420D01*
X158950890Y-70467270D01*
X158864780Y-70540820D01*
X158861560Y-70544580D01*
X158704380Y-70728620D01*
X158701160Y-70732380D01*
X158569530Y-70947180D01*
X158567640Y-70951750D01*
X158567640Y-70951760D01*
X158475020Y-71175360D01*
X158473130Y-71179930D01*
X158414320Y-71424890D01*
X158394550Y-71676040D01*
X121218090Y-71676040D01*
X121260920Y-71591800D01*
X121305630Y-71503870D01*
X121373720Y-71284590D01*
X121391140Y-71153150D01*
X121403190Y-71062250D01*
X121403890Y-71056970D01*
X121401870Y-71003360D01*
X121395470Y-70832850D01*
X121395270Y-70827520D01*
X121369920Y-70706700D01*
X121349220Y-70608010D01*
X121348120Y-70602800D01*
X121346160Y-70597840D01*
X121346160Y-70597830D01*
X121265740Y-70394200D01*
X121263780Y-70389230D01*
X121258430Y-70380420D01*
X121147430Y-70197500D01*
X121147430Y-70197490D01*
X121144660Y-70192940D01*
X120994180Y-70019510D01*
X120990050Y-70016130D01*
X120990040Y-70016130D01*
X120820750Y-69877310D01*
X120816620Y-69873930D01*
X120811990Y-69871290D01*
X120811970Y-69871280D01*
X120745630Y-69833510D01*
X120696320Y-69782430D01*
X120682460Y-69712800D01*
X120708440Y-69646730D01*
X120737590Y-69619490D01*
X120758720Y-69605270D01*
X120898360Y-69511260D01*
X120910680Y-69499500D01*
X120987220Y-69426490D01*
X121064500Y-69352770D01*
X121109540Y-69292240D01*
X121198380Y-69172830D01*
X121201560Y-69168550D01*
X121305630Y-68963870D01*
X121373720Y-68744590D01*
X121382360Y-68679370D01*
X121403190Y-68522250D01*
X121403890Y-68516970D01*
X121400080Y-68415690D01*
X121395270Y-68287520D01*
X121392970Y-68276540D01*
X121349220Y-68068010D01*
X121348120Y-68062800D01*
X121346160Y-68057840D01*
X121346160Y-68057830D01*
X121286814Y-67907560D01*
X129899500Y-67907560D01*
X129900280Y-67912450D01*
X129905780Y-67947220D01*
X129914350Y-68001350D01*
X129971950Y-68114380D01*
X130061660Y-68204090D01*
X130174700Y-68261690D01*
X130184490Y-68263240D01*
X130211850Y-68267570D01*
X130268480Y-68276540D01*
X131499750Y-68276540D01*
X132731520Y-68276540D01*
X132736410Y-68275770D01*
X132815510Y-68263240D01*
X132825300Y-68261690D01*
X132938340Y-68204090D01*
X133028050Y-68114380D01*
X133085650Y-68001350D01*
X133100500Y-67907560D01*
X133100500Y-66468440D01*
X138794770Y-66468440D01*
X138809200Y-66688600D01*
X138810620Y-66694200D01*
X138810620Y-66694210D01*
X138846000Y-66833500D01*
X138863510Y-66902450D01*
X138865930Y-66907690D01*
X138865930Y-66907700D01*
X138918650Y-67022050D01*
X138955880Y-67102820D01*
X139083220Y-67283000D01*
X139241260Y-67436960D01*
X139246060Y-67440170D01*
X139374050Y-67525690D01*
X139424720Y-67559540D01*
X139430020Y-67561820D01*
X139622130Y-67644360D01*
X139627440Y-67646640D01*
X139675440Y-67657500D01*
X139837000Y-67694050D01*
X139837000Y-67694060D01*
X139842630Y-67695330D01*
X139848400Y-67695560D01*
X139848410Y-67695560D01*
X139916210Y-67698220D01*
X140063100Y-67703990D01*
X140172280Y-67688160D01*
X140275740Y-67673160D01*
X140281450Y-67672330D01*
X140286920Y-67670480D01*
X140484910Y-67603270D01*
X140490380Y-67601410D01*
X140682880Y-67493600D01*
X140694970Y-67483550D01*
X140848090Y-67356200D01*
X140852520Y-67352520D01*
X140928040Y-67261720D01*
X140989910Y-67187330D01*
X140989910Y-67187320D01*
X140993600Y-67182880D01*
X141058610Y-67066810D01*
X141098590Y-66995420D01*
X141101410Y-66990380D01*
X141103270Y-66984910D01*
X141170480Y-66786920D01*
X141172330Y-66781450D01*
X141173160Y-66775740D01*
X141203460Y-66566770D01*
X141203990Y-66563100D01*
X141205640Y-66500000D01*
X141185450Y-66280290D01*
X141125570Y-66067940D01*
X141027980Y-65870050D01*
X140895970Y-65693270D01*
X140821368Y-65624310D01*
X144944500Y-65624310D01*
X144944500Y-68415690D01*
X144944690Y-68418140D01*
X144944690Y-68418150D01*
X144946370Y-68439420D01*
X144947400Y-68452570D01*
X144993260Y-68610400D01*
X144997290Y-68617220D01*
X145034040Y-68679370D01*
X145076920Y-68751870D01*
X145193140Y-68868080D01*
X145334600Y-68951740D01*
X145342210Y-68953960D01*
X145342220Y-68953960D01*
X145376350Y-68963870D01*
X145492430Y-68997600D01*
X145505580Y-68998630D01*
X145526850Y-69000310D01*
X145526860Y-69000310D01*
X145529310Y-69000500D01*
X149260690Y-69000500D01*
X149263140Y-69000310D01*
X149263150Y-69000310D01*
X149284420Y-68998630D01*
X149297570Y-68997600D01*
X149413650Y-68963870D01*
X149447790Y-68953960D01*
X149455400Y-68951740D01*
X149596870Y-68868080D01*
X149713080Y-68751870D01*
X149755960Y-68679370D01*
X149792710Y-68617220D01*
X149796740Y-68610400D01*
X149842600Y-68452570D01*
X149843630Y-68439420D01*
X149845310Y-68418150D01*
X149845310Y-68418140D01*
X149845500Y-68415690D01*
X149845500Y-67907560D01*
X158399500Y-67907560D01*
X158400280Y-67912450D01*
X158405780Y-67947220D01*
X158414350Y-68001350D01*
X158471950Y-68114380D01*
X158561660Y-68204090D01*
X158674700Y-68261690D01*
X158684490Y-68263240D01*
X158711850Y-68267570D01*
X158768480Y-68276540D01*
X159999750Y-68276540D01*
X161231520Y-68276540D01*
X161236410Y-68275770D01*
X161315510Y-68263240D01*
X161325300Y-68261690D01*
X161438340Y-68204090D01*
X161528050Y-68114380D01*
X161585650Y-68001350D01*
X161600500Y-67907560D01*
X161600500Y-66000000D01*
X168394560Y-66000000D01*
X168414310Y-66376870D01*
X168414820Y-66380110D01*
X168414820Y-66380120D01*
X168441990Y-66551650D01*
X168473350Y-66749610D01*
X168571020Y-67114140D01*
X168572210Y-67117230D01*
X168602360Y-67195790D01*
X168706270Y-67466470D01*
X168707760Y-67469410D01*
X168844340Y-67737450D01*
X168877600Y-67802720D01*
X169083140Y-68119230D01*
X169320640Y-68412510D01*
X169587490Y-68679370D01*
X169880780Y-68916860D01*
X170197280Y-69122400D01*
X170200210Y-69123900D01*
X170200220Y-69123900D01*
X170461640Y-69257100D01*
X170533540Y-69293730D01*
X170747960Y-69376040D01*
X170879370Y-69426490D01*
X170885860Y-69428980D01*
X171250390Y-69526650D01*
X171448350Y-69558010D01*
X171619880Y-69585180D01*
X171619890Y-69585180D01*
X171623130Y-69585690D01*
X172000000Y-69605440D01*
X172376870Y-69585690D01*
X172380110Y-69585180D01*
X172380120Y-69585180D01*
X172551650Y-69558010D01*
X172749610Y-69526650D01*
X173114140Y-69428980D01*
X173120630Y-69426490D01*
X173252040Y-69376040D01*
X173466470Y-69293730D01*
X173538370Y-69257100D01*
X173799780Y-69123900D01*
X173799790Y-69123900D01*
X173802720Y-69122400D01*
X174119230Y-68916860D01*
X174412510Y-68679370D01*
X174679370Y-68412510D01*
X174916860Y-68119230D01*
X175122400Y-67802720D01*
X175155660Y-67737450D01*
X175292240Y-67469410D01*
X175293730Y-67466470D01*
X175397640Y-67195790D01*
X175427790Y-67117230D01*
X175428980Y-67114140D01*
X175526650Y-66749610D01*
X175558010Y-66551650D01*
X175585180Y-66380120D01*
X175585180Y-66380110D01*
X175585690Y-66376870D01*
X175605440Y-66000000D01*
X175585690Y-65623130D01*
X175581890Y-65599130D01*
X175539970Y-65334460D01*
X175526650Y-65250390D01*
X175428980Y-64885860D01*
X175406140Y-64826360D01*
X175363450Y-64715150D01*
X175293730Y-64533540D01*
X175242070Y-64432130D01*
X175123900Y-64200220D01*
X175123900Y-64200210D01*
X175122400Y-64197280D01*
X175030760Y-64056170D01*
X174918670Y-63883550D01*
X174916860Y-63880780D01*
X174679370Y-63587490D01*
X174412510Y-63320640D01*
X174119230Y-63083140D01*
X173802720Y-62877600D01*
X173799790Y-62876100D01*
X173799780Y-62876100D01*
X173469410Y-62707760D01*
X173466470Y-62706270D01*
X173114140Y-62571020D01*
X172749610Y-62473350D01*
X172551650Y-62441990D01*
X172380120Y-62414820D01*
X172380110Y-62414820D01*
X172376870Y-62414310D01*
X172000000Y-62394560D01*
X171623130Y-62414310D01*
X171619890Y-62414820D01*
X171619880Y-62414820D01*
X171448350Y-62441990D01*
X171250390Y-62473350D01*
X170885860Y-62571020D01*
X170533540Y-62706270D01*
X170530600Y-62707760D01*
X170200220Y-62876100D01*
X170200210Y-62876100D01*
X170197280Y-62877600D01*
X169880780Y-63083140D01*
X169587490Y-63320640D01*
X169320640Y-63587490D01*
X169083140Y-63880780D01*
X169081340Y-63883550D01*
X168969240Y-64056170D01*
X168877600Y-64197280D01*
X168876100Y-64200210D01*
X168876100Y-64200220D01*
X168757940Y-64432130D01*
X168706270Y-64533540D01*
X168636550Y-64715150D01*
X168593860Y-64826360D01*
X168571020Y-64885860D01*
X168473350Y-65250390D01*
X168460030Y-65334460D01*
X168418110Y-65599130D01*
X168414310Y-65623130D01*
X168394560Y-66000000D01*
X161600500Y-66000000D01*
X161600500Y-65444520D01*
X161585650Y-65350740D01*
X161528050Y-65237700D01*
X161438340Y-65147990D01*
X161325300Y-65090400D01*
X161315520Y-65088850D01*
X161315510Y-65088840D01*
X161283560Y-65083780D01*
X161231520Y-65075540D01*
X160000250Y-65075540D01*
X158768480Y-65075540D01*
X158763590Y-65076320D01*
X158684490Y-65088840D01*
X158674700Y-65090400D01*
X158561660Y-65147990D01*
X158471950Y-65237700D01*
X158414350Y-65350740D01*
X158399500Y-65444520D01*
X158399500Y-67907560D01*
X149845500Y-67907560D01*
X149845500Y-65624310D01*
X149845310Y-65621860D01*
X149845310Y-65621850D01*
X149843100Y-65593850D01*
X149842600Y-65587430D01*
X149801080Y-65444520D01*
X149796740Y-65429600D01*
X149747390Y-65346150D01*
X149717120Y-65294960D01*
X149713080Y-65288140D01*
X149596870Y-65171920D01*
X149455400Y-65088260D01*
X149447790Y-65086050D01*
X149447790Y-65086040D01*
X149303750Y-65044200D01*
X149303760Y-65044200D01*
X149297570Y-65042400D01*
X149284420Y-65041370D01*
X149263150Y-65039690D01*
X149263140Y-65039690D01*
X149260690Y-65039500D01*
X145529310Y-65039500D01*
X145526860Y-65039690D01*
X145526850Y-65039690D01*
X145505580Y-65041370D01*
X145492430Y-65042400D01*
X145486250Y-65044200D01*
X145342220Y-65086040D01*
X145342210Y-65086050D01*
X145334600Y-65088260D01*
X145193140Y-65171920D01*
X145076920Y-65288140D01*
X145072890Y-65294960D01*
X145042610Y-65346150D01*
X144993260Y-65429600D01*
X144947400Y-65587430D01*
X144946900Y-65593850D01*
X144944690Y-65621850D01*
X144944690Y-65621860D01*
X144944500Y-65624310D01*
X140821368Y-65624310D01*
X140781470Y-65587430D01*
X140738190Y-65547420D01*
X140733950Y-65543500D01*
X140547350Y-65425760D01*
X140342420Y-65344010D01*
X140336760Y-65342880D01*
X140131690Y-65302090D01*
X140126020Y-65300960D01*
X140120250Y-65300890D01*
X140009500Y-65299440D01*
X139905410Y-65298070D01*
X139899710Y-65299050D01*
X139693650Y-65334460D01*
X139687960Y-65335440D01*
X139480960Y-65411800D01*
X139476000Y-65414760D01*
X139434190Y-65439630D01*
X139291340Y-65524610D01*
X139125460Y-65670090D01*
X138988860Y-65843360D01*
X138886130Y-66038620D01*
X138820700Y-66249330D01*
X138794770Y-66468440D01*
X133100500Y-66468440D01*
X133100500Y-65444520D01*
X133085650Y-65350740D01*
X133028050Y-65237700D01*
X132938340Y-65147990D01*
X132825300Y-65090400D01*
X132815520Y-65088850D01*
X132815510Y-65088840D01*
X132783560Y-65083780D01*
X132731520Y-65075540D01*
X131500250Y-65075540D01*
X130268480Y-65075540D01*
X130263590Y-65076320D01*
X130184490Y-65088840D01*
X130174700Y-65090400D01*
X130061660Y-65147990D01*
X129971950Y-65237700D01*
X129914350Y-65350740D01*
X129899500Y-65444520D01*
X129899500Y-67907560D01*
X121286814Y-67907560D01*
X121265740Y-67854200D01*
X121263780Y-67849230D01*
X121241120Y-67811890D01*
X121147430Y-67657500D01*
X121147430Y-67657490D01*
X121144660Y-67652940D01*
X120994180Y-67479510D01*
X120990360Y-67476390D01*
X120955530Y-67414660D01*
X120959610Y-67343780D01*
X121001360Y-67286360D01*
X121058560Y-67261720D01*
X121089260Y-67256860D01*
X121115510Y-67252700D01*
X121125300Y-67251150D01*
X121238340Y-67193550D01*
X121328050Y-67103840D01*
X121385650Y-66990800D01*
X121400500Y-66897020D01*
X121400500Y-65444520D01*
X121400500Y-64928980D01*
X121385650Y-64835200D01*
X121328050Y-64722160D01*
X121238340Y-64632450D01*
X121125300Y-64574850D01*
X121115520Y-64573300D01*
X121115510Y-64573300D01*
X121088150Y-64568970D01*
X121031520Y-64560000D01*
X120000210Y-64560000D01*
X118968480Y-64560000D01*
X118963590Y-64560780D01*
X118884490Y-64573300D01*
X118874700Y-64574850D01*
X118761660Y-64632450D01*
X118671950Y-64722160D01*
X118614350Y-64835200D01*
X118612800Y-64844990D01*
X118603110Y-64906210D01*
X118572690Y-64970360D01*
X118512430Y-65007890D01*
X118478660Y-65012500D01*
X117809800Y-65012500D01*
X117790080Y-65010950D01*
X117782910Y-65009810D01*
X117782900Y-65009810D01*
X117776390Y-65008780D01*
X117769800Y-65009130D01*
X117708710Y-65012330D01*
X117702120Y-65012500D01*
X117681810Y-65012500D01*
X117678540Y-65012840D01*
X117661610Y-65014620D01*
X117655030Y-65015140D01*
X117593960Y-65018340D01*
X117587360Y-65018690D01*
X117580970Y-65020400D01*
X117573970Y-65022270D01*
X117554530Y-65025880D01*
X117540740Y-65027330D01*
X117487000Y-65044790D01*
X117476290Y-65048270D01*
X117469960Y-65050140D01*
X117410890Y-65065970D01*
X117404510Y-65067680D01*
X117398630Y-65070680D01*
X117392160Y-65073970D01*
X117373910Y-65081540D01*
X117360720Y-65085820D01*
X117355000Y-65089120D01*
X117302040Y-65119700D01*
X117296240Y-65122850D01*
X117241740Y-65150610D01*
X117241740Y-65150620D01*
X117235850Y-65153620D01*
X117230710Y-65157780D01*
X117225080Y-65162340D01*
X117208780Y-65173540D01*
X117202500Y-65177160D01*
X117202500Y-65177170D01*
X117196780Y-65180470D01*
X117191880Y-65184880D01*
X117146420Y-65225820D01*
X117141420Y-65230090D01*
X117125620Y-65242880D01*
X117111260Y-65257240D01*
X117106480Y-65261780D01*
X117061020Y-65302710D01*
X117061020Y-65302720D01*
X117056110Y-65307130D01*
X117047960Y-65318350D01*
X117035130Y-65333370D01*
X115607560Y-66760940D01*
X115592530Y-66773780D01*
X115581310Y-66781930D01*
X115576900Y-66786830D01*
X115535950Y-66832300D01*
X115531410Y-66837090D01*
X115517060Y-66851440D01*
X115514990Y-66854000D01*
X115504280Y-66867220D01*
X115500000Y-66872240D01*
X115459070Y-66917690D01*
X115454650Y-66922600D01*
X115447720Y-66934610D01*
X115436520Y-66950900D01*
X115427800Y-66961670D01*
X115424800Y-66967550D01*
X115397030Y-67022050D01*
X115393890Y-67027850D01*
X115363300Y-67080820D01*
X115360000Y-67086530D01*
X115357250Y-67095010D01*
X115355720Y-67099720D01*
X115348160Y-67117980D01*
X115341860Y-67130330D01*
X115340160Y-67136700D01*
X115340150Y-67136710D01*
X115324320Y-67195790D01*
X115322450Y-67202120D01*
X115306010Y-67252700D01*
X115301510Y-67266560D01*
X115300820Y-67273120D01*
X115300060Y-67280340D01*
X115296460Y-67299780D01*
X115292870Y-67313170D01*
X115292530Y-67319760D01*
X115292520Y-67319770D01*
X115289330Y-67380830D01*
X115288810Y-67387420D01*
X115287030Y-67404350D01*
X115287030Y-67404360D01*
X115286680Y-67407630D01*
X115286680Y-67427940D01*
X115286510Y-67434540D01*
X115283420Y-67493600D01*
X115282960Y-67502210D01*
X115284000Y-67508720D01*
X115285130Y-67515890D01*
X115286680Y-67535600D01*
X115286680Y-69736690D01*
X115266680Y-69804810D01*
X115236340Y-69837450D01*
X115191680Y-69870980D01*
X115187550Y-69874080D01*
X115183980Y-69877820D01*
X115059470Y-70008110D01*
X115017080Y-70052470D01*
X115014170Y-70056740D01*
X115014160Y-70056740D01*
X114951120Y-70149170D01*
X114878030Y-70256300D01*
X114774150Y-70480100D01*
X114708210Y-70717870D01*
X114681990Y-70963210D01*
X114682290Y-70968370D01*
X114688160Y-71070200D01*
X114696190Y-71209550D01*
X114697330Y-71214590D01*
X114697330Y-71214600D01*
X114719520Y-71313050D01*
X114750440Y-71450250D01*
X114843270Y-71678860D01*
X114972190Y-71889240D01*
X115133740Y-72075740D01*
X115137720Y-72079040D01*
X115241170Y-72164930D01*
X115280800Y-72223830D01*
X115286680Y-72261870D01*
X115286680Y-73211510D01*
X115266680Y-73279630D01*
X115213030Y-73326120D01*
X115193290Y-73333220D01*
X115188650Y-73334460D01*
X115182960Y-73335440D01*
X114975960Y-73411800D01*
X114786340Y-73524610D01*
X114620460Y-73670090D01*
X114483860Y-73843360D01*
X114381130Y-74038620D01*
X114346410Y-74150430D01*
X114345430Y-74153590D01*
X114306130Y-74212720D01*
X114241100Y-74241210D01*
X114170990Y-74230020D01*
X114118060Y-74182700D01*
X114103830Y-74150430D01*
X114086900Y-74090400D01*
X114080570Y-74067940D01*
X114004030Y-73912730D01*
X113985540Y-73875230D01*
X113982980Y-73870050D01*
X113901120Y-73760430D01*
X113854420Y-73697890D01*
X113850970Y-73693270D01*
X113688950Y-73543500D01*
X113502350Y-73425760D01*
X113356990Y-73367770D01*
X113301130Y-73323950D01*
X113277680Y-73250740D01*
X113277680Y-72626500D01*
X113297690Y-72558380D01*
X113351340Y-72511890D01*
X113403680Y-72500500D01*
X113508700Y-72500500D01*
X113513600Y-72499720D01*
X113592690Y-72487200D01*
X113602490Y-72485650D01*
X113715530Y-72428050D01*
X113805230Y-72338340D01*
X113862830Y-72225300D01*
X113866410Y-72202720D01*
X113871250Y-72172150D01*
X113877680Y-72131520D01*
X113877680Y-69868480D01*
X113862830Y-69774700D01*
X113805230Y-69661660D01*
X113715530Y-69571950D01*
X113602490Y-69514350D01*
X113592700Y-69512800D01*
X113559690Y-69507580D01*
X113508700Y-69499500D01*
X112377410Y-69499500D01*
X111245670Y-69499500D01*
X111240770Y-69500280D01*
X111161680Y-69512800D01*
X111151880Y-69514350D01*
X111038840Y-69571950D01*
X110949130Y-69661660D01*
X110891540Y-69774700D01*
X110876680Y-69868480D01*
X110876680Y-69893500D01*
X110856680Y-69961620D01*
X110803030Y-70008110D01*
X110750680Y-70019500D01*
X104626000Y-70019500D01*
X104557880Y-69999500D01*
X104511390Y-69945840D01*
X104500000Y-69893500D01*
X104500000Y-67586470D01*
X104520000Y-67518350D01*
X104573660Y-67471860D01*
X104643930Y-67461760D01*
X104708510Y-67491250D01*
X104738270Y-67529270D01*
X104844340Y-67737450D01*
X104877600Y-67802720D01*
X105083140Y-68119230D01*
X105320640Y-68412510D01*
X105587490Y-68679370D01*
X105880780Y-68916860D01*
X106197280Y-69122400D01*
X106200210Y-69123900D01*
X106200220Y-69123900D01*
X106461640Y-69257100D01*
X106533540Y-69293730D01*
X106747960Y-69376040D01*
X106879370Y-69426490D01*
X106885860Y-69428980D01*
X107250390Y-69526650D01*
X107448350Y-69558010D01*
X107619880Y-69585180D01*
X107619890Y-69585180D01*
X107623130Y-69585690D01*
X108000000Y-69605440D01*
X108376870Y-69585690D01*
X108380110Y-69585180D01*
X108380120Y-69585180D01*
X108551650Y-69558010D01*
X108749610Y-69526650D01*
X109114140Y-69428980D01*
X109120630Y-69426490D01*
X109252040Y-69376040D01*
X109466470Y-69293730D01*
X109538370Y-69257100D01*
X109799780Y-69123900D01*
X109799790Y-69123900D01*
X109802720Y-69122400D01*
X110119230Y-68916860D01*
X110412510Y-68679370D01*
X110679370Y-68412510D01*
X110916860Y-68119230D01*
X111122400Y-67802720D01*
X111155660Y-67737450D01*
X111292240Y-67469410D01*
X111293730Y-67466470D01*
X111397640Y-67195790D01*
X111427790Y-67117230D01*
X111428980Y-67114140D01*
X111526650Y-66749610D01*
X111558010Y-66551650D01*
X111585180Y-66380120D01*
X111585180Y-66380110D01*
X111585690Y-66376870D01*
X111605440Y-66000000D01*
X111585690Y-65623130D01*
X111581890Y-65599130D01*
X111539970Y-65334460D01*
X111526650Y-65250390D01*
X111428980Y-64885860D01*
X111406140Y-64826360D01*
X111363450Y-64715150D01*
X111293730Y-64533540D01*
X111242070Y-64432130D01*
X111123900Y-64200220D01*
X111123900Y-64200210D01*
X111122400Y-64197280D01*
X111030760Y-64056170D01*
X110918670Y-63883550D01*
X110916860Y-63880780D01*
X110679370Y-63587490D01*
X110412510Y-63320640D01*
X110119230Y-63083140D01*
X109802720Y-62877600D01*
X109799790Y-62876100D01*
X109799780Y-62876100D01*
X109469410Y-62707760D01*
X109466470Y-62706270D01*
X109114140Y-62571020D01*
X108749610Y-62473350D01*
X108551650Y-62441990D01*
X108380120Y-62414820D01*
X108380110Y-62414820D01*
X108376870Y-62414310D01*
X108000000Y-62394560D01*
X107623130Y-62414310D01*
X107619890Y-62414820D01*
X107619880Y-62414820D01*
X107448350Y-62441990D01*
X107250390Y-62473350D01*
X106885860Y-62571020D01*
X106533540Y-62706270D01*
X106530600Y-62707760D01*
X106200220Y-62876100D01*
X106200210Y-62876100D01*
X106197280Y-62877600D01*
X105880780Y-63083140D01*
X105587490Y-63320640D01*
X105320640Y-63587490D01*
X105083140Y-63880780D01*
X105081340Y-63883550D01*
X104969240Y-64056170D01*
X104877600Y-64197280D01*
X104876100Y-64200210D01*
X104876100Y-64200220D01*
X104738270Y-64470730D01*
X104689520Y-64522350D01*
X104620600Y-64539410D01*
X104553400Y-64516510D01*
X104509250Y-64460910D01*
X104500000Y-64413530D01*
X104500000Y-61526500D01*
X104520000Y-61458380D01*
X104573660Y-61411890D01*
X104626000Y-61400500D01*
X171958560Y-61400500D01*
X171978270Y-61402050D01*
G37*
%TD.AperFunction*%
%TA.AperFunction,NonConductor*%
G36*
X103442120Y-61420500D02*
G01*
X103488610Y-61474160D01*
X103500000Y-61526500D01*
X103500000Y-69893500D01*
X103480000Y-69961620D01*
X103426340Y-70008110D01*
X103374000Y-70019500D01*
X101643850Y-70019500D01*
X101575720Y-69999500D01*
X101558320Y-69986030D01*
X101533950Y-69963500D01*
X101529070Y-69960420D01*
X101529060Y-69960420D01*
X101352230Y-69848850D01*
X101347350Y-69845760D01*
X101142420Y-69764010D01*
X101136760Y-69762880D01*
X100931690Y-69722090D01*
X100926020Y-69720960D01*
X100920250Y-69720890D01*
X100809500Y-69719440D01*
X100705410Y-69718070D01*
X100699710Y-69719050D01*
X100493650Y-69754460D01*
X100487960Y-69755440D01*
X100280960Y-69831800D01*
X100276000Y-69834760D01*
X100177260Y-69893500D01*
X100091340Y-69944610D01*
X99925460Y-70090090D01*
X99788860Y-70263360D01*
X99686130Y-70458620D01*
X99620700Y-70669330D01*
X99594770Y-70888440D01*
X99609200Y-71108600D01*
X99610620Y-71114200D01*
X99610620Y-71114210D01*
X99643620Y-71244140D01*
X99663510Y-71322450D01*
X99665930Y-71327690D01*
X99665930Y-71327700D01*
X99704050Y-71410380D01*
X99755880Y-71522820D01*
X99883220Y-71703000D01*
X100041260Y-71856960D01*
X100046060Y-71860170D01*
X100130260Y-71916430D01*
X100224720Y-71979540D01*
X100230020Y-71981820D01*
X100422130Y-72064360D01*
X100427440Y-72066640D01*
X100433070Y-72067910D01*
X100434480Y-72068230D01*
X100435080Y-72068560D01*
X100438560Y-72069690D01*
X100438340Y-72070380D01*
X100496510Y-72102770D01*
X100530020Y-72165370D01*
X100524360Y-72236140D01*
X100481340Y-72292620D01*
X100450290Y-72309340D01*
X100286380Y-72369800D01*
X100286370Y-72369810D01*
X100280960Y-72371800D01*
X100276000Y-72374760D01*
X100177260Y-72433500D01*
X100091340Y-72484610D01*
X99925460Y-72630090D01*
X99788860Y-72803360D01*
X99686130Y-72998620D01*
X99620700Y-73209330D01*
X99594770Y-73428440D01*
X99609200Y-73648600D01*
X99610620Y-73654200D01*
X99610620Y-73654210D01*
X99662090Y-73856860D01*
X99663510Y-73862450D01*
X99665930Y-73867690D01*
X99665930Y-73867700D01*
X99704050Y-73950380D01*
X99755880Y-74062820D01*
X99883220Y-74243000D01*
X100041260Y-74396960D01*
X100046060Y-74400170D01*
X100130260Y-74456430D01*
X100224720Y-74519540D01*
X100230020Y-74521820D01*
X100422130Y-74604360D01*
X100427440Y-74606640D01*
X100433070Y-74607910D01*
X100434480Y-74608230D01*
X100435080Y-74608560D01*
X100438560Y-74609690D01*
X100438340Y-74610380D01*
X100496510Y-74642770D01*
X100530020Y-74705370D01*
X100524360Y-74776140D01*
X100481340Y-74832620D01*
X100450290Y-74849340D01*
X100286380Y-74909800D01*
X100286370Y-74909810D01*
X100280960Y-74911800D01*
X100276000Y-74914760D01*
X100096310Y-75021660D01*
X100091340Y-75024610D01*
X99925460Y-75170090D01*
X99788860Y-75343360D01*
X99686130Y-75538620D01*
X99620700Y-75749330D01*
X99594770Y-75968440D01*
X99609200Y-76188600D01*
X99610620Y-76194200D01*
X99610620Y-76194210D01*
X99662090Y-76396860D01*
X99663510Y-76402450D01*
X99665930Y-76407690D01*
X99665930Y-76407700D01*
X99704050Y-76490380D01*
X99755880Y-76602820D01*
X99883220Y-76783000D01*
X100041260Y-76936960D01*
X100046060Y-76940170D01*
X100140200Y-77003070D01*
X100224720Y-77059540D01*
X100230020Y-77061820D01*
X100422130Y-77144360D01*
X100427440Y-77146640D01*
X100433070Y-77147910D01*
X100434480Y-77148230D01*
X100435080Y-77148560D01*
X100438560Y-77149690D01*
X100438340Y-77150380D01*
X100496510Y-77182770D01*
X100530020Y-77245370D01*
X100524360Y-77316140D01*
X100481340Y-77372620D01*
X100450290Y-77389340D01*
X100286380Y-77449800D01*
X100286370Y-77449810D01*
X100280960Y-77451800D01*
X100276000Y-77454760D01*
X100121530Y-77546660D01*
X100091340Y-77564610D01*
X99925460Y-77710090D01*
X99788860Y-77883360D01*
X99686130Y-78078620D01*
X99620700Y-78289330D01*
X99594770Y-78508440D01*
X99609200Y-78728600D01*
X99610620Y-78734200D01*
X99610620Y-78734210D01*
X99654110Y-78905450D01*
X99663510Y-78942450D01*
X99665930Y-78947690D01*
X99665930Y-78947700D01*
X99704050Y-79030380D01*
X99755880Y-79142820D01*
X99883220Y-79323000D01*
X100041260Y-79476960D01*
X100046060Y-79480170D01*
X100192230Y-79577830D01*
X100224720Y-79599540D01*
X100230020Y-79601820D01*
X100422130Y-79684360D01*
X100427440Y-79686640D01*
X100433070Y-79687910D01*
X100434480Y-79688230D01*
X100435080Y-79688560D01*
X100438560Y-79689690D01*
X100438340Y-79690380D01*
X100496510Y-79722770D01*
X100530020Y-79785370D01*
X100524360Y-79856140D01*
X100481340Y-79912620D01*
X100450290Y-79929340D01*
X100286380Y-79989800D01*
X100286370Y-79989810D01*
X100280960Y-79991800D01*
X100276000Y-79994760D01*
X100096310Y-80101660D01*
X100091340Y-80104610D01*
X99925460Y-80250090D01*
X99788860Y-80423360D01*
X99686130Y-80618620D01*
X99620700Y-80829330D01*
X99594770Y-81048440D01*
X99609200Y-81268600D01*
X99610620Y-81274200D01*
X99610620Y-81274210D01*
X99654050Y-81445210D01*
X99663510Y-81482450D01*
X99665930Y-81487690D01*
X99665930Y-81487700D01*
X99704050Y-81570380D01*
X99755880Y-81682820D01*
X99883220Y-81863000D01*
X100041260Y-82016960D01*
X100046060Y-82020170D01*
X100130260Y-82076430D01*
X100224720Y-82139540D01*
X100230020Y-82141820D01*
X100374650Y-82203960D01*
X100427440Y-82226640D01*
X100433070Y-82227910D01*
X100433080Y-82227910D01*
X100435380Y-82228430D01*
X100436360Y-82228980D01*
X100438560Y-82229690D01*
X100438420Y-82230130D01*
X100497410Y-82262980D01*
X100530910Y-82325570D01*
X100525260Y-82396340D01*
X100482240Y-82452820D01*
X100451180Y-82469540D01*
X100286590Y-82530260D01*
X100276210Y-82535210D01*
X100096600Y-82642060D01*
X100087290Y-82648830D01*
X99930160Y-82786630D01*
X99922250Y-82794970D01*
X99792860Y-82959100D01*
X99786590Y-82968750D01*
X99689290Y-83153700D01*
X99684880Y-83164330D01*
X99622910Y-83363920D01*
X99620520Y-83375170D01*
X99617340Y-83402010D01*
X99619780Y-83416430D01*
X99632520Y-83420000D01*
X101968650Y-83420000D01*
X101983190Y-83415730D01*
X101985140Y-83404260D01*
X101983390Y-83394820D01*
X101926660Y-83193680D01*
X101922540Y-83182940D01*
X101830110Y-82995500D01*
X101824100Y-82985690D01*
X101699050Y-82818230D01*
X101691360Y-82809690D01*
X101537880Y-82667820D01*
X101528760Y-82660820D01*
X101352010Y-82549290D01*
X101341760Y-82544070D01*
X101144230Y-82465260D01*
X101088370Y-82421440D01*
X101065070Y-82354380D01*
X101081720Y-82285360D01*
X101133050Y-82236310D01*
X101150420Y-82228920D01*
X101284910Y-82183270D01*
X101290380Y-82181410D01*
X101346460Y-82150000D01*
X101413470Y-82112480D01*
X101482880Y-82073600D01*
X101560210Y-82009290D01*
X101648090Y-81936200D01*
X101652520Y-81932520D01*
X101793600Y-81762880D01*
X101901410Y-81570380D01*
X101903270Y-81564910D01*
X101970480Y-81366920D01*
X101972330Y-81361450D01*
X101973160Y-81355740D01*
X102003460Y-81146770D01*
X102003990Y-81143100D01*
X102005640Y-81080000D01*
X101985450Y-80860290D01*
X101925570Y-80647940D01*
X101845260Y-80485100D01*
X101830540Y-80455230D01*
X101827980Y-80450050D01*
X101743390Y-80336780D01*
X101699420Y-80277890D01*
X101695970Y-80273270D01*
X101598590Y-80183250D01*
X101538190Y-80127420D01*
X101533950Y-80123500D01*
X101347350Y-80005760D01*
X101144960Y-79925020D01*
X101089100Y-79881200D01*
X101065800Y-79814130D01*
X101082450Y-79745120D01*
X101133780Y-79696060D01*
X101151140Y-79688670D01*
X101284910Y-79643270D01*
X101290380Y-79641410D01*
X101482880Y-79533600D01*
X101520080Y-79502670D01*
X101648090Y-79396200D01*
X101652520Y-79392520D01*
X101793600Y-79222880D01*
X101901410Y-79030380D01*
X101903270Y-79024910D01*
X101970480Y-78826920D01*
X101972330Y-78821450D01*
X101973160Y-78815740D01*
X102003460Y-78606770D01*
X102003990Y-78603100D01*
X102005640Y-78540000D01*
X101985450Y-78320290D01*
X101978740Y-78296470D01*
X101927130Y-78113500D01*
X101925570Y-78107940D01*
X101827980Y-77910050D01*
X101763020Y-77823060D01*
X101699420Y-77737890D01*
X101695970Y-77733270D01*
X101533950Y-77583500D01*
X101347350Y-77465760D01*
X101144960Y-77385020D01*
X101089100Y-77341200D01*
X101065800Y-77274130D01*
X101082450Y-77205120D01*
X101133780Y-77156060D01*
X101151140Y-77148670D01*
X101284910Y-77103270D01*
X101290380Y-77101410D01*
X101482880Y-76993600D01*
X101539620Y-76946420D01*
X101559810Y-76929630D01*
X101624970Y-76901450D01*
X101640380Y-76900500D01*
X103374000Y-76900500D01*
X103442120Y-76920500D01*
X103488610Y-76974160D01*
X103500000Y-77026500D01*
X103500000Y-79670860D01*
X103480000Y-79738980D01*
X103449650Y-79771620D01*
X103337080Y-79856140D01*
X103313180Y-79874080D01*
X103142710Y-80052470D01*
X103139800Y-80056740D01*
X103109160Y-80101660D01*
X103003670Y-80256300D01*
X102993650Y-80277890D01*
X102923750Y-80428470D01*
X102899780Y-80480100D01*
X102833840Y-80717870D01*
X102807620Y-80963210D01*
X102807920Y-80968370D01*
X102818210Y-81146770D01*
X102821830Y-81209550D01*
X102822960Y-81214590D01*
X102822970Y-81214600D01*
X102846310Y-81318180D01*
X102876070Y-81450250D01*
X102968900Y-81678860D01*
X102971610Y-81683280D01*
X103017300Y-81757840D01*
X103097820Y-81889240D01*
X103259370Y-82075740D01*
X103263350Y-82079040D01*
X103442670Y-82227910D01*
X103446600Y-82231180D01*
X103449220Y-82233350D01*
X103448770Y-82233890D01*
X103490600Y-82286240D01*
X103500000Y-82333990D01*
X103500000Y-83424310D01*
X103480000Y-83492430D01*
X103463100Y-83513410D01*
X101973430Y-85003070D01*
X101911120Y-85037090D01*
X101840310Y-85032030D01*
X101827140Y-85026240D01*
X101760520Y-84992300D01*
X101725300Y-84974350D01*
X101715520Y-84972800D01*
X101715510Y-84972800D01*
X101688150Y-84968470D01*
X101631520Y-84959500D01*
X101345870Y-84959500D01*
X101277750Y-84939500D01*
X101231250Y-84885840D01*
X101221150Y-84815570D01*
X101250640Y-84750990D01*
X101290470Y-84721470D01*
X101290180Y-84720950D01*
X101294240Y-84718680D01*
X101294620Y-84718400D01*
X101295220Y-84718130D01*
X101477550Y-84616020D01*
X101487050Y-84609490D01*
X101647730Y-84475850D01*
X101655850Y-84467730D01*
X101789490Y-84307050D01*
X101796020Y-84297550D01*
X101898130Y-84115220D01*
X101902810Y-84104710D01*
X101969990Y-83906810D01*
X101972670Y-83895610D01*
X101981040Y-83837930D01*
X101979050Y-83823990D01*
X101965480Y-83820000D01*
X99630730Y-83820000D01*
X99617190Y-83823970D01*
X99615900Y-83832960D01*
X99662560Y-84016690D01*
X99666400Y-84027530D01*
X99753900Y-84217320D01*
X99759650Y-84227290D01*
X99880270Y-84397960D01*
X99887740Y-84406710D01*
X100037450Y-84552540D01*
X100046380Y-84559780D01*
X100220150Y-84675890D01*
X100230270Y-84681380D01*
X100314880Y-84717730D01*
X100369570Y-84763000D01*
X100391110Y-84830650D01*
X100372650Y-84899210D01*
X100320060Y-84946900D01*
X100265140Y-84959500D01*
X99968480Y-84959500D01*
X99963590Y-84960280D01*
X99884490Y-84972800D01*
X99874700Y-84974350D01*
X99761660Y-85031950D01*
X99671950Y-85121660D01*
X99614350Y-85234700D01*
X99599500Y-85328480D01*
X99599500Y-86991520D01*
X99600280Y-86996410D01*
X99611020Y-87064220D01*
X99614350Y-87085300D01*
X99618860Y-87094140D01*
X99630450Y-87116900D01*
X99671950Y-87198340D01*
X99761660Y-87288050D01*
X99874700Y-87345650D01*
X99884490Y-87347200D01*
X99911850Y-87351530D01*
X99968480Y-87360500D01*
X100799830Y-87360500D01*
X101631520Y-87360500D01*
X101636410Y-87359720D01*
X101715510Y-87347200D01*
X101725300Y-87345650D01*
X101838340Y-87288050D01*
X101928050Y-87198340D01*
X101962100Y-87131530D01*
X102010840Y-87079910D01*
X102067770Y-87062900D01*
X102110280Y-87060670D01*
X102116870Y-87060500D01*
X102137190Y-87060500D01*
X102140460Y-87060160D01*
X102140470Y-87060160D01*
X102157400Y-87058380D01*
X102163970Y-87057860D01*
X102193630Y-87056310D01*
X102225050Y-87054660D01*
X102225060Y-87054660D01*
X102231650Y-87054310D01*
X102245040Y-87050730D01*
X102264480Y-87047120D01*
X102271690Y-87046360D01*
X102271700Y-87046360D01*
X102278260Y-87045670D01*
X102284530Y-87043630D01*
X102284540Y-87043630D01*
X102342700Y-87024740D01*
X102349030Y-87022860D01*
X102408110Y-87007030D01*
X102408120Y-87007030D01*
X102414490Y-87005320D01*
X102420370Y-87002320D01*
X102426840Y-86999030D01*
X102445100Y-86991460D01*
X102446450Y-86991020D01*
X102458280Y-86987180D01*
X102464000Y-86983880D01*
X102516970Y-86953300D01*
X102522770Y-86950150D01*
X102577270Y-86922380D01*
X102583150Y-86919380D01*
X102593920Y-86910660D01*
X102610210Y-86899470D01*
X102622220Y-86892530D01*
X102672580Y-86847190D01*
X102677600Y-86842900D01*
X102690820Y-86832200D01*
X102693380Y-86830120D01*
X102707730Y-86815770D01*
X102712510Y-86811230D01*
X102757990Y-86770290D01*
X102757990Y-86770280D01*
X102762890Y-86765870D01*
X102771040Y-86754650D01*
X102783880Y-86739620D01*
X103284910Y-86238590D01*
X103347220Y-86204570D01*
X103418030Y-86209630D01*
X103474870Y-86252180D01*
X103499680Y-86318700D01*
X103500000Y-86327690D01*
X103500000Y-94473500D01*
X103480000Y-94541620D01*
X103426340Y-94588110D01*
X103374000Y-94599500D01*
X88041440Y-94599500D01*
X88021730Y-94597950D01*
X88009790Y-94596060D01*
X88000000Y-94594510D01*
X87990210Y-94596060D01*
X87987830Y-94596440D01*
X87962620Y-94597870D01*
X87604620Y-94582240D01*
X87593670Y-94581280D01*
X87206750Y-94530340D01*
X87195930Y-94528430D01*
X86814930Y-94443970D01*
X86804320Y-94441120D01*
X86432120Y-94323770D01*
X86421810Y-94320020D01*
X86061230Y-94170660D01*
X86051300Y-94166030D01*
X85705120Y-93985820D01*
X85695610Y-93980330D01*
X85366470Y-93770640D01*
X85357470Y-93764340D01*
X85047860Y-93526770D01*
X85039440Y-93519710D01*
X84937470Y-93426270D01*
X84751710Y-93256050D01*
X84743950Y-93248280D01*
X84697290Y-93197360D01*
X84533780Y-93018930D01*
X84480290Y-92960560D01*
X84473230Y-92952140D01*
X84235660Y-92642530D01*
X84229360Y-92633530D01*
X84019670Y-92304390D01*
X84014180Y-92294880D01*
X83833970Y-91948700D01*
X83829330Y-91938760D01*
X83819530Y-91915090D01*
X83679980Y-91578190D01*
X83676230Y-91567870D01*
X83671210Y-91551970D01*
X83558880Y-91195680D01*
X83556030Y-91185070D01*
X83471570Y-90804070D01*
X83469660Y-90793250D01*
X83418720Y-90406330D01*
X83417760Y-90395380D01*
X83408540Y-90184140D01*
X83402130Y-90037380D01*
X83403560Y-90012170D01*
X83403940Y-90009790D01*
X83405490Y-90000000D01*
X84394560Y-90000000D01*
X84414310Y-90376870D01*
X84414820Y-90380110D01*
X84414820Y-90380120D01*
X84441990Y-90551650D01*
X84473350Y-90749610D01*
X84571020Y-91114140D01*
X84706270Y-91466470D01*
X84707760Y-91469410D01*
X84864540Y-91777090D01*
X84877600Y-91802720D01*
X84879390Y-91805490D01*
X84879400Y-91805490D01*
X84972410Y-91948720D01*
X85083140Y-92119230D01*
X85320640Y-92412510D01*
X85587490Y-92679370D01*
X85880780Y-92916860D01*
X86197280Y-93122400D01*
X86200210Y-93123900D01*
X86200220Y-93123900D01*
X86444330Y-93248280D01*
X86533540Y-93293730D01*
X86885860Y-93428980D01*
X87250390Y-93526650D01*
X87442910Y-93557150D01*
X87619880Y-93585180D01*
X87619890Y-93585180D01*
X87623130Y-93585690D01*
X88000000Y-93605440D01*
X88376870Y-93585690D01*
X88380110Y-93585180D01*
X88380120Y-93585180D01*
X88557090Y-93557150D01*
X88749610Y-93526650D01*
X89114140Y-93428980D01*
X89466470Y-93293730D01*
X89555670Y-93248280D01*
X89799780Y-93123900D01*
X89799790Y-93123900D01*
X89802720Y-93122400D01*
X90119230Y-92916860D01*
X90412510Y-92679370D01*
X90470810Y-92621070D01*
X93487660Y-92621070D01*
X93500890Y-92822890D01*
X93550680Y-93018930D01*
X93635360Y-93202610D01*
X93638690Y-93207320D01*
X93700600Y-93294920D01*
X93752090Y-93367780D01*
X93896970Y-93508910D01*
X94065140Y-93621280D01*
X94070440Y-93623560D01*
X94157090Y-93660790D01*
X94250970Y-93701120D01*
X94448240Y-93745760D01*
X94454010Y-93745990D01*
X94530180Y-93748980D01*
X94650340Y-93753700D01*
X94736630Y-93741190D01*
X94844790Y-93725510D01*
X94850510Y-93724680D01*
X94855980Y-93722820D01*
X95036570Y-93661520D01*
X95042030Y-93659660D01*
X95218500Y-93560840D01*
X95280930Y-93508910D01*
X95369570Y-93435190D01*
X95374010Y-93431510D01*
X95503340Y-93276000D01*
X95602160Y-93099530D01*
X95667180Y-92908010D01*
X95668010Y-92902290D01*
X95695670Y-92711520D01*
X95696200Y-92707840D01*
X95697720Y-92650000D01*
X95695060Y-92621070D01*
X95987660Y-92621070D01*
X96000890Y-92822890D01*
X96050680Y-93018930D01*
X96135360Y-93202610D01*
X96138690Y-93207320D01*
X96200600Y-93294920D01*
X96252090Y-93367780D01*
X96396970Y-93508910D01*
X96565140Y-93621280D01*
X96570440Y-93623560D01*
X96657090Y-93660790D01*
X96750970Y-93701120D01*
X96948240Y-93745760D01*
X96954010Y-93745990D01*
X97030180Y-93748980D01*
X97150340Y-93753700D01*
X97236630Y-93741190D01*
X97344790Y-93725510D01*
X97350510Y-93724680D01*
X97355980Y-93722820D01*
X97536570Y-93661520D01*
X97542030Y-93659660D01*
X97718500Y-93560840D01*
X97780930Y-93508910D01*
X97869570Y-93435190D01*
X97874010Y-93431510D01*
X98003340Y-93276000D01*
X98102160Y-93099530D01*
X98167180Y-92908010D01*
X98168010Y-92902290D01*
X98195670Y-92711520D01*
X98196200Y-92707840D01*
X98197720Y-92650000D01*
X98195060Y-92621070D01*
X98487660Y-92621070D01*
X98500890Y-92822890D01*
X98550680Y-93018930D01*
X98635360Y-93202610D01*
X98638690Y-93207320D01*
X98700600Y-93294920D01*
X98752090Y-93367780D01*
X98896970Y-93508910D01*
X99065140Y-93621280D01*
X99070440Y-93623560D01*
X99157090Y-93660790D01*
X99250970Y-93701120D01*
X99448240Y-93745760D01*
X99454010Y-93745990D01*
X99530180Y-93748980D01*
X99650340Y-93753700D01*
X99736630Y-93741190D01*
X99844790Y-93725510D01*
X99850510Y-93724680D01*
X99855980Y-93722820D01*
X100036570Y-93661520D01*
X100042030Y-93659660D01*
X100218500Y-93560840D01*
X100280930Y-93508910D01*
X100369570Y-93435190D01*
X100374010Y-93431510D01*
X100503340Y-93276000D01*
X100602160Y-93099530D01*
X100667180Y-92908010D01*
X100668010Y-92902290D01*
X100695670Y-92711520D01*
X100696200Y-92707840D01*
X100697720Y-92650000D01*
X100679210Y-92448590D01*
X100669030Y-92412510D01*
X100625880Y-92259490D01*
X100624310Y-92253930D01*
X100534850Y-92072530D01*
X100516580Y-92048060D01*
X100417290Y-91915090D01*
X100413840Y-91910470D01*
X100390850Y-91889220D01*
X100269550Y-91777090D01*
X100265310Y-91773170D01*
X100236570Y-91755040D01*
X100099140Y-91668330D01*
X100094260Y-91665250D01*
X99906400Y-91590300D01*
X99708030Y-91550840D01*
X99702250Y-91550760D01*
X99599760Y-91549420D01*
X99505790Y-91548190D01*
X99500090Y-91549170D01*
X99312150Y-91581470D01*
X99306450Y-91582440D01*
X99116690Y-91652450D01*
X98942870Y-91755860D01*
X98790810Y-91889220D01*
X98665590Y-92048060D01*
X98571410Y-92227050D01*
X98520240Y-92391870D01*
X98513830Y-92412510D01*
X98511440Y-92420210D01*
X98487660Y-92621070D01*
X98195060Y-92621070D01*
X98179210Y-92448590D01*
X98169030Y-92412510D01*
X98125880Y-92259490D01*
X98124310Y-92253930D01*
X98034850Y-92072530D01*
X98016580Y-92048060D01*
X97917290Y-91915090D01*
X97913840Y-91910470D01*
X97890850Y-91889220D01*
X97769550Y-91777090D01*
X97765310Y-91773170D01*
X97736570Y-91755040D01*
X97599140Y-91668330D01*
X97594260Y-91665250D01*
X97406400Y-91590300D01*
X97208030Y-91550840D01*
X97202250Y-91550760D01*
X97099760Y-91549420D01*
X97005790Y-91548190D01*
X97000090Y-91549170D01*
X96812150Y-91581470D01*
X96806450Y-91582440D01*
X96616690Y-91652450D01*
X96442870Y-91755860D01*
X96290810Y-91889220D01*
X96165590Y-92048060D01*
X96071410Y-92227050D01*
X96020240Y-92391870D01*
X96013830Y-92412510D01*
X96011440Y-92420210D01*
X95987660Y-92621070D01*
X95695060Y-92621070D01*
X95679210Y-92448590D01*
X95669030Y-92412510D01*
X95625880Y-92259490D01*
X95624310Y-92253930D01*
X95534850Y-92072530D01*
X95516580Y-92048060D01*
X95417290Y-91915090D01*
X95413840Y-91910470D01*
X95390850Y-91889220D01*
X95269550Y-91777090D01*
X95265310Y-91773170D01*
X95236570Y-91755040D01*
X95099140Y-91668330D01*
X95094260Y-91665250D01*
X94906400Y-91590300D01*
X94708030Y-91550840D01*
X94702250Y-91550760D01*
X94599760Y-91549420D01*
X94505790Y-91548190D01*
X94500090Y-91549170D01*
X94312150Y-91581470D01*
X94306450Y-91582440D01*
X94116690Y-91652450D01*
X93942870Y-91755860D01*
X93790810Y-91889220D01*
X93665590Y-92048060D01*
X93571410Y-92227050D01*
X93520240Y-92391870D01*
X93513830Y-92412510D01*
X93511440Y-92420210D01*
X93487660Y-92621070D01*
X90470810Y-92621070D01*
X90679370Y-92412510D01*
X90916860Y-92119230D01*
X91027590Y-91948720D01*
X91120610Y-91805490D01*
X91122400Y-91802720D01*
X91135460Y-91777090D01*
X91292240Y-91469410D01*
X91293730Y-91466470D01*
X91428980Y-91114140D01*
X91526650Y-90749610D01*
X91558010Y-90551650D01*
X91585180Y-90380120D01*
X91585180Y-90380110D01*
X91585690Y-90376870D01*
X91601168Y-90081520D01*
X93492000Y-90081520D01*
X93492780Y-90086410D01*
X93499920Y-90131510D01*
X93506850Y-90175300D01*
X93564450Y-90288340D01*
X93654160Y-90378050D01*
X93767200Y-90435650D01*
X93776990Y-90437200D01*
X93804350Y-90441530D01*
X93860980Y-90450500D01*
X94592350Y-90450500D01*
X95324020Y-90450500D01*
X95350210Y-90446350D01*
X95408010Y-90437200D01*
X95417800Y-90435650D01*
X95530840Y-90378050D01*
X95620550Y-90288340D01*
X95678150Y-90175300D01*
X95693000Y-90081520D01*
X95693000Y-89321070D01*
X95987660Y-89321070D01*
X96000890Y-89522890D01*
X96050680Y-89718930D01*
X96135360Y-89902610D01*
X96138690Y-89907320D01*
X96230610Y-90037380D01*
X96252090Y-90067780D01*
X96256230Y-90071820D01*
X96266190Y-90081520D01*
X96396970Y-90208910D01*
X96565140Y-90321280D01*
X96570440Y-90323560D01*
X96686870Y-90373580D01*
X96750970Y-90401120D01*
X96948240Y-90445760D01*
X96954010Y-90445990D01*
X97030180Y-90448980D01*
X97150340Y-90453700D01*
X97236630Y-90441190D01*
X97344790Y-90425510D01*
X97350510Y-90424680D01*
X97355980Y-90422820D01*
X97536570Y-90361520D01*
X97542030Y-90359660D01*
X97669390Y-90288340D01*
X97713460Y-90263660D01*
X97713470Y-90263660D01*
X97718500Y-90260840D01*
X97780930Y-90208910D01*
X97869570Y-90135190D01*
X97874010Y-90131510D01*
X98003340Y-89976000D01*
X98007550Y-89968480D01*
X98099350Y-89804560D01*
X98102160Y-89799530D01*
X98167180Y-89608010D01*
X98168010Y-89602290D01*
X98195670Y-89411520D01*
X98196200Y-89407840D01*
X98197720Y-89350000D01*
X98195060Y-89321070D01*
X98487660Y-89321070D01*
X98500890Y-89522890D01*
X98550680Y-89718930D01*
X98635360Y-89902610D01*
X98638690Y-89907320D01*
X98730610Y-90037380D01*
X98752090Y-90067780D01*
X98756230Y-90071820D01*
X98766190Y-90081520D01*
X98896970Y-90208910D01*
X99065140Y-90321280D01*
X99070440Y-90323560D01*
X99186870Y-90373580D01*
X99250970Y-90401120D01*
X99448240Y-90445760D01*
X99454010Y-90445990D01*
X99530180Y-90448980D01*
X99650340Y-90453700D01*
X99736630Y-90441190D01*
X99844790Y-90425510D01*
X99850510Y-90424680D01*
X99855980Y-90422820D01*
X100036570Y-90361520D01*
X100042030Y-90359660D01*
X100169390Y-90288340D01*
X100213460Y-90263660D01*
X100213470Y-90263660D01*
X100218500Y-90260840D01*
X100280930Y-90208910D01*
X100369570Y-90135190D01*
X100374010Y-90131510D01*
X100503340Y-89976000D01*
X100507550Y-89968480D01*
X100599350Y-89804560D01*
X100602160Y-89799530D01*
X100667180Y-89608010D01*
X100668010Y-89602290D01*
X100695670Y-89411520D01*
X100696200Y-89407840D01*
X100697720Y-89350000D01*
X100679210Y-89148590D01*
X100624310Y-88953930D01*
X100534850Y-88772530D01*
X100516580Y-88748060D01*
X100417290Y-88615090D01*
X100413840Y-88610470D01*
X100390850Y-88589220D01*
X100269550Y-88477090D01*
X100265310Y-88473170D01*
X100237870Y-88455860D01*
X100099140Y-88368330D01*
X100094260Y-88365250D01*
X99906400Y-88290300D01*
X99708030Y-88250840D01*
X99702250Y-88250760D01*
X99599760Y-88249420D01*
X99505790Y-88248190D01*
X99500090Y-88249170D01*
X99312150Y-88281470D01*
X99306450Y-88282440D01*
X99116690Y-88352450D01*
X98942870Y-88455860D01*
X98790810Y-88589220D01*
X98665590Y-88748060D01*
X98571410Y-88927050D01*
X98511440Y-89120210D01*
X98487660Y-89321070D01*
X98195060Y-89321070D01*
X98179210Y-89148590D01*
X98124310Y-88953930D01*
X98034850Y-88772530D01*
X98016580Y-88748060D01*
X97917290Y-88615090D01*
X97913840Y-88610470D01*
X97890850Y-88589220D01*
X97769550Y-88477090D01*
X97765310Y-88473170D01*
X97737870Y-88455860D01*
X97599140Y-88368330D01*
X97594260Y-88365250D01*
X97406400Y-88290300D01*
X97208030Y-88250840D01*
X97202250Y-88250760D01*
X97099760Y-88249420D01*
X97005790Y-88248190D01*
X97000090Y-88249170D01*
X96812150Y-88281470D01*
X96806450Y-88282440D01*
X96616690Y-88352450D01*
X96442870Y-88455860D01*
X96290810Y-88589220D01*
X96165590Y-88748060D01*
X96071410Y-88927050D01*
X96011440Y-89120210D01*
X95987660Y-89321070D01*
X95693000Y-89321070D01*
X95693000Y-88618480D01*
X95691730Y-88610470D01*
X95679700Y-88534490D01*
X95678150Y-88524700D01*
X95620550Y-88411660D01*
X95530840Y-88321950D01*
X95417800Y-88264350D01*
X95408020Y-88262800D01*
X95408010Y-88262800D01*
X95380650Y-88258470D01*
X95324020Y-88249500D01*
X94592650Y-88249500D01*
X93860980Y-88249500D01*
X93856090Y-88250280D01*
X93776990Y-88262800D01*
X93767200Y-88264350D01*
X93654160Y-88321950D01*
X93564450Y-88411660D01*
X93506850Y-88524700D01*
X93492000Y-88618480D01*
X93492000Y-90081520D01*
X91601168Y-90081520D01*
X91605440Y-90000000D01*
X91585690Y-89623130D01*
X91570700Y-89528500D01*
X91558010Y-89448350D01*
X91526650Y-89250390D01*
X91428980Y-88885860D01*
X91326340Y-88618480D01*
X91293730Y-88533540D01*
X91264980Y-88477090D01*
X91123900Y-88200220D01*
X91123900Y-88200210D01*
X91122400Y-88197280D01*
X90916860Y-87880780D01*
X90679370Y-87587490D01*
X90412510Y-87320640D01*
X90119230Y-87083140D01*
X89916750Y-86951650D01*
X89805490Y-86879400D01*
X89805490Y-86879390D01*
X89802720Y-86877600D01*
X89799790Y-86876100D01*
X89799780Y-86876100D01*
X89469410Y-86707760D01*
X89466470Y-86706270D01*
X89114140Y-86571020D01*
X88749610Y-86473350D01*
X88551650Y-86441990D01*
X88380120Y-86414820D01*
X88380110Y-86414820D01*
X88376870Y-86414310D01*
X88000000Y-86394560D01*
X87623130Y-86414310D01*
X87619890Y-86414820D01*
X87619880Y-86414820D01*
X87448350Y-86441990D01*
X87250390Y-86473350D01*
X86885860Y-86571020D01*
X86533540Y-86706270D01*
X86530600Y-86707760D01*
X86200220Y-86876100D01*
X86200210Y-86876100D01*
X86197280Y-86877600D01*
X86194510Y-86879390D01*
X86194510Y-86879400D01*
X86005220Y-87002320D01*
X85880780Y-87083140D01*
X85587490Y-87320640D01*
X85320640Y-87587490D01*
X85083140Y-87880780D01*
X84877600Y-88197280D01*
X84876100Y-88200210D01*
X84876100Y-88200220D01*
X84735020Y-88477090D01*
X84706270Y-88533540D01*
X84571020Y-88885860D01*
X84473350Y-89250390D01*
X84441990Y-89448350D01*
X84429300Y-89528500D01*
X84414310Y-89623130D01*
X84394560Y-90000000D01*
X83405490Y-90000000D01*
X83402050Y-89978270D01*
X83400500Y-89958560D01*
X83400500Y-86128440D01*
X91974770Y-86128440D01*
X91989200Y-86348600D01*
X91990620Y-86354200D01*
X91990620Y-86354210D01*
X92020750Y-86472830D01*
X92043510Y-86562450D01*
X92045930Y-86567690D01*
X92045930Y-86567700D01*
X92084050Y-86650380D01*
X92135880Y-86762820D01*
X92263220Y-86943000D01*
X92421260Y-87096960D01*
X92426060Y-87100170D01*
X92510260Y-87156430D01*
X92604720Y-87219540D01*
X92610020Y-87221820D01*
X92764180Y-87288050D01*
X92807440Y-87306640D01*
X92860090Y-87318550D01*
X93017000Y-87354050D01*
X93017000Y-87354060D01*
X93022630Y-87355330D01*
X93028400Y-87355560D01*
X93028410Y-87355560D01*
X93096210Y-87358220D01*
X93243100Y-87363990D01*
X93369620Y-87345650D01*
X93455740Y-87333160D01*
X93461450Y-87332330D01*
X93466920Y-87330480D01*
X93664910Y-87263270D01*
X93670380Y-87261410D01*
X93862880Y-87153600D01*
X93934380Y-87094140D01*
X94028090Y-87016200D01*
X94032520Y-87012520D01*
X94083140Y-86951650D01*
X94169910Y-86847330D01*
X94169910Y-86847320D01*
X94173600Y-86842880D01*
X94281410Y-86650380D01*
X94283270Y-86644910D01*
X94350480Y-86446920D01*
X94352330Y-86441450D01*
X94353160Y-86435740D01*
X94383460Y-86226770D01*
X94383990Y-86223100D01*
X94385640Y-86160000D01*
X94365450Y-85940290D01*
X94305570Y-85727940D01*
X94207980Y-85530050D01*
X94075970Y-85353270D01*
X93947700Y-85234700D01*
X93918190Y-85207420D01*
X93913950Y-85203500D01*
X93727350Y-85085760D01*
X93524240Y-85004730D01*
X93468380Y-84960910D01*
X93445080Y-84893850D01*
X93461740Y-84824830D01*
X93513060Y-84775780D01*
X93530430Y-84768390D01*
X93664710Y-84722810D01*
X93675220Y-84718130D01*
X93857550Y-84616020D01*
X93867050Y-84609490D01*
X94027730Y-84475850D01*
X94035850Y-84467730D01*
X94169490Y-84307050D01*
X94176020Y-84297550D01*
X94278130Y-84115220D01*
X94282810Y-84104710D01*
X94349990Y-83906810D01*
X94352670Y-83895610D01*
X94361040Y-83837930D01*
X94359050Y-83823990D01*
X94345480Y-83820000D01*
X92010730Y-83820000D01*
X91997190Y-83823970D01*
X91995900Y-83832960D01*
X92042560Y-84016690D01*
X92046400Y-84027530D01*
X92133900Y-84217320D01*
X92139650Y-84227290D01*
X92260270Y-84397960D01*
X92267740Y-84406710D01*
X92417450Y-84552540D01*
X92426380Y-84559780D01*
X92600150Y-84675890D01*
X92610270Y-84681380D01*
X92802290Y-84763880D01*
X92813220Y-84767430D01*
X92815350Y-84767910D01*
X92816250Y-84768420D01*
X92818720Y-84769220D01*
X92818560Y-84769700D01*
X92877370Y-84802460D01*
X92910880Y-84865050D01*
X92905220Y-84935820D01*
X92862210Y-84992300D01*
X92831150Y-85009020D01*
X92666380Y-85069800D01*
X92666370Y-85069810D01*
X92660960Y-85071800D01*
X92656000Y-85074760D01*
X92588950Y-85114650D01*
X92471340Y-85184610D01*
X92305460Y-85330090D01*
X92168860Y-85503360D01*
X92066130Y-85698620D01*
X92000700Y-85909330D01*
X91974770Y-86128440D01*
X83400500Y-86128440D01*
X83400500Y-76039440D01*
X84620070Y-76039440D01*
X84646880Y-76261040D01*
X84712520Y-76474400D01*
X84814900Y-76672760D01*
X84818310Y-76677200D01*
X84818310Y-76677210D01*
X84860770Y-76732530D01*
X84950790Y-76849850D01*
X85115890Y-77000090D01*
X85304990Y-77118710D01*
X85310200Y-77120800D01*
X85343760Y-77134290D01*
X85399510Y-77178260D01*
X85422630Y-77245390D01*
X85405800Y-77314360D01*
X85351010Y-77364930D01*
X85241190Y-77417310D01*
X85231570Y-77423000D01*
X85059480Y-77546660D01*
X85051020Y-77553960D01*
X84903540Y-77706140D01*
X84896510Y-77714820D01*
X84778320Y-77890720D01*
X84772940Y-77900510D01*
X84687760Y-78094550D01*
X84684190Y-78105150D01*
X84641640Y-78282380D01*
X84642350Y-78296470D01*
X84651220Y-78300000D01*
X87341890Y-78300000D01*
X87355870Y-78295900D01*
X87357910Y-78282730D01*
X87353300Y-78244630D01*
X87350980Y-78233700D01*
X87288670Y-78031150D01*
X87284440Y-78020810D01*
X87187250Y-77832490D01*
X87181260Y-77823060D01*
X87052250Y-77654930D01*
X87044690Y-77646710D01*
X86887950Y-77504090D01*
X86879050Y-77497340D01*
X86699530Y-77384720D01*
X86689580Y-77379650D01*
X86656250Y-77366250D01*
X86600510Y-77322290D01*
X86577380Y-77255160D01*
X86594220Y-77186190D01*
X86649000Y-77135620D01*
X86764130Y-77080710D01*
X86945410Y-76950450D01*
X86956680Y-76938820D01*
X87018450Y-76903820D01*
X87047160Y-76900500D01*
X92332610Y-76900500D01*
X92400730Y-76920500D01*
X92412300Y-76929700D01*
X92412640Y-76929290D01*
X92417130Y-76932930D01*
X92421260Y-76936960D01*
X92426060Y-76940170D01*
X92520200Y-77003070D01*
X92604720Y-77059540D01*
X92610020Y-77061820D01*
X92802130Y-77144360D01*
X92807440Y-77146640D01*
X92813070Y-77147910D01*
X92814480Y-77148230D01*
X92815080Y-77148560D01*
X92818560Y-77149690D01*
X92818340Y-77150380D01*
X92876510Y-77182770D01*
X92910020Y-77245370D01*
X92904360Y-77316140D01*
X92861340Y-77372620D01*
X92830290Y-77389340D01*
X92666380Y-77449800D01*
X92666370Y-77449810D01*
X92660960Y-77451800D01*
X92656000Y-77454760D01*
X92501530Y-77546660D01*
X92471340Y-77564610D01*
X92305460Y-77710090D01*
X92168860Y-77883360D01*
X92066130Y-78078620D01*
X92000700Y-78289330D01*
X91974770Y-78508440D01*
X91989200Y-78728600D01*
X91990620Y-78734200D01*
X91990620Y-78734210D01*
X92034110Y-78905450D01*
X92043510Y-78942450D01*
X92045930Y-78947690D01*
X92045930Y-78947700D01*
X92084050Y-79030380D01*
X92135880Y-79142820D01*
X92263220Y-79323000D01*
X92421260Y-79476960D01*
X92426060Y-79480170D01*
X92572230Y-79577830D01*
X92604720Y-79599540D01*
X92610020Y-79601820D01*
X92802130Y-79684360D01*
X92807440Y-79686640D01*
X92813070Y-79687910D01*
X92814480Y-79688230D01*
X92815080Y-79688560D01*
X92818560Y-79689690D01*
X92818340Y-79690380D01*
X92876510Y-79722770D01*
X92910020Y-79785370D01*
X92904360Y-79856140D01*
X92861340Y-79912620D01*
X92830290Y-79929340D01*
X92666380Y-79989800D01*
X92666370Y-79989810D01*
X92660960Y-79991800D01*
X92656000Y-79994760D01*
X92476310Y-80101660D01*
X92471340Y-80104610D01*
X92467000Y-80108420D01*
X92466990Y-80108430D01*
X92421600Y-80148230D01*
X92357200Y-80178110D01*
X92338530Y-80179500D01*
X87422210Y-80179500D01*
X87354090Y-80159500D01*
X87313760Y-80117640D01*
X87292290Y-80081340D01*
X87243080Y-79998140D01*
X87126870Y-79881920D01*
X86985400Y-79798260D01*
X86977790Y-79796050D01*
X86977790Y-79796040D01*
X86860270Y-79761900D01*
X86800430Y-79723690D01*
X86770760Y-79659190D01*
X86780660Y-79588890D01*
X86821900Y-79538580D01*
X86940520Y-79453340D01*
X86948980Y-79446040D01*
X87096460Y-79293860D01*
X87103490Y-79285180D01*
X87221680Y-79109280D01*
X87227070Y-79099490D01*
X87312240Y-78905450D01*
X87315810Y-78894850D01*
X87358360Y-78717620D01*
X87357660Y-78703530D01*
X87348780Y-78700000D01*
X84658110Y-78700000D01*
X84644130Y-78704110D01*
X84642090Y-78717270D01*
X84646700Y-78755370D01*
X84649020Y-78766300D01*
X84711340Y-78968850D01*
X84715560Y-78979190D01*
X84812750Y-79167510D01*
X84818740Y-79176940D01*
X84947750Y-79345070D01*
X84955310Y-79353290D01*
X85112050Y-79495910D01*
X85120950Y-79502670D01*
X85171280Y-79534240D01*
X85218360Y-79587390D01*
X85229230Y-79657550D01*
X85200450Y-79722450D01*
X85139480Y-79761980D01*
X85058970Y-79785370D01*
X85022220Y-79796040D01*
X85022210Y-79796050D01*
X85014600Y-79798260D01*
X84873140Y-79881920D01*
X84756920Y-79998140D01*
X84752890Y-80004960D01*
X84680460Y-80127420D01*
X84673260Y-80139600D01*
X84671050Y-80147210D01*
X84671040Y-80147220D01*
X84661660Y-80179500D01*
X84627400Y-80297430D01*
X84626900Y-80303850D01*
X84624690Y-80331850D01*
X84624690Y-80331860D01*
X84624500Y-80334310D01*
X84624500Y-81665690D01*
X84624690Y-81668140D01*
X84624690Y-81668150D01*
X84625440Y-81677580D01*
X84627400Y-81702570D01*
X84673260Y-81860400D01*
X84756920Y-82001870D01*
X84873140Y-82118080D01*
X84879960Y-82122120D01*
X84913280Y-82141820D01*
X85014600Y-82201740D01*
X85022210Y-82203960D01*
X85022220Y-82203960D01*
X85114530Y-82230780D01*
X85172430Y-82247600D01*
X85185580Y-82248630D01*
X85206850Y-82250310D01*
X85206860Y-82250310D01*
X85209310Y-82250500D01*
X86790690Y-82250500D01*
X86793140Y-82250310D01*
X86793150Y-82250310D01*
X86814420Y-82248630D01*
X86827570Y-82247600D01*
X86885470Y-82230780D01*
X86977790Y-82203960D01*
X86985400Y-82201740D01*
X87086730Y-82141820D01*
X87120040Y-82122120D01*
X87126870Y-82118080D01*
X87227540Y-82017410D01*
X87289850Y-81983380D01*
X87316640Y-81980500D01*
X92332610Y-81980500D01*
X92400730Y-82000500D01*
X92412300Y-82009700D01*
X92412640Y-82009290D01*
X92417130Y-82012930D01*
X92421260Y-82016960D01*
X92426060Y-82020170D01*
X92510260Y-82076430D01*
X92604720Y-82139540D01*
X92610020Y-82141820D01*
X92754650Y-82203960D01*
X92807440Y-82226640D01*
X92813070Y-82227910D01*
X92813080Y-82227910D01*
X92815380Y-82228430D01*
X92816360Y-82228980D01*
X92818560Y-82229690D01*
X92818420Y-82230130D01*
X92877410Y-82262980D01*
X92910910Y-82325570D01*
X92905260Y-82396340D01*
X92862240Y-82452820D01*
X92831180Y-82469540D01*
X92666590Y-82530260D01*
X92656210Y-82535210D01*
X92476600Y-82642060D01*
X92467290Y-82648830D01*
X92310160Y-82786630D01*
X92302250Y-82794970D01*
X92172860Y-82959100D01*
X92166590Y-82968750D01*
X92069290Y-83153700D01*
X92064880Y-83164330D01*
X92002910Y-83363920D01*
X92000520Y-83375170D01*
X91997340Y-83402010D01*
X91999780Y-83416430D01*
X92012520Y-83420000D01*
X94348650Y-83420000D01*
X94363190Y-83415730D01*
X94365140Y-83404260D01*
X94363390Y-83394820D01*
X94306660Y-83193680D01*
X94302540Y-83182940D01*
X94210110Y-82995500D01*
X94204100Y-82985690D01*
X94079050Y-82818230D01*
X94071360Y-82809690D01*
X93917880Y-82667820D01*
X93908760Y-82660820D01*
X93732010Y-82549290D01*
X93721760Y-82544070D01*
X93524230Y-82465260D01*
X93468370Y-82421440D01*
X93445070Y-82354380D01*
X93461720Y-82285360D01*
X93513050Y-82236310D01*
X93530420Y-82228920D01*
X93664910Y-82183270D01*
X93670380Y-82181410D01*
X93726460Y-82150000D01*
X93793470Y-82112480D01*
X93862880Y-82073600D01*
X93940210Y-82009290D01*
X94028090Y-81936200D01*
X94032520Y-81932520D01*
X94173600Y-81762880D01*
X94281410Y-81570380D01*
X94283270Y-81564910D01*
X94350480Y-81366920D01*
X94352330Y-81361450D01*
X94353160Y-81355740D01*
X94383460Y-81146770D01*
X94383990Y-81143100D01*
X94385640Y-81080000D01*
X94365450Y-80860290D01*
X94305570Y-80647940D01*
X94225260Y-80485100D01*
X94210540Y-80455230D01*
X94207980Y-80450050D01*
X94123390Y-80336780D01*
X94079420Y-80277890D01*
X94075970Y-80273270D01*
X93978590Y-80183250D01*
X93918190Y-80127420D01*
X93913950Y-80123500D01*
X93727350Y-80005760D01*
X93524960Y-79925020D01*
X93469100Y-79881200D01*
X93445800Y-79814130D01*
X93462450Y-79745120D01*
X93513780Y-79696060D01*
X93531140Y-79688670D01*
X93664910Y-79643270D01*
X93670380Y-79641410D01*
X93862880Y-79533600D01*
X93900080Y-79502670D01*
X94028090Y-79396200D01*
X94032520Y-79392520D01*
X94173600Y-79222880D01*
X94281410Y-79030380D01*
X94283270Y-79024910D01*
X94350480Y-78826920D01*
X94352330Y-78821450D01*
X94353160Y-78815740D01*
X94383460Y-78606770D01*
X94383990Y-78603100D01*
X94385640Y-78540000D01*
X94365450Y-78320290D01*
X94358740Y-78296470D01*
X94307130Y-78113500D01*
X94305570Y-78107940D01*
X94207980Y-77910050D01*
X94143020Y-77823060D01*
X94079420Y-77737890D01*
X94075970Y-77733270D01*
X93913950Y-77583500D01*
X93727350Y-77465760D01*
X93524960Y-77385020D01*
X93469100Y-77341200D01*
X93445800Y-77274130D01*
X93462450Y-77205120D01*
X93513780Y-77156060D01*
X93531140Y-77148670D01*
X93664910Y-77103270D01*
X93670380Y-77101410D01*
X93862880Y-76993600D01*
X93939810Y-76929630D01*
X94028090Y-76856200D01*
X94032520Y-76852520D01*
X94173600Y-76682880D01*
X94281410Y-76490380D01*
X94283270Y-76484910D01*
X94350480Y-76286920D01*
X94352330Y-76281450D01*
X94353160Y-76275740D01*
X94383460Y-76066770D01*
X94383990Y-76063100D01*
X94385640Y-76000000D01*
X94365450Y-75780290D01*
X94305570Y-75567940D01*
X94207980Y-75370050D01*
X94091830Y-75214510D01*
X94079420Y-75197890D01*
X94075970Y-75193270D01*
X93978590Y-75103250D01*
X93918190Y-75047420D01*
X93913950Y-75043500D01*
X93727350Y-74925760D01*
X93524960Y-74845020D01*
X93469100Y-74801200D01*
X93445800Y-74734130D01*
X93462450Y-74665120D01*
X93513780Y-74616060D01*
X93531140Y-74608670D01*
X93664910Y-74563270D01*
X93670380Y-74561410D01*
X93862880Y-74453600D01*
X93939810Y-74389630D01*
X94028090Y-74316200D01*
X94032520Y-74312520D01*
X94173600Y-74142880D01*
X94281410Y-73950380D01*
X94283270Y-73944910D01*
X94350480Y-73746920D01*
X94352330Y-73741450D01*
X94353160Y-73735740D01*
X94383460Y-73526770D01*
X94383990Y-73523100D01*
X94385640Y-73460000D01*
X94365450Y-73240290D01*
X94305570Y-73027940D01*
X94207980Y-72830050D01*
X94075970Y-72653270D01*
X93978590Y-72563250D01*
X93918190Y-72507420D01*
X93913950Y-72503500D01*
X93727350Y-72385760D01*
X93524960Y-72305020D01*
X93469100Y-72261200D01*
X93445800Y-72194130D01*
X93462450Y-72125120D01*
X93513780Y-72076060D01*
X93531140Y-72068670D01*
X93664910Y-72023270D01*
X93670380Y-72021410D01*
X93862880Y-71913600D01*
X93939810Y-71849630D01*
X94028090Y-71776200D01*
X94032520Y-71772520D01*
X94173600Y-71602880D01*
X94281410Y-71410380D01*
X94283270Y-71404910D01*
X94350480Y-71206920D01*
X94352330Y-71201450D01*
X94353160Y-71195740D01*
X94380500Y-71007170D01*
X94383990Y-70983100D01*
X94385640Y-70920000D01*
X94365450Y-70700290D01*
X94305570Y-70487940D01*
X94207980Y-70290050D01*
X94075970Y-70113270D01*
X93978590Y-70023250D01*
X93918190Y-69967420D01*
X93913950Y-69963500D01*
X93727350Y-69845760D01*
X93522420Y-69764010D01*
X93516760Y-69762880D01*
X93311690Y-69722090D01*
X93306020Y-69720960D01*
X93300250Y-69720890D01*
X93189500Y-69719440D01*
X93085410Y-69718070D01*
X93079710Y-69719050D01*
X92873650Y-69754460D01*
X92867960Y-69755440D01*
X92660960Y-69831800D01*
X92656000Y-69834760D01*
X92557260Y-69893500D01*
X92471340Y-69944610D01*
X92305460Y-70090090D01*
X92168860Y-70263360D01*
X92066130Y-70458620D01*
X92000700Y-70669330D01*
X91974770Y-70888440D01*
X91989200Y-71108600D01*
X91990620Y-71114200D01*
X91990620Y-71114210D01*
X92023620Y-71244140D01*
X92043510Y-71322450D01*
X92045930Y-71327690D01*
X92045930Y-71327700D01*
X92084050Y-71410380D01*
X92135880Y-71522820D01*
X92263220Y-71703000D01*
X92421260Y-71856960D01*
X92426060Y-71860170D01*
X92510260Y-71916430D01*
X92604720Y-71979540D01*
X92610020Y-71981820D01*
X92802130Y-72064360D01*
X92807440Y-72066640D01*
X92813070Y-72067910D01*
X92814480Y-72068230D01*
X92815080Y-72068560D01*
X92818560Y-72069690D01*
X92818340Y-72070380D01*
X92876510Y-72102770D01*
X92910020Y-72165370D01*
X92904360Y-72236140D01*
X92861340Y-72292620D01*
X92830290Y-72309340D01*
X92666380Y-72369800D01*
X92666370Y-72369810D01*
X92660960Y-72371800D01*
X92656000Y-72374760D01*
X92557260Y-72433500D01*
X92471340Y-72484610D01*
X92305460Y-72630090D01*
X92168860Y-72803360D01*
X92066130Y-72998620D01*
X92000700Y-73209330D01*
X91974770Y-73428440D01*
X91989200Y-73648600D01*
X91990620Y-73654200D01*
X91990620Y-73654210D01*
X92042090Y-73856860D01*
X92043510Y-73862450D01*
X92045930Y-73867690D01*
X92045930Y-73867700D01*
X92084050Y-73950380D01*
X92135880Y-74062820D01*
X92263220Y-74243000D01*
X92421260Y-74396960D01*
X92426060Y-74400170D01*
X92510260Y-74456430D01*
X92604720Y-74519540D01*
X92610020Y-74521820D01*
X92802130Y-74604360D01*
X92807440Y-74606640D01*
X92813070Y-74607910D01*
X92814480Y-74608230D01*
X92815080Y-74608560D01*
X92818560Y-74609690D01*
X92818340Y-74610380D01*
X92876510Y-74642770D01*
X92910020Y-74705370D01*
X92904360Y-74776140D01*
X92861340Y-74832620D01*
X92830290Y-74849340D01*
X92666380Y-74909800D01*
X92666370Y-74909810D01*
X92660960Y-74911800D01*
X92656000Y-74914760D01*
X92476310Y-75021660D01*
X92471340Y-75024610D01*
X92467000Y-75028420D01*
X92466990Y-75028430D01*
X92421600Y-75068230D01*
X92357200Y-75098110D01*
X92338530Y-75099500D01*
X87042300Y-75099500D01*
X86974180Y-75079500D01*
X86957500Y-75066690D01*
X86888250Y-75003690D01*
X86884110Y-74999910D01*
X86695010Y-74881290D01*
X86487900Y-74798030D01*
X86482410Y-74796900D01*
X86482400Y-74796900D01*
X86317850Y-74762820D01*
X86269310Y-74752770D01*
X86264700Y-74752500D01*
X86214470Y-74749610D01*
X86212650Y-74749500D01*
X85818370Y-74749500D01*
X85815580Y-74749750D01*
X85746000Y-74755960D01*
X85652660Y-74764290D01*
X85647250Y-74765770D01*
X85647240Y-74765770D01*
X85533470Y-74796900D01*
X85437350Y-74823190D01*
X85432290Y-74825600D01*
X85432290Y-74825610D01*
X85382540Y-74849340D01*
X85235870Y-74919290D01*
X85054600Y-75049550D01*
X85037980Y-75066690D01*
X84933380Y-75174630D01*
X84899250Y-75209850D01*
X84774750Y-75395130D01*
X84685030Y-75599530D01*
X84683720Y-75604980D01*
X84642970Y-75774730D01*
X84632920Y-75816590D01*
X84632590Y-75822190D01*
X84624160Y-75968440D01*
X84620070Y-76039440D01*
X83400500Y-76039440D01*
X83400500Y-70663170D01*
X83400500Y-70213550D01*
X84600000Y-70213550D01*
X84600000Y-70663170D01*
X84600190Y-70668100D01*
X84602400Y-70696080D01*
X84604700Y-70708670D01*
X84646510Y-70852590D01*
X84652760Y-70867020D01*
X84728280Y-70994730D01*
X84737930Y-71007170D01*
X84842840Y-71112070D01*
X84855270Y-71121720D01*
X84982980Y-71197250D01*
X84997420Y-71203490D01*
X85141330Y-71245310D01*
X85153920Y-71247600D01*
X85181900Y-71249810D01*
X85186830Y-71250000D01*
X85781890Y-71250000D01*
X85797120Y-71245530D01*
X85798330Y-71244140D01*
X85800000Y-71236450D01*
X85800000Y-71231890D01*
X85800000Y-70218120D01*
X85798660Y-70213550D01*
X86200000Y-70213550D01*
X86200000Y-71231890D01*
X86204480Y-71247120D01*
X86205870Y-71248330D01*
X86213550Y-71250000D01*
X86813170Y-71250000D01*
X86818100Y-71249810D01*
X86846080Y-71247600D01*
X86858670Y-71245310D01*
X87002590Y-71203490D01*
X87017020Y-71197250D01*
X87144730Y-71121720D01*
X87157170Y-71112070D01*
X87262070Y-71007170D01*
X87271720Y-70994730D01*
X87347250Y-70867020D01*
X87353490Y-70852590D01*
X87395310Y-70708670D01*
X87397600Y-70696080D01*
X87399810Y-70668100D01*
X87400000Y-70663170D01*
X87400000Y-70218120D01*
X87395530Y-70202880D01*
X87394140Y-70201670D01*
X87386450Y-70200000D01*
X86218120Y-70200000D01*
X86202880Y-70204480D01*
X86201670Y-70205870D01*
X86200000Y-70213550D01*
X85798660Y-70213550D01*
X85795530Y-70202880D01*
X85794140Y-70201670D01*
X85786450Y-70200000D01*
X84618120Y-70200000D01*
X84602880Y-70204480D01*
X84601670Y-70205870D01*
X84600000Y-70213550D01*
X83400500Y-70213550D01*
X83400500Y-67539440D01*
X84595070Y-67539440D01*
X84621880Y-67761040D01*
X84687520Y-67974400D01*
X84789900Y-68172760D01*
X84793310Y-68177200D01*
X84793310Y-68177210D01*
X84879980Y-68290150D01*
X84925790Y-68349850D01*
X85090890Y-68500090D01*
X85146210Y-68534790D01*
X85193280Y-68587930D01*
X85204160Y-68658090D01*
X85175370Y-68722990D01*
X85114400Y-68762520D01*
X84997420Y-68796510D01*
X84982980Y-68802760D01*
X84855270Y-68878280D01*
X84842840Y-68887930D01*
X84737930Y-68992840D01*
X84728280Y-69005270D01*
X84652760Y-69132980D01*
X84646510Y-69147420D01*
X84604700Y-69291330D01*
X84602400Y-69303920D01*
X84600190Y-69331900D01*
X84600000Y-69336830D01*
X84600000Y-69781890D01*
X84604480Y-69797120D01*
X84605870Y-69798330D01*
X84613550Y-69800000D01*
X87381890Y-69800000D01*
X87397120Y-69795530D01*
X87398330Y-69794140D01*
X87400000Y-69786450D01*
X87400000Y-69336830D01*
X87399810Y-69331900D01*
X87397600Y-69303920D01*
X87395310Y-69291330D01*
X87353490Y-69147420D01*
X87347250Y-69132980D01*
X87271720Y-69005270D01*
X87262070Y-68992840D01*
X87157170Y-68887930D01*
X87144730Y-68878280D01*
X87017020Y-68802760D01*
X87002590Y-68796510D01*
X86885360Y-68762450D01*
X86825530Y-68724240D01*
X86795850Y-68659740D01*
X86805750Y-68589440D01*
X86846990Y-68539130D01*
X86906580Y-68496310D01*
X86965850Y-68453720D01*
X86970410Y-68450450D01*
X87125750Y-68290150D01*
X87250250Y-68104870D01*
X87339970Y-67900470D01*
X87341280Y-67895020D01*
X87390780Y-67688870D01*
X87392090Y-67683420D01*
X87404930Y-67460560D01*
X87378120Y-67238960D01*
X87312480Y-67025600D01*
X87293890Y-66989580D01*
X87212670Y-66832230D01*
X87210100Y-66827240D01*
X87206690Y-66822800D01*
X87077620Y-66654590D01*
X87074210Y-66650150D01*
X86909110Y-66499910D01*
X86720010Y-66381290D01*
X86512900Y-66298030D01*
X86507410Y-66296900D01*
X86507400Y-66296900D01*
X86342850Y-66262820D01*
X86294310Y-66252770D01*
X86289700Y-66252500D01*
X86239470Y-66249610D01*
X86237650Y-66249500D01*
X85793370Y-66249500D01*
X85790580Y-66249750D01*
X85721000Y-66255960D01*
X85627660Y-66264290D01*
X85622250Y-66265770D01*
X85622240Y-66265770D01*
X85508470Y-66296900D01*
X85412350Y-66323190D01*
X85407290Y-66325600D01*
X85407290Y-66325610D01*
X85311610Y-66371240D01*
X85210870Y-66419290D01*
X85029600Y-66549550D01*
X84874250Y-66709850D01*
X84749750Y-66895130D01*
X84747490Y-66900280D01*
X84717990Y-66967490D01*
X84660030Y-67099530D01*
X84658720Y-67104980D01*
X84609230Y-67311130D01*
X84607920Y-67316590D01*
X84595070Y-67539440D01*
X83400500Y-67539440D01*
X83400500Y-66041440D01*
X83402050Y-66021730D01*
X83403940Y-66009790D01*
X83405490Y-66000000D01*
X83403560Y-65987830D01*
X83402460Y-65968440D01*
X94749880Y-65968440D01*
X94764310Y-66188600D01*
X94765730Y-66194200D01*
X94765730Y-66194210D01*
X94791820Y-66296900D01*
X94818620Y-66402450D01*
X94821040Y-66407690D01*
X94821040Y-66407700D01*
X94826390Y-66419290D01*
X94911000Y-66602820D01*
X95038330Y-66783000D01*
X95196380Y-66936960D01*
X95201170Y-66940170D01*
X95201180Y-66940170D01*
X95325430Y-67023190D01*
X95379830Y-67059540D01*
X95385130Y-67061820D01*
X95385140Y-67061820D01*
X95548810Y-67132140D01*
X95582550Y-67146640D01*
X95662200Y-67164660D01*
X95792110Y-67194050D01*
X95792110Y-67194060D01*
X95797740Y-67195330D01*
X95803520Y-67195560D01*
X95871320Y-67198220D01*
X96018210Y-67203990D01*
X96139170Y-67186450D01*
X96230850Y-67173160D01*
X96230860Y-67173160D01*
X96236560Y-67172330D01*
X96242030Y-67170480D01*
X96440020Y-67103270D01*
X96445490Y-67101410D01*
X96638000Y-66993600D01*
X96642440Y-66989910D01*
X96642910Y-66989580D01*
X96710380Y-66967490D01*
X96779090Y-66985370D01*
X96814380Y-67023190D01*
X96817140Y-67021190D01*
X96834480Y-67045060D01*
X96910060Y-67120630D01*
X96925900Y-67132140D01*
X97021130Y-67180660D01*
X97039760Y-67186720D01*
X97118740Y-67199230D01*
X97128590Y-67200000D01*
X97737000Y-67200000D01*
X97752240Y-67195530D01*
X97753440Y-67194140D01*
X97755110Y-67186450D01*
X97755110Y-67181880D01*
X97755110Y-66213550D01*
X98155110Y-66213550D01*
X98155110Y-67181880D01*
X98159590Y-67197120D01*
X98160980Y-67198330D01*
X98168660Y-67200000D01*
X98781640Y-67200000D01*
X98791490Y-67199220D01*
X98870460Y-67186720D01*
X98889100Y-67180660D01*
X98984330Y-67132140D01*
X99000170Y-67120630D01*
X99075740Y-67045060D01*
X99087250Y-67029210D01*
X99135780Y-66933980D01*
X99141830Y-66915360D01*
X99154340Y-66836370D01*
X99155110Y-66826530D01*
X99155110Y-66218120D01*
X99150640Y-66202880D01*
X99149250Y-66201670D01*
X99141560Y-66200000D01*
X98173230Y-66200000D01*
X98157990Y-66204480D01*
X98156780Y-66205870D01*
X98155110Y-66213550D01*
X97755110Y-66213550D01*
X97755110Y-65781890D01*
X97755110Y-64818120D01*
X97753770Y-64813550D01*
X98155110Y-64813550D01*
X98155110Y-65781890D01*
X98159590Y-65797120D01*
X98160980Y-65798330D01*
X98168660Y-65800000D01*
X99137000Y-65800000D01*
X99152240Y-65795530D01*
X99153440Y-65794140D01*
X99155110Y-65786450D01*
X99155110Y-65173480D01*
X99154340Y-65163630D01*
X99141830Y-65084650D01*
X99135770Y-65066010D01*
X99087250Y-64970790D01*
X99075740Y-64954940D01*
X99000170Y-64879370D01*
X98984330Y-64867860D01*
X98889090Y-64819340D01*
X98870470Y-64813280D01*
X98791490Y-64800780D01*
X98781640Y-64800000D01*
X98173230Y-64800000D01*
X98157990Y-64804480D01*
X98156780Y-64805870D01*
X98155110Y-64813550D01*
X97753770Y-64813550D01*
X97750640Y-64802880D01*
X97749250Y-64801670D01*
X97741560Y-64800000D01*
X97128590Y-64800000D01*
X97118740Y-64800780D01*
X97039760Y-64813280D01*
X97021130Y-64819340D01*
X96925900Y-64867860D01*
X96910060Y-64879370D01*
X96834480Y-64954940D01*
X96817140Y-64978820D01*
X96815040Y-64977290D01*
X96776310Y-65018310D01*
X96707400Y-65035370D01*
X96645560Y-65016050D01*
X96502460Y-64925760D01*
X96297530Y-64844010D01*
X96291870Y-64842880D01*
X96086800Y-64802090D01*
X96081140Y-64800960D01*
X96075360Y-64800890D01*
X95964620Y-64799440D01*
X95860520Y-64798070D01*
X95854820Y-64799050D01*
X95648770Y-64834460D01*
X95643070Y-64835440D01*
X95436070Y-64911800D01*
X95246450Y-65024610D01*
X95080570Y-65170090D01*
X94943980Y-65343360D01*
X94841240Y-65538620D01*
X94775820Y-65749330D01*
X94749880Y-65968440D01*
X83402460Y-65968440D01*
X83402130Y-65962620D01*
X83409360Y-65797120D01*
X83417760Y-65604620D01*
X83418720Y-65593670D01*
X83469660Y-65206750D01*
X83471570Y-65195930D01*
X83556030Y-64814930D01*
X83558880Y-64804320D01*
X83559940Y-64800960D01*
X83676230Y-64432120D01*
X83679990Y-64421800D01*
X83829330Y-64061240D01*
X83833970Y-64051300D01*
X84014180Y-63705120D01*
X84019670Y-63695610D01*
X84229360Y-63366470D01*
X84235660Y-63357470D01*
X84473230Y-63047860D01*
X84480290Y-63039440D01*
X84743950Y-62751720D01*
X84751720Y-62743950D01*
X85039440Y-62480290D01*
X85047860Y-62473230D01*
X85357470Y-62235660D01*
X85366470Y-62229360D01*
X85695610Y-62019670D01*
X85705120Y-62014180D01*
X86051300Y-61833970D01*
X86061230Y-61829340D01*
X86421810Y-61679980D01*
X86432120Y-61676230D01*
X86804320Y-61558880D01*
X86814930Y-61556030D01*
X87195930Y-61471570D01*
X87206750Y-61469660D01*
X87593670Y-61418720D01*
X87604620Y-61417760D01*
X87962620Y-61402130D01*
X87987830Y-61403560D01*
X88000000Y-61405490D01*
X88021730Y-61402050D01*
X88041440Y-61400500D01*
X103374000Y-61400500D01*
X103442120Y-61420500D01*
G37*
%TD.AperFunction*%
D18*
%TO.N,*%
X85600540Y-89999820D03*
X86304120Y-88303100D03*
X86304120Y-91696540D03*
X88000840Y-87599520D03*
X88000840Y-92400120D03*
X89697560Y-88303100D03*
X89697560Y-91696540D03*
X90401140Y-89999820D03*
X105600500Y-65999360D03*
X106304080Y-64302640D03*
X106304080Y-67696080D03*
X108000800Y-63599060D03*
X108000800Y-68399660D03*
X109697520Y-64302640D03*
X109697520Y-67696080D03*
X110401100Y-65999360D03*
X169600880Y-65999360D03*
X169600880Y-89999820D03*
X170301920Y-64302640D03*
X170301920Y-67696080D03*
X170301920Y-88303100D03*
X170301920Y-91696540D03*
X172001180Y-63599060D03*
X172001180Y-68399660D03*
X172001180Y-87599520D03*
X172001180Y-92400120D03*
X173697900Y-64302640D03*
X173697900Y-67696080D03*
X173697900Y-88303100D03*
X173697900Y-91696540D03*
X174398940Y-65999360D03*
X174398940Y-89999820D03*
D19*
X93179900Y-70919340D03*
X93179900Y-73459340D03*
X93179900Y-75999340D03*
X93179900Y-78539340D03*
X93179900Y-81079340D03*
X93179900Y-83619340D03*
X93179900Y-86159340D03*
X95956120Y-65999360D03*
X97955100Y-65999360D03*
X100799900Y-70919340D03*
X100799900Y-73459340D03*
X100799900Y-75999340D03*
X100799900Y-78539340D03*
X100799900Y-81079340D03*
X100799900Y-83619340D03*
X100799900Y-86159340D03*
X105001060Y-73499980D03*
X105001060Y-75498960D03*
X106499660Y-85498940D03*
X106499660Y-88999060D03*
X112953800Y-74500740D03*
X112999520Y-81998820D03*
X115493800Y-74500740D03*
X115539520Y-81998820D03*
X139999720Y-66499740D03*
X139999720Y-71501000D03*
D20*
X94592140Y-89349580D03*
X94592140Y-92649040D03*
X97091500Y-89349580D03*
X97091500Y-92649040D03*
X99593400Y-89349580D03*
X99593400Y-92649040D03*
D21*
X85999320Y-75999340D03*
X85999320Y-78501240D03*
X85999320Y-81000600D03*
D22*
X85999320Y-67500500D03*
X85999320Y-69999860D03*
X140401040Y-77500480D03*
X147899120Y-77500480D03*
D23*
X104312720Y-81000600D03*
X108122720Y-81000600D03*
X112377220Y-71000620D03*
X112377220Y-85498940D03*
X116187220Y-71000620D03*
X116187220Y-85498940D03*
X119999760Y-65913000D03*
X119999760Y-68453000D03*
X119999760Y-70993000D03*
X120081040Y-80391000D03*
X120081040Y-82931000D03*
X120081040Y-85471000D03*
D24*
X131500880Y-66675000D03*
X131500880Y-71676260D03*
X159999680Y-66675000D03*
X159999680Y-71676260D03*
X169999660Y-75676760D03*
X169999660Y-80675480D03*
D25*
X142163800Y-87734140D03*
X146126200Y-87734140D03*
X147396200Y-67020440D03*
X147396200Y-70980300D03*
D26*
X88000840Y-89999820D03*
X108000800Y-65999360D03*
X172001180Y-65999360D03*
X172001180Y-89999820D03*
%TD*%
D27*
%TO.N,*%
X101981000Y-89027000D02*
X102008000Y-89000000D01*
X106500000Y-89000000D02*
X102008000Y-89000000D01*
D28*
X100800000Y-73460000D02*
X104960000Y-73460000D01*
X104960000Y-73460000D02*
X105000000Y-73500000D01*
X104500000Y-76000000D02*
X105000000Y-75500000D01*
X120000000Y-75500000D02*
X120000000Y-70993000D01*
X106500000Y-75500000D02*
X108000000Y-77000000D01*
X108000000Y-77000000D02*
X118500000Y-77000000D01*
X100800000Y-76000000D02*
X104500000Y-76000000D01*
X105000000Y-75500000D02*
X106500000Y-75500000D01*
X118500000Y-77000000D02*
X120000000Y-75500000D01*
X112297180Y-70920000D02*
X112377180Y-71000000D01*
X112377180Y-71000000D02*
X112377180Y-73922180D01*
X100800000Y-70920000D02*
X112297180Y-70920000D01*
X112377180Y-73922180D02*
X112955000Y-74500000D01*
X116187180Y-73807820D02*
X115495000Y-74500000D01*
X116187180Y-71000000D02*
X116187180Y-67454820D01*
X117729000Y-65913000D02*
X120000000Y-65913000D01*
X116187180Y-67454820D02*
X117729000Y-65913000D01*
X116187180Y-71000000D02*
X116187180Y-73807820D01*
X109750000Y-83500000D02*
X111250000Y-82000000D01*
X111250000Y-82000000D02*
X113000000Y-82000000D01*
X112377180Y-82622820D02*
X113000000Y-82000000D01*
X100800000Y-86160000D02*
X102090000Y-86160000D01*
X104750000Y-83500000D02*
X109750000Y-83500000D01*
X112377180Y-85500000D02*
X112377180Y-82622820D01*
X102090000Y-86160000D02*
X104750000Y-83500000D01*
X116078000Y-80391000D02*
X120080000Y-80391000D01*
X115540000Y-80929000D02*
X116078000Y-80391000D01*
X116187180Y-82647180D02*
X115540000Y-82000000D01*
X115540000Y-82000000D02*
X115540000Y-80929000D01*
X116187180Y-85500000D02*
X116187180Y-82647180D01*
X86000000Y-76000000D02*
X93180000Y-76000000D01*
X93180000Y-81080000D02*
X86080000Y-81080000D01*
X86080000Y-81080000D02*
X86000000Y-81000000D01*
%TD*%
M02*
