%TF.GenerationSoftware,KiCad,Pcbnew,9.0.7*%
%TF.CreationDate,2026-08-18T09:52:51-07:00*%
%TF.ProjectId,PowerStage,506f7765-7253-4746-9167-652e6b696361,rev?*%
%TF.SameCoordinates,Original*%
%TF.FileFunction,Legend,Top*%
%TF.FilePolarity,Positive*%
%FSLAX46Y46*%
G04 Gerber Fmt 4.6, Leading zero omitted, Abs format (unit mm)*
G04 Created by KiCad (PCBNEW 9.0.7) date 2026-08-18 09:52:51*
%MOMM*%
%LPD*%
G01*
G04 APERTURE LIST*
%ADD10C,0.100000*%
%ADD11C,0.300000*%
%ADD12C,0.200000*%
%ADD13C,0.250000*%
%ADD14C,0.150000*%
%ADD15C,0.120000*%
%ADD16C,0.060000*%
%ADD17C,0.400000*%
%ADD18C,0.000000*%
G04 APERTURE END LIST*
D10*
X50800000Y-40465000D02*
G75*
G02*
X53800000Y-37465000I3000000J0D01*
G01*
X182245000Y-40465000D02*
X182245000Y-80820000D01*
X53800000Y-83820000D02*
G75*
G02*
X50800000Y-80820000I0J3000000D01*
G01*
X182245000Y-80820000D02*
G75*
G02*
X179245000Y-83820000I-3000000J0D01*
G01*
X50800000Y-80820000D02*
X50800000Y-40465000D01*
X53800000Y-37465000D02*
X179245000Y-37465000D01*
X179245000Y-37465000D02*
G75*
G02*
X182245000Y-40465000I0J-3000000D01*
G01*
X179245000Y-83820000D02*
X53800000Y-83820000D01*
D11*
X141515947Y-77590251D02*
X141456423Y-77709298D01*
X141456423Y-77709298D02*
X141456423Y-77887870D01*
X141456423Y-77887870D02*
X141515947Y-78066441D01*
X141515947Y-78066441D02*
X141634995Y-78185489D01*
X141634995Y-78185489D02*
X141754042Y-78245012D01*
X141754042Y-78245012D02*
X141992138Y-78304536D01*
X141992138Y-78304536D02*
X142170709Y-78304536D01*
X142170709Y-78304536D02*
X142408804Y-78245012D01*
X142408804Y-78245012D02*
X142527852Y-78185489D01*
X142527852Y-78185489D02*
X142646900Y-78066441D01*
X142646900Y-78066441D02*
X142706423Y-77887870D01*
X142706423Y-77887870D02*
X142706423Y-77768822D01*
X142706423Y-77768822D02*
X142646900Y-77590251D01*
X142646900Y-77590251D02*
X142587376Y-77530727D01*
X142587376Y-77530727D02*
X142170709Y-77530727D01*
X142170709Y-77530727D02*
X142170709Y-77768822D01*
X142706423Y-76995012D02*
X141456423Y-76995012D01*
X141456423Y-76995012D02*
X142706423Y-76280727D01*
X142706423Y-76280727D02*
X141456423Y-76280727D01*
X142706423Y-75685488D02*
X141456423Y-75685488D01*
X141456423Y-75685488D02*
X141456423Y-75387869D01*
X141456423Y-75387869D02*
X141515947Y-75209298D01*
X141515947Y-75209298D02*
X141634995Y-75090250D01*
X141634995Y-75090250D02*
X141754042Y-75030727D01*
X141754042Y-75030727D02*
X141992138Y-74971203D01*
X141992138Y-74971203D02*
X142170709Y-74971203D01*
X142170709Y-74971203D02*
X142408804Y-75030727D01*
X142408804Y-75030727D02*
X142527852Y-75090250D01*
X142527852Y-75090250D02*
X142646900Y-75209298D01*
X142646900Y-75209298D02*
X142706423Y-75387869D01*
X142706423Y-75387869D02*
X142706423Y-75685488D01*
X143123090Y-74137869D02*
X141337376Y-74137869D01*
X141456423Y-73423584D02*
X142706423Y-73006917D01*
X142706423Y-73006917D02*
X141456423Y-72590251D01*
X142706423Y-72173583D02*
X141456423Y-72173583D01*
X141456423Y-72173583D02*
X141456423Y-71875964D01*
X141456423Y-71875964D02*
X141515947Y-71697393D01*
X141515947Y-71697393D02*
X141634995Y-71578345D01*
X141634995Y-71578345D02*
X141754042Y-71518822D01*
X141754042Y-71518822D02*
X141992138Y-71459298D01*
X141992138Y-71459298D02*
X142170709Y-71459298D01*
X142170709Y-71459298D02*
X142408804Y-71518822D01*
X142408804Y-71518822D02*
X142527852Y-71578345D01*
X142527852Y-71578345D02*
X142646900Y-71697393D01*
X142646900Y-71697393D02*
X142706423Y-71875964D01*
X142706423Y-71875964D02*
X142706423Y-72173583D01*
X142706423Y-70923583D02*
X141456423Y-70923583D01*
X141456423Y-70923583D02*
X141456423Y-70625964D01*
X141456423Y-70625964D02*
X141515947Y-70447393D01*
X141515947Y-70447393D02*
X141634995Y-70328345D01*
X141634995Y-70328345D02*
X141754042Y-70268822D01*
X141754042Y-70268822D02*
X141992138Y-70209298D01*
X141992138Y-70209298D02*
X142170709Y-70209298D01*
X142170709Y-70209298D02*
X142408804Y-70268822D01*
X142408804Y-70268822D02*
X142527852Y-70328345D01*
X142527852Y-70328345D02*
X142646900Y-70447393D01*
X142646900Y-70447393D02*
X142706423Y-70625964D01*
X142706423Y-70625964D02*
X142706423Y-70923583D01*
D12*
X112231623Y-80850802D02*
X110981623Y-80850802D01*
X110981623Y-80850802D02*
X110981623Y-80374612D01*
X110981623Y-80374612D02*
X111041147Y-80255564D01*
X111041147Y-80255564D02*
X111100671Y-80196041D01*
X111100671Y-80196041D02*
X111219719Y-80136517D01*
X111219719Y-80136517D02*
X111398290Y-80136517D01*
X111398290Y-80136517D02*
X111517338Y-80196041D01*
X111517338Y-80196041D02*
X111576861Y-80255564D01*
X111576861Y-80255564D02*
X111636385Y-80374612D01*
X111636385Y-80374612D02*
X111636385Y-80850802D01*
X110981623Y-79719850D02*
X112231623Y-79422231D01*
X112231623Y-79422231D02*
X111338766Y-79184136D01*
X111338766Y-79184136D02*
X112231623Y-78946041D01*
X112231623Y-78946041D02*
X110981623Y-78648422D01*
X112231623Y-78172231D02*
X110981623Y-78172231D01*
X110981623Y-78172231D02*
X111874480Y-77755565D01*
X111874480Y-77755565D02*
X110981623Y-77338898D01*
X110981623Y-77338898D02*
X112231623Y-77338898D01*
X112648290Y-76446041D02*
X110862576Y-76446041D01*
X111041147Y-74898423D02*
X110981623Y-75017470D01*
X110981623Y-75017470D02*
X110981623Y-75196042D01*
X110981623Y-75196042D02*
X111041147Y-75374613D01*
X111041147Y-75374613D02*
X111160195Y-75493661D01*
X111160195Y-75493661D02*
X111279242Y-75553184D01*
X111279242Y-75553184D02*
X111517338Y-75612708D01*
X111517338Y-75612708D02*
X111695909Y-75612708D01*
X111695909Y-75612708D02*
X111934004Y-75553184D01*
X111934004Y-75553184D02*
X112053052Y-75493661D01*
X112053052Y-75493661D02*
X112172100Y-75374613D01*
X112172100Y-75374613D02*
X112231623Y-75196042D01*
X112231623Y-75196042D02*
X112231623Y-75076994D01*
X112231623Y-75076994D02*
X112172100Y-74898423D01*
X112172100Y-74898423D02*
X112112576Y-74838899D01*
X112112576Y-74838899D02*
X111695909Y-74838899D01*
X111695909Y-74838899D02*
X111695909Y-75076994D01*
X112231623Y-74303184D02*
X110981623Y-74303184D01*
X110981623Y-74303184D02*
X112231623Y-73588899D01*
X112231623Y-73588899D02*
X110981623Y-73588899D01*
X112231623Y-72993660D02*
X110981623Y-72993660D01*
X110981623Y-72993660D02*
X110981623Y-72696041D01*
X110981623Y-72696041D02*
X111041147Y-72517470D01*
X111041147Y-72517470D02*
X111160195Y-72398422D01*
X111160195Y-72398422D02*
X111279242Y-72338899D01*
X111279242Y-72338899D02*
X111517338Y-72279375D01*
X111517338Y-72279375D02*
X111695909Y-72279375D01*
X111695909Y-72279375D02*
X111934004Y-72338899D01*
X111934004Y-72338899D02*
X112053052Y-72398422D01*
X112053052Y-72398422D02*
X112172100Y-72517470D01*
X112172100Y-72517470D02*
X112231623Y-72696041D01*
X112231623Y-72696041D02*
X112231623Y-72993660D01*
X112648290Y-71446041D02*
X110862576Y-71446041D01*
X112112576Y-70553184D02*
X112172100Y-70493661D01*
X112172100Y-70493661D02*
X112231623Y-70553184D01*
X112231623Y-70553184D02*
X112172100Y-70612708D01*
X112172100Y-70612708D02*
X112112576Y-70553184D01*
X112112576Y-70553184D02*
X112231623Y-70553184D01*
X111755433Y-70553184D02*
X111041147Y-70612708D01*
X111041147Y-70612708D02*
X110981623Y-70553184D01*
X110981623Y-70553184D02*
X111041147Y-70493661D01*
X111041147Y-70493661D02*
X111755433Y-70553184D01*
X111755433Y-70553184D02*
X110981623Y-70553184D01*
X112231623Y-69957946D02*
X110981623Y-69957946D01*
X110981623Y-69957946D02*
X110981623Y-69481756D01*
X110981623Y-69481756D02*
X111041147Y-69362708D01*
X111041147Y-69362708D02*
X111100671Y-69303185D01*
X111100671Y-69303185D02*
X111219719Y-69243661D01*
X111219719Y-69243661D02*
X111398290Y-69243661D01*
X111398290Y-69243661D02*
X111517338Y-69303185D01*
X111517338Y-69303185D02*
X111576861Y-69362708D01*
X111576861Y-69362708D02*
X111636385Y-69481756D01*
X111636385Y-69481756D02*
X111636385Y-69957946D01*
X110981623Y-68826994D02*
X112231623Y-68529375D01*
X112231623Y-68529375D02*
X111338766Y-68291280D01*
X111338766Y-68291280D02*
X112231623Y-68053185D01*
X112231623Y-68053185D02*
X110981623Y-67755566D01*
X112231623Y-67279375D02*
X110981623Y-67279375D01*
X110981623Y-67279375D02*
X111874480Y-66862709D01*
X111874480Y-66862709D02*
X110981623Y-66446042D01*
X110981623Y-66446042D02*
X112231623Y-66446042D01*
D11*
X134479987Y-82381423D02*
X134479987Y-81131423D01*
X134479987Y-81131423D02*
X134896653Y-82024280D01*
X134896653Y-82024280D02*
X135313320Y-81131423D01*
X135313320Y-81131423D02*
X135313320Y-82381423D01*
X135849034Y-82024280D02*
X136444272Y-82024280D01*
X135729986Y-82381423D02*
X136146653Y-81131423D01*
X136146653Y-81131423D02*
X136563319Y-82381423D01*
X136860939Y-81131423D02*
X137694272Y-82381423D01*
X137694272Y-81131423D02*
X136860939Y-82381423D01*
D12*
G36*
X108007997Y-38559106D02*
G01*
X108001204Y-38574853D01*
X107947327Y-38655826D01*
X107796018Y-38880408D01*
X107586605Y-39227794D01*
X107465338Y-39426144D01*
X107399140Y-39535555D01*
X107372648Y-39601486D01*
X107353082Y-39636259D01*
X107315715Y-39665453D01*
X107268069Y-39683571D01*
X107209542Y-39690000D01*
X107185259Y-39681307D01*
X107158325Y-39648967D01*
X107133604Y-39598265D01*
X107093185Y-39493848D01*
X106951329Y-39127850D01*
X106782152Y-38697329D01*
X106761992Y-38637948D01*
X106767866Y-38606720D01*
X106790275Y-38558300D01*
X106812463Y-38529825D01*
X106838628Y-38513720D01*
X106870216Y-38508255D01*
X106908608Y-38515619D01*
X106943122Y-38538224D01*
X106959928Y-38561796D01*
X106979470Y-38611298D01*
X107001374Y-38701182D01*
X107032567Y-38814126D01*
X107118171Y-39048935D01*
X107212754Y-39285095D01*
X107272704Y-39423653D01*
X107328391Y-39326933D01*
X107341507Y-39304804D01*
X107448411Y-39127404D01*
X107530038Y-38979473D01*
X107665657Y-38734291D01*
X107761653Y-38586144D01*
X107815446Y-38519772D01*
X107857665Y-38481150D01*
X107890908Y-38462122D01*
X107917798Y-38456671D01*
X107959245Y-38462860D01*
X107986124Y-38479274D01*
X108002608Y-38505904D01*
X108008803Y-38546796D01*
X108008803Y-38553391D01*
X108007997Y-38559106D01*
G37*
G36*
X108428436Y-38471179D02*
G01*
X108422858Y-38507370D01*
X108405961Y-38540768D01*
X108375973Y-38572588D01*
X108323527Y-38606834D01*
X108284968Y-38616113D01*
X108253887Y-38611732D01*
X108225112Y-38598541D01*
X108197700Y-38575446D01*
X108168354Y-38533025D01*
X108159598Y-38493967D01*
X108164003Y-38456494D01*
X108176569Y-38425372D01*
X108197260Y-38399152D01*
X108224562Y-38379757D01*
X108259856Y-38367389D01*
X108305484Y-38362882D01*
X108356121Y-38371260D01*
X108394438Y-38395048D01*
X108420074Y-38430474D01*
X108428436Y-38471179D01*
G37*
G36*
X108032543Y-39145436D02*
G01*
X108032543Y-39146315D01*
X108058775Y-38975076D01*
X108065796Y-38917712D01*
X108085373Y-38873007D01*
X108105815Y-38849853D01*
X108130109Y-38836440D01*
X108159598Y-38831828D01*
X108210971Y-38838953D01*
X108246500Y-38858133D01*
X108270294Y-38886858D01*
X108277641Y-38917191D01*
X108272088Y-38958050D01*
X108247306Y-39052599D01*
X108242397Y-39070697D01*
X108204614Y-39222677D01*
X108188248Y-39329277D01*
X108179235Y-39490917D01*
X108182969Y-39544836D01*
X108196454Y-39624713D01*
X108198946Y-39649333D01*
X108192153Y-39668275D01*
X108163262Y-39700184D01*
X108125534Y-39724515D01*
X108086618Y-39732205D01*
X108049267Y-39726240D01*
X108020879Y-39709344D01*
X107999181Y-39680481D01*
X107984230Y-39635577D01*
X107978394Y-39568293D01*
X107987274Y-39422259D01*
X108017742Y-39229040D01*
X108032543Y-39145436D01*
G37*
G36*
X108697934Y-39736894D02*
G01*
X108630444Y-39731654D01*
X108575063Y-39717050D01*
X108529544Y-39694142D01*
X108492184Y-39663108D01*
X108462393Y-39624328D01*
X108440489Y-39578261D01*
X108426627Y-39523468D01*
X108421695Y-39458091D01*
X108427576Y-39379573D01*
X108445820Y-39296622D01*
X108477700Y-39208226D01*
X108524949Y-39113385D01*
X108589710Y-39011127D01*
X108666664Y-38913335D01*
X108736868Y-38845790D01*
X108801386Y-38802413D01*
X108861617Y-38778470D01*
X108919291Y-38770865D01*
X108967433Y-38778994D01*
X109011090Y-38803674D01*
X109052062Y-38848021D01*
X109083201Y-38901419D01*
X109101128Y-38954510D01*
X109107016Y-39008342D01*
X109102899Y-39060060D01*
X109092551Y-39093453D01*
X109077927Y-39114002D01*
X109047902Y-39135187D01*
X109021800Y-39141332D01*
X108987440Y-39134937D01*
X108961364Y-39116450D01*
X108941597Y-39083576D01*
X108929110Y-39030251D01*
X108917724Y-38977627D01*
X108904001Y-38955125D01*
X108888956Y-38949064D01*
X108862783Y-38955865D01*
X108828483Y-38980901D01*
X108782220Y-39034776D01*
X108720136Y-39131880D01*
X108670788Y-39228049D01*
X108638570Y-39312358D01*
X108620765Y-39386533D01*
X108615209Y-39452229D01*
X108623117Y-39502035D01*
X108644403Y-39534919D01*
X108679699Y-39555528D01*
X108734863Y-39563384D01*
X108798611Y-39557873D01*
X108863698Y-39540980D01*
X108930993Y-39511707D01*
X109001284Y-39468496D01*
X109062781Y-39431968D01*
X109101301Y-39422700D01*
X109126835Y-39428021D01*
X109141052Y-39442354D01*
X109146364Y-39468276D01*
X109140501Y-39495532D01*
X109119667Y-39530222D01*
X109076628Y-39575490D01*
X109001650Y-39634532D01*
X108926490Y-39680314D01*
X108851342Y-39711992D01*
X108775453Y-39730679D01*
X108697934Y-39736894D01*
G37*
G36*
X109638244Y-39029958D02*
G01*
X109630392Y-39048102D01*
X109591863Y-39210942D01*
X109559413Y-39375231D01*
X109552955Y-39430027D01*
X109557341Y-39491298D01*
X109567316Y-39522937D01*
X109585993Y-39542562D01*
X109614431Y-39549316D01*
X109659540Y-39545341D01*
X109702578Y-39533489D01*
X109746651Y-39510784D01*
X109813660Y-39462341D01*
X109855972Y-39434723D01*
X109885760Y-39427390D01*
X109907609Y-39430942D01*
X109923862Y-39440945D01*
X109934712Y-39455755D01*
X109938224Y-39472526D01*
X109932763Y-39504661D01*
X109914606Y-39541395D01*
X109879566Y-39584623D01*
X109821793Y-39636071D01*
X109760864Y-39677178D01*
X109700071Y-39705423D01*
X109638719Y-39722008D01*
X109575963Y-39727515D01*
X109506570Y-39719764D01*
X109452704Y-39698317D01*
X109410732Y-39664061D01*
X109380454Y-39618426D01*
X109360948Y-39558967D01*
X109353799Y-39481685D01*
X109359950Y-39405505D01*
X109384169Y-39268222D01*
X109436598Y-39042854D01*
X109363618Y-39048569D01*
X109346399Y-39048569D01*
X109309445Y-39042518D01*
X109269755Y-39022997D01*
X109248571Y-39003080D01*
X109235557Y-38976496D01*
X109230847Y-38941004D01*
X109235972Y-38908956D01*
X109249791Y-38887752D01*
X109272761Y-38874430D01*
X109308736Y-38869344D01*
X109484078Y-38869344D01*
X109517498Y-38760255D01*
X109557058Y-38605195D01*
X109573828Y-38557458D01*
X109596542Y-38527090D01*
X109625012Y-38509622D01*
X109661179Y-38503565D01*
X109702141Y-38510889D01*
X109731667Y-38531556D01*
X109750898Y-38561501D01*
X109757093Y-38593764D01*
X109748836Y-38630357D01*
X109687411Y-38851758D01*
X109973541Y-38827138D01*
X110012751Y-38831085D01*
X110030914Y-38839888D01*
X110040711Y-38856294D01*
X110044836Y-38888614D01*
X110038391Y-38919143D01*
X110018852Y-38944295D01*
X109982321Y-38965407D01*
X109921078Y-38981231D01*
X109638244Y-39029958D01*
G37*
G36*
X110629488Y-38805758D02*
G01*
X110688896Y-38825274D01*
X110741557Y-38857384D01*
X110788628Y-38903196D01*
X110826519Y-38957564D01*
X110853470Y-39016422D01*
X110869891Y-39080680D01*
X110875530Y-39151517D01*
X110872038Y-39213585D01*
X110861608Y-39274249D01*
X110861608Y-39275055D01*
X110827834Y-39367933D01*
X110782107Y-39452459D01*
X110724087Y-39529603D01*
X110652927Y-39600020D01*
X110571337Y-39660909D01*
X110493789Y-39701517D01*
X110419123Y-39724686D01*
X110345987Y-39732205D01*
X110287146Y-39726452D01*
X110235058Y-39709763D01*
X110188308Y-39682219D01*
X110145952Y-39642885D01*
X110111781Y-39596077D01*
X110087378Y-39544548D01*
X110072425Y-39487378D01*
X110067257Y-39423360D01*
X110069056Y-39401671D01*
X110268098Y-39401671D01*
X110274823Y-39466042D01*
X110293084Y-39514291D01*
X110312556Y-39539949D01*
X110334217Y-39554041D01*
X110359103Y-39558695D01*
X110406097Y-39552354D01*
X110456024Y-39532231D01*
X110510417Y-39495479D01*
X110570568Y-39437868D01*
X110619615Y-39374017D01*
X110653521Y-39308154D01*
X110673638Y-39239391D01*
X110680404Y-39166538D01*
X110676052Y-39111042D01*
X110663884Y-39065180D01*
X110644720Y-39027173D01*
X110617436Y-38996490D01*
X110584854Y-38978658D01*
X110545143Y-38972512D01*
X110506227Y-38977128D01*
X110470201Y-38990884D01*
X110436113Y-39014424D01*
X110435307Y-39014424D01*
X110400503Y-39051229D01*
X110363129Y-39104179D01*
X110322979Y-39177236D01*
X110292042Y-39253246D01*
X110274019Y-39327776D01*
X110268098Y-39401671D01*
X110069056Y-39401671D01*
X110075814Y-39320220D01*
X110101810Y-39216905D01*
X110146390Y-39112165D01*
X110211531Y-39004898D01*
X110275580Y-38926734D01*
X110341836Y-38869487D01*
X110410805Y-38830149D01*
X110483540Y-38806854D01*
X110561556Y-38799002D01*
X110629488Y-38805758D01*
G37*
G36*
X111237937Y-39283335D02*
G01*
X111251859Y-39257030D01*
X111323105Y-39126557D01*
X111394322Y-39019489D01*
X111465376Y-38932871D01*
X111527828Y-38873857D01*
X111585002Y-38835940D01*
X111638149Y-38815018D01*
X111688785Y-38808381D01*
X111742848Y-38813803D01*
X111787711Y-38829136D01*
X111825293Y-38853883D01*
X111855296Y-38887003D01*
X111872460Y-38922572D01*
X111878196Y-38961887D01*
X111873493Y-38998790D01*
X111860097Y-39028932D01*
X111838452Y-39050003D01*
X111810125Y-39056922D01*
X111777932Y-39052381D01*
X111747374Y-39038574D01*
X111717508Y-39014204D01*
X111688396Y-38991982D01*
X111670760Y-38986580D01*
X111645163Y-38993179D01*
X111606683Y-39018742D01*
X111549045Y-39075422D01*
X111465010Y-39179141D01*
X111399883Y-39278671D01*
X111349499Y-39383436D01*
X111313302Y-39494247D01*
X111291207Y-39612110D01*
X111281653Y-39657295D01*
X111267955Y-39688482D01*
X111251053Y-39709197D01*
X111215719Y-39729522D01*
X111166643Y-39736894D01*
X111133265Y-39730036D01*
X111107010Y-39709667D01*
X111086263Y-39672267D01*
X111069678Y-39597315D01*
X111062522Y-39461095D01*
X111065819Y-39298869D01*
X111084651Y-39063370D01*
X111090366Y-39006584D01*
X111099240Y-38932263D01*
X111107145Y-38895795D01*
X111121946Y-38867856D01*
X111151036Y-38839448D01*
X111187498Y-38819605D01*
X111227313Y-38813070D01*
X111267359Y-38819899D01*
X111294504Y-38838642D01*
X111311876Y-38865881D01*
X111317438Y-38894769D01*
X111310711Y-38943098D01*
X111280582Y-39055603D01*
X111258454Y-39156280D01*
X111237937Y-39283335D01*
G37*
G36*
X113216893Y-38494126D02*
G01*
X113249445Y-38506506D01*
X113272725Y-38525547D01*
X113283457Y-38542047D01*
X113288258Y-38580429D01*
X113282543Y-38632086D01*
X113427985Y-39054594D01*
X113517383Y-39279085D01*
X113579522Y-39403899D01*
X113636094Y-39493069D01*
X113687522Y-39554005D01*
X113739546Y-39611378D01*
X113746421Y-39627710D01*
X113748998Y-39650725D01*
X113740786Y-39692210D01*
X113716172Y-39726489D01*
X113680355Y-39749565D01*
X113638356Y-39757264D01*
X113599565Y-39750356D01*
X113557958Y-39727896D01*
X113511667Y-39685163D01*
X113472169Y-39634774D01*
X113431697Y-39569542D01*
X113390327Y-39486814D01*
X113341400Y-39372283D01*
X113333394Y-39345031D01*
X113329291Y-39341734D01*
X113272103Y-39347350D01*
X113132114Y-39372875D01*
X112987189Y-39405388D01*
X112886650Y-39433545D01*
X112844811Y-39440945D01*
X112815452Y-39436906D01*
X112795645Y-39426144D01*
X112773583Y-39470050D01*
X112709989Y-39578185D01*
X112640297Y-39681077D01*
X112610338Y-39709270D01*
X112582925Y-39719760D01*
X112561172Y-39722826D01*
X112531399Y-39715933D01*
X112490244Y-39690439D01*
X112458033Y-39655628D01*
X112448845Y-39623688D01*
X112457879Y-39597953D01*
X112509316Y-39506417D01*
X112654595Y-39278646D01*
X112679981Y-39238346D01*
X112906287Y-39238346D01*
X113012020Y-39221933D01*
X113195642Y-39187494D01*
X113267815Y-39174378D01*
X113151385Y-38830069D01*
X113139075Y-38795631D01*
X112906287Y-39238346D01*
X112679981Y-39238346D01*
X112762858Y-39106783D01*
X112859539Y-38939392D01*
X113030754Y-38634544D01*
X113087051Y-38544818D01*
X113117482Y-38511857D01*
X113145323Y-38494748D01*
X113171901Y-38489497D01*
X113216893Y-38494126D01*
G37*
G36*
X114159619Y-38301919D02*
G01*
X114199156Y-38308269D01*
X114225350Y-38325412D01*
X114241833Y-38353954D01*
X114248133Y-38398712D01*
X114245191Y-38443717D01*
X114235823Y-38494333D01*
X114168632Y-38748224D01*
X114133829Y-38898851D01*
X114107522Y-39068572D01*
X114091139Y-39232721D01*
X114086639Y-39339682D01*
X114090224Y-39448599D01*
X114102247Y-39587491D01*
X114106350Y-39635851D01*
X114102322Y-39667173D01*
X114090458Y-39695012D01*
X114070226Y-39720334D01*
X114031667Y-39747204D01*
X113991531Y-39755652D01*
X113956314Y-39749448D01*
X113929680Y-39731688D01*
X113909539Y-39700697D01*
X113893044Y-39635727D01*
X113885799Y-39512020D01*
X113892499Y-39320578D01*
X113914189Y-39095838D01*
X113953429Y-38833586D01*
X114005578Y-38563400D01*
X114041032Y-38427745D01*
X114064071Y-38372480D01*
X114096750Y-38330392D01*
X114128112Y-38308647D01*
X114159619Y-38301919D01*
G37*
G36*
X114553168Y-39643105D02*
G01*
X114543023Y-39681275D01*
X114524640Y-39706451D01*
X114497645Y-39721844D01*
X114458866Y-39727515D01*
X114421415Y-39721727D01*
X114393178Y-39705442D01*
X114371807Y-39677901D01*
X114357197Y-39635449D01*
X114351521Y-39572250D01*
X114358878Y-39329881D01*
X114378558Y-39142651D01*
X114394612Y-39004238D01*
X114399881Y-38869856D01*
X114405084Y-38840160D01*
X114420324Y-38816074D01*
X114444152Y-38800058D01*
X114477770Y-38794312D01*
X114522408Y-38800397D01*
X114555087Y-38817104D01*
X114578916Y-38844327D01*
X114594699Y-38884812D01*
X114600722Y-38943569D01*
X114593238Y-39009554D01*
X114557271Y-39190352D01*
X114536329Y-39300817D01*
X114531039Y-39361737D01*
X114629196Y-39164699D01*
X114713877Y-39027810D01*
X114786706Y-38937734D01*
X114849479Y-38883045D01*
X114904350Y-38854555D01*
X114953970Y-38845896D01*
X115001836Y-38852751D01*
X115042042Y-38872670D01*
X115076556Y-38906639D01*
X115098680Y-38951329D01*
X115116283Y-39034654D01*
X115124476Y-39175917D01*
X115129316Y-39313819D01*
X115137351Y-39358811D01*
X115144187Y-39366427D01*
X115162874Y-39344698D01*
X115246622Y-39181706D01*
X115317189Y-39045449D01*
X115371726Y-38960179D01*
X115413391Y-38911622D01*
X115462496Y-38873826D01*
X115510556Y-38852719D01*
X115558984Y-38845896D01*
X115602332Y-38851037D01*
X115637696Y-38865604D01*
X115666913Y-38889481D01*
X115690875Y-38924078D01*
X115712624Y-38978500D01*
X115732430Y-39063087D01*
X115748321Y-39187934D01*
X115764115Y-39326006D01*
X115781514Y-39410537D01*
X115800107Y-39457556D01*
X115824060Y-39489717D01*
X115853248Y-39510334D01*
X115876713Y-39526350D01*
X115889787Y-39545658D01*
X115894207Y-39569392D01*
X115889857Y-39590937D01*
X115875485Y-39614177D01*
X115847459Y-39640321D01*
X115799187Y-39667464D01*
X115752424Y-39675931D01*
X115713180Y-39670869D01*
X115679074Y-39656082D01*
X115648777Y-39631024D01*
X115621706Y-39593719D01*
X115597839Y-39535018D01*
X115575607Y-39431409D01*
X115558178Y-39263478D01*
X115547581Y-39154127D01*
X115538907Y-39105209D01*
X115524505Y-39074163D01*
X115508133Y-39066301D01*
X115490645Y-39076154D01*
X115455669Y-39125212D01*
X115336821Y-39359612D01*
X115261370Y-39504309D01*
X115208520Y-39580530D01*
X115169673Y-39616913D01*
X115131764Y-39636760D01*
X115093408Y-39643105D01*
X115063080Y-39638915D01*
X115031545Y-39625725D01*
X114997861Y-39601779D01*
X114981757Y-39579305D01*
X114966091Y-39532024D01*
X114952996Y-39445500D01*
X114945837Y-39301653D01*
X114937268Y-39135766D01*
X114925829Y-39080667D01*
X114916308Y-39070990D01*
X114895899Y-39081382D01*
X114848346Y-39134067D01*
X114750711Y-39276008D01*
X114666254Y-39415279D01*
X114601278Y-39537016D01*
X114553168Y-39643105D01*
G37*
G36*
X116611717Y-38791343D02*
G01*
X116647655Y-38809321D01*
X116675614Y-38839065D01*
X116696325Y-38883412D01*
X116741325Y-38888963D01*
X116769004Y-38903081D01*
X116784870Y-38924528D01*
X116790554Y-38955659D01*
X116787062Y-38996794D01*
X116772529Y-39080369D01*
X116746885Y-39241564D01*
X116739776Y-39350380D01*
X116744161Y-39447662D01*
X116754064Y-39498171D01*
X116774947Y-39553932D01*
X116785823Y-39565795D01*
X116814368Y-39581849D01*
X116839535Y-39601333D01*
X116847121Y-39625300D01*
X116842663Y-39650976D01*
X116829178Y-39673845D01*
X116804916Y-39694909D01*
X116761244Y-39716014D01*
X116716769Y-39722826D01*
X116674803Y-39716049D01*
X116641126Y-39696438D01*
X116613581Y-39662391D01*
X116592195Y-39609135D01*
X116579136Y-39529510D01*
X116578283Y-39414567D01*
X116496148Y-39513324D01*
X116420279Y-39586754D01*
X116349909Y-39639007D01*
X116284121Y-39673556D01*
X116221829Y-39693091D01*
X116161800Y-39699378D01*
X116115117Y-39692980D01*
X116073260Y-39673985D01*
X116034745Y-39641200D01*
X116005570Y-39599673D01*
X115987729Y-39550906D01*
X115981475Y-39492896D01*
X115984684Y-39453841D01*
X116181510Y-39453841D01*
X116186045Y-39497224D01*
X116195959Y-39515913D01*
X116209354Y-39521179D01*
X116252070Y-39513547D01*
X116303735Y-39487456D01*
X116367749Y-39435817D01*
X116447491Y-39349061D01*
X116515452Y-39256286D01*
X116558542Y-39176765D01*
X116581768Y-39108115D01*
X116588907Y-39047983D01*
X116583924Y-39009840D01*
X116570443Y-38982697D01*
X116550115Y-38964058D01*
X116529043Y-38958443D01*
X116493558Y-38965940D01*
X116448531Y-38992496D01*
X116389978Y-39047153D01*
X116313841Y-39142065D01*
X116250103Y-39240557D01*
X116209750Y-39323601D01*
X116188107Y-39393852D01*
X116181510Y-39453841D01*
X115984684Y-39453841D01*
X115988221Y-39410800D01*
X116009125Y-39324646D01*
X116045695Y-39233259D01*
X116100063Y-39135508D01*
X116174916Y-39030324D01*
X116261519Y-38932950D01*
X116342694Y-38864116D01*
X116419428Y-38818804D01*
X116493044Y-38793203D01*
X116565167Y-38784933D01*
X116611717Y-38791343D01*
G37*
G36*
X117204106Y-39283335D02*
G01*
X117218028Y-39257030D01*
X117289274Y-39126557D01*
X117360491Y-39019489D01*
X117431545Y-38932871D01*
X117493997Y-38873857D01*
X117551171Y-38835940D01*
X117604318Y-38815018D01*
X117654954Y-38808381D01*
X117709017Y-38813803D01*
X117753879Y-38829136D01*
X117791461Y-38853883D01*
X117821465Y-38887003D01*
X117838629Y-38922572D01*
X117844364Y-38961887D01*
X117839662Y-38998790D01*
X117826266Y-39028932D01*
X117804620Y-39050003D01*
X117776294Y-39056922D01*
X117744101Y-39052381D01*
X117713543Y-39038574D01*
X117683677Y-39014204D01*
X117654565Y-38991982D01*
X117636929Y-38986580D01*
X117611332Y-38993179D01*
X117572852Y-39018742D01*
X117515214Y-39075422D01*
X117431179Y-39179141D01*
X117366051Y-39278671D01*
X117315668Y-39383436D01*
X117279470Y-39494247D01*
X117257376Y-39612110D01*
X117247822Y-39657295D01*
X117234124Y-39688482D01*
X117217222Y-39709197D01*
X117181888Y-39729522D01*
X117132812Y-39736894D01*
X117099434Y-39730036D01*
X117073179Y-39709667D01*
X117052431Y-39672267D01*
X117035847Y-39597315D01*
X117028691Y-39461095D01*
X117031988Y-39298869D01*
X117050819Y-39063370D01*
X117056535Y-39006584D01*
X117065409Y-38932263D01*
X117073314Y-38895795D01*
X117088115Y-38867856D01*
X117117205Y-38839448D01*
X117153667Y-38819605D01*
X117193482Y-38813070D01*
X117233528Y-38819899D01*
X117260673Y-38838642D01*
X117278044Y-38865881D01*
X117283607Y-38894769D01*
X117276880Y-38943098D01*
X117246751Y-39055603D01*
X117224623Y-39156280D01*
X117204106Y-39283335D01*
G37*
G36*
X118446469Y-38791343D02*
G01*
X118482407Y-38809321D01*
X118510366Y-38839065D01*
X118531078Y-38883412D01*
X118576077Y-38888963D01*
X118603756Y-38903081D01*
X118619622Y-38924528D01*
X118625307Y-38955659D01*
X118621814Y-38996794D01*
X118607281Y-39080369D01*
X118581637Y-39241564D01*
X118574528Y-39350380D01*
X118578914Y-39447662D01*
X118588817Y-39498171D01*
X118609699Y-39553932D01*
X118620575Y-39565795D01*
X118649120Y-39581849D01*
X118674287Y-39601333D01*
X118681873Y-39625300D01*
X118677416Y-39650976D01*
X118663931Y-39673845D01*
X118639668Y-39694909D01*
X118595997Y-39716014D01*
X118551521Y-39722826D01*
X118509556Y-39716049D01*
X118475879Y-39696438D01*
X118448333Y-39662391D01*
X118426947Y-39609135D01*
X118413888Y-39529510D01*
X118413035Y-39414567D01*
X118330900Y-39513324D01*
X118255031Y-39586754D01*
X118184662Y-39639007D01*
X118118874Y-39673556D01*
X118056581Y-39693091D01*
X117996552Y-39699378D01*
X117949869Y-39692980D01*
X117908013Y-39673985D01*
X117869497Y-39641200D01*
X117840322Y-39599673D01*
X117822481Y-39550906D01*
X117816228Y-39492896D01*
X117819437Y-39453841D01*
X118016263Y-39453841D01*
X118020797Y-39497224D01*
X118030711Y-39515913D01*
X118044106Y-39521179D01*
X118086823Y-39513547D01*
X118138488Y-39487456D01*
X118202501Y-39435817D01*
X118282243Y-39349061D01*
X118350205Y-39256286D01*
X118393295Y-39176765D01*
X118416520Y-39108115D01*
X118423660Y-39047983D01*
X118418676Y-39009840D01*
X118405195Y-38982697D01*
X118384867Y-38964058D01*
X118363796Y-38958443D01*
X118328310Y-38965940D01*
X118283283Y-38992496D01*
X118224730Y-39047153D01*
X118148593Y-39142065D01*
X118084856Y-39240557D01*
X118044502Y-39323601D01*
X118022859Y-39393852D01*
X118016263Y-39453841D01*
X117819437Y-39453841D01*
X117822973Y-39410800D01*
X117843877Y-39324646D01*
X117880447Y-39233259D01*
X117934816Y-39135508D01*
X118009668Y-39030324D01*
X118096271Y-38932950D01*
X118177446Y-38864116D01*
X118254181Y-38818804D01*
X118327797Y-38793203D01*
X118399919Y-38784933D01*
X118446469Y-38791343D01*
G37*
G36*
X119402805Y-39460216D02*
G01*
X119481022Y-39466460D01*
X119532456Y-39482302D01*
X119564813Y-39504879D01*
X119583304Y-39533744D01*
X119589724Y-39571004D01*
X119583986Y-39612115D01*
X119566510Y-39651387D01*
X119535648Y-39690000D01*
X119480694Y-39665673D01*
X119435228Y-39648987D01*
X119376416Y-39637848D01*
X119301175Y-39633726D01*
X119224474Y-39638776D01*
X119083555Y-39658785D01*
X118983060Y-39681103D01*
X118916861Y-39706426D01*
X118875753Y-39733157D01*
X118842759Y-39756378D01*
X118808092Y-39769889D01*
X118770826Y-39774410D01*
X118725896Y-39768264D01*
X118688834Y-39750596D01*
X118662199Y-39723236D01*
X118652784Y-39691465D01*
X118759323Y-39578112D01*
X119235304Y-39085719D01*
X119305279Y-39003946D01*
X119221674Y-39009002D01*
X119087794Y-39020927D01*
X119006912Y-39024096D01*
X118918814Y-39018001D01*
X118862254Y-39002773D01*
X118827920Y-38981687D01*
X118809108Y-38955764D01*
X118802773Y-38923419D01*
X118809290Y-38885249D01*
X118827157Y-38859493D01*
X118857568Y-38842934D01*
X118906088Y-38836517D01*
X118925725Y-38841500D01*
X118987936Y-38862231D01*
X119057690Y-38869344D01*
X119191340Y-38862732D01*
X119364263Y-38840327D01*
X119442152Y-38831828D01*
X119487302Y-38837820D01*
X119521214Y-38854396D01*
X119544405Y-38880509D01*
X119551988Y-38913014D01*
X119541407Y-38945024D01*
X119491392Y-39018747D01*
X119492198Y-39019406D01*
X119460679Y-39061594D01*
X119341382Y-39193891D01*
X119046259Y-39500516D01*
X119024131Y-39524256D01*
X119036441Y-39520886D01*
X119061866Y-39514951D01*
X119093813Y-39507404D01*
X119125760Y-39499783D01*
X119164302Y-39491357D01*
X119307600Y-39466767D01*
X119396284Y-39460216D01*
X119402805Y-39460216D01*
G37*
G36*
X120481528Y-38703087D02*
G01*
X120470903Y-38684256D01*
X120449748Y-38645004D01*
X120444672Y-38623586D01*
X120448845Y-38599281D01*
X120461636Y-38576769D01*
X120484825Y-38555150D01*
X120525124Y-38532564D01*
X120557805Y-38526060D01*
X120595540Y-38528478D01*
X120623384Y-38531775D01*
X120847583Y-38501608D01*
X120962784Y-38494187D01*
X121054571Y-38500271D01*
X121131810Y-38517346D01*
X121196873Y-38544161D01*
X121251699Y-38580209D01*
X121299260Y-38627055D01*
X121331874Y-38677350D01*
X121351271Y-38732001D01*
X121357871Y-38792480D01*
X121351767Y-38850078D01*
X121333217Y-38906779D01*
X121301092Y-38963656D01*
X121253311Y-39021531D01*
X121178869Y-39087121D01*
X121086497Y-39146470D01*
X120973408Y-39199218D01*
X121250369Y-39416334D01*
X121416050Y-39528433D01*
X121446809Y-39553008D01*
X121463739Y-39579926D01*
X121469319Y-39610425D01*
X121461012Y-39641357D01*
X121432023Y-39676004D01*
X121393927Y-39701442D01*
X121361901Y-39708757D01*
X121314236Y-39699536D01*
X121253750Y-39667212D01*
X121082365Y-39536200D01*
X120954504Y-39429368D01*
X120808270Y-39309871D01*
X120729923Y-39253879D01*
X120690084Y-39248079D01*
X120664434Y-39232787D01*
X120648844Y-39208198D01*
X120643021Y-39170715D01*
X120647066Y-39146683D01*
X120659385Y-39124679D01*
X120681563Y-39103817D01*
X120722596Y-39082767D01*
X120769270Y-39075680D01*
X120799605Y-39079783D01*
X120821734Y-39084692D01*
X120856281Y-39078437D01*
X120916804Y-39053375D01*
X121015980Y-38997644D01*
X121083019Y-38947967D01*
X121125999Y-38898578D01*
X121150010Y-38848697D01*
X121157836Y-38796657D01*
X121151661Y-38761602D01*
X121132761Y-38729490D01*
X121098412Y-38698984D01*
X121056968Y-38677084D01*
X121007198Y-38663250D01*
X120947177Y-38658318D01*
X120843394Y-38662007D01*
X120771322Y-38671434D01*
X120698342Y-38689825D01*
X120683541Y-38715544D01*
X120673975Y-38750776D01*
X120647491Y-38883339D01*
X120597079Y-39206692D01*
X120578871Y-39371262D01*
X120574145Y-39466004D01*
X120576307Y-39517691D01*
X120582351Y-39561552D01*
X120589752Y-39635045D01*
X120582175Y-39663405D01*
X120554874Y-39698279D01*
X120517689Y-39724096D01*
X120479110Y-39732205D01*
X120438928Y-39726197D01*
X120408872Y-39709406D01*
X120386348Y-39681294D01*
X120371077Y-39638369D01*
X120365170Y-39574888D01*
X120371243Y-39434476D01*
X120393454Y-39216877D01*
X120425422Y-38993766D01*
X120460279Y-38812044D01*
X120470097Y-38762072D01*
X120481528Y-38703087D01*
G37*
G36*
X122109293Y-38805758D02*
G01*
X122168701Y-38825274D01*
X122221362Y-38857384D01*
X122268433Y-38903196D01*
X122306324Y-38957564D01*
X122333275Y-39016422D01*
X122349695Y-39080680D01*
X122355334Y-39151517D01*
X122351843Y-39213585D01*
X122341413Y-39274249D01*
X122341413Y-39275055D01*
X122307639Y-39367933D01*
X122261912Y-39452459D01*
X122203892Y-39529603D01*
X122132732Y-39600020D01*
X122051141Y-39660909D01*
X121973593Y-39701517D01*
X121898928Y-39724686D01*
X121825792Y-39732205D01*
X121766951Y-39726452D01*
X121714863Y-39709763D01*
X121668112Y-39682219D01*
X121625757Y-39642885D01*
X121591586Y-39596077D01*
X121567183Y-39544548D01*
X121552229Y-39487378D01*
X121547062Y-39423360D01*
X121548861Y-39401671D01*
X121747903Y-39401671D01*
X121754627Y-39466042D01*
X121772889Y-39514291D01*
X121792361Y-39539949D01*
X121814021Y-39554041D01*
X121838907Y-39558695D01*
X121885901Y-39552354D01*
X121935829Y-39532231D01*
X121990222Y-39495479D01*
X122050373Y-39437868D01*
X122099420Y-39374017D01*
X122133326Y-39308154D01*
X122153443Y-39239391D01*
X122160209Y-39166538D01*
X122155857Y-39111042D01*
X122143689Y-39065180D01*
X122124525Y-39027173D01*
X122097241Y-38996490D01*
X122064658Y-38978658D01*
X122024947Y-38972512D01*
X121986031Y-38977128D01*
X121950006Y-38990884D01*
X121915917Y-39014424D01*
X121915111Y-39014424D01*
X121880307Y-39051229D01*
X121842933Y-39104179D01*
X121802784Y-39177236D01*
X121771847Y-39253246D01*
X121753823Y-39327776D01*
X121747903Y-39401671D01*
X121548861Y-39401671D01*
X121555619Y-39320220D01*
X121581615Y-39216905D01*
X121626195Y-39112165D01*
X121691336Y-39004898D01*
X121755385Y-38926734D01*
X121821640Y-38869487D01*
X121890610Y-38830149D01*
X121963344Y-38806854D01*
X122041360Y-38799002D01*
X122109293Y-38805758D01*
G37*
G36*
X122898946Y-39478387D02*
G01*
X122888049Y-39453970D01*
X122848559Y-39419648D01*
X122757896Y-39370457D01*
X122645559Y-39311242D01*
X122578241Y-39265763D01*
X122542327Y-39231165D01*
X122515971Y-39190277D01*
X122500668Y-39148199D01*
X122495579Y-39103963D01*
X122501522Y-39050009D01*
X122519365Y-38998680D01*
X122549988Y-38948847D01*
X122595344Y-38899745D01*
X122658318Y-38851025D01*
X122743752Y-38800873D01*
X122822049Y-38767554D01*
X122894404Y-38748738D01*
X122962034Y-38742728D01*
X123016086Y-38748462D01*
X123053586Y-38763564D01*
X123079042Y-38786561D01*
X123094814Y-38818408D01*
X123100593Y-38862236D01*
X123093200Y-38891411D01*
X123069012Y-38919169D01*
X123037691Y-38939044D01*
X123015303Y-38944375D01*
X122983356Y-38932651D01*
X122948112Y-38920928D01*
X122900557Y-38925837D01*
X122847452Y-38941562D01*
X122787424Y-38970167D01*
X122735256Y-39008127D01*
X122708180Y-39045854D01*
X122699717Y-39085059D01*
X122706897Y-39115337D01*
X122730858Y-39147048D01*
X122771165Y-39176529D01*
X122857913Y-39222079D01*
X122951821Y-39271266D01*
X123010892Y-39311095D01*
X123044759Y-39343199D01*
X123070163Y-39381073D01*
X123084955Y-39420558D01*
X123089895Y-39462634D01*
X123084234Y-39505908D01*
X123067169Y-39546556D01*
X123037417Y-39585769D01*
X122992296Y-39624187D01*
X122927962Y-39661863D01*
X122846031Y-39696222D01*
X122758648Y-39721103D01*
X122665069Y-39736361D01*
X122564455Y-39741584D01*
X122504530Y-39736027D01*
X122464036Y-39721667D01*
X122437540Y-39700505D01*
X122421731Y-39672292D01*
X122416078Y-39634605D01*
X122423733Y-39598598D01*
X122447219Y-39567707D01*
X122480563Y-39546739D01*
X122516901Y-39539937D01*
X122565261Y-39551221D01*
X122597729Y-39560519D01*
X122625931Y-39563384D01*
X122703528Y-39557464D01*
X122787424Y-39538911D01*
X122842663Y-39518914D01*
X122878015Y-39498604D01*
X122898946Y-39478387D01*
G37*
G36*
X123817077Y-38791343D02*
G01*
X123853014Y-38809321D01*
X123880973Y-38839065D01*
X123901685Y-38883412D01*
X123946684Y-38888963D01*
X123974363Y-38903081D01*
X123990229Y-38924528D01*
X123995914Y-38955659D01*
X123992421Y-38996794D01*
X123977889Y-39080369D01*
X123952244Y-39241564D01*
X123945136Y-39350380D01*
X123949521Y-39447662D01*
X123959424Y-39498171D01*
X123980307Y-39553932D01*
X123991182Y-39565795D01*
X124019727Y-39581849D01*
X124044894Y-39601333D01*
X124052480Y-39625300D01*
X124048023Y-39650976D01*
X124034538Y-39673845D01*
X124010275Y-39694909D01*
X123966604Y-39716014D01*
X123922128Y-39722826D01*
X123880163Y-39716049D01*
X123846486Y-39696438D01*
X123818940Y-39662391D01*
X123797554Y-39609135D01*
X123784495Y-39529510D01*
X123783642Y-39414567D01*
X123701507Y-39513324D01*
X123625638Y-39586754D01*
X123555269Y-39639007D01*
X123489481Y-39673556D01*
X123427188Y-39693091D01*
X123367159Y-39699378D01*
X123320476Y-39692980D01*
X123278620Y-39673985D01*
X123240104Y-39641200D01*
X123210930Y-39599673D01*
X123193089Y-39550906D01*
X123186835Y-39492896D01*
X123190044Y-39453841D01*
X123386870Y-39453841D01*
X123391404Y-39497224D01*
X123401318Y-39515913D01*
X123414713Y-39521179D01*
X123457430Y-39513547D01*
X123509095Y-39487456D01*
X123573108Y-39435817D01*
X123652850Y-39349061D01*
X123720812Y-39256286D01*
X123763902Y-39176765D01*
X123787127Y-39108115D01*
X123794267Y-39047983D01*
X123789283Y-39009840D01*
X123775802Y-38982697D01*
X123755474Y-38964058D01*
X123734403Y-38958443D01*
X123698917Y-38965940D01*
X123653891Y-38992496D01*
X123595338Y-39047153D01*
X123519200Y-39142065D01*
X123455463Y-39240557D01*
X123415109Y-39323601D01*
X123393466Y-39393852D01*
X123386870Y-39453841D01*
X123190044Y-39453841D01*
X123193580Y-39410800D01*
X123214484Y-39324646D01*
X123251054Y-39233259D01*
X123305423Y-39135508D01*
X123380275Y-39030324D01*
X123466878Y-38932950D01*
X123548053Y-38864116D01*
X123624788Y-38818804D01*
X123698404Y-38793203D01*
X123770526Y-38784933D01*
X123817077Y-38791343D01*
G37*
G36*
X124504574Y-38301919D02*
G01*
X124544111Y-38308269D01*
X124570305Y-38325412D01*
X124586787Y-38353954D01*
X124593087Y-38398712D01*
X124590146Y-38443717D01*
X124580778Y-38494333D01*
X124513586Y-38748224D01*
X124478783Y-38898851D01*
X124452477Y-39068572D01*
X124436093Y-39232721D01*
X124431594Y-39339682D01*
X124435178Y-39448599D01*
X124447201Y-39587491D01*
X124451304Y-39635851D01*
X124447277Y-39667173D01*
X124435412Y-39695012D01*
X124415181Y-39720334D01*
X124376622Y-39747204D01*
X124336486Y-39755652D01*
X124301269Y-39749448D01*
X124274635Y-39731688D01*
X124254494Y-39700697D01*
X124237998Y-39635727D01*
X124230753Y-39512020D01*
X124237454Y-39320578D01*
X124259144Y-39095838D01*
X124298384Y-38833586D01*
X124350532Y-38563400D01*
X124385987Y-38427745D01*
X124409026Y-38372480D01*
X124441705Y-38330392D01*
X124473067Y-38308647D01*
X124504574Y-38301919D01*
G37*
G36*
X125218278Y-38777712D02*
G01*
X125266688Y-38797179D01*
X125307131Y-38829117D01*
X125338254Y-38870625D01*
X125356634Y-38916313D01*
X125362892Y-38967676D01*
X125355066Y-39035115D01*
X125331117Y-39101986D01*
X125289173Y-39169758D01*
X125225945Y-39239518D01*
X125154597Y-39297741D01*
X125073190Y-39346915D01*
X124980543Y-39387058D01*
X124875188Y-39417791D01*
X124856618Y-39428232D01*
X124850568Y-39447466D01*
X124858748Y-39484952D01*
X124885373Y-39522864D01*
X124910641Y-39542447D01*
X124941153Y-39554453D01*
X124978429Y-39558695D01*
X125040122Y-39552618D01*
X125102702Y-39533968D01*
X125167224Y-39501455D01*
X125234589Y-39452988D01*
X125305519Y-39385771D01*
X125338033Y-39359761D01*
X125366189Y-39352358D01*
X125393549Y-39358530D01*
X125409299Y-39375662D01*
X125415355Y-39407679D01*
X125408814Y-39445881D01*
X125386735Y-39491071D01*
X125343598Y-39545893D01*
X125271887Y-39612916D01*
X125196788Y-39665725D01*
X125118505Y-39702640D01*
X125036039Y-39724734D01*
X124948094Y-39732205D01*
X124879896Y-39726279D01*
X124822017Y-39709462D01*
X124772525Y-39682453D01*
X124730034Y-39644937D01*
X124696608Y-39599368D01*
X124671873Y-39544917D01*
X124656145Y-39479832D01*
X124650533Y-39401891D01*
X124656837Y-39312575D01*
X124667093Y-39265310D01*
X124865296Y-39265310D01*
X124948616Y-39241026D01*
X125024351Y-39204019D01*
X125093614Y-39153862D01*
X125153672Y-39092433D01*
X125183639Y-39042091D01*
X125192386Y-38999403D01*
X125188468Y-38973949D01*
X125177219Y-38953607D01*
X125159879Y-38939635D01*
X125138311Y-38934996D01*
X125106150Y-38940116D01*
X125070103Y-38956914D01*
X125028550Y-38988832D01*
X124980041Y-39040729D01*
X124927749Y-39114153D01*
X124889892Y-39188780D01*
X124865296Y-39265310D01*
X124667093Y-39265310D01*
X124675694Y-39225673D01*
X124707391Y-39140351D01*
X124752696Y-39055889D01*
X124812833Y-38971706D01*
X124884521Y-38893802D01*
X124954227Y-38837643D01*
X125022603Y-38799861D01*
X125090627Y-38778041D01*
X125159560Y-38770865D01*
X125218278Y-38777712D01*
G37*
G36*
X125937718Y-39478387D02*
G01*
X125926821Y-39453970D01*
X125887330Y-39419648D01*
X125796667Y-39370457D01*
X125684330Y-39311242D01*
X125617012Y-39265763D01*
X125581099Y-39231165D01*
X125554743Y-39190277D01*
X125539439Y-39148199D01*
X125534351Y-39103963D01*
X125540293Y-39050009D01*
X125558136Y-38998680D01*
X125588760Y-38948847D01*
X125634116Y-38899745D01*
X125697090Y-38851025D01*
X125782524Y-38800873D01*
X125860821Y-38767554D01*
X125933175Y-38748738D01*
X126000806Y-38742728D01*
X126054857Y-38748462D01*
X126092358Y-38763564D01*
X126117814Y-38786561D01*
X126133586Y-38818408D01*
X126139364Y-38862236D01*
X126131971Y-38891411D01*
X126107784Y-38919169D01*
X126076463Y-38939044D01*
X126054075Y-38944375D01*
X126022128Y-38932651D01*
X125986884Y-38920928D01*
X125939329Y-38925837D01*
X125886224Y-38941562D01*
X125826196Y-38970167D01*
X125774027Y-39008127D01*
X125746952Y-39045854D01*
X125738489Y-39085059D01*
X125745669Y-39115337D01*
X125769630Y-39147048D01*
X125809937Y-39176529D01*
X125896685Y-39222079D01*
X125990593Y-39271266D01*
X126049664Y-39311095D01*
X126083531Y-39343199D01*
X126108935Y-39381073D01*
X126123727Y-39420558D01*
X126128667Y-39462634D01*
X126123006Y-39505908D01*
X126105941Y-39546556D01*
X126076189Y-39585769D01*
X126031068Y-39624187D01*
X125966734Y-39661863D01*
X125884803Y-39696222D01*
X125797420Y-39721103D01*
X125703841Y-39736361D01*
X125603227Y-39741584D01*
X125543302Y-39736027D01*
X125502808Y-39721667D01*
X125476312Y-39700505D01*
X125460503Y-39672292D01*
X125454849Y-39634605D01*
X125462504Y-39598598D01*
X125485990Y-39567707D01*
X125519335Y-39546739D01*
X125555673Y-39539937D01*
X125604033Y-39551221D01*
X125636501Y-39560519D01*
X125664703Y-39563384D01*
X125742300Y-39557464D01*
X125826196Y-39538911D01*
X125881435Y-39518914D01*
X125916787Y-39498604D01*
X125937718Y-39478387D01*
G37*
G36*
X107630129Y-41419942D02*
G01*
X107665647Y-41427133D01*
X107685188Y-41446296D01*
X107692411Y-41480539D01*
X107685122Y-41512222D01*
X107659292Y-41551462D01*
X107605687Y-41601685D01*
X107511646Y-41666139D01*
X107417762Y-41716313D01*
X107328841Y-41750354D01*
X107243938Y-41769970D01*
X107162062Y-41776341D01*
X107089278Y-41770311D01*
X107019837Y-41752359D01*
X106952785Y-41722197D01*
X106887362Y-41678889D01*
X106833398Y-41625670D01*
X106794703Y-41562111D01*
X106770555Y-41486121D01*
X106761992Y-41394590D01*
X106769217Y-41303065D01*
X106791968Y-41203312D01*
X106832365Y-41093730D01*
X106893150Y-40972685D01*
X106964102Y-40860068D01*
X107041854Y-40760193D01*
X107126467Y-40672102D01*
X107218189Y-40595036D01*
X107320238Y-40528020D01*
X107416396Y-40483142D01*
X107507996Y-40457516D01*
X107596496Y-40449224D01*
X107667029Y-40457015D01*
X107724536Y-40478995D01*
X107771912Y-40514656D01*
X107808793Y-40561487D01*
X107830261Y-40611943D01*
X107837491Y-40667650D01*
X107833016Y-40755803D01*
X107822690Y-40803864D01*
X107800585Y-40841053D01*
X107759602Y-40874646D01*
X107712497Y-40897915D01*
X107680907Y-40904101D01*
X107651896Y-40898573D01*
X107626758Y-40881826D01*
X107609814Y-40856313D01*
X107603824Y-40821669D01*
X107606736Y-40792619D01*
X107617819Y-40744953D01*
X107628016Y-40696426D01*
X107630935Y-40660836D01*
X107625653Y-40626529D01*
X107612824Y-40609600D01*
X107592393Y-40603976D01*
X107537212Y-40610522D01*
X107475908Y-40631559D01*
X107406634Y-40670159D01*
X107327585Y-40730518D01*
X107235874Y-40820087D01*
X107152154Y-40924350D01*
X107076332Y-41044712D01*
X107027402Y-41143132D01*
X106995283Y-41230104D01*
X106977439Y-41307249D01*
X106971845Y-41376125D01*
X106978221Y-41437628D01*
X106996569Y-41490689D01*
X107026727Y-41537106D01*
X107067584Y-41572744D01*
X107119950Y-41594866D01*
X107187414Y-41602831D01*
X107252912Y-41595454D01*
X107344438Y-41569199D01*
X107435702Y-41529535D01*
X107519413Y-41478194D01*
X107596110Y-41430267D01*
X107630129Y-41419942D01*
G37*
G36*
X108243862Y-40317919D02*
G01*
X108283399Y-40324269D01*
X108309593Y-40341412D01*
X108326075Y-40369954D01*
X108332376Y-40414712D01*
X108329434Y-40459717D01*
X108320066Y-40510333D01*
X108252875Y-40764224D01*
X108218072Y-40914851D01*
X108191765Y-41084572D01*
X108175382Y-41248721D01*
X108170882Y-41355682D01*
X108174467Y-41464599D01*
X108186489Y-41603491D01*
X108190593Y-41651851D01*
X108186565Y-41683173D01*
X108174701Y-41711012D01*
X108154469Y-41736334D01*
X108115910Y-41763204D01*
X108075774Y-41771652D01*
X108040557Y-41765448D01*
X108013923Y-41747688D01*
X107993782Y-41716697D01*
X107977287Y-41651727D01*
X107970041Y-41528020D01*
X107976742Y-41336578D01*
X107998432Y-41111838D01*
X108037672Y-40849586D01*
X108089821Y-40579400D01*
X108125275Y-40443745D01*
X108148314Y-40388480D01*
X108180993Y-40346392D01*
X108212355Y-40324647D01*
X108243862Y-40317919D01*
G37*
G36*
X109015960Y-40807343D02*
G01*
X109051898Y-40825321D01*
X109079856Y-40855065D01*
X109100568Y-40899412D01*
X109145568Y-40904963D01*
X109173247Y-40919081D01*
X109189113Y-40940528D01*
X109194797Y-40971659D01*
X109191305Y-41012794D01*
X109176772Y-41096369D01*
X109151128Y-41257564D01*
X109144019Y-41366380D01*
X109148404Y-41463662D01*
X109158307Y-41514171D01*
X109179190Y-41569932D01*
X109190065Y-41581795D01*
X109218611Y-41597849D01*
X109243777Y-41617333D01*
X109251364Y-41641300D01*
X109246906Y-41666976D01*
X109233421Y-41689845D01*
X109209159Y-41710909D01*
X109165487Y-41732014D01*
X109121011Y-41738826D01*
X109079046Y-41732049D01*
X109045369Y-41712438D01*
X109017823Y-41678391D01*
X108996438Y-41625135D01*
X108983379Y-41545510D01*
X108982526Y-41430567D01*
X108900390Y-41529324D01*
X108824521Y-41602754D01*
X108754152Y-41655007D01*
X108688364Y-41689556D01*
X108626072Y-41709091D01*
X108566043Y-41715378D01*
X108519360Y-41708980D01*
X108477503Y-41689985D01*
X108438988Y-41657200D01*
X108409813Y-41615673D01*
X108391972Y-41566906D01*
X108385718Y-41508896D01*
X108388927Y-41469841D01*
X108585753Y-41469841D01*
X108590288Y-41513224D01*
X108600202Y-41531913D01*
X108613597Y-41537179D01*
X108656313Y-41529547D01*
X108707978Y-41503456D01*
X108771991Y-41451817D01*
X108851734Y-41365061D01*
X108919695Y-41272286D01*
X108962785Y-41192765D01*
X108986010Y-41124115D01*
X108993150Y-41063983D01*
X108988167Y-41025840D01*
X108974685Y-40998697D01*
X108954358Y-40980058D01*
X108933286Y-40974443D01*
X108897800Y-40981940D01*
X108852774Y-41008496D01*
X108794221Y-41063153D01*
X108718084Y-41158065D01*
X108654346Y-41256557D01*
X108613993Y-41339601D01*
X108592349Y-41409852D01*
X108585753Y-41469841D01*
X108388927Y-41469841D01*
X108392464Y-41426800D01*
X108413368Y-41340646D01*
X108449938Y-41249259D01*
X108504306Y-41151508D01*
X108579159Y-41046324D01*
X108665762Y-40948950D01*
X108746937Y-40880116D01*
X108823671Y-40834804D01*
X108897287Y-40809203D01*
X108969410Y-40800933D01*
X109015960Y-40807343D01*
G37*
G36*
X109789553Y-41494387D02*
G01*
X109778656Y-41469970D01*
X109739166Y-41435648D01*
X109648503Y-41386457D01*
X109536166Y-41327242D01*
X109468848Y-41281763D01*
X109432934Y-41247165D01*
X109406578Y-41206277D01*
X109391275Y-41164199D01*
X109386186Y-41119963D01*
X109392129Y-41066009D01*
X109409972Y-41014680D01*
X109440595Y-40964847D01*
X109485951Y-40915745D01*
X109548925Y-40867025D01*
X109634359Y-40816873D01*
X109712656Y-40783554D01*
X109785011Y-40764738D01*
X109852641Y-40758728D01*
X109906693Y-40764462D01*
X109944193Y-40779564D01*
X109969649Y-40802561D01*
X109985421Y-40834408D01*
X109991200Y-40878236D01*
X109983807Y-40907411D01*
X109959619Y-40935169D01*
X109928298Y-40955044D01*
X109905910Y-40960375D01*
X109873963Y-40948651D01*
X109838719Y-40936928D01*
X109791164Y-40941837D01*
X109738059Y-40957562D01*
X109678032Y-40986167D01*
X109625863Y-41024127D01*
X109598787Y-41061854D01*
X109590324Y-41101059D01*
X109597504Y-41131337D01*
X109621465Y-41163048D01*
X109661772Y-41192529D01*
X109748520Y-41238079D01*
X109842428Y-41287266D01*
X109901500Y-41327095D01*
X109935366Y-41359199D01*
X109960770Y-41397073D01*
X109975562Y-41436558D01*
X109980502Y-41478634D01*
X109974842Y-41521908D01*
X109957776Y-41562556D01*
X109928024Y-41601769D01*
X109882903Y-41640187D01*
X109818569Y-41677863D01*
X109736638Y-41712222D01*
X109649255Y-41737103D01*
X109555677Y-41752361D01*
X109455062Y-41757584D01*
X109395137Y-41752027D01*
X109354643Y-41737667D01*
X109328148Y-41716505D01*
X109312338Y-41688292D01*
X109306685Y-41650605D01*
X109314340Y-41614598D01*
X109337826Y-41583707D01*
X109371170Y-41562739D01*
X109407508Y-41555937D01*
X109455868Y-41567221D01*
X109488336Y-41576519D01*
X109516538Y-41579384D01*
X109594135Y-41573464D01*
X109678032Y-41554911D01*
X109733270Y-41534914D01*
X109768622Y-41514604D01*
X109789553Y-41494387D01*
G37*
G36*
X110498834Y-41494387D02*
G01*
X110487938Y-41469970D01*
X110448447Y-41435648D01*
X110357784Y-41386457D01*
X110245447Y-41327242D01*
X110178129Y-41281763D01*
X110142215Y-41247165D01*
X110115860Y-41206277D01*
X110100556Y-41164199D01*
X110095467Y-41119963D01*
X110101410Y-41066009D01*
X110119253Y-41014680D01*
X110149876Y-40964847D01*
X110195232Y-40915745D01*
X110258206Y-40867025D01*
X110343641Y-40816873D01*
X110421938Y-40783554D01*
X110494292Y-40764738D01*
X110561922Y-40758728D01*
X110615974Y-40764462D01*
X110653475Y-40779564D01*
X110678930Y-40802561D01*
X110694702Y-40834408D01*
X110700481Y-40878236D01*
X110693088Y-40907411D01*
X110668900Y-40935169D01*
X110637580Y-40955044D01*
X110615191Y-40960375D01*
X110583244Y-40948651D01*
X110548000Y-40936928D01*
X110500445Y-40941837D01*
X110447340Y-40957562D01*
X110387313Y-40986167D01*
X110335144Y-41024127D01*
X110308069Y-41061854D01*
X110299605Y-41101059D01*
X110306786Y-41131337D01*
X110330746Y-41163048D01*
X110371053Y-41192529D01*
X110457801Y-41238079D01*
X110551710Y-41287266D01*
X110610781Y-41327095D01*
X110644647Y-41359199D01*
X110670052Y-41397073D01*
X110684843Y-41436558D01*
X110689783Y-41478634D01*
X110684123Y-41521908D01*
X110667058Y-41562556D01*
X110637306Y-41601769D01*
X110592184Y-41640187D01*
X110527850Y-41677863D01*
X110445920Y-41712222D01*
X110358536Y-41737103D01*
X110264958Y-41752361D01*
X110164344Y-41757584D01*
X110104418Y-41752027D01*
X110063924Y-41737667D01*
X110037429Y-41716505D01*
X110021619Y-41688292D01*
X110015966Y-41650605D01*
X110023621Y-41614598D01*
X110047107Y-41583707D01*
X110080451Y-41562739D01*
X110116789Y-41555937D01*
X110165150Y-41567221D01*
X110197618Y-41576519D01*
X110225819Y-41579384D01*
X110303416Y-41573464D01*
X110387313Y-41554911D01*
X110442552Y-41534914D01*
X110477904Y-41514604D01*
X110498834Y-41494387D01*
G37*
G36*
X112281785Y-40518915D02*
G01*
X112379591Y-40543772D01*
X112464493Y-40583616D01*
X112538531Y-40638487D01*
X112589124Y-40692700D01*
X112628190Y-40752772D01*
X112656429Y-40819523D01*
X112673885Y-40894140D01*
X112679947Y-40978107D01*
X112671703Y-41068169D01*
X112647027Y-41154651D01*
X112605183Y-41238922D01*
X112544382Y-41322041D01*
X112461887Y-41404702D01*
X112348720Y-41491338D01*
X112223886Y-41563515D01*
X112086145Y-41621455D01*
X111933956Y-41664893D01*
X111818332Y-41696034D01*
X111739710Y-41737800D01*
X111682787Y-41767254D01*
X111629874Y-41776341D01*
X111603762Y-41772160D01*
X111579172Y-41759352D01*
X111555209Y-41736334D01*
X111529146Y-41696885D01*
X111522456Y-41670975D01*
X111525930Y-41652436D01*
X111539675Y-41621150D01*
X111558506Y-41572203D01*
X111565693Y-41524176D01*
X111569253Y-41473578D01*
X111767554Y-41473578D01*
X111772463Y-41532489D01*
X111834281Y-41522016D01*
X112021224Y-41468742D01*
X112122138Y-41431203D01*
X112210461Y-41385861D01*
X112287542Y-41332981D01*
X112354469Y-41272517D01*
X112411605Y-41202184D01*
X112451040Y-41129168D01*
X112474444Y-41052420D01*
X112482330Y-40970487D01*
X112476059Y-40904310D01*
X112458103Y-40847384D01*
X112428883Y-40797876D01*
X112387662Y-40754551D01*
X112338448Y-40720439D01*
X112281701Y-40695482D01*
X112216036Y-40679830D01*
X112139706Y-40674318D01*
X112029920Y-40679801D01*
X111887208Y-40698424D01*
X111856873Y-40702454D01*
X111801666Y-41072901D01*
X111774796Y-41319447D01*
X111767554Y-41473578D01*
X111569253Y-41473578D01*
X111572428Y-41428442D01*
X111599008Y-41141617D01*
X111642916Y-40833979D01*
X111653278Y-40772282D01*
X111656032Y-40734328D01*
X111652674Y-40722405D01*
X111642916Y-40716376D01*
X111590291Y-40695225D01*
X111564183Y-40669745D01*
X111556015Y-40639220D01*
X111564388Y-40601701D01*
X111591625Y-40564189D01*
X111629538Y-40537256D01*
X111667536Y-40528944D01*
X111778178Y-40532242D01*
X111985614Y-40520005D01*
X112168429Y-40510187D01*
X112281785Y-40518915D01*
G37*
G36*
X114304406Y-41040829D02*
G01*
X114403419Y-41083893D01*
X114466454Y-41127110D01*
X114503196Y-41170155D01*
X114529167Y-41221810D01*
X114543931Y-41270904D01*
X114548698Y-41318313D01*
X114542085Y-41375316D01*
X114521433Y-41434657D01*
X114484556Y-41497722D01*
X114428128Y-41565694D01*
X114347857Y-41639541D01*
X114263222Y-41701170D01*
X114179436Y-41747264D01*
X114095898Y-41779278D01*
X114011878Y-41798192D01*
X113926538Y-41804478D01*
X113865402Y-41798183D01*
X113829489Y-41782710D01*
X113810172Y-41760548D01*
X113803586Y-41730106D01*
X113810088Y-41686996D01*
X113828290Y-41654682D01*
X113858844Y-41630405D01*
X113905613Y-41613909D01*
X113974898Y-41607521D01*
X114015052Y-41607521D01*
X114066281Y-41599361D01*
X114132129Y-41570979D01*
X114217505Y-41514464D01*
X114275864Y-41462584D01*
X114312912Y-41414541D01*
X114333208Y-41369285D01*
X114339651Y-41325347D01*
X114334307Y-41288678D01*
X114318132Y-41254498D01*
X114289605Y-41221666D01*
X114253828Y-41196986D01*
X114210033Y-41181585D01*
X114156029Y-41176090D01*
X114091256Y-41201882D01*
X114035405Y-41222552D01*
X114004354Y-41227674D01*
X113934642Y-41221705D01*
X113903970Y-41208843D01*
X113887524Y-41183633D01*
X113880596Y-41132566D01*
X113890656Y-41111194D01*
X113935212Y-41077574D01*
X114047805Y-41024415D01*
X114108557Y-40994894D01*
X114171774Y-40952574D01*
X114238021Y-40895528D01*
X114296568Y-40830273D01*
X114325080Y-40780340D01*
X114333129Y-40741289D01*
X114326387Y-40707181D01*
X114307139Y-40683080D01*
X114272555Y-40666769D01*
X114215087Y-40660249D01*
X114105306Y-40666402D01*
X113997833Y-40684796D01*
X113927528Y-40706381D01*
X113893011Y-40726654D01*
X113879790Y-40745319D01*
X113865835Y-40815237D01*
X113819120Y-41119890D01*
X113777516Y-41425740D01*
X113769954Y-41510801D01*
X113761748Y-41621223D01*
X113753064Y-41676076D01*
X113739651Y-41709666D01*
X113723206Y-41728714D01*
X113689097Y-41746813D01*
X113650226Y-41752894D01*
X113610829Y-41747310D01*
X113581727Y-41731865D01*
X113560262Y-41706412D01*
X113545902Y-41668135D01*
X113540390Y-41612137D01*
X113554312Y-41533222D01*
X113587445Y-41371001D01*
X113624361Y-41123187D01*
X113658433Y-40839988D01*
X113653053Y-40806752D01*
X113642020Y-40799321D01*
X113619891Y-40800933D01*
X113596902Y-40798432D01*
X113576514Y-40785766D01*
X113560237Y-40767595D01*
X113551894Y-40752427D01*
X113546179Y-40723704D01*
X113551832Y-40698286D01*
X113570690Y-40671237D01*
X113608211Y-40641068D01*
X113672575Y-40607109D01*
X113774057Y-40569244D01*
X113927476Y-40528836D01*
X114086726Y-40504380D01*
X114252749Y-40496118D01*
X114339319Y-40504566D01*
X114410529Y-40528337D01*
X114469563Y-40566460D01*
X114517117Y-40617686D01*
X114543944Y-40671364D01*
X114552801Y-40729419D01*
X114547363Y-40772238D01*
X114530289Y-40816978D01*
X114499532Y-40864827D01*
X114432841Y-40935200D01*
X114304406Y-41040829D01*
G37*
G36*
X115371919Y-40731983D02*
G01*
X115365934Y-40741838D01*
X115358803Y-40768913D01*
X115325610Y-41051013D01*
X115304153Y-41290306D01*
X115298133Y-41453648D01*
X115301594Y-41517570D01*
X115312861Y-41593086D01*
X115316964Y-41619318D01*
X115310480Y-41661394D01*
X115291099Y-41698892D01*
X115261345Y-41725522D01*
X115225153Y-41734136D01*
X115197245Y-41728495D01*
X115156716Y-41707465D01*
X115133671Y-41686638D01*
X115117054Y-41657307D01*
X115107184Y-41616973D01*
X115101274Y-41548253D01*
X115098977Y-41450717D01*
X115105849Y-41293674D01*
X115131730Y-41033721D01*
X115164181Y-40782716D01*
X115171078Y-40751108D01*
X114987456Y-40763418D01*
X114799731Y-40775654D01*
X114722370Y-40769069D01*
X114682494Y-40753965D01*
X114664617Y-40737117D01*
X114653682Y-40714878D01*
X114649741Y-40685455D01*
X114653704Y-40659463D01*
X114665099Y-40638568D01*
X114684546Y-40621488D01*
X114710412Y-40611313D01*
X114764033Y-40602916D01*
X114861207Y-40599286D01*
X115095863Y-40591464D01*
X115324364Y-40568219D01*
X115565098Y-40537199D01*
X115712124Y-40528944D01*
X115812280Y-40534578D01*
X115866222Y-40547545D01*
X115891570Y-40563602D01*
X115916244Y-40599542D01*
X115923590Y-40632406D01*
X115918516Y-40669138D01*
X115905298Y-40692439D01*
X115884428Y-40706341D01*
X115853101Y-40711467D01*
X115779316Y-40706558D01*
X115658855Y-40702454D01*
X115518270Y-40706819D01*
X115427141Y-40717639D01*
X115371919Y-40731983D01*
G37*
G36*
X116666210Y-41668117D02*
G01*
X116598213Y-41663208D01*
X116526845Y-41659105D01*
X116378684Y-41666492D01*
X116234116Y-41688518D01*
X116092411Y-41725197D01*
X116011164Y-41747459D01*
X115968653Y-41752894D01*
X115937369Y-41748384D01*
X115911889Y-41735421D01*
X115890764Y-41713473D01*
X115869368Y-41673537D01*
X115862920Y-41638076D01*
X115877648Y-41562605D01*
X115894231Y-41484357D01*
X115907983Y-41390340D01*
X115981769Y-40710368D01*
X115997742Y-40584852D01*
X116009635Y-40558293D01*
X116033353Y-40533194D01*
X116065739Y-40516381D01*
X116111315Y-40510187D01*
X116147925Y-40517474D01*
X116180118Y-40539789D01*
X116202629Y-40571420D01*
X116209647Y-40603903D01*
X116194919Y-40715717D01*
X116172948Y-40857111D01*
X116135055Y-41157919D01*
X116096514Y-41503986D01*
X116099313Y-41523680D01*
X116104720Y-41527800D01*
X116148684Y-41523438D01*
X116276032Y-41501935D01*
X116408803Y-41485595D01*
X116586186Y-41474709D01*
X116677714Y-41462294D01*
X116713764Y-41457458D01*
X116754856Y-41464448D01*
X116784253Y-41483983D01*
X116803320Y-41513068D01*
X116809678Y-41547290D01*
X116804732Y-41581562D01*
X116790350Y-41610351D01*
X116765788Y-41635071D01*
X116719084Y-41659823D01*
X116666210Y-41668117D01*
G37*
G36*
X118236963Y-40510126D02*
G01*
X118269514Y-40522506D01*
X118292794Y-40541547D01*
X118303527Y-40558047D01*
X118308328Y-40596429D01*
X118302613Y-40648086D01*
X118448055Y-41070594D01*
X118537452Y-41295085D01*
X118599592Y-41419899D01*
X118656164Y-41509069D01*
X118707592Y-41570005D01*
X118759616Y-41627378D01*
X118766490Y-41643710D01*
X118769068Y-41666725D01*
X118760856Y-41708210D01*
X118736242Y-41742489D01*
X118700425Y-41765565D01*
X118658426Y-41773264D01*
X118619635Y-41766356D01*
X118578028Y-41743896D01*
X118531737Y-41701163D01*
X118492239Y-41650774D01*
X118451767Y-41585542D01*
X118410397Y-41502814D01*
X118361470Y-41388283D01*
X118353464Y-41361031D01*
X118349361Y-41357734D01*
X118292173Y-41363350D01*
X118152184Y-41388875D01*
X118007258Y-41421388D01*
X117906720Y-41449545D01*
X117864881Y-41456945D01*
X117835522Y-41452906D01*
X117815715Y-41442144D01*
X117793653Y-41486050D01*
X117730059Y-41594185D01*
X117660367Y-41697077D01*
X117630408Y-41725270D01*
X117602995Y-41735760D01*
X117581242Y-41738826D01*
X117551469Y-41731933D01*
X117510314Y-41706439D01*
X117478103Y-41671628D01*
X117468914Y-41639688D01*
X117477949Y-41613953D01*
X117529386Y-41522417D01*
X117674665Y-41294646D01*
X117700051Y-41254346D01*
X117926357Y-41254346D01*
X118032090Y-41237933D01*
X118215711Y-41203494D01*
X118287885Y-41190378D01*
X118171454Y-40846069D01*
X118159145Y-40811631D01*
X117926357Y-41254346D01*
X117700051Y-41254346D01*
X117782928Y-41122783D01*
X117879609Y-40955392D01*
X118050824Y-40650544D01*
X118107121Y-40560818D01*
X118137551Y-40527857D01*
X118165392Y-40510748D01*
X118191971Y-40505497D01*
X118236963Y-40510126D01*
G37*
G36*
X119096085Y-41659105D02*
G01*
X119085940Y-41697275D01*
X119067556Y-41722451D01*
X119040562Y-41737844D01*
X119001782Y-41743515D01*
X118964332Y-41737727D01*
X118936095Y-41721442D01*
X118914724Y-41693901D01*
X118900114Y-41651449D01*
X118894438Y-41588250D01*
X118901795Y-41345881D01*
X118921475Y-41158651D01*
X118937529Y-41020238D01*
X118942798Y-40885856D01*
X118948001Y-40856160D01*
X118963241Y-40832074D01*
X118987069Y-40816058D01*
X119020687Y-40810312D01*
X119065325Y-40816397D01*
X119098004Y-40833104D01*
X119121833Y-40860327D01*
X119137616Y-40900812D01*
X119143639Y-40959569D01*
X119136155Y-41025554D01*
X119100188Y-41206352D01*
X119079246Y-41316817D01*
X119073956Y-41377737D01*
X119172113Y-41180699D01*
X119256794Y-41043810D01*
X119329623Y-40953734D01*
X119392396Y-40899045D01*
X119447266Y-40870555D01*
X119496887Y-40861896D01*
X119544753Y-40868751D01*
X119584959Y-40888670D01*
X119619473Y-40922639D01*
X119641597Y-40967329D01*
X119659200Y-41050654D01*
X119667393Y-41191917D01*
X119672233Y-41329819D01*
X119680268Y-41374811D01*
X119687103Y-41382427D01*
X119705790Y-41360698D01*
X119789539Y-41197706D01*
X119860106Y-41061449D01*
X119914643Y-40976179D01*
X119956308Y-40927622D01*
X120005413Y-40889826D01*
X120053473Y-40868719D01*
X120101901Y-40861896D01*
X120145249Y-40867037D01*
X120180613Y-40881604D01*
X120209830Y-40905481D01*
X120233792Y-40940078D01*
X120255541Y-40994500D01*
X120275347Y-41079087D01*
X120291238Y-41203934D01*
X120307032Y-41342006D01*
X120324431Y-41426537D01*
X120343024Y-41473556D01*
X120366977Y-41505717D01*
X120396165Y-41526334D01*
X120419630Y-41542350D01*
X120432704Y-41561658D01*
X120437124Y-41585392D01*
X120432774Y-41606937D01*
X120418402Y-41630177D01*
X120390376Y-41656321D01*
X120342104Y-41683464D01*
X120295341Y-41691931D01*
X120256097Y-41686869D01*
X120221991Y-41672082D01*
X120191694Y-41647024D01*
X120164623Y-41609719D01*
X120140756Y-41551018D01*
X120118524Y-41447409D01*
X120101095Y-41279478D01*
X120090498Y-41170127D01*
X120081824Y-41121209D01*
X120067422Y-41090163D01*
X120051050Y-41082301D01*
X120033562Y-41092154D01*
X119998586Y-41141212D01*
X119879738Y-41375612D01*
X119804287Y-41520309D01*
X119751437Y-41596530D01*
X119712590Y-41632913D01*
X119674681Y-41652760D01*
X119636325Y-41659105D01*
X119605997Y-41654915D01*
X119574462Y-41641725D01*
X119540778Y-41617779D01*
X119524674Y-41595305D01*
X119509008Y-41548024D01*
X119495913Y-41461500D01*
X119488754Y-41317653D01*
X119480185Y-41151766D01*
X119468746Y-41096667D01*
X119459225Y-41086990D01*
X119438816Y-41097382D01*
X119391263Y-41150067D01*
X119293628Y-41292008D01*
X119209171Y-41431279D01*
X119144195Y-41553016D01*
X119096085Y-41659105D01*
G37*
G36*
X120786949Y-40780443D02*
G01*
X120813558Y-40802529D01*
X120831816Y-40842812D01*
X120839173Y-40910476D01*
X120835102Y-40976115D01*
X120818729Y-41100986D01*
X120810523Y-41157845D01*
X120877976Y-41056918D01*
X120951965Y-40969979D01*
X121032613Y-40895822D01*
X121101663Y-40846181D01*
X121162057Y-40814342D01*
X121215337Y-40796961D01*
X121263056Y-40791554D01*
X121321485Y-40798988D01*
X121372917Y-40820789D01*
X121419200Y-40857793D01*
X121454701Y-40905288D01*
X121476105Y-40960037D01*
X121483534Y-41024196D01*
X121475518Y-41127948D01*
X121451651Y-41227368D01*
X121411625Y-41323653D01*
X121354380Y-41417789D01*
X121278150Y-41510508D01*
X121188102Y-41596184D01*
X121103555Y-41657609D01*
X121023518Y-41698553D01*
X120946792Y-41721887D01*
X120871999Y-41729447D01*
X120826078Y-41724237D01*
X120792162Y-41710096D01*
X120767247Y-41687838D01*
X120749853Y-41656321D01*
X120737080Y-41721361D01*
X120721936Y-41830270D01*
X120682588Y-42152671D01*
X120666459Y-42223991D01*
X120644487Y-42261774D01*
X120612972Y-42284608D01*
X120575244Y-42292182D01*
X120539955Y-42285534D01*
X120505122Y-42264485D01*
X120479693Y-42234317D01*
X120471929Y-42203083D01*
X120476665Y-42134044D01*
X120492445Y-42048697D01*
X120546237Y-41802638D01*
X120586527Y-41551046D01*
X120592832Y-41490138D01*
X120812135Y-41490138D01*
X120818796Y-41517047D01*
X120840418Y-41542381D01*
X120870916Y-41559530D01*
X120906437Y-41565316D01*
X120952901Y-41557519D01*
X121006376Y-41531548D01*
X121069649Y-41481404D01*
X121145307Y-41398766D01*
X121207836Y-41310409D01*
X121249253Y-41228204D01*
X121272675Y-41150822D01*
X121280202Y-41076806D01*
X121275622Y-41029208D01*
X121264595Y-41002140D01*
X121247438Y-40984221D01*
X121231036Y-40979133D01*
X121187418Y-40987528D01*
X121132581Y-41016883D01*
X121062139Y-41076299D01*
X120971577Y-41177922D01*
X120891963Y-41286851D01*
X120843794Y-41372065D01*
X120819254Y-41438365D01*
X120812135Y-41490138D01*
X120592832Y-41490138D01*
X120613191Y-41293478D01*
X120626022Y-41029471D01*
X120626022Y-41012985D01*
X120627990Y-40911497D01*
X120632177Y-40865633D01*
X120643883Y-40831421D01*
X120667421Y-40800860D01*
X120701074Y-40780329D01*
X120749780Y-40772796D01*
X120786949Y-40780443D01*
G37*
G36*
X121941782Y-40317919D02*
G01*
X121981320Y-40324269D01*
X122007513Y-40341412D01*
X122023996Y-40369954D01*
X122030296Y-40414712D01*
X122027354Y-40459717D01*
X122017986Y-40510333D01*
X121950795Y-40764224D01*
X121915992Y-40914851D01*
X121889685Y-41084572D01*
X121873302Y-41248721D01*
X121868803Y-41355682D01*
X121872387Y-41464599D01*
X121884410Y-41603491D01*
X121888513Y-41651851D01*
X121884486Y-41683173D01*
X121872621Y-41711012D01*
X121852390Y-41736334D01*
X121813830Y-41763204D01*
X121773695Y-41771652D01*
X121738478Y-41765448D01*
X121711843Y-41747688D01*
X121691702Y-41716697D01*
X121675207Y-41651727D01*
X121667962Y-41528020D01*
X121674663Y-41336578D01*
X121696353Y-41111838D01*
X121735593Y-40849586D01*
X121787741Y-40579400D01*
X121823195Y-40443745D01*
X121846235Y-40388480D01*
X121878914Y-40346392D01*
X121910275Y-40324647D01*
X121941782Y-40317919D01*
G37*
G36*
X122573028Y-40487179D02*
G01*
X122567450Y-40523370D01*
X122550553Y-40556768D01*
X122520565Y-40588588D01*
X122468119Y-40622834D01*
X122429560Y-40632113D01*
X122398479Y-40627732D01*
X122369704Y-40614541D01*
X122342292Y-40591446D01*
X122312945Y-40549025D01*
X122304190Y-40509967D01*
X122308595Y-40472494D01*
X122321161Y-40441372D01*
X122341852Y-40415152D01*
X122369154Y-40395757D01*
X122404447Y-40383389D01*
X122450076Y-40378882D01*
X122500712Y-40387260D01*
X122539030Y-40411048D01*
X122564666Y-40446474D01*
X122573028Y-40487179D01*
G37*
G36*
X122177135Y-41161436D02*
G01*
X122177135Y-41162315D01*
X122203367Y-40991076D01*
X122210387Y-40933712D01*
X122229965Y-40889007D01*
X122250407Y-40865853D01*
X122274701Y-40852440D01*
X122304190Y-40847828D01*
X122355563Y-40854953D01*
X122391092Y-40874133D01*
X122414886Y-40902858D01*
X122422233Y-40933191D01*
X122416680Y-40974050D01*
X122391898Y-41068599D01*
X122386988Y-41086697D01*
X122349205Y-41238677D01*
X122332840Y-41345277D01*
X122323827Y-41506917D01*
X122327561Y-41560836D01*
X122341046Y-41640713D01*
X122343538Y-41665333D01*
X122336745Y-41684275D01*
X122307854Y-41716184D01*
X122270126Y-41740515D01*
X122231210Y-41748205D01*
X122193859Y-41742240D01*
X122165471Y-41725344D01*
X122143773Y-41696481D01*
X122128822Y-41651577D01*
X122122986Y-41584293D01*
X122131866Y-41438259D01*
X122162334Y-41245040D01*
X122177135Y-41161436D01*
G37*
G36*
X122825307Y-41287978D02*
G01*
X122811385Y-41434011D01*
X122804863Y-41572716D01*
X122807530Y-41636997D01*
X122816367Y-41716331D01*
X122802698Y-41742019D01*
X122775334Y-41765277D01*
X122741464Y-41780696D01*
X122706531Y-41785720D01*
X122666113Y-41780049D01*
X122636326Y-41764394D01*
X122614421Y-41738672D01*
X122599805Y-41700101D01*
X122594204Y-41643791D01*
X122600441Y-41560006D01*
X122629448Y-41343519D01*
X122648902Y-41183706D01*
X122653995Y-41089775D01*
X122644176Y-41078271D01*
X122609318Y-41051090D01*
X122592455Y-41028508D01*
X122587609Y-41008882D01*
X122593200Y-40982671D01*
X122612326Y-40952236D01*
X122650771Y-40915532D01*
X122675687Y-40889234D01*
X122688066Y-40860357D01*
X122708143Y-40761073D01*
X122736931Y-40626194D01*
X122770255Y-40523213D01*
X122806728Y-40446300D01*
X122845457Y-40390385D01*
X122895812Y-40341738D01*
X122951170Y-40307865D01*
X123012634Y-40287430D01*
X123081908Y-40280403D01*
X123135514Y-40286648D01*
X123182100Y-40304779D01*
X123223325Y-40335064D01*
X123255546Y-40374508D01*
X123274605Y-40418975D01*
X123281137Y-40470180D01*
X123273157Y-40542388D01*
X123247944Y-40620169D01*
X123220835Y-40666581D01*
X123192135Y-40690322D01*
X123160603Y-40697765D01*
X123138534Y-40693931D01*
X123120450Y-40682671D01*
X123108243Y-40665462D01*
X123104036Y-40643030D01*
X123108946Y-40571956D01*
X123103785Y-40504977D01*
X123091646Y-40468107D01*
X123075679Y-40450140D01*
X123055676Y-40444534D01*
X123028941Y-40451426D01*
X123000260Y-40475038D01*
X122967920Y-40523767D01*
X122931479Y-40610057D01*
X122897546Y-40722229D01*
X122879273Y-40815155D01*
X122873740Y-40891865D01*
X122877337Y-40900793D01*
X122889347Y-40904101D01*
X123129023Y-40902489D01*
X123170319Y-40908734D01*
X123191658Y-40926457D01*
X123199145Y-40957004D01*
X123191146Y-40987792D01*
X123165538Y-41014332D01*
X123114295Y-41037531D01*
X123027854Y-41056959D01*
X122936022Y-41063543D01*
X122854030Y-41074168D01*
X122825307Y-41287099D01*
X122825307Y-41287978D01*
G37*
G36*
X123677397Y-40487179D02*
G01*
X123671818Y-40523370D01*
X123654921Y-40556768D01*
X123624933Y-40588588D01*
X123572487Y-40622834D01*
X123533928Y-40632113D01*
X123502848Y-40627732D01*
X123474072Y-40614541D01*
X123446660Y-40591446D01*
X123417314Y-40549025D01*
X123408558Y-40509967D01*
X123412964Y-40472494D01*
X123425529Y-40441372D01*
X123446221Y-40415152D01*
X123473522Y-40395757D01*
X123508816Y-40383389D01*
X123554445Y-40378882D01*
X123605081Y-40387260D01*
X123643398Y-40411048D01*
X123669035Y-40446474D01*
X123677397Y-40487179D01*
G37*
G36*
X123281503Y-41161436D02*
G01*
X123281503Y-41162315D01*
X123307735Y-40991076D01*
X123314756Y-40933712D01*
X123334333Y-40889007D01*
X123354775Y-40865853D01*
X123379069Y-40852440D01*
X123408558Y-40847828D01*
X123459931Y-40854953D01*
X123495460Y-40874133D01*
X123519254Y-40902858D01*
X123526601Y-40933191D01*
X123521048Y-40974050D01*
X123496266Y-41068599D01*
X123491357Y-41086697D01*
X123453574Y-41238677D01*
X123437208Y-41345277D01*
X123428196Y-41506917D01*
X123431930Y-41560836D01*
X123445415Y-41640713D01*
X123447906Y-41665333D01*
X123441114Y-41684275D01*
X123412222Y-41716184D01*
X123374494Y-41740515D01*
X123335579Y-41748205D01*
X123298227Y-41742240D01*
X123269839Y-41725344D01*
X123248141Y-41696481D01*
X123233190Y-41651577D01*
X123227355Y-41584293D01*
X123236235Y-41438259D01*
X123266702Y-41245040D01*
X123281503Y-41161436D01*
G37*
G36*
X124241698Y-40793712D02*
G01*
X124290107Y-40813179D01*
X124330551Y-40845117D01*
X124361674Y-40886625D01*
X124380054Y-40932313D01*
X124386311Y-40983676D01*
X124378485Y-41051115D01*
X124354536Y-41117986D01*
X124312593Y-41185758D01*
X124249364Y-41255518D01*
X124178017Y-41313741D01*
X124096610Y-41362915D01*
X124003962Y-41403058D01*
X123898607Y-41433791D01*
X123880037Y-41444232D01*
X123873988Y-41463466D01*
X123882168Y-41500952D01*
X123908792Y-41538864D01*
X123934061Y-41558447D01*
X123964572Y-41570453D01*
X124001849Y-41574695D01*
X124063542Y-41568618D01*
X124126122Y-41549968D01*
X124190644Y-41517455D01*
X124258009Y-41468988D01*
X124328939Y-41401771D01*
X124361453Y-41375761D01*
X124389609Y-41368358D01*
X124416968Y-41374530D01*
X124432719Y-41391662D01*
X124438775Y-41423679D01*
X124432233Y-41461881D01*
X124410154Y-41507071D01*
X124367018Y-41561893D01*
X124295307Y-41628916D01*
X124220207Y-41681725D01*
X124141924Y-41718640D01*
X124059459Y-41740734D01*
X123971514Y-41748205D01*
X123903315Y-41742279D01*
X123845437Y-41725462D01*
X123795944Y-41698453D01*
X123753454Y-41660937D01*
X123720028Y-41615368D01*
X123695293Y-41560917D01*
X123679565Y-41495832D01*
X123673953Y-41417891D01*
X123680257Y-41328575D01*
X123690513Y-41281310D01*
X123888715Y-41281310D01*
X123972035Y-41257026D01*
X124047770Y-41220019D01*
X124117034Y-41169862D01*
X124177091Y-41108433D01*
X124207058Y-41058091D01*
X124215806Y-41015403D01*
X124211888Y-40989949D01*
X124200638Y-40969607D01*
X124183298Y-40955635D01*
X124161730Y-40950996D01*
X124129569Y-40956116D01*
X124093522Y-40972914D01*
X124051970Y-41004832D01*
X124003461Y-41056729D01*
X123951169Y-41130153D01*
X123913312Y-41204780D01*
X123888715Y-41281310D01*
X123690513Y-41281310D01*
X123699114Y-41241673D01*
X123730811Y-41156351D01*
X123776116Y-41071889D01*
X123836252Y-40987706D01*
X123907940Y-40909802D01*
X123977646Y-40853643D01*
X124046022Y-40815861D01*
X124114046Y-40794041D01*
X124182979Y-40786865D01*
X124241698Y-40793712D01*
G37*
G36*
X124779933Y-41299335D02*
G01*
X124793855Y-41273030D01*
X124865101Y-41142557D01*
X124936318Y-41035489D01*
X125007372Y-40948871D01*
X125069824Y-40889857D01*
X125126998Y-40851940D01*
X125180145Y-40831018D01*
X125230781Y-40824381D01*
X125284844Y-40829803D01*
X125329706Y-40845136D01*
X125367288Y-40869883D01*
X125397292Y-40903003D01*
X125414456Y-40938572D01*
X125420191Y-40977887D01*
X125415489Y-41014790D01*
X125402093Y-41044932D01*
X125380447Y-41066003D01*
X125352121Y-41072922D01*
X125319928Y-41068381D01*
X125289370Y-41054574D01*
X125259504Y-41030204D01*
X125230392Y-41007982D01*
X125212756Y-41002580D01*
X125187159Y-41009179D01*
X125148679Y-41034742D01*
X125091041Y-41091422D01*
X125007006Y-41195141D01*
X124941878Y-41294671D01*
X124891495Y-41399436D01*
X124855297Y-41510247D01*
X124833203Y-41628110D01*
X124823649Y-41673295D01*
X124809951Y-41704482D01*
X124793049Y-41725197D01*
X124757715Y-41745522D01*
X124708639Y-41752894D01*
X124675261Y-41746036D01*
X124649006Y-41725667D01*
X124628258Y-41688267D01*
X124611674Y-41613315D01*
X124604518Y-41477095D01*
X124607815Y-41314869D01*
X124626646Y-41079370D01*
X124632362Y-41022584D01*
X124641236Y-40948263D01*
X124649141Y-40911795D01*
X124663942Y-40883856D01*
X124693032Y-40855448D01*
X124729494Y-40835605D01*
X124769309Y-40829070D01*
X124809355Y-40835899D01*
X124836500Y-40854642D01*
X124853871Y-40881881D01*
X124859434Y-40910769D01*
X124852706Y-40959098D01*
X124822578Y-41071603D01*
X124800450Y-41172280D01*
X124779933Y-41299335D01*
G37*
D11*
X132455939Y-79226423D02*
X133229748Y-79226423D01*
X133229748Y-79226423D02*
X132813082Y-79702614D01*
X132813082Y-79702614D02*
X132991653Y-79702614D01*
X132991653Y-79702614D02*
X133110701Y-79762138D01*
X133110701Y-79762138D02*
X133170225Y-79821661D01*
X133170225Y-79821661D02*
X133229748Y-79940709D01*
X133229748Y-79940709D02*
X133229748Y-80238328D01*
X133229748Y-80238328D02*
X133170225Y-80357376D01*
X133170225Y-80357376D02*
X133110701Y-80416900D01*
X133110701Y-80416900D02*
X132991653Y-80476423D01*
X132991653Y-80476423D02*
X132634510Y-80476423D01*
X132634510Y-80476423D02*
X132515463Y-80416900D01*
X132515463Y-80416900D02*
X132455939Y-80357376D01*
X134301177Y-79226423D02*
X134063082Y-79226423D01*
X134063082Y-79226423D02*
X133944034Y-79285947D01*
X133944034Y-79285947D02*
X133884510Y-79345471D01*
X133884510Y-79345471D02*
X133765463Y-79524042D01*
X133765463Y-79524042D02*
X133705939Y-79762138D01*
X133705939Y-79762138D02*
X133705939Y-80238328D01*
X133705939Y-80238328D02*
X133765463Y-80357376D01*
X133765463Y-80357376D02*
X133824986Y-80416900D01*
X133824986Y-80416900D02*
X133944034Y-80476423D01*
X133944034Y-80476423D02*
X134182129Y-80476423D01*
X134182129Y-80476423D02*
X134301177Y-80416900D01*
X134301177Y-80416900D02*
X134360701Y-80357376D01*
X134360701Y-80357376D02*
X134420224Y-80238328D01*
X134420224Y-80238328D02*
X134420224Y-79940709D01*
X134420224Y-79940709D02*
X134360701Y-79821661D01*
X134360701Y-79821661D02*
X134301177Y-79762138D01*
X134301177Y-79762138D02*
X134182129Y-79702614D01*
X134182129Y-79702614D02*
X133944034Y-79702614D01*
X133944034Y-79702614D02*
X133824986Y-79762138D01*
X133824986Y-79762138D02*
X133765463Y-79821661D01*
X133765463Y-79821661D02*
X133705939Y-79940709D01*
X134777367Y-79226423D02*
X135194034Y-80476423D01*
X135194034Y-80476423D02*
X135610700Y-79226423D01*
X136027368Y-80000233D02*
X136979749Y-80000233D01*
X137515463Y-79345471D02*
X137574987Y-79285947D01*
X137574987Y-79285947D02*
X137694034Y-79226423D01*
X137694034Y-79226423D02*
X137991653Y-79226423D01*
X137991653Y-79226423D02*
X138110701Y-79285947D01*
X138110701Y-79285947D02*
X138170225Y-79345471D01*
X138170225Y-79345471D02*
X138229748Y-79464519D01*
X138229748Y-79464519D02*
X138229748Y-79583566D01*
X138229748Y-79583566D02*
X138170225Y-79762138D01*
X138170225Y-79762138D02*
X137455939Y-80476423D01*
X137455939Y-80476423D02*
X138229748Y-80476423D01*
X138705939Y-80119280D02*
X139301177Y-80119280D01*
X138586891Y-80476423D02*
X139003558Y-79226423D01*
X139003558Y-79226423D02*
X139420224Y-80476423D01*
D10*
X172579360Y-82057419D02*
X172769836Y-82057419D01*
X172769836Y-82057419D02*
X172865074Y-82105038D01*
X172865074Y-82105038D02*
X172960312Y-82200276D01*
X172960312Y-82200276D02*
X173007931Y-82390752D01*
X173007931Y-82390752D02*
X173007931Y-82724085D01*
X173007931Y-82724085D02*
X172960312Y-82914561D01*
X172960312Y-82914561D02*
X172865074Y-83009800D01*
X172865074Y-83009800D02*
X172769836Y-83057419D01*
X172769836Y-83057419D02*
X172579360Y-83057419D01*
X172579360Y-83057419D02*
X172484122Y-83009800D01*
X172484122Y-83009800D02*
X172388884Y-82914561D01*
X172388884Y-82914561D02*
X172341265Y-82724085D01*
X172341265Y-82724085D02*
X172341265Y-82390752D01*
X172341265Y-82390752D02*
X172388884Y-82200276D01*
X172388884Y-82200276D02*
X172484122Y-82105038D01*
X172484122Y-82105038D02*
X172579360Y-82057419D01*
X173436503Y-83057419D02*
X173436503Y-82057419D01*
X173436503Y-82057419D02*
X174007931Y-83057419D01*
X174007931Y-83057419D02*
X174007931Y-82057419D01*
X175246027Y-82390752D02*
X174484122Y-82676466D01*
X174484122Y-82676466D02*
X175246027Y-82962180D01*
X175722217Y-82390752D02*
X176484122Y-82676466D01*
X176484122Y-82676466D02*
X175722217Y-82962180D01*
X177150788Y-82057419D02*
X177341264Y-82057419D01*
X177341264Y-82057419D02*
X177436502Y-82105038D01*
X177436502Y-82105038D02*
X177531740Y-82200276D01*
X177531740Y-82200276D02*
X177579359Y-82390752D01*
X177579359Y-82390752D02*
X177579359Y-82724085D01*
X177579359Y-82724085D02*
X177531740Y-82914561D01*
X177531740Y-82914561D02*
X177436502Y-83009800D01*
X177436502Y-83009800D02*
X177341264Y-83057419D01*
X177341264Y-83057419D02*
X177150788Y-83057419D01*
X177150788Y-83057419D02*
X177055550Y-83009800D01*
X177055550Y-83009800D02*
X176960312Y-82914561D01*
X176960312Y-82914561D02*
X176912693Y-82724085D01*
X176912693Y-82724085D02*
X176912693Y-82390752D01*
X176912693Y-82390752D02*
X176960312Y-82200276D01*
X176960312Y-82200276D02*
X177055550Y-82105038D01*
X177055550Y-82105038D02*
X177150788Y-82057419D01*
X178341264Y-82533609D02*
X178007931Y-82533609D01*
X178007931Y-83057419D02*
X178007931Y-82057419D01*
X178007931Y-82057419D02*
X178484121Y-82057419D01*
X179198407Y-82533609D02*
X178865074Y-82533609D01*
X178865074Y-83057419D02*
X178865074Y-82057419D01*
X178865074Y-82057419D02*
X179341264Y-82057419D01*
X54469360Y-82057419D02*
X54659836Y-82057419D01*
X54659836Y-82057419D02*
X54755074Y-82105038D01*
X54755074Y-82105038D02*
X54850312Y-82200276D01*
X54850312Y-82200276D02*
X54897931Y-82390752D01*
X54897931Y-82390752D02*
X54897931Y-82724085D01*
X54897931Y-82724085D02*
X54850312Y-82914561D01*
X54850312Y-82914561D02*
X54755074Y-83009800D01*
X54755074Y-83009800D02*
X54659836Y-83057419D01*
X54659836Y-83057419D02*
X54469360Y-83057419D01*
X54469360Y-83057419D02*
X54374122Y-83009800D01*
X54374122Y-83009800D02*
X54278884Y-82914561D01*
X54278884Y-82914561D02*
X54231265Y-82724085D01*
X54231265Y-82724085D02*
X54231265Y-82390752D01*
X54231265Y-82390752D02*
X54278884Y-82200276D01*
X54278884Y-82200276D02*
X54374122Y-82105038D01*
X54374122Y-82105038D02*
X54469360Y-82057419D01*
X55326503Y-83057419D02*
X55326503Y-82057419D01*
X55326503Y-82057419D02*
X55897931Y-83057419D01*
X55897931Y-83057419D02*
X55897931Y-82057419D01*
X57136027Y-82390752D02*
X56374122Y-82676466D01*
X56374122Y-82676466D02*
X57136027Y-82962180D01*
X57612217Y-82390752D02*
X58374122Y-82676466D01*
X58374122Y-82676466D02*
X57612217Y-82962180D01*
X59040788Y-82057419D02*
X59231264Y-82057419D01*
X59231264Y-82057419D02*
X59326502Y-82105038D01*
X59326502Y-82105038D02*
X59421740Y-82200276D01*
X59421740Y-82200276D02*
X59469359Y-82390752D01*
X59469359Y-82390752D02*
X59469359Y-82724085D01*
X59469359Y-82724085D02*
X59421740Y-82914561D01*
X59421740Y-82914561D02*
X59326502Y-83009800D01*
X59326502Y-83009800D02*
X59231264Y-83057419D01*
X59231264Y-83057419D02*
X59040788Y-83057419D01*
X59040788Y-83057419D02*
X58945550Y-83009800D01*
X58945550Y-83009800D02*
X58850312Y-82914561D01*
X58850312Y-82914561D02*
X58802693Y-82724085D01*
X58802693Y-82724085D02*
X58802693Y-82390752D01*
X58802693Y-82390752D02*
X58850312Y-82200276D01*
X58850312Y-82200276D02*
X58945550Y-82105038D01*
X58945550Y-82105038D02*
X59040788Y-82057419D01*
X60231264Y-82533609D02*
X59897931Y-82533609D01*
X59897931Y-83057419D02*
X59897931Y-82057419D01*
X59897931Y-82057419D02*
X60374121Y-82057419D01*
X61088407Y-82533609D02*
X60755074Y-82533609D01*
X60755074Y-83057419D02*
X60755074Y-82057419D01*
X60755074Y-82057419D02*
X61231264Y-82057419D01*
D13*
X93191853Y-78018547D02*
X93072806Y-77959023D01*
X93072806Y-77959023D02*
X92894234Y-77959023D01*
X92894234Y-77959023D02*
X92715663Y-78018547D01*
X92715663Y-78018547D02*
X92596615Y-78137595D01*
X92596615Y-78137595D02*
X92537092Y-78256642D01*
X92537092Y-78256642D02*
X92477568Y-78494738D01*
X92477568Y-78494738D02*
X92477568Y-78673309D01*
X92477568Y-78673309D02*
X92537092Y-78911404D01*
X92537092Y-78911404D02*
X92596615Y-79030452D01*
X92596615Y-79030452D02*
X92715663Y-79149500D01*
X92715663Y-79149500D02*
X92894234Y-79209023D01*
X92894234Y-79209023D02*
X93013282Y-79209023D01*
X93013282Y-79209023D02*
X93191853Y-79149500D01*
X93191853Y-79149500D02*
X93251377Y-79089976D01*
X93251377Y-79089976D02*
X93251377Y-78673309D01*
X93251377Y-78673309D02*
X93013282Y-78673309D01*
X93787092Y-79209023D02*
X93787092Y-77959023D01*
X93787092Y-77959023D02*
X94501377Y-79209023D01*
X94501377Y-79209023D02*
X94501377Y-77959023D01*
X95096616Y-79209023D02*
X95096616Y-77959023D01*
X95096616Y-77959023D02*
X95394235Y-77959023D01*
X95394235Y-77959023D02*
X95572806Y-78018547D01*
X95572806Y-78018547D02*
X95691854Y-78137595D01*
X95691854Y-78137595D02*
X95751377Y-78256642D01*
X95751377Y-78256642D02*
X95810901Y-78494738D01*
X95810901Y-78494738D02*
X95810901Y-78673309D01*
X95810901Y-78673309D02*
X95751377Y-78911404D01*
X95751377Y-78911404D02*
X95691854Y-79030452D01*
X95691854Y-79030452D02*
X95572806Y-79149500D01*
X95572806Y-79149500D02*
X95394235Y-79209023D01*
X95394235Y-79209023D02*
X95096616Y-79209023D01*
X96644235Y-79625690D02*
X96644235Y-77839976D01*
X98191853Y-79209023D02*
X97477568Y-79209023D01*
X97834711Y-79209023D02*
X97834711Y-77959023D01*
X97834711Y-77959023D02*
X97715663Y-78137595D01*
X97715663Y-78137595D02*
X97596615Y-78256642D01*
X97596615Y-78256642D02*
X97477568Y-78316166D01*
X98668044Y-78078071D02*
X98727568Y-78018547D01*
X98727568Y-78018547D02*
X98846615Y-77959023D01*
X98846615Y-77959023D02*
X99144234Y-77959023D01*
X99144234Y-77959023D02*
X99263282Y-78018547D01*
X99263282Y-78018547D02*
X99322806Y-78078071D01*
X99322806Y-78078071D02*
X99382329Y-78197119D01*
X99382329Y-78197119D02*
X99382329Y-78316166D01*
X99382329Y-78316166D02*
X99322806Y-78494738D01*
X99322806Y-78494738D02*
X98608520Y-79209023D01*
X98608520Y-79209023D02*
X99382329Y-79209023D01*
X99739472Y-77959023D02*
X100156139Y-79209023D01*
X100156139Y-79209023D02*
X100572805Y-77959023D01*
D14*
X68510682Y-71944580D02*
X68463063Y-71992200D01*
X68463063Y-71992200D02*
X68320206Y-72039819D01*
X68320206Y-72039819D02*
X68224968Y-72039819D01*
X68224968Y-72039819D02*
X68082111Y-71992200D01*
X68082111Y-71992200D02*
X67986873Y-71896961D01*
X67986873Y-71896961D02*
X67939254Y-71801723D01*
X67939254Y-71801723D02*
X67891635Y-71611247D01*
X67891635Y-71611247D02*
X67891635Y-71468390D01*
X67891635Y-71468390D02*
X67939254Y-71277914D01*
X67939254Y-71277914D02*
X67986873Y-71182676D01*
X67986873Y-71182676D02*
X68082111Y-71087438D01*
X68082111Y-71087438D02*
X68224968Y-71039819D01*
X68224968Y-71039819D02*
X68320206Y-71039819D01*
X68320206Y-71039819D02*
X68463063Y-71087438D01*
X68463063Y-71087438D02*
X68510682Y-71135057D01*
X69082111Y-71468390D02*
X68986873Y-71420771D01*
X68986873Y-71420771D02*
X68939254Y-71373152D01*
X68939254Y-71373152D02*
X68891635Y-71277914D01*
X68891635Y-71277914D02*
X68891635Y-71230295D01*
X68891635Y-71230295D02*
X68939254Y-71135057D01*
X68939254Y-71135057D02*
X68986873Y-71087438D01*
X68986873Y-71087438D02*
X69082111Y-71039819D01*
X69082111Y-71039819D02*
X69272587Y-71039819D01*
X69272587Y-71039819D02*
X69367825Y-71087438D01*
X69367825Y-71087438D02*
X69415444Y-71135057D01*
X69415444Y-71135057D02*
X69463063Y-71230295D01*
X69463063Y-71230295D02*
X69463063Y-71277914D01*
X69463063Y-71277914D02*
X69415444Y-71373152D01*
X69415444Y-71373152D02*
X69367825Y-71420771D01*
X69367825Y-71420771D02*
X69272587Y-71468390D01*
X69272587Y-71468390D02*
X69082111Y-71468390D01*
X69082111Y-71468390D02*
X68986873Y-71516009D01*
X68986873Y-71516009D02*
X68939254Y-71563628D01*
X68939254Y-71563628D02*
X68891635Y-71658866D01*
X68891635Y-71658866D02*
X68891635Y-71849342D01*
X68891635Y-71849342D02*
X68939254Y-71944580D01*
X68939254Y-71944580D02*
X68986873Y-71992200D01*
X68986873Y-71992200D02*
X69082111Y-72039819D01*
X69082111Y-72039819D02*
X69272587Y-72039819D01*
X69272587Y-72039819D02*
X69367825Y-71992200D01*
X69367825Y-71992200D02*
X69415444Y-71944580D01*
X69415444Y-71944580D02*
X69463063Y-71849342D01*
X69463063Y-71849342D02*
X69463063Y-71658866D01*
X69463063Y-71658866D02*
X69415444Y-71563628D01*
X69415444Y-71563628D02*
X69367825Y-71516009D01*
X69367825Y-71516009D02*
X69272587Y-71468390D01*
X69519580Y-62237857D02*
X69567200Y-62285476D01*
X69567200Y-62285476D02*
X69614819Y-62428333D01*
X69614819Y-62428333D02*
X69614819Y-62523571D01*
X69614819Y-62523571D02*
X69567200Y-62666428D01*
X69567200Y-62666428D02*
X69471961Y-62761666D01*
X69471961Y-62761666D02*
X69376723Y-62809285D01*
X69376723Y-62809285D02*
X69186247Y-62856904D01*
X69186247Y-62856904D02*
X69043390Y-62856904D01*
X69043390Y-62856904D02*
X68852914Y-62809285D01*
X68852914Y-62809285D02*
X68757676Y-62761666D01*
X68757676Y-62761666D02*
X68662438Y-62666428D01*
X68662438Y-62666428D02*
X68614819Y-62523571D01*
X68614819Y-62523571D02*
X68614819Y-62428333D01*
X68614819Y-62428333D02*
X68662438Y-62285476D01*
X68662438Y-62285476D02*
X68710057Y-62237857D01*
X69614819Y-61285476D02*
X69614819Y-61856904D01*
X69614819Y-61571190D02*
X68614819Y-61571190D01*
X68614819Y-61571190D02*
X68757676Y-61666428D01*
X68757676Y-61666428D02*
X68852914Y-61761666D01*
X68852914Y-61761666D02*
X68900533Y-61856904D01*
X68710057Y-60904523D02*
X68662438Y-60856904D01*
X68662438Y-60856904D02*
X68614819Y-60761666D01*
X68614819Y-60761666D02*
X68614819Y-60523571D01*
X68614819Y-60523571D02*
X68662438Y-60428333D01*
X68662438Y-60428333D02*
X68710057Y-60380714D01*
X68710057Y-60380714D02*
X68805295Y-60333095D01*
X68805295Y-60333095D02*
X68900533Y-60333095D01*
X68900533Y-60333095D02*
X69043390Y-60380714D01*
X69043390Y-60380714D02*
X69614819Y-60952142D01*
X69614819Y-60952142D02*
X69614819Y-60333095D01*
X145311904Y-73162438D02*
X145216666Y-73114819D01*
X145216666Y-73114819D02*
X145073809Y-73114819D01*
X145073809Y-73114819D02*
X144930952Y-73162438D01*
X144930952Y-73162438D02*
X144835714Y-73257676D01*
X144835714Y-73257676D02*
X144788095Y-73352914D01*
X144788095Y-73352914D02*
X144740476Y-73543390D01*
X144740476Y-73543390D02*
X144740476Y-73686247D01*
X144740476Y-73686247D02*
X144788095Y-73876723D01*
X144788095Y-73876723D02*
X144835714Y-73971961D01*
X144835714Y-73971961D02*
X144930952Y-74067200D01*
X144930952Y-74067200D02*
X145073809Y-74114819D01*
X145073809Y-74114819D02*
X145169047Y-74114819D01*
X145169047Y-74114819D02*
X145311904Y-74067200D01*
X145311904Y-74067200D02*
X145359523Y-74019580D01*
X145359523Y-74019580D02*
X145359523Y-73686247D01*
X145359523Y-73686247D02*
X145169047Y-73686247D01*
X146454761Y-74210057D02*
X146359523Y-74162438D01*
X146359523Y-74162438D02*
X146264285Y-74067200D01*
X146264285Y-74067200D02*
X146121428Y-73924342D01*
X146121428Y-73924342D02*
X146026190Y-73876723D01*
X146026190Y-73876723D02*
X145930952Y-73876723D01*
X145978571Y-74114819D02*
X145883333Y-74067200D01*
X145883333Y-74067200D02*
X145788095Y-73971961D01*
X145788095Y-73971961D02*
X145740476Y-73781485D01*
X145740476Y-73781485D02*
X145740476Y-73448152D01*
X145740476Y-73448152D02*
X145788095Y-73257676D01*
X145788095Y-73257676D02*
X145883333Y-73162438D01*
X145883333Y-73162438D02*
X145978571Y-73114819D01*
X145978571Y-73114819D02*
X146169047Y-73114819D01*
X146169047Y-73114819D02*
X146264285Y-73162438D01*
X146264285Y-73162438D02*
X146359523Y-73257676D01*
X146359523Y-73257676D02*
X146407142Y-73448152D01*
X146407142Y-73448152D02*
X146407142Y-73781485D01*
X146407142Y-73781485D02*
X146359523Y-73971961D01*
X146359523Y-73971961D02*
X146264285Y-74067200D01*
X146264285Y-74067200D02*
X146169047Y-74114819D01*
X146169047Y-74114819D02*
X145978571Y-74114819D01*
X147264285Y-73448152D02*
X147264285Y-74114819D01*
X147026190Y-73067200D02*
X146788095Y-73781485D01*
X146788095Y-73781485D02*
X147407142Y-73781485D01*
X71016904Y-40142438D02*
X70921666Y-40094819D01*
X70921666Y-40094819D02*
X70778809Y-40094819D01*
X70778809Y-40094819D02*
X70635952Y-40142438D01*
X70635952Y-40142438D02*
X70540714Y-40237676D01*
X70540714Y-40237676D02*
X70493095Y-40332914D01*
X70493095Y-40332914D02*
X70445476Y-40523390D01*
X70445476Y-40523390D02*
X70445476Y-40666247D01*
X70445476Y-40666247D02*
X70493095Y-40856723D01*
X70493095Y-40856723D02*
X70540714Y-40951961D01*
X70540714Y-40951961D02*
X70635952Y-41047200D01*
X70635952Y-41047200D02*
X70778809Y-41094819D01*
X70778809Y-41094819D02*
X70874047Y-41094819D01*
X70874047Y-41094819D02*
X71016904Y-41047200D01*
X71016904Y-41047200D02*
X71064523Y-40999580D01*
X71064523Y-40999580D02*
X71064523Y-40666247D01*
X71064523Y-40666247D02*
X70874047Y-40666247D01*
X72159761Y-41190057D02*
X72064523Y-41142438D01*
X72064523Y-41142438D02*
X71969285Y-41047200D01*
X71969285Y-41047200D02*
X71826428Y-40904342D01*
X71826428Y-40904342D02*
X71731190Y-40856723D01*
X71731190Y-40856723D02*
X71635952Y-40856723D01*
X71683571Y-41094819D02*
X71588333Y-41047200D01*
X71588333Y-41047200D02*
X71493095Y-40951961D01*
X71493095Y-40951961D02*
X71445476Y-40761485D01*
X71445476Y-40761485D02*
X71445476Y-40428152D01*
X71445476Y-40428152D02*
X71493095Y-40237676D01*
X71493095Y-40237676D02*
X71588333Y-40142438D01*
X71588333Y-40142438D02*
X71683571Y-40094819D01*
X71683571Y-40094819D02*
X71874047Y-40094819D01*
X71874047Y-40094819D02*
X71969285Y-40142438D01*
X71969285Y-40142438D02*
X72064523Y-40237676D01*
X72064523Y-40237676D02*
X72112142Y-40428152D01*
X72112142Y-40428152D02*
X72112142Y-40761485D01*
X72112142Y-40761485D02*
X72064523Y-40951961D01*
X72064523Y-40951961D02*
X71969285Y-41047200D01*
X71969285Y-41047200D02*
X71874047Y-41094819D01*
X71874047Y-41094819D02*
X71683571Y-41094819D01*
X72493095Y-40190057D02*
X72540714Y-40142438D01*
X72540714Y-40142438D02*
X72635952Y-40094819D01*
X72635952Y-40094819D02*
X72874047Y-40094819D01*
X72874047Y-40094819D02*
X72969285Y-40142438D01*
X72969285Y-40142438D02*
X73016904Y-40190057D01*
X73016904Y-40190057D02*
X73064523Y-40285295D01*
X73064523Y-40285295D02*
X73064523Y-40380533D01*
X73064523Y-40380533D02*
X73016904Y-40523390D01*
X73016904Y-40523390D02*
X72445476Y-41094819D01*
X72445476Y-41094819D02*
X73064523Y-41094819D01*
X64603333Y-71479580D02*
X64555714Y-71527200D01*
X64555714Y-71527200D02*
X64412857Y-71574819D01*
X64412857Y-71574819D02*
X64317619Y-71574819D01*
X64317619Y-71574819D02*
X64174762Y-71527200D01*
X64174762Y-71527200D02*
X64079524Y-71431961D01*
X64079524Y-71431961D02*
X64031905Y-71336723D01*
X64031905Y-71336723D02*
X63984286Y-71146247D01*
X63984286Y-71146247D02*
X63984286Y-71003390D01*
X63984286Y-71003390D02*
X64031905Y-70812914D01*
X64031905Y-70812914D02*
X64079524Y-70717676D01*
X64079524Y-70717676D02*
X64174762Y-70622438D01*
X64174762Y-70622438D02*
X64317619Y-70574819D01*
X64317619Y-70574819D02*
X64412857Y-70574819D01*
X64412857Y-70574819D02*
X64555714Y-70622438D01*
X64555714Y-70622438D02*
X64603333Y-70670057D01*
X65555714Y-71574819D02*
X64984286Y-71574819D01*
X65270000Y-71574819D02*
X65270000Y-70574819D01*
X65270000Y-70574819D02*
X65174762Y-70717676D01*
X65174762Y-70717676D02*
X65079524Y-70812914D01*
X65079524Y-70812914D02*
X64984286Y-70860533D01*
X103790952Y-70622438D02*
X103695714Y-70574819D01*
X103695714Y-70574819D02*
X103552857Y-70574819D01*
X103552857Y-70574819D02*
X103410000Y-70622438D01*
X103410000Y-70622438D02*
X103314762Y-70717676D01*
X103314762Y-70717676D02*
X103267143Y-70812914D01*
X103267143Y-70812914D02*
X103219524Y-71003390D01*
X103219524Y-71003390D02*
X103219524Y-71146247D01*
X103219524Y-71146247D02*
X103267143Y-71336723D01*
X103267143Y-71336723D02*
X103314762Y-71431961D01*
X103314762Y-71431961D02*
X103410000Y-71527200D01*
X103410000Y-71527200D02*
X103552857Y-71574819D01*
X103552857Y-71574819D02*
X103648095Y-71574819D01*
X103648095Y-71574819D02*
X103790952Y-71527200D01*
X103790952Y-71527200D02*
X103838571Y-71479580D01*
X103838571Y-71479580D02*
X103838571Y-71146247D01*
X103838571Y-71146247D02*
X103648095Y-71146247D01*
X104267143Y-71574819D02*
X104267143Y-70574819D01*
X104267143Y-70574819D02*
X104838571Y-71574819D01*
X104838571Y-71574819D02*
X104838571Y-70574819D01*
X105314762Y-71574819D02*
X105314762Y-70574819D01*
X105314762Y-70574819D02*
X105552857Y-70574819D01*
X105552857Y-70574819D02*
X105695714Y-70622438D01*
X105695714Y-70622438D02*
X105790952Y-70717676D01*
X105790952Y-70717676D02*
X105838571Y-70812914D01*
X105838571Y-70812914D02*
X105886190Y-71003390D01*
X105886190Y-71003390D02*
X105886190Y-71146247D01*
X105886190Y-71146247D02*
X105838571Y-71336723D01*
X105838571Y-71336723D02*
X105790952Y-71431961D01*
X105790952Y-71431961D02*
X105695714Y-71527200D01*
X105695714Y-71527200D02*
X105552857Y-71574819D01*
X105552857Y-71574819D02*
X105314762Y-71574819D01*
X106171905Y-70574819D02*
X106743333Y-70574819D01*
X106457619Y-71574819D02*
X106457619Y-70574819D01*
X106981429Y-70574819D02*
X107600476Y-70574819D01*
X107600476Y-70574819D02*
X107267143Y-70955771D01*
X107267143Y-70955771D02*
X107410000Y-70955771D01*
X107410000Y-70955771D02*
X107505238Y-71003390D01*
X107505238Y-71003390D02*
X107552857Y-71051009D01*
X107552857Y-71051009D02*
X107600476Y-71146247D01*
X107600476Y-71146247D02*
X107600476Y-71384342D01*
X107600476Y-71384342D02*
X107552857Y-71479580D01*
X107552857Y-71479580D02*
X107505238Y-71527200D01*
X107505238Y-71527200D02*
X107410000Y-71574819D01*
X107410000Y-71574819D02*
X107124286Y-71574819D01*
X107124286Y-71574819D02*
X107029048Y-71527200D01*
X107029048Y-71527200D02*
X106981429Y-71479580D01*
X58091905Y-47494819D02*
X58091905Y-46494819D01*
X58091905Y-46494819D02*
X58330000Y-46494819D01*
X58330000Y-46494819D02*
X58472857Y-46542438D01*
X58472857Y-46542438D02*
X58568095Y-46637676D01*
X58568095Y-46637676D02*
X58615714Y-46732914D01*
X58615714Y-46732914D02*
X58663333Y-46923390D01*
X58663333Y-46923390D02*
X58663333Y-47066247D01*
X58663333Y-47066247D02*
X58615714Y-47256723D01*
X58615714Y-47256723D02*
X58568095Y-47351961D01*
X58568095Y-47351961D02*
X58472857Y-47447200D01*
X58472857Y-47447200D02*
X58330000Y-47494819D01*
X58330000Y-47494819D02*
X58091905Y-47494819D01*
X59615714Y-47494819D02*
X59044286Y-47494819D01*
X59330000Y-47494819D02*
X59330000Y-46494819D01*
X59330000Y-46494819D02*
X59234762Y-46637676D01*
X59234762Y-46637676D02*
X59139524Y-46732914D01*
X59139524Y-46732914D02*
X59044286Y-46780533D01*
X53488095Y-47864819D02*
X53488095Y-46864819D01*
X54059523Y-47864819D02*
X53630952Y-47293390D01*
X54059523Y-46864819D02*
X53488095Y-47436247D01*
X165838333Y-53124580D02*
X165790714Y-53172200D01*
X165790714Y-53172200D02*
X165647857Y-53219819D01*
X165647857Y-53219819D02*
X165552619Y-53219819D01*
X165552619Y-53219819D02*
X165409762Y-53172200D01*
X165409762Y-53172200D02*
X165314524Y-53076961D01*
X165314524Y-53076961D02*
X165266905Y-52981723D01*
X165266905Y-52981723D02*
X165219286Y-52791247D01*
X165219286Y-52791247D02*
X165219286Y-52648390D01*
X165219286Y-52648390D02*
X165266905Y-52457914D01*
X165266905Y-52457914D02*
X165314524Y-52362676D01*
X165314524Y-52362676D02*
X165409762Y-52267438D01*
X165409762Y-52267438D02*
X165552619Y-52219819D01*
X165552619Y-52219819D02*
X165647857Y-52219819D01*
X165647857Y-52219819D02*
X165790714Y-52267438D01*
X165790714Y-52267438D02*
X165838333Y-52315057D01*
X166314524Y-53219819D02*
X166505000Y-53219819D01*
X166505000Y-53219819D02*
X166600238Y-53172200D01*
X166600238Y-53172200D02*
X166647857Y-53124580D01*
X166647857Y-53124580D02*
X166743095Y-52981723D01*
X166743095Y-52981723D02*
X166790714Y-52791247D01*
X166790714Y-52791247D02*
X166790714Y-52410295D01*
X166790714Y-52410295D02*
X166743095Y-52315057D01*
X166743095Y-52315057D02*
X166695476Y-52267438D01*
X166695476Y-52267438D02*
X166600238Y-52219819D01*
X166600238Y-52219819D02*
X166409762Y-52219819D01*
X166409762Y-52219819D02*
X166314524Y-52267438D01*
X166314524Y-52267438D02*
X166266905Y-52315057D01*
X166266905Y-52315057D02*
X166219286Y-52410295D01*
X166219286Y-52410295D02*
X166219286Y-52648390D01*
X166219286Y-52648390D02*
X166266905Y-52743628D01*
X166266905Y-52743628D02*
X166314524Y-52791247D01*
X166314524Y-52791247D02*
X166409762Y-52838866D01*
X166409762Y-52838866D02*
X166600238Y-52838866D01*
X166600238Y-52838866D02*
X166695476Y-52791247D01*
X166695476Y-52791247D02*
X166743095Y-52743628D01*
X166743095Y-52743628D02*
X166790714Y-52648390D01*
X161692030Y-65129580D02*
X161644411Y-65177200D01*
X161644411Y-65177200D02*
X161501554Y-65224819D01*
X161501554Y-65224819D02*
X161406316Y-65224819D01*
X161406316Y-65224819D02*
X161263459Y-65177200D01*
X161263459Y-65177200D02*
X161168221Y-65081961D01*
X161168221Y-65081961D02*
X161120602Y-64986723D01*
X161120602Y-64986723D02*
X161072983Y-64796247D01*
X161072983Y-64796247D02*
X161072983Y-64653390D01*
X161072983Y-64653390D02*
X161120602Y-64462914D01*
X161120602Y-64462914D02*
X161168221Y-64367676D01*
X161168221Y-64367676D02*
X161263459Y-64272438D01*
X161263459Y-64272438D02*
X161406316Y-64224819D01*
X161406316Y-64224819D02*
X161501554Y-64224819D01*
X161501554Y-64224819D02*
X161644411Y-64272438D01*
X161644411Y-64272438D02*
X161692030Y-64320057D01*
X162644411Y-65224819D02*
X162072983Y-65224819D01*
X162358697Y-65224819D02*
X162358697Y-64224819D01*
X162358697Y-64224819D02*
X162263459Y-64367676D01*
X162263459Y-64367676D02*
X162168221Y-64462914D01*
X162168221Y-64462914D02*
X162072983Y-64510533D01*
X163263459Y-64224819D02*
X163358697Y-64224819D01*
X163358697Y-64224819D02*
X163453935Y-64272438D01*
X163453935Y-64272438D02*
X163501554Y-64320057D01*
X163501554Y-64320057D02*
X163549173Y-64415295D01*
X163549173Y-64415295D02*
X163596792Y-64605771D01*
X163596792Y-64605771D02*
X163596792Y-64843866D01*
X163596792Y-64843866D02*
X163549173Y-65034342D01*
X163549173Y-65034342D02*
X163501554Y-65129580D01*
X163501554Y-65129580D02*
X163453935Y-65177200D01*
X163453935Y-65177200D02*
X163358697Y-65224819D01*
X163358697Y-65224819D02*
X163263459Y-65224819D01*
X163263459Y-65224819D02*
X163168221Y-65177200D01*
X163168221Y-65177200D02*
X163120602Y-65129580D01*
X163120602Y-65129580D02*
X163072983Y-65034342D01*
X163072983Y-65034342D02*
X163025364Y-64843866D01*
X163025364Y-64843866D02*
X163025364Y-64605771D01*
X163025364Y-64605771D02*
X163072983Y-64415295D01*
X163072983Y-64415295D02*
X163120602Y-64320057D01*
X163120602Y-64320057D02*
X163168221Y-64272438D01*
X163168221Y-64272438D02*
X163263459Y-64224819D01*
X135723333Y-56779819D02*
X135247143Y-56779819D01*
X135247143Y-56779819D02*
X135247143Y-55779819D01*
X136009048Y-55875057D02*
X136056667Y-55827438D01*
X136056667Y-55827438D02*
X136151905Y-55779819D01*
X136151905Y-55779819D02*
X136390000Y-55779819D01*
X136390000Y-55779819D02*
X136485238Y-55827438D01*
X136485238Y-55827438D02*
X136532857Y-55875057D01*
X136532857Y-55875057D02*
X136580476Y-55970295D01*
X136580476Y-55970295D02*
X136580476Y-56065533D01*
X136580476Y-56065533D02*
X136532857Y-56208390D01*
X136532857Y-56208390D02*
X135961429Y-56779819D01*
X135961429Y-56779819D02*
X136580476Y-56779819D01*
X148582142Y-44809580D02*
X148534523Y-44857200D01*
X148534523Y-44857200D02*
X148391666Y-44904819D01*
X148391666Y-44904819D02*
X148296428Y-44904819D01*
X148296428Y-44904819D02*
X148153571Y-44857200D01*
X148153571Y-44857200D02*
X148058333Y-44761961D01*
X148058333Y-44761961D02*
X148010714Y-44666723D01*
X148010714Y-44666723D02*
X147963095Y-44476247D01*
X147963095Y-44476247D02*
X147963095Y-44333390D01*
X147963095Y-44333390D02*
X148010714Y-44142914D01*
X148010714Y-44142914D02*
X148058333Y-44047676D01*
X148058333Y-44047676D02*
X148153571Y-43952438D01*
X148153571Y-43952438D02*
X148296428Y-43904819D01*
X148296428Y-43904819D02*
X148391666Y-43904819D01*
X148391666Y-43904819D02*
X148534523Y-43952438D01*
X148534523Y-43952438D02*
X148582142Y-44000057D01*
X149534523Y-44904819D02*
X148963095Y-44904819D01*
X149248809Y-44904819D02*
X149248809Y-43904819D01*
X149248809Y-43904819D02*
X149153571Y-44047676D01*
X149153571Y-44047676D02*
X149058333Y-44142914D01*
X149058333Y-44142914D02*
X148963095Y-44190533D01*
X150486904Y-44904819D02*
X149915476Y-44904819D01*
X150201190Y-44904819D02*
X150201190Y-43904819D01*
X150201190Y-43904819D02*
X150105952Y-44047676D01*
X150105952Y-44047676D02*
X150010714Y-44142914D01*
X150010714Y-44142914D02*
X149915476Y-44190533D01*
X172539819Y-73826666D02*
X172063628Y-74159999D01*
X172539819Y-74398094D02*
X171539819Y-74398094D01*
X171539819Y-74398094D02*
X171539819Y-74017142D01*
X171539819Y-74017142D02*
X171587438Y-73921904D01*
X171587438Y-73921904D02*
X171635057Y-73874285D01*
X171635057Y-73874285D02*
X171730295Y-73826666D01*
X171730295Y-73826666D02*
X171873152Y-73826666D01*
X171873152Y-73826666D02*
X171968390Y-73874285D01*
X171968390Y-73874285D02*
X172016009Y-73921904D01*
X172016009Y-73921904D02*
X172063628Y-74017142D01*
X172063628Y-74017142D02*
X172063628Y-74398094D01*
X171539819Y-72969523D02*
X171539819Y-73159999D01*
X171539819Y-73159999D02*
X171587438Y-73255237D01*
X171587438Y-73255237D02*
X171635057Y-73302856D01*
X171635057Y-73302856D02*
X171777914Y-73398094D01*
X171777914Y-73398094D02*
X171968390Y-73445713D01*
X171968390Y-73445713D02*
X172349342Y-73445713D01*
X172349342Y-73445713D02*
X172444580Y-73398094D01*
X172444580Y-73398094D02*
X172492200Y-73350475D01*
X172492200Y-73350475D02*
X172539819Y-73255237D01*
X172539819Y-73255237D02*
X172539819Y-73064761D01*
X172539819Y-73064761D02*
X172492200Y-72969523D01*
X172492200Y-72969523D02*
X172444580Y-72921904D01*
X172444580Y-72921904D02*
X172349342Y-72874285D01*
X172349342Y-72874285D02*
X172111247Y-72874285D01*
X172111247Y-72874285D02*
X172016009Y-72921904D01*
X172016009Y-72921904D02*
X171968390Y-72969523D01*
X171968390Y-72969523D02*
X171920771Y-73064761D01*
X171920771Y-73064761D02*
X171920771Y-73255237D01*
X171920771Y-73255237D02*
X171968390Y-73350475D01*
X171968390Y-73350475D02*
X172016009Y-73398094D01*
X172016009Y-73398094D02*
X172111247Y-73445713D01*
X164938333Y-73849580D02*
X164890714Y-73897200D01*
X164890714Y-73897200D02*
X164747857Y-73944819D01*
X164747857Y-73944819D02*
X164652619Y-73944819D01*
X164652619Y-73944819D02*
X164509762Y-73897200D01*
X164509762Y-73897200D02*
X164414524Y-73801961D01*
X164414524Y-73801961D02*
X164366905Y-73706723D01*
X164366905Y-73706723D02*
X164319286Y-73516247D01*
X164319286Y-73516247D02*
X164319286Y-73373390D01*
X164319286Y-73373390D02*
X164366905Y-73182914D01*
X164366905Y-73182914D02*
X164414524Y-73087676D01*
X164414524Y-73087676D02*
X164509762Y-72992438D01*
X164509762Y-72992438D02*
X164652619Y-72944819D01*
X164652619Y-72944819D02*
X164747857Y-72944819D01*
X164747857Y-72944819D02*
X164890714Y-72992438D01*
X164890714Y-72992438D02*
X164938333Y-73040057D01*
X165795476Y-73278152D02*
X165795476Y-73944819D01*
X165557381Y-72897200D02*
X165319286Y-73611485D01*
X165319286Y-73611485D02*
X165938333Y-73611485D01*
X67188221Y-51854580D02*
X67140602Y-51902200D01*
X67140602Y-51902200D02*
X66997745Y-51949819D01*
X66997745Y-51949819D02*
X66902507Y-51949819D01*
X66902507Y-51949819D02*
X66759650Y-51902200D01*
X66759650Y-51902200D02*
X66664412Y-51806961D01*
X66664412Y-51806961D02*
X66616793Y-51711723D01*
X66616793Y-51711723D02*
X66569174Y-51521247D01*
X66569174Y-51521247D02*
X66569174Y-51378390D01*
X66569174Y-51378390D02*
X66616793Y-51187914D01*
X66616793Y-51187914D02*
X66664412Y-51092676D01*
X66664412Y-51092676D02*
X66759650Y-50997438D01*
X66759650Y-50997438D02*
X66902507Y-50949819D01*
X66902507Y-50949819D02*
X66997745Y-50949819D01*
X66997745Y-50949819D02*
X67140602Y-50997438D01*
X67140602Y-50997438D02*
X67188221Y-51045057D01*
X68092983Y-50949819D02*
X67616793Y-50949819D01*
X67616793Y-50949819D02*
X67569174Y-51426009D01*
X67569174Y-51426009D02*
X67616793Y-51378390D01*
X67616793Y-51378390D02*
X67712031Y-51330771D01*
X67712031Y-51330771D02*
X67950126Y-51330771D01*
X67950126Y-51330771D02*
X68045364Y-51378390D01*
X68045364Y-51378390D02*
X68092983Y-51426009D01*
X68092983Y-51426009D02*
X68140602Y-51521247D01*
X68140602Y-51521247D02*
X68140602Y-51759342D01*
X68140602Y-51759342D02*
X68092983Y-51854580D01*
X68092983Y-51854580D02*
X68045364Y-51902200D01*
X68045364Y-51902200D02*
X67950126Y-51949819D01*
X67950126Y-51949819D02*
X67712031Y-51949819D01*
X67712031Y-51949819D02*
X67616793Y-51902200D01*
X67616793Y-51902200D02*
X67569174Y-51854580D01*
X153145057Y-66770238D02*
X153097438Y-66865476D01*
X153097438Y-66865476D02*
X153002200Y-66960714D01*
X153002200Y-66960714D02*
X152859342Y-67103571D01*
X152859342Y-67103571D02*
X152811723Y-67198809D01*
X152811723Y-67198809D02*
X152811723Y-67294047D01*
X153049819Y-67246428D02*
X153002200Y-67341666D01*
X153002200Y-67341666D02*
X152906961Y-67436904D01*
X152906961Y-67436904D02*
X152716485Y-67484523D01*
X152716485Y-67484523D02*
X152383152Y-67484523D01*
X152383152Y-67484523D02*
X152192676Y-67436904D01*
X152192676Y-67436904D02*
X152097438Y-67341666D01*
X152097438Y-67341666D02*
X152049819Y-67246428D01*
X152049819Y-67246428D02*
X152049819Y-67055952D01*
X152049819Y-67055952D02*
X152097438Y-66960714D01*
X152097438Y-66960714D02*
X152192676Y-66865476D01*
X152192676Y-66865476D02*
X152383152Y-66817857D01*
X152383152Y-66817857D02*
X152716485Y-66817857D01*
X152716485Y-66817857D02*
X152906961Y-66865476D01*
X152906961Y-66865476D02*
X153002200Y-66960714D01*
X153002200Y-66960714D02*
X153049819Y-67055952D01*
X153049819Y-67055952D02*
X153049819Y-67246428D01*
X152383152Y-65960714D02*
X153049819Y-65960714D01*
X152002200Y-66198809D02*
X152716485Y-66436904D01*
X152716485Y-66436904D02*
X152716485Y-65817857D01*
X64031904Y-40142438D02*
X63936666Y-40094819D01*
X63936666Y-40094819D02*
X63793809Y-40094819D01*
X63793809Y-40094819D02*
X63650952Y-40142438D01*
X63650952Y-40142438D02*
X63555714Y-40237676D01*
X63555714Y-40237676D02*
X63508095Y-40332914D01*
X63508095Y-40332914D02*
X63460476Y-40523390D01*
X63460476Y-40523390D02*
X63460476Y-40666247D01*
X63460476Y-40666247D02*
X63508095Y-40856723D01*
X63508095Y-40856723D02*
X63555714Y-40951961D01*
X63555714Y-40951961D02*
X63650952Y-41047200D01*
X63650952Y-41047200D02*
X63793809Y-41094819D01*
X63793809Y-41094819D02*
X63889047Y-41094819D01*
X63889047Y-41094819D02*
X64031904Y-41047200D01*
X64031904Y-41047200D02*
X64079523Y-40999580D01*
X64079523Y-40999580D02*
X64079523Y-40666247D01*
X64079523Y-40666247D02*
X63889047Y-40666247D01*
X65174761Y-41190057D02*
X65079523Y-41142438D01*
X65079523Y-41142438D02*
X64984285Y-41047200D01*
X64984285Y-41047200D02*
X64841428Y-40904342D01*
X64841428Y-40904342D02*
X64746190Y-40856723D01*
X64746190Y-40856723D02*
X64650952Y-40856723D01*
X64698571Y-41094819D02*
X64603333Y-41047200D01*
X64603333Y-41047200D02*
X64508095Y-40951961D01*
X64508095Y-40951961D02*
X64460476Y-40761485D01*
X64460476Y-40761485D02*
X64460476Y-40428152D01*
X64460476Y-40428152D02*
X64508095Y-40237676D01*
X64508095Y-40237676D02*
X64603333Y-40142438D01*
X64603333Y-40142438D02*
X64698571Y-40094819D01*
X64698571Y-40094819D02*
X64889047Y-40094819D01*
X64889047Y-40094819D02*
X64984285Y-40142438D01*
X64984285Y-40142438D02*
X65079523Y-40237676D01*
X65079523Y-40237676D02*
X65127142Y-40428152D01*
X65127142Y-40428152D02*
X65127142Y-40761485D01*
X65127142Y-40761485D02*
X65079523Y-40951961D01*
X65079523Y-40951961D02*
X64984285Y-41047200D01*
X64984285Y-41047200D02*
X64889047Y-41094819D01*
X64889047Y-41094819D02*
X64698571Y-41094819D01*
X66079523Y-41094819D02*
X65508095Y-41094819D01*
X65793809Y-41094819D02*
X65793809Y-40094819D01*
X65793809Y-40094819D02*
X65698571Y-40237676D01*
X65698571Y-40237676D02*
X65603333Y-40332914D01*
X65603333Y-40332914D02*
X65508095Y-40380533D01*
X94448333Y-40809580D02*
X94400714Y-40857200D01*
X94400714Y-40857200D02*
X94257857Y-40904819D01*
X94257857Y-40904819D02*
X94162619Y-40904819D01*
X94162619Y-40904819D02*
X94019762Y-40857200D01*
X94019762Y-40857200D02*
X93924524Y-40761961D01*
X93924524Y-40761961D02*
X93876905Y-40666723D01*
X93876905Y-40666723D02*
X93829286Y-40476247D01*
X93829286Y-40476247D02*
X93829286Y-40333390D01*
X93829286Y-40333390D02*
X93876905Y-40142914D01*
X93876905Y-40142914D02*
X93924524Y-40047676D01*
X93924524Y-40047676D02*
X94019762Y-39952438D01*
X94019762Y-39952438D02*
X94162619Y-39904819D01*
X94162619Y-39904819D02*
X94257857Y-39904819D01*
X94257857Y-39904819D02*
X94400714Y-39952438D01*
X94400714Y-39952438D02*
X94448333Y-40000057D01*
X94829286Y-40000057D02*
X94876905Y-39952438D01*
X94876905Y-39952438D02*
X94972143Y-39904819D01*
X94972143Y-39904819D02*
X95210238Y-39904819D01*
X95210238Y-39904819D02*
X95305476Y-39952438D01*
X95305476Y-39952438D02*
X95353095Y-40000057D01*
X95353095Y-40000057D02*
X95400714Y-40095295D01*
X95400714Y-40095295D02*
X95400714Y-40190533D01*
X95400714Y-40190533D02*
X95353095Y-40333390D01*
X95353095Y-40333390D02*
X94781667Y-40904819D01*
X94781667Y-40904819D02*
X95400714Y-40904819D01*
X61428333Y-74114819D02*
X61095000Y-73638628D01*
X60856905Y-74114819D02*
X60856905Y-73114819D01*
X60856905Y-73114819D02*
X61237857Y-73114819D01*
X61237857Y-73114819D02*
X61333095Y-73162438D01*
X61333095Y-73162438D02*
X61380714Y-73210057D01*
X61380714Y-73210057D02*
X61428333Y-73305295D01*
X61428333Y-73305295D02*
X61428333Y-73448152D01*
X61428333Y-73448152D02*
X61380714Y-73543390D01*
X61380714Y-73543390D02*
X61333095Y-73591009D01*
X61333095Y-73591009D02*
X61237857Y-73638628D01*
X61237857Y-73638628D02*
X60856905Y-73638628D01*
X62333095Y-73114819D02*
X61856905Y-73114819D01*
X61856905Y-73114819D02*
X61809286Y-73591009D01*
X61809286Y-73591009D02*
X61856905Y-73543390D01*
X61856905Y-73543390D02*
X61952143Y-73495771D01*
X61952143Y-73495771D02*
X62190238Y-73495771D01*
X62190238Y-73495771D02*
X62285476Y-73543390D01*
X62285476Y-73543390D02*
X62333095Y-73591009D01*
X62333095Y-73591009D02*
X62380714Y-73686247D01*
X62380714Y-73686247D02*
X62380714Y-73924342D01*
X62380714Y-73924342D02*
X62333095Y-74019580D01*
X62333095Y-74019580D02*
X62285476Y-74067200D01*
X62285476Y-74067200D02*
X62190238Y-74114819D01*
X62190238Y-74114819D02*
X61952143Y-74114819D01*
X61952143Y-74114819D02*
X61856905Y-74067200D01*
X61856905Y-74067200D02*
X61809286Y-74019580D01*
X87740057Y-54070238D02*
X87692438Y-54165476D01*
X87692438Y-54165476D02*
X87597200Y-54260714D01*
X87597200Y-54260714D02*
X87454342Y-54403571D01*
X87454342Y-54403571D02*
X87406723Y-54498809D01*
X87406723Y-54498809D02*
X87406723Y-54594047D01*
X87644819Y-54546428D02*
X87597200Y-54641666D01*
X87597200Y-54641666D02*
X87501961Y-54736904D01*
X87501961Y-54736904D02*
X87311485Y-54784523D01*
X87311485Y-54784523D02*
X86978152Y-54784523D01*
X86978152Y-54784523D02*
X86787676Y-54736904D01*
X86787676Y-54736904D02*
X86692438Y-54641666D01*
X86692438Y-54641666D02*
X86644819Y-54546428D01*
X86644819Y-54546428D02*
X86644819Y-54355952D01*
X86644819Y-54355952D02*
X86692438Y-54260714D01*
X86692438Y-54260714D02*
X86787676Y-54165476D01*
X86787676Y-54165476D02*
X86978152Y-54117857D01*
X86978152Y-54117857D02*
X87311485Y-54117857D01*
X87311485Y-54117857D02*
X87501961Y-54165476D01*
X87501961Y-54165476D02*
X87597200Y-54260714D01*
X87597200Y-54260714D02*
X87644819Y-54355952D01*
X87644819Y-54355952D02*
X87644819Y-54546428D01*
X87644819Y-53165476D02*
X87644819Y-53736904D01*
X87644819Y-53451190D02*
X86644819Y-53451190D01*
X86644819Y-53451190D02*
X86787676Y-53546428D01*
X86787676Y-53546428D02*
X86882914Y-53641666D01*
X86882914Y-53641666D02*
X86930533Y-53736904D01*
X154201904Y-40142438D02*
X154106666Y-40094819D01*
X154106666Y-40094819D02*
X153963809Y-40094819D01*
X153963809Y-40094819D02*
X153820952Y-40142438D01*
X153820952Y-40142438D02*
X153725714Y-40237676D01*
X153725714Y-40237676D02*
X153678095Y-40332914D01*
X153678095Y-40332914D02*
X153630476Y-40523390D01*
X153630476Y-40523390D02*
X153630476Y-40666247D01*
X153630476Y-40666247D02*
X153678095Y-40856723D01*
X153678095Y-40856723D02*
X153725714Y-40951961D01*
X153725714Y-40951961D02*
X153820952Y-41047200D01*
X153820952Y-41047200D02*
X153963809Y-41094819D01*
X153963809Y-41094819D02*
X154059047Y-41094819D01*
X154059047Y-41094819D02*
X154201904Y-41047200D01*
X154201904Y-41047200D02*
X154249523Y-40999580D01*
X154249523Y-40999580D02*
X154249523Y-40666247D01*
X154249523Y-40666247D02*
X154059047Y-40666247D01*
X155344761Y-41190057D02*
X155249523Y-41142438D01*
X155249523Y-41142438D02*
X155154285Y-41047200D01*
X155154285Y-41047200D02*
X155011428Y-40904342D01*
X155011428Y-40904342D02*
X154916190Y-40856723D01*
X154916190Y-40856723D02*
X154820952Y-40856723D01*
X154868571Y-41094819D02*
X154773333Y-41047200D01*
X154773333Y-41047200D02*
X154678095Y-40951961D01*
X154678095Y-40951961D02*
X154630476Y-40761485D01*
X154630476Y-40761485D02*
X154630476Y-40428152D01*
X154630476Y-40428152D02*
X154678095Y-40237676D01*
X154678095Y-40237676D02*
X154773333Y-40142438D01*
X154773333Y-40142438D02*
X154868571Y-40094819D01*
X154868571Y-40094819D02*
X155059047Y-40094819D01*
X155059047Y-40094819D02*
X155154285Y-40142438D01*
X155154285Y-40142438D02*
X155249523Y-40237676D01*
X155249523Y-40237676D02*
X155297142Y-40428152D01*
X155297142Y-40428152D02*
X155297142Y-40761485D01*
X155297142Y-40761485D02*
X155249523Y-40951961D01*
X155249523Y-40951961D02*
X155154285Y-41047200D01*
X155154285Y-41047200D02*
X155059047Y-41094819D01*
X155059047Y-41094819D02*
X154868571Y-41094819D01*
X155630476Y-40094819D02*
X156249523Y-40094819D01*
X156249523Y-40094819D02*
X155916190Y-40475771D01*
X155916190Y-40475771D02*
X156059047Y-40475771D01*
X156059047Y-40475771D02*
X156154285Y-40523390D01*
X156154285Y-40523390D02*
X156201904Y-40571009D01*
X156201904Y-40571009D02*
X156249523Y-40666247D01*
X156249523Y-40666247D02*
X156249523Y-40904342D01*
X156249523Y-40904342D02*
X156201904Y-40999580D01*
X156201904Y-40999580D02*
X156154285Y-41047200D01*
X156154285Y-41047200D02*
X156059047Y-41094819D01*
X156059047Y-41094819D02*
X155773333Y-41094819D01*
X155773333Y-41094819D02*
X155678095Y-41047200D01*
X155678095Y-41047200D02*
X155630476Y-40999580D01*
X125603095Y-71574819D02*
X125603095Y-70574819D01*
X125603095Y-70574819D02*
X126174523Y-71574819D01*
X126174523Y-71574819D02*
X126174523Y-70574819D01*
X126603095Y-70670057D02*
X126650714Y-70622438D01*
X126650714Y-70622438D02*
X126745952Y-70574819D01*
X126745952Y-70574819D02*
X126984047Y-70574819D01*
X126984047Y-70574819D02*
X127079285Y-70622438D01*
X127079285Y-70622438D02*
X127126904Y-70670057D01*
X127126904Y-70670057D02*
X127174523Y-70765295D01*
X127174523Y-70765295D02*
X127174523Y-70860533D01*
X127174523Y-70860533D02*
X127126904Y-71003390D01*
X127126904Y-71003390D02*
X126555476Y-71574819D01*
X126555476Y-71574819D02*
X127174523Y-71574819D01*
X157369819Y-54078094D02*
X156369819Y-54078094D01*
X156369819Y-54078094D02*
X156369819Y-53839999D01*
X156369819Y-53839999D02*
X156417438Y-53697142D01*
X156417438Y-53697142D02*
X156512676Y-53601904D01*
X156512676Y-53601904D02*
X156607914Y-53554285D01*
X156607914Y-53554285D02*
X156798390Y-53506666D01*
X156798390Y-53506666D02*
X156941247Y-53506666D01*
X156941247Y-53506666D02*
X157131723Y-53554285D01*
X157131723Y-53554285D02*
X157226961Y-53601904D01*
X157226961Y-53601904D02*
X157322200Y-53697142D01*
X157322200Y-53697142D02*
X157369819Y-53839999D01*
X157369819Y-53839999D02*
X157369819Y-54078094D01*
X156703152Y-52649523D02*
X157369819Y-52649523D01*
X156322200Y-52887618D02*
X157036485Y-53125713D01*
X157036485Y-53125713D02*
X157036485Y-52506666D01*
X157739819Y-58681904D02*
X156739819Y-58681904D01*
X157739819Y-58110476D02*
X157168390Y-58539047D01*
X156739819Y-58110476D02*
X157311247Y-58681904D01*
X116083333Y-48609580D02*
X116035714Y-48657200D01*
X116035714Y-48657200D02*
X115892857Y-48704819D01*
X115892857Y-48704819D02*
X115797619Y-48704819D01*
X115797619Y-48704819D02*
X115654762Y-48657200D01*
X115654762Y-48657200D02*
X115559524Y-48561961D01*
X115559524Y-48561961D02*
X115511905Y-48466723D01*
X115511905Y-48466723D02*
X115464286Y-48276247D01*
X115464286Y-48276247D02*
X115464286Y-48133390D01*
X115464286Y-48133390D02*
X115511905Y-47942914D01*
X115511905Y-47942914D02*
X115559524Y-47847676D01*
X115559524Y-47847676D02*
X115654762Y-47752438D01*
X115654762Y-47752438D02*
X115797619Y-47704819D01*
X115797619Y-47704819D02*
X115892857Y-47704819D01*
X115892857Y-47704819D02*
X116035714Y-47752438D01*
X116035714Y-47752438D02*
X116083333Y-47800057D01*
X116940476Y-47704819D02*
X116750000Y-47704819D01*
X116750000Y-47704819D02*
X116654762Y-47752438D01*
X116654762Y-47752438D02*
X116607143Y-47800057D01*
X116607143Y-47800057D02*
X116511905Y-47942914D01*
X116511905Y-47942914D02*
X116464286Y-48133390D01*
X116464286Y-48133390D02*
X116464286Y-48514342D01*
X116464286Y-48514342D02*
X116511905Y-48609580D01*
X116511905Y-48609580D02*
X116559524Y-48657200D01*
X116559524Y-48657200D02*
X116654762Y-48704819D01*
X116654762Y-48704819D02*
X116845238Y-48704819D01*
X116845238Y-48704819D02*
X116940476Y-48657200D01*
X116940476Y-48657200D02*
X116988095Y-48609580D01*
X116988095Y-48609580D02*
X117035714Y-48514342D01*
X117035714Y-48514342D02*
X117035714Y-48276247D01*
X117035714Y-48276247D02*
X116988095Y-48181009D01*
X116988095Y-48181009D02*
X116940476Y-48133390D01*
X116940476Y-48133390D02*
X116845238Y-48085771D01*
X116845238Y-48085771D02*
X116654762Y-48085771D01*
X116654762Y-48085771D02*
X116559524Y-48133390D01*
X116559524Y-48133390D02*
X116511905Y-48181009D01*
X116511905Y-48181009D02*
X116464286Y-48276247D01*
X154773333Y-57604819D02*
X154440000Y-57128628D01*
X154201905Y-57604819D02*
X154201905Y-56604819D01*
X154201905Y-56604819D02*
X154582857Y-56604819D01*
X154582857Y-56604819D02*
X154678095Y-56652438D01*
X154678095Y-56652438D02*
X154725714Y-56700057D01*
X154725714Y-56700057D02*
X154773333Y-56795295D01*
X154773333Y-56795295D02*
X154773333Y-56938152D01*
X154773333Y-56938152D02*
X154725714Y-57033390D01*
X154725714Y-57033390D02*
X154678095Y-57081009D01*
X154678095Y-57081009D02*
X154582857Y-57128628D01*
X154582857Y-57128628D02*
X154201905Y-57128628D01*
X155106667Y-56604819D02*
X155725714Y-56604819D01*
X155725714Y-56604819D02*
X155392381Y-56985771D01*
X155392381Y-56985771D02*
X155535238Y-56985771D01*
X155535238Y-56985771D02*
X155630476Y-57033390D01*
X155630476Y-57033390D02*
X155678095Y-57081009D01*
X155678095Y-57081009D02*
X155725714Y-57176247D01*
X155725714Y-57176247D02*
X155725714Y-57414342D01*
X155725714Y-57414342D02*
X155678095Y-57509580D01*
X155678095Y-57509580D02*
X155630476Y-57557200D01*
X155630476Y-57557200D02*
X155535238Y-57604819D01*
X155535238Y-57604819D02*
X155249524Y-57604819D01*
X155249524Y-57604819D02*
X155154286Y-57557200D01*
X155154286Y-57557200D02*
X155106667Y-57509580D01*
X87740057Y-66770238D02*
X87692438Y-66865476D01*
X87692438Y-66865476D02*
X87597200Y-66960714D01*
X87597200Y-66960714D02*
X87454342Y-67103571D01*
X87454342Y-67103571D02*
X87406723Y-67198809D01*
X87406723Y-67198809D02*
X87406723Y-67294047D01*
X87644819Y-67246428D02*
X87597200Y-67341666D01*
X87597200Y-67341666D02*
X87501961Y-67436904D01*
X87501961Y-67436904D02*
X87311485Y-67484523D01*
X87311485Y-67484523D02*
X86978152Y-67484523D01*
X86978152Y-67484523D02*
X86787676Y-67436904D01*
X86787676Y-67436904D02*
X86692438Y-67341666D01*
X86692438Y-67341666D02*
X86644819Y-67246428D01*
X86644819Y-67246428D02*
X86644819Y-67055952D01*
X86644819Y-67055952D02*
X86692438Y-66960714D01*
X86692438Y-66960714D02*
X86787676Y-66865476D01*
X86787676Y-66865476D02*
X86978152Y-66817857D01*
X86978152Y-66817857D02*
X87311485Y-66817857D01*
X87311485Y-66817857D02*
X87501961Y-66865476D01*
X87501961Y-66865476D02*
X87597200Y-66960714D01*
X87597200Y-66960714D02*
X87644819Y-67055952D01*
X87644819Y-67055952D02*
X87644819Y-67246428D01*
X86740057Y-66436904D02*
X86692438Y-66389285D01*
X86692438Y-66389285D02*
X86644819Y-66294047D01*
X86644819Y-66294047D02*
X86644819Y-66055952D01*
X86644819Y-66055952D02*
X86692438Y-65960714D01*
X86692438Y-65960714D02*
X86740057Y-65913095D01*
X86740057Y-65913095D02*
X86835295Y-65865476D01*
X86835295Y-65865476D02*
X86930533Y-65865476D01*
X86930533Y-65865476D02*
X87073390Y-65913095D01*
X87073390Y-65913095D02*
X87644819Y-66484523D01*
X87644819Y-66484523D02*
X87644819Y-65865476D01*
X76708095Y-76019819D02*
X76708095Y-75019819D01*
X76708095Y-75019819D02*
X77279523Y-76019819D01*
X77279523Y-76019819D02*
X77279523Y-75019819D01*
X78279523Y-76019819D02*
X77708095Y-76019819D01*
X77993809Y-76019819D02*
X77993809Y-75019819D01*
X77993809Y-75019819D02*
X77898571Y-75162676D01*
X77898571Y-75162676D02*
X77803333Y-75257914D01*
X77803333Y-75257914D02*
X77708095Y-75305533D01*
X161575952Y-40142438D02*
X161480714Y-40094819D01*
X161480714Y-40094819D02*
X161337857Y-40094819D01*
X161337857Y-40094819D02*
X161195000Y-40142438D01*
X161195000Y-40142438D02*
X161099762Y-40237676D01*
X161099762Y-40237676D02*
X161052143Y-40332914D01*
X161052143Y-40332914D02*
X161004524Y-40523390D01*
X161004524Y-40523390D02*
X161004524Y-40666247D01*
X161004524Y-40666247D02*
X161052143Y-40856723D01*
X161052143Y-40856723D02*
X161099762Y-40951961D01*
X161099762Y-40951961D02*
X161195000Y-41047200D01*
X161195000Y-41047200D02*
X161337857Y-41094819D01*
X161337857Y-41094819D02*
X161433095Y-41094819D01*
X161433095Y-41094819D02*
X161575952Y-41047200D01*
X161575952Y-41047200D02*
X161623571Y-40999580D01*
X161623571Y-40999580D02*
X161623571Y-40666247D01*
X161623571Y-40666247D02*
X161433095Y-40666247D01*
X162052143Y-41094819D02*
X162052143Y-40094819D01*
X162052143Y-40094819D02*
X162623571Y-41094819D01*
X162623571Y-41094819D02*
X162623571Y-40094819D01*
X163099762Y-41094819D02*
X163099762Y-40094819D01*
X163099762Y-40094819D02*
X163337857Y-40094819D01*
X163337857Y-40094819D02*
X163480714Y-40142438D01*
X163480714Y-40142438D02*
X163575952Y-40237676D01*
X163575952Y-40237676D02*
X163623571Y-40332914D01*
X163623571Y-40332914D02*
X163671190Y-40523390D01*
X163671190Y-40523390D02*
X163671190Y-40666247D01*
X163671190Y-40666247D02*
X163623571Y-40856723D01*
X163623571Y-40856723D02*
X163575952Y-40951961D01*
X163575952Y-40951961D02*
X163480714Y-41047200D01*
X163480714Y-41047200D02*
X163337857Y-41094819D01*
X163337857Y-41094819D02*
X163099762Y-41094819D01*
X163956905Y-40094819D02*
X164528333Y-40094819D01*
X164242619Y-41094819D02*
X164242619Y-40094819D01*
X164814048Y-40190057D02*
X164861667Y-40142438D01*
X164861667Y-40142438D02*
X164956905Y-40094819D01*
X164956905Y-40094819D02*
X165195000Y-40094819D01*
X165195000Y-40094819D02*
X165290238Y-40142438D01*
X165290238Y-40142438D02*
X165337857Y-40190057D01*
X165337857Y-40190057D02*
X165385476Y-40285295D01*
X165385476Y-40285295D02*
X165385476Y-40380533D01*
X165385476Y-40380533D02*
X165337857Y-40523390D01*
X165337857Y-40523390D02*
X164766429Y-41094819D01*
X164766429Y-41094819D02*
X165385476Y-41094819D01*
X153145057Y-54070238D02*
X153097438Y-54165476D01*
X153097438Y-54165476D02*
X153002200Y-54260714D01*
X153002200Y-54260714D02*
X152859342Y-54403571D01*
X152859342Y-54403571D02*
X152811723Y-54498809D01*
X152811723Y-54498809D02*
X152811723Y-54594047D01*
X153049819Y-54546428D02*
X153002200Y-54641666D01*
X153002200Y-54641666D02*
X152906961Y-54736904D01*
X152906961Y-54736904D02*
X152716485Y-54784523D01*
X152716485Y-54784523D02*
X152383152Y-54784523D01*
X152383152Y-54784523D02*
X152192676Y-54736904D01*
X152192676Y-54736904D02*
X152097438Y-54641666D01*
X152097438Y-54641666D02*
X152049819Y-54546428D01*
X152049819Y-54546428D02*
X152049819Y-54355952D01*
X152049819Y-54355952D02*
X152097438Y-54260714D01*
X152097438Y-54260714D02*
X152192676Y-54165476D01*
X152192676Y-54165476D02*
X152383152Y-54117857D01*
X152383152Y-54117857D02*
X152716485Y-54117857D01*
X152716485Y-54117857D02*
X152906961Y-54165476D01*
X152906961Y-54165476D02*
X153002200Y-54260714D01*
X153002200Y-54260714D02*
X153049819Y-54355952D01*
X153049819Y-54355952D02*
X153049819Y-54546428D01*
X152049819Y-53784523D02*
X152049819Y-53165476D01*
X152049819Y-53165476D02*
X152430771Y-53498809D01*
X152430771Y-53498809D02*
X152430771Y-53355952D01*
X152430771Y-53355952D02*
X152478390Y-53260714D01*
X152478390Y-53260714D02*
X152526009Y-53213095D01*
X152526009Y-53213095D02*
X152621247Y-53165476D01*
X152621247Y-53165476D02*
X152859342Y-53165476D01*
X152859342Y-53165476D02*
X152954580Y-53213095D01*
X152954580Y-53213095D02*
X153002200Y-53260714D01*
X153002200Y-53260714D02*
X153049819Y-53355952D01*
X153049819Y-53355952D02*
X153049819Y-53641666D01*
X153049819Y-53641666D02*
X153002200Y-53736904D01*
X153002200Y-53736904D02*
X152954580Y-53784523D01*
X77364819Y-66841666D02*
X76888628Y-67174999D01*
X77364819Y-67413094D02*
X76364819Y-67413094D01*
X76364819Y-67413094D02*
X76364819Y-67032142D01*
X76364819Y-67032142D02*
X76412438Y-66936904D01*
X76412438Y-66936904D02*
X76460057Y-66889285D01*
X76460057Y-66889285D02*
X76555295Y-66841666D01*
X76555295Y-66841666D02*
X76698152Y-66841666D01*
X76698152Y-66841666D02*
X76793390Y-66889285D01*
X76793390Y-66889285D02*
X76841009Y-66936904D01*
X76841009Y-66936904D02*
X76888628Y-67032142D01*
X76888628Y-67032142D02*
X76888628Y-67413094D01*
X76460057Y-66460713D02*
X76412438Y-66413094D01*
X76412438Y-66413094D02*
X76364819Y-66317856D01*
X76364819Y-66317856D02*
X76364819Y-66079761D01*
X76364819Y-66079761D02*
X76412438Y-65984523D01*
X76412438Y-65984523D02*
X76460057Y-65936904D01*
X76460057Y-65936904D02*
X76555295Y-65889285D01*
X76555295Y-65889285D02*
X76650533Y-65889285D01*
X76650533Y-65889285D02*
X76793390Y-65936904D01*
X76793390Y-65936904D02*
X77364819Y-66508332D01*
X77364819Y-66508332D02*
X77364819Y-65889285D01*
X77120952Y-40142438D02*
X77025714Y-40094819D01*
X77025714Y-40094819D02*
X76882857Y-40094819D01*
X76882857Y-40094819D02*
X76740000Y-40142438D01*
X76740000Y-40142438D02*
X76644762Y-40237676D01*
X76644762Y-40237676D02*
X76597143Y-40332914D01*
X76597143Y-40332914D02*
X76549524Y-40523390D01*
X76549524Y-40523390D02*
X76549524Y-40666247D01*
X76549524Y-40666247D02*
X76597143Y-40856723D01*
X76597143Y-40856723D02*
X76644762Y-40951961D01*
X76644762Y-40951961D02*
X76740000Y-41047200D01*
X76740000Y-41047200D02*
X76882857Y-41094819D01*
X76882857Y-41094819D02*
X76978095Y-41094819D01*
X76978095Y-41094819D02*
X77120952Y-41047200D01*
X77120952Y-41047200D02*
X77168571Y-40999580D01*
X77168571Y-40999580D02*
X77168571Y-40666247D01*
X77168571Y-40666247D02*
X76978095Y-40666247D01*
X77597143Y-41094819D02*
X77597143Y-40094819D01*
X77597143Y-40094819D02*
X78168571Y-41094819D01*
X78168571Y-41094819D02*
X78168571Y-40094819D01*
X78644762Y-41094819D02*
X78644762Y-40094819D01*
X78644762Y-40094819D02*
X78882857Y-40094819D01*
X78882857Y-40094819D02*
X79025714Y-40142438D01*
X79025714Y-40142438D02*
X79120952Y-40237676D01*
X79120952Y-40237676D02*
X79168571Y-40332914D01*
X79168571Y-40332914D02*
X79216190Y-40523390D01*
X79216190Y-40523390D02*
X79216190Y-40666247D01*
X79216190Y-40666247D02*
X79168571Y-40856723D01*
X79168571Y-40856723D02*
X79120952Y-40951961D01*
X79120952Y-40951961D02*
X79025714Y-41047200D01*
X79025714Y-41047200D02*
X78882857Y-41094819D01*
X78882857Y-41094819D02*
X78644762Y-41094819D01*
X79501905Y-40094819D02*
X80073333Y-40094819D01*
X79787619Y-41094819D02*
X79787619Y-40094819D01*
X80930476Y-41094819D02*
X80359048Y-41094819D01*
X80644762Y-41094819D02*
X80644762Y-40094819D01*
X80644762Y-40094819D02*
X80549524Y-40237676D01*
X80549524Y-40237676D02*
X80454286Y-40332914D01*
X80454286Y-40332914D02*
X80359048Y-40380533D01*
X72279819Y-68048094D02*
X71279819Y-68048094D01*
X71279819Y-68048094D02*
X71279819Y-67809999D01*
X71279819Y-67809999D02*
X71327438Y-67667142D01*
X71327438Y-67667142D02*
X71422676Y-67571904D01*
X71422676Y-67571904D02*
X71517914Y-67524285D01*
X71517914Y-67524285D02*
X71708390Y-67476666D01*
X71708390Y-67476666D02*
X71851247Y-67476666D01*
X71851247Y-67476666D02*
X72041723Y-67524285D01*
X72041723Y-67524285D02*
X72136961Y-67571904D01*
X72136961Y-67571904D02*
X72232200Y-67667142D01*
X72232200Y-67667142D02*
X72279819Y-67809999D01*
X72279819Y-67809999D02*
X72279819Y-68048094D01*
X71279819Y-67143332D02*
X71279819Y-66524285D01*
X71279819Y-66524285D02*
X71660771Y-66857618D01*
X71660771Y-66857618D02*
X71660771Y-66714761D01*
X71660771Y-66714761D02*
X71708390Y-66619523D01*
X71708390Y-66619523D02*
X71756009Y-66571904D01*
X71756009Y-66571904D02*
X71851247Y-66524285D01*
X71851247Y-66524285D02*
X72089342Y-66524285D01*
X72089342Y-66524285D02*
X72184580Y-66571904D01*
X72184580Y-66571904D02*
X72232200Y-66619523D01*
X72232200Y-66619523D02*
X72279819Y-66714761D01*
X72279819Y-66714761D02*
X72279819Y-67000475D01*
X72279819Y-67000475D02*
X72232200Y-67095713D01*
X72232200Y-67095713D02*
X72184580Y-67143332D01*
X72649819Y-72651904D02*
X71649819Y-72651904D01*
X72649819Y-72080476D02*
X72078390Y-72509047D01*
X71649819Y-72080476D02*
X72221247Y-72651904D01*
X57023095Y-51739819D02*
X57023095Y-52549342D01*
X57023095Y-52549342D02*
X57070714Y-52644580D01*
X57070714Y-52644580D02*
X57118333Y-52692200D01*
X57118333Y-52692200D02*
X57213571Y-52739819D01*
X57213571Y-52739819D02*
X57404047Y-52739819D01*
X57404047Y-52739819D02*
X57499285Y-52692200D01*
X57499285Y-52692200D02*
X57546904Y-52644580D01*
X57546904Y-52644580D02*
X57594523Y-52549342D01*
X57594523Y-52549342D02*
X57594523Y-51739819D01*
X58594523Y-52739819D02*
X58023095Y-52739819D01*
X58308809Y-52739819D02*
X58308809Y-51739819D01*
X58308809Y-51739819D02*
X58213571Y-51882676D01*
X58213571Y-51882676D02*
X58118333Y-51977914D01*
X58118333Y-51977914D02*
X58023095Y-52025533D01*
X115339642Y-66314819D02*
X114863452Y-66314819D01*
X114863452Y-66314819D02*
X114863452Y-65314819D01*
X115625357Y-66267200D02*
X115768214Y-66314819D01*
X115768214Y-66314819D02*
X116006309Y-66314819D01*
X116006309Y-66314819D02*
X116101547Y-66267200D01*
X116101547Y-66267200D02*
X116149166Y-66219580D01*
X116149166Y-66219580D02*
X116196785Y-66124342D01*
X116196785Y-66124342D02*
X116196785Y-66029104D01*
X116196785Y-66029104D02*
X116149166Y-65933866D01*
X116149166Y-65933866D02*
X116101547Y-65886247D01*
X116101547Y-65886247D02*
X116006309Y-65838628D01*
X116006309Y-65838628D02*
X115815833Y-65791009D01*
X115815833Y-65791009D02*
X115720595Y-65743390D01*
X115720595Y-65743390D02*
X115672976Y-65695771D01*
X115672976Y-65695771D02*
X115625357Y-65600533D01*
X115625357Y-65600533D02*
X115625357Y-65505295D01*
X115625357Y-65505295D02*
X115672976Y-65410057D01*
X115672976Y-65410057D02*
X115720595Y-65362438D01*
X115720595Y-65362438D02*
X115815833Y-65314819D01*
X115815833Y-65314819D02*
X116053928Y-65314819D01*
X116053928Y-65314819D02*
X116196785Y-65362438D01*
X117149166Y-66314819D02*
X116577738Y-66314819D01*
X116863452Y-66314819D02*
X116863452Y-65314819D01*
X116863452Y-65314819D02*
X116768214Y-65457676D01*
X116768214Y-65457676D02*
X116672976Y-65552914D01*
X116672976Y-65552914D02*
X116577738Y-65600533D01*
X72279819Y-54078094D02*
X71279819Y-54078094D01*
X71279819Y-54078094D02*
X71279819Y-53839999D01*
X71279819Y-53839999D02*
X71327438Y-53697142D01*
X71327438Y-53697142D02*
X71422676Y-53601904D01*
X71422676Y-53601904D02*
X71517914Y-53554285D01*
X71517914Y-53554285D02*
X71708390Y-53506666D01*
X71708390Y-53506666D02*
X71851247Y-53506666D01*
X71851247Y-53506666D02*
X72041723Y-53554285D01*
X72041723Y-53554285D02*
X72136961Y-53601904D01*
X72136961Y-53601904D02*
X72232200Y-53697142D01*
X72232200Y-53697142D02*
X72279819Y-53839999D01*
X72279819Y-53839999D02*
X72279819Y-54078094D01*
X71375057Y-53125713D02*
X71327438Y-53078094D01*
X71327438Y-53078094D02*
X71279819Y-52982856D01*
X71279819Y-52982856D02*
X71279819Y-52744761D01*
X71279819Y-52744761D02*
X71327438Y-52649523D01*
X71327438Y-52649523D02*
X71375057Y-52601904D01*
X71375057Y-52601904D02*
X71470295Y-52554285D01*
X71470295Y-52554285D02*
X71565533Y-52554285D01*
X71565533Y-52554285D02*
X71708390Y-52601904D01*
X71708390Y-52601904D02*
X72279819Y-53173332D01*
X72279819Y-53173332D02*
X72279819Y-52554285D01*
X72649819Y-58681904D02*
X71649819Y-58681904D01*
X72649819Y-58110476D02*
X72078390Y-58539047D01*
X71649819Y-58110476D02*
X72221247Y-58681904D01*
X77364819Y-54141666D02*
X76888628Y-54474999D01*
X77364819Y-54713094D02*
X76364819Y-54713094D01*
X76364819Y-54713094D02*
X76364819Y-54332142D01*
X76364819Y-54332142D02*
X76412438Y-54236904D01*
X76412438Y-54236904D02*
X76460057Y-54189285D01*
X76460057Y-54189285D02*
X76555295Y-54141666D01*
X76555295Y-54141666D02*
X76698152Y-54141666D01*
X76698152Y-54141666D02*
X76793390Y-54189285D01*
X76793390Y-54189285D02*
X76841009Y-54236904D01*
X76841009Y-54236904D02*
X76888628Y-54332142D01*
X76888628Y-54332142D02*
X76888628Y-54713094D01*
X77364819Y-53189285D02*
X77364819Y-53760713D01*
X77364819Y-53474999D02*
X76364819Y-53474999D01*
X76364819Y-53474999D02*
X76507676Y-53570237D01*
X76507676Y-53570237D02*
X76602914Y-53665475D01*
X76602914Y-53665475D02*
X76650533Y-53760713D01*
X157384819Y-68078094D02*
X156384819Y-68078094D01*
X156384819Y-68078094D02*
X156384819Y-67839999D01*
X156384819Y-67839999D02*
X156432438Y-67697142D01*
X156432438Y-67697142D02*
X156527676Y-67601904D01*
X156527676Y-67601904D02*
X156622914Y-67554285D01*
X156622914Y-67554285D02*
X156813390Y-67506666D01*
X156813390Y-67506666D02*
X156956247Y-67506666D01*
X156956247Y-67506666D02*
X157146723Y-67554285D01*
X157146723Y-67554285D02*
X157241961Y-67601904D01*
X157241961Y-67601904D02*
X157337200Y-67697142D01*
X157337200Y-67697142D02*
X157384819Y-67839999D01*
X157384819Y-67839999D02*
X157384819Y-68078094D01*
X156384819Y-66601904D02*
X156384819Y-67078094D01*
X156384819Y-67078094D02*
X156861009Y-67125713D01*
X156861009Y-67125713D02*
X156813390Y-67078094D01*
X156813390Y-67078094D02*
X156765771Y-66982856D01*
X156765771Y-66982856D02*
X156765771Y-66744761D01*
X156765771Y-66744761D02*
X156813390Y-66649523D01*
X156813390Y-66649523D02*
X156861009Y-66601904D01*
X156861009Y-66601904D02*
X156956247Y-66554285D01*
X156956247Y-66554285D02*
X157194342Y-66554285D01*
X157194342Y-66554285D02*
X157289580Y-66601904D01*
X157289580Y-66601904D02*
X157337200Y-66649523D01*
X157337200Y-66649523D02*
X157384819Y-66744761D01*
X157384819Y-66744761D02*
X157384819Y-66982856D01*
X157384819Y-66982856D02*
X157337200Y-67078094D01*
X157337200Y-67078094D02*
X157289580Y-67125713D01*
X157754819Y-72681904D02*
X156754819Y-72681904D01*
X157754819Y-72110476D02*
X157183390Y-72539047D01*
X156754819Y-72110476D02*
X157326247Y-72681904D01*
X96353333Y-56779819D02*
X95877143Y-56779819D01*
X95877143Y-56779819D02*
X95877143Y-55779819D01*
X97210476Y-56779819D02*
X96639048Y-56779819D01*
X96924762Y-56779819D02*
X96924762Y-55779819D01*
X96924762Y-55779819D02*
X96829524Y-55922676D01*
X96829524Y-55922676D02*
X96734286Y-56017914D01*
X96734286Y-56017914D02*
X96639048Y-56065533D01*
X154773333Y-70689819D02*
X154440000Y-70213628D01*
X154201905Y-70689819D02*
X154201905Y-69689819D01*
X154201905Y-69689819D02*
X154582857Y-69689819D01*
X154582857Y-69689819D02*
X154678095Y-69737438D01*
X154678095Y-69737438D02*
X154725714Y-69785057D01*
X154725714Y-69785057D02*
X154773333Y-69880295D01*
X154773333Y-69880295D02*
X154773333Y-70023152D01*
X154773333Y-70023152D02*
X154725714Y-70118390D01*
X154725714Y-70118390D02*
X154678095Y-70166009D01*
X154678095Y-70166009D02*
X154582857Y-70213628D01*
X154582857Y-70213628D02*
X154201905Y-70213628D01*
X155630476Y-70023152D02*
X155630476Y-70689819D01*
X155392381Y-69642200D02*
X155154286Y-70356485D01*
X155154286Y-70356485D02*
X155773333Y-70356485D01*
X137628333Y-40809580D02*
X137580714Y-40857200D01*
X137580714Y-40857200D02*
X137437857Y-40904819D01*
X137437857Y-40904819D02*
X137342619Y-40904819D01*
X137342619Y-40904819D02*
X137199762Y-40857200D01*
X137199762Y-40857200D02*
X137104524Y-40761961D01*
X137104524Y-40761961D02*
X137056905Y-40666723D01*
X137056905Y-40666723D02*
X137009286Y-40476247D01*
X137009286Y-40476247D02*
X137009286Y-40333390D01*
X137009286Y-40333390D02*
X137056905Y-40142914D01*
X137056905Y-40142914D02*
X137104524Y-40047676D01*
X137104524Y-40047676D02*
X137199762Y-39952438D01*
X137199762Y-39952438D02*
X137342619Y-39904819D01*
X137342619Y-39904819D02*
X137437857Y-39904819D01*
X137437857Y-39904819D02*
X137580714Y-39952438D01*
X137580714Y-39952438D02*
X137628333Y-40000057D01*
X137961667Y-39904819D02*
X138580714Y-39904819D01*
X138580714Y-39904819D02*
X138247381Y-40285771D01*
X138247381Y-40285771D02*
X138390238Y-40285771D01*
X138390238Y-40285771D02*
X138485476Y-40333390D01*
X138485476Y-40333390D02*
X138533095Y-40381009D01*
X138533095Y-40381009D02*
X138580714Y-40476247D01*
X138580714Y-40476247D02*
X138580714Y-40714342D01*
X138580714Y-40714342D02*
X138533095Y-40809580D01*
X138533095Y-40809580D02*
X138485476Y-40857200D01*
X138485476Y-40857200D02*
X138390238Y-40904819D01*
X138390238Y-40904819D02*
X138104524Y-40904819D01*
X138104524Y-40904819D02*
X138009286Y-40857200D01*
X138009286Y-40857200D02*
X137961667Y-40809580D01*
X173531905Y-47504819D02*
X173531905Y-46504819D01*
X173531905Y-46504819D02*
X173770000Y-46504819D01*
X173770000Y-46504819D02*
X173912857Y-46552438D01*
X173912857Y-46552438D02*
X174008095Y-46647676D01*
X174008095Y-46647676D02*
X174055714Y-46742914D01*
X174055714Y-46742914D02*
X174103333Y-46933390D01*
X174103333Y-46933390D02*
X174103333Y-47076247D01*
X174103333Y-47076247D02*
X174055714Y-47266723D01*
X174055714Y-47266723D02*
X174008095Y-47361961D01*
X174008095Y-47361961D02*
X173912857Y-47457200D01*
X173912857Y-47457200D02*
X173770000Y-47504819D01*
X173770000Y-47504819D02*
X173531905Y-47504819D01*
X174960476Y-46504819D02*
X174770000Y-46504819D01*
X174770000Y-46504819D02*
X174674762Y-46552438D01*
X174674762Y-46552438D02*
X174627143Y-46600057D01*
X174627143Y-46600057D02*
X174531905Y-46742914D01*
X174531905Y-46742914D02*
X174484286Y-46933390D01*
X174484286Y-46933390D02*
X174484286Y-47314342D01*
X174484286Y-47314342D02*
X174531905Y-47409580D01*
X174531905Y-47409580D02*
X174579524Y-47457200D01*
X174579524Y-47457200D02*
X174674762Y-47504819D01*
X174674762Y-47504819D02*
X174865238Y-47504819D01*
X174865238Y-47504819D02*
X174960476Y-47457200D01*
X174960476Y-47457200D02*
X175008095Y-47409580D01*
X175008095Y-47409580D02*
X175055714Y-47314342D01*
X175055714Y-47314342D02*
X175055714Y-47076247D01*
X175055714Y-47076247D02*
X175008095Y-46981009D01*
X175008095Y-46981009D02*
X174960476Y-46933390D01*
X174960476Y-46933390D02*
X174865238Y-46885771D01*
X174865238Y-46885771D02*
X174674762Y-46885771D01*
X174674762Y-46885771D02*
X174579524Y-46933390D01*
X174579524Y-46933390D02*
X174531905Y-46981009D01*
X174531905Y-46981009D02*
X174484286Y-47076247D01*
X168928095Y-47874819D02*
X168928095Y-46874819D01*
X169499523Y-47874819D02*
X169070952Y-47303390D01*
X169499523Y-46874819D02*
X168928095Y-47446247D01*
X166207142Y-60589580D02*
X166159523Y-60637200D01*
X166159523Y-60637200D02*
X166016666Y-60684819D01*
X166016666Y-60684819D02*
X165921428Y-60684819D01*
X165921428Y-60684819D02*
X165778571Y-60637200D01*
X165778571Y-60637200D02*
X165683333Y-60541961D01*
X165683333Y-60541961D02*
X165635714Y-60446723D01*
X165635714Y-60446723D02*
X165588095Y-60256247D01*
X165588095Y-60256247D02*
X165588095Y-60113390D01*
X165588095Y-60113390D02*
X165635714Y-59922914D01*
X165635714Y-59922914D02*
X165683333Y-59827676D01*
X165683333Y-59827676D02*
X165778571Y-59732438D01*
X165778571Y-59732438D02*
X165921428Y-59684819D01*
X165921428Y-59684819D02*
X166016666Y-59684819D01*
X166016666Y-59684819D02*
X166159523Y-59732438D01*
X166159523Y-59732438D02*
X166207142Y-59780057D01*
X167159523Y-60684819D02*
X166588095Y-60684819D01*
X166873809Y-60684819D02*
X166873809Y-59684819D01*
X166873809Y-59684819D02*
X166778571Y-59827676D01*
X166778571Y-59827676D02*
X166683333Y-59922914D01*
X166683333Y-59922914D02*
X166588095Y-59970533D01*
X167492857Y-59684819D02*
X168111904Y-59684819D01*
X168111904Y-59684819D02*
X167778571Y-60065771D01*
X167778571Y-60065771D02*
X167921428Y-60065771D01*
X167921428Y-60065771D02*
X168016666Y-60113390D01*
X168016666Y-60113390D02*
X168064285Y-60161009D01*
X168064285Y-60161009D02*
X168111904Y-60256247D01*
X168111904Y-60256247D02*
X168111904Y-60494342D01*
X168111904Y-60494342D02*
X168064285Y-60589580D01*
X168064285Y-60589580D02*
X168016666Y-60637200D01*
X168016666Y-60637200D02*
X167921428Y-60684819D01*
X167921428Y-60684819D02*
X167635714Y-60684819D01*
X167635714Y-60684819D02*
X167540476Y-60637200D01*
X167540476Y-60637200D02*
X167492857Y-60589580D01*
X174498095Y-51824819D02*
X174498095Y-52634342D01*
X174498095Y-52634342D02*
X174545714Y-52729580D01*
X174545714Y-52729580D02*
X174593333Y-52777200D01*
X174593333Y-52777200D02*
X174688571Y-52824819D01*
X174688571Y-52824819D02*
X174879047Y-52824819D01*
X174879047Y-52824819D02*
X174974285Y-52777200D01*
X174974285Y-52777200D02*
X175021904Y-52729580D01*
X175021904Y-52729580D02*
X175069523Y-52634342D01*
X175069523Y-52634342D02*
X175069523Y-51824819D01*
X175498095Y-51920057D02*
X175545714Y-51872438D01*
X175545714Y-51872438D02*
X175640952Y-51824819D01*
X175640952Y-51824819D02*
X175879047Y-51824819D01*
X175879047Y-51824819D02*
X175974285Y-51872438D01*
X175974285Y-51872438D02*
X176021904Y-51920057D01*
X176021904Y-51920057D02*
X176069523Y-52015295D01*
X176069523Y-52015295D02*
X176069523Y-52110533D01*
X176069523Y-52110533D02*
X176021904Y-52253390D01*
X176021904Y-52253390D02*
X175450476Y-52824819D01*
X175450476Y-52824819D02*
X176069523Y-52824819D01*
X83653333Y-47929580D02*
X83605714Y-47977200D01*
X83605714Y-47977200D02*
X83462857Y-48024819D01*
X83462857Y-48024819D02*
X83367619Y-48024819D01*
X83367619Y-48024819D02*
X83224762Y-47977200D01*
X83224762Y-47977200D02*
X83129524Y-47881961D01*
X83129524Y-47881961D02*
X83081905Y-47786723D01*
X83081905Y-47786723D02*
X83034286Y-47596247D01*
X83034286Y-47596247D02*
X83034286Y-47453390D01*
X83034286Y-47453390D02*
X83081905Y-47262914D01*
X83081905Y-47262914D02*
X83129524Y-47167676D01*
X83129524Y-47167676D02*
X83224762Y-47072438D01*
X83224762Y-47072438D02*
X83367619Y-47024819D01*
X83367619Y-47024819D02*
X83462857Y-47024819D01*
X83462857Y-47024819D02*
X83605714Y-47072438D01*
X83605714Y-47072438D02*
X83653333Y-47120057D01*
X83986667Y-47024819D02*
X84653333Y-47024819D01*
X84653333Y-47024819D02*
X84224762Y-48024819D01*
D15*
%TO.C,C8*%
X64267651Y-74520000D02*
X65067651Y-74520000D01*
X64667651Y-74120000D02*
X64667651Y-74920000D01*
X68677349Y-72755000D02*
X68677349Y-80915000D01*
X68717349Y-72755000D02*
X68717349Y-80915000D01*
X68757349Y-72756000D02*
X68757349Y-80914000D01*
X68797349Y-72757000D02*
X68797349Y-80913000D01*
X68837349Y-72758000D02*
X68837349Y-80912000D01*
X68877349Y-72760000D02*
X68877349Y-80910000D01*
X68917349Y-72762000D02*
X68917349Y-80908000D01*
X68957349Y-72765000D02*
X68957349Y-80905000D01*
X68997349Y-72767000D02*
X68997349Y-80903000D01*
X69037349Y-72771000D02*
X69037349Y-80899000D01*
X69077349Y-72774000D02*
X69077349Y-80896000D01*
X69117349Y-72779000D02*
X69117349Y-80891000D01*
X69157349Y-72783000D02*
X69157349Y-80887000D01*
X69197349Y-72788000D02*
X69197349Y-80882000D01*
X69237349Y-72793000D02*
X69237349Y-80877000D01*
X69277349Y-72799000D02*
X69277349Y-80871000D01*
X69317349Y-72805000D02*
X69317349Y-80865000D01*
X69357349Y-72812000D02*
X69357349Y-80858000D01*
X69397349Y-72818000D02*
X69397349Y-80852000D01*
X69437349Y-72826000D02*
X69437349Y-80844000D01*
X69477349Y-72833000D02*
X69477349Y-80837000D01*
X69517349Y-72842000D02*
X69517349Y-80828000D01*
X69557349Y-72850000D02*
X69557349Y-75795000D01*
X69557349Y-77875000D02*
X69557349Y-80820000D01*
X69597349Y-72859000D02*
X69597349Y-75795000D01*
X69597349Y-77875000D02*
X69597349Y-80811000D01*
X69637349Y-72868000D02*
X69637349Y-75795000D01*
X69637349Y-77875000D02*
X69637349Y-80802000D01*
X69677349Y-72878000D02*
X69677349Y-75795000D01*
X69677349Y-77875000D02*
X69677349Y-80792000D01*
X69717349Y-72888000D02*
X69717349Y-75795000D01*
X69717349Y-77875000D02*
X69717349Y-80782000D01*
X69757349Y-72899000D02*
X69757349Y-75795000D01*
X69757349Y-77875000D02*
X69757349Y-80771000D01*
X69797349Y-72910000D02*
X69797349Y-75795000D01*
X69797349Y-77875000D02*
X69797349Y-80760000D01*
X69837349Y-72922000D02*
X69837349Y-75795000D01*
X69837349Y-77875000D02*
X69837349Y-80748000D01*
X69877349Y-72934000D02*
X69877349Y-75795000D01*
X69877349Y-77875000D02*
X69877349Y-80736000D01*
X69917349Y-72946000D02*
X69917349Y-75795000D01*
X69917349Y-77875000D02*
X69917349Y-80724000D01*
X69957349Y-72959000D02*
X69957349Y-75795000D01*
X69957349Y-77875000D02*
X69957349Y-80711000D01*
X69997349Y-72972000D02*
X69997349Y-75795000D01*
X69997349Y-77875000D02*
X69997349Y-80698000D01*
X70037349Y-72986000D02*
X70037349Y-75795000D01*
X70037349Y-77875000D02*
X70037349Y-80684000D01*
X70077349Y-73000000D02*
X70077349Y-75795000D01*
X70077349Y-77875000D02*
X70077349Y-80670000D01*
X70117349Y-73015000D02*
X70117349Y-75795000D01*
X70117349Y-77875000D02*
X70117349Y-80655000D01*
X70157349Y-73030000D02*
X70157349Y-75795000D01*
X70157349Y-77875000D02*
X70157349Y-80640000D01*
X70197349Y-73046000D02*
X70197349Y-75795000D01*
X70197349Y-77875000D02*
X70197349Y-80624000D01*
X70237349Y-73062000D02*
X70237349Y-75795000D01*
X70237349Y-77875000D02*
X70237349Y-80608000D01*
X70277349Y-73078000D02*
X70277349Y-75795000D01*
X70277349Y-77875000D02*
X70277349Y-80592000D01*
X70317349Y-73095000D02*
X70317349Y-75795000D01*
X70317349Y-77875000D02*
X70317349Y-80575000D01*
X70357349Y-73113000D02*
X70357349Y-75795000D01*
X70357349Y-77875000D02*
X70357349Y-80557000D01*
X70397349Y-73131000D02*
X70397349Y-75795000D01*
X70397349Y-77875000D02*
X70397349Y-80539000D01*
X70437349Y-73150000D02*
X70437349Y-75795000D01*
X70437349Y-77875000D02*
X70437349Y-80520000D01*
X70477349Y-73169000D02*
X70477349Y-75795000D01*
X70477349Y-77875000D02*
X70477349Y-80501000D01*
X70517349Y-73189000D02*
X70517349Y-75795000D01*
X70517349Y-77875000D02*
X70517349Y-80481000D01*
X70557349Y-73209000D02*
X70557349Y-75795000D01*
X70557349Y-77875000D02*
X70557349Y-80461000D01*
X70597349Y-73230000D02*
X70597349Y-75795000D01*
X70597349Y-77875000D02*
X70597349Y-80440000D01*
X70637349Y-73251000D02*
X70637349Y-75795000D01*
X70637349Y-77875000D02*
X70637349Y-80419000D01*
X70677349Y-73273000D02*
X70677349Y-75795000D01*
X70677349Y-77875000D02*
X70677349Y-80397000D01*
X70717349Y-73296000D02*
X70717349Y-75795000D01*
X70717349Y-77875000D02*
X70717349Y-80374000D01*
X70757349Y-73319000D02*
X70757349Y-75795000D01*
X70757349Y-77875000D02*
X70757349Y-80351000D01*
X70797349Y-73342000D02*
X70797349Y-75795000D01*
X70797349Y-77875000D02*
X70797349Y-80328000D01*
X70837349Y-73367000D02*
X70837349Y-75795000D01*
X70837349Y-77875000D02*
X70837349Y-80303000D01*
X70877349Y-73392000D02*
X70877349Y-75795000D01*
X70877349Y-77875000D02*
X70877349Y-80278000D01*
X70917349Y-73417000D02*
X70917349Y-75795000D01*
X70917349Y-77875000D02*
X70917349Y-80253000D01*
X70957349Y-73443000D02*
X70957349Y-75795000D01*
X70957349Y-77875000D02*
X70957349Y-80227000D01*
X70997349Y-73470000D02*
X70997349Y-75795000D01*
X70997349Y-77875000D02*
X70997349Y-80200000D01*
X71037349Y-73498000D02*
X71037349Y-75795000D01*
X71037349Y-77875000D02*
X71037349Y-80172000D01*
X71077349Y-73526000D02*
X71077349Y-75795000D01*
X71077349Y-77875000D02*
X71077349Y-80144000D01*
X71117349Y-73555000D02*
X71117349Y-75795000D01*
X71117349Y-77875000D02*
X71117349Y-80115000D01*
X71157349Y-73585000D02*
X71157349Y-75795000D01*
X71157349Y-77875000D02*
X71157349Y-80085000D01*
X71197349Y-73616000D02*
X71197349Y-75795000D01*
X71197349Y-77875000D02*
X71197349Y-80054000D01*
X71237349Y-73647000D02*
X71237349Y-75795000D01*
X71237349Y-77875000D02*
X71237349Y-80023000D01*
X71277349Y-73679000D02*
X71277349Y-75795000D01*
X71277349Y-77875000D02*
X71277349Y-79991000D01*
X71317349Y-73712000D02*
X71317349Y-75795000D01*
X71317349Y-77875000D02*
X71317349Y-79958000D01*
X71357349Y-73746000D02*
X71357349Y-75795000D01*
X71357349Y-77875000D02*
X71357349Y-79924000D01*
X71397349Y-73780000D02*
X71397349Y-75795000D01*
X71397349Y-77875000D02*
X71397349Y-79890000D01*
X71437349Y-73816000D02*
X71437349Y-75795000D01*
X71437349Y-77875000D02*
X71437349Y-79854000D01*
X71477349Y-73853000D02*
X71477349Y-75795000D01*
X71477349Y-77875000D02*
X71477349Y-79817000D01*
X71517349Y-73890000D02*
X71517349Y-75795000D01*
X71517349Y-77875000D02*
X71517349Y-79780000D01*
X71557349Y-73929000D02*
X71557349Y-75795000D01*
X71557349Y-77875000D02*
X71557349Y-79741000D01*
X71597349Y-73968000D02*
X71597349Y-75795000D01*
X71597349Y-77875000D02*
X71597349Y-79702000D01*
X71637349Y-74009000D02*
X71637349Y-79661000D01*
X71677349Y-74051000D02*
X71677349Y-79619000D01*
X71717349Y-74094000D02*
X71717349Y-79576000D01*
X71757349Y-74139000D02*
X71757349Y-79531000D01*
X71797349Y-74184000D02*
X71797349Y-79486000D01*
X71837349Y-74231000D02*
X71837349Y-79439000D01*
X71877349Y-74280000D02*
X71877349Y-79390000D01*
X71917349Y-74330000D02*
X71917349Y-79340000D01*
X71957349Y-74382000D02*
X71957349Y-79288000D01*
X71997349Y-74435000D02*
X71997349Y-79235000D01*
X72037349Y-74491000D02*
X72037349Y-79179000D01*
X72077349Y-74548000D02*
X72077349Y-79122000D01*
X72117349Y-74608000D02*
X72117349Y-79062000D01*
X72157349Y-74670000D02*
X72157349Y-79000000D01*
X72197349Y-74734000D02*
X72197349Y-78936000D01*
X72237349Y-74801000D02*
X72237349Y-78869000D01*
X72277349Y-74871000D02*
X72277349Y-78799000D01*
X72317349Y-74945000D02*
X72317349Y-78725000D01*
X72357349Y-75022000D02*
X72357349Y-78648000D01*
X72397349Y-75104000D02*
X72397349Y-78566000D01*
X72437349Y-75191000D02*
X72437349Y-78479000D01*
X72477349Y-75283000D02*
X72477349Y-78387000D01*
X72517349Y-75382000D02*
X72517349Y-78288000D01*
X72557349Y-75489000D02*
X72557349Y-78181000D01*
X72597349Y-75607000D02*
X72597349Y-78063000D01*
X72637349Y-75738000D02*
X72637349Y-77932000D01*
X72677349Y-75888000D02*
X72677349Y-77782000D01*
X72717349Y-76067000D02*
X72717349Y-77603000D01*
X72757349Y-76302000D02*
X72757349Y-77368000D01*
X72797349Y-76835000D02*
G75*
G02*
X64557349Y-76835000I-4120000J0D01*
G01*
X64557349Y-76835000D02*
G75*
G02*
X72797349Y-76835000I4120000J0D01*
G01*
%TO.C,C12*%
X66400000Y-60883748D02*
X66400000Y-62306252D01*
X68220000Y-60883748D02*
X68220000Y-62306252D01*
D13*
%TO.C,GQ4*%
X147320000Y-76200000D02*
G75*
G02*
X144780000Y-76200000I-1270000J0D01*
G01*
X144780000Y-76200000D02*
G75*
G02*
X147320000Y-76200000I1270000J0D01*
G01*
D16*
X147350000Y-74930000D02*
G75*
G02*
X147290000Y-74930000I-30000J0D01*
G01*
X147290000Y-74930000D02*
G75*
G02*
X147350000Y-74930000I30000J0D01*
G01*
D13*
%TO.C,GQ2*%
X73025000Y-43180000D02*
G75*
G02*
X70485000Y-43180000I-1270000J0D01*
G01*
X70485000Y-43180000D02*
G75*
G02*
X73025000Y-43180000I1270000J0D01*
G01*
D16*
X73055000Y-41910000D02*
G75*
G02*
X72995000Y-41910000I-30000J0D01*
G01*
X72995000Y-41910000D02*
G75*
G02*
X73055000Y-41910000I30000J0D01*
G01*
D15*
%TO.C,C1*%
X64550113Y-66470000D02*
X65050113Y-66470000D01*
X64800113Y-66220000D02*
X64800113Y-66720000D01*
X67354888Y-65365000D02*
X67354888Y-66905000D01*
X67354888Y-68985000D02*
X67354888Y-70525000D01*
X67394888Y-65365000D02*
X67394888Y-66905000D01*
X67394888Y-68985000D02*
X67394888Y-70525000D01*
X67434888Y-65366000D02*
X67434888Y-66905000D01*
X67434888Y-68985000D02*
X67434888Y-70524000D01*
X67474888Y-65368000D02*
X67474888Y-66905000D01*
X67474888Y-68985000D02*
X67474888Y-70522000D01*
X67514888Y-65370000D02*
X67514888Y-66905000D01*
X67514888Y-68985000D02*
X67514888Y-70520000D01*
X67554888Y-65373000D02*
X67554888Y-66905000D01*
X67554888Y-68985000D02*
X67554888Y-70517000D01*
X67594888Y-65376000D02*
X67594888Y-66905000D01*
X67594888Y-68985000D02*
X67594888Y-70514000D01*
X67634888Y-65380000D02*
X67634888Y-66905000D01*
X67634888Y-68985000D02*
X67634888Y-70510000D01*
X67674888Y-65385000D02*
X67674888Y-66905000D01*
X67674888Y-68985000D02*
X67674888Y-70505000D01*
X67714888Y-65390000D02*
X67714888Y-66905000D01*
X67714888Y-68985000D02*
X67714888Y-70500000D01*
X67754888Y-65396000D02*
X67754888Y-66905000D01*
X67754888Y-68985000D02*
X67754888Y-70494000D01*
X67794888Y-65402000D02*
X67794888Y-66905000D01*
X67794888Y-68985000D02*
X67794888Y-70488000D01*
X67834888Y-65409000D02*
X67834888Y-66905000D01*
X67834888Y-68985000D02*
X67834888Y-70481000D01*
X67874888Y-65417000D02*
X67874888Y-66905000D01*
X67874888Y-68985000D02*
X67874888Y-70473000D01*
X67914888Y-65426000D02*
X67914888Y-66905000D01*
X67914888Y-68985000D02*
X67914888Y-70464000D01*
X67954888Y-65435000D02*
X67954888Y-66905000D01*
X67954888Y-68985000D02*
X67954888Y-70455000D01*
X67994888Y-65444000D02*
X67994888Y-66905000D01*
X67994888Y-68985000D02*
X67994888Y-70446000D01*
X68034888Y-65455000D02*
X68034888Y-66905000D01*
X68034888Y-68985000D02*
X68034888Y-70435000D01*
X68074888Y-65466000D02*
X68074888Y-66905000D01*
X68074888Y-68985000D02*
X68074888Y-70424000D01*
X68114888Y-65478000D02*
X68114888Y-66905000D01*
X68114888Y-68985000D02*
X68114888Y-70412000D01*
X68154888Y-65490000D02*
X68154888Y-66905000D01*
X68154888Y-68985000D02*
X68154888Y-70400000D01*
X68194888Y-65503000D02*
X68194888Y-66905000D01*
X68194888Y-68985000D02*
X68194888Y-70387000D01*
X68234888Y-65517000D02*
X68234888Y-66905000D01*
X68234888Y-68985000D02*
X68234888Y-70373000D01*
X68274888Y-65532000D02*
X68274888Y-66905000D01*
X68274888Y-68985000D02*
X68274888Y-70358000D01*
X68314888Y-65547000D02*
X68314888Y-66905000D01*
X68314888Y-68985000D02*
X68314888Y-70343000D01*
X68354888Y-65563000D02*
X68354888Y-66905000D01*
X68354888Y-68985000D02*
X68354888Y-70327000D01*
X68394888Y-65580000D02*
X68394888Y-66905000D01*
X68394888Y-68985000D02*
X68394888Y-70310000D01*
X68434888Y-65598000D02*
X68434888Y-66905000D01*
X68434888Y-68985000D02*
X68434888Y-70292000D01*
X68474888Y-65616000D02*
X68474888Y-66905000D01*
X68474888Y-68985000D02*
X68474888Y-70274000D01*
X68514888Y-65636000D02*
X68514888Y-66905000D01*
X68514888Y-68985000D02*
X68514888Y-70254000D01*
X68554888Y-65656000D02*
X68554888Y-66905000D01*
X68554888Y-68985000D02*
X68554888Y-70234000D01*
X68594888Y-65677000D02*
X68594888Y-66905000D01*
X68594888Y-68985000D02*
X68594888Y-70213000D01*
X68634888Y-65699000D02*
X68634888Y-66905000D01*
X68634888Y-68985000D02*
X68634888Y-70191000D01*
X68674888Y-65722000D02*
X68674888Y-66905000D01*
X68674888Y-68985000D02*
X68674888Y-70168000D01*
X68714888Y-65746000D02*
X68714888Y-66905000D01*
X68714888Y-68985000D02*
X68714888Y-70144000D01*
X68754888Y-65770000D02*
X68754888Y-66905000D01*
X68754888Y-68985000D02*
X68754888Y-70120000D01*
X68794888Y-65796000D02*
X68794888Y-66905000D01*
X68794888Y-68985000D02*
X68794888Y-70094000D01*
X68834888Y-65823000D02*
X68834888Y-66905000D01*
X68834888Y-68985000D02*
X68834888Y-70067000D01*
X68874888Y-65851000D02*
X68874888Y-66905000D01*
X68874888Y-68985000D02*
X68874888Y-70039000D01*
X68914888Y-65880000D02*
X68914888Y-66905000D01*
X68914888Y-68985000D02*
X68914888Y-70010000D01*
X68954888Y-65910000D02*
X68954888Y-66905000D01*
X68954888Y-68985000D02*
X68954888Y-69980000D01*
X68994888Y-65942000D02*
X68994888Y-66905000D01*
X68994888Y-68985000D02*
X68994888Y-69948000D01*
X69034888Y-65975000D02*
X69034888Y-66905000D01*
X69034888Y-68985000D02*
X69034888Y-69915000D01*
X69074888Y-66009000D02*
X69074888Y-66905000D01*
X69074888Y-68985000D02*
X69074888Y-69881000D01*
X69114888Y-66044000D02*
X69114888Y-66905000D01*
X69114888Y-68985000D02*
X69114888Y-69846000D01*
X69154888Y-66081000D02*
X69154888Y-66905000D01*
X69154888Y-68985000D02*
X69154888Y-69809000D01*
X69194888Y-66120000D02*
X69194888Y-66905000D01*
X69194888Y-68985000D02*
X69194888Y-69770000D01*
X69234888Y-66160000D02*
X69234888Y-66905000D01*
X69234888Y-68985000D02*
X69234888Y-69730000D01*
X69274888Y-66202000D02*
X69274888Y-66905000D01*
X69274888Y-68985000D02*
X69274888Y-69688000D01*
X69314888Y-66246000D02*
X69314888Y-66905000D01*
X69314888Y-68985000D02*
X69314888Y-69644000D01*
X69354888Y-66293000D02*
X69354888Y-66905000D01*
X69354888Y-68985000D02*
X69354888Y-69597000D01*
X69394888Y-66341000D02*
X69394888Y-69549000D01*
X69434888Y-66392000D02*
X69434888Y-69498000D01*
X69474888Y-66446000D02*
X69474888Y-69444000D01*
X69514888Y-66502000D02*
X69514888Y-69388000D01*
X69554888Y-66562000D02*
X69554888Y-69328000D01*
X69594888Y-66626000D02*
X69594888Y-69264000D01*
X69634888Y-66694000D02*
X69634888Y-69196000D01*
X69674888Y-66768000D02*
X69674888Y-69122000D01*
X69714888Y-66847000D02*
X69714888Y-69043000D01*
X69754888Y-66934000D02*
X69754888Y-68956000D01*
X69794888Y-67031000D02*
X69794888Y-68859000D01*
X69834888Y-67140000D02*
X69834888Y-68750000D01*
X69874888Y-67268000D02*
X69874888Y-68622000D01*
X69914888Y-67428000D02*
X69914888Y-68462000D01*
X69954888Y-67662000D02*
X69954888Y-68228000D01*
X69974888Y-67945000D02*
G75*
G02*
X64734888Y-67945000I-2620000J0D01*
G01*
X64734888Y-67945000D02*
G75*
G02*
X69974888Y-67945000I2620000J0D01*
G01*
D13*
%TO.C,GNDT3*%
X106680000Y-73660000D02*
G75*
G02*
X104140000Y-73660000I-1270000J0D01*
G01*
X104140000Y-73660000D02*
G75*
G02*
X106680000Y-73660000I1270000J0D01*
G01*
D16*
X106710000Y-72390000D02*
G75*
G02*
X106650000Y-72390000I-30000J0D01*
G01*
X106650000Y-72390000D02*
G75*
G02*
X106710000Y-72390000I30000J0D01*
G01*
D15*
%TO.C,D1*%
X55090000Y-49510000D02*
X56110000Y-49510000D01*
X56890000Y-48040000D02*
X56890000Y-50980000D01*
X57010000Y-48040000D02*
X57010000Y-50980000D01*
X57130000Y-48040000D02*
X57130000Y-50980000D01*
X62570000Y-49510000D02*
X61550000Y-49510000D01*
X56110000Y-48040000D02*
X61550000Y-48040000D01*
X61550000Y-50980000D01*
X56110000Y-50980000D01*
X56110000Y-48040000D01*
%TO.C,J2*%
X92710000Y-70675000D02*
X92710000Y-76645000D01*
X92710000Y-76645000D02*
X100330000Y-76645000D01*
X92720000Y-74385000D02*
X93470000Y-74385000D01*
X92720000Y-75885000D02*
X92720000Y-76635000D01*
X92720000Y-76635000D02*
X94520000Y-76635000D01*
X93470000Y-71435000D02*
X96520000Y-71435000D01*
X93470000Y-74385000D02*
X93470000Y-71435000D01*
X94520000Y-75885000D02*
X92720000Y-75885000D01*
X94520000Y-76635000D02*
X94520000Y-75885000D01*
X96020000Y-75885000D02*
X96020000Y-76635000D01*
X96020000Y-76635000D02*
X97020000Y-76635000D01*
X97020000Y-75885000D02*
X96020000Y-75885000D01*
X97020000Y-76635000D02*
X97020000Y-75885000D01*
X98520000Y-75885000D02*
X98520000Y-76635000D01*
X98520000Y-76635000D02*
X100320000Y-76635000D01*
X99370000Y-76935000D02*
X100620000Y-76935000D01*
X99570000Y-71435000D02*
X96520000Y-71435000D01*
X99570000Y-74385000D02*
X99570000Y-71435000D01*
X100320000Y-74385000D02*
X99570000Y-74385000D01*
X100320000Y-75885000D02*
X98520000Y-75885000D01*
X100320000Y-76635000D02*
X100320000Y-75885000D01*
X100330000Y-70675000D02*
X92710000Y-70675000D01*
X100330000Y-76645000D02*
X100330000Y-70675000D01*
X100620000Y-76935000D02*
X100620000Y-75685000D01*
%TO.C,J1*%
X131615000Y-70180000D02*
X138635000Y-70180000D01*
X131615000Y-78260000D02*
X131615000Y-70180000D01*
X136225000Y-69380000D02*
X136825000Y-69380000D01*
X136525000Y-69980000D02*
X136225000Y-69380000D01*
X136825000Y-69380000D02*
X136525000Y-69980000D01*
X138635000Y-70180000D02*
X138635000Y-71380000D01*
X138635000Y-71380000D02*
X140335000Y-71380000D01*
X138635000Y-77060000D02*
X138635000Y-78260000D01*
X138635000Y-78260000D02*
X131615000Y-78260000D01*
X140335000Y-71380000D02*
X140335000Y-77060000D01*
X140335000Y-77060000D02*
X138635000Y-77060000D01*
%TO.C,C9*%
X163200225Y-55040000D02*
X163700225Y-55040000D01*
X163450225Y-54790000D02*
X163450225Y-55290000D01*
X166005000Y-53935000D02*
X166005000Y-55475000D01*
X166005000Y-57555000D02*
X166005000Y-59095000D01*
X166045000Y-53935000D02*
X166045000Y-55475000D01*
X166045000Y-57555000D02*
X166045000Y-59095000D01*
X166085000Y-53936000D02*
X166085000Y-55475000D01*
X166085000Y-57555000D02*
X166085000Y-59094000D01*
X166125000Y-53938000D02*
X166125000Y-55475000D01*
X166125000Y-57555000D02*
X166125000Y-59092000D01*
X166165000Y-53940000D02*
X166165000Y-55475000D01*
X166165000Y-57555000D02*
X166165000Y-59090000D01*
X166205000Y-53943000D02*
X166205000Y-55475000D01*
X166205000Y-57555000D02*
X166205000Y-59087000D01*
X166245000Y-53946000D02*
X166245000Y-55475000D01*
X166245000Y-57555000D02*
X166245000Y-59084000D01*
X166285000Y-53950000D02*
X166285000Y-55475000D01*
X166285000Y-57555000D02*
X166285000Y-59080000D01*
X166325000Y-53955000D02*
X166325000Y-55475000D01*
X166325000Y-57555000D02*
X166325000Y-59075000D01*
X166365000Y-53960000D02*
X166365000Y-55475000D01*
X166365000Y-57555000D02*
X166365000Y-59070000D01*
X166405000Y-53966000D02*
X166405000Y-55475000D01*
X166405000Y-57555000D02*
X166405000Y-59064000D01*
X166445000Y-53972000D02*
X166445000Y-55475000D01*
X166445000Y-57555000D02*
X166445000Y-59058000D01*
X166485000Y-53979000D02*
X166485000Y-55475000D01*
X166485000Y-57555000D02*
X166485000Y-59051000D01*
X166525000Y-53987000D02*
X166525000Y-55475000D01*
X166525000Y-57555000D02*
X166525000Y-59043000D01*
X166565000Y-53996000D02*
X166565000Y-55475000D01*
X166565000Y-57555000D02*
X166565000Y-59034000D01*
X166605000Y-54005000D02*
X166605000Y-55475000D01*
X166605000Y-57555000D02*
X166605000Y-59025000D01*
X166645000Y-54014000D02*
X166645000Y-55475000D01*
X166645000Y-57555000D02*
X166645000Y-59016000D01*
X166685000Y-54025000D02*
X166685000Y-55475000D01*
X166685000Y-57555000D02*
X166685000Y-59005000D01*
X166725000Y-54036000D02*
X166725000Y-55475000D01*
X166725000Y-57555000D02*
X166725000Y-58994000D01*
X166765000Y-54048000D02*
X166765000Y-55475000D01*
X166765000Y-57555000D02*
X166765000Y-58982000D01*
X166805000Y-54060000D02*
X166805000Y-55475000D01*
X166805000Y-57555000D02*
X166805000Y-58970000D01*
X166845000Y-54073000D02*
X166845000Y-55475000D01*
X166845000Y-57555000D02*
X166845000Y-58957000D01*
X166885000Y-54087000D02*
X166885000Y-55475000D01*
X166885000Y-57555000D02*
X166885000Y-58943000D01*
X166925000Y-54102000D02*
X166925000Y-55475000D01*
X166925000Y-57555000D02*
X166925000Y-58928000D01*
X166965000Y-54117000D02*
X166965000Y-55475000D01*
X166965000Y-57555000D02*
X166965000Y-58913000D01*
X167005000Y-54133000D02*
X167005000Y-55475000D01*
X167005000Y-57555000D02*
X167005000Y-58897000D01*
X167045000Y-54150000D02*
X167045000Y-55475000D01*
X167045000Y-57555000D02*
X167045000Y-58880000D01*
X167085000Y-54168000D02*
X167085000Y-55475000D01*
X167085000Y-57555000D02*
X167085000Y-58862000D01*
X167125000Y-54186000D02*
X167125000Y-55475000D01*
X167125000Y-57555000D02*
X167125000Y-58844000D01*
X167165000Y-54206000D02*
X167165000Y-55475000D01*
X167165000Y-57555000D02*
X167165000Y-58824000D01*
X167205000Y-54226000D02*
X167205000Y-55475000D01*
X167205000Y-57555000D02*
X167205000Y-58804000D01*
X167245000Y-54247000D02*
X167245000Y-55475000D01*
X167245000Y-57555000D02*
X167245000Y-58783000D01*
X167285000Y-54269000D02*
X167285000Y-55475000D01*
X167285000Y-57555000D02*
X167285000Y-58761000D01*
X167325000Y-54292000D02*
X167325000Y-55475000D01*
X167325000Y-57555000D02*
X167325000Y-58738000D01*
X167365000Y-54316000D02*
X167365000Y-55475000D01*
X167365000Y-57555000D02*
X167365000Y-58714000D01*
X167405000Y-54340000D02*
X167405000Y-55475000D01*
X167405000Y-57555000D02*
X167405000Y-58690000D01*
X167445000Y-54366000D02*
X167445000Y-55475000D01*
X167445000Y-57555000D02*
X167445000Y-58664000D01*
X167485000Y-54393000D02*
X167485000Y-55475000D01*
X167485000Y-57555000D02*
X167485000Y-58637000D01*
X167525000Y-54421000D02*
X167525000Y-55475000D01*
X167525000Y-57555000D02*
X167525000Y-58609000D01*
X167565000Y-54450000D02*
X167565000Y-55475000D01*
X167565000Y-57555000D02*
X167565000Y-58580000D01*
X167605000Y-54480000D02*
X167605000Y-55475000D01*
X167605000Y-57555000D02*
X167605000Y-58550000D01*
X167645000Y-54512000D02*
X167645000Y-55475000D01*
X167645000Y-57555000D02*
X167645000Y-58518000D01*
X167685000Y-54545000D02*
X167685000Y-55475000D01*
X167685000Y-57555000D02*
X167685000Y-58485000D01*
X167725000Y-54579000D02*
X167725000Y-55475000D01*
X167725000Y-57555000D02*
X167725000Y-58451000D01*
X167765000Y-54614000D02*
X167765000Y-55475000D01*
X167765000Y-57555000D02*
X167765000Y-58416000D01*
X167805000Y-54651000D02*
X167805000Y-55475000D01*
X167805000Y-57555000D02*
X167805000Y-58379000D01*
X167845000Y-54690000D02*
X167845000Y-55475000D01*
X167845000Y-57555000D02*
X167845000Y-58340000D01*
X167885000Y-54730000D02*
X167885000Y-55475000D01*
X167885000Y-57555000D02*
X167885000Y-58300000D01*
X167925000Y-54772000D02*
X167925000Y-55475000D01*
X167925000Y-57555000D02*
X167925000Y-58258000D01*
X167965000Y-54816000D02*
X167965000Y-55475000D01*
X167965000Y-57555000D02*
X167965000Y-58214000D01*
X168005000Y-54863000D02*
X168005000Y-55475000D01*
X168005000Y-57555000D02*
X168005000Y-58167000D01*
X168045000Y-54911000D02*
X168045000Y-58119000D01*
X168085000Y-54962000D02*
X168085000Y-58068000D01*
X168125000Y-55016000D02*
X168125000Y-58014000D01*
X168165000Y-55072000D02*
X168165000Y-57958000D01*
X168205000Y-55132000D02*
X168205000Y-57898000D01*
X168245000Y-55196000D02*
X168245000Y-57834000D01*
X168285000Y-55264000D02*
X168285000Y-57766000D01*
X168325000Y-55338000D02*
X168325000Y-57692000D01*
X168365000Y-55417000D02*
X168365000Y-57613000D01*
X168405000Y-55504000D02*
X168405000Y-57526000D01*
X168445000Y-55601000D02*
X168445000Y-57429000D01*
X168485000Y-55710000D02*
X168485000Y-57320000D01*
X168525000Y-55838000D02*
X168525000Y-57192000D01*
X168565000Y-55998000D02*
X168565000Y-57032000D01*
X168605000Y-56232000D02*
X168605000Y-56798000D01*
X168625000Y-56515000D02*
G75*
G02*
X163385000Y-56515000I-2620000J0D01*
G01*
X163385000Y-56515000D02*
G75*
G02*
X168625000Y-56515000I2620000J0D01*
G01*
%TO.C,C10*%
X162340113Y-66470000D02*
X162840113Y-66470000D01*
X162590113Y-66220000D02*
X162590113Y-66720000D01*
X165144888Y-65365000D02*
X165144888Y-66905000D01*
X165144888Y-68985000D02*
X165144888Y-70525000D01*
X165184888Y-65365000D02*
X165184888Y-66905000D01*
X165184888Y-68985000D02*
X165184888Y-70525000D01*
X165224888Y-65366000D02*
X165224888Y-66905000D01*
X165224888Y-68985000D02*
X165224888Y-70524000D01*
X165264888Y-65368000D02*
X165264888Y-66905000D01*
X165264888Y-68985000D02*
X165264888Y-70522000D01*
X165304888Y-65370000D02*
X165304888Y-66905000D01*
X165304888Y-68985000D02*
X165304888Y-70520000D01*
X165344888Y-65373000D02*
X165344888Y-66905000D01*
X165344888Y-68985000D02*
X165344888Y-70517000D01*
X165384888Y-65376000D02*
X165384888Y-66905000D01*
X165384888Y-68985000D02*
X165384888Y-70514000D01*
X165424888Y-65380000D02*
X165424888Y-66905000D01*
X165424888Y-68985000D02*
X165424888Y-70510000D01*
X165464888Y-65385000D02*
X165464888Y-66905000D01*
X165464888Y-68985000D02*
X165464888Y-70505000D01*
X165504888Y-65390000D02*
X165504888Y-66905000D01*
X165504888Y-68985000D02*
X165504888Y-70500000D01*
X165544888Y-65396000D02*
X165544888Y-66905000D01*
X165544888Y-68985000D02*
X165544888Y-70494000D01*
X165584888Y-65402000D02*
X165584888Y-66905000D01*
X165584888Y-68985000D02*
X165584888Y-70488000D01*
X165624888Y-65409000D02*
X165624888Y-66905000D01*
X165624888Y-68985000D02*
X165624888Y-70481000D01*
X165664888Y-65417000D02*
X165664888Y-66905000D01*
X165664888Y-68985000D02*
X165664888Y-70473000D01*
X165704888Y-65426000D02*
X165704888Y-66905000D01*
X165704888Y-68985000D02*
X165704888Y-70464000D01*
X165744888Y-65435000D02*
X165744888Y-66905000D01*
X165744888Y-68985000D02*
X165744888Y-70455000D01*
X165784888Y-65444000D02*
X165784888Y-66905000D01*
X165784888Y-68985000D02*
X165784888Y-70446000D01*
X165824888Y-65455000D02*
X165824888Y-66905000D01*
X165824888Y-68985000D02*
X165824888Y-70435000D01*
X165864888Y-65466000D02*
X165864888Y-66905000D01*
X165864888Y-68985000D02*
X165864888Y-70424000D01*
X165904888Y-65478000D02*
X165904888Y-66905000D01*
X165904888Y-68985000D02*
X165904888Y-70412000D01*
X165944888Y-65490000D02*
X165944888Y-66905000D01*
X165944888Y-68985000D02*
X165944888Y-70400000D01*
X165984888Y-65503000D02*
X165984888Y-66905000D01*
X165984888Y-68985000D02*
X165984888Y-70387000D01*
X166024888Y-65517000D02*
X166024888Y-66905000D01*
X166024888Y-68985000D02*
X166024888Y-70373000D01*
X166064888Y-65532000D02*
X166064888Y-66905000D01*
X166064888Y-68985000D02*
X166064888Y-70358000D01*
X166104888Y-65547000D02*
X166104888Y-66905000D01*
X166104888Y-68985000D02*
X166104888Y-70343000D01*
X166144888Y-65563000D02*
X166144888Y-66905000D01*
X166144888Y-68985000D02*
X166144888Y-70327000D01*
X166184888Y-65580000D02*
X166184888Y-66905000D01*
X166184888Y-68985000D02*
X166184888Y-70310000D01*
X166224888Y-65598000D02*
X166224888Y-66905000D01*
X166224888Y-68985000D02*
X166224888Y-70292000D01*
X166264888Y-65616000D02*
X166264888Y-66905000D01*
X166264888Y-68985000D02*
X166264888Y-70274000D01*
X166304888Y-65636000D02*
X166304888Y-66905000D01*
X166304888Y-68985000D02*
X166304888Y-70254000D01*
X166344888Y-65656000D02*
X166344888Y-66905000D01*
X166344888Y-68985000D02*
X166344888Y-70234000D01*
X166384888Y-65677000D02*
X166384888Y-66905000D01*
X166384888Y-68985000D02*
X166384888Y-70213000D01*
X166424888Y-65699000D02*
X166424888Y-66905000D01*
X166424888Y-68985000D02*
X166424888Y-70191000D01*
X166464888Y-65722000D02*
X166464888Y-66905000D01*
X166464888Y-68985000D02*
X166464888Y-70168000D01*
X166504888Y-65746000D02*
X166504888Y-66905000D01*
X166504888Y-68985000D02*
X166504888Y-70144000D01*
X166544888Y-65770000D02*
X166544888Y-66905000D01*
X166544888Y-68985000D02*
X166544888Y-70120000D01*
X166584888Y-65796000D02*
X166584888Y-66905000D01*
X166584888Y-68985000D02*
X166584888Y-70094000D01*
X166624888Y-65823000D02*
X166624888Y-66905000D01*
X166624888Y-68985000D02*
X166624888Y-70067000D01*
X166664888Y-65851000D02*
X166664888Y-66905000D01*
X166664888Y-68985000D02*
X166664888Y-70039000D01*
X166704888Y-65880000D02*
X166704888Y-66905000D01*
X166704888Y-68985000D02*
X166704888Y-70010000D01*
X166744888Y-65910000D02*
X166744888Y-66905000D01*
X166744888Y-68985000D02*
X166744888Y-69980000D01*
X166784888Y-65942000D02*
X166784888Y-66905000D01*
X166784888Y-68985000D02*
X166784888Y-69948000D01*
X166824888Y-65975000D02*
X166824888Y-66905000D01*
X166824888Y-68985000D02*
X166824888Y-69915000D01*
X166864888Y-66009000D02*
X166864888Y-66905000D01*
X166864888Y-68985000D02*
X166864888Y-69881000D01*
X166904888Y-66044000D02*
X166904888Y-66905000D01*
X166904888Y-68985000D02*
X166904888Y-69846000D01*
X166944888Y-66081000D02*
X166944888Y-66905000D01*
X166944888Y-68985000D02*
X166944888Y-69809000D01*
X166984888Y-66120000D02*
X166984888Y-66905000D01*
X166984888Y-68985000D02*
X166984888Y-69770000D01*
X167024888Y-66160000D02*
X167024888Y-66905000D01*
X167024888Y-68985000D02*
X167024888Y-69730000D01*
X167064888Y-66202000D02*
X167064888Y-66905000D01*
X167064888Y-68985000D02*
X167064888Y-69688000D01*
X167104888Y-66246000D02*
X167104888Y-66905000D01*
X167104888Y-68985000D02*
X167104888Y-69644000D01*
X167144888Y-66293000D02*
X167144888Y-66905000D01*
X167144888Y-68985000D02*
X167144888Y-69597000D01*
X167184888Y-66341000D02*
X167184888Y-69549000D01*
X167224888Y-66392000D02*
X167224888Y-69498000D01*
X167264888Y-66446000D02*
X167264888Y-69444000D01*
X167304888Y-66502000D02*
X167304888Y-69388000D01*
X167344888Y-66562000D02*
X167344888Y-69328000D01*
X167384888Y-66626000D02*
X167384888Y-69264000D01*
X167424888Y-66694000D02*
X167424888Y-69196000D01*
X167464888Y-66768000D02*
X167464888Y-69122000D01*
X167504888Y-66847000D02*
X167504888Y-69043000D01*
X167544888Y-66934000D02*
X167544888Y-68956000D01*
X167584888Y-67031000D02*
X167584888Y-68859000D01*
X167624888Y-67140000D02*
X167624888Y-68750000D01*
X167664888Y-67268000D02*
X167664888Y-68622000D01*
X167704888Y-67428000D02*
X167704888Y-68462000D01*
X167744888Y-67662000D02*
X167744888Y-68228000D01*
X167764888Y-67945000D02*
G75*
G02*
X162524888Y-67945000I-2620000J0D01*
G01*
X162524888Y-67945000D02*
G75*
G02*
X167764888Y-67945000I2620000J0D01*
G01*
D13*
%TO.C,L2*%
X129590000Y-54025000D02*
X129590000Y-57595000D01*
X129590000Y-63055000D02*
X129590000Y-66625000D01*
X129590000Y-66625000D02*
X142190000Y-66625000D01*
X142190000Y-54025000D02*
X129590000Y-54025000D01*
X142190000Y-57595000D02*
X142190000Y-54025000D01*
X142190000Y-66625000D02*
X142190000Y-63055000D01*
D16*
X129170000Y-66625000D02*
G75*
G02*
X129110000Y-66625000I-30000J0D01*
G01*
X129110000Y-66625000D02*
G75*
G02*
X129170000Y-66625000I30000J0D01*
G01*
D15*
%TO.C,C11*%
X149936252Y-45445000D02*
X148513748Y-45445000D01*
X149936252Y-47265000D02*
X148513748Y-47265000D01*
%TO.C,R6*%
X174532936Y-72750000D02*
X175987064Y-72750000D01*
X174532936Y-74570000D02*
X175987064Y-74570000D01*
%TO.C,C4*%
X160695302Y-76425000D02*
X161495302Y-76425000D01*
X161095302Y-76025000D02*
X161095302Y-76825000D01*
X165105000Y-74660000D02*
X165105000Y-82820000D01*
X165145000Y-74660000D02*
X165145000Y-82820000D01*
X165185000Y-74661000D02*
X165185000Y-82819000D01*
X165225000Y-74662000D02*
X165225000Y-82818000D01*
X165265000Y-74663000D02*
X165265000Y-82817000D01*
X165305000Y-74665000D02*
X165305000Y-82815000D01*
X165345000Y-74667000D02*
X165345000Y-82813000D01*
X165385000Y-74670000D02*
X165385000Y-82810000D01*
X165425000Y-74672000D02*
X165425000Y-82808000D01*
X165465000Y-74676000D02*
X165465000Y-82804000D01*
X165505000Y-74679000D02*
X165505000Y-82801000D01*
X165545000Y-74684000D02*
X165545000Y-82796000D01*
X165585000Y-74688000D02*
X165585000Y-82792000D01*
X165625000Y-74693000D02*
X165625000Y-82787000D01*
X165665000Y-74698000D02*
X165665000Y-82782000D01*
X165705000Y-74704000D02*
X165705000Y-82776000D01*
X165745000Y-74710000D02*
X165745000Y-82770000D01*
X165785000Y-74717000D02*
X165785000Y-82763000D01*
X165825000Y-74723000D02*
X165825000Y-82757000D01*
X165865000Y-74731000D02*
X165865000Y-82749000D01*
X165905000Y-74738000D02*
X165905000Y-82742000D01*
X165945000Y-74747000D02*
X165945000Y-82733000D01*
X165985000Y-74755000D02*
X165985000Y-77700000D01*
X165985000Y-79780000D02*
X165985000Y-82725000D01*
X166025000Y-74764000D02*
X166025000Y-77700000D01*
X166025000Y-79780000D02*
X166025000Y-82716000D01*
X166065000Y-74773000D02*
X166065000Y-77700000D01*
X166065000Y-79780000D02*
X166065000Y-82707000D01*
X166105000Y-74783000D02*
X166105000Y-77700000D01*
X166105000Y-79780000D02*
X166105000Y-82697000D01*
X166145000Y-74793000D02*
X166145000Y-77700000D01*
X166145000Y-79780000D02*
X166145000Y-82687000D01*
X166185000Y-74804000D02*
X166185000Y-77700000D01*
X166185000Y-79780000D02*
X166185000Y-82676000D01*
X166225000Y-74815000D02*
X166225000Y-77700000D01*
X166225000Y-79780000D02*
X166225000Y-82665000D01*
X166265000Y-74827000D02*
X166265000Y-77700000D01*
X166265000Y-79780000D02*
X166265000Y-82653000D01*
X166305000Y-74839000D02*
X166305000Y-77700000D01*
X166305000Y-79780000D02*
X166305000Y-82641000D01*
X166345000Y-74851000D02*
X166345000Y-77700000D01*
X166345000Y-79780000D02*
X166345000Y-82629000D01*
X166385000Y-74864000D02*
X166385000Y-77700000D01*
X166385000Y-79780000D02*
X166385000Y-82616000D01*
X166425000Y-74877000D02*
X166425000Y-77700000D01*
X166425000Y-79780000D02*
X166425000Y-82603000D01*
X166465000Y-74891000D02*
X166465000Y-77700000D01*
X166465000Y-79780000D02*
X166465000Y-82589000D01*
X166505000Y-74905000D02*
X166505000Y-77700000D01*
X166505000Y-79780000D02*
X166505000Y-82575000D01*
X166545000Y-74920000D02*
X166545000Y-77700000D01*
X166545000Y-79780000D02*
X166545000Y-82560000D01*
X166585000Y-74935000D02*
X166585000Y-77700000D01*
X166585000Y-79780000D02*
X166585000Y-82545000D01*
X166625000Y-74951000D02*
X166625000Y-77700000D01*
X166625000Y-79780000D02*
X166625000Y-82529000D01*
X166665000Y-74967000D02*
X166665000Y-77700000D01*
X166665000Y-79780000D02*
X166665000Y-82513000D01*
X166705000Y-74983000D02*
X166705000Y-77700000D01*
X166705000Y-79780000D02*
X166705000Y-82497000D01*
X166745000Y-75000000D02*
X166745000Y-77700000D01*
X166745000Y-79780000D02*
X166745000Y-82480000D01*
X166785000Y-75018000D02*
X166785000Y-77700000D01*
X166785000Y-79780000D02*
X166785000Y-82462000D01*
X166825000Y-75036000D02*
X166825000Y-77700000D01*
X166825000Y-79780000D02*
X166825000Y-82444000D01*
X166865000Y-75055000D02*
X166865000Y-77700000D01*
X166865000Y-79780000D02*
X166865000Y-82425000D01*
X166905000Y-75074000D02*
X166905000Y-77700000D01*
X166905000Y-79780000D02*
X166905000Y-82406000D01*
X166945000Y-75094000D02*
X166945000Y-77700000D01*
X166945000Y-79780000D02*
X166945000Y-82386000D01*
X166985000Y-75114000D02*
X166985000Y-77700000D01*
X166985000Y-79780000D02*
X166985000Y-82366000D01*
X167025000Y-75135000D02*
X167025000Y-77700000D01*
X167025000Y-79780000D02*
X167025000Y-82345000D01*
X167065000Y-75156000D02*
X167065000Y-77700000D01*
X167065000Y-79780000D02*
X167065000Y-82324000D01*
X167105000Y-75178000D02*
X167105000Y-77700000D01*
X167105000Y-79780000D02*
X167105000Y-82302000D01*
X167145000Y-75201000D02*
X167145000Y-77700000D01*
X167145000Y-79780000D02*
X167145000Y-82279000D01*
X167185000Y-75224000D02*
X167185000Y-77700000D01*
X167185000Y-79780000D02*
X167185000Y-82256000D01*
X167225000Y-75247000D02*
X167225000Y-77700000D01*
X167225000Y-79780000D02*
X167225000Y-82233000D01*
X167265000Y-75272000D02*
X167265000Y-77700000D01*
X167265000Y-79780000D02*
X167265000Y-82208000D01*
X167305000Y-75297000D02*
X167305000Y-77700000D01*
X167305000Y-79780000D02*
X167305000Y-82183000D01*
X167345000Y-75322000D02*
X167345000Y-77700000D01*
X167345000Y-79780000D02*
X167345000Y-82158000D01*
X167385000Y-75348000D02*
X167385000Y-77700000D01*
X167385000Y-79780000D02*
X167385000Y-82132000D01*
X167425000Y-75375000D02*
X167425000Y-77700000D01*
X167425000Y-79780000D02*
X167425000Y-82105000D01*
X167465000Y-75403000D02*
X167465000Y-77700000D01*
X167465000Y-79780000D02*
X167465000Y-82077000D01*
X167505000Y-75431000D02*
X167505000Y-77700000D01*
X167505000Y-79780000D02*
X167505000Y-82049000D01*
X167545000Y-75460000D02*
X167545000Y-77700000D01*
X167545000Y-79780000D02*
X167545000Y-82020000D01*
X167585000Y-75490000D02*
X167585000Y-77700000D01*
X167585000Y-79780000D02*
X167585000Y-81990000D01*
X167625000Y-75521000D02*
X167625000Y-77700000D01*
X167625000Y-79780000D02*
X167625000Y-81959000D01*
X167665000Y-75552000D02*
X167665000Y-77700000D01*
X167665000Y-79780000D02*
X167665000Y-81928000D01*
X167705000Y-75584000D02*
X167705000Y-77700000D01*
X167705000Y-79780000D02*
X167705000Y-81896000D01*
X167745000Y-75617000D02*
X167745000Y-77700000D01*
X167745000Y-79780000D02*
X167745000Y-81863000D01*
X167785000Y-75651000D02*
X167785000Y-77700000D01*
X167785000Y-79780000D02*
X167785000Y-81829000D01*
X167825000Y-75685000D02*
X167825000Y-77700000D01*
X167825000Y-79780000D02*
X167825000Y-81795000D01*
X167865000Y-75721000D02*
X167865000Y-77700000D01*
X167865000Y-79780000D02*
X167865000Y-81759000D01*
X167905000Y-75758000D02*
X167905000Y-77700000D01*
X167905000Y-79780000D02*
X167905000Y-81722000D01*
X167945000Y-75795000D02*
X167945000Y-77700000D01*
X167945000Y-79780000D02*
X167945000Y-81685000D01*
X167985000Y-75834000D02*
X167985000Y-77700000D01*
X167985000Y-79780000D02*
X167985000Y-81646000D01*
X168025000Y-75873000D02*
X168025000Y-77700000D01*
X168025000Y-79780000D02*
X168025000Y-81607000D01*
X168065000Y-75914000D02*
X168065000Y-81566000D01*
X168105000Y-75956000D02*
X168105000Y-81524000D01*
X168145000Y-75999000D02*
X168145000Y-81481000D01*
X168185000Y-76044000D02*
X168185000Y-81436000D01*
X168225000Y-76089000D02*
X168225000Y-81391000D01*
X168265000Y-76136000D02*
X168265000Y-81344000D01*
X168305000Y-76185000D02*
X168305000Y-81295000D01*
X168345000Y-76235000D02*
X168345000Y-81245000D01*
X168385000Y-76287000D02*
X168385000Y-81193000D01*
X168425000Y-76340000D02*
X168425000Y-81140000D01*
X168465000Y-76396000D02*
X168465000Y-81084000D01*
X168505000Y-76453000D02*
X168505000Y-81027000D01*
X168545000Y-76513000D02*
X168545000Y-80967000D01*
X168585000Y-76575000D02*
X168585000Y-80905000D01*
X168625000Y-76639000D02*
X168625000Y-80841000D01*
X168665000Y-76706000D02*
X168665000Y-80774000D01*
X168705000Y-76776000D02*
X168705000Y-80704000D01*
X168745000Y-76850000D02*
X168745000Y-80630000D01*
X168785000Y-76927000D02*
X168785000Y-80553000D01*
X168825000Y-77009000D02*
X168825000Y-80471000D01*
X168865000Y-77096000D02*
X168865000Y-80384000D01*
X168905000Y-77188000D02*
X168905000Y-80292000D01*
X168945000Y-77287000D02*
X168945000Y-80193000D01*
X168985000Y-77394000D02*
X168985000Y-80086000D01*
X169025000Y-77512000D02*
X169025000Y-79968000D01*
X169065000Y-77643000D02*
X169065000Y-79837000D01*
X169105000Y-77793000D02*
X169105000Y-79687000D01*
X169145000Y-77972000D02*
X169145000Y-79508000D01*
X169185000Y-78207000D02*
X169185000Y-79273000D01*
X169225000Y-78740000D02*
G75*
G02*
X160985000Y-78740000I-4120000J0D01*
G01*
X160985000Y-78740000D02*
G75*
G02*
X169225000Y-78740000I4120000J0D01*
G01*
%TO.C,C5*%
X64550113Y-53770000D02*
X65050113Y-53770000D01*
X64800113Y-53520000D02*
X64800113Y-54020000D01*
X67354888Y-52665000D02*
X67354888Y-54205000D01*
X67354888Y-56285000D02*
X67354888Y-57825000D01*
X67394888Y-52665000D02*
X67394888Y-54205000D01*
X67394888Y-56285000D02*
X67394888Y-57825000D01*
X67434888Y-52666000D02*
X67434888Y-54205000D01*
X67434888Y-56285000D02*
X67434888Y-57824000D01*
X67474888Y-52668000D02*
X67474888Y-54205000D01*
X67474888Y-56285000D02*
X67474888Y-57822000D01*
X67514888Y-52670000D02*
X67514888Y-54205000D01*
X67514888Y-56285000D02*
X67514888Y-57820000D01*
X67554888Y-52673000D02*
X67554888Y-54205000D01*
X67554888Y-56285000D02*
X67554888Y-57817000D01*
X67594888Y-52676000D02*
X67594888Y-54205000D01*
X67594888Y-56285000D02*
X67594888Y-57814000D01*
X67634888Y-52680000D02*
X67634888Y-54205000D01*
X67634888Y-56285000D02*
X67634888Y-57810000D01*
X67674888Y-52685000D02*
X67674888Y-54205000D01*
X67674888Y-56285000D02*
X67674888Y-57805000D01*
X67714888Y-52690000D02*
X67714888Y-54205000D01*
X67714888Y-56285000D02*
X67714888Y-57800000D01*
X67754888Y-52696000D02*
X67754888Y-54205000D01*
X67754888Y-56285000D02*
X67754888Y-57794000D01*
X67794888Y-52702000D02*
X67794888Y-54205000D01*
X67794888Y-56285000D02*
X67794888Y-57788000D01*
X67834888Y-52709000D02*
X67834888Y-54205000D01*
X67834888Y-56285000D02*
X67834888Y-57781000D01*
X67874888Y-52717000D02*
X67874888Y-54205000D01*
X67874888Y-56285000D02*
X67874888Y-57773000D01*
X67914888Y-52726000D02*
X67914888Y-54205000D01*
X67914888Y-56285000D02*
X67914888Y-57764000D01*
X67954888Y-52735000D02*
X67954888Y-54205000D01*
X67954888Y-56285000D02*
X67954888Y-57755000D01*
X67994888Y-52744000D02*
X67994888Y-54205000D01*
X67994888Y-56285000D02*
X67994888Y-57746000D01*
X68034888Y-52755000D02*
X68034888Y-54205000D01*
X68034888Y-56285000D02*
X68034888Y-57735000D01*
X68074888Y-52766000D02*
X68074888Y-54205000D01*
X68074888Y-56285000D02*
X68074888Y-57724000D01*
X68114888Y-52778000D02*
X68114888Y-54205000D01*
X68114888Y-56285000D02*
X68114888Y-57712000D01*
X68154888Y-52790000D02*
X68154888Y-54205000D01*
X68154888Y-56285000D02*
X68154888Y-57700000D01*
X68194888Y-52803000D02*
X68194888Y-54205000D01*
X68194888Y-56285000D02*
X68194888Y-57687000D01*
X68234888Y-52817000D02*
X68234888Y-54205000D01*
X68234888Y-56285000D02*
X68234888Y-57673000D01*
X68274888Y-52832000D02*
X68274888Y-54205000D01*
X68274888Y-56285000D02*
X68274888Y-57658000D01*
X68314888Y-52847000D02*
X68314888Y-54205000D01*
X68314888Y-56285000D02*
X68314888Y-57643000D01*
X68354888Y-52863000D02*
X68354888Y-54205000D01*
X68354888Y-56285000D02*
X68354888Y-57627000D01*
X68394888Y-52880000D02*
X68394888Y-54205000D01*
X68394888Y-56285000D02*
X68394888Y-57610000D01*
X68434888Y-52898000D02*
X68434888Y-54205000D01*
X68434888Y-56285000D02*
X68434888Y-57592000D01*
X68474888Y-52916000D02*
X68474888Y-54205000D01*
X68474888Y-56285000D02*
X68474888Y-57574000D01*
X68514888Y-52936000D02*
X68514888Y-54205000D01*
X68514888Y-56285000D02*
X68514888Y-57554000D01*
X68554888Y-52956000D02*
X68554888Y-54205000D01*
X68554888Y-56285000D02*
X68554888Y-57534000D01*
X68594888Y-52977000D02*
X68594888Y-54205000D01*
X68594888Y-56285000D02*
X68594888Y-57513000D01*
X68634888Y-52999000D02*
X68634888Y-54205000D01*
X68634888Y-56285000D02*
X68634888Y-57491000D01*
X68674888Y-53022000D02*
X68674888Y-54205000D01*
X68674888Y-56285000D02*
X68674888Y-57468000D01*
X68714888Y-53046000D02*
X68714888Y-54205000D01*
X68714888Y-56285000D02*
X68714888Y-57444000D01*
X68754888Y-53070000D02*
X68754888Y-54205000D01*
X68754888Y-56285000D02*
X68754888Y-57420000D01*
X68794888Y-53096000D02*
X68794888Y-54205000D01*
X68794888Y-56285000D02*
X68794888Y-57394000D01*
X68834888Y-53123000D02*
X68834888Y-54205000D01*
X68834888Y-56285000D02*
X68834888Y-57367000D01*
X68874888Y-53151000D02*
X68874888Y-54205000D01*
X68874888Y-56285000D02*
X68874888Y-57339000D01*
X68914888Y-53180000D02*
X68914888Y-54205000D01*
X68914888Y-56285000D02*
X68914888Y-57310000D01*
X68954888Y-53210000D02*
X68954888Y-54205000D01*
X68954888Y-56285000D02*
X68954888Y-57280000D01*
X68994888Y-53242000D02*
X68994888Y-54205000D01*
X68994888Y-56285000D02*
X68994888Y-57248000D01*
X69034888Y-53275000D02*
X69034888Y-54205000D01*
X69034888Y-56285000D02*
X69034888Y-57215000D01*
X69074888Y-53309000D02*
X69074888Y-54205000D01*
X69074888Y-56285000D02*
X69074888Y-57181000D01*
X69114888Y-53344000D02*
X69114888Y-54205000D01*
X69114888Y-56285000D02*
X69114888Y-57146000D01*
X69154888Y-53381000D02*
X69154888Y-54205000D01*
X69154888Y-56285000D02*
X69154888Y-57109000D01*
X69194888Y-53420000D02*
X69194888Y-54205000D01*
X69194888Y-56285000D02*
X69194888Y-57070000D01*
X69234888Y-53460000D02*
X69234888Y-54205000D01*
X69234888Y-56285000D02*
X69234888Y-57030000D01*
X69274888Y-53502000D02*
X69274888Y-54205000D01*
X69274888Y-56285000D02*
X69274888Y-56988000D01*
X69314888Y-53546000D02*
X69314888Y-54205000D01*
X69314888Y-56285000D02*
X69314888Y-56944000D01*
X69354888Y-53593000D02*
X69354888Y-54205000D01*
X69354888Y-56285000D02*
X69354888Y-56897000D01*
X69394888Y-53641000D02*
X69394888Y-56849000D01*
X69434888Y-53692000D02*
X69434888Y-56798000D01*
X69474888Y-53746000D02*
X69474888Y-56744000D01*
X69514888Y-53802000D02*
X69514888Y-56688000D01*
X69554888Y-53862000D02*
X69554888Y-56628000D01*
X69594888Y-53926000D02*
X69594888Y-56564000D01*
X69634888Y-53994000D02*
X69634888Y-56496000D01*
X69674888Y-54068000D02*
X69674888Y-56422000D01*
X69714888Y-54147000D02*
X69714888Y-56343000D01*
X69754888Y-54234000D02*
X69754888Y-56256000D01*
X69794888Y-54331000D02*
X69794888Y-56159000D01*
X69834888Y-54440000D02*
X69834888Y-56050000D01*
X69874888Y-54568000D02*
X69874888Y-55922000D01*
X69914888Y-54728000D02*
X69914888Y-55762000D01*
X69954888Y-54962000D02*
X69954888Y-55528000D01*
X69974888Y-55245000D02*
G75*
G02*
X64734888Y-55245000I-2620000J0D01*
G01*
X64734888Y-55245000D02*
G75*
G02*
X69974888Y-55245000I2620000J0D01*
G01*
D13*
%TO.C,Q4*%
X146890000Y-61375000D02*
X151680000Y-61375000D01*
X146890000Y-71975000D02*
X146890000Y-61375000D01*
X151080000Y-71975000D02*
X151080000Y-61375000D01*
X151680000Y-61375000D02*
X151680000Y-61375000D01*
X151680000Y-61375000D02*
X151680000Y-71975000D01*
X151680000Y-71975000D02*
X146890000Y-71975000D01*
D17*
X146260000Y-63905000D02*
G75*
G02*
X146259984Y-63902452I-200000J18D01*
G01*
D16*
X151620000Y-61675000D02*
G75*
G02*
X151560000Y-61675000I-30000J0D01*
G01*
X151560000Y-61675000D02*
G75*
G02*
X151620000Y-61675000I30000J0D01*
G01*
D13*
%TO.C,GQ1*%
X66040000Y-43180000D02*
G75*
G02*
X63500000Y-43180000I-1270000J0D01*
G01*
X63500000Y-43180000D02*
G75*
G02*
X66040000Y-43180000I1270000J0D01*
G01*
D16*
X66070000Y-41910000D02*
G75*
G02*
X66010000Y-41910000I-30000J0D01*
G01*
X66010000Y-41910000D02*
G75*
G02*
X66070000Y-41910000I30000J0D01*
G01*
D13*
%TO.C,C2*%
X90045000Y-44450000D02*
X91055000Y-44450000D01*
X90555000Y-43690000D02*
X90555000Y-45210000D01*
D16*
X89645000Y-49450000D02*
G75*
G02*
X89585000Y-49450000I-30000J0D01*
G01*
X89585000Y-49450000D02*
G75*
G02*
X89645000Y-49450000I30000J0D01*
G01*
D13*
X99615000Y-44450000D02*
G75*
G02*
X89615000Y-44450000I-5000000J0D01*
G01*
X89615000Y-44450000D02*
G75*
G02*
X99615000Y-44450000I5000000J0D01*
G01*
D18*
G36*
X99440873Y-42926000D02*
G01*
X99694873Y-43942000D01*
X99440873Y-45466000D01*
X98932873Y-46990000D01*
X98170873Y-48006000D01*
X98170873Y-40894000D01*
X99440873Y-42926000D01*
G37*
D15*
%TO.C,R5*%
X58512064Y-72750000D02*
X57057936Y-72750000D01*
X58512064Y-74570000D02*
X57057936Y-74570000D01*
D13*
%TO.C,Q1*%
X81485000Y-48675000D02*
X86275000Y-48675000D01*
X81485000Y-59275000D02*
X81485000Y-48675000D01*
X85675000Y-59275000D02*
X85675000Y-48675000D01*
X86275000Y-48675000D02*
X86275000Y-48675000D01*
X86275000Y-48675000D02*
X86275000Y-59275000D01*
X86275000Y-59275000D02*
X81485000Y-59275000D01*
D17*
X80855000Y-51205000D02*
G75*
G02*
X80854984Y-51202452I-200000J18D01*
G01*
D16*
X86215000Y-48975000D02*
G75*
G02*
X86155000Y-48975000I-30000J0D01*
G01*
X86155000Y-48975000D02*
G75*
G02*
X86215000Y-48975000I30000J0D01*
G01*
D13*
%TO.C,GQ3*%
X156210000Y-43180000D02*
G75*
G02*
X153670000Y-43180000I-1270000J0D01*
G01*
X153670000Y-43180000D02*
G75*
G02*
X156210000Y-43180000I1270000J0D01*
G01*
D16*
X156240000Y-41910000D02*
G75*
G02*
X156180000Y-41910000I-30000J0D01*
G01*
X156180000Y-41910000D02*
G75*
G02*
X156240000Y-41910000I30000J0D01*
G01*
D13*
%TO.C,N2*%
X127635000Y-73660000D02*
G75*
G02*
X125095000Y-73660000I-1270000J0D01*
G01*
X125095000Y-73660000D02*
G75*
G02*
X127635000Y-73660000I1270000J0D01*
G01*
D16*
X127665000Y-72390000D02*
G75*
G02*
X127605000Y-72390000I-30000J0D01*
G01*
X127605000Y-72390000D02*
G75*
G02*
X127665000Y-72390000I30000J0D01*
G01*
D15*
%TO.C,D4*%
X157915000Y-55040000D02*
X160855000Y-55040000D01*
X157915000Y-55160000D02*
X160855000Y-55160000D01*
X157915000Y-55280000D02*
X160855000Y-55280000D01*
X159385000Y-49600000D02*
X159385000Y-50620000D01*
X159385000Y-57080000D02*
X159385000Y-56060000D01*
X157915000Y-56060000D02*
X160855000Y-56060000D01*
X160855000Y-50620000D01*
X157915000Y-50620000D01*
X157915000Y-56060000D01*
%TO.C,C6*%
X104130000Y-43980000D02*
X128370000Y-43980000D01*
X104130000Y-47103000D02*
X104130000Y-43980000D01*
X104130000Y-52520000D02*
X104130000Y-49397000D01*
X128370000Y-43980000D02*
X128370000Y-47103000D01*
X128370000Y-49397000D02*
X128370000Y-52520000D01*
X128370000Y-52520000D02*
X104130000Y-52520000D01*
%TO.C,R3*%
X154030000Y-53247936D02*
X154030000Y-54702064D01*
X155850000Y-53247936D02*
X155850000Y-54702064D01*
%TO.C,J3*%
X113220000Y-69235000D02*
X113220000Y-79355000D01*
X113220000Y-79355000D02*
X119190000Y-79355000D01*
X113980000Y-69995000D02*
X113980000Y-74295000D01*
X113980000Y-78595000D02*
X113980000Y-74295000D01*
X116930000Y-69245000D02*
X116930000Y-69995000D01*
X116930000Y-69995000D02*
X113980000Y-69995000D01*
X116930000Y-78595000D02*
X113980000Y-78595000D01*
X116930000Y-79345000D02*
X116930000Y-78595000D01*
X118430000Y-69245000D02*
X118430000Y-71045000D01*
X118430000Y-71045000D02*
X119180000Y-71045000D01*
X118430000Y-72545000D02*
X118430000Y-76045000D01*
X118430000Y-76045000D02*
X119180000Y-76045000D01*
X118430000Y-77545000D02*
X118430000Y-79345000D01*
X118430000Y-79345000D02*
X119180000Y-79345000D01*
X119180000Y-69245000D02*
X118430000Y-69245000D01*
X119180000Y-71045000D02*
X119180000Y-69245000D01*
X119180000Y-72545000D02*
X118430000Y-72545000D01*
X119180000Y-76045000D02*
X119180000Y-72545000D01*
X119180000Y-77545000D02*
X118430000Y-77545000D01*
X119180000Y-79345000D02*
X119180000Y-77545000D01*
X119190000Y-69235000D02*
X113220000Y-69235000D01*
X119190000Y-79355000D02*
X119190000Y-69235000D01*
X119480000Y-68945000D02*
X118230000Y-68945000D01*
X119480000Y-70195000D02*
X119480000Y-68945000D01*
D13*
%TO.C,Q2*%
X81485000Y-61375000D02*
X86275000Y-61375000D01*
X81485000Y-71975000D02*
X81485000Y-61375000D01*
X85675000Y-71975000D02*
X85675000Y-61375000D01*
X86275000Y-61375000D02*
X86275000Y-61375000D01*
X86275000Y-61375000D02*
X86275000Y-71975000D01*
X86275000Y-71975000D02*
X81485000Y-71975000D01*
D17*
X80855000Y-63905000D02*
G75*
G02*
X80854984Y-63902452I-200000J18D01*
G01*
D16*
X86215000Y-61675000D02*
G75*
G02*
X86155000Y-61675000I-30000J0D01*
G01*
X86155000Y-61675000D02*
G75*
G02*
X86215000Y-61675000I30000J0D01*
G01*
D13*
%TO.C,N1*%
X78740000Y-78105000D02*
G75*
G02*
X76200000Y-78105000I-1270000J0D01*
G01*
X76200000Y-78105000D02*
G75*
G02*
X78740000Y-78105000I1270000J0D01*
G01*
D16*
X78770000Y-76835000D02*
G75*
G02*
X78710000Y-76835000I-30000J0D01*
G01*
X78710000Y-76835000D02*
G75*
G02*
X78770000Y-76835000I30000J0D01*
G01*
D13*
%TO.C,GNDT2*%
X164465000Y-43180000D02*
G75*
G02*
X161925000Y-43180000I-1270000J0D01*
G01*
X161925000Y-43180000D02*
G75*
G02*
X164465000Y-43180000I1270000J0D01*
G01*
D16*
X164495000Y-41910000D02*
G75*
G02*
X164435000Y-41910000I-30000J0D01*
G01*
X164435000Y-41910000D02*
G75*
G02*
X164495000Y-41910000I30000J0D01*
G01*
D13*
%TO.C,Q3*%
X146890000Y-48675000D02*
X151680000Y-48675000D01*
X146890000Y-59275000D02*
X146890000Y-48675000D01*
X151080000Y-59275000D02*
X151080000Y-48675000D01*
X151680000Y-48675000D02*
X151680000Y-48675000D01*
X151680000Y-48675000D02*
X151680000Y-59275000D01*
X151680000Y-59275000D02*
X146890000Y-59275000D01*
D17*
X146260000Y-51205000D02*
G75*
G02*
X146259984Y-51202452I-200000J18D01*
G01*
D16*
X151620000Y-48975000D02*
G75*
G02*
X151560000Y-48975000I-30000J0D01*
G01*
X151560000Y-48975000D02*
G75*
G02*
X151620000Y-48975000I30000J0D01*
G01*
D13*
%TO.C,SW1*%
X53235000Y-76990000D02*
X54115000Y-76990000D01*
X53235000Y-80490000D02*
X53235000Y-76990000D01*
X54115000Y-80490000D02*
X53235000Y-80490000D01*
X54735000Y-78050000D02*
X54735000Y-79430000D01*
X55245000Y-78230000D02*
X57025000Y-78230000D01*
X55245000Y-79250000D02*
X55245000Y-78230000D01*
X56375000Y-76990000D02*
X56655000Y-76990000D01*
X56655000Y-80490000D02*
X56375000Y-80490000D01*
X56885000Y-77720000D02*
X56145000Y-77720000D01*
X56885000Y-79760000D02*
X56145000Y-79760000D01*
X57025000Y-78230000D02*
X57025000Y-79250000D01*
X57025000Y-79250000D02*
X55245000Y-79250000D01*
X58915000Y-76990000D02*
X59195000Y-76990000D01*
X59055000Y-77720000D02*
X58685000Y-77720000D01*
X59055000Y-77720000D02*
X59055000Y-79760000D01*
X59055000Y-79760000D02*
X58685000Y-79760000D01*
X59195000Y-80490000D02*
X58915000Y-80490000D01*
X61455000Y-76990000D02*
X62335000Y-76990000D01*
X62335000Y-76990000D02*
X62335000Y-80490000D01*
X62335000Y-80490000D02*
X61455000Y-80490000D01*
D16*
X53135000Y-76140000D02*
G75*
G02*
X53075000Y-76140000I-30000J0D01*
G01*
X53075000Y-76140000D02*
G75*
G02*
X53135000Y-76140000I30000J0D01*
G01*
D15*
%TO.C,R2*%
X77830000Y-67402064D02*
X77830000Y-65947936D01*
X79650000Y-67402064D02*
X79650000Y-65947936D01*
D13*
%TO.C,GNDT1*%
X80010000Y-43180000D02*
G75*
G02*
X77470000Y-43180000I-1270000J0D01*
G01*
X77470000Y-43180000D02*
G75*
G02*
X80010000Y-43180000I1270000J0D01*
G01*
D16*
X80040000Y-41910000D02*
G75*
G02*
X79980000Y-41910000I-30000J0D01*
G01*
X79980000Y-41910000D02*
G75*
G02*
X80040000Y-41910000I30000J0D01*
G01*
D15*
%TO.C,D3*%
X72825000Y-69010000D02*
X75765000Y-69010000D01*
X72825000Y-69130000D02*
X75765000Y-69130000D01*
X72825000Y-69250000D02*
X75765000Y-69250000D01*
X74295000Y-63570000D02*
X74295000Y-64590000D01*
X74295000Y-71050000D02*
X74295000Y-70030000D01*
X72825000Y-70030000D02*
X75765000Y-70030000D01*
X75765000Y-64590000D01*
X72825000Y-64590000D01*
X72825000Y-70030000D01*
%TO.C,U1*%
X55135000Y-53285000D02*
X55135000Y-71185000D01*
X55135000Y-71185000D02*
X60435000Y-71185000D01*
X56785000Y-53285000D02*
X55135000Y-53285000D01*
X60435000Y-53285000D02*
X58785000Y-53285000D01*
X60435000Y-71185000D02*
X60435000Y-53285000D01*
X52645000Y-53225000D02*
X62925000Y-53225000D01*
X62925000Y-71245000D01*
X52645000Y-71245000D01*
X52645000Y-53225000D01*
X58785000Y-53285000D02*
G75*
G02*
X56785000Y-53285000I-1000000J0D01*
G01*
%TO.C,LS1*%
X111942500Y-56050000D02*
X120022500Y-56050000D01*
X111942500Y-63070000D02*
X111942500Y-56050000D01*
X113142500Y-63070000D02*
X111942500Y-63070000D01*
X113142500Y-64770000D02*
X113142500Y-63070000D01*
X118822500Y-63070000D02*
X118822500Y-64770000D01*
X118822500Y-64770000D02*
X113142500Y-64770000D01*
X120022500Y-56050000D02*
X120022500Y-63070000D01*
X120022500Y-63070000D02*
X118822500Y-63070000D01*
X120222500Y-60960000D02*
X120822500Y-60660000D01*
X120822500Y-60660000D02*
X120822500Y-61260000D01*
X120822500Y-61260000D02*
X120222500Y-60960000D01*
%TO.C,D2*%
X72825000Y-55040000D02*
X75765000Y-55040000D01*
X72825000Y-55160000D02*
X75765000Y-55160000D01*
X72825000Y-55280000D02*
X75765000Y-55280000D01*
X74295000Y-49600000D02*
X74295000Y-50620000D01*
X74295000Y-57080000D02*
X74295000Y-56060000D01*
X72825000Y-56060000D02*
X75765000Y-56060000D01*
X75765000Y-50620000D01*
X72825000Y-50620000D01*
X72825000Y-56060000D01*
%TO.C,R1*%
X77830000Y-54702064D02*
X77830000Y-53247936D01*
X79650000Y-54702064D02*
X79650000Y-53247936D01*
%TO.C,D5*%
X157930000Y-69040000D02*
X160870000Y-69040000D01*
X157930000Y-69160000D02*
X160870000Y-69160000D01*
X157930000Y-69280000D02*
X160870000Y-69280000D01*
X159400000Y-63600000D02*
X159400000Y-64620000D01*
X159400000Y-71080000D02*
X159400000Y-70060000D01*
X157930000Y-70060000D02*
X160870000Y-70060000D01*
X160870000Y-64620000D01*
X157930000Y-64620000D01*
X157930000Y-70060000D01*
D13*
%TO.C,L1*%
X90220000Y-54025000D02*
X90220000Y-57595000D01*
X90220000Y-63055000D02*
X90220000Y-66625000D01*
X90220000Y-66625000D02*
X102820000Y-66625000D01*
X102820000Y-54025000D02*
X90220000Y-54025000D01*
X102820000Y-57595000D02*
X102820000Y-54025000D01*
X102820000Y-66625000D02*
X102820000Y-63055000D01*
D16*
X89800000Y-66625000D02*
G75*
G02*
X89740000Y-66625000I-30000J0D01*
G01*
X89740000Y-66625000D02*
G75*
G02*
X89800000Y-66625000I30000J0D01*
G01*
D15*
%TO.C,R4*%
X154030000Y-66140436D02*
X154030000Y-67594564D01*
X155850000Y-66140436D02*
X155850000Y-67594564D01*
D13*
%TO.C,C3*%
X133225000Y-44450000D02*
X134235000Y-44450000D01*
X133735000Y-43690000D02*
X133735000Y-45210000D01*
D16*
X132825000Y-49450000D02*
G75*
G02*
X132765000Y-49450000I-30000J0D01*
G01*
X132765000Y-49450000D02*
G75*
G02*
X132825000Y-49450000I30000J0D01*
G01*
D13*
X142795000Y-44450000D02*
G75*
G02*
X132795000Y-44450000I-5000000J0D01*
G01*
X132795000Y-44450000D02*
G75*
G02*
X142795000Y-44450000I5000000J0D01*
G01*
D18*
G36*
X142620873Y-42926000D02*
G01*
X142874873Y-43942000D01*
X142620873Y-45466000D01*
X142112873Y-46990000D01*
X141350873Y-48006000D01*
X141350873Y-40894000D01*
X142620873Y-42926000D01*
G37*
D15*
%TO.C,D6*%
X170530000Y-49520000D02*
X171550000Y-49520000D01*
X172330000Y-48050000D02*
X172330000Y-50990000D01*
X172450000Y-48050000D02*
X172450000Y-50990000D01*
X172570000Y-48050000D02*
X172570000Y-50990000D01*
X178010000Y-49520000D02*
X176990000Y-49520000D01*
X171550000Y-48050000D02*
X176990000Y-48050000D01*
X176990000Y-50990000D01*
X171550000Y-50990000D01*
X171550000Y-48050000D01*
%TO.C,C13*%
X167716252Y-61320000D02*
X166293748Y-61320000D01*
X167716252Y-63140000D02*
X166293748Y-63140000D01*
D13*
%TO.C,SW2*%
X170710000Y-76785000D02*
X171590000Y-76785000D01*
X170710000Y-80285000D02*
X170710000Y-76785000D01*
X171590000Y-80285000D02*
X170710000Y-80285000D01*
X172210000Y-77845000D02*
X172210000Y-79225000D01*
X172720000Y-78025000D02*
X174500000Y-78025000D01*
X172720000Y-79045000D02*
X172720000Y-78025000D01*
X173850000Y-76785000D02*
X174130000Y-76785000D01*
X174130000Y-80285000D02*
X173850000Y-80285000D01*
X174360000Y-77515000D02*
X173620000Y-77515000D01*
X174360000Y-79555000D02*
X173620000Y-79555000D01*
X174500000Y-78025000D02*
X174500000Y-79045000D01*
X174500000Y-79045000D02*
X172720000Y-79045000D01*
X176390000Y-76785000D02*
X176670000Y-76785000D01*
X176530000Y-77515000D02*
X176160000Y-77515000D01*
X176530000Y-77515000D02*
X176530000Y-79555000D01*
X176530000Y-79555000D02*
X176160000Y-79555000D01*
X176670000Y-80285000D02*
X176390000Y-80285000D01*
X178930000Y-76785000D02*
X179810000Y-76785000D01*
X179810000Y-76785000D02*
X179810000Y-80285000D01*
X179810000Y-80285000D02*
X178930000Y-80285000D01*
D16*
X170610000Y-75935000D02*
G75*
G02*
X170550000Y-75935000I-30000J0D01*
G01*
X170550000Y-75935000D02*
G75*
G02*
X170610000Y-75935000I30000J0D01*
G01*
D15*
%TO.C,U2*%
X172610000Y-53280000D02*
X172610000Y-71180000D01*
X172610000Y-71180000D02*
X174260000Y-71180000D01*
X176260000Y-71180000D02*
X177910000Y-71180000D01*
X177910000Y-53280000D02*
X172610000Y-53280000D01*
X177910000Y-71180000D02*
X177910000Y-53280000D01*
X180400000Y-71240000D02*
X170120000Y-71240000D01*
X170120000Y-53220000D01*
X180400000Y-53220000D01*
X180400000Y-71240000D01*
X174260000Y-71180000D02*
G75*
G02*
X176260000Y-71180000I1000000J0D01*
G01*
%TO.C,C7*%
X84531252Y-44810000D02*
X83108748Y-44810000D01*
X84531252Y-46630000D02*
X83108748Y-46630000D01*
%TD*%
M02*
