%TF.GenerationSoftware,KiCad,Pcbnew,9.0.7*%
%TF.CreationDate,2026-08-18T09:52:51-07:00*%
%TF.ProjectId,PowerStage,506f7765-7253-4746-9167-652e6b696361,rev?*%
%TF.SameCoordinates,Original*%
%TF.FileFunction,Soldermask,Bot*%
%TF.FilePolarity,Negative*%
%FSLAX46Y46*%
G04 Gerber Fmt 4.6, Leading zero omitted, Abs format (unit mm)*
G04 Created by KiCad (PCBNEW 9.0.7) date 2026-08-18 09:52:51*
%MOMM*%
%LPD*%
G01*
G04 APERTURE LIST*
G04 Aperture macros list*
%AMRoundRect*
0 Rectangle with rounded corners*
0 $1 Rounding radius*
0 $2 $3 $4 $5 $6 $7 $8 $9 X,Y pos of 4 corners*
0 Add a 4 corners polygon primitive as box body*
4,1,4,$2,$3,$4,$5,$6,$7,$8,$9,$2,$3,0*
0 Add four circle primitives for the rounded corners*
1,1,$1+$1,$2,$3*
1,1,$1+$1,$4,$5*
1,1,$1+$1,$6,$7*
1,1,$1+$1,$8,$9*
0 Add four rect primitives between the rounded corners*
20,1,$1+$1,$2,$3,$4,$5,0*
20,1,$1+$1,$4,$5,$6,$7,0*
20,1,$1+$1,$6,$7,$8,$9,0*
20,1,$1+$1,$8,$9,$2,$3,0*%
G04 Aperture macros list end*
%ADD10RoundRect,0.250000X-0.550000X-0.550000X0.550000X-0.550000X0.550000X0.550000X-0.550000X0.550000X0*%
%ADD11C,1.600000*%
%ADD12C,1.900000*%
%ADD13RoundRect,0.249999X-0.850001X-0.850001X0.850001X-0.850001X0.850001X0.850001X-0.850001X0.850001X0*%
%ADD14C,2.200000*%
%ADD15RoundRect,0.250000X0.600000X0.750000X-0.600000X0.750000X-0.600000X-0.750000X0.600000X-0.750000X0*%
%ADD16O,1.700000X2.000000*%
%ADD17RoundRect,0.250001X-1.099999X1.099999X-1.099999X-1.099999X1.099999X-1.099999X1.099999X1.099999X0*%
%ADD18C,2.700000*%
%ADD19C,0.800000*%
%ADD20C,6.400000*%
%ADD21R,2.600000X1.800000*%
%ADD22O,2.600000X1.800000*%
%ADD23RoundRect,0.249999X0.850001X-0.850001X0.850001X0.850001X-0.850001X0.850001X-0.850001X-0.850001X0*%
%ADD24C,2.400000*%
%ADD25RoundRect,0.250000X-0.725000X0.600000X-0.725000X-0.600000X0.725000X-0.600000X0.725000X0.600000X0*%
%ADD26O,1.950000X1.700000*%
%ADD27C,1.800000*%
%ADD28RoundRect,0.250001X1.099999X1.099999X-1.099999X1.099999X-1.099999X-1.099999X1.099999X-1.099999X0*%
%ADD29RoundRect,0.250000X0.550000X0.550000X-0.550000X0.550000X-0.550000X-0.550000X0.550000X-0.550000X0*%
G04 APERTURE END LIST*
D10*
%TO.C,C8*%
X66777349Y-76835000D03*
D11*
X70577349Y-76835000D03*
%TD*%
D12*
%TO.C,GQ4*%
X146050000Y-76200000D03*
%TD*%
%TO.C,GQ2*%
X71755000Y-43180000D03*
%TD*%
D10*
%TO.C,C1*%
X66354888Y-67945000D03*
D11*
X68354888Y-67945000D03*
%TD*%
D12*
%TO.C,GNDT3*%
X105410000Y-73660000D03*
%TD*%
D13*
%TO.C,D1*%
X53750000Y-49510000D03*
D14*
X63910000Y-49510000D03*
%TD*%
D15*
%TO.C,J2*%
X97770000Y-74185000D03*
D16*
X95270000Y-74185000D03*
%TD*%
D17*
%TO.C,J1*%
X136525000Y-72240000D03*
D18*
X136525000Y-76200000D03*
%TD*%
D10*
%TO.C,C9*%
X165005000Y-56515000D03*
D11*
X167005000Y-56515000D03*
%TD*%
D10*
%TO.C,C10*%
X164144888Y-67945000D03*
D11*
X166144888Y-67945000D03*
%TD*%
D10*
%TO.C,C4*%
X163205000Y-78740000D03*
D11*
X167005000Y-78740000D03*
%TD*%
D19*
%TO.C,H1*%
X54542056Y-42337056D03*
X55245000Y-40640000D03*
X55245000Y-44034112D03*
X56942056Y-39937056D03*
D20*
X56942056Y-42337056D03*
D19*
X56942056Y-44737056D03*
X58639112Y-40640000D03*
X58639112Y-44034112D03*
X59342056Y-42337056D03*
%TD*%
D10*
%TO.C,C5*%
X66354888Y-55245000D03*
D11*
X68354888Y-55245000D03*
%TD*%
D21*
%TO.C,Q4*%
X148590000Y-64135000D03*
D22*
X148590000Y-66675000D03*
X148590000Y-69215000D03*
%TD*%
D12*
%TO.C,GQ1*%
X64770000Y-43180000D03*
%TD*%
D19*
%TO.C,H4*%
X150635000Y-76695000D03*
X151337944Y-74997944D03*
X151337944Y-78392056D03*
X153035000Y-74295000D03*
D20*
X153035000Y-76695000D03*
D19*
X153035000Y-79095000D03*
X154732056Y-74997944D03*
X154732056Y-78392056D03*
X155435000Y-76695000D03*
%TD*%
D11*
%TO.C,C2*%
X92115000Y-44450000D03*
X97115000Y-44450000D03*
%TD*%
D21*
%TO.C,Q1*%
X83185000Y-51435000D03*
D22*
X83185000Y-53975000D03*
X83185000Y-56515000D03*
%TD*%
D12*
%TO.C,GQ3*%
X154940000Y-43180000D03*
%TD*%
%TO.C,N2*%
X126365000Y-73660000D03*
%TD*%
D23*
%TO.C,D4*%
X159385000Y-58420000D03*
D14*
X159385000Y-48260000D03*
%TD*%
D24*
%TO.C,C6*%
X127500000Y-48250000D03*
X105000000Y-48250000D03*
%TD*%
D25*
%TO.C,J3*%
X116730000Y-71795000D03*
D26*
X116730000Y-74295000D03*
X116730000Y-76795000D03*
%TD*%
D21*
%TO.C,Q2*%
X83185000Y-64135000D03*
D22*
X83185000Y-66675000D03*
X83185000Y-69215000D03*
%TD*%
D12*
%TO.C,N1*%
X77470000Y-78105000D03*
%TD*%
%TO.C,GNDT2*%
X163195000Y-43180000D03*
%TD*%
D21*
%TO.C,Q3*%
X148590000Y-51435000D03*
D22*
X148590000Y-53975000D03*
X148590000Y-56515000D03*
%TD*%
D19*
%TO.C,H3*%
X174130000Y-41910000D03*
X174832944Y-40212944D03*
X174832944Y-43607056D03*
X176530000Y-39510000D03*
D20*
X176530000Y-41910000D03*
D19*
X176530000Y-44310000D03*
X178227056Y-40212944D03*
X178227056Y-43607056D03*
X178930000Y-41910000D03*
%TD*%
D27*
%TO.C,SW1*%
X55245000Y-77040000D03*
X57785000Y-77040000D03*
X60325000Y-77040000D03*
X55245000Y-80440000D03*
X57785000Y-80440000D03*
X60325000Y-80440000D03*
%TD*%
D12*
%TO.C,GNDT1*%
X78740000Y-43180000D03*
%TD*%
D23*
%TO.C,D3*%
X74295000Y-72390000D03*
D14*
X74295000Y-62230000D03*
%TD*%
D10*
%TO.C,U1*%
X53975000Y-54615000D03*
D11*
X53975000Y-57155000D03*
X53975000Y-59695000D03*
X53975000Y-62235000D03*
X53975000Y-64775000D03*
X53975000Y-67315000D03*
X53975000Y-69855000D03*
X61595000Y-69855000D03*
X61595000Y-67315000D03*
X61595000Y-64775000D03*
X61595000Y-62235000D03*
X61595000Y-59695000D03*
X61595000Y-57155000D03*
X61595000Y-54615000D03*
%TD*%
D19*
%TO.C,H2*%
X83325000Y-77470000D03*
X84027944Y-75772944D03*
X84027944Y-79167056D03*
X85725000Y-75070000D03*
D20*
X85725000Y-77470000D03*
D19*
X85725000Y-79870000D03*
X87422056Y-75772944D03*
X87422056Y-79167056D03*
X88125000Y-77470000D03*
%TD*%
D28*
%TO.C,LS1*%
X117962500Y-60960000D03*
D18*
X114002500Y-60960000D03*
%TD*%
D23*
%TO.C,D2*%
X74295000Y-58420000D03*
D14*
X74295000Y-48260000D03*
%TD*%
D23*
%TO.C,D5*%
X159400000Y-72420000D03*
D14*
X159400000Y-62260000D03*
%TD*%
D11*
%TO.C,C3*%
X135295000Y-44450000D03*
X140295000Y-44450000D03*
%TD*%
D13*
%TO.C,D6*%
X169190000Y-49520000D03*
D14*
X179350000Y-49520000D03*
%TD*%
D27*
%TO.C,SW2*%
X172720000Y-76835000D03*
X175260000Y-76835000D03*
X177800000Y-76835000D03*
X172720000Y-80235000D03*
X175260000Y-80235000D03*
X177800000Y-80235000D03*
%TD*%
D29*
%TO.C,U2*%
X179070000Y-69850000D03*
D11*
X179070000Y-67310000D03*
X179070000Y-64770000D03*
X179070000Y-62230000D03*
X179070000Y-59690000D03*
X179070000Y-57150000D03*
X179070000Y-54610000D03*
X171450000Y-54610000D03*
X171450000Y-57150000D03*
X171450000Y-59690000D03*
X171450000Y-62230000D03*
X171450000Y-64770000D03*
X171450000Y-67310000D03*
X171450000Y-69850000D03*
%TD*%
M02*
