M48
; DRILL file {KiCad 9.0.7} date 2026-08-18T09:52:49-0700
; FORMAT={-:-/ absolute / metric / decimal}
; #@! TF.CreationDate,2026-08-18T09:52:49-07:00
; #@! TF.GenerationSoftware,Kicad,Pcbnew,9.0.7
; #@! TF.FileFunction,Plated,1,4,PTH
FMAT,2
METRIC
; #@! TA.AperFunction,Plated,PTH,ViaDrill
T1C0.300
; #@! TA.AperFunction,Plated,PTH,ComponentDrill
T2C0.500
; #@! TA.AperFunction,Plated,PTH,ComponentDrill
T3C0.800
; #@! TA.AperFunction,Plated,PTH,ComponentDrill
T4C0.950
; #@! TA.AperFunction,Plated,PTH,ComponentDrill
T5C1.000
; #@! TA.AperFunction,Plated,PTH,ComponentDrill
T6C1.000
; #@! TA.AperFunction,Plated,PTH,ComponentDrill
T7C1.100
; #@! TA.AperFunction,Plated,PTH,ComponentDrill
T8C1.200
; #@! TA.AperFunction,Plated,PTH,ComponentDrill
T9C1.200
; #@! TA.AperFunction,Plated,PTH,ComponentDrill
T10C1.700
; #@! TA.AperFunction,Plated,PTH,ComponentDrill
T11C3.200
%
G90
G05
T1
X55.0Y-73.66
X67.31Y-64.25
X81.15Y-45.72
X146.6Y-46.355
X164.19Y-62.21
X177.95Y-73.66
T2
X54.542Y-42.337
X55.245Y-40.64
X55.245Y-44.034
X56.942Y-39.937
X56.942Y-44.737
X58.639Y-40.64
X58.639Y-44.034
X59.342Y-42.337
X83.325Y-77.47
X84.028Y-75.773
X84.028Y-79.167
X85.725Y-75.07
X85.725Y-79.87
X87.422Y-75.773
X87.422Y-79.167
X88.125Y-77.47
X150.635Y-76.695
X151.338Y-74.998
X151.338Y-78.392
X153.035Y-74.295
X153.035Y-79.095
X154.732Y-74.998
X154.732Y-78.392
X155.435Y-76.695
X174.13Y-41.91
X174.833Y-40.213
X174.833Y-43.607
X176.53Y-39.51
X176.53Y-44.31
X178.227Y-40.213
X178.227Y-43.607
X178.93Y-41.91
T3
X53.975Y-54.615
X53.975Y-57.155
X53.975Y-59.695
X53.975Y-62.235
X53.975Y-64.775
X53.975Y-67.315
X53.975Y-69.855
X61.595Y-54.615
X61.595Y-57.155
X61.595Y-59.695
X61.595Y-62.235
X61.595Y-64.775
X61.595Y-67.315
X61.595Y-69.855
X66.355Y-55.245
X66.355Y-67.945
X66.777Y-76.835
X68.355Y-55.245
X68.355Y-67.945
X70.577Y-76.835
X163.205Y-78.74
X164.145Y-67.945
X165.005Y-56.515
X166.145Y-67.945
X167.005Y-56.515
X167.005Y-78.74
X171.45Y-54.61
X171.45Y-57.15
X171.45Y-59.69
X171.45Y-62.23
X171.45Y-64.77
X171.45Y-67.31
X171.45Y-69.85
X179.07Y-54.61
X179.07Y-57.15
X179.07Y-59.69
X179.07Y-62.23
X179.07Y-64.77
X179.07Y-67.31
X179.07Y-69.85
T4
X116.73Y-71.795
X116.73Y-74.295
X116.73Y-76.795
T5
X92.115Y-44.45
X97.115Y-44.45
X135.295Y-44.45
X140.295Y-44.45
T6
X95.27Y-74.185
X97.77Y-74.185
T7
X53.75Y-49.51
X63.91Y-49.51
X74.295Y-48.26
X74.295Y-58.42
X74.295Y-62.23
X74.295Y-72.39
X159.385Y-48.26
X159.385Y-58.42
X159.4Y-62.26
X159.4Y-72.42
X169.19Y-49.52
X179.35Y-49.52
T8
X55.245Y-77.04
X55.245Y-80.44
X57.785Y-77.04
X57.785Y-80.44
X60.325Y-77.04
X60.325Y-80.44
X64.77Y-43.18
X71.755Y-43.18
X77.47Y-78.105
X78.74Y-43.18
X83.185Y-51.435
X83.185Y-53.975
X83.185Y-56.515
X83.185Y-64.135
X83.185Y-66.675
X83.185Y-69.215
X105.41Y-73.66
X126.365Y-73.66
X146.05Y-76.2
X148.59Y-51.435
X148.59Y-53.975
X148.59Y-56.515
X148.59Y-64.135
X148.59Y-66.675
X148.59Y-69.215
X154.94Y-43.18
X163.195Y-43.18
X172.72Y-76.835
X172.72Y-80.235
X175.26Y-76.835
X175.26Y-80.235
X177.8Y-76.835
X177.8Y-80.235
T9
X105.0Y-48.25
X127.5Y-48.25
T10
X114.002Y-60.96
X117.962Y-60.96
X136.525Y-72.24
X136.525Y-76.2
T11
X56.942Y-42.337
X85.725Y-77.47
X153.035Y-76.695
X176.53Y-41.91
M30
